<svg width="228" height="214" viewBox="0 0 228 214" fill="none" xmlns="http://www.w3.org/2000/svg">
<path d="M189.863 194.582C178.636 201.63 164.119 198.627 150.943 200.16C139.81 201.46 129.437 206.123 118.747 209.587C108.057 213.052 96.4118 215.33 85.7724 211.809C78.4666 209.392 72.2993 204.451 65.4236 200.993C57.1246 196.828 47.9022 194.885 39.2364 191.528C30.5706 188.171 22.0249 182.914 18.0083 174.553C13.1694 164.507 15.9462 152.568 14.1245 141.57C12.0561 129.164 4.21259 118.443 0.929698 106.302C-1.3854 97.7201 1.01825 87.5922 3.82041 79.2628C6.7807 70.4663 15.0164 60.5782 22.9485 55.4607C25.5419 53.7885 28.0973 52.1162 30.5389 50.2295C31.6143 49.3966 37.2502 45.7745 37.2502 44.4683C43.5756 38.3789 47.3709 30.6237 52.874 23.8844C58.5668 16.8864 66.9354 12.362 75.6897 10.1345C83.6046 8.09952 91.7261 6.97113 99.8971 6.77111C108.658 6.62598 117.153 7.44 125.61 4.43634C127.381 3.80532 129.108 3.03547 130.873 2.38552C142.828 -1.98114 158.831 -0.0691473 170.008 5.81196C174.271 8.05209 177.839 11.3965 181.273 14.7661C185.474 18.8867 189.408 23.3228 192.356 28.4341C195.177 33.3371 196.069 39.1614 199.668 43.7742C202.084 46.8662 204.462 50.2547 206.853 53.2395C210.554 57.8396 216.253 60.0482 219.77 65.0648C223.287 70.0814 224.995 76.2717 226.159 82.2475C227.651 89.8891 228.493 97.7327 227.689 105.482C226.424 117.875 219.877 127.094 213.198 137.184C210.978 140.547 208.738 144.024 207.884 147.962C207.541 149.851 207.329 151.761 207.252 153.679C206.841 159.276 205.43 164.406 204.368 169.852C202.502 179.374 198.415 189.212 189.863 194.582Z" fill="#EFF2FD"/>
<path d="M117.14 186.208C174.834 186.208 221.604 184.434 221.604 182.245C221.604 180.057 174.834 178.282 117.14 178.282C59.4461 178.282 12.6759 180.057 12.6759 182.245C12.6759 184.434 59.4461 186.208 117.14 186.208Z" fill="#D2CBEC"/>
<path d="M209.238 92.7917V98.1554H187.592V93.347L209.238 92.7917Z" fill="#FF6551"/>
<g style="mix-blend-mode:multiply" opacity="0.36">
<path d="M209.238 93.8645V98.1554H187.592V94.8615C188.686 95.3222 190.755 95.7828 194.55 95.8333C201.982 95.9153 207.473 95.6629 209.238 93.8645Z" fill="#F46D36"/>
</g>
<path d="M96.8479 139.456L94.0774 146.536L81.376 178.958H77.2392C77.2392 178.958 84.02 155.187 87.1764 144.094C88.0999 140.844 88.7198 138.686 88.7641 138.522L92.6352 138.951L96.8479 139.456Z" fill="#FF6551"/>
<g style="mix-blend-mode:multiply" opacity="0.44">
<g style="mix-blend-mode:multiply" opacity="0.44">
<path d="M96.8482 139.424L94.0776 146.504L81.3762 178.958H80.0985L92.6354 138.951L96.8482 139.424Z" fill="#CC9281"/>
</g>
</g>
<g style="mix-blend-mode:multiply" opacity="0.44">
<g style="mix-blend-mode:multiply" opacity="0.44">
<path d="M88.7646 138.522L96.8485 139.456L94.078 146.536C91.7277 145.883 89.4224 145.077 87.177 144.125C88.1005 140.844 88.7204 138.686 88.7646 138.522Z" fill="#CC9281"/>
</g>
</g>
<path d="M122.208 178.958H118.197L114.193 149.3L112.637 137.765L113.105 137.828L120.696 138.869C120.696 139.109 120.86 143.412 121.075 149.117C121.524 161.005 122.208 178.958 122.208 178.958Z" fill="#FF6551"/>
<g style="mix-blend-mode:multiply" opacity="0.44">
<g style="mix-blend-mode:multiply" opacity="0.44">
<path d="M119.576 178.958H118.197L114.193 149.312L112.637 137.777L113.105 137.84L116.433 143.608L116.489 144.233L119.576 178.958Z" fill="#CC9281"/>
</g>
</g>
<g style="mix-blend-mode:multiply" opacity="0.44">
<g style="mix-blend-mode:multiply" opacity="0.44">
<path d="M120.696 138.882C120.696 139.121 120.86 143.425 121.075 149.129C118.684 149.287 116.388 149.344 114.193 149.312L112.637 137.777L120.696 138.882Z" fill="#CC9281"/>
</g>
</g>
<path d="M155.359 178.958H151.222L138.451 146.315L135.75 139.456L139.349 139.052L143.84 138.553C143.884 138.718 144.517 140.951 145.466 144.283C148.647 155.414 155.359 178.958 155.359 178.958Z" fill="#FF6551"/>
<g style="mix-blend-mode:multiply" opacity="0.44">
<g style="mix-blend-mode:multiply" opacity="0.44">
<path d="M152.443 178.958H151.222L138.451 146.315L135.75 139.456L139.349 139.052C141.626 146.151 149.704 170.654 152.443 178.958Z" fill="#CC9281"/>
</g>
</g>
<g style="mix-blend-mode:multiply" opacity="0.44">
<g style="mix-blend-mode:multiply" opacity="0.44">
<path d="M145.485 144.252C143.094 145.047 140.753 145.728 138.47 146.315L135.75 139.456L143.84 138.553C143.884 138.686 144.517 140.92 145.485 144.252Z" fill="#CC9281"/>
</g>
</g>
<path d="M156.2 103.955C156.124 104.586 156.035 105.185 155.94 105.797C155.64 107.798 155.218 109.779 154.675 111.729C154.644 111.861 154.606 111.988 154.568 112.114C152.638 119.112 151.576 126.034 143.916 130.615C142.436 131.499 140.525 132.13 139.013 132.956L138.938 133.001C135.928 134.648 132.726 135.92 129.405 136.787C119.487 139.5 108.348 140.686 98.3411 137.796C95.4132 136.937 92.7186 135.427 90.4596 133.379C89.5549 132.561 88.7094 131.679 87.9294 130.741C87.7523 130.533 87.5816 130.325 87.4108 130.11C87.24 129.896 87.0692 129.681 86.9047 129.479C86.2722 128.602 85.6397 127.687 85.0514 126.747C84.6908 126.154 84.3493 125.554 84.0203 124.949C83.8875 124.709 83.761 124.463 83.6345 124.217L83.4447 123.844C83.3246 123.605 83.198 123.352 83.0842 123.106C83.0209 122.98 82.964 122.86 82.9071 122.734C82.8502 122.608 82.6983 122.286 82.5971 122.065C82.4959 121.844 82.401 121.611 82.2998 121.39C82.0089 120.708 81.7305 120.027 81.4649 119.339C81.1992 118.651 80.9462 117.957 80.7058 117.257C80.1998 115.805 79.7317 114.329 79.2953 112.839L79.213 112.568C78.7639 111.035 78.3338 109.495 77.91 107.949C76.0124 101.008 74.1148 93.8962 74.3931 86.6899C74.6052 80.9531 76.3479 75.3767 79.4413 70.536C82.5346 65.6952 86.8666 61.7655 91.9904 59.1522C96.6648 56.7859 101.902 55.6185 107.064 54.9685C112.687 54.2618 118.45 53.7948 124.142 54.2618C128.001 54.5921 131.772 55.5892 135.288 57.2087C140.144 59.4452 144.444 62.7248 147.882 66.8128C153.404 73.3691 155.637 82.7966 156.415 91.1576C156.791 95.4191 156.719 99.7082 156.2 103.955Z" fill="#864FF1"/>
<path d="M156.199 103.412C153.276 87.2893 143.706 56.9435 113.287 61.3606C78.2255 66.4593 78.4342 101.923 79.2502 112.322L79.1679 112.051C78.7188 110.517 78.2887 108.977 77.8649 107.431C75.9673 100.49 74.0697 93.3786 74.348 86.1724C74.561 80.4349 76.304 74.858 79.3972 70.0164C82.4904 65.1748 86.8219 61.2437 91.9453 58.6283C96.6198 56.2683 101.857 55.1009 107.019 54.451C112.642 53.7442 118.404 53.2773 124.097 53.7442C127.952 54.0672 131.721 55.0558 135.236 56.6659C140.092 58.8966 144.393 62.1721 147.83 66.2574C153.352 72.8137 155.585 82.2411 156.363 90.6021C156.757 94.866 156.702 99.1594 156.199 103.412Z" fill="#A277F4"/>
<path style="mix-blend-mode:multiply" opacity="0.45" d="M156.199 103.412C156.123 104.043 156.041 104.674 155.946 105.254C155.643 107.255 155.22 109.236 154.681 111.186C154.649 111.319 154.611 111.445 154.58 111.571C152.682 118.512 152.638 124.639 146.989 129.24C145.655 130.325 140.664 131.574 139.032 132.426L138.956 132.47L90.4779 132.855C89.5732 132.037 88.7277 131.155 87.9478 130.218C87.7707 130.009 87.5999 129.801 87.4291 129.587C87.2583 129.372 87.0875 129.158 86.9231 128.956C86.2905 128.078 85.658 127.163 85.0697 126.223C84.7092 125.63 84.3613 125.031 84.0387 124.425C83.9058 124.185 83.7793 123.939 83.6528 123.693L83.4631 123.321L83.1025 122.582C83.0393 122.456 82.9823 122.336 82.9254 122.21C82.8179 121.989 82.7167 121.762 82.6155 121.541C82.5143 121.32 82.4194 121.087 82.3182 120.866C82.0272 120.184 81.7489 119.503 81.4832 118.815C81.2176 118.127 80.9645 117.433 80.7242 116.733L81.2365 112.726C81.2365 112.726 88.0743 118.626 117.481 116.827C146.888 115.029 155.244 104.75 156.199 103.412Z" fill="url(#paint0_linear_320_76059)"/>
<path d="M149.046 123.882C148.843 124.198 148.641 124.513 148.413 124.816C147.127 126.75 145.603 128.516 143.878 130.072C141.569 132.007 138.98 133.581 136.199 134.742C126.315 139.021 115.482 140.646 104.774 139.456C102.658 139.274 100.565 138.885 98.5246 138.295C93.1753 136.565 88.6488 132.936 85.8042 128.097C85.464 127.527 85.1536 126.939 84.8744 126.337C84.7415 126.053 84.615 125.763 84.4885 125.466C84.3494 125.138 92.4396 122.191 116.862 122.311C140.266 122.399 146.648 122.134 148.793 123.693C148.881 123.751 148.965 123.814 149.046 123.882Z" fill="#864FF1"/>
<g style="mix-blend-mode:multiply" opacity="0.56">
<path d="M148.793 123.68C148.663 123.807 148.543 123.942 148.432 124.084C147.104 125.788 141.518 130.975 118.639 132.149C95.7604 133.322 87.044 128.363 87.044 128.363L84.8744 126.356C84.7415 126.072 84.615 125.782 84.4885 125.485C84.3494 125.157 92.4396 122.21 116.862 122.33C140.272 122.38 146.648 122.115 148.793 123.68Z" fill="#FFAE43"/>
</g>
<path d="M74.077 128.842C74.077 128.842 62.141 105.261 70.0161 100.541C77.8027 95.9155 80.6301 107.905 82.863 115.616C85.0959 123.327 96.1464 139.292 116.451 138.295C141.55 137.064 149.615 126.615 153.322 114.423C157.028 102.232 157.819 100.087 162.373 100.087C166.928 100.087 170.514 114.468 156.339 131.057C142.164 147.647 112.061 147.344 102.87 145.671C93.6795 143.999 81.7244 141.116 74.077 128.842Z" fill="#864FF1"/>
<path d="M109.119 162.337C109.1 162.381 109.072 162.42 109.036 162.452C109 162.483 108.957 162.507 108.911 162.52C108.168 162.806 107.408 163.043 106.633 163.227L103.661 164.003C100.593 164.81 97.5122 165.618 94.3938 166.218C93.7846 166.371 93.1539 166.423 92.5278 166.369C92.236 166.347 91.9611 166.224 91.7498 166.022C91.617 165.858 91.5239 165.666 91.4778 165.46C91.2307 164.588 91.1874 163.67 91.3512 162.778C91.6281 161.164 92.5072 159.715 93.8118 158.721C94.8489 157.988 96.0675 157.552 97.3354 157.46C98.6033 157.369 99.872 157.626 101.004 158.204C101.268 158.367 101.556 158.489 101.858 158.563C102.009 158.599 102.167 158.589 102.312 158.535C102.457 158.481 102.583 158.386 102.674 158.26C102.749 158.11 102.788 157.943 102.788 157.774C102.837 156.628 102.594 155.488 102.079 154.462L105.64 154.165C106.539 155.949 107.365 157.77 108.12 159.63C108.461 160.463 108.752 161.302 109.094 162.154C109.123 162.21 109.132 162.275 109.119 162.337Z" fill="#495059"/>
<path d="M146.75 165.46C146.704 165.666 146.61 165.858 146.478 166.022C146.266 166.224 145.991 166.347 145.7 166.369C145.074 166.423 144.443 166.371 143.834 166.218C140.715 165.587 137.641 164.81 134.567 164.003L131.594 163.227C130.82 163.042 130.059 162.806 129.317 162.52C129.271 162.507 129.228 162.483 129.192 162.452C129.156 162.42 129.127 162.381 129.108 162.337C129.089 162.275 129.089 162.209 129.108 162.147C129.412 161.314 129.741 160.488 130.07 159.668C130.829 157.8 131.659 155.966 132.562 154.165L136.129 154.462C135.614 155.481 135.372 156.616 135.427 157.756C135.424 157.924 135.461 158.09 135.535 158.241C135.626 158.367 135.751 158.462 135.897 158.516C136.042 158.57 136.2 158.58 136.351 158.544C136.653 158.472 136.942 158.351 137.205 158.185C138.336 157.607 139.605 157.35 140.873 157.441C142.141 157.533 143.36 157.969 144.397 158.702C145.132 159.266 145.738 159.98 146.174 160.796C146.61 161.612 146.867 162.512 146.927 163.435C146.987 164.115 146.927 164.801 146.75 165.46Z" fill="#495059"/>
<path d="M127.482 110.429C125.275 110.195 111.435 111.691 105.799 111.533C105.128 108.504 104.154 104.851 103.332 101.494C102.726 98.7014 102.304 95.8726 102.067 93.0254C101.909 91.41 103.964 90.211 106.805 89.8009C112.219 89.0247 119.55 88.3811 123.801 89.1068C124.63 89.2456 128.488 90.3688 128.766 91.145C129.924 94.3568 127.773 107.747 127.482 110.429Z" fill="white"/>
<path d="M146.116 129.675C146.102 129.002 145.991 128.335 145.787 127.694C145.519 126.964 145.134 126.282 144.649 125.674C142.802 123.295 140.101 121.737 137.362 120.468C135.749 119.697 134.073 119.064 132.352 118.575C131.572 118.366 130.78 118.203 129.98 118.089C126.931 117.673 123.845 118.089 120.764 118.165V118.096C120.201 118.146 119.638 118.171 119.082 118.184C118.525 118.197 117.956 118.146 117.399 118.096C117.395 118.119 117.395 118.142 117.399 118.165C114.325 118.077 111.232 117.673 108.183 118.089C106.991 118.262 105.816 118.538 104.672 118.916C103.352 119.352 102.06 119.866 100.801 120.456C98.0686 121.718 95.3613 123.283 93.5206 125.662C93.0331 126.269 92.6466 126.951 92.3757 127.681C92.114 128.526 92.0026 129.41 92.0468 130.293C92.0561 130.927 92.1026 131.559 92.1859 132.186C92.6608 134.965 93.437 137.684 94.501 140.295C94.6022 140.573 94.7161 140.863 94.8363 141.16C97.1703 146.965 102.579 156.115 102.579 156.115C103.211 156.342 104.641 155.9 105.558 155.566C106.051 155.389 106.399 155.238 106.399 155.238C106.399 155.238 106.121 152.966 106.026 151.944C105.805 149.653 105.482 147.369 105.058 145.11C104.555 142.984 104.275 140.812 104.223 138.629C104.195 137.658 104.441 136.698 104.932 135.859C105.767 134.597 107.335 134.105 108.796 133.745C110.258 133.385 111.883 133.057 113.427 132.716C117.14 131.89 120.991 131.89 124.705 132.716C126.248 133.057 127.804 133.348 129.335 133.745C130.866 134.143 132.365 134.61 133.2 135.859C133.693 136.698 133.94 137.657 133.915 138.629C133.972 140.806 133.472 142.964 133.073 145.11C132.65 147.369 132.327 149.653 132.106 151.944C132.011 152.966 131.739 155.238 131.739 155.238C131.739 155.238 132.314 155.49 133.042 155.73C133.927 156.02 135.022 156.304 135.572 156.115C135.572 156.115 141.549 146.018 143.649 140.295C143.953 139.468 144.282 138.635 144.541 137.803C145.453 135.4 145.985 132.871 146.116 130.306C146.116 130.098 146.116 129.883 146.116 129.675Z" fill="#49B3F7"/>
<g style="mix-blend-mode:multiply" opacity="0.4">
<g style="mix-blend-mode:multiply" opacity="0.4">
<path d="M132.359 118.588C132.359 118.588 129.43 122.589 119.575 123.258C111.238 123.825 106.096 120.102 104.71 118.929C105.856 118.55 107.033 118.274 108.227 118.102C111.27 117.686 114.363 118.102 117.437 118.178C117.437 118.178 117.437 118.134 117.437 118.108C117.994 118.159 118.557 118.184 119.12 118.197C119.683 118.209 120.239 118.159 120.802 118.108V118.178C123.883 118.089 126.97 117.686 130.018 118.102C130.808 118.217 131.589 118.38 132.359 118.588Z" fill="#3DA6C0"/>
</g>
</g>
<path d="M128.867 97.2974C129.114 99.7142 129.569 117.534 129.051 118.001C126.337 120.45 122.852 120.664 119.702 120.765C115.274 120.898 110.637 120.765 106.905 118.443C106.355 118.096 106.096 115.919 105.963 115.25C104.698 109.047 102.351 99.4239 101.915 97.2974H128.867Z" fill="white"/>
<path d="M121.669 105.911C118.216 106.258 114.313 106.586 111.84 109.318L117.653 109.432C119.433 109.543 121.219 109.417 122.966 109.06C122.934 108.788 122.523 105.829 122.296 105.854L121.669 105.911Z" fill="#FFBF94"/>
<path d="M128.102 90.6716C128.102 90.6716 142.651 101.891 143.53 103.923C144.409 105.955 143.163 108.107 140.241 107.772C137.319 107.438 127.305 98.9884 127.305 98.9884C127.305 98.9884 123.428 96.0921 123.808 94.0476C124.187 92.003 125.667 89.7314 128.102 90.6716Z" fill="white"/>
<path d="M142.024 102.522C136.458 99.2409 125.578 103.494 120.398 105.848C122.295 107.419 121.663 109.003 121.821 109.28C121.821 109.28 134.769 109.06 139.355 108.927C143.941 108.795 145.257 104.434 142.024 102.522Z" fill="white"/>
<path d="M121.005 105.646C122.75 105.299 124.452 104.421 126.122 103.816C127.774 103.205 129.464 102.703 131.182 102.314C132.773 101.968 134.393 101.77 136.021 101.721C137.715 101.601 139.418 101.716 141.081 102.061C141.081 102.061 141.081 102.061 141.081 102.03C139.595 101.448 138.016 101.134 136.42 101.102C134.728 101.105 133.042 101.289 131.391 101.651C129.597 102.064 127.841 102.626 126.141 103.33C124.36 103.93 122.639 104.693 120.998 105.608V105.646H121.005Z" fill="#D6D6D6"/>
<g style="mix-blend-mode:multiply" opacity="0.4">
<g style="mix-blend-mode:multiply" opacity="0.4">
<path d="M109.119 162.337C109.1 162.381 109.072 162.42 109.036 162.452C109 162.483 108.957 162.507 108.911 162.52C108.168 162.806 107.408 163.043 106.633 163.226L103.661 164.003C100.593 164.81 97.5122 165.618 94.3938 166.217C93.7846 166.371 93.1539 166.422 92.5278 166.369C92.236 166.346 91.9611 166.224 91.7498 166.022C91.617 165.858 91.5239 165.666 91.4778 165.46C91.2307 164.588 91.1874 163.67 91.3512 162.778C92.6163 163.409 96.6709 164.962 103.262 162.539C105.078 161.941 106.737 160.947 108.12 159.63C108.461 160.463 108.752 161.302 109.094 162.154C109.123 162.21 109.132 162.275 109.119 162.337Z" fill="#495059"/>
</g>
</g>
<g style="mix-blend-mode:multiply" opacity="0.4">
<g style="mix-blend-mode:multiply" opacity="0.4">
<path d="M146.75 165.46C146.704 165.666 146.61 165.858 146.478 166.022C146.266 166.224 145.991 166.346 145.7 166.369C145.074 166.422 144.443 166.371 143.834 166.217C140.715 165.586 137.641 164.81 134.567 164.003L131.594 163.226C130.82 163.042 130.059 162.806 129.317 162.52C129.271 162.507 129.228 162.483 129.192 162.452C129.156 162.42 129.127 162.381 129.108 162.337C129.089 162.275 129.089 162.209 129.108 162.147C129.412 161.314 129.741 160.488 130.07 159.667C132.663 161.802 135.786 163.199 139.109 163.712C141.714 164.104 144.369 164.01 146.939 163.435C146.996 164.116 146.931 164.801 146.75 165.46Z" fill="#495059"/>
</g>
</g>
<g style="mix-blend-mode:multiply" opacity="0.4">
<g style="mix-blend-mode:multiply" opacity="0.4">
<path d="M133.081 155.768C132.353 155.528 131.778 155.276 131.778 155.276C131.778 155.276 132.05 153.004 132.145 151.982C132.366 149.691 132.689 147.407 133.113 145.148C133.511 143.002 134.011 140.844 133.954 138.667C133.98 137.695 133.732 136.736 133.239 135.897C132.404 134.635 130.835 134.143 129.374 133.783C127.913 133.423 126.287 133.095 124.744 132.754C121.03 131.928 117.18 131.928 113.466 132.754C111.922 133.095 110.366 133.385 108.836 133.783C107.305 134.181 105.806 134.648 104.971 135.897C104.48 136.736 104.234 137.696 104.262 138.667C104.315 140.846 104.595 143.014 105.097 145.135C105.521 147.394 105.844 149.678 106.065 151.969C106.16 152.991 106.438 155.263 106.438 155.263C106.438 155.263 106.09 155.414 105.597 155.591C105.597 155.591 98.2785 137.79 101.973 133.941C105.667 130.092 114.744 128.306 119.779 128.356C124.814 128.407 132.954 129.946 135.75 132.975C138.546 136.004 132.556 152.512 133.081 155.768Z" fill="#3DA6C0"/>
</g>
</g>
<g style="mix-blend-mode:multiply" opacity="0.4">
<g style="mix-blend-mode:multiply" opacity="0.4">
<path d="M146.115 130.306C145.99 132.884 145.46 135.426 144.547 137.84C144.382 137.733 144.224 137.613 144.066 137.487C143.104 136.739 142.407 135.704 142.074 134.534C142.022 134.327 142.022 134.11 142.074 133.903C142.194 133.493 142.624 133.272 142.997 133.064C144.371 132.294 145.475 131.122 146.16 129.707C146.115 129.883 146.115 130.098 146.115 130.306Z" fill="#3DA6C0"/>
</g>
</g>
<g style="mix-blend-mode:multiply" opacity="0.4">
<g style="mix-blend-mode:multiply" opacity="0.4">
<path d="M97.2345 137.714C97.1143 138.692 96.3173 139.424 95.6721 140.169C95.3833 140.493 95.117 140.837 94.8751 141.197C94.755 140.901 94.6411 140.611 94.5399 140.333C93.4759 137.722 92.6996 135.003 92.2248 132.224C92.6558 132.811 93.1316 133.364 93.648 133.878C94.6284 134.856 95.7164 135.72 96.7791 136.623C96.908 136.723 97.021 136.842 97.1143 136.976C97.2363 137.202 97.2786 137.462 97.2345 137.714Z" fill="#3DA6C0"/>
</g>
</g>
<path d="M123.806 89.1318C123.68 89.4284 121.947 93.4669 117.481 93.6436C113.464 93.8013 110.618 90.0846 110.074 89.3085C114.685 88.6964 119.385 88.3746 123.806 89.1318Z" fill="#D6D6D6"/>
<path d="M122.846 84.09L122.295 86.5068L121.808 88.6712L121.77 88.8542C121.77 88.8542 120.828 91.7317 117.058 91.8011C113.288 91.8705 112.225 89.0498 112.225 89.0498V88.4693L112.143 86.286L112.048 83.6294C112.048 73.533 120.423 84.3803 120.423 84.3803L121.233 84.191L121.283 84.7084L122.846 84.09Z" fill="#EA9573"/>
<g style="mix-blend-mode:multiply" opacity="0.09">
<path d="M122.295 86.5067L121.808 88.6711C120.516 89.534 119.009 90.0213 117.456 90.0783C115.616 89.9703 113.829 89.4181 112.25 88.4692L112.168 86.2859L120.448 84.3928L121.308 84.7209L122.295 86.5067Z" fill="#DD664A"/>
</g>
<path d="M140.76 74.5931L140.646 74.8771C140.027 76.4183 139.157 77.8469 138.071 79.1049C136.572 80.7456 134.567 81.8183 132.606 82.8911C129.216 84.8041 125.685 86.4559 122.043 87.832C120.107 88.5071 118.033 89.0309 116.021 88.6523C114.398 88.256 112.871 87.5393 111.53 86.5447C107.345 83.7534 103.532 80.4436 100.182 76.6944C99.0284 75.5246 98.117 74.1394 97.5002 72.618C97.0356 70.978 96.896 69.2633 97.0891 67.5699C97.0891 67.1345 97.1397 66.7054 97.1713 66.3078C97.7292 57.9461 99.1558 49.6648 101.428 41.5971L101.675 40.9282C101.719 37.1421 105.413 34.4413 108.949 33.0404C113 31.458 117.324 30.6913 121.673 30.7844C126.022 30.8776 130.31 31.8288 134.289 33.5831C137.749 35.1354 141.013 37.3692 143.144 40.5243C145.523 44.0328 146.307 48.4247 146.117 52.6589C145.928 56.893 144.852 61.0325 143.771 65.1278C142.991 68.3497 141.985 71.5126 140.76 74.5931Z" fill="#FFBF94"/>
<g style="mix-blend-mode:multiply" opacity="0.09">
<path d="M140.646 74.8771C140.027 76.4184 139.157 77.8469 138.071 79.105C136.572 80.7456 134.567 81.8183 132.606 82.8911C129.216 84.8042 125.685 86.4559 122.043 87.832C120.107 88.5072 118.033 89.0309 116.021 88.6523C114.398 88.256 112.871 87.5394 111.53 86.5447C107.345 83.7534 103.532 80.4436 100.182 76.6945C99.0284 75.5247 98.117 74.1395 97.5002 72.6181C97.0356 70.978 96.896 69.2633 97.0891 67.5699C97.0891 67.1345 97.1397 66.7054 97.1713 66.3079C97.3611 66.4845 98.2277 66.3079 98.4364 66.8379C100.606 72.8957 109.19 82.197 117.261 84.1657C125.332 86.1345 139.64 74.4417 139.64 74.4417L140.646 74.8771Z" fill="#DD664A"/>
</g>
<g style="mix-blend-mode:multiply" opacity="0.09">
<path d="M100.422 54.268L100.138 56.3252C100.138 56.3252 106.267 50.0907 106.805 44.1717C106.805 44.1717 110.227 49.2199 118.152 51.6178C126.078 54.0156 130.892 51.8639 130.892 51.8639C130.892 51.8639 128.754 49.7878 128.241 47.9831C128.241 47.9831 134.915 51.359 139.361 49.182C139.361 49.182 137.71 53.3278 140.494 58.742C143.277 64.1561 143.346 66.0429 143.346 66.0429L146.117 51.9333L141.62 39.7104L128.298 37.5144L109.556 37.8615L105.166 37.1106C105.166 37.1106 102.687 41.1744 102.453 42.0704C102.219 42.9665 100.422 54.268 100.422 54.268Z" fill="#DD664A"/>
</g>
<path d="M97.9363 59.1331C97.5884 57.423 97.2722 55.7003 96.9812 53.9777L96.8863 53.416C96.1146 48.6455 95.6212 43.6668 97.2532 39.1234C97.998 37.0274 99.2392 35.1419 100.871 33.6272C101.377 33.1623 101.921 32.7401 102.497 32.3652C104.245 31.1821 106.342 30.6218 108.449 30.775V30.977C106.501 33.785 105.805 37.1042 105.286 40.5243C104.974 43.2496 104.505 45.9549 103.882 48.6266C102.809 52.5685 100.765 56.1802 97.9363 59.1331Z" fill="#672410"/>
<path d="M145.073 75.7227C143.158 75.897 141.238 75.4332 139.615 74.4039C139.211 74.1564 138.824 73.8824 138.457 73.5835L141.689 67.5194C143.138 65.6264 145.864 64.6104 148.015 65.6264C149.082 66.1373 149.908 67.0426 150.317 68.1505C150.759 69.2655 150.799 70.4987 150.431 71.64C150.002 72.7468 149.274 73.7137 148.329 74.4341C147.383 75.1545 146.257 75.6005 145.073 75.7227Z" fill="#FFBF94"/>
<path d="M147.653 61.449C146.449 63.4746 144.972 65.326 143.264 66.9515C143.694 63.9542 142.441 61.0073 141.733 58.0604C141.523 57.1777 141.361 56.2846 141.246 55.3849C140.858 52.2907 141.051 49.1516 141.815 46.1278L148.438 42.2786L148.994 41.9568L149.317 42.165C150.93 43.345 151.373 45.6546 151.398 47.6991C151.441 52.5388 150.146 57.2966 147.653 61.449Z" fill="#672410"/>
<g style="mix-blend-mode:multiply" opacity="0.32">
<path d="M147.653 61.449C149.127 56.9498 150.981 49.6553 147.375 50.0907C143.77 50.5261 142.024 53.5297 141.246 55.3723C140.858 52.2781 141.051 49.139 141.815 46.1152L148.438 42.2786L149.317 42.165C150.93 43.345 151.373 45.6546 151.398 47.6991C151.441 52.5388 150.146 57.2966 147.653 61.449Z" fill="#672410"/>
</g>
<path d="M111.132 52.4948C111.104 52.3604 111.041 52.236 110.948 52.1351C110.828 52.0319 110.685 51.9584 110.531 51.9205C109.576 51.6681 108.443 52.0909 107.532 52.3749C106.392 52.6769 105.345 53.2557 104.484 54.0597C103.978 54.5708 103.269 55.5489 104.079 56.1357C104.983 56.7668 106.362 56.1357 107.241 55.7634C108.507 55.2271 111.144 54.4509 111.163 52.7661C111.165 52.6746 111.155 52.5833 111.132 52.4948Z" fill="#672410"/>
<path d="M138.116 59.9474C137.869 58.7737 136.427 57.8145 135.44 57.3097C133.963 56.4657 132.22 56.2131 130.563 56.603C130.338 56.6491 130.132 56.7637 129.975 56.9311C129.889 57.0649 129.844 57.2204 129.844 57.3791C129.844 57.5379 129.889 57.6933 129.975 57.8272C130.135 58.0961 130.351 58.3284 130.607 58.5087C131.454 59.1311 132.344 59.692 133.27 60.1872C134.117 60.7093 135.035 61.1047 135.997 61.3609C136.939 61.5754 138.381 61.2094 138.116 59.9474Z" fill="#672410"/>
<path d="M122.827 79.9504C122.242 80.583 121.521 81.0747 120.718 81.3885C119.914 81.7022 119.05 81.8298 118.19 81.7615C117.284 81.7235 116.397 81.4853 115.595 81.0641C114.792 80.6429 114.093 80.0492 113.548 79.3257C112.732 78.2305 112.142 76.9842 111.814 75.6595C111.703 75.2449 111.621 74.8233 111.568 74.3975C111.757 74.3975 119.443 77.4516 125.161 75.079C125.05 75.6992 124.88 76.3076 124.655 76.8963C124.253 78.0244 123.632 79.0623 122.827 79.9504Z" fill="#AA3333"/>
<path d="M124.661 76.8774C122.714 77.8172 120.544 78.1995 118.392 77.9817C116.055 77.7092 113.808 76.9156 111.82 75.6595C111.709 75.2449 111.627 74.8233 111.573 74.3975C111.763 74.3975 119.448 77.4516 125.167 75.079C125.054 75.6927 124.885 76.2948 124.661 76.8774Z" fill="white"/>
<path d="M122.827 79.9504C122.242 80.583 121.521 81.0747 120.718 81.3884C119.915 81.7022 119.05 81.8297 118.19 81.7614C117.284 81.7235 116.398 81.4853 115.595 81.0641C114.792 80.6429 114.093 80.0491 113.548 79.3257C114.281 79.1019 115.053 79.0319 115.815 79.1198C116.577 79.2078 117.313 79.4519 117.975 79.8368C117.975 79.8368 118.962 78.6316 122.827 79.9504Z" fill="#FF6551"/>
<g style="mix-blend-mode:multiply" opacity="0.25">
<path d="M144.473 70.4726C146.054 69.9236 147.636 68.6364 147.775 66.9074C147.777 66.8851 147.772 66.8625 147.761 66.8434C147.749 66.8242 147.731 66.8094 147.71 66.8015C147.689 66.7935 147.666 66.7928 147.644 66.7994C147.623 66.806 147.604 66.8196 147.591 66.8379C146.63 68.2767 145.637 69.5261 143.847 69.9236C143.786 69.9342 143.729 69.9601 143.682 69.9987C143.634 70.0373 143.597 70.0874 143.574 70.1443C143.551 70.2012 143.544 70.263 143.551 70.3237C143.559 70.3845 143.582 70.4423 143.619 70.4916C144.009 71.0064 144.268 71.6086 144.372 72.2458C144.37 72.752 144.46 73.2543 144.637 73.7287C144.648 73.7519 144.664 73.7724 144.684 73.7886C144.704 73.8049 144.727 73.8164 144.752 73.8225C144.777 73.8286 144.803 73.829 144.828 73.8236C144.853 73.8183 144.876 73.8074 144.897 73.7918C145.738 72.9652 145.099 71.4255 144.473 70.4726Z" fill="#DD664A"/>
</g>
<path d="M114.894 82.7587C115.242 83.2828 115.711 83.7164 116.261 84.0237C116.811 84.3309 117.427 84.503 118.057 84.5256C118.733 84.5256 120.41 84.1974 120.416 83.3077C120.416 83.2572 120.416 83.2004 120.334 83.2004C119.98 83.2004 119.853 83.3897 119.53 83.5601C119.061 83.7931 118.542 83.9079 118.019 83.8945C116.917 83.7978 115.89 83.299 115.134 82.4937C114.97 82.3359 114.748 82.5946 114.869 82.7587H114.894Z" fill="#DD664A"/>
<path d="M149.641 43.3829C148.078 45.2318 145.846 46.3171 143.549 47.3205C140.416 48.7172 137.142 49.777 133.783 50.4819C127.287 51.8323 120.088 51.6619 114.402 47.8821C113.605 47.352 107.235 43.0863 104.496 40.436L103.737 37.811L102.295 32.8701C102.439 31.9783 102.65 31.0986 102.928 30.2387C105.091 23.4805 110.961 21.2088 117.261 19.6691C124.776 17.8329 133.903 19.9594 140.614 23.4553C141.184 23.7519 141.74 24.0863 142.297 24.3892C145.283 26.1434 148.072 28.3772 149.887 31.3304C151.703 34.2836 152.323 38.0634 150.994 41.2564C150.654 42.0296 150.197 42.7467 149.641 43.3829Z" fill="#672410"/>
<path d="M97.9365 59.1331C97.5886 57.4231 97.2723 55.7004 96.9814 53.9777L96.8865 53.4161C104.028 49.63 100.871 33.6273 100.871 33.6273C101.377 33.1623 101.921 32.7402 102.497 32.3652C103.886 34.9071 104.832 37.6661 105.293 40.5243C104.981 43.2497 104.512 45.9549 103.889 48.6266C102.814 52.5692 100.768 56.181 97.9365 59.1331Z" fill="#56170D"/>
<path d="M99.7393 65.9103C99.3155 66.2006 98.8727 66.4972 98.4173 66.7622C97.1142 67.5257 95.71 68.0936 94.2678 67.7907C92.2563 67.3743 90.0867 65.5443 89.5364 63.5503C89.2727 62.4676 89.3522 61.3299 89.7641 60.2942C89.9491 59.8006 90.18 59.3253 90.4536 58.8744C90.8204 58.214 91.2999 57.6225 91.8705 57.1265C94.3374 55.0315 97.1712 56.3188 99.6317 57.6818L99.7393 65.9103Z" fill="#FFBF94"/>
<g style="mix-blend-mode:multiply" opacity="0.25">
<path d="M96.038 62.3767C94.7413 61.3229 94.3744 59.7138 94.4123 58.1173C94.4166 58.081 94.4076 58.0444 94.3869 58.0142C94.3662 57.9841 94.3353 57.9624 94.2999 57.9531C94.2645 57.9439 94.2269 57.9478 94.1941 57.964C94.1612 57.9803 94.1354 58.0078 94.1214 58.0416C93.4256 59.6444 94.0898 61.4175 95.2473 62.6165C94.7651 62.943 94.3103 63.3081 93.8873 63.7081C93.3782 64.1016 92.9848 64.6248 92.7488 65.2226C92.7175 65.3113 92.7154 65.4077 92.7428 65.4978C92.7702 65.5878 92.8258 65.6667 92.9013 65.723C92.9768 65.7794 93.0684 65.8102 93.1627 65.811C93.257 65.8117 93.3491 65.7825 93.4256 65.7274C93.8551 65.3188 94.2351 64.8613 94.5578 64.3644C94.9944 63.8352 95.4935 63.3606 96.0443 62.9509C96.0885 62.9169 96.1241 62.8731 96.1485 62.823C96.1728 62.7729 96.1851 62.7179 96.1845 62.6622C96.1839 62.6066 96.1704 62.5518 96.1449 62.5023C96.1195 62.4527 96.0829 62.4097 96.038 62.3767Z" fill="#DD664A"/>
</g>
<path d="M131.568 36.8518C131.731 36.8138 131.9 36.8138 132.062 36.8518C132.963 37.0762 133.819 37.4541 134.592 37.9687C136.987 39.3162 139.628 40.1742 142.36 40.4927C141.346 39.1099 140.862 37.4113 140.993 35.7033C140.995 35.4509 141.072 35.2048 141.215 34.9966C141.349 34.8637 141.521 34.7749 141.708 34.7422C141.894 34.7095 142.086 34.7344 142.258 34.8136C142.598 34.9702 142.908 35.1836 143.176 35.4446C143.932 36.1448 144.855 36.6401 145.858 36.8833C149.564 37.6153 148.419 34.1005 148.818 31.8667C148.78 32.1002 149.324 32.8826 149.419 33.1287C149.625 33.6624 149.781 34.2137 149.887 34.7757C150.103 35.9025 150.114 37.0589 149.918 38.1895C149.613 40.2071 148.519 42.022 146.876 43.2377C144.346 45.0424 140.936 45.0172 138.071 44.1842C136.838 43.829 135.69 43.2256 134.7 42.4111C135.274 44.7203 136.403 46.8556 137.989 48.6329C133.605 47.9009 130.101 45.7933 126.464 43.3323C127.849 45.6608 129.304 48.0587 131.524 49.6425C129.877 49.4449 128.291 48.8984 126.873 48.0397C125.455 47.1811 124.237 46.0301 123.301 44.6638C123.784 47.1747 125.145 49.4332 127.141 51.0371C125.876 51.075 124.566 51.239 123.314 51.157C121.936 51.0317 120.579 50.7393 119.272 50.2862C116.64 49.4154 109.879 45.7492 105.255 40.6568C105.255 40.6126 105.255 40.5622 105.255 40.518C105.033 39.1542 104.703 37.8101 104.268 36.4984C104.363 36.795 109.328 43.143 120.044 46.9733C119.582 46.8093 119.303 44.4493 119.234 44.0012C119.026 42.8759 119.037 41.7213 119.266 40.6C119.352 40.295 119.536 40.0267 119.791 39.8365C120.537 39.3317 120.992 40.1899 121.41 40.6821C122.267 41.8052 123.324 42.7613 124.528 43.5027C124.206 41.8747 123.896 40.1394 124.604 38.5555C124.952 37.7731 127.368 40.1141 127.577 40.2782C128.37 40.9609 129.216 41.5792 130.107 42.1271C130.87 42.4314 131.592 42.8276 132.258 43.3071C131.186 41.5664 130.782 39.4977 131.119 37.4828C131.13 37.2724 131.221 37.074 131.372 36.9275C131.432 36.8892 131.499 36.8634 131.568 36.8518Z" fill="#56170D"/>
<g style="mix-blend-mode:screen" opacity="0.28">
<g style="mix-blend-mode:screen" opacity="0.28">
<path d="M148.793 26.503C148.717 26.6292 148.634 26.7491 148.552 26.8627C147.447 28.4105 145.966 29.6528 144.248 30.473C142.529 31.2931 140.63 31.6641 138.729 31.5512C135.762 31.3367 132.985 29.9358 130.019 29.6581C129.303 29.5381 128.567 29.6417 127.912 29.9547C126.951 30.5037 126.533 31.7468 125.547 32.2579C124.56 32.7691 123.472 32.422 122.586 31.8667C121.701 31.3114 120.967 30.5416 120.056 30.0178C119.145 29.4941 117.969 29.248 117.096 29.8159C115.692 30.7246 116.021 32.9016 115.078 34.2772C114.268 35.4572 112.662 35.8169 111.22 35.7349C107.753 35.5393 104.704 33.2676 102.883 30.2702C106.045 20.4452 117.134 18.9119 124.199 20.2875C137.179 22.8116 140.475 26.97 144.877 26.9195C146.192 26.8952 147.502 26.7559 148.793 26.503Z" fill="#672410"/>
</g>
</g>
<g style="mix-blend-mode:multiply" opacity="0.09">
<g style="mix-blend-mode:multiply" opacity="0.09">
<path d="M122.289 68.9204C122.155 68.5527 121.946 68.217 121.675 67.9345C121.404 67.652 121.077 67.429 120.714 67.2797C119.987 66.9841 119.2 66.8673 118.418 66.939C117.349 67.0084 116.248 67.3113 115.698 68.3209C115.573 68.523 115.516 68.7593 115.534 68.9961C115.553 69.1623 115.633 69.3153 115.76 69.4251C115.886 69.5349 116.049 69.5935 116.217 69.5893C116.386 69.5526 116.547 69.4841 116.691 69.3873C117.516 69.0551 118.435 69.0372 119.272 69.3368C120.099 69.6391 120.972 69.7991 121.853 69.8101C121.935 69.8091 122.017 69.792 122.093 69.7596C122.378 69.6271 122.39 69.2233 122.289 68.9204Z" fill="#DD664A"/>
</g>
</g>
<path d="M121.631 70.9775C121.448 70.0058 119.538 69.8796 118.734 69.848C117.665 69.8038 116.438 69.9174 115.66 70.7251C115.66 70.7251 115.66 70.8135 115.698 70.8198C116.729 70.8766 117.735 70.6052 118.772 70.7188C119.349 70.7774 119.913 70.9199 120.448 71.1416C120.847 71.2994 121.081 71.476 121.467 71.2804C121.523 71.2541 121.569 71.2104 121.599 71.1559C121.629 71.1014 121.64 71.0389 121.631 70.9775Z" fill="#DD664A"/>
<g style="mix-blend-mode:multiply" opacity="0.09">
<path d="M98.4173 66.7623C97.1142 67.5258 95.71 68.0937 94.2678 67.7908C92.2563 67.3744 90.0867 65.5444 89.5364 63.5504C89.2727 62.4677 89.3522 61.33 89.7641 60.2943C89.9491 59.8007 90.18 59.3253 90.4536 58.8745C90.3967 60.1176 90.7762 65.109 98.4173 66.7623Z" fill="#DD664A"/>
</g>
<g style="mix-blend-mode:multiply" opacity="0.09">
<path d="M145.073 75.7228C143.157 75.897 141.237 75.4333 139.614 74.404C147.767 75.4451 150.329 68.0938 150.329 68.0938C150.771 69.2088 150.811 70.442 150.443 71.5833C150.021 72.7025 149.295 73.6824 148.347 74.4135C147.398 75.1445 146.265 75.5979 145.073 75.7228Z" fill="#DD664A"/>
</g>
<path d="M108.664 69.034C111.235 69.034 113.32 66.9547 113.32 64.3897C113.32 61.8247 111.235 59.7454 108.664 59.7454C106.093 59.7454 104.009 61.8247 104.009 64.3897C104.009 66.9547 106.093 69.034 108.664 69.034Z" fill="white"/>
<path d="M111.277 66.0905C111.718 64.2284 110.562 62.3626 108.695 61.9231C106.828 61.4836 104.958 62.6368 104.517 64.4989C104.077 66.3611 105.233 68.2269 107.1 68.6664C108.966 69.1059 110.836 67.9526 111.277 66.0905Z" fill="#191919"/>
<path d="M107.234 66.7811C107.234 66.9646 107.179 67.1439 107.077 67.2965C106.975 67.449 106.83 67.5679 106.66 67.6381C106.49 67.7083 106.303 67.7267 106.123 67.6909C105.942 67.6551 105.777 67.5668 105.647 67.437C105.516 67.3073 105.428 67.142 105.392 66.9621C105.356 66.7821 105.375 66.5956 105.445 66.4261C105.515 66.2566 105.635 66.1118 105.787 66.0098C105.94 65.9079 106.12 65.8535 106.304 65.8535C106.551 65.8535 106.787 65.9512 106.962 66.1252C107.136 66.2992 107.234 66.5351 107.234 66.7811Z" fill="white"/>
<path d="M130.74 71.438C133.311 71.438 135.395 69.3587 135.395 66.7937C135.395 64.2287 133.311 62.1494 130.74 62.1494C128.168 62.1494 126.084 64.2287 126.084 66.7937C126.084 69.3587 128.168 71.438 130.74 71.438Z" fill="white"/>
<path d="M132.429 70.1623C133.785 68.8094 133.785 66.6159 132.429 65.263C131.073 63.9101 128.874 63.9101 127.518 65.263C126.162 66.6159 126.162 68.8094 127.518 70.1623C128.874 71.5152 131.073 71.5152 132.429 70.1623Z" fill="#191919"/>
<path d="M129.316 69.1917C129.316 69.3765 129.261 69.557 129.158 69.7106C129.056 69.8642 128.909 69.9839 128.738 70.0546C128.567 70.1253 128.379 70.1437 128.197 70.1077C128.016 70.0717 127.849 69.9827 127.718 69.8521C127.587 69.7215 127.498 69.5551 127.462 69.3739C127.426 69.1928 127.444 69.005 127.515 68.8344C127.586 68.6637 127.706 68.5178 127.86 68.4152C128.014 68.3126 128.195 68.2578 128.38 68.2578C128.503 68.257 128.625 68.2806 128.739 68.3272C128.853 68.3739 128.957 68.4426 129.044 68.5295C129.131 68.6164 129.2 68.7197 129.247 68.8334C129.293 68.9471 129.317 69.0689 129.316 69.1917Z" fill="white"/>
<path d="M109.625 113.306C109.605 113.306 109.586 113.3 109.57 113.289C109.555 113.277 109.543 113.261 109.536 113.243L109.055 111.685C109.052 111.673 109.05 111.66 109.051 111.647C109.052 111.635 109.056 111.622 109.062 111.611C109.068 111.6 109.076 111.59 109.085 111.582C109.095 111.574 109.107 111.568 109.119 111.565C109.131 111.561 109.143 111.559 109.156 111.56C109.169 111.561 109.181 111.565 109.192 111.571C109.203 111.577 109.213 111.585 109.221 111.595C109.229 111.604 109.235 111.616 109.239 111.628L109.72 113.186C109.726 113.211 109.723 113.236 109.711 113.258C109.699 113.281 109.68 113.298 109.656 113.306H109.625Z" fill="#2A2B2A"/>
<path d="M106.266 96.7547C105.001 98.4332 103.161 99.8656 101.642 101.33C100.858 102.08 99.9409 102.8 99.2325 103.608C98.0887 105.048 96.8323 106.397 95.4752 107.64C94.963 108.105 94.4129 108.527 93.8305 108.902C91.6356 110.208 87.2521 110.404 87.853 106.807C88.2389 104.466 96.7086 95.8081 101.522 92.3628C102.591 91.5992 103.749 90.8294 105.058 90.7852C105.84 90.7704 106.599 91.0549 107.177 91.5803C107.582 91.9319 107.832 92.4283 107.873 92.9622C107.962 94.218 107.019 95.7829 106.266 96.7547Z" fill="white"/>
<path d="M106.456 107.002C106.456 107.002 108.873 113.073 109.55 112.921C110.226 112.77 108.24 106.056 108.24 106.056L106.456 107.002Z" fill="#2435A1"/>
<path d="M105.141 104.264C104.957 103.822 104.818 103.406 104.616 102.901C103.819 100.85 103.06 98.5405 103.433 97.9221C104.015 96.9441 106.26 101.077 107.228 104.434L105.141 104.264Z" fill="#2435A1"/>
<path d="M112.081 107.905C112.157 108.605 111.967 109.11 111.176 108.971C110.814 108.857 110.494 108.637 110.259 108.34C110.221 108.574 110.329 108.832 110.259 109.053C110.187 109.177 110.071 109.27 109.934 109.313C109.797 109.356 109.649 109.347 109.519 109.287C109.261 109.16 109.042 108.966 108.886 108.725C108.911 108.935 108.911 109.146 108.886 109.356C108.881 109.41 108.859 109.461 108.823 109.501C108.782 109.534 108.73 109.55 108.678 109.545C108.262 109.574 107.846 109.502 107.465 109.335C107.083 109.168 106.749 108.911 106.489 108.586C106.299 110.662 103.725 108.889 102.808 108.586C102.226 108.391 101.353 108.176 101.119 107.526C100.271 105.141 103.649 104.055 105.325 103.828C106.422 103.609 107.544 103.543 108.659 103.633C109.569 103.765 110.594 104.037 111.05 104.895C111.544 105.84 111.892 106.855 112.081 107.905Z" fill="#FFBF94"/>
<path d="M89.4799 109.684C89.1849 109.605 88.9087 109.468 88.6674 109.281C88.4261 109.094 88.2245 108.861 88.0744 108.595C87.9243 108.33 87.8286 108.037 87.793 107.735C87.7574 107.432 87.7825 107.125 87.8669 106.832C88.0303 106.078 88.4207 105.392 88.986 104.865C89.5512 104.338 90.2643 103.996 91.0296 103.885C93.8566 103.578 96.7032 103.492 99.5436 103.627C101.112 103.702 102.706 103.526 104.281 103.727C102.896 105.267 102.89 108.056 103.326 109.874C103.333 109.874 92.2251 110.341 89.4799 109.684Z" fill="white"/>
<path d="M102.895 99.6194L98.467 103.406C97.4433 103.587 96.4393 103.866 95.4688 104.238C98.2581 104.125 101.051 104.157 103.837 104.333L104.28 103.702L99.4665 103.387L102.629 100.522L102.895 99.6194Z" fill="#D6D6D6"/>
<path d="M139.684 108.927H95.4758V109.874H139.684V108.927Z" fill="#2435A1"/>
<path d="M76.1836 118.985L75.551 120.449L73.7799 124.349L46.8084 183.823H41.748C41.748 183.823 57.5616 141.406 63.8111 124.374C65.3039 120.304 66.2464 117.679 66.2906 117.433L76.1836 118.985Z" fill="#FF6551"/>
<g style="mix-blend-mode:multiply" opacity="0.44">
<g style="mix-blend-mode:multiply" opacity="0.44">
<path d="M66.2269 117.439L76.1831 118.985L73.7541 124.349H63.7473C65.2401 120.304 66.1826 117.679 66.2269 117.439Z" fill="#CC9281"/>
</g>
</g>
<path d="M192.235 183.823H187.143L160.191 124.4L157.736 118.985L159.33 118.739L167.693 117.439C167.737 117.679 168.686 120.317 170.185 124.381C176.428 141.462 192.235 183.823 192.235 183.823Z" fill="#FF6551"/>
<g style="mix-blend-mode:multiply" opacity="0.44">
<g style="mix-blend-mode:multiply" opacity="0.44">
<path d="M170.185 124.412H160.191L157.736 118.998L167.693 117.452C167.737 117.679 168.686 120.317 170.185 124.412Z" fill="#CC9281"/>
</g>
</g>
<g style="mix-blend-mode:multiply" opacity="0.44">
<g style="mix-blend-mode:multiply" opacity="0.44">
<path d="M188.807 183.823H187.143L160.191 124.4L157.736 118.985L159.33 118.739L163.043 120.449L188.807 183.823Z" fill="#CC9281"/>
</g>
</g>
<path d="M83.2229 116.411H60.5653V120.449H83.2229V116.411Z" fill="#CC9281"/>
<path d="M173.354 116.411H150.696V120.449H173.354V116.411Z" fill="#CC9281"/>
<path d="M83.2229 116.411H60.5653V120.449H83.2229V116.411Z" fill="#FF6551"/>
<g style="mix-blend-mode:multiply">
<g style="mix-blend-mode:multiply">
<path d="M83.2229 116.411H60.5653V120.449H83.2229V116.411Z" fill="#CC9281"/>
</g>
</g>
<path d="M173.354 116.411H150.696V120.449H173.354V116.411Z" fill="#FF6551"/>
<g style="mix-blend-mode:multiply">
<g style="mix-blend-mode:multiply">
<path d="M173.354 116.411H150.696V120.449H173.354V116.411Z" fill="#CC9281"/>
</g>
</g>
<g style="mix-blend-mode:multiply" opacity="0.44">
<g style="mix-blend-mode:multiply" opacity="0.44">
<path d="M75.519 120.449L73.7542 124.349L46.7764 183.823H44.3664L69.9653 120.449H75.519Z" fill="#CC9281"/>
</g>
</g>
<path d="M208.472 109.874H25.1489V117.446H208.472V109.874Z" fill="#FF8777"/>
<path d="M208.472 113.06H25.1489V117.44H208.472V113.06Z" fill="#FF6551"/>
<path d="M209.239 97.3857V103.627H184.228V98.2755L209.239 97.3857Z" fill="#FFC652"/>
<g style="mix-blend-mode:multiply">
<g style="mix-blend-mode:multiply">
<path d="M209.239 100.067V103.626H184.228V100.332C184.753 100.963 185.892 101.639 188.352 101.639C192.129 101.639 203.945 102.042 209.239 100.067Z" fill="#FFDF7B"/>
</g>
</g>
<path d="M210.25 102.522V109.874H188.155L187.896 106.977L187.592 103.627L210.25 102.522Z" fill="#67D449"/>
<g style="mix-blend-mode:multiply" opacity="0.36">
<path d="M210.251 106.195V109.873H188.156L187.897 106.977C187.897 107.015 188.694 108.201 192.071 108.391C195.449 108.58 209.542 108.952 210.251 106.195Z" fill="#2D7F75"/>
</g>
<path d="M173.949 101.058C173.866 101.088 173.778 101.103 173.69 101.102C173.531 101.104 173.376 101.056 173.245 100.966C173.115 100.875 173.016 100.747 172.962 100.597L171.311 96.0983L170.457 93.7635L167.427 85.5098C167.363 85.3196 167.376 85.1118 167.462 84.9307C167.549 84.7497 167.704 84.6096 167.893 84.5405C168.082 84.4714 168.29 84.4786 168.474 84.5606C168.658 84.6427 168.802 84.7931 168.876 84.9797L172.102 93.7635L172.734 95.5115L172.981 96.1425L173.411 97.3288L174.411 100.042C174.45 100.139 174.469 100.243 174.467 100.347C174.465 100.451 174.441 100.554 174.398 100.649C174.355 100.744 174.293 100.829 174.216 100.9C174.138 100.97 174.048 101.024 173.949 101.058Z" fill="#F7A845"/>
<path d="M173.677 96.6221L173.734 97.3919H173.652C173.566 97.3931 173.481 97.3803 173.399 97.3541C172.981 97.2152 172.905 96.723 172.855 96.3571V96.1677L172.754 95.5367L172.494 93.7888L171.596 87.8572C171.566 87.6547 171.618 87.4485 171.74 87.284C171.862 87.1195 172.045 87.0102 172.248 86.9801C172.451 86.95 172.657 87.0015 172.822 87.1234C172.987 87.2453 173.097 87.4275 173.127 87.63C173.374 89.3149 173.759 91.8516 174.05 93.7888C174.215 94.8552 174.348 95.745 174.417 96.193C174.449 96.3823 174.461 96.4959 174.468 96.5211L173.709 96.641L173.677 96.6221Z" fill="#FFC652"/>
<path d="M181.083 82.3547L179.186 93.7636L178.787 96.1677L178.718 96.5905C178.685 96.7677 178.591 96.9278 178.453 97.0431C178.314 97.1584 178.139 97.2216 177.959 97.2216H177.826C177.726 97.2055 177.63 97.1698 177.544 97.1166C177.458 97.0634 177.384 96.9937 177.325 96.9115C177.266 96.8294 177.224 96.7364 177.201 96.638C177.179 96.5395 177.176 96.4376 177.193 96.3381L177.225 96.1677L177.623 93.7636L179.572 82.1023C179.581 81.9968 179.613 81.8943 179.664 81.8014C179.715 81.7085 179.784 81.6271 179.868 81.5623C179.953 81.4975 180.049 81.4507 180.152 81.4249C180.255 81.399 180.362 81.3947 180.467 81.4121C180.572 81.4295 180.672 81.4683 180.761 81.5261C180.85 81.5839 180.926 81.6594 180.985 81.7479C181.043 81.8364 181.083 81.9359 181.101 82.0403C181.119 82.1448 181.115 82.2518 181.09 82.3547H181.083Z" fill="#2435A1"/>
<g style="mix-blend-mode:multiply" opacity="0.26">
<path d="M174.386 96.1679H171.558L171.299 96.0984L170.445 93.7637H172.089L172.722 95.5116L172.463 93.7637H174.019C174.183 94.8301 174.316 95.7198 174.386 96.1679Z" fill="#FC9630"/>
</g>
<g style="mix-blend-mode:multiply" opacity="0.36">
<path d="M179.18 93.7637L178.775 96.1679H177.219L177.617 93.7637H179.18Z" fill="#2D7F75"/>
</g>
<path d="M181.235 94.874H170.684V109.873H181.235V94.874Z" fill="#49B3F7"/>
<g style="mix-blend-mode:multiply" opacity="0.42">
<g style="mix-blend-mode:multiply" opacity="0.42">
<path d="M181.235 104.245V109.874H170.684V104.68C172.189 105.869 174.041 106.533 175.96 106.573C176.954 106.577 177.937 106.371 178.846 105.97C179.755 105.569 180.569 104.981 181.235 104.245Z" fill="#F2704F"/>
</g>
</g>
<g style="mix-blend-mode:screen" opacity="0.24">
<g style="mix-blend-mode:screen" opacity="0.24">
<path d="M181.235 94.8741V97.1773C179.667 98.1925 177.829 98.7136 175.96 98.6729C174.114 98.6869 172.297 98.2238 170.684 97.3288V94.8489L181.235 94.8741Z" fill="white"/>
</g>
</g>
<path d="M61.8312 106.283L28.1927 107.242L25.8965 106.283L15.3774 81.8942V81.8879H52.8744L60.2751 102.049L61.8312 106.283Z" fill="#545454"/>
<path d="M73.3553 106.283H25.8958V109.867H73.3553V106.283Z" fill="#686868"/>
<g style="mix-blend-mode:multiply" opacity="0.35">
<path d="M73.3751 106.283V109.867H25.9345V106.283L15.3774 81.894C15.5608 82.2096 27.5285 103.185 59.9462 102.055H60.2751L61.8312 106.289L73.3751 106.283Z" fill="#545454"/>
</g>
<defs>
<linearGradient id="paint0_linear_320_76059" x1="80.6609" y1="118.127" x2="156.199" y2="118.127" gradientUnits="userSpaceOnUse">
<stop stop-color="#FFD247"/>
<stop offset="1" stop-color="#FFDF7B"/>
</linearGradient>
</defs>
</svg>
