<svg width="229" height="210" viewBox="0 0 229 210" fill="none" xmlns="http://www.w3.org/2000/svg">
<path d="M188.307 191.24C177.221 198.202 162.894 195.229 149.885 196.75C138.893 198.034 128.613 202.634 118.096 206.062C107.579 209.49 96.0433 211.734 85.5385 208.256C78.3188 205.869 72.2358 200.982 65.4471 197.573C57.2531 193.452 48.1411 191.539 39.5911 188.223C31.0412 184.907 22.5974 179.708 18.6253 171.456C13.8538 161.526 16.5955 149.739 14.7906 138.875C12.7546 126.614 4.99784 116.03 1.76896 104.031C-2.45917 88.3924 0.388729 67.0314 15.8149 58.4733C22.2289 54.9141 29.9295 53.8233 35.8001 49.4601C43.2197 43.9749 46.2924 34.5005 51.651 27.0207C58.0299 18.1743 67.57 12.1116 78.3001 10.0853C84.3394 8.97575 90.5411 9.19391 96.6428 8.52696C113.356 6.70065 129.431 -1.74529 146.094 0.324121C154.931 1.42116 163.131 5.42908 170.832 9.89202C177.371 13.713 184.072 18.2569 187.164 25.182C191.61 35.155 190.211 43.9126 200.647 50.3016C204.595 52.7201 208.923 54.5589 212.545 57.4448C218.247 61.9888 221.744 68.7705 223.968 75.7142C226.897 84.8707 230.113 95.4546 227.609 105.041C224.761 115.943 217.46 125.305 211.371 134.537C209.179 137.853 206.968 141.293 206.125 145.177C205.785 147.044 205.576 148.933 205.5 150.83C205.094 156.359 203.695 161.426 202.646 166.806C200.791 176.211 196.732 185.935 188.307 191.24Z" fill="#EFF2FD"/>
<path d="M111.588 184.034C168.552 184.034 214.731 182.282 214.731 180.12C214.731 177.958 168.552 176.205 111.588 176.205C54.6237 176.205 8.44507 177.958 8.44507 180.12C8.44507 182.282 54.6237 184.034 111.588 184.034Z" fill="#D2CBEC"/>
<path d="M152.445 79.5414C152.483 79.6021 152.525 79.6603 152.57 79.7159L152.757 79.9715L152.895 80.1398L153.088 80.3642L153.238 80.5262L153.444 80.7382L153.606 80.8878L153.663 80.9376L153.038 81.1932C152.136 81.627 151.437 82.3935 151.09 83.3312C150.718 84.2688 150.681 85.3051 150.983 86.267C151.337 87.2123 151.948 88.0402 152.748 88.657C153.549 89.2738 154.506 89.655 155.511 89.7576C156.794 89.9011 158.092 89.6852 159.259 89.1342C159.869 90.5396 160.695 91.8413 161.707 92.9926C158.746 92.9926 155.618 93.4725 155.205 94.9436C154.958 95.0885 154.756 95.2981 154.619 95.5497C154.483 95.8012 154.418 96.0852 154.431 96.3709C154.476 97.1822 154.585 97.9888 154.756 98.7832C154.643 98.8268 154.55 98.8704 154.462 98.9141C152.551 99.8677 148.841 103.327 147.099 105.191C146.565 105.763 146.094 106.39 145.694 107.061C145.48 107.331 145.311 107.634 145.194 107.958C144.37 109.624 143.87 111.43 143.72 113.282C143.567 113.964 143.469 114.659 143.426 115.357C143.383 115.924 143.476 117.601 143.539 118.611H143.37C142.815 118.657 142.296 118.91 141.918 119.318C141.539 119.726 141.326 120.261 141.322 120.817C141.304 121.008 141.304 121.2 141.322 121.391V121.553V121.609V121.771V121.871V121.983C141.359 122.282 141.403 122.65 141.453 123.074C141.871 126.652 142.758 134.001 142.758 134.001C142.922 135.175 143.411 136.28 144.17 137.192L144.238 137.267C144.338 137.385 144.438 137.504 144.551 137.622L144.701 137.765C144.809 137.876 144.924 137.98 145.044 138.077L145.225 138.233C145.35 138.333 145.487 138.432 145.631 138.532L145.818 138.663C146.037 138.81 146.264 138.943 146.499 139.062C147.341 140.615 148.713 141.816 150.365 142.446C150.365 142.446 152.12 142.97 154.525 143.587C155.899 143.936 157.485 144.323 159.077 144.653L159.671 144.778L160.364 144.909L161.444 145.108L162.587 145.289C163.331 145.395 164.036 145.476 164.68 145.519C164.861 145.519 165.017 145.519 165.192 145.519H165.698C165.698 145.519 165.891 145.519 166.241 145.569C166.316 149.745 166.528 153.217 167.034 158.085C167.184 159.513 167.877 165.628 167.709 164.219C167.646 163.683 167.946 174.429 167.946 174.435C167.534 175.308 166.784 176.61 167.028 177.427C167.328 178.424 168.945 178.374 169.751 178.281C170.499 178.144 171.257 178.069 172.018 178.057C172.471 178.093 172.922 178.158 173.367 178.25C174.462 178.438 175.575 178.498 176.683 178.431L177.395 178.374C177.841 178.347 178.278 178.235 178.682 178.044C178.881 177.945 179.053 177.799 179.182 177.619C179.312 177.439 179.395 177.229 179.425 177.009C179.426 176.815 179.389 176.622 179.315 176.443C179.241 176.263 179.132 176.099 178.994 175.962C177.857 174.747 175.303 174.859 173.792 174.429C173.434 174.334 173.087 174.205 172.755 174.042C174.393 164.864 175.565 155.608 176.265 146.311C176.296 145.825 176.327 145.339 176.352 144.852L176.908 144.703C177.75 144.445 178.566 144.107 179.344 143.693C179.344 144.316 179.394 144.94 179.431 145.563C180.249 160.716 182.41 174.092 182.41 174.092H182.448C182.11 174.927 181.092 176.498 181.367 177.433C181.642 178.368 183.291 178.381 184.09 178.287C184.839 178.151 185.597 178.076 186.357 178.063C186.811 178.099 187.261 178.164 187.706 178.256C188.801 178.444 189.914 178.505 191.023 178.437C191.26 178.437 191.504 178.406 191.741 178.381C192.185 178.354 192.62 178.242 193.021 178.05C193.221 177.953 193.394 177.807 193.524 177.627C193.654 177.446 193.736 177.236 193.764 177.016C193.767 176.821 193.73 176.628 193.656 176.448C193.582 176.268 193.472 176.105 193.333 175.968C192.203 174.753 189.642 174.865 188.131 174.435C187.457 174.322 186.846 173.973 186.407 173.45C187.032 168.682 187.613 163.477 188.05 158.198C188.087 157.761 188.125 157.325 188.156 156.882C188.159 156.872 188.159 156.861 188.156 156.851C188.525 152.158 188.781 147.502 188.781 143.138C188.781 141.268 188.781 139.523 188.781 137.902C188.781 137.678 188.781 137.46 188.781 137.248C188.781 136.244 188.781 135.309 188.781 134.437L189.218 134.256L190.379 137.298C190.629 137.354 190.854 137.385 191.085 137.423C191.105 137.888 191.222 138.345 191.429 138.763C191.971 139.58 192.63 140.315 193.383 140.944C193.493 141.037 193.575 141.157 193.621 141.293C193.639 141.501 193.584 141.708 193.465 141.879C193.082 142.598 192.848 143.387 192.778 144.198C192.746 144.584 192.834 145.096 193.221 145.17C193.337 145.179 193.454 145.161 193.562 145.118C193.67 145.074 193.767 145.007 193.846 144.921C194.445 144.387 194.823 143.649 194.907 142.852C194.907 143.088 194.907 143.332 194.907 143.568C194.894 143.784 194.939 144 195.038 144.192C195.089 144.284 195.172 144.354 195.271 144.388C195.37 144.423 195.479 144.419 195.576 144.379C195.696 144.286 195.778 144.153 195.807 144.005C196.151 142.845 196.293 141.635 196.225 140.427L196.712 141.823C196.992 141.238 197.032 140.567 196.825 139.953C196.524 138.614 196.082 137.31 195.507 136.064C195.694 135.729 195.8 135.356 195.819 134.973L193.077 125L193.121 124.906L193.04 124.869L191.91 120.736C191.91 120.736 191.61 109.062 189.948 106.543C189.485 105.206 188.824 103.946 187.987 102.804C186.976 101.557 184.908 100.709 182.816 100.753L182.872 100.186C185.296 99.2133 191.304 95.5606 195.426 87.2955C196.05 86.0177 195.863 84.4843 195.788 83.0569V82.7079C196.991 82.0693 197.908 81.0006 198.355 79.7159C198.58 78.805 198.516 77.847 198.174 76.9733C198.022 76.5597 197.836 76.1594 197.618 75.7766C197.342 75.2856 196.995 74.8382 196.587 74.4489C196.812 73.8256 197.006 73.2023 197.174 72.5416C197.262 72.2174 197.343 71.9183 197.412 71.5692C198.038 68.5982 198.332 65.5669 198.286 62.5311C198.286 61.8579 198.286 61.1848 198.286 60.5116C198.286 59.9818 198.23 59.4395 198.161 58.8847C198.124 58.6105 198.08 58.33 198.03 58.0495C197.883 57.2082 197.652 56.3836 197.343 55.5874C197.048 54.81 196.649 54.0761 196.156 53.4058C195.84 52.9734 195.47 52.5819 195.057 52.2402C194.643 51.9001 194.183 51.621 193.689 51.4112C192.862 51.0739 191.971 50.9228 191.079 50.9686C191.628 47.5341 188.343 45.097 186.083 43.1335C183.822 41.1701 179.993 40.7961 177.476 42.6349C177.134 42.9424 176.729 43.1721 176.29 43.308C175.882 43.3534 175.47 43.3043 175.084 43.1647C171.019 42.1362 166.659 42.878 162.787 44.4923C161.713 44.8662 160.745 45.4926 159.964 46.3187C159.589 46.7352 159.344 47.2519 159.258 47.8054C159.173 48.359 159.251 48.9254 159.483 49.4352C156.679 50.5073 153.806 51.7851 151.945 54.1413C150.084 56.4974 149.647 60.2186 151.752 62.3566C150.228 64.1393 148.629 66.0591 148.067 68.3903C147.505 70.7215 148.067 72.3421 148.598 74.6234C148.74 75.4284 149.016 76.2038 149.416 76.9173C150.259 78.1701 151.577 78.2387 152.445 79.5414Z" fill="#CFD8F9"/>
<path d="M69.0628 79.3356C68.9165 78.9319 68.7346 78.5419 68.5195 78.17C68.2485 77.69 67.9099 77.2513 67.514 76.8673C67.0143 76.4123 69.0566 72.4231 69.3876 71.7312C70.2682 69.8238 71.0863 67.156 70.8116 65.043C70.6304 63.6156 69.856 62.3378 69.2377 61.0289C68.6194 59.7199 68.1323 58.2426 68.5445 56.8589C68.667 56.5605 68.7428 56.2452 68.7693 55.9239C68.7318 54.6087 66.9831 52.5954 66.0276 51.81C63.3545 49.6035 60.2069 50.3888 57.5213 48.9365C54.5645 47.2836 51.2585 46.3503 47.8722 46.2126C45.8862 46.1503 43.744 46.4433 42.2513 47.7709C41.7618 48.3478 41.1843 48.8442 40.5401 49.2419C39.9929 49.4343 39.4151 49.5251 38.8351 49.51C36.2183 49.6471 33.4578 50.6132 32.0026 52.7886C31.646 53.46 31.2121 54.0875 30.7098 54.6586C30.291 54.9817 29.8362 55.2557 29.3546 55.4751C26.7815 56.9711 25.0453 59.6326 24.0835 62.45C23.1217 65.2674 22.8344 68.2655 22.5658 71.2263C22.366 73.4017 22.7969 75.2342 23.1467 77.3223C23.4964 79.4104 23.8524 81.592 25.4387 83.2251C25.2639 83.3124 25.089 83.3747 24.9079 83.4558C24.0357 83.8831 23.3639 84.6317 23.0342 85.5439C22.669 86.4589 22.6315 87.4717 22.9281 88.4111C23.2736 89.3231 23.8646 90.1222 24.636 90.7204C25.4073 91.3187 26.3291 91.6929 27.2999 91.802C28.554 91.9334 29.8202 91.7177 30.9597 91.1786C31.5586 92.5397 32.3632 93.801 33.3454 94.9185C30.46 94.9185 27.3998 95.3923 27.0001 96.7885C26.759 96.9308 26.5612 97.136 26.4281 97.3819C26.295 97.6279 26.2315 97.9054 26.2444 98.1847C26.285 98.9776 26.3915 99.7656 26.5629 100.541L26.2756 100.672C24.402 101.6 20.7859 104.979 19.0872 106.799C18.5646 107.354 18.1039 107.965 17.7132 108.619C17.5077 108.884 17.3435 109.178 17.226 109.492C16.4213 111.12 15.9338 112.886 15.7896 114.696C15.6395 115.361 15.5413 116.036 15.496 116.716C15.4586 117.271 15.5523 118.91 15.6085 119.895H15.4461C14.9031 119.941 14.3969 120.188 14.0263 120.587C13.6556 120.985 13.4471 121.508 13.4413 122.051C13.4292 122.245 13.4292 122.438 13.4413 122.631V122.737V122.781C13.4413 122.818 13.4413 122.862 13.4413 122.905V122.98V123.117V123.217V123.398V123.429C13.7848 126.415 14.8153 134.948 14.8153 134.948C14.9727 136.094 15.4486 137.174 16.1893 138.064L16.258 138.139C16.3579 138.251 16.4578 138.37 16.564 138.482L16.7077 138.625C16.8138 138.725 16.9262 138.831 17.0449 138.931L17.2198 139.08C17.3447 139.18 17.4821 139.28 17.6195 139.373L17.8068 139.504C18.0129 139.635 18.2315 139.766 18.4689 139.891C18.5188 139.991 18.5813 140.078 18.6375 140.171C19.4643 141.554 20.7337 142.619 22.2411 143.194C22.2411 143.194 23.9523 143.705 26.3006 144.31C27.6434 144.653 29.1922 145.027 30.7473 145.351L31.3281 145.469L32.0026 145.6L33.0581 145.794L34.1698 145.968C34.9005 146.074 35.5875 146.149 36.2183 146.193C36.3932 146.193 36.5493 146.193 36.7179 146.193H37.2113C37.2113 146.193 37.4049 146.193 37.7422 146.242C37.8171 150.319 38.017 153.722 38.5166 158.459C38.6602 159.856 39.341 165.827 39.1411 164.449C39.0787 163.926 39.3785 174.423 39.3785 174.423C38.9725 175.276 38.2355 176.548 38.4791 177.346C38.7664 178.318 40.3527 178.268 41.1334 178.175C41.8638 178.047 42.6029 177.974 43.3443 177.957C43.7869 177.996 44.2268 178.061 44.6621 178.15C45.7323 178.331 46.8196 178.392 47.9034 178.331L48.6029 178.268C49.0362 178.245 49.4606 178.137 49.852 177.95C50.0471 177.853 50.2155 177.709 50.3427 177.532C50.47 177.355 50.5523 177.15 50.5827 176.934C50.5835 176.745 50.5464 176.558 50.4734 176.384C50.4005 176.209 50.2932 176.051 50.158 175.918C49.0526 174.734 46.5544 174.84 45.0805 174.416C44.73 174.328 44.3906 174.2 44.0688 174.036C45.7176 165.124 46.9162 156.135 47.6599 147.103C47.6973 146.629 47.7223 146.155 47.7535 145.681L48.2906 145.532C49.1128 145.278 49.9094 144.948 50.6701 144.547C50.6701 145.17 50.7201 145.762 50.7513 146.361C51.5507 161.152 53.6617 174.211 53.6617 174.211H53.6992C53.3744 175.021 52.3751 176.554 52.6499 177.471C52.9247 178.387 54.5236 178.393 55.3042 178.3C56.0346 178.171 56.7737 178.098 57.5151 178.081C57.9577 178.121 58.3976 178.185 58.8329 178.275C59.9031 178.456 60.9904 178.517 62.0742 178.455L62.7737 178.393C63.207 178.37 63.6315 178.262 64.0228 178.075C64.2179 177.977 64.3863 177.834 64.5135 177.657C64.6408 177.48 64.7232 177.275 64.7535 177.059C64.7543 176.87 64.7172 176.683 64.6442 176.508C64.5713 176.334 64.464 176.176 64.3288 176.043C63.2234 174.859 60.7252 174.965 59.2513 174.541C58.5923 174.433 57.994 174.092 57.5651 173.581C58.1896 168.925 58.7454 163.82 59.1701 158.69C59.2076 158.266 59.2388 157.836 59.2763 157.406V157.375C59.6323 152.793 59.9008 148.237 59.9008 144.017C59.9008 142.203 59.9008 140.483 59.9008 138.906V138.233C59.9008 137.26 59.9008 136.363 59.9008 135.49L60.3318 135.322L61.4622 138.289C61.7058 138.339 61.9306 138.37 62.1492 138.407C62.1686 138.862 62.2835 139.308 62.4864 139.716C63.0175 140.515 63.6612 141.233 64.3975 141.848C64.5053 141.938 64.5854 142.057 64.6286 142.191C64.6439 142.392 64.5887 142.593 64.4725 142.758C64.0985 143.459 63.8711 144.229 63.8042 145.021C63.8042 145.401 63.8604 145.9 64.2414 145.974C64.3572 145.985 64.4738 145.968 64.5821 145.926C64.6905 145.884 64.7876 145.817 64.8659 145.731C65.4496 145.209 65.8189 144.49 65.9027 143.712C65.9027 143.942 65.9027 144.173 65.9027 144.41C65.8896 144.625 65.9327 144.84 66.0276 145.033C66.0779 145.124 66.1601 145.192 66.2582 145.225C66.3562 145.259 66.4632 145.255 66.5584 145.214C66.6761 145.124 66.7544 144.992 66.777 144.846C67.1196 143.714 67.2591 142.53 67.1892 141.349C67.3454 141.811 67.5015 142.266 67.6639 142.721C67.9392 142.152 67.9796 141.498 67.7763 140.901C67.4834 139.591 67.0521 138.317 66.4897 137.098C66.6689 136.77 66.7733 136.406 66.7958 136.032L64.1165 126.265L64.154 126.178L64.079 126.14L62.9736 122.108C62.9736 122.108 62.6863 110.707 61.0625 108.251C60.6087 106.949 59.9624 105.722 59.1451 104.611C58.1584 103.364 56.1411 102.567 54.0989 102.61C54.0989 102.423 54.1301 102.236 54.1488 102.056C56.5158 101.102 62.3803 97.5365 66.4085 89.4708C67.0331 88.2241 66.8332 86.7219 66.7583 85.3319V84.9891C67.9333 84.3673 68.8267 83.3219 69.2564 82.0658C69.483 81.1582 69.4152 80.2023 69.0628 79.3356Z" fill="#CFD8F9"/>
<path d="M129.744 129.986L117.297 132.872C117.172 130.254 114.474 129.064 113.918 132.941C113.606 135.135 101.003 130.921 101.003 130.921L103.713 119.078C103.713 119.078 112.113 117.489 112.532 117.763C112.95 118.037 125.472 118.829 125.472 118.829L129.744 129.986Z" fill="#243976"/>
<path d="M132.616 181.061C131.18 181.144 129.738 181.065 128.32 180.824C127.743 180.703 127.159 180.62 126.571 180.575C125.588 180.589 124.609 180.685 123.642 180.861C122.599 180.986 120.519 181.055 120.113 179.758C119.707 178.462 121.094 176.486 121.518 175.395C122.063 174.006 122.325 172.523 122.287 171.032C123.521 171.036 124.752 170.909 125.959 170.651C125.968 171.585 126.062 172.515 126.24 173.431C126.301 173.831 126.432 174.218 126.627 174.572C127.102 175.314 128.026 175.607 128.875 175.85C130.83 176.411 134.14 176.267 135.608 177.838C135.788 178.014 135.931 178.225 136.027 178.457C136.124 178.69 136.172 178.939 136.17 179.191C136.131 179.476 136.022 179.748 135.854 179.981C135.685 180.215 135.461 180.404 135.202 180.531C134.683 180.784 134.118 180.93 133.541 180.961C133.235 181.017 132.929 181.042 132.616 181.061Z" fill="#353C45"/>
<path d="M114.043 181.061C112.608 181.144 111.169 181.065 109.752 180.824C109.175 180.704 108.591 180.621 108.004 180.575C107.019 180.59 106.037 180.686 105.068 180.861C104.025 180.986 101.946 181.055 101.546 179.758C101.146 178.462 102.52 176.486 102.945 175.395C103.496 174.008 103.757 172.523 103.713 171.032C104.947 171.036 106.178 170.909 107.385 170.651C107.397 171.585 107.493 172.515 107.673 173.431C107.728 173.833 107.859 174.22 108.06 174.572C108.528 175.314 109.453 175.607 110.302 175.85C112.257 176.411 115.567 176.267 117.035 177.838C117.215 178.014 117.357 178.225 117.454 178.457C117.55 178.69 117.599 178.939 117.597 179.191C117.56 179.476 117.453 179.748 117.285 179.982C117.117 180.216 116.894 180.404 116.635 180.531C116.115 180.782 115.55 180.929 114.974 180.961C114.661 181.017 114.355 181.042 114.043 181.061Z" fill="#353C45"/>
<path d="M115.504 115.65V115.713C115.504 117.24 115.61 118.829 115.766 120.412C115.848 121.216 115.941 122.021 116.041 122.825C116.041 123.055 116.097 123.286 116.129 123.517C116.129 123.517 116.129 123.548 116.129 123.56C116.585 127.076 117.153 130.647 117.378 134.069C117.415 134.587 117.44 135.098 117.459 135.609C117.496 136.575 117.54 137.529 117.59 138.482C118.646 158.104 121.45 175.42 121.45 175.42C123.767 176.243 126.565 175.065 126.565 175.065C127.389 168.763 128.17 161.826 128.751 154.863C128.794 154.296 128.838 153.722 128.888 153.155V153.112C129.363 147.04 129.681 140.988 129.712 135.391C129.712 132.985 129.712 130.71 129.712 128.615C129.709 128.608 129.707 128.601 129.707 128.593C129.707 128.586 129.709 128.578 129.712 128.572C129.712 128.285 129.712 128.004 129.712 127.724C129.712 125.355 129.675 123.236 129.65 121.447C129.65 119.951 129.606 118.686 129.581 117.707C129.581 117.614 129.581 117.533 129.581 117.445C129.581 116.404 129.537 115.719 129.531 115.457V115.314L115.542 113.755V114.03C115.542 114.422 115.51 114.821 115.51 115.22C115.504 115.364 115.504 115.507 115.504 115.65Z" fill="#243976"/>
<path d="M100.496 136.176C100.521 142.369 100.874 148.557 101.552 154.713C101.745 156.583 102.645 164.481 102.426 162.654C102.345 161.956 102.738 175.887 102.738 175.887C104.781 176.252 106.877 176.192 108.896 175.713C111.052 163.718 112.589 151.62 113.499 139.467C113.562 138.594 113.618 137.716 113.668 136.843C113.668 136.668 113.668 136.494 113.668 136.326C113.712 135.571 113.755 134.823 113.805 134.094C114.061 130.398 114.38 127.001 114.505 123.56C114.505 123.317 114.505 123.074 114.505 122.831C114.53 122.037 114.542 121.239 114.542 120.437C114.542 118.885 114.48 117.321 114.349 115.675H100.74C100.74 115.675 100.74 115.881 100.74 116.298C100.74 116.716 100.74 117.258 100.69 117.981C100.69 118.197 100.69 118.428 100.69 118.673C100.64 120.643 100.578 123.51 100.546 126.994C100.546 127.437 100.546 127.892 100.546 128.36C100.471 130.703 100.471 133.352 100.496 136.176Z" fill="#243976"/>
<g style="mix-blend-mode:multiply" opacity="0.4">
<path d="M100.49 128.304C105.655 129.089 105.723 126.016 105.723 126.016C107.809 125.673 106.972 123.915 106.972 123.915C107.3 123.954 107.63 123.862 107.89 123.659C108.15 123.455 108.318 123.158 108.359 122.831C109.986 123.288 111.665 123.531 113.355 123.554H113.468C114.23 123.554 114.992 123.554 115.735 123.554H116.116C120.35 123.342 123.348 122.868 123.348 122.868C126.627 122.388 128.569 121.921 129.662 121.447C129.662 119.951 129.618 118.686 129.593 117.707C129.574 117.621 129.563 117.534 129.562 117.445C129.531 116.404 129.512 115.719 129.5 115.457L115.541 114.03L112.768 113.755C112.737 114.235 112.712 114.722 112.706 115.22C112.706 115.364 112.706 115.507 112.706 115.65V115.806H103.169L100.74 116.429C100.74 116.841 100.702 117.458 100.683 118.243C100.683 118.362 100.683 118.474 100.683 118.599C100.627 120.568 100.565 123.435 100.527 126.92C100.496 127.381 100.496 127.836 100.49 128.304Z" fill="#3C5AAC"/>
</g>
<g style="mix-blend-mode:multiply" opacity="0.4">
<path d="M100.685 117.925C104.627 119.439 108.797 120.282 113.019 120.418C113.968 120.456 114.893 120.418 115.786 120.418C120.526 120.252 125.197 119.234 129.576 117.414C129.538 116.055 129.507 115.301 129.507 115.301L112.769 113.761C112.726 114.385 112.701 115.008 112.701 115.631H100.759C100.759 115.631 100.728 116.467 100.685 117.925Z" fill="#30A2BE"/>
</g>
<path d="M97.4865 85.0639C97.4865 85.0639 97.6738 90.7423 98.1859 97.4741V97.7484C98.8604 106.431 98.7043 115.313 98.6169 124.034C104.475 125.904 110.739 125.947 116.891 125.953C118.64 125.953 120.395 125.953 122.131 125.798C126.386 125.406 130.5 124.071 134.172 121.889C132.71 115.349 131.774 108.702 131.374 102.012C131.077 97.9434 130.291 93.9253 129.032 90.0442C128.251 87.4699 127.233 84.5279 125.11 82.7265C122.986 80.9251 119.252 81.4362 116.685 81.4798C114.064 81.5081 111.447 81.687 108.847 82.0159C108.16 82.1032 107.504 82.1967 106.886 82.2964C104.628 82.6471 102.404 83.1829 100.234 83.8983C99.2856 84.2046 98.3659 84.5947 97.4865 85.0639Z" fill="#14336C"/>
<g style="mix-blend-mode:multiply" opacity="0.27">
<path d="M106.903 82.2777C107.84 83.7737 110.857 87.738 116.346 87.4637C119.225 87.3606 121.952 86.1474 123.953 84.0791C124.544 83.4776 125.058 82.8056 125.483 82.0783L125.677 81.7292C124.959 81.7292 124.228 81.7292 123.485 81.7915C121.234 81.5335 118.968 81.4231 116.702 81.4612C114.082 81.4961 111.465 81.6751 108.864 81.9972C108.177 82.1032 107.522 82.1967 106.903 82.2777Z" fill="#3C5AAC"/>
</g>
<path d="M108.865 82.0162C109.696 83.2629 112.082 86.2174 116.285 86.0055C117.73 85.9167 119.134 85.491 120.385 84.7624C121.636 84.0339 122.698 83.0229 123.486 81.8105C121.235 81.5526 118.969 81.4422 116.703 81.4802C114.083 81.5151 111.466 81.6941 108.865 82.0162Z" fill="#E6A07A"/>
<path d="M109.921 82.4396C109.916 82.4664 109.916 82.4939 109.921 82.5207C110.171 83.2873 111.251 83.8546 112.138 84.2535C113.335 84.7652 114.627 85.0221 115.929 85.0077C118.427 85.0077 121.681 84.079 121.856 82.0469C121.856 81.7166 121.912 81.4236 121.943 81.0683C122.031 80.1957 122.118 79.3293 122.181 78.4566C122.181 78.2634 122.181 78.064 122.212 77.8333C122.212 77.4905 122.212 77.1539 122.249 76.8173C122.257 76.7281 122.257 76.6385 122.249 76.5493C122.249 76.4994 122.287 76.4246 122.312 76.3249C122.333 76.2791 122.345 76.2291 122.345 76.1784C122.345 76.1278 122.333 76.0777 122.312 76.0319C122.228 75.9501 122.121 75.8957 122.006 75.8761C121.901 75.8453 121.795 75.8203 121.687 75.8013C121.443 75.764 121.197 75.7515 120.95 75.7639C120.59 75.7966 120.231 75.8487 119.876 75.9198H119.807C118.994 76.026 118.174 76.076 117.353 76.0693C115.895 76.1185 114.436 76.0935 112.981 75.9945C112.098 75.8855 111.21 75.8231 110.321 75.8076C110.172 76.5467 110.09 77.2977 110.077 78.0515C110.077 78.226 110.077 78.4005 110.046 78.5751C110.002 79.348 109.965 80.1583 109.946 80.8439C109.904 81.3748 109.896 81.9077 109.921 82.4396Z" fill="#E6A07A"/>
<g style="mix-blend-mode:multiply" opacity="0.39">
<path d="M109.92 80.8817C111.794 81.636 116.047 82.4899 117.958 82.4026C119.399 82.3587 120.795 81.895 121.974 81.0687C122.061 80.1961 122.149 79.3297 122.211 78.4571C122.211 78.2638 122.211 78.0644 122.243 77.8337C122.173 77.7778 122.092 77.7374 122.005 77.7153C121.901 77.6825 121.794 77.6554 121.687 77.6343L120.475 77.8836L119.807 77.7776C118.995 77.9015 118.174 77.9599 117.352 77.9522C115.895 78.0064 114.435 77.9773 112.981 77.8649C112.099 77.7394 111.21 77.6665 110.32 77.6467C110.214 77.768 110.132 77.9074 110.076 78.0581C110.076 78.2327 110.076 78.4072 110.045 78.5817C109.964 79.3858 109.92 80.1961 109.92 80.8817Z" fill="#E6A07A"/>
</g>
<g style="mix-blend-mode:multiply" opacity="0.4">
<path d="M117.602 138.482C118.657 158.104 121.518 175.413 121.518 175.413C123.835 176.236 126.577 175.064 126.577 175.064C127.395 168.763 128.182 161.825 128.763 154.863C128.094 159.88 126.52 169.673 124.391 169.56C122.261 169.448 119.02 148.467 117.602 138.482Z" fill="#3C5AAC"/>
</g>
<g style="mix-blend-mode:multiply" opacity="0.4">
<path d="M101.802 157.151C102.377 161.825 102.733 169.997 102.745 175.887C104.788 176.252 106.884 176.192 108.903 175.713C111.059 163.718 112.596 151.62 113.506 139.467C111.764 150.419 108.597 167.572 105.818 167.965C104.563 168.14 102.789 160.373 101.802 157.151Z" fill="#3C5AAC"/>
</g>
<g style="mix-blend-mode:multiply" opacity="0.15">
<path d="M99.5276 109.386C100.046 113.088 100.596 116.516 101.002 118.623C101.002 118.623 106.241 121.31 115.328 121.31H116.103C120.724 121.21 125.312 120.506 129.749 119.215C130.644 115.84 131.322 112.411 131.779 108.949C129.655 112.066 124.909 116.865 116.103 116.572C106.672 116.267 101.601 111.81 99.5276 109.386Z" fill="#3C5AAC"/>
</g>
<path d="M106.205 86.13L101.165 84.2601C99.478 84.1857 97.8195 84.7139 96.4873 85.7498C91.9781 89.3339 86.5884 98.6525 85.9638 103.826C85.6203 106.631 88.0435 110.508 91.7158 108.04C93.6582 106.737 96.3437 101.75 98.336 99.9365C102.845 95.673 106.286 91.6277 106.205 86.13Z" fill="white"/>
<path d="M86.0578 103.558C85.4832 104.106 85.6519 114.503 98.0115 121.596C99.4061 120.446 100.363 118.853 100.722 117.084C100.722 117.084 94.9825 106.942 92.603 105.814C90.4748 104.915 88.2881 104.162 86.0578 103.558Z" fill="white"/>
<path d="M100.209 117.526C100.389 117.295 100.629 117.116 100.902 117.009C101.09 116.947 102.076 116.816 104.45 117.545C104.868 117.676 106.454 118.524 106.261 119.558C106.123 120.3 103.538 119.558 102.894 119.515C103.438 119.615 106.017 119.964 105.842 121.079C105.667 122.195 102.863 121.379 102.301 121.285C102.301 121.285 105.099 121.996 105.074 123.018C105.049 124.04 102.42 123.51 102.42 123.51C102.42 123.51 104.506 124.046 104.187 125.056C104.031 125.536 102.513 125.405 102.182 125.362C101.656 125.299 101.144 125.152 100.665 124.925C99.6251 124.378 98.826 123.465 98.4227 122.363C98.3282 122.098 98.1957 121.849 98.0293 121.622C97.7483 121.248 98.4103 120.257 98.5726 119.976C98.9811 119.287 99.4252 118.619 99.9029 117.975C99.9841 117.807 100.097 117.657 100.209 117.526Z" fill="#FFBF94"/>
<path d="M130.986 55.6808C131.448 55.9986 131.929 56.3041 132.428 56.6157C133.84 57.4572 135.37 58.0805 136.938 57.7564C139.13 57.3076 141.509 55.3317 142.115 53.1563C142.405 51.9764 142.324 50.7361 141.884 49.6034C141.68 49.0694 141.433 48.5525 141.147 48.0576C140.754 47.3328 140.241 46.6795 139.629 46.1253C136.95 43.8315 133.859 45.2215 131.173 46.6925L130.986 55.6808Z" fill="#FFBF94"/>
<g style="mix-blend-mode:multiply" opacity="0.31">
<path d="M135.034 51.8475C136.451 50.7068 136.857 48.9553 136.826 47.2163C136.825 47.1782 136.837 47.1409 136.86 47.1106C136.883 47.0802 136.916 47.0586 136.953 47.0492C136.99 47.0398 137.029 47.0431 137.064 47.0588C137.099 47.0744 137.127 47.1014 137.145 47.1352C137.894 48.8805 137.145 50.8128 135.895 52.1218C136.428 52.4754 136.932 52.8714 137.401 53.3061C137.96 53.7352 138.392 54.3084 138.65 54.9641C138.684 55.0613 138.686 55.1669 138.655 55.2654C138.625 55.3638 138.563 55.4497 138.48 55.5106C138.396 55.5714 138.296 55.6038 138.192 55.603C138.089 55.6023 137.989 55.5684 137.906 55.5064C137.432 55.0616 137.012 54.5614 136.657 54.0166C136.183 53.4396 135.642 52.9208 135.046 52.4708C134.997 52.4351 134.958 52.3887 134.93 52.3352C134.902 52.2817 134.887 52.2225 134.886 52.1622C134.884 52.102 134.897 52.0422 134.923 51.9876C134.949 51.9331 134.986 51.8851 135.034 51.8475Z" fill="#DD664A"/>
</g>
<g style="mix-blend-mode:multiply" opacity="0.25">
<path d="M132.404 56.6157C133.815 57.4572 135.346 58.0805 136.913 57.7564C139.105 57.3076 141.485 55.3317 142.091 53.1563C142.38 51.9764 142.3 50.7361 141.86 49.6034C141.663 49.0702 141.425 48.5533 141.148 48.0576C141.191 49.4102 140.76 54.8518 132.404 56.6157Z" fill="#995049"/>
</g>
<path d="M91.2286 64.9619L91.3535 65.2673C93.4832 70.3473 98.2609 74.4674 103.026 76.8423C107.617 79.1298 116.048 81.3738 121.269 79.9588C123.617 79.3355 132.467 74.7604 138.35 62.9797C139.181 61.3279 138.912 59.3395 138.819 57.4945C138.819 57.0208 138.762 56.5533 138.737 56.0796C138.166 46.9696 136.648 37.9434 134.209 29.1461L133.941 28.4106C133.91 24.278 129.9 21.3297 126.053 19.7839C121.65 18.0416 116.944 17.1875 112.208 17.271C107.472 17.3544 102.8 18.3738 98.4608 20.2701C94.6823 21.9406 91.1224 24.359 88.7929 27.7499C86.1886 31.5646 85.3142 36.3454 85.4953 40.958C85.6764 45.5705 86.8381 50.0833 87.9935 54.5525C88.8247 58.094 89.9058 61.5725 91.2286 64.9619Z" fill="#FFBF94"/>
<path d="M86.5249 66.1652C88.6113 66.3663 90.7054 65.8685 92.4768 64.7502C92.914 64.4856 93.3314 64.1898 93.7259 63.8651L89.9349 55.3818C88.3673 53.3062 85.7005 54.0292 83.3335 55.1013C82.1723 55.6619 81.276 56.6526 80.8354 57.8626C80.3488 59.0776 80.2981 60.423 80.6917 61.6711C81.153 62.885 81.9423 63.9476 82.972 64.7409C84.0017 65.5342 85.2315 66.0272 86.5249 66.1652Z" fill="#FFBF94"/>
<g style="mix-blend-mode:multiply" opacity="0.31">
<path d="M87.2061 60.4615C85.4824 59.8382 83.7774 58.4482 83.6212 56.5658C83.6188 56.5417 83.6243 56.5174 83.6368 56.4967C83.6493 56.4759 83.6683 56.4598 83.6908 56.4506C83.7133 56.4415 83.7381 56.4399 83.7616 56.4461C83.7851 56.4522 83.806 56.4658 83.8211 56.4848C84.8703 58.0618 85.9445 59.4268 87.8931 59.8694C87.9592 59.8813 88.0212 59.91 88.0731 59.9527C88.125 59.9953 88.165 60.0506 88.1894 60.1131C88.2139 60.1756 88.2218 60.2433 88.2126 60.3097C88.2034 60.3762 88.1772 60.4392 88.1367 60.4927C87.7076 61.0511 87.4224 61.706 87.306 62.4C87.3071 62.9515 87.2077 63.4985 87.0125 64.0144C86.9625 64.1017 86.8251 64.1765 86.7314 64.083C85.8134 63.1667 86.5191 61.4962 87.2061 60.4615Z" fill="#DD664A"/>
</g>
<g style="mix-blend-mode:multiply" opacity="0.25">
<g style="mix-blend-mode:multiply" opacity="0.25">
<path d="M90.9211 56.8342C91.4453 55.1249 91.8173 53.3728 92.0327 51.5983C92.1139 50.975 92.9258 44.1684 92.6198 44.1185C94.8994 44.6733 97.2914 44.48 99.6209 44.1746C105.489 43.4091 111.25 41.9722 116.79 39.8924C120.249 38.5897 123.728 36.9628 126.195 34.2078C129.518 39.1158 133.954 43.1731 139.142 46.0508C138.605 39.6119 134.82 33.9522 131.123 28.6416C130.379 27.5695 129.505 26.4101 128.219 26.1483C127.643 26.083 127.06 26.1146 126.495 26.2418C119.975 27.2765 113.336 27.4261 106.797 28.4047C102.737 29.028 98.7278 29.9318 94.7183 30.8481C94.0518 30.96 93.4056 31.1701 92.8009 31.4714C92.1272 31.9236 91.5411 32.4938 91.071 33.1544C89.6845 34.8872 88.2605 36.6948 87.7172 38.8453C87.3612 40.2726 87.5735 41.8683 87.4986 43.3456C87.2624 46.444 87.5089 49.5601 88.2293 52.5831C88.8085 54.5917 89.537 56.5544 90.4089 58.4548C90.59 57.925 90.7649 57.3764 90.9211 56.8342Z" fill="#995049"/>
</g>
</g>
<g style="mix-blend-mode:multiply" opacity="0.25">
<path d="M86.5249 66.165C88.6113 66.3661 90.7054 65.8683 92.4768 64.75C83.5958 65.8533 80.8354 57.8936 80.8354 57.8936C80.3488 59.1085 80.2981 60.454 80.6917 61.702C81.1576 62.9101 81.9489 63.9662 82.9783 64.7538C84.0076 65.5413 85.235 66.0297 86.5249 66.165Z" fill="#995049"/>
</g>
<path d="M81.1239 50.1148C81.3549 50.6508 81.5923 51.1807 81.8421 51.7105C83.647 55.494 87.032 56.7531 90.6981 58.5233C90.3608 52.7888 90.2879 47.0501 90.4795 41.3073C90.4795 42.074 94.82 42.554 95.4446 42.6225C97.2279 42.6769 99.0114 42.5242 100.759 42.1675C105.468 41.3572 109.978 39.6742 114.399 37.9227C120.02 35.6975 125.903 33.0484 129.02 27.9123C128.395 28.9096 129.644 32.182 130.013 33.198C130.691 35.1049 131.592 36.9251 132.698 38.6208C134.859 42.0054 137.364 44.9724 138.856 48.7684C141.742 42.4231 142.179 35.2549 141.979 28.2863C141.835 22.8447 139.481 15.6641 132.611 15.9384C133.123 12.7594 131.018 9.6117 128.239 7.95368C122.131 4.30728 114.393 4.58154 107.629 5.9466C100.357 7.36359 93.5243 10.4825 87.694 15.047C77.3641 23.4306 76.0963 38.4338 81.1239 50.1148Z" fill="#3D2023"/>
<path d="M138.819 48.6749L138.856 48.7684C141.742 42.4231 142.179 35.2549 141.979 28.2863C141.835 22.8447 139.481 15.6641 132.611 15.9384C133.123 12.7594 131.018 9.6117 128.239 7.95368C122.131 4.30728 114.393 4.58154 107.629 5.9466C100.356 7.36359 93.5241 10.4825 87.6938 15.047C77.2765 23.4306 76.0087 38.4338 81.0362 50.1148C81.2673 50.6508 81.5046 51.1807 81.7544 51.7105C83.3782 55.12 86.2886 56.4788 89.5237 58.006C86.343 53.7517 84.065 48.8947 82.8286 43.732C80.7489 34.4882 82.8287 23.9542 90.6229 17.8395C92.2918 16.6271 94.0912 15.6047 95.9877 14.7915C98.2554 13.6167 100.645 12.6929 103.114 12.0364C106.798 11.1949 110.758 11.3445 114.499 11.6312C118.43 11.9226 122.29 12.8357 125.934 14.3364C126.953 14.7406 127.904 15.2999 128.751 15.9945C128.957 16.1752 130.625 18.7931 130.044 18.8555C132.636 18.5563 135.627 19.2731 137.264 21.3487C138.955 23.6154 140 26.2972 140.286 29.109C140.723 32.6682 140.249 36.2772 139.724 39.8238C139.215 42.7494 138.913 45.7071 138.819 48.6749Z" fill="#543037"/>
<g style="mix-blend-mode:multiply" opacity="0.43">
<g style="mix-blend-mode:multiply" opacity="0.43">
<path d="M124.66 23.6487C124.641 23.8144 124.641 23.9818 124.66 24.1476C124.694 23.983 124.694 23.8133 124.66 23.6487Z" fill="#3D2023"/>
</g>
</g>
<path d="M126.621 41.014C126.625 40.923 126.648 40.8341 126.69 40.7533C126.733 40.6725 126.792 40.6019 126.864 40.5465C126.985 40.4796 127.12 40.4432 127.258 40.4405C128.462 40.3321 129.676 40.4817 130.817 40.8795C131.959 41.2772 133.003 41.9139 133.878 42.7468C134.427 43.314 135.189 44.3799 134.309 45.0094C133.316 45.72 131.811 45.0094 130.867 44.5918C129.444 43.9685 126.496 43.1208 126.608 41.1137C126.614 41.0825 126.614 41.0451 126.621 41.014Z" fill="#3D2023"/>
<path d="M97.2234 49.0054C97.492 47.7276 99.0971 46.6866 100.146 46.1381C101.499 45.414 103.03 45.0877 104.562 45.1969C104.775 45.2193 104.985 45.2674 105.186 45.3403C105.479 45.3659 105.758 45.4788 105.986 45.6644C107.06 46.6617 104.655 48.0267 104.05 48.3758C102.638 49.1923 101.139 50.2084 99.5342 50.5636C98.4975 50.7943 96.9299 50.4016 97.2234 49.0054Z" fill="#3D2023"/>
<path d="M114.055 62.3315C114.342 60.8418 117.259 60.6673 118.477 60.6174C120.113 60.5551 121.98 60.7421 123.167 61.9762C123.177 61.9887 123.184 62.0038 123.187 62.0198C123.189 62.0359 123.187 62.0523 123.18 62.0672C123.174 62.0821 123.163 62.0949 123.15 62.1042C123.136 62.1134 123.121 62.1188 123.105 62.1196C121.531 62.2006 119.982 61.783 118.414 61.9451C117.536 62.0339 116.674 62.2436 115.854 62.5684C115.229 62.8177 114.936 63.0857 114.305 62.7803C114.222 62.74 114.154 62.6753 114.109 62.5951C114.065 62.5148 114.046 62.4228 114.055 62.3315Z" fill="#DD664A"/>
<path d="M125.46 55.5999C125.819 56.5119 126.441 57.2972 127.247 57.8564C128.053 58.4157 129.007 58.724 129.989 58.7421C130.97 58.7603 131.935 58.4877 132.762 57.9586C133.588 57.4296 134.239 56.6679 134.631 55.7699C135.024 54.8719 135.141 53.8778 134.968 52.9133C134.795 51.9489 134.339 51.0573 133.658 50.3513C132.977 49.6453 132.102 49.1567 131.143 48.947C130.184 48.7374 129.184 48.8162 128.27 49.1735C127.663 49.411 127.108 49.7657 126.638 50.2173C126.168 50.6689 125.791 51.2085 125.53 51.8054C125.269 52.4022 125.129 53.0445 125.117 53.6956C125.105 54.3467 125.221 54.9938 125.46 55.5999Z" fill="white"/>
<path d="M126.383 55.5998C126.66 56.3119 127.143 56.9259 127.77 57.3639C128.397 57.8019 129.141 58.0443 129.906 58.0603C130.671 58.0763 131.424 57.8652 132.069 57.4538C132.714 57.0424 133.222 56.4492 133.529 55.7493C133.835 55.0494 133.927 54.2744 133.792 53.5225C133.657 52.7705 133.302 52.0755 132.77 51.5254C132.239 50.9753 131.557 50.595 130.809 50.4327C130.061 50.2703 129.281 50.3331 128.569 50.6133C127.618 50.9873 126.855 51.7219 126.445 52.6563C126.035 53.5908 126.013 54.6491 126.383 55.5998Z" fill="black"/>
<path d="M128.545 56.8526C128.627 57.0594 128.768 57.2372 128.952 57.3636C129.135 57.4899 129.352 57.5592 129.574 57.5624C129.797 57.5657 130.016 57.5029 130.202 57.3819C130.389 57.261 130.536 57.0873 130.624 56.8831C130.712 56.6788 130.737 56.4531 130.696 56.2346C130.655 56.0161 130.55 55.8146 130.394 55.6558C130.238 55.4969 130.039 55.3878 129.821 55.3424C129.603 55.2969 129.376 55.317 129.17 55.4003C128.895 55.5112 128.675 55.726 128.558 55.9981C128.441 56.2701 128.436 56.5773 128.545 56.8526Z" fill="white"/>
<path d="M108.471 61.7879C110.034 59.5437 109.478 56.4599 107.229 54.8999C104.981 53.3399 101.891 53.8946 100.328 56.1387C98.7648 58.3829 99.3205 61.4667 101.569 63.0267C103.818 64.5867 106.908 64.032 108.471 61.7879Z" fill="white"/>
<path d="M108.484 59.3272C108.455 60.0898 108.201 60.8267 107.752 61.4447C107.303 62.0627 106.681 62.5341 105.964 62.7991C105.247 63.0642 104.468 63.1112 103.724 62.934C102.98 62.7568 102.306 62.3635 101.786 61.8038C101.266 61.2441 100.924 60.5431 100.804 59.7895C100.683 59.0359 100.789 58.2636 101.109 57.5701C101.428 56.8767 101.946 56.2933 102.597 55.8938C103.249 55.4943 104.004 55.2965 104.768 55.3255C105.792 55.3661 106.758 55.8101 107.455 56.5601C108.151 57.3102 108.522 58.3052 108.484 59.3272Z" fill="black"/>
<path d="M106.948 60.9851C106.943 61.2077 106.871 61.4238 106.743 61.6058C106.614 61.7878 106.434 61.9275 106.226 62.0071C106.018 62.0867 105.79 62.1027 105.573 62.053C105.355 62.0033 105.158 61.8901 105.005 61.7279C104.852 61.5657 104.751 61.3618 104.715 61.1421C104.678 60.9224 104.708 60.6969 104.801 60.4943C104.893 60.2917 105.044 60.1211 105.234 60.0043C105.424 59.8874 105.644 59.8296 105.867 59.8382C106.163 59.848 106.442 59.9742 106.645 60.1891C106.847 60.404 106.956 60.6902 106.948 60.9851Z" fill="white"/>
<path d="M113.604 70.067C113.689 70.1846 113.781 70.297 113.879 70.4036L113.942 70.4659H113.973L114.148 70.7028L114.273 70.9022C114.275 70.9472 114.289 70.9908 114.313 71.0289C114.337 71.067 114.371 71.0985 114.41 71.1204L114.585 71.4321C114.621 71.4868 114.676 71.5266 114.739 71.5438C114.802 71.561 114.87 71.5545 114.929 71.5256C114.987 71.496 115.033 71.4464 115.059 71.3858C115.084 71.3252 115.086 71.2576 115.066 71.1952C115.047 71.1064 115.022 71.0189 114.991 70.9334C115.624 70.2746 116.399 69.7692 117.258 69.4562C118.819 68.9076 120.687 69.0261 122.323 69.1694C122.498 69.1694 122.742 69.1694 122.773 68.9824C122.804 68.7954 122.679 68.7456 122.567 68.677C121.855 68.2469 120.805 68.2656 119.994 68.2095C119.063 68.1415 118.129 68.271 117.252 68.5897C116.272 68.9336 115.392 69.5138 114.691 70.2789C114.616 70.1356 114.535 70.0047 114.448 69.8675C114.39 69.7673 114.326 69.6714 114.254 69.5808C114.226 69.5362 114.188 69.4978 114.145 69.4679C114.101 69.438 114.052 69.4171 114 69.4067C113.948 69.3962 113.895 69.3963 113.843 69.4069C113.791 69.4176 113.742 69.4385 113.698 69.4686C113.65 69.4996 113.609 69.5404 113.578 69.5883C113.546 69.6363 113.526 69.6903 113.517 69.7468C113.508 69.8033 113.511 69.8611 113.526 69.9163C113.541 69.9715 113.568 70.0228 113.604 70.067Z" fill="#DD664A"/>
<path d="M95.5941 35.8282C94.5043 35.8289 93.4155 35.7623 92.334 35.6287C92.2521 35.6193 92.1773 35.578 92.1258 35.5138C92.0743 35.4496 92.0504 35.3676 92.0592 35.2859C92.0638 35.2448 92.0766 35.2051 92.0967 35.169C92.1169 35.133 92.144 35.1012 92.1765 35.0757C92.2091 35.0502 92.2464 35.0314 92.2863 35.0204C92.3262 35.0094 92.3678 35.0064 92.4089 35.0116C96.9118 35.5726 101.152 34.8121 105.087 33.9894C109.218 33.2238 113.223 31.8874 116.985 30.0188C120.007 28.4543 122.387 26.7589 124.167 23.5675L125.228 21.654C125.27 21.5833 125.338 21.5316 125.417 21.5095C125.496 21.4875 125.581 21.4968 125.653 21.5355C125.689 21.5551 125.721 21.5816 125.747 21.6135C125.773 21.6454 125.792 21.6822 125.804 21.7215C125.815 21.7609 125.819 21.8022 125.815 21.843C125.81 21.8838 125.798 21.9234 125.778 21.9594L124.71 23.8667C122.743 27.3947 119.97 29.1711 117.272 30.5736C113.458 32.4674 109.4 33.8226 105.212 34.6002C102.057 35.3398 98.8339 35.7513 95.5941 35.8282Z" fill="#543037"/>
<path d="M96.012 29.7197C95.9292 29.7197 95.8498 29.6869 95.7912 29.6284C95.7327 29.57 95.6998 29.4907 95.6998 29.408C95.6998 29.3254 95.7327 29.2461 95.7912 29.1877C95.8498 29.1292 95.9292 29.0964 96.012 29.0964L102.307 28.4731C104.282 28.2259 106.232 27.8088 108.134 27.2264L109.433 26.8711C111.848 26.2195 114.148 25.2021 116.253 23.8543C116.928 23.418 117.615 23.0253 118.283 22.6451C120.482 21.3984 122.561 20.2017 123.873 17.7458C123.89 17.7068 123.916 17.6718 123.947 17.6431C123.979 17.6143 124.016 17.5923 124.057 17.5785C124.097 17.5647 124.14 17.5593 124.183 17.5628C124.226 17.5662 124.267 17.5784 124.305 17.5985C124.343 17.6186 124.376 17.6463 124.402 17.6798C124.429 17.7133 124.448 17.7519 124.459 17.7931C124.47 17.8344 124.473 17.8775 124.466 17.9198C124.46 17.962 124.445 18.0025 124.422 18.0388C123.03 20.6504 120.875 21.8846 118.589 23.1873C117.933 23.5613 117.253 23.954 116.591 24.3779C114.436 25.7705 112.079 26.8219 109.602 27.4945L108.303 27.856C106.366 28.4557 104.381 28.8873 102.37 29.1462L96.0745 29.7696L96.012 29.7197Z" fill="#543037"/>
<path d="M101.214 24.6834C101.153 24.6831 101.093 24.6646 101.041 24.6302C100.99 24.5958 100.951 24.5471 100.927 24.4902C100.895 24.414 100.895 24.3285 100.925 24.2517C100.955 24.175 101.014 24.113 101.09 24.0788C103.02 23.3184 104.995 22.6773 107.004 22.159C108.253 21.8037 109.577 21.4422 110.839 21.0121C114.736 19.7031 117.446 17.9641 119.132 15.6952C119.182 15.6291 119.256 15.5854 119.338 15.5737C119.42 15.562 119.503 15.5833 119.57 15.6329C119.636 15.6825 119.68 15.7563 119.691 15.8381C119.703 15.92 119.682 16.0031 119.632 16.0692C117.871 18.4378 115.06 20.2517 111.038 21.6043C109.789 22.0343 108.447 22.4021 107.173 22.7574C105.189 23.2724 103.239 23.9073 101.333 24.6585C101.295 24.6727 101.255 24.6811 101.214 24.6834Z" fill="#543037"/>
<path d="M84.94 40.9517C84.8992 40.9525 84.8588 40.9452 84.8209 40.9303C84.7831 40.9153 84.7486 40.8929 84.7195 40.8645C84.6904 40.836 84.6673 40.8021 84.6516 40.7646C84.6358 40.7271 84.6277 40.6869 84.6277 40.6463C84.5715 36.3828 84.509 31.5459 86.6325 27.4257C88.0939 24.5897 90.6482 22.0341 94.433 19.6218C100.16 15.963 106.081 14.174 111.539 14.4483C111.58 14.4503 111.62 14.4604 111.657 14.478C111.695 14.4955 111.728 14.5202 111.755 14.5506C111.783 14.581 111.804 14.6165 111.818 14.6551C111.832 14.6937 111.838 14.7346 111.836 14.7755C111.834 14.8165 111.824 14.8566 111.806 14.8936C111.788 14.9306 111.764 14.9639 111.733 14.9914C111.703 15.0188 111.667 15.0401 111.629 15.0539C111.59 15.0676 111.549 15.0737 111.508 15.0716C104.763 14.735 98.6861 17.6459 94.764 20.1454C91.0792 22.5015 88.5998 24.9761 87.1883 27.7125C85.1398 31.6955 85.196 36.4389 85.2522 40.6338C85.2531 40.6753 85.2456 40.7165 85.2303 40.755C85.2149 40.7935 85.1921 40.8286 85.163 40.8582C85.1339 40.8878 85.0992 40.9113 85.0609 40.9274C85.0226 40.9434 84.9815 40.9517 84.94 40.9517Z" fill="#543037"/>
<path d="M135.92 36.2146H135.864C135.824 36.2079 135.785 36.1931 135.75 36.1712C135.716 36.1492 135.686 36.1205 135.662 36.0868C135.639 36.053 135.623 36.015 135.615 35.9748C135.606 35.9347 135.606 35.8933 135.614 35.8531C136.058 33.8638 136.231 31.8237 136.126 29.7883C135.914 27.1454 134.559 23.5551 131.436 22.1028C131.399 22.0854 131.365 22.0607 131.337 22.0303C131.309 21.9998 131.288 21.9641 131.274 21.9252C131.26 21.8864 131.254 21.8452 131.256 21.8039C131.258 21.7627 131.268 21.7223 131.286 21.6852C131.303 21.6479 131.327 21.6145 131.357 21.5867C131.387 21.5589 131.422 21.5375 131.461 21.5235C131.499 21.5096 131.54 21.5035 131.581 21.5055C131.622 21.5076 131.662 21.5178 131.698 21.5356C135.065 23.1001 136.526 26.9335 136.751 29.7384C136.862 31.8303 136.686 33.9275 136.226 35.9716C136.212 36.0414 136.173 36.1039 136.117 36.1483C136.061 36.1927 135.992 36.2161 135.92 36.2146Z" fill="#543037"/>
<path d="M133.597 35.0055C133.531 35.0055 133.467 34.9843 133.414 34.945C133.361 34.9057 133.322 34.8504 133.304 34.7873C133.042 33.7702 132.932 32.7199 132.979 31.6707C133.004 30.853 132.949 30.0347 132.816 29.2273C132.597 28.1539 132.092 27.1592 131.355 26.3476C131.305 26.2857 131.281 26.207 131.287 26.1278C131.294 26.0486 131.33 25.9748 131.389 25.9214C131.448 25.8681 131.525 25.8393 131.605 25.8409C131.684 25.8425 131.76 25.8744 131.817 25.93C132.63 26.8241 133.186 27.92 133.429 29.1027C133.57 29.9489 133.629 30.8069 133.603 31.6645C133.556 32.6542 133.655 33.6455 133.897 34.6066C133.909 34.6458 133.914 34.6872 133.911 34.7283C133.907 34.7694 133.895 34.8093 133.876 34.8459C133.857 34.8824 133.831 34.9147 133.799 34.9411C133.767 34.9674 133.73 34.9872 133.691 34.9992L133.597 35.0055Z" fill="#543037"/>
<path d="M124.023 120.68C123.989 119.37 124.112 118.06 124.391 116.778C126.009 114.173 128.763 108.594 128.763 108.594L135.383 111.661C133.917 114.876 132.069 117.904 129.881 120.68C128.954 121.512 127.911 122.203 126.783 122.731" fill="#44A2EB"/>
<path d="M125.853 117.807C124.454 120.587 120.507 125.168 120.507 125.168L120.894 130.279C124.009 127.108 126.511 123.391 128.276 119.315L125.853 117.807Z" fill="#FF6551"/>
<path d="M128.719 83.0571C127.12 81.0936 123.51 79.8906 120.269 80.6074C116.44 81.4489 109.833 86.0303 109.833 86.0303L115.785 93.4228C115.785 93.4228 119.02 86.797 123.367 86.2422C127.713 85.6875 130.074 88.1122 132.666 93.8529C132.154 88.8726 129.999 84.6341 128.719 83.0571Z" fill="#4BB2F7"/>
<path d="M131.605 88.8973C131.794 89.7594 131.936 90.6313 132.03 91.509C129.438 85.7807 127.002 83.3498 122.73 83.8921C118.458 84.4343 115.148 91.0727 115.148 91.0727L115.773 93.4226C115.773 93.4226 119.008 86.7967 123.355 86.242C127.702 85.6872 130.062 88.1119 132.654 93.8526C132.481 92.1685 132.129 90.5075 131.605 88.8973Z" fill="#3E8CE1"/>
<path d="M110.296 130.304C109.965 125.411 106.592 102.81 102.933 96.0653C98.7669 88.3798 92.0468 84.0914 83.2221 84.6836C77.3264 85.0763 74.822 87.1768 73.8102 88.5294C74.3321 87.664 74.9433 86.8555 75.6339 86.1172C77.8885 83.705 82.6974 79.2233 85.1644 78.0141L85.5453 77.8396L89.4487 76.5929C93.021 75.8032 96.7265 75.8352 100.284 76.6864L100.597 80.2705C100.882 80.4701 101.206 80.609 101.548 80.6787C101.889 80.7484 102.242 80.7473 102.583 80.6757C103.549 80.4289 104.499 80.1271 105.431 79.7719C105.431 79.7719 105.431 79.5475 105.374 79.1485L106.199 79.0862C114.024 84.0353 118.134 96.3334 118.134 96.3334L123.992 130.404C121.645 133.739 118.245 136.193 114.337 137.372C111.538 138.165 108.646 138.584 105.737 138.619C108.672 137.753 110.627 135.197 110.296 130.304Z" fill="#49B3F7"/>
<path d="M118.133 96.3397C116.834 92.7015 115.095 89.2352 112.955 86.0176C109.145 88.5108 105.111 90.8857 101.332 93.4475C101.914 94.2856 102.447 95.1554 102.931 96.053C106.591 102.797 109.964 125.399 110.295 130.292C110.626 135.185 108.671 137.753 105.735 138.644C108.645 138.609 111.536 138.19 114.335 137.398C118.244 136.218 121.644 133.764 123.991 130.429L118.133 96.3397Z" fill="#3E8CE1"/>
<path d="M102.932 96.0653C106.592 102.81 109.965 125.411 110.296 130.304C110.627 135.197 108.672 137.753 105.737 138.644C103.763 138.709 101.787 138.64 99.8222 138.438C105.324 138.214 106.305 133.869 106.155 130.067C105.986 125.978 103.982 112.028 101.402 102.716C98.8229 93.4038 91.5533 88.2614 82.7473 87.9622C75.2091 87.7004 72.2425 92.1883 71.2557 96.5889C71.4522 94.1914 72.1006 91.8524 73.1668 89.695C73.3667 89.2961 73.5728 88.9159 73.7914 88.5481C74.8031 87.2018 77.3075 85.095 83.2032 84.7023C92.0467 84.0914 98.7667 88.3798 102.932 96.0653Z" fill="#FF6551"/>
<path d="M105.374 79.1611C105.412 79.5351 105.431 79.7844 105.431 79.7844C104.499 80.1397 103.549 80.4414 102.583 80.6882C102.242 80.7599 101.889 80.7609 101.548 80.6912C101.206 80.6215 100.882 80.4826 100.597 80.2831L100.284 78.5689L100.103 76.4871C100.103 76.4871 99.3726 74.2182 101.046 73.6572C101.934 73.3145 102.906 73.2493 103.832 73.4702C104.694 74.6109 105.212 77.4657 105.374 79.1611Z" fill="#49B3F7"/>
<path d="M100.822 71.0579C103.87 72.0989 103.832 73.439 103.832 73.439C102.906 73.2181 101.935 73.2833 101.047 73.626C99.3729 74.187 100.147 77.0168 100.147 77.0168C99.0631 76.6416 98.0175 76.1636 97.0246 75.5894C94.77 74.4051 91.079 74.561 90.1547 74.8913C89.8736 74.991 89.5301 75.1219 89.2054 75.2341C88.3747 75.5146 87.4317 75.7079 86.7572 75.1219C85.8079 74.2929 86.1701 72.8406 86.1701 72.8406C87.0195 69.6679 97.7803 70.0108 100.822 71.0579Z" fill="#FF6551"/>
<path d="M93.5256 105.465C94.1149 105.606 94.6688 105.867 95.1533 106.23C95.6377 106.594 96.0424 107.052 96.3423 107.578C96.3423 114.603 89.3599 114.304 89.3599 114.304C89.3599 114.304 77.2064 113.58 72.7097 113.119C68.4191 112.683 68.163 106.886 68.1443 106.394C68.1457 106.383 68.1457 106.373 68.1443 106.362C68.1495 105.641 68.4247 104.948 68.9157 104.418C69.4068 103.889 70.0783 103.562 70.7986 103.501H71.0109C73.1406 103.664 90.6152 104.873 93.5256 105.465Z" fill="#FF6551"/>
<path d="M89.4482 76.5745L85.5449 77.8216C86.8015 77.2781 88.109 76.8604 89.4482 76.5745Z" fill="#4BB2F7"/>
<path d="M86.1319 72.8408C86.1319 72.8408 85.7697 74.2931 86.719 75.1222C87.3935 75.7081 88.3366 75.5148 89.1672 75.2344L89.4482 76.5745C88.109 76.8603 86.8015 77.2779 85.5449 77.8211C85.3197 76.7955 85.1797 75.7531 85.1264 74.7045C85.1063 74.3317 85.1895 73.9605 85.3668 73.6317C85.5442 73.3029 85.8089 73.0293 86.1319 72.8408Z" fill="#44A2EB"/>
<path d="M73.8101 88.511C73.5791 88.8789 73.3731 89.2593 73.1858 89.6584C73.3316 89.2453 73.5424 88.8579 73.8101 88.511Z" fill="#4BB2F7"/>
<path d="M68.1448 106.394C68.1448 106.911 68.4196 112.683 72.7101 113.119C77.2068 113.581 89.3604 114.304 89.3604 114.304C89.3604 114.304 96.3178 114.603 96.3427 107.578C96.8513 108.399 97.2206 109.298 97.4357 110.24C97.4357 110.24 99.5654 121.902 99.3593 127.693C99.1532 133.483 90.5595 133.234 90.5595 133.234C86.4532 132.798 82.3748 132.132 78.3435 131.239C77.1648 131.002 76.024 130.605 74.9522 130.061C73.6697 129.446 72.5579 128.527 71.714 127.384C70.8702 126.241 70.3201 124.908 70.1121 123.504C70.1121 123.504 68.4008 109.367 68.1635 107.16C68.1391 106.906 68.1329 106.649 68.1448 106.394Z" fill="#4BB2F7"/>
<path d="M68.1452 106.394C68.1271 106.649 68.1271 106.905 68.1452 107.16C68.1951 107.615 68.3075 108.569 68.4511 109.797H68.8195C68.4212 108.704 68.1937 107.556 68.1452 106.394Z" fill="#44A2EB"/>
<path d="M97.429 110.24C97.214 109.299 96.8447 108.399 96.3361 107.578C96.3361 111.231 94.4625 112.901 92.6201 113.668C93.1664 117.161 93.4483 120.691 93.4632 124.227C93.2571 130.018 84.6697 129.756 84.6697 129.756C80.5612 129.33 76.4804 128.671 72.4474 127.78L71.9291 127.655C72.7598 128.659 73.786 129.484 74.9456 130.08C76.0173 130.624 77.1582 131.02 78.3369 131.258C82.3682 132.151 86.4466 132.817 90.5529 133.253C90.5529 133.253 99.1403 133.514 99.3464 127.717C99.5525 121.921 97.429 110.24 97.429 110.24Z" fill="#3E8CE1"/>
<path d="M101.403 102.71C103.982 112.022 105.987 125.972 106.156 130.061C106.305 133.863 105.325 138.208 99.8227 138.432C99.3838 138.457 98.9438 138.457 98.5049 138.432C91.8098 137.971 79.9436 134.443 79.9436 134.443C77.8115 133.627 76.0402 132.081 74.9473 130.08C76.019 130.624 77.1599 131.02 78.3385 131.258C82.3698 132.151 86.4483 132.817 90.5545 133.252C90.5545 133.252 99.142 133.514 99.348 127.717C99.5541 121.921 97.4245 110.264 97.4245 110.264C97.2094 109.323 96.8401 108.424 96.3315 107.603C96.0316 107.077 95.627 106.619 95.1425 106.255C94.6581 105.892 94.1041 105.631 93.5148 105.49C90.6045 104.898 73.1299 103.689 71.0314 103.545V103.47C70.9502 102.155 70.8316 99.986 70.8815 99.2505C70.9383 98.3485 71.0657 97.4524 71.2625 96.5702C72.2493 92.1696 75.2158 87.6817 82.754 87.9435C91.5538 88.2552 98.8297 93.4038 101.403 102.71Z" fill="#49B3F7"/>
<path d="M106.173 130.061C106.004 125.972 104 112.022 101.42 102.71C99.8589 97.069 96.5738 92.9613 92.2582 90.5242C94.2476 92.8811 95.6894 95.6483 96.4801 98.6273C99.0594 107.94 101.064 121.889 101.233 125.978C101.383 129.781 100.402 134.119 94.9 134.35C94.4611 134.374 94.0211 134.374 93.5822 134.35C87.3368 133.938 76.6197 130.84 75.202 130.423C76.3045 132.255 77.9881 133.668 79.986 134.437C79.986 134.437 91.8523 137.965 98.5223 138.407C98.9613 138.432 99.4012 138.432 99.8401 138.407C105.324 138.208 106.304 133.863 106.173 130.061Z" fill="#3E8CE1"/>
<path d="M136.832 123.18C138.402 125.635 139.528 128.346 140.161 131.189C140.296 131.581 140.352 131.996 140.326 132.41C140.301 132.824 140.193 133.229 140.011 133.601L139.386 131.788C139.478 133.353 139.296 134.922 138.849 136.425C138.813 136.619 138.706 136.792 138.549 136.911C138.423 136.964 138.282 136.968 138.153 136.923C138.024 136.878 137.916 136.787 137.85 136.668C137.728 136.423 137.672 136.15 137.688 135.877L137.606 133.714C137.743 134.425 137.692 135.16 137.459 135.846C137.226 136.532 136.818 137.146 136.276 137.628C136.175 137.739 136.05 137.825 135.91 137.881C135.771 137.938 135.62 137.962 135.47 137.952C134.971 137.853 134.846 137.192 134.896 136.706C134.983 135.655 135.283 134.633 135.776 133.701C135.934 133.483 136.007 133.215 135.983 132.947C135.926 132.771 135.82 132.615 135.677 132.498C134.815 131.619 133.728 130.778 133.178 129.668C132.292 127.973 132.854 125.748 133.247 124.015C133.503 122.687 135.976 121.84 136.832 123.18Z" fill="#FFBF94"/>
<path d="M121.381 90.7422C121.381 90.7422 120.5 86.4849 123.735 85.4565C126.97 84.428 128.732 84.989 131.067 87.6318C133.403 90.2747 133.797 106.263 133.797 106.263C133.797 106.263 135.152 111.873 130.243 112.708C125.334 113.543 123.891 107.029 123.891 107.029L121.381 90.7422Z" fill="#243976"/>
<path d="M131.78 127.78L124.723 109.323C124.723 109.323 123.38 104.96 127.795 103.714C128.936 103.314 130.185 103.358 131.296 103.834C132.406 104.311 133.297 105.187 133.791 106.288L138.856 124.763C138.856 124.763 138.862 129.282 131.78 127.78Z" fill="#243976"/>
</svg>
