<svg width="332" height="402" viewBox="0 0 332 402" fill="none" xmlns="http://www.w3.org/2000/svg">
<path d="M187.966 36.623L186.438 38.2212L185.3 39.385L155.509 19.6549C155.509 19.6549 156.548 18.2506 157.892 16.4739C160.306 13.2928 163.713 8.91696 163.927 9.28937C164.255 9.85575 188.004 36.623 188.004 36.623" fill="#864FF1"/>
<path d="M184.155 44.2793C184.561 43.9636 198.288 37.4749 198.939 37.8571C199.59 38.2392 199.705 39.419 199.544 39.5187C199.384 39.6184 185.236 46.1154 184.607 45.5255C184.432 45.39 184.297 45.2029 184.217 44.9865C184.137 44.7701 184.115 44.5333 184.155 44.3042" fill="#864FF1"/>
<g style="mix-blend-mode:multiply" opacity="0.36">
<g style="mix-blend-mode:multiply" opacity="0.36">
<g style="mix-blend-mode:multiply" opacity="0.36">
<path d="M186.703 37.9127L185.555 39.0641L155.509 19.5441C155.509 19.5441 156.557 18.1548 157.913 16.397L186.703 37.9127Z" fill="#2D7F75"/>
</g>
</g>
</g>
<path d="M202.704 46.6642C202.509 47.2446 180.841 56.0764 180.545 55.5822C180.545 55.5822 179.89 54.5704 179.368 53.5351C178.846 52.4998 178.503 51.5977 178.877 51.3938C179.656 50.9781 200.351 42.3268 201.036 42.4758C201.379 42.5464 201.816 43.4405 202.189 44.3974C202.511 45.1104 202.686 45.8815 202.704 46.6642Z" fill="#864FF1"/>
<path d="M180.332 46.118C176.568 47.1895 171.487 46.1715 168.701 43.2401C165.916 40.3087 166.262 35.7393 167.843 32.2491C168.883 30.1214 170.344 28.2349 172.134 26.7077C172.887 26.0495 171.569 23.2864 170.666 24.0824C167.015 27.32 164.576 31.9124 164.809 36.8951C164.88 39.4566 165.708 41.937 167.185 44.0135C168.662 46.0899 170.72 47.666 173.09 48.5366C175.763 49.5352 178.668 49.6952 181.431 48.9958C182.395 48.728 181.364 45.8195 180.302 46.118" fill="#FFC652"/>
<path d="M179.494 39.2452L188.292 30.1179L189.552 31.2853L180.763 40.1572L179.494 39.2452Z" fill="#FFC652"/>
<g style="mix-blend-mode:multiply" opacity="0.36">
<g style="mix-blend-mode:multiply" opacity="0.36">
<g style="mix-blend-mode:multiply" opacity="0.36">
<path d="M202.705 46.8553C202.512 47.4234 181.088 56.0665 180.795 55.5829C180.795 55.5829 180.148 54.5927 179.632 53.5795L179.901 53.4797C182.382 52.597 200.702 46.011 202.197 44.637C202.514 45.3347 202.687 46.0893 202.705 46.8553Z" fill="#2D7F75"/>
</g>
</g>
</g>
<path d="M175.25 25.775C174.784 26.8513 173.928 27.7112 172.854 28.1824C171.78 28.6535 170.568 28.701 169.46 28.3153C168.353 27.9295 167.432 27.1391 166.883 26.1026C166.333 25.0661 166.196 23.8601 166.498 22.7266C166.558 22.5245 166.629 22.326 166.712 22.1321C167.089 21.2447 167.733 20.4968 168.554 19.9923C169.376 19.4879 170.334 19.252 171.295 19.3173C172.257 19.3827 173.174 19.7461 173.92 20.3571C174.665 20.9681 175.202 21.7962 175.456 22.7266C175.739 23.7362 175.666 24.8125 175.25 25.775Z" fill="#FFCD69"/>
<path d="M175.626 22.7863C175.357 23.7401 174.791 24.5872 174.007 25.2085C173.223 25.8297 172.26 26.1938 171.254 26.2494C170.249 26.3051 169.25 26.0495 168.4 25.5187C167.55 24.9879 166.891 24.2085 166.515 23.2903C166.452 23.1197 166.389 22.9569 166.341 22.7863C166.403 22.5807 166.477 22.3788 166.562 22.1815C166.953 21.2785 167.621 20.5176 168.472 20.0043C169.323 19.491 170.316 19.251 171.313 19.3175C172.31 19.384 173.26 19.7538 174.033 20.3754C174.806 20.9971 175.363 21.8397 175.626 22.7863Z" fill="#FFC652"/>
<path d="M184.559 51.4354C183.777 51.7485 182.921 51.8232 182.097 51.6499C181.273 51.4767 180.519 51.0633 179.931 50.4621C179.343 49.8609 178.946 49.099 178.792 48.2728C178.637 47.4466 178.732 46.5931 179.064 45.8206C179.395 45.0481 179.949 44.3911 180.655 43.9329C181.361 43.4747 182.187 43.2359 183.028 43.2467C183.87 43.2574 184.69 43.5173 185.383 43.9934C186.077 44.4695 186.614 45.1403 186.926 45.9211C186.974 46.0321 187.014 46.1461 187.048 46.2622C187.356 47.2791 187.271 48.3744 186.811 49.332C186.35 50.2897 185.546 51.0402 184.559 51.4354Z" fill="#FFCD69"/>
<path d="M186.456 46.333C186.214 47.1961 185.728 47.9567 185.067 48.5098C184.405 49.0628 183.6 49.381 182.764 49.4202C181.927 49.4595 181.1 49.218 180.396 48.7291C179.693 48.2402 179.147 47.528 178.836 46.6909L178.72 46.333C178.963 45.4703 179.45 44.7103 180.112 44.1581C180.774 43.6059 181.578 43.2887 182.415 43.2503C183.252 43.2119 184.079 43.4543 184.782 43.9439C185.485 44.4335 186.03 45.1461 186.341 45.9834C186.386 46.0972 186.425 46.214 186.456 46.333Z" fill="#FFC652"/>
<path d="M316.909 28.6471C316.669 27.1517 316.142 25.7161 315.357 24.4181C313.886 21.7364 311.822 19.4222 309.319 17.6503C307.751 16.6475 306.097 15.785 304.376 15.0728C296.196 11.4458 286.456 12.7577 281.093 20.4747C276.553 27.0265 276.305 37.3828 280.651 44.1121C281.882 46.1671 283.73 47.7865 285.936 48.7423C287.085 49.1468 288.288 49.3808 289.506 49.4368C292.61 49.6529 296.103 49.0433 297.732 46.4503C298.757 44.8143 298.772 42.7693 299.199 40.8863C299.626 39.0034 300.806 36.9815 302.738 36.7809C303.79 36.8017 304.829 37.0244 305.796 37.4368C307.152 37.8294 308.58 37.9041 309.97 37.655C311.36 37.406 312.672 36.84 313.805 36.0014C314.912 35.1368 315.778 34.0051 316.322 32.7139C316.865 31.4227 317.067 30.0148 316.909 28.6239" fill="#C6C6C6"/>
<path d="M301.083 26.8311C301.699 27.056 302.367 27.115 303.015 27.0017C303.664 26.8885 304.268 26.6073 304.762 26.1885C305.275 25.7482 305.664 25.1917 305.896 24.5697C306.128 23.9476 306.195 23.2797 306.09 22.6266C305.997 22.1312 305.813 21.6557 305.546 21.2225C305.422 20.9297 305.276 20.646 305.109 20.3737C304.766 19.7807 304.253 19.2949 303.632 18.9743C303.01 18.6536 302.306 18.5115 301.603 18.565C301.316 18.6152 301.039 18.7033 300.778 18.8267C300.398 18.8755 300.031 18.994 299.697 19.1758C299.607 19.2341 299.544 19.3235 299.521 19.4256C299.498 19.5276 299.516 19.6342 299.573 19.7232C299.295 20.031 299.059 20.3723 298.872 20.7386C297.775 22.9201 298.658 25.9664 301.141 26.8311" fill="#FFC652"/>
<path d="M290.458 30.919C293.929 31.0746 295.352 26.6802 294.087 24.0514C293.417 22.6712 292.221 21.6064 290.759 21.0881C289.272 20.5748 287.541 20.9559 286.908 22.4959C286.889 22.5777 286.889 22.6629 286.908 22.7447C286.692 22.8783 286.493 23.0376 286.316 23.2192C285.926 23.6193 285.632 24.1 285.456 24.6261C285.279 25.1523 285.225 25.7106 285.296 26.2602C285.381 26.8198 285.598 27.3523 285.928 27.8158C286.078 28.0398 286.272 28.2327 286.497 28.3835C286.574 28.6595 286.694 28.9219 286.853 29.1613C287.307 29.6793 287.864 30.1009 288.489 30.4004C289.115 30.6999 289.795 30.8711 290.49 30.9035" fill="#E76166"/>
<path d="M313.741 35.9868C312.611 36.8262 311.301 37.3929 309.914 37.6422C308.527 37.8915 307.101 37.8167 305.748 37.4237C304.782 37.0109 303.746 36.7879 302.696 36.7671C300.767 36.9602 299.598 38.992 299.164 40.877C298.73 42.762 298.722 44.8093 297.7 46.4471C296.073 49.0428 292.549 49.6531 289.489 49.4368C288.274 49.3808 287.073 49.1465 285.926 48.7415C283.725 47.7847 281.88 46.1635 280.651 44.1063C277.553 39.2856 276.779 32.6262 278.266 26.8167C278.687 29.4407 279.63 31.9544 281.039 34.2099C282.269 36.2691 284.117 37.8906 286.321 38.8452C287.466 39.2504 288.664 39.4847 289.877 39.5405C292.975 39.7568 296.461 39.1465 298.087 36.5508C299.117 34.913 299.133 32.8734 299.551 30.9884C299.969 29.1034 301.155 27.0716 303.083 26.8708C304.149 26.8866 305.201 27.1097 306.182 27.5274C307.533 27.9222 308.958 27.9979 310.344 27.7485C311.73 27.4991 313.039 26.9314 314.167 26.0905C314.677 25.6958 315.137 25.2419 315.538 24.7385C316.229 25.9312 316.694 27.2406 316.91 28.6013C317.067 29.9936 316.865 31.403 316.323 32.6957C315.78 33.9883 314.916 35.1212 313.811 35.9868" fill="#B7B7B7"/>
<path d="M288.556 44.8347C289.718 44.8767 290.971 44.5746 291.574 43.3747C291.923 43.0336 292.139 42.5554 292.178 42.0406C292.268 41.4088 292.224 40.7624 292.049 40.1527C291.869 39.545 291.573 38.9873 291.183 38.5169C290.793 38.0466 290.316 37.6746 289.786 37.4258C289.228 37.1924 288.633 37.0855 288.037 37.1115C287.441 37.1374 286.856 37.2956 286.316 37.5768C285.192 38.1138 283.917 38.978 283.743 40.4548C283.419 43.2573 286.489 44.776 288.541 44.8347" fill="#864FF1"/>
<path d="M307.303 20.8658C307.067 20.2702 306.71 19.7262 306.253 19.2658C305.796 18.8054 305.249 18.4379 304.643 18.1848C303.897 17.8751 303.061 17.8306 302.284 18.059C302.271 18.0258 302.252 17.9954 302.227 17.9697C302.201 17.944 302.171 17.9236 302.137 17.9097C301.608 17.7622 301.049 17.7409 300.51 17.8477C299.97 17.9545 299.465 18.1862 299.038 18.5229C298.116 19.1728 297.432 20.0899 297.085 21.1409C296.77 22.1756 296.788 23.2787 297.139 24.3028C297.489 25.327 298.154 26.2234 299.046 26.8723C299.981 27.4965 301.091 27.8308 302.227 27.8308C303.363 27.8308 304.473 27.4965 305.408 26.8723C306.378 26.2161 307.095 25.2667 307.445 24.1736C307.796 23.0805 307.76 21.9057 307.344 20.8343L307.303 20.8658ZM305.115 25.8424C304.415 26.3903 303.561 26.7228 302.663 26.7971C301.766 26.8714 300.866 26.684 300.079 26.2591C299.329 25.8214 298.732 25.1757 298.367 24.406C298.001 23.6362 297.883 22.778 298.029 21.9429C298.22 21.005 298.758 20.1665 299.542 19.5843C299.915 19.3078 300.319 19.0731 300.746 18.8845C300.892 18.8214 301.041 18.7663 301.194 18.7194L301.096 18.8059C300.95 18.971 301.153 19.2698 301.365 19.1676C301.799 18.9618 302.272 18.8426 302.755 18.8169C303.238 18.7912 303.722 18.8595 304.177 19.0179C304.633 19.1763 305.05 19.4215 305.406 19.739C305.761 20.0564 306.047 20.4396 306.246 20.8658C306.661 21.6966 306.777 22.6377 306.575 23.5395C306.373 24.4413 305.865 25.2519 305.131 25.8424" fill="white"/>
<path d="M294.223 28.6256C294.636 28.1456 294.943 27.5879 295.125 26.9874C295.307 26.3869 295.359 25.7564 295.279 25.1353C295.066 23.9273 294.581 22.7802 293.858 21.7763C293.506 21.2988 293.051 20.9026 292.524 20.6156C291.997 20.3287 291.412 20.1582 290.809 20.1161C290.209 20.0611 289.604 20.1485 289.047 20.3709C288.856 20.4632 288.673 20.569 288.499 20.6875C286.379 21.0041 284.728 23.1585 284.529 25.1508C284.394 26.2637 284.63 27.3894 285.202 28.3624C285.773 29.3354 286.651 30.1043 287.705 30.5561C288.865 30.9944 290.142 31.0416 291.332 30.6902C292.523 30.3388 293.557 29.6091 294.271 28.6179L294.223 28.6256ZM285.728 25.8535C285.722 24.8957 286.062 23.9663 286.689 23.228C287.433 22.4765 288.32 21.8732 289.301 21.452C289.384 21.4132 289.452 21.3478 289.491 21.2667C289.79 21.2087 290.093 21.1777 290.397 21.174C291.207 21.1652 291.989 21.4676 292.572 22.0157C293.218 22.763 293.685 23.6416 293.937 24.5871C294.119 25.0551 294.191 25.5568 294.147 26.0553C294.103 26.5538 293.945 27.0363 293.683 27.4673C293.217 28.3308 292.468 29.0188 291.556 29.4228C290.643 29.8269 289.618 29.924 288.642 29.699C287.791 29.4507 287.046 28.9396 286.521 28.2429C285.995 27.5463 285.717 26.7021 285.728 25.838" fill="white"/>
<path d="M291.681 37.7563C290.903 36.9543 289.876 36.4598 288.781 36.3592C288.357 36.3119 287.928 36.3333 287.511 36.4227C285.518 36.2004 283.379 38.193 282.971 40.0982C282.911 40.6632 282.96 41.235 283.116 41.7802C283.271 42.3254 283.531 42.8331 283.879 43.2736C284.473 44.2727 285.392 45.0212 286.472 45.3853C287.603 45.6871 288.789 45.6871 289.919 45.3853C290.465 45.2733 290.98 45.0361 291.424 44.6912C291.869 44.3463 292.233 43.9025 292.489 43.3927C292.93 42.474 293.089 41.4386 292.944 40.4245C292.8 39.4104 292.359 38.4658 291.681 37.7166V37.7563ZM290.289 44.3135C289.414 44.6231 288.481 44.7182 287.565 44.5914C286.615 44.4878 285.743 43.9996 285.141 43.2339C284.509 42.5372 284.11 41.6496 284.002 40.7015C284.072 40.2277 284.237 39.7743 284.488 39.3709C284.738 38.9674 285.068 38.6228 285.457 38.3597C285.946 37.9898 286.461 37.6556 286.995 37.3594C287.593 37.2073 288.214 37.1823 288.822 37.2861C289.429 37.3898 290.009 37.62 290.527 37.9627C291.153 38.4508 291.624 39.1196 291.88 39.8843C292.136 40.6491 292.166 41.4751 291.966 42.2575C291.869 42.7126 291.668 43.1369 291.378 43.4948C291.089 43.8526 290.721 44.1334 290.304 44.3135" fill="white"/>
<path d="M317.577 14.1262L316.941 13.8217L315.646 14.6884C313.977 14.3326 312.395 13.6175 311 12.5879C310.561 12.1286 310.232 11.5668 310.038 10.948C309.446 9.27692 309.364 7.45745 308.957 5.73169C308.551 4.00593 307.677 2.24894 306.138 1.54614L308.787 1.82726C309.527 1.90535 310.319 1.99125 311.081 2.10838C312.188 2.26121 313.274 2.55488 314.314 2.98298C315.203 3.32033 316.014 3.85338 316.693 4.54674C317.371 5.24011 317.902 6.07791 318.251 7.00453C318.894 9.05826 318.199 12.0725 317.585 14.134" fill="#FFC652"/>
<path d="M331.201 36.8827C330.921 37.0378 330.603 37.1153 330.281 37.1071C329.96 37.0989 329.647 37.0052 329.375 36.836C326.993 35.7603 325.238 33.6635 323.912 31.3797C323.722 31.0523 323.539 30.7171 323.364 30.382C322.232 28.1326 321.224 25.8246 320.347 23.4681C319.474 21.2388 318.608 19.0173 317.735 16.7958L318.354 16.5152L318.989 16.2346C321.292 19.3525 323.825 21.8702 326.207 24.8945C328.589 27.9188 330.669 31.2783 331.519 35.0276C331.644 35.3383 331.68 35.6766 331.625 36.0062C331.569 36.3358 331.422 36.6442 331.201 36.8983" fill="#C6C6C6"/>
<path d="M331.206 36.8827C330.929 37.0378 330.615 37.1153 330.297 37.1071C329.979 37.0989 329.67 37.0052 329.401 36.836C327.047 35.7603 325.312 33.6635 324.002 31.3797C324.372 30.796 324.55 30.1122 324.512 29.4232C324.487 27.3374 323.925 25.2926 322.879 23.4837C321.718 21.4493 320.329 19.5318 319.12 17.5207L318.508 16.5152L319.136 16.2346C321.412 19.3525 323.915 21.8702 326.27 24.8945C328.624 27.9188 330.681 31.2783 331.52 35.0276C331.644 35.3383 331.68 35.6766 331.625 36.0062C331.569 36.3358 331.425 36.6442 331.206 36.8983" fill="#B7B7B7"/>
<path d="M311.214 12.2563C310.757 11.8109 310.413 11.2659 310.21 10.6657C309.592 9.04479 309.507 7.27995 309.082 5.60601C308.657 3.93207 307.745 2.22784 306.138 1.54614L308.904 1.81882C309.677 1.89456 310.504 1.97788 311.292 2.0915C311.585 2.13695 312.134 3.17464 312.28 3.41702C312.573 3.90428 312.831 4.4104 313.053 4.93189C315.371 10.4082 312.103 13.0138 311.253 12.2336" fill="#E76166"/>
<path d="M317.579 16.705C317.863 16.9172 318.202 17.0228 318.546 17.006C318.89 16.9891 319.219 16.8506 319.484 16.6116C319.748 16.3726 319.934 16.0461 320.012 15.6817C320.091 15.3174 320.057 14.9353 319.918 14.5933C319.774 14.2652 319.56 13.9795 319.293 13.7604C319.048 13.5287 318.761 13.3556 318.451 13.2523C318.141 13.1491 317.814 13.1181 317.492 13.1612C317.171 13.2131 316.873 13.3726 316.639 13.6175C316.405 13.8625 316.248 14.1806 316.188 14.5276C316.195 14.9518 316.306 15.3665 316.51 15.7278C316.715 16.0891 317.005 16.3838 317.351 16.5808C317.534 16.7489 317.751 16.8687 317.984 16.9308C318.217 16.9929 318.461 16.9957 318.695 16.9388L317.579 16.705Z" fill="#B7B7B7"/>
<path d="M95.8615 42.8014C85.8773 48.9432 75.8701 54.156 65.8858 60.2747L65.6568 60.3822L64.1302 61.0732C56.1611 47.9221 48.9859 36.007 41.0168 22.8559L40.2 21.3665L64.4126 6.54949L71.1222 2.43449L71.3131 2.31934C79.2593 15.4397 95.8615 42.8014 95.8615 42.8014Z" fill="#FFC652"/>
<path d="M42.1639 24.248C41.7824 23.6138 40.7906 23.9035 40.2946 24.2089C39.6246 24.6245 39.1131 25.2627 38.845 26.0176C38.6901 26.3859 38.6278 26.7883 38.6638 27.1877C38.6997 27.5872 38.8329 27.971 39.051 28.3039C39.6303 28.9462 40.4343 29.3264 41.2865 29.361C43.232 29.5332 44.8724 28.2726 46.4212 27.2547C46.7907 27.066 47.1155 26.7965 47.3725 26.465C47.6296 26.1336 47.8127 25.7483 47.9089 25.3364C48.0099 24.4119 47.7583 23.4832 47.207 22.7447C46.6806 21.9617 45.4369 22.7447 45.9786 23.4807C46.3673 23.9362 46.5695 24.528 46.5432 25.1328C46.444 25.7749 45.6963 26.1037 45.2309 26.4404C44.1628 27.2234 43.0184 28.1004 41.6603 28.163C41.1339 28.163 40.287 28.0925 39.9666 27.5758C39.6461 27.059 39.9666 26.3308 40.3099 25.9158C40.6789 25.4838 41.1308 25.1346 41.6374 24.8901C41.7824 24.804 42.3241 24.5064 42.1639 24.248Z" fill="#864FF1"/>
<path d="M45.2607 31.3983C43.7886 31.6529 42.2189 32.7388 42.5687 34.289C42.9509 35.974 44.9435 36.5731 46.5946 36.2511C47.4997 36.0333 48.3541 35.6653 49.1158 35.1652C49.9671 34.71 50.6999 34.0889 51.263 33.3454C51.5105 33.0288 51.6776 32.6651 51.7521 32.2811C51.8265 31.8971 51.8064 31.5026 51.6933 31.1267C51.5801 30.7508 51.3767 30.4031 51.0981 30.1092C50.8196 29.8153 50.4729 29.5828 50.0837 29.4287C49.2216 29.0992 48.7987 30.4397 49.6933 30.7392C50.8889 31.1362 50.2219 32.5815 49.6364 33.1582C48.7839 33.9942 47.7231 34.6265 46.5458 35.0004C45.5535 35.2925 44.1058 35.1877 43.7724 34.0643C43.4389 32.941 44.7646 32.4467 45.5373 32.0124C45.6107 31.9701 45.6655 31.9052 45.6919 31.8292C45.7183 31.7533 45.7145 31.6712 45.6814 31.5975C45.6482 31.5239 45.5877 31.4634 45.5107 31.4269C45.4337 31.3904 45.3451 31.3803 45.2607 31.3983Z" fill="#864FF1"/>
<path d="M50.6728 38.9035C50.2912 38.2699 49.2991 38.5593 48.8031 38.9035C48.1275 39.3123 47.6141 39.9521 47.3531 40.7106C47.1953 41.0765 47.1314 41.4778 47.1675 41.8762C47.2035 42.2746 47.3384 42.657 47.5592 42.9869C47.8447 43.3071 48.1893 43.566 48.5731 43.7486C48.957 43.9312 49.3723 44.034 49.7952 44.0508C51.7411 44.2151 53.3819 42.9556 54.9234 41.9387C55.2946 41.7524 55.6207 41.4838 55.8781 41.1523C56.1355 40.8208 56.3177 40.4348 56.4115 40.0222C56.5154 39.0995 56.2665 38.1714 55.717 37.4329C55.1905 36.6506 53.9466 37.4329 54.4808 38.1682C54.8722 38.622 55.0773 39.2135 55.0531 39.8188C54.9463 40.4602 54.206 40.7966 53.7329 41.133C52.6645 41.9152 51.5198 42.7835 50.1691 42.8461C49.6349 42.8461 48.7955 42.7835 48.4749 42.2673C48.1544 41.751 48.475 41.0156 48.8184 40.601C49.1895 40.1717 49.641 39.8232 50.1462 39.5763C50.2912 39.4902 50.833 39.2008 50.6728 38.9348" fill="#864FF1"/>
<path d="M54.3022 45.316C52.96 45.5787 51.5208 46.6594 51.8415 48.2129C52.1919 49.9016 54.0114 50.4645 55.5251 50.1793C56.3555 49.9626 57.1392 49.5937 57.8367 49.091C58.6184 48.6398 59.2908 48.0195 59.8053 47.2748C60.0338 46.9578 60.1886 46.5932 60.2582 46.2079C60.3277 45.8226 60.3103 45.4265 60.2072 45.0488C60.1041 44.6712 59.9179 44.3217 59.6625 44.0263C59.4071 43.7309 59.0889 43.4971 58.7315 43.3422C57.9411 43.0194 57.5459 44.3553 58.3736 44.6555C59.4697 45.0533 58.8508 46.5018 58.3139 47.0872C57.531 47.9234 56.5589 48.5568 55.4804 48.9334C54.5781 49.2186 53.2433 49.1211 52.9451 47.9953C52.6468 46.8695 53.8473 46.3667 54.5632 45.9314C54.6327 45.8894 54.6848 45.8236 54.7098 45.746C54.7348 45.6683 54.731 45.5843 54.6992 45.5092C54.6674 45.4342 54.6096 45.3733 54.5367 45.3378C54.4637 45.3022 54.3804 45.2945 54.3022 45.316Z" fill="#864FF1"/>
<path d="M58.4036 53.0391C56.9312 53.3015 55.3612 54.3885 55.711 55.9328C56.0933 57.6196 58.0782 58.2193 59.7295 57.897C60.6355 57.6805 61.4903 57.312 62.2513 56.81C63.1041 56.3592 63.8376 55.7396 64.3989 54.9958C64.6481 54.6798 64.817 54.3161 64.8929 53.9317C64.9687 53.5474 64.9497 53.1522 64.8372 52.7755C64.7246 52.3989 64.5215 52.0504 64.2428 51.756C63.9642 51.4616 63.6171 51.2289 63.2275 51.075C62.3652 50.7451 61.934 52.0795 62.837 52.3794C64.0328 52.7767 63.3576 54.2236 62.7719 54.8083C61.9178 55.6436 60.8573 56.2763 59.6807 56.6525C58.6964 56.9374 57.2403 56.8399 56.9149 55.7154C56.5895 54.5909 57.8992 54.0887 58.6801 53.6539C58.7536 53.6115 58.8084 53.5466 58.8348 53.4706C58.8612 53.3945 58.8575 53.3123 58.8243 53.2386C58.7911 53.1648 58.7306 53.1043 58.6536 53.0678C58.5765 53.0313 58.488 53.0211 58.4036 53.0391Z" fill="#864FF1"/>
<path d="M63.0182 51.932C62.8918 51.932 62.757 51.7543 62.6391 51.6978C62.5212 51.6413 62.1758 51.5928 61.9653 51.4959C61.7327 51.3845 61.5544 51.1908 61.468 50.9557C61.3815 50.7207 61.3937 50.4626 61.502 50.236C62.1506 49.1053 63.1866 50.3652 63.7931 50.7933C63.9194 50.8902 64.189 50.8498 64.1637 50.6479C64.1386 50.2483 63.9975 49.8635 63.7564 49.5367C63.5152 49.2099 63.1837 48.9542 62.7992 48.7984C62.4333 48.6814 62.0391 48.6728 61.668 48.7736C61.2969 48.8745 60.9661 49.0801 60.7186 49.3638C59.6152 50.6237 60.845 53.0385 62.6391 52.4893C62.7092 52.47 62.7731 52.434 62.8247 52.3845C62.8763 52.3351 62.9139 52.2738 62.9339 52.2066C62.9372 52.169 62.9505 52.1329 62.9727 52.1018C62.9948 52.0707 63.025 52.0456 63.0603 52.0289C63.0687 52.021 63.0744 52.0109 63.0768 51.9998C63.0791 51.9887 63.078 51.9772 63.0734 51.9668C63.0689 51.9564 63.0612 51.9475 63.0514 51.9413C63.0415 51.9351 63.0299 51.9319 63.0182 51.932Z" fill="#864FF1"/>
<path d="M58.7008 44.1141C58.1676 43.9099 57.109 43.8958 57.3872 43.072C57.6654 42.2481 58.9944 42.4946 59.3267 43.2198C59.3267 43.2832 59.4889 43.3114 59.5044 43.2198C59.5647 42.9215 59.5028 42.6134 59.3305 42.3538C59.1582 42.0943 58.8874 41.9013 58.5694 41.8116C58.2025 41.7089 57.8076 41.7274 57.4543 41.864C57.1009 42.0005 56.8117 42.2462 56.6377 42.5579C56.4593 42.8557 56.3959 43.1994 56.4575 43.5339C56.5192 43.8685 56.7023 44.1744 56.9776 44.4028C57.4722 44.8182 58.4613 45.1069 58.8476 44.4521C58.8653 44.4231 58.8755 44.3908 58.8775 44.3577C58.8794 44.3246 58.8731 44.2916 58.859 44.261C58.8448 44.2305 58.8232 44.2033 58.7958 44.1815C58.7684 44.1597 58.7359 44.1438 58.7008 44.1352" fill="#864FF1"/>
<path d="M54.8059 37.6029C54.214 37.3324 53.2276 36.8244 53.3967 36.0722C53.4466 35.8955 53.5678 35.7438 53.7347 35.6491C53.9016 35.5543 54.1012 35.5239 54.2916 35.5641C54.6706 35.6858 54.9986 35.9168 55.2287 36.2239C55.4119 36.4351 55.6937 36.2239 55.6585 35.993C55.5972 35.6999 55.4432 35.4307 55.2166 35.2205C54.99 35.0103 54.7012 34.8686 54.3877 34.8138C54.0741 34.7591 53.7502 34.7938 53.4579 34.9134C53.1656 35.0331 52.9185 35.2322 52.7484 35.4849C52.6063 35.7511 52.5468 36.0493 52.5767 36.3456C52.6066 36.6419 52.7247 36.9243 52.9176 37.1609C53.1236 37.4151 53.3975 37.6141 53.7116 37.738C54.0257 37.862 54.3691 37.9064 54.7073 37.8669C54.8552 37.8669 54.9398 37.6557 54.7848 37.5831" fill="#864FF1"/>
<path d="M49.4909 29.8964C49.118 29.7588 48.6673 29.8479 48.3798 29.516C48.3 29.4203 48.2403 29.3082 48.2046 29.1869C48.169 29.0657 48.1581 28.938 48.1728 28.8121C48.1874 28.6863 48.2272 28.565 48.2897 28.4561C48.3521 28.3473 48.4357 28.2533 48.5352 28.1802C49.3821 27.5488 50.1669 28.4069 50.7031 29.0303C50.8118 29.1598 51.0139 29.0302 51.0216 28.8845C51.0916 27.0307 48.5896 26.4559 47.5562 27.7755C47.2979 28.123 47.1577 28.5502 47.1577 28.9898C47.1577 29.4294 47.2979 29.8565 47.5562 30.2041C47.784 30.559 48.1372 30.8058 48.5389 30.8907C48.9405 30.9756 49.3581 30.8917 49.7007 30.6574C49.7515 30.601 49.7875 30.5319 49.8055 30.4568C49.8234 30.3818 49.8226 30.3032 49.8031 30.2285C49.7837 30.1539 49.7462 30.0857 49.6942 30.0304C49.6423 29.9751 49.5777 29.9345 49.5065 29.9126" fill="#864FF1"/>
<path d="M46.4857 23.3606C46.1879 22.8384 44.5991 22.4367 45.1949 21.5932C45.4546 21.2156 46.1955 20.7335 46.6461 20.9424C46.9032 21.1456 47.1039 21.4173 47.2274 21.7295C47.351 22.0417 47.3929 22.3829 47.3489 22.7179C47.3387 22.7573 47.3439 22.7993 47.3632 22.8347C47.3826 22.8701 47.4145 22.896 47.452 22.9067C47.4894 22.9173 47.5294 22.9119 47.5631 22.8915C47.5967 22.8712 47.6213 22.8376 47.6315 22.7982C47.8737 22.3794 47.9733 21.8865 47.9141 21.4003C47.7968 20.9948 47.5517 20.6434 47.219 20.4042C46.8391 20.1623 46.3935 20.0603 45.9523 20.1141C45.5112 20.1679 45.0996 20.3745 44.7824 20.7014C44.6092 20.8007 44.457 20.9359 44.3349 21.0988C44.2128 21.2618 44.1234 21.4491 44.0721 21.6494C44.034 22.1163 44.1589 22.5818 44.4234 22.9589C44.8053 23.5614 45.7754 24.3407 46.4323 23.7622C46.481 23.7085 46.5123 23.64 46.5219 23.5665C46.5315 23.4929 46.5189 23.4181 46.4857 23.3525" fill="#864FF1"/>
<g style="mix-blend-mode:multiply">
<g style="mix-blend-mode:multiply">
<g style="mix-blend-mode:multiply">
<path d="M95.9493 42.7274C85.9424 48.8949 75.9126 54.1296 65.9058 60.274L65.6762 60.3819C67.1175 59.1443 68.4964 57.8346 69.8075 56.4579C71.5811 54.598 73.1227 52.5269 74.3978 50.2903C76.4752 46.8794 77.6011 42.9669 77.6569 38.9652C77.6569 34.2393 75.9662 29.6445 74.4437 25.2425C73.5845 22.8672 72.5382 20.5651 71.3147 18.358C70.0676 16.0452 68.6064 13.8634 67.3135 11.5814C66.6632 10.4404 66.0205 9.2686 65.4085 8.1276C65.1101 7.55711 64.7352 6.94036 64.4598 6.30819L71.1846 2.17594L71.3759 2.0603C79.34 15.2357 95.9799 42.712 95.9799 42.712" fill="#FFC652"/>
</g>
</g>
</g>
<path d="M91.0627 47.8998L80.2225 30.3441C76.6142 24.4948 73.1299 18.5617 69.3822 12.8266L66.2231 8.0055C65.6733 7.1677 65.1158 6.33753 64.5429 5.51497C64.2641 5.11892 63.9854 4.75333 63.7143 4.33444C63.5779 4.13275 63.4196 3.94631 63.242 3.77844L63.1491 3.64897C63.0635 3.52648 62.9458 3.42909 62.8084 3.36716L62.669 3.2453C62.6007 3.184 62.5187 3.13919 62.4297 3.11442C62.3407 3.08965 62.247 3.08561 62.1561 3.1026C62.0652 3.1196 61.9796 3.15717 61.906 3.21234C61.8324 3.26751 61.7729 3.33877 61.7321 3.42048C61.508 3.45311 61.2939 3.53371 61.105 3.65658C60.6791 3.89269 60.2377 4.09071 59.8041 4.30397C59.6778 4.38139 59.5861 4.50301 59.5473 4.64433C59.5085 4.78565 59.5256 4.93617 59.5951 5.0656C59.9125 5.59113 60.23 6.11665 60.5939 6.58886C60.7591 6.85867 60.9482 7.11354 61.1592 7.3505C61.3202 7.49231 61.5032 7.608 61.7012 7.69323C61.7346 7.71139 61.7721 7.72089 61.8103 7.72081C61.8484 7.72074 61.8859 7.7111 61.9193 7.6928C61.9526 7.67451 61.9806 7.64817 62.0007 7.61626C62.0208 7.58435 62.0323 7.54793 62.0341 7.51044C62.0361 7.30234 62.01 7.0949 61.9567 6.89352C61.8291 6.61348 61.6843 6.34133 61.5231 6.07857C61.3372 5.72822 61.1359 5.38549 60.9346 5.04275C61.2816 4.89687 61.6051 4.70186 61.8947 4.46391C61.9465 4.63104 62.0112 4.794 62.0883 4.95136C62.2896 5.33979 62.5064 5.71299 62.7232 6.10904C63.1414 6.87067 63.5595 7.6323 64.0008 8.39393L66.5483 12.7352C68.2827 15.7056 70.0688 18.643 71.9065 21.5473C75.5844 27.3586 79.2082 33.2079 82.8396 39.0648L89.034 49.0422L89.096 49.126C88.8792 49.2707 88.3217 49.6591 88.1436 49.6058C87.9655 49.5525 87.741 49.0574 87.6558 48.9203C87.4408 48.5661 87.2469 48.1999 87.0751 47.8236C86.7886 47.1991 85.6891 47.6484 85.9368 48.2958C86.2775 49.1717 86.8118 50.8397 87.9036 51.0224C88.4824 51.0342 89.0514 50.875 89.5373 50.5655C89.8124 50.4655 90.0607 50.3052 90.2633 50.0967C90.466 49.8882 90.6175 49.6369 90.7065 49.3621C90.8297 49.289 90.9366 49.1922 91.0208 49.0775C91.105 48.9628 91.1648 48.8326 91.1966 48.6946C91.2284 48.5567 91.2316 48.4138 91.2059 48.2746C91.1802 48.1354 91.1263 48.0027 91.0472 47.8845" fill="#864FF1"/>
<path d="M73.4651 1.23136C74.3893 3.30718 75.4369 5.32247 76.602 7.26577C77.7255 9.27466 78.9093 11.2525 80.063 13.2381C82.3251 17.1861 84.7154 21.103 87.1057 24.9812C88.463 27.1917 89.8882 29.3402 91.2982 31.512C91.3501 31.5986 91.433 31.6607 91.5289 31.685C91.6249 31.7093 91.7264 31.6939 91.8114 31.642C91.8964 31.5901 91.9583 31.506 91.9836 31.4077C92.0089 31.3094 91.9956 31.2048 91.9467 31.1164C87.5959 23.0344 82.8982 15.1539 78.1779 7.30455C76.9004 5.06303 75.4744 2.91463 73.91 0.874566C73.6838 0.595339 73.352 0.952128 73.4651 1.23136Z" fill="#C6C6C6"/>
<path d="M68.8748 61.0729C71.5847 59.8548 74.1919 58.3985 76.6689 56.7194C79.2599 55.0989 81.7686 53.3372 84.1849 51.4415C84.2257 51.4055 84.2531 51.3554 84.2621 51.3002C84.2711 51.2449 84.2613 51.1881 84.2342 51.1398C84.2072 51.0915 84.1648 51.0548 84.1144 51.0363C84.0641 51.0177 84.0092 51.0186 83.9594 51.0386C81.2577 52.4335 78.6262 53.9736 76.0751 55.6528C73.5192 57.1953 71.0928 58.9636 68.8222 60.9386C68.7771 60.9386 68.8222 61.0729 68.8823 61.0492" fill="#C6C6C6"/>
<path d="M64.9449 13.4592C69.2601 21.6618 73.9758 29.638 79.0743 37.3578C80.4924 39.5722 81.9256 41.7866 83.3213 44.024C83.3813 44.1236 83.5389 44.024 83.4789 43.932C81.1753 39.917 78.9767 35.8253 76.7256 31.8027C74.4745 27.78 72.0808 23.7956 69.6496 19.8572C68.2615 17.6045 66.8208 15.4207 65.32 13.2447C65.3062 13.221 65.288 13.2004 65.2664 13.1839C65.2448 13.1675 65.2202 13.1555 65.1941 13.1488C65.168 13.142 65.1408 13.1406 65.1141 13.1445C65.0875 13.1485 65.0618 13.1578 65.0387 13.1719C65.0155 13.186 64.9953 13.2046 64.9792 13.2266C64.963 13.2487 64.9514 13.2738 64.9447 13.3005C64.9381 13.3271 64.9367 13.3549 64.9406 13.3821C64.9445 13.4094 64.9536 13.4356 64.9674 13.4592" fill="white"/>
<path d="M37.9313 224.904C36.8425 225.605 35.4834 224.518 34.7266 223.786C33.7055 222.853 32.992 221.632 32.6802 220.286C32.5356 219.517 32.5886 218.724 32.8344 217.981C33.0802 217.238 33.5107 216.57 34.0857 216.038C35.5838 214.635 37.9468 213.81 39.9623 214.496L37.9313 224.904Z" fill="#C6C6C6"/>
<path d="M54.1569 220.378C53.5391 218.837 52.4812 217.202 50.8827 216.57C50.7549 216.508 50.6151 216.476 50.4733 216.475C50.3315 216.474 50.1912 216.505 50.0626 216.564C49.9341 216.624 49.8204 216.712 49.7298 216.821C49.6393 216.93 49.5741 217.057 49.539 217.194C48.983 219.029 48.5042 220.895 47.8324 222.691C47.1163 224.441 46.3095 226.152 45.4153 227.818C45.0601 228.543 44.5582 229.452 44.9597 230.223C44.9598 230.276 44.9752 230.327 45.004 230.371C45.0328 230.415 45.0738 230.449 45.1219 230.47C45.7397 231.241 46.9598 231.041 47.7938 230.879C48.293 230.792 48.772 230.614 49.2069 230.354C49.9418 230.187 50.6527 229.928 51.3228 229.583C52.8889 228.795 54.0896 227.434 54.6743 225.783C55.1257 223.978 54.943 222.073 54.1569 220.386" fill="#FFC652"/>
<path d="M56.412 211.32L46.2727 237.902C42.0796 236.553 37.9096 232.305 36.8053 228.049C36.1331 225.41 36.1864 222.638 36.9597 220.026C37.733 217.414 39.1976 215.059 41.1993 213.209C43.0287 211.636 45.239 210.569 47.6101 210.114C49.9812 209.66 52.4303 209.833 54.7131 210.618C55.297 210.807 55.865 211.042 56.412 211.32Z" fill="#C6C6C6"/>
<path d="M56.3569 211.42L46.2486 237.933C42.0554 236.584 37.8854 232.336 36.7812 228.08C36.1089 225.441 36.1622 222.669 36.9355 220.057C37.7088 217.445 39.1735 215.09 41.1751 213.239C42.652 211.956 44.3911 211.009 46.2717 210.464C45.6385 211.967 44.7273 213.347 44.0246 214.835C43.3243 216.339 42.7859 217.913 42.4184 219.53C41.7452 222.391 41.5857 225.349 41.9473 228.265C42.0709 229.198 42.2021 231.673 43.6771 231.295C45.152 230.917 46.0555 229.252 46.766 228.142C48.5266 225.266 49.5537 221.974 50.7197 218.844C51.3607 217.11 51.9707 215.36 52.6426 213.64C53.0098 212.453 53.7353 211.409 54.7198 210.649C55.2998 210.863 55.8625 211.121 56.4033 211.42" fill="#AAAAAA"/>
<path d="M16.1544 249.682C19.5521 255.078 23.7762 259.951 27.6759 264.977C31.5756 270.004 35.5139 275.076 39.2592 280.28C39.7534 280.966 40.8654 280.242 40.3635 279.563C36.5436 274.367 32.6439 269.227 28.6643 264.144C24.7415 259.149 20.9421 253.945 16.4555 249.435C16.3088 249.288 16.0771 249.497 16.1775 249.666" fill="#999999"/>
<path d="M19.2284 248.803C20.8733 251.401 22.8733 253.783 24.6957 256.265C26.5182 258.748 28.3792 261.408 30.2094 263.975C32.0396 266.542 33.9083 269.094 35.9161 271.538C36.8891 272.725 37.8853 273.897 38.9123 275.03C39.8884 276.208 40.9801 277.285 42.1711 278.245C42.7348 278.653 43.7155 278.029 43.1981 277.381C42.2638 276.233 41.1209 275.231 40.1093 274.128C39.0977 273.026 38.032 271.7 37.0204 270.443C35.0512 267.914 33.1593 265.301 31.306 262.734C29.4526 260.166 27.5607 257.514 25.5684 255.024C23.7382 252.711 21.8231 250.352 19.3906 248.656C19.267 248.564 19.128 248.756 19.1975 248.872" fill="#999999"/>
<path d="M15.4842 241.271C16.1947 237.416 16.7352 233.5 17.5152 229.637C17.9064 227.689 18.3054 225.739 18.7121 223.786L19.2913 221.041C19.5386 220.121 19.6913 219.178 19.7469 218.227C19.736 218.106 19.6867 217.992 19.6061 217.901C19.5256 217.81 19.418 217.747 19.2991 217.721C19.1802 217.695 19.0562 217.708 18.945 217.757C18.8339 217.807 18.7415 217.891 18.6812 217.996C18.3681 218.837 18.143 219.707 18.0094 220.594C17.8009 221.558 17.5924 222.522 17.3916 223.485C16.9669 225.49 16.5499 227.494 16.1561 229.499C15.2877 233.344 14.6788 237.244 14.3336 241.171C14.3336 241.826 15.3684 241.942 15.4842 241.271Z" fill="#999999"/>
<path d="M17.3833 241.918C18.0628 241.571 18.1092 240.484 18.2713 239.829C18.5416 238.811 18.781 237.794 18.9972 236.745C19.4374 234.641 19.8467 232.528 20.2482 230.408C21.0204 226.245 21.6923 222.051 22.395 217.865C22.5031 217.225 21.5378 216.994 21.4065 217.641C20.5494 221.789 19.7926 225.968 19.0899 230.138C18.7192 232.266 18.3177 234.378 17.9238 236.499C17.7308 237.478 17.5532 238.464 17.3755 239.459C17.252 240.153 16.7809 241.24 17.252 241.864C17.2599 241.878 17.2704 241.889 17.283 241.899C17.2955 241.908 17.3097 241.914 17.3249 241.918C17.34 241.922 17.3557 241.922 17.3711 241.919C17.3864 241.917 17.4011 241.911 17.4142 241.903" fill="#999999"/>
<path d="M25.237 214.689C26.2806 215.389 27.3721 216.015 28.5035 216.562C29.6618 217.225 30.8202 217.888 31.9322 218.613C33.3376 219.53 34.5886 217.002 33.1137 216.192C31.9285 215.519 30.6976 214.929 29.4302 214.427C28.2438 213.875 26.9769 213.516 25.6772 213.363C25.5313 213.38 25.3933 213.438 25.2794 213.531C25.1656 213.624 25.0806 213.747 25.0343 213.886C24.9881 214.025 24.9827 214.175 25.0186 214.317C25.0545 214.459 25.1302 214.588 25.237 214.689Z" fill="#AAAAAA"/>
<path d="M64.4737 211.127C63.8139 211.431 63.2045 211.834 62.6667 212.322C62.0721 212.769 61.5392 213.309 60.9755 213.802C60.4118 214.296 59.8867 214.766 59.3461 215.267C58.764 215.747 58.245 216.299 57.8017 216.909C57.7739 216.968 57.7637 217.034 57.7724 217.098C57.7811 217.163 57.8082 217.224 57.8506 217.273C57.893 217.323 57.9488 217.359 58.0113 217.378C58.0738 217.397 58.1405 217.397 58.2032 217.379C58.8448 217.053 59.4417 216.647 59.9793 216.169C60.5817 215.691 61.1763 215.205 61.7709 214.72C62.3655 214.234 62.9138 213.833 63.4234 213.332C64.0202 212.864 64.5411 212.308 64.9679 211.682C65.0001 211.613 65.0118 211.536 65.0015 211.46C64.9912 211.384 64.9595 211.313 64.9099 211.254C64.8604 211.196 64.7952 211.153 64.722 211.13C64.6488 211.108 64.5707 211.107 64.4968 211.127" fill="#FFC652"/>
<path d="M66.9439 217.133C65.9117 217.341 64.9189 217.711 64.0017 218.227C63.0056 218.659 61.9862 219.037 60.9128 219.376C60.7715 219.421 60.6539 219.52 60.5858 219.652C60.5178 219.783 60.5048 219.936 60.5499 220.078C60.595 220.219 60.6943 220.336 60.8261 220.404C60.9579 220.472 61.1113 220.485 61.2526 220.44C62.341 220.162 63.4134 219.824 64.465 219.43C65.5036 219.144 66.4591 218.615 67.2528 217.888C67.3163 217.823 67.3586 217.74 67.3744 217.65C67.3901 217.56 67.3785 217.468 67.3411 217.385C67.3036 217.302 67.2421 217.232 67.1644 217.184C67.0867 217.136 66.9964 217.113 66.9053 217.117" fill="#FFC652"/>
<path d="M66.404 227.548C64.6665 226.199 62.373 225.543 60.2648 225.05C59.6393 224.903 59.454 225.821 60.0486 226.006C62.0626 226.766 64.1268 227.387 66.2263 227.864C66.3962 227.864 66.5507 227.663 66.3885 227.548" fill="#FFC652"/>
<path d="M59.7243 235.042C59.3983 234.442 59.0238 233.869 58.6046 233.33C58.2262 232.837 57.8324 232.181 57.1528 232.043C57.0734 232.026 56.9913 232.028 56.9127 232.048C56.834 232.068 56.7609 232.105 56.6986 232.157C56.6363 232.209 56.5864 232.274 56.5528 232.347C56.5191 232.421 56.5025 232.501 56.5042 232.582C56.5996 233.178 56.8681 233.733 57.2764 234.178C57.6393 234.71 57.9637 235.273 58.3189 235.813C58.6741 236.352 58.9521 236.853 59.2687 237.354C59.5821 237.948 59.9276 238.525 60.3035 239.081C60.5429 239.397 61.122 239.282 61.0757 238.835C60.8671 237.488 60.3976 236.194 59.6934 235.026" fill="#FFC652"/>
<path d="M50.6033 235.635C50.6033 236.861 50.6033 238.079 50.75 239.305C50.8967 240.531 51.2134 241.733 51.3215 242.967C51.3215 243.022 51.3434 243.075 51.3825 243.114C51.4216 243.153 51.4747 243.175 51.53 243.175C51.5853 243.175 51.6383 243.153 51.6774 243.114C51.7165 243.075 51.7385 243.022 51.7385 242.967C51.7385 241.733 51.9933 240.508 51.9856 239.274C51.9587 238.045 51.8504 236.819 51.6613 235.604C51.6409 235.475 51.5736 235.358 51.4722 235.275C51.3708 235.192 51.2424 235.15 51.1116 235.156C50.9807 235.161 50.8566 235.215 50.7628 235.306C50.6691 235.398 50.6123 235.52 50.6033 235.651" fill="#FFC652"/>
<path d="M17.0829 217.95C16.1818 217.47 15.4785 216.689 15.096 215.743C14.7134 214.797 14.676 213.748 14.9902 212.777C15.3466 211.822 15.9345 210.97 16.7012 210.298C17.468 209.625 18.3898 209.153 19.3841 208.922C19.8876 208.788 20.4076 208.726 20.9286 208.737C21.6892 208.791 22.4237 209.037 23.0638 209.451C23.7038 209.865 24.2285 210.433 24.5889 211.104C24.97 211.857 25.1767 212.685 25.1935 213.528C25.2103 214.371 25.0369 215.207 24.6861 215.974C24.3353 216.742 23.8162 217.42 23.167 217.959C22.5179 218.499 21.7555 218.886 20.9363 219.091C20.0254 219.277 19.0789 219.173 18.2307 218.792C17.3826 218.412 16.6758 217.775 16.2103 216.971L17.0829 217.95Z" fill="#C6C6C6"/>
<path d="M22.2406 213.54C22.1392 213.277 21.9802 213.04 21.775 212.846C21.5699 212.652 21.3238 212.506 21.055 212.42C20.7862 212.333 20.5014 212.308 20.2214 212.346C19.9415 212.384 19.6736 212.483 19.4374 212.638C19.2172 212.781 19.0357 212.976 18.9091 213.206C18.7825 213.436 18.7146 213.694 18.7115 213.956C18.225 215.136 19.6073 216.215 20.7193 216.092C21.0034 216.054 21.2753 215.953 21.515 215.796C21.7547 215.639 21.9561 215.43 22.1043 215.186C22.2525 214.941 22.3438 214.666 22.3714 214.381C22.399 214.096 22.3622 213.809 22.2638 213.54H22.2406ZM20.2019 214.265C20.2019 214.265 20.2019 214.265 20.2019 214.226V214.265Z" fill="#AAAAAA"/>
<path d="M12.6187 250.522C10.5492 249.589 9.60707 246.914 10.3021 244.756C10.6977 243.688 11.3529 242.735 12.2089 241.983C13.0648 241.23 14.0946 240.702 15.2057 240.446C15.7689 240.292 16.3517 240.222 16.9355 240.238C17.7821 240.297 18.6 240.569 19.313 241.028C20.0259 241.488 20.6107 242.121 21.0128 242.867C21.4373 243.706 21.6674 244.63 21.6861 245.57C21.7049 246.51 21.5118 247.443 21.1211 248.298C20.7304 249.154 20.1521 249.911 19.4289 250.513C18.7058 251.116 17.8563 251.548 16.9432 251.779C15.9267 251.986 14.8708 251.868 13.9253 251.442C12.9799 251.015 12.193 250.303 11.6766 249.404L12.6187 250.522Z" fill="#C6C6C6"/>
<path d="M18.372 245.611C18.2596 245.322 18.0843 245.061 17.8587 244.847C17.633 244.634 17.3627 244.473 17.0671 244.376C16.7716 244.279 16.4583 244.25 16.1497 244.289C15.8412 244.328 15.5452 244.434 15.2831 244.601C15.0438 244.764 14.8482 244.982 14.7135 245.237C14.5788 245.493 14.5092 245.778 14.5109 246.066C13.9626 247.385 15.507 248.58 16.7426 248.448C17.0566 248.403 17.3567 248.289 17.6208 248.114C17.8849 247.938 18.1064 247.706 18.2692 247.434C18.432 247.162 18.5319 246.857 18.5617 246.542C18.5915 246.227 18.5505 245.909 18.4415 245.611H18.372ZM16.1248 246.382C16.1212 246.37 16.1212 246.356 16.1248 246.344V246.382Z" fill="#AAAAAA"/>
<path d="M31.7619 283.202C32.7984 283.1 33.8195 282.878 34.8044 282.539C35.8469 282.254 36.8817 281.953 37.8933 281.653C39.9783 281.067 42.0401 280.404 44.0711 279.772L50.1021 277.921L53.191 276.965C54.2942 276.724 55.354 276.316 56.3339 275.755C56.5414 275.614 56.6975 275.41 56.7788 275.173C56.8601 274.936 56.8621 274.679 56.7847 274.441C56.7072 274.203 56.5543 273.996 56.3491 273.852C56.1439 273.708 55.8974 273.635 55.6466 273.643C54.5849 273.748 53.5443 274.008 52.5578 274.414L49.4689 275.424L43.2911 277.436C41.2911 278.091 39.2833 278.715 37.2987 279.409L34.2098 280.481C33.1559 280.789 32.1403 281.216 31.1827 281.753C31.011 281.832 30.8741 281.971 30.7981 282.143C30.722 282.316 30.7121 282.511 30.7702 282.69C30.8282 282.87 30.9502 283.022 31.1131 283.118C31.2759 283.214 31.4683 283.246 31.6538 283.21" fill="#AAAAAA"/>
<path d="M31.8618 282.462C31.7765 281.721 31.5677 280.999 31.244 280.326C31.0818 280.658 30.9196 280.982 30.7498 281.306C34.8039 280.172 38.8503 278.993 42.8736 277.752L48.727 275.924L51.8159 274.961C52.8029 274.683 53.8186 274.52 54.843 274.475C55.0802 274.459 55.3039 274.359 55.4735 274.193C55.6432 274.026 55.7478 273.805 55.7683 273.569C55.7888 273.332 55.7239 273.096 55.5854 272.903C55.4469 272.71 55.2438 272.573 55.0129 272.517C53.1287 271.97 50.8815 272.941 49.1054 273.519L42.7578 275.57C38.5801 276.919 34.4332 278.353 30.3019 279.833C30.204 279.864 30.1132 279.913 30.0348 279.979C29.9564 280.045 29.892 280.126 29.8452 280.218C29.7985 280.309 29.7704 280.408 29.7627 280.51C29.7549 280.612 29.7675 280.715 29.7999 280.812C30.1011 281.622 30.5335 282.632 31.4679 282.817C31.52 282.827 31.5738 282.826 31.6253 282.813C31.6768 282.799 31.7246 282.775 31.7654 282.741C31.8061 282.707 31.8387 282.664 31.8607 282.616C31.8828 282.568 31.8937 282.515 31.8926 282.462" fill="#AAAAAA"/>
<path d="M46.0086 119.883C46.0471 121.306 45.6512 122.707 44.8735 123.9C44.3273 124.733 43.6116 125.442 42.773 125.981L42.0008 126.498C41.0278 126.151 24.7262 116.761 16.309 112.012C14.1777 110.801 12.5483 109.892 11.807 109.506L11.6294 109.421L13.4518 106.769L13.4981 106.708C14.4557 105.312 15.4519 103.763 15.2897 102.082C19.1508 104.21 42.163 117.763 46.0395 119.883" fill="#FF6551"/>
<g style="mix-blend-mode:multiply" opacity="0.36">
<g style="mix-blend-mode:multiply" opacity="0.36">
<g style="mix-blend-mode:multiply" opacity="0.36">
<path d="M44.8742 123.899C44.328 124.733 43.6123 125.442 42.7737 125.981L41.9629 126.497C40.9976 126.151 24.696 116.76 16.2788 112.011C14.8116 111.117 13.3058 110.285 11.7768 109.506L11.5992 109.421L13.4216 106.769L14.3792 106.06C16.9352 107.648 38.6501 120.137 44.8742 123.899Z" fill="#FF6551"/>
</g>
</g>
</g>
<path d="M15.1905 102.066C15.1905 102.066 16.1712 103.716 14.9434 106.237C14.2885 107.674 13.1332 108.825 11.6923 109.475C10.3873 107.733 8.92005 106.068 7.49144 104.379C6.61883 103.354 5.76167 102.313 4.95856 101.249C6.503 101.373 8.04744 101.434 9.59188 101.511C11.4648 101.586 13.3317 101.772 15.1828 102.066" fill="#FFC652"/>
<path d="M9.59961 101.511C9.65632 102.163 9.47376 102.814 9.08593 103.341C8.69811 103.869 8.13144 104.238 7.49144 104.379C6.61883 103.354 5.76167 102.313 4.95856 101.249C6.503 101.373 8.04744 101.434 9.59188 101.511" fill="#FF6551"/>
<path d="M55.1761 116.051C55.3119 116.924 55.1437 117.816 54.6995 118.58C54.2554 119.343 53.5622 119.931 52.7359 120.245L52.3344 120.392C51.4849 120.045 39.253 113.022 31.052 108.373C27.7855 106.515 25.1599 105.042 24.1561 104.518L24.0016 104.441L25.2294 102.683C25.8704 101.758 26.5268 100.725 26.1021 99.4453C29.9632 101.535 55.1761 116.105 55.1761 116.105" fill="#864FF1"/>
<g style="mix-blend-mode:multiply" opacity="0.36">
<g style="mix-blend-mode:multiply" opacity="0.36">
<g style="mix-blend-mode:multiply" opacity="0.36">
<path d="M54.4425 118.981C54.0051 119.556 53.4133 119.994 52.7359 120.246L52.3344 120.392C51.4849 120.045 39.253 113.022 31.052 108.373C28.8048 106.993 26.4959 105.706 24.1561 104.518L24.0016 104.441L25.2294 102.683L26.0017 102.275C28.3183 103.616 47.0678 114.61 54.4966 118.997" fill="#2D7F75"/>
</g>
</g>
</g>
<path d="M26.0238 99.3683C26.3635 99.7974 26.5855 100.307 26.6681 100.848C26.7507 101.389 26.691 101.941 26.4949 102.452C26.2823 102.959 25.9501 103.408 25.5266 103.76C25.1031 104.111 24.6008 104.356 24.0624 104.472C22.5797 102.999 20.9735 101.565 19.3827 100.116C18.4097 99.2295 17.4522 98.3429 16.5487 97.4409C18.0004 97.7339 19.4136 97.9806 20.8268 98.2119C22.5488 98.5202 24.2554 98.8517 26.0238 99.3374" fill="#FFC652"/>
<path d="M20.8268 98.2426C20.9129 98.4645 20.9404 98.7048 20.9066 98.9404C20.8728 99.1761 20.7789 99.399 20.6339 99.588C20.4889 99.7769 20.2976 99.9254 20.0785 100.019C19.8594 100.113 19.6198 100.149 19.3827 100.124C18.4097 99.2371 17.4522 98.3505 16.5487 97.4485C18.0004 97.7414 19.4136 97.9881 20.8268 98.2194" fill="#864FF1"/>
<path d="M12.7814 66.6574C12.5024 65.4723 11.82 64.4205 10.8508 63.6816C10.4117 63.2685 9.8732 62.9755 9.28743 62.831C8.70166 62.6865 8.08844 62.6953 7.5071 62.8567C6.37942 63.3463 5.4607 64.2171 4.91244 65.316C4.86706 65.3963 4.84007 65.4857 4.83339 65.5777C4.82671 65.6696 4.84052 65.7619 4.87383 65.848C4.61805 66.5654 4.54553 67.3352 4.66284 68.0877C4.78015 68.8402 5.08359 69.5516 5.54567 70.1575C7.15961 72.2545 9.97049 71.5298 11.6462 69.9031C12.101 69.5067 12.4447 68.9991 12.6437 68.4301C12.8427 67.8611 12.8901 67.2503 12.7814 66.6574ZM10.9203 68.8238C9.92415 69.9108 8.00905 70.8591 6.75805 69.5947C6.28326 69.0911 5.98517 68.4472 5.90861 67.7599C5.81595 67.174 5.81594 66.1332 6.4955 65.8711C6.59118 65.8317 6.67684 65.7715 6.74623 65.6949C6.81563 65.6182 6.86699 65.5271 6.8966 65.4281C6.9262 65.3291 6.93329 65.2247 6.91733 65.1226C6.90138 65.0206 6.86278 64.9233 6.80438 64.838C7.03652 64.6028 7.29573 64.3957 7.5766 64.2213C7.9462 64.025 8.36786 63.9485 8.78302 64.0023C9.19817 64.0562 9.58622 64.2378 9.89326 64.5219C11.2755 65.4856 12.2099 67.3975 10.9203 68.8007" fill="#49B3F7"/>
<path d="M9.90041 55.07C9.80617 55.0518 9.70878 55.0586 9.61798 55.0897C9.52719 55.1208 9.44617 55.1752 9.38303 55.2474C9.07423 55.555 8.83295 55.9234 8.67455 56.3292C8.51616 56.735 8.44411 57.1692 8.463 57.6043C8.48189 58.0394 8.59129 58.4658 8.78426 58.8564C8.97722 59.247 9.24951 59.5932 9.5838 59.873C11.0279 61.0371 13.3213 60.6439 14.6418 59.449C17.7925 56.6119 12.4333 52.3024 9.90041 55.0315V55.07ZM13.5067 58.7243C13.0695 59.0601 12.5414 59.2573 11.9907 59.2903C11.44 59.3233 10.8921 59.1906 10.4178 58.9093C10.0363 58.6263 9.78188 58.2046 9.70961 57.7357C9.63734 57.2667 9.75306 56.7882 10.0317 56.4038C10.1514 56.4229 10.2741 56.406 10.3841 56.3552C10.4942 56.3044 10.5865 56.222 10.6495 56.1185C12.0086 54.0293 15.9546 57.0437 13.499 58.7243" fill="#49B3F7"/>
<path d="M4.1395 57.5682C4.00562 57.0026 3.67898 56.5011 3.21551 56.1495C2.75203 55.7979 2.18056 55.6181 1.5989 55.6408C0.540963 55.7411 -0.501543 57.0208 0.262955 58.0076C0.344013 58.1185 0.457232 58.202 0.587298 58.2466C0.811242 59.2257 1.35951 60.1585 2.5024 60.1277C3.64529 60.0969 4.38661 58.6552 4.1395 57.5682ZM2.39429 58.8479C1.79196 58.7786 1.76107 57.7609 1.73018 57.3061C1.72668 57.1693 1.67469 57.0381 1.58346 56.936C1.7148 56.8905 1.85519 56.8773 1.99273 56.8975C2.22001 56.9639 2.42489 57.0909 2.58541 57.2647C2.74594 57.4386 2.85605 57.6527 2.90396 57.8843C2.97346 58.2158 2.84218 58.8711 2.39429 58.8248" fill="#49B3F7"/>
<path d="M234.206 37.9047C232.057 36.4574 228.832 36.8535 227.68 39.3673C227.62 39.519 227.62 39.6879 227.68 39.8396C227.172 40.5708 226.847 41.4124 226.733 42.2938C226.62 43.1751 226.721 44.0707 227.028 44.9054C227.461 45.8812 228.198 46.6934 229.131 47.2227C230.064 47.752 231.143 47.9704 232.21 47.8458C233.292 47.6809 234.298 47.1921 235.092 46.4447C235.887 45.6973 236.432 44.727 236.655 43.6637C236.851 42.5747 236.728 41.4528 236.299 40.4317C235.87 39.4106 235.154 38.5334 234.237 37.9047H234.206ZM234.345 45.4234C233.993 45.7922 233.569 46.086 233.099 46.2868C232.629 46.4876 232.123 46.5912 231.611 46.5912C231.1 46.5912 230.593 46.4876 230.123 46.2868C229.653 46.086 229.23 45.7922 228.878 45.4234C227.105 43.5494 228.149 40.9213 229.646 39.253C229.708 39.186 229.755 39.1062 229.783 39.0194C229.81 38.9325 229.819 38.8407 229.807 38.7503C231.174 37.859 233.216 38.3389 234.368 39.6568C235.079 40.4473 235.47 41.4722 235.462 42.5322C235.455 43.5922 235.051 44.6118 234.329 45.3929" fill="#49B3F7"/>
<path d="M245.188 48.7824C244.825 48.4284 244.379 48.1661 243.889 48.018C243.399 47.8699 242.88 47.8404 242.376 47.932C241.691 48.1251 241.072 48.4987 240.588 49.0123C240.518 48.9681 240.439 48.9384 240.357 48.925C240.274 48.9115 240.19 48.9145 240.109 48.9339C240.028 48.9532 239.952 48.9884 239.885 49.0375C239.818 49.0865 239.762 49.1483 239.721 49.2191C239.157 50.1028 238.948 51.1603 239.134 52.1865C239.32 53.2128 239.889 54.1347 240.728 54.7735C241.502 55.3806 242.485 55.6724 243.472 55.5882C244.46 55.5041 245.376 55.0505 246.032 54.3214C247.422 52.5977 246.813 50.1384 245.188 48.7824ZM245.009 53.5477C244.542 54.0327 243.898 54.3175 243.218 54.3405C242.538 54.3634 241.877 54.1226 241.377 53.6702C240.968 53.3295 240.663 52.8842 240.496 52.3839C240.329 51.8835 240.307 51.3476 240.432 50.8356C240.507 50.8281 240.581 50.8059 240.648 50.7704C240.715 50.7349 240.774 50.6868 240.822 50.6288C241.767 49.5485 242.908 48.5373 244.282 49.6788C245.391 50.5981 246.016 52.3219 245.009 53.5477Z" fill="#49B3F7"/>
<path d="M233.731 54.1517C233.367 53.6803 232.879 53.3192 232.321 53.1089C231.762 52.8987 231.157 52.8475 230.571 52.9611C230.529 52.8378 230.451 52.7299 230.346 52.6512C230.242 52.5725 230.117 52.5267 229.986 52.5196C227.466 52.354 227.016 55.5552 227.837 57.3135C228.035 57.7713 228.326 58.1826 228.693 58.5207C229.06 58.8587 229.495 59.116 229.968 59.2759C230.441 59.4357 230.942 59.4946 231.44 59.4485C231.937 59.4025 232.419 59.2526 232.854 59.0087C233.25 58.7628 233.589 58.437 233.851 58.0522C234.113 57.6674 234.29 57.2321 234.373 56.7744C234.456 56.3168 234.441 55.847 234.331 55.3952C234.22 54.9435 234.016 54.5199 233.731 54.1517ZM232.42 57.7235C232.173 57.9125 231.89 58.0469 231.587 58.1178C231.284 58.1887 230.97 58.1946 230.665 58.1349C230.36 58.0752 230.072 57.9514 229.818 57.7717C229.565 57.592 229.353 57.3606 229.196 57.0927C228.83 56.4354 228.68 55.6793 228.77 54.9323C228.884 55.0237 229.029 55.0688 229.176 55.0586C229.322 55.0483 229.459 54.9836 229.56 54.8771C229.746 54.6719 229.971 54.5061 230.223 54.3895C230.474 54.2729 230.746 54.2079 231.023 54.1984C231.3 54.1888 231.577 54.2349 231.836 54.3339C232.094 54.4329 232.331 54.5827 232.53 54.7746C232.724 54.973 232.875 55.209 232.973 55.468C233.071 55.7269 233.115 56.0033 233.102 56.2799C233.088 56.5565 233.018 56.8274 232.895 57.0757C232.773 57.3241 232.6 57.5446 232.388 57.7235" fill="#49B3F7"/>
<path d="M38.8881 85.7771C38.8074 85.7415 38.7364 85.6859 38.6787 85.6132C38.0547 84.7968 37.4422 83.9685 36.8237 83.1543C34.4402 79.953 32.189 76.9331 29.369 74.4343C29.3029 74.3761 29.2498 74.3001 29.2126 74.2106C29.1755 74.1211 29.155 74.0199 29.1524 73.9127C29.1498 73.8055 29.1651 73.6944 29.1975 73.5859C29.2299 73.4773 29.2786 73.3733 29.341 73.2799C29.4034 73.1864 29.4782 73.1054 29.5612 73.0414C29.6441 72.9773 29.7335 72.9315 29.8244 72.9066C29.9152 72.8817 30.0057 72.8781 30.0906 72.8961C30.1755 72.9141 30.2532 72.9533 30.3193 73.0115C33.1158 75.6557 35.6712 78.6324 37.9582 81.9099L39.8025 84.3642C39.8967 84.4926 39.9447 84.6657 39.9386 84.8549C39.9324 85.0442 39.8725 85.2383 39.7687 85.4051C39.6649 85.5719 39.5234 85.7016 39.3676 85.7726C39.2119 85.8436 39.0511 85.8517 38.9119 85.7956L38.8881 85.7771Z" fill="#49B3F7"/>
<path d="M36.5836 386.258L30.6143 380.623C30.5243 380.54 30.4118 380.485 30.2907 380.465C30.1696 380.445 30.0454 380.461 29.9335 380.511C29.8216 380.561 29.7269 380.643 29.6612 380.747C29.5955 380.85 29.5618 380.971 29.5641 381.093L29.7958 388.193L25.0234 391.524C24.9271 391.591 24.852 391.685 24.8065 391.793C24.7611 391.902 24.7472 392.021 24.7666 392.137C24.786 392.253 24.8377 392.361 24.916 392.449C24.9942 392.537 25.0957 392.601 25.2088 392.634L30.3286 394.076L32.1588 401.523C32.1874 401.641 32.2497 401.748 32.3382 401.831C32.4267 401.914 32.5374 401.969 32.657 401.99C32.7765 402.012 32.8996 401.998 33.0114 401.95C33.1231 401.903 33.2186 401.824 33.2862 401.723L36.962 396.219L44.329 396.034C44.4548 396.03 44.5766 395.989 44.6785 395.915C44.7804 395.842 44.8577 395.739 44.9002 395.621C44.9428 395.502 44.9486 395.374 44.9169 395.252C44.8853 395.131 44.8176 395.022 44.7228 394.939L40.4215 391.169L43.8733 385.11C43.9339 385.001 43.9606 384.877 43.9501 384.753C43.9396 384.629 43.8924 384.512 43.8145 384.415C43.7365 384.318 43.6314 384.246 43.5126 384.209C43.3938 384.173 43.2667 384.172 43.1475 384.208L36.5836 386.258Z" fill="#FF6551"/>
<path d="M64.182 389.396L62.4831 386.312C62.4253 386.207 62.3385 386.121 62.233 386.064C62.1275 386.006 62.0078 385.981 61.8882 385.99C61.7685 385.999 61.654 386.042 61.5582 386.114C61.4624 386.186 61.3894 386.284 61.3479 386.397L60.0969 389.735L56.8381 390.459C56.7156 390.487 56.6041 390.551 56.5184 390.642C56.4326 390.734 56.3765 390.849 56.3574 390.973C56.3382 391.097 56.3569 391.224 56.4109 391.337C56.465 391.451 56.552 391.545 56.6605 391.608L59.2011 393.104L58.5834 396.627C58.5625 396.748 58.5776 396.871 58.6267 396.984C58.6758 397.096 58.7568 397.191 58.8596 397.257C58.9624 397.324 59.0825 397.359 59.205 397.358C59.3275 397.357 59.447 397.32 59.5486 397.251L62.1356 395.517L65.5411 396.812C65.6539 396.848 65.7747 396.851 65.8894 396.822C66.0041 396.792 66.1079 396.73 66.1888 396.644C66.2697 396.557 66.3244 396.45 66.3464 396.333C66.3685 396.217 66.357 396.097 66.3133 395.987L65.0546 393.034L67.8114 390.822C67.909 390.744 67.9811 390.639 68.0184 390.52C68.0557 390.401 68.0566 390.274 68.0209 390.155C67.9852 390.035 67.9146 389.929 67.8181 389.85C67.7215 389.772 67.6036 389.723 67.4793 389.712L64.182 389.396Z" fill="#864FF1"/>
<path d="M56.7684 367.27L55.278 361.873C55.2462 361.758 55.1821 361.655 55.0934 361.575C55.0047 361.496 54.895 361.443 54.7773 361.424C54.6596 361.404 54.5388 361.419 54.4291 361.466C54.3194 361.512 54.2255 361.59 54.1583 361.688L50.9999 366.375L45.5944 366.298C45.4697 366.298 45.3476 366.334 45.2439 366.403C45.1401 366.472 45.0594 366.571 45.0121 366.686C44.9648 366.801 44.953 366.928 44.9783 367.05C45.0037 367.171 45.0649 367.283 45.1542 367.37L48.6601 370.747L46.3434 376.004C46.2976 376.115 46.2845 376.236 46.3055 376.354C46.3266 376.471 46.381 376.58 46.4623 376.668C46.5436 376.755 46.6483 376.818 46.7641 376.848C46.8799 376.878 47.0019 376.874 47.1156 376.837L51.8648 375.064L56.6757 378.348C56.7781 378.415 56.8977 378.451 57.02 378.452C57.1424 378.452 57.2623 378.417 57.3652 378.351C57.4681 378.285 57.5497 378.191 57.6 378.079C57.6503 377.968 57.6672 377.844 57.6487 377.724L56.7915 372.597L61.9345 370.168C62.0473 370.115 62.1414 370.029 62.2049 369.922C62.2684 369.815 62.2984 369.691 62.2909 369.567C62.2834 369.442 62.2389 369.323 62.163 369.224C62.0871 369.126 61.9834 369.052 61.865 369.012L56.7684 367.27Z" fill="#FFC652"/>
<path d="M25.8246 68.0864C25.627 68.0561 25.4415 67.9842 25.2989 67.8824C25.1562 67.7807 25.0649 67.6553 25.04 67.527C24.3747 64.0928 24.3025 60.6775 24.8248 57.3451C24.9244 56.7154 25.0248 56.0807 25.1848 55.4706C25.2236 55.3285 25.3489 55.2098 25.5346 55.1394C25.7203 55.069 25.952 55.0522 26.1811 55.0927C26.4107 55.1368 26.6171 55.2359 26.7552 55.3684C26.8934 55.5008 26.9521 55.6559 26.9185 55.7998C26.7771 56.3929 26.6643 57.0056 26.567 57.6207C26.0583 60.8693 26.1281 64.1985 26.7751 67.5462C26.7904 67.6206 26.783 67.6941 26.7533 67.7624C26.7235 67.8307 26.6721 67.8924 26.602 67.9441C26.5318 67.9958 26.4443 68.0364 26.3445 68.0636C26.2447 68.0908 26.1346 68.104 26.0205 68.1024C25.9554 68.097 25.8904 68.0867 25.8269 68.0718L25.8246 68.0864ZM28.0357 50.5423C27.9759 50.5377 27.916 50.5283 27.8577 50.5141C27.6356 50.4478 27.4508 50.3304 27.3438 50.1877C27.2369 50.0451 27.2166 49.8889 27.2875 49.7534C29.428 45.6535 32.6792 42.4598 36.946 40.2724C37.1173 40.1972 37.3366 40.1716 37.5593 40.2008C37.782 40.23 37.9916 40.3118 38.1455 40.4297C38.2994 40.5475 38.3861 40.6926 38.3882 40.8355C38.3903 40.9785 38.3075 41.1086 38.1566 41.1995C34.1042 43.2857 30.9954 46.3317 28.9547 50.2523C28.8942 50.3689 28.7696 50.4625 28.6019 50.5171C28.4342 50.5717 28.2337 50.584 28.0342 50.552" fill="#49B3F7"/>
<path d="M36.3248 205.129C36.1711 205.252 35.98 205.319 35.783 205.318C35.5861 205.318 35.3951 205.251 35.2417 205.128C31.1357 201.828 27.4133 198.08 24.1443 193.952C23.5271 193.172 22.9051 192.385 22.346 191.578C22.2167 191.389 22.1657 191.157 22.2036 190.932C22.2415 190.706 22.3654 190.504 22.5494 190.367C22.7375 190.234 22.9706 190.181 23.1979 190.219C23.4252 190.257 23.6282 190.383 23.7626 190.57C24.3147 191.343 24.9055 192.115 25.5083 192.878C28.6953 196.901 32.3235 200.556 36.3253 203.773C36.4147 203.844 36.4893 203.932 36.5446 204.031C36.6 204.131 36.635 204.241 36.6477 204.354C36.6604 204.467 36.6506 204.582 36.6187 204.691C36.5868 204.801 36.5335 204.903 36.462 204.991C36.4163 205.037 36.3654 205.077 36.3104 205.111L36.3248 205.129ZM18.7848 183.826C18.7432 183.868 18.6964 183.905 18.6454 183.936C18.4379 184.038 18.1982 184.054 17.9791 183.979C17.76 183.905 17.5793 183.747 17.4769 183.54C14.3726 177.274 12.9247 171.138 13.1826 165.317C13.2066 165.097 13.3133 164.895 13.4812 164.751C13.6491 164.607 13.8655 164.532 14.0867 164.541C14.308 164.55 14.5174 164.643 14.6726 164.801C14.8278 164.959 14.9171 165.169 14.9226 165.39C14.6871 170.928 16.0632 176.787 19.0354 182.774C19.124 182.952 19.1484 183.155 19.1045 183.349C19.0606 183.543 18.9511 183.715 18.7944 183.838" fill="#49B3F7"/>
<path d="M26.3281 126.138C26.333 126.192 26.3302 126.246 26.3199 126.3C25.8322 128.272 25.2166 130.21 24.4768 132.102C24.4358 132.208 24.3744 132.305 24.2959 132.387C24.2175 132.469 24.1237 132.535 24.0197 132.581C23.8097 132.674 23.5714 132.68 23.3572 132.597C23.143 132.515 22.9704 132.351 22.8774 132.141C22.7844 131.932 22.7786 131.694 22.8613 131.48C23.5889 129.658 24.2008 127.792 24.6934 125.893C24.7287 125.668 24.8514 125.467 25.0348 125.332C25.2181 125.197 25.4474 125.14 25.6728 125.172C25.8982 125.205 26.1015 125.325 26.2387 125.507C26.3758 125.688 26.4357 125.917 26.4053 126.142L26.3281 126.138ZM20.8483 140.307C20.8408 140.418 20.8143 140.526 20.77 140.627C18.3451 145.86 16.2778 150.602 15.5347 155.612C15.4259 156.378 15.3249 157.145 15.2393 157.912C15.2143 158.14 15.0996 158.349 14.9204 158.492C14.7412 158.636 14.5122 158.703 14.2838 158.678C14.0553 158.653 13.8461 158.538 13.7023 158.359C13.5584 158.181 13.4916 157.952 13.5166 157.724C13.6022 156.957 13.6955 156.19 13.8119 155.424C14.5903 150.177 16.7102 145.314 19.1878 139.96C19.2686 139.772 19.4138 139.619 19.5974 139.528C19.781 139.437 19.9911 139.413 20.1902 139.463C20.3893 139.512 20.5644 139.63 20.6844 139.796C20.8043 139.962 20.8613 140.165 20.8451 140.369L20.8483 140.307Z" fill="#49B3F7"/>
<path d="M192.307 23.4924C192.215 23.3118 192.185 23.1053 192.222 22.907C192.259 22.7087 192.361 22.5305 192.51 22.4019C196.51 18.9606 200.88 16.0001 205.536 13.576C206.417 13.1186 207.304 12.6577 208.2 12.2642C208.409 12.1738 208.646 12.1711 208.86 12.2568C209.074 12.3424 209.25 12.5097 209.349 12.7237C209.445 12.9411 209.453 13.1871 209.374 13.408C209.294 13.6289 209.132 13.8068 208.924 13.9028C208.063 14.2963 207.196 14.7288 206.336 15.1756C201.797 17.539 197.537 20.4245 193.636 23.778C193.55 23.8532 193.45 23.9099 193.342 23.9446C193.234 23.9794 193.12 23.9917 193.007 23.9806C192.894 23.9696 192.783 23.9356 192.682 23.8805C192.58 23.8253 192.49 23.7503 192.416 23.6595C192.38 23.6039 192.351 23.5443 192.328 23.4818L192.307 23.4924ZM216.465 10.308C216.431 10.2572 216.404 10.2023 216.384 10.1445C216.322 9.91407 216.351 9.66941 216.465 9.46434C216.578 9.25926 216.767 9.11054 216.989 9.05088C223.712 7.2423 229.999 7.07465 235.659 8.55838C235.87 8.62872 236.049 8.77877 236.159 8.97813C236.269 9.17748 236.302 9.41124 236.252 9.63205C236.201 9.85287 236.071 10.0442 235.888 10.1674C235.704 10.2905 235.481 10.3362 235.263 10.2953C229.877 8.89354 223.875 9.04727 217.45 10.7815C217.259 10.8334 217.055 10.8153 216.873 10.7303C216.692 10.6453 216.543 10.4987 216.452 10.3151" fill="#49B3F7"/>
<path d="M270.971 29.7441C270.917 29.7386 270.864 29.7252 270.814 29.7043C268.98 28.8209 267.205 27.8124 265.499 26.6853C265.403 26.6227 265.321 26.5408 265.256 26.4443C265.191 26.3478 265.145 26.2385 265.121 26.1228C265.072 25.889 265.114 25.6429 265.237 25.4388C265.361 25.2346 265.556 25.0891 265.779 25.0341C266.003 24.9791 266.237 25.0193 266.43 25.1457C268.07 26.2467 269.775 27.2373 271.537 28.1116C271.749 28.1914 271.922 28.3566 272.018 28.5712C272.114 28.7857 272.124 29.0325 272.047 29.2578C271.97 29.483 271.812 29.6687 271.607 29.7745C271.402 29.8802 271.166 29.8975 270.952 29.8226L270.971 29.7441ZM258.187 21.3659C258.08 21.3368 257.979 21.2886 257.889 21.2234C253.247 17.717 249.015 14.6733 244.258 12.9385C243.529 12.6783 242.798 12.4258 242.064 12.1891C241.845 12.1192 241.664 11.9609 241.559 11.7489C241.454 11.5369 241.434 11.2886 241.504 11.0587C241.574 10.8287 241.728 10.6359 241.932 10.5227C242.135 10.4095 242.373 10.3852 242.591 10.4551C243.325 10.6918 244.058 10.9364 244.785 11.2045C249.768 13.0216 254.108 16.1427 258.857 19.7266C259.025 19.8462 259.146 20.0251 259.199 20.2314C259.252 20.4378 259.233 20.6582 259.145 20.8533C259.057 21.0484 258.907 21.2055 258.72 21.2966C258.534 21.3877 258.324 21.4069 258.127 21.3507L258.187 21.3659Z" fill="#49B3F7"/>
<path d="M42.1416 92.1578C42.1586 92.2091 42.1679 92.2628 42.1692 92.317C42.1124 94.352 41.9175 96.3846 41.5858 98.402C41.5677 98.5148 41.5266 98.6236 41.465 98.7222C41.4034 98.8208 41.3224 98.9073 41.2267 98.9768C41.0334 99.1171 40.7918 99.1795 40.555 99.1502C40.3182 99.1209 40.1056 99.0024 39.964 98.8207C39.8225 98.6389 39.7635 98.4089 39.8001 98.1812C40.135 96.2349 40.3422 94.2735 40.4204 92.3085C40.4063 92.0816 40.4864 91.8562 40.6432 91.6814C40.8 91.5065 41.0209 91.3961 41.258 91.3744C41.4951 91.3526 41.7292 91.4211 41.9095 91.5651C42.0898 91.709 42.2018 91.9168 42.2211 92.1432L42.1416 92.1578Z" fill="#49B3F7"/>
<path d="M43.6932 352.986C43.691 354.25 43.8048 355.512 44.0331 356.755C44.0525 356.868 44.0943 356.975 44.1561 357.071C44.2178 357.167 44.2981 357.25 44.3924 357.315C44.4867 357.38 44.593 357.425 44.7051 357.448C44.8171 357.471 44.9327 357.471 45.0449 357.449C45.1571 357.429 45.2642 357.386 45.36 357.324C45.4558 357.262 45.5384 357.182 45.603 357.088C45.6676 356.995 45.713 356.889 45.7365 356.777C45.76 356.666 45.7612 356.551 45.74 356.439C45.5338 355.3 45.4304 354.144 45.4311 352.986C45.4311 348.361 46.8908 343.86 48.6595 338.85C48.6976 338.742 48.7141 338.629 48.708 338.515C48.702 338.401 48.6737 338.29 48.6245 338.187C48.5754 338.085 48.5065 337.992 48.4217 337.916C48.3369 337.84 48.238 337.781 48.1305 337.744C48.0229 337.706 47.909 337.689 47.7951 337.695C47.6812 337.701 47.5696 337.729 47.4667 337.778C47.3638 337.827 47.2716 337.896 47.1953 337.981C47.119 338.065 47.0602 338.164 47.0221 338.271C45.1993 343.444 43.6932 348.115 43.6932 352.986ZM49.988 329.816C49.9899 329.999 50.0489 330.177 50.1569 330.324C50.2649 330.472 50.4165 330.583 50.5904 330.641C50.8096 330.711 51.0479 330.693 51.2534 330.589C51.4588 330.485 51.6148 330.304 51.6872 330.086C53.3169 325.114 55.2632 318.524 55.8425 311.895C55.8621 311.669 55.7922 311.444 55.648 311.268C55.5037 311.092 55.2963 310.98 55.0701 310.954C54.8438 310.933 54.6182 311.002 54.4429 311.147C54.2676 311.291 54.1571 311.499 54.1356 311.725C53.5718 318.215 51.6563 324.644 50.0575 329.531C50.0261 329.617 50.0104 329.708 50.0112 329.8L49.988 329.816ZM50.2738 290.867C50.2742 291.004 50.3059 291.138 50.3665 291.261C52.2138 294.837 53.4313 298.703 53.9657 302.691C54.0147 302.903 54.1409 303.088 54.3197 303.212C54.4985 303.335 54.7169 303.387 54.9323 303.358C55.1477 303.329 55.3446 303.221 55.4843 303.055C55.6241 302.889 55.6967 302.677 55.688 302.46C55.1289 298.279 53.854 294.225 51.9189 290.474C51.8118 290.27 51.6288 290.117 51.4093 290.046C51.1897 289.975 50.9512 289.994 50.7449 290.097C50.6027 290.169 50.4835 290.28 50.4003 290.416C50.3172 290.552 50.2734 290.708 50.2738 290.867Z" fill="#49B3F7"/>
<path d="M100.051 18.9876C98.8046 18.7659 97.54 18.6585 96.2736 18.667C96.1592 18.6665 96.0459 18.689 95.9404 18.7329C95.8348 18.7769 95.7391 18.8415 95.659 18.923C95.5788 19.0044 95.5158 19.1011 95.4736 19.2072C95.4314 19.3134 95.411 19.4269 95.4134 19.541C95.414 19.6549 95.4372 19.7676 95.4816 19.8725C95.526 19.9774 95.5908 20.0725 95.6721 20.1523C95.7535 20.2321 95.8499 20.2951 95.9558 20.3375C96.0616 20.38 96.1748 20.4011 96.2889 20.3997C97.449 20.395 98.6072 20.4941 99.7495 20.6959C104.312 21.4992 108.5 23.716 113.136 26.3249C113.235 26.3809 113.345 26.4169 113.458 26.4307C113.571 26.4446 113.686 26.436 113.796 26.4056C113.905 26.3751 114.008 26.3234 114.098 26.2533C114.188 26.1832 114.263 26.0961 114.319 25.997C114.375 25.8979 114.411 25.7887 114.425 25.6757C114.439 25.5628 114.43 25.4482 114.4 25.3385C114.37 25.2288 114.318 25.1262 114.247 25.0365C114.177 24.9468 114.09 24.8718 113.991 24.8158C109.205 22.1256 104.858 19.8338 100.051 18.9876ZM121.818 29.1999C121.637 29.17 121.452 29.1972 121.287 29.2777C121.122 29.3581 120.987 29.4879 120.9 29.6489C120.792 29.8521 120.769 30.0896 120.836 30.3096C120.903 30.5296 121.054 30.7143 121.257 30.8234C125.879 33.2889 132.043 36.3469 138.482 38.0677C138.702 38.1263 138.936 38.0967 139.135 37.9854C139.333 37.8741 139.48 37.6898 139.544 37.4719C139.605 37.2531 139.576 37.0193 139.464 36.8219C139.351 36.6245 139.165 36.4797 138.946 36.4193C132.641 34.7377 126.631 31.7382 122.087 29.3178C122.008 29.2719 121.92 29.2406 121.829 29.2254L121.818 29.1999ZM160.196 36.2462C160.061 36.223 159.923 36.2308 159.792 36.269C155.942 37.4637 151.916 37.9889 147.888 37.8215C147.671 37.8329 147.467 37.9248 147.314 38.0791C147.161 38.2334 147.072 38.4391 147.063 38.6558C147.054 38.8726 147.126 39.0848 147.266 39.2511C147.405 39.4173 147.602 39.5256 147.817 39.5547C152.04 39.7314 156.261 39.1823 160.298 37.9316C160.517 37.8618 160.701 37.7086 160.809 37.5051C160.917 37.3015 160.94 37.0639 160.874 36.8432C160.827 36.6909 160.739 36.5545 160.619 36.4491C160.499 36.3437 160.353 36.2735 160.196 36.2462Z" fill="#49B3F7"/>
<path d="M47.9594 300.027C47.9337 300.232 47.9906 300.438 48.1173 300.601C48.244 300.763 48.4303 300.869 48.6352 300.895C48.84 300.92 49.0466 300.863 49.2096 300.737C49.3725 300.611 49.4785 300.425 49.5041 300.22L51.5586 292.196L59.7147 298.131C59.7953 298.203 59.89 298.257 59.9927 298.29C60.0954 298.322 60.2039 298.333 60.3111 298.322C60.4184 298.31 60.522 298.277 60.6153 298.223C60.7087 298.169 60.7896 298.096 60.8531 298.009C60.9165 297.922 60.9609 297.822 60.9835 297.717C61.0061 297.612 61.0063 297.503 60.9842 297.398C60.9621 297.292 60.9181 297.193 60.8551 297.105C60.7921 297.018 60.7115 296.945 60.6184 296.89L51.5431 290.277C51.4416 290.204 51.324 290.157 51.2002 290.139C51.0764 290.122 50.9503 290.135 50.8325 290.177C50.7142 290.219 50.608 290.29 50.5232 290.382C50.4384 290.475 50.3775 290.587 50.346 290.709L47.9902 299.858C47.9791 299.922 47.9791 299.987 47.9902 300.051" fill="#49B3F7"/>
<path d="M151.561 32.3799C151.363 32.3192 151.15 32.3393 150.968 32.4356C150.785 32.5319 150.648 32.6967 150.588 32.8936C150.527 33.0905 150.547 33.3035 150.643 33.4856C150.74 33.6678 150.905 33.8042 151.102 33.8649L158.662 37.2782L151.389 44.2646C151.305 44.3314 151.235 44.4151 151.185 44.5104C151.135 44.6057 151.105 44.7104 151.098 44.8178C151.091 44.9252 151.106 45.0329 151.143 45.1341C151.18 45.2352 151.238 45.3274 151.313 45.4049C151.388 45.4823 151.478 45.5433 151.578 45.5838C151.678 45.6243 151.785 45.6434 151.893 45.64C152.001 45.6365 152.106 45.6106 152.204 45.5639C152.301 45.5171 152.387 45.4505 152.457 45.3685L160.558 37.5964C160.648 37.5093 160.715 37.4018 160.753 37.2832C160.792 37.1646 160.801 37.0383 160.78 36.9153C160.759 36.7916 160.708 36.6749 160.631 36.5755C160.554 36.476 160.455 36.3968 160.34 36.3446L151.722 32.4397C151.661 32.4178 151.597 32.4064 151.532 32.4063" fill="#49B3F7"/>
</svg>
