<svg width="94" height="141" viewBox="0 0 94 141" fill="none" xmlns="http://www.w3.org/2000/svg">
<g style="mix-blend-mode:multiply" opacity="0.95">
<g style="mix-blend-mode:multiply" opacity="0.95">
<g style="mix-blend-mode:multiply" opacity="0.95">
<path d="M78.0017 120.513L32.585 123.319V134.112L77.1288 130.443C77.1288 130.443 80.2025 127.276 78.0017 120.513Z" fill="#F8CC90"/>
</g>
</g>
<path d="M47 141C72.9574 141 94 137.18 94 132.468C94 127.756 72.9574 123.936 47 123.936C21.0426 123.936 0 127.756 0 132.468C0 137.18 21.0426 141 47 141Z" fill="#DEE1F3"/>
</g>
<path d="M78.3934 118.131L28.4111 121.222V133.098L77.4129 129.058C77.4129 129.058 80.7806 125.578 78.3934 118.131Z" fill="#FF6551"/>
<g style="mix-blend-mode:multiply" opacity="0.95">
<path d="M78.3934 118.131L28.4111 121.222V133.098L77.4129 129.058C77.4129 129.058 80.7806 125.578 78.3934 118.131Z" fill="#F8CC90"/>
</g>
<path d="M44.8712 123.524C44.8712 123.524 47.0014 126.709 44.8712 129.698L72.1042 127.463C72.8221 125.655 72.8221 123.643 72.1042 121.834L44.8712 123.524Z" fill="#FF6551"/>
<path d="M8.69751 118.845L47.2037 116.542L78.3928 118.131L28.4307 121.221L8.69751 118.845Z" fill="#FF6551"/>
<path d="M9.65137 119.632C9.65137 119.632 11.3217 125.335 10.1315 129.3L27.9374 132.31C27.9374 132.31 30.1826 131.993 30.5748 128.661C30.9671 125.328 27.9374 121.188 27.9374 121.188L9.65137 119.632Z" fill="#FFEBDD"/>
<g style="mix-blend-mode:multiply" opacity="0.41">
<path d="M27.9378 121.188L9.67883 119.66C9.67883 119.66 9.91552 120.515 10.1522 121.862L24.8473 123.491C25.5254 123.56 26.1632 123.844 26.6672 124.301C27.1711 124.758 27.5146 125.364 27.647 126.029C27.647 126.029 27.647 126.083 27.647 126.11C27.7161 126.611 27.6644 127.12 27.4964 127.597C27.3284 128.074 27.0489 128.504 26.6808 128.852C26.3128 129.2 25.8669 129.456 25.3799 129.598C24.8929 129.741 24.3789 129.766 23.8803 129.671L10.4768 127.295C10.4238 127.979 10.3015 128.655 10.1116 129.315L27.9175 132.324C27.9175 132.324 30.1627 132.008 30.5549 128.675C30.9472 125.342 27.9378 121.188 27.9378 121.188Z" fill="#E79E82"/>
</g>
<g style="mix-blend-mode:multiply" opacity="0.41">
<path d="M10.3904 123.376C10.4377 123.74 10.4783 124.117 10.5053 124.501L24.132 125.618L10.3904 123.376Z" fill="#E79E82"/>
</g>
<g style="mix-blend-mode:multiply" opacity="0.41">
<path d="M20.5861 127.248L10.5504 125.686C10.5504 125.955 10.5504 126.231 10.5504 126.507L20.5861 127.248Z" fill="#E79E82"/>
</g>
<path d="M8.69827 120.191L27.0587 122.487C28.3337 123.61 29.1296 125.175 29.2836 126.863C29.2666 127.694 29.0839 128.512 28.7461 129.272C28.4082 130.031 27.922 130.716 27.3157 131.286L9.01611 128.351L9.09726 130.095L27.9378 133.104C27.9378 133.104 31.3732 131.919 31.3191 127.247C31.265 122.575 28.4112 121.221 28.4112 121.221L8.67798 118.845L8.69827 120.191Z" fill="#FF6551"/>
<path d="M75.4516 107.177C75.4516 107.177 73.4634 113.297 75.4516 118.05L69.1624 120.191C69.1624 120.191 64.0701 117.101 68.1277 109.493L75.4516 107.177Z" fill="#FFEBDD"/>
<g style="mix-blend-mode:multiply" opacity="0.41">
<g style="mix-blend-mode:multiply" opacity="0.41">
<path d="M69.1624 120.191L75.4516 118.05C75.1902 117.42 74.9909 116.766 74.8565 116.098L69.6629 117.821C69.6629 117.821 69.0272 117.505 68.547 115.276C68.4387 114.552 68.4819 113.814 68.6739 113.107C68.8659 112.4 69.2026 111.741 69.6629 111.169L74.9377 109.257C75.0644 108.562 75.2315 107.874 75.4381 107.197L68.1142 109.513C64.0702 117.101 69.1624 120.191 69.1624 120.191Z" fill="#E79E82"/>
</g>
<g style="mix-blend-mode:multiply" opacity="0.41">
<path d="M74.6332 111.574C74.6332 111.217 74.7008 110.901 74.7414 110.551L70.3931 112.651L74.6332 111.574Z" fill="#E79E82"/>
</g>
<g style="mix-blend-mode:multiply" opacity="0.41">
<path d="M71.015 115.256L74.6533 114.657C74.6127 114.226 74.5857 113.802 74.5789 113.384L71.015 115.256Z" fill="#E79E82"/>
</g>
</g>
<path d="M12.9184 107.177C12.9184 107.177 9.69267 114.724 14.4671 119.969L67.1747 121.712C67.1747 121.712 64.6861 117.673 66.3699 109.075L12.9184 107.177Z" fill="#49B3F7"/>
<path d="M17.2059 109.742C17.2059 109.742 15.1298 113.27 17.801 118.144L57.7815 119.282C57.7815 119.282 55.3943 116.933 56.7062 110.981L17.2059 109.742Z" fill="#89CEFA"/>
<path d="M76.7649 105.245L66.3708 109.069C66.3708 109.069 63.9092 116.084 67.1755 121.706L76.2847 118.777V116.636L69.1637 119.248C69.1637 119.248 66.3032 117.229 68.4469 110.382L76.6837 107.85L76.7649 105.245Z" fill="#0071BC"/>
<path d="M12.918 107.177L32.8879 103.346L76.7636 105.245L66.3695 109.055L12.918 107.177Z" fill="#0071BC"/>
<path d="M34.9167 126.439C34.9167 126.439 34.9167 128.661 33.767 129.853C32.6174 131.044 29.0332 132.822 29.3037 134.963C29.5742 137.104 36.9454 135.919 41.118 132.707C45.2905 129.496 42.2676 127.604 41.118 126.049L34.9167 126.439Z" fill="#808080"/>
<path d="M30.1425 98.0686C30.1425 98.0686 24.773 108.693 26.9168 115.237C29.0605 121.781 34.7952 128.069 34.7952 128.069C34.7952 128.069 39.6846 129.018 41.1182 126.049C41.1182 126.049 36.824 120.468 40.1647 111.439C40.1647 111.439 42.9103 102.849 38.9745 99.065C35.0387 95.2813 32.0496 96.1026 30.1425 98.0686Z" fill="#2435A1"/>
<path d="M55.2586 126.439C55.2586 126.439 55.2586 128.661 56.4082 129.853C57.5579 131.044 61.1082 132.822 60.8715 134.963C60.6348 137.104 53.2298 135.919 49.0505 132.707C44.8712 129.496 47.9076 127.604 49.0505 126.049L55.2586 126.439Z" fill="#808080"/>
<path d="M60.0337 98.0686C60.0337 98.0686 65.4032 108.693 63.2527 115.237C61.1022 121.781 55.3811 128.069 55.3811 128.069C55.3811 128.069 50.4849 129.018 49.0513 126.049C49.0513 126.049 53.3523 120.468 50.0116 111.439C50.0116 111.439 47.2659 102.849 51.2018 99.065C55.1376 95.2813 58.1267 96.1026 60.0337 98.0686Z" fill="#2435A1"/>
<path d="M66.9586 79.2238C66.9586 79.2844 66.9586 79.3517 66.9586 79.419C66.8612 79.8706 66.6561 80.2923 66.3607 80.6485C66.0653 81.0047 65.6882 81.285 65.2612 81.4657C64.4109 81.8259 63.5213 82.0857 62.6103 82.24C61.2578 82.5497 59.9594 82.9873 58.6204 83.2902C56.9692 83.6258 55.2974 83.8507 53.616 83.9635C50.911 84.2059 48.1519 84.4415 45.413 84.4415C40.59 84.3293 35.7861 83.7976 31.056 82.8526C28.4562 82.4987 25.9114 81.8201 23.4819 80.8328C22.2106 80.2538 20.8919 79.3382 20.6958 77.958C20.4996 76.5779 21.6358 75.0496 22.3391 73.9185C23.1417 72.6599 24.0805 71.4926 25.1388 70.4378C27.2263 68.2484 29.7636 66.533 32.5776 65.4086C33.6799 64.9777 34.789 64.5535 35.9183 64.2102L36.412 64.062C36.7704 63.9611 37.1288 63.8735 37.494 63.7927C42.1844 62.8294 47.0491 63.1458 51.5737 64.7084C52.4258 64.9844 53.2779 65.3008 54.1029 65.6442C54.4614 65.7923 54.8198 65.9472 55.1714 66.1087C57.7758 67.2108 60.1638 68.7631 62.2248 70.6936C64.159 72.6052 65.634 74.9275 66.5394 77.4868C66.7912 78.0331 66.9336 78.6231 66.9586 79.2238Z" fill="#FF6551"/>
<g style="mix-blend-mode:multiply" opacity="0.95">
<path d="M66.5464 77.459C65.3766 74.1132 63.2259 71.1934 60.3721 69.0769C57.0855 72.0527 52.4261 73.2713 48.4767 73.7897C42.3904 74.9949 34.1603 71.8642 31.5703 65.8521C29.1637 66.9734 26.9875 68.5304 25.1526 70.4437C24.0864 71.4887 23.1385 72.6469 22.3258 73.8975C21.6495 75.0555 20.4864 76.5366 20.6825 77.937C20.8786 79.3374 22.1973 80.2328 23.4687 80.8118C25.8982 81.799 28.4429 82.4776 31.0428 82.8316C35.7728 83.7766 40.5768 84.3082 45.3998 84.4205C48.1048 84.4205 50.8707 84.1781 53.6028 83.9424C55.2841 83.8296 56.956 83.6047 58.6071 83.2692C59.9596 82.9662 61.258 82.5286 62.597 82.2122C63.5122 82.0708 64.4068 81.8199 65.2615 81.4649C65.6853 81.2867 66.0603 81.0106 66.3555 80.6593C66.6507 80.3081 66.8576 79.8918 66.9589 79.4451C66.9589 79.3778 66.9589 79.3104 66.9589 79.2499C66.9431 78.6314 66.8028 78.0225 66.5464 77.459Z" fill="#F8CC90"/>
</g>
<g style="mix-blend-mode:multiply">
<g style="mix-blend-mode:multiply">
<path d="M51.5938 64.6883C51.4179 64.9846 48.7738 67.3814 44.0197 66.8966C39.7525 66.4455 37.9671 64.6681 37.514 63.7727C42.2044 62.8094 47.0691 63.1258 51.5938 64.6883Z" fill="#F7A845"/>
</g>
</g>
<path d="M49.4233 64.2569C49.4233 64.2569 48.206 66.0949 44.2093 65.6034C40.2126 65.112 39.3199 63.5837 39.3199 63.5837V62.089V59.9212L48.7876 59.1536L49.6802 59.0796V59.6317L49.545 62.493L49.4233 64.2569Z" fill="#EA9573"/>
<g style="mix-blend-mode:multiply" opacity="0.31">
<path d="M49.5044 62.4999C48.233 63.3482 46.61 64.1763 45.1696 64.1224C42.309 64.0147 39.3943 62.1363 39.3199 62.1027V59.9213L48.7876 59.1538L49.6532 59.6318L49.5044 62.4999Z" fill="#DD7258"/>
</g>
<path d="M68.3449 35.6839C68.3449 35.6839 72.1117 33.9267 74.2149 36.5794C76.318 39.232 72.9841 45.9444 70.4346 46.6041C67.8851 47.2639 66.891 46.6041 66.891 46.6041L68.3449 35.6839Z" fill="#FFBF94"/>
<path d="M21.1682 35.5899C21.1682 35.5899 17.4014 33.826 15.2915 36.4652C13.1815 39.1043 16.502 45.8436 19.0447 46.5034C21.5874 47.1632 22.5883 46.5034 22.5883 46.5034L21.1682 35.5899Z" fill="#FFBF94"/>
<path d="M70.1302 25.5851C70.1302 25.5851 69.454 35.4483 68.3314 43.3793C68.1691 44.571 67.9933 45.7155 67.8174 46.7456C67.2764 49.9301 66.661 52.3538 66.0118 52.9597C63.6652 55.2084 50.3699 62.318 45.1628 61.9746C39.9556 61.6313 26.2275 55.0603 24.0229 52.6837C23.3466 51.9296 22.5487 49.2568 21.8453 45.9511C20.3373 38.9762 19.0659 29.2409 19.0659 29.2409C19.6205 13.2376 28.6215 7.83136 45.9946 7.28603C63.3676 6.74069 70.1302 25.5851 70.1302 25.5851Z" fill="#FFBF94"/>
<g opacity="0.27">
<path opacity="0.27" d="M57.2749 12.8543C57.2749 12.8543 55.1987 1.92735 43.4792 2.0822C38.5534 2.17424 33.7095 3.35374 29.2972 5.53557C24.8848 7.71741 21.0139 10.8472 17.9639 14.699C15.0193 18.4995 13.6936 23.3002 14.2731 28.0652C14.8526 32.8301 17.2906 37.1772 21.0612 40.1683C21.0612 40.1683 23.7662 35.1997 26.4239 31.3083C26.4239 31.3083 41.4031 37.8254 55.5031 25.6327C55.4963 25.6327 59.351 19.6542 57.2749 12.8543Z" fill="#DA8966"/>
<path opacity="0.27" d="M54.7857 19.3844C54.7857 19.3844 54.3394 26.3459 58.938 30.5268C63.5365 34.7077 67.0937 35.1521 67.0937 35.1521C67.0937 35.1521 69.6161 39.8649 67.8375 44.9008C67.8375 44.9008 74.262 38.8954 73.2476 26.4334C72.2332 13.9714 66.1469 9.89824 54.7384 10.0464L54.7857 19.3844Z" fill="#DA8966"/>
</g>
<path d="M54.3187 31.6786C54.508 31.9748 54.8461 31.9411 55.1707 31.9748C55.4953 32.0085 55.9146 32.0152 56.2933 32.0287C57.026 32.0259 57.7529 32.1583 58.4371 32.4192C59.0615 32.7041 59.6513 33.0587 60.1953 33.4762C60.4566 33.6806 60.7299 33.8695 61.0136 34.0417C61.173 34.1413 61.3431 34.2226 61.5208 34.2841C61.6966 34.3312 61.8657 34.2841 62.028 34.3649C62.1903 34.4457 62.3526 34.1966 62.2782 34.0417C62.2038 33.8869 62.2241 33.6714 62.1362 33.4964C62.0342 33.3048 61.9093 33.1262 61.7643 32.9645C61.4969 32.6579 61.1977 32.3803 60.8716 32.1364C60.203 31.6233 59.4503 31.2292 58.6467 30.9717C57.8064 30.7277 56.9237 30.6635 56.0566 30.7831C55.7861 30.7831 53.9332 31.0794 54.3187 31.6786Z" fill="#5F130F"/>
<g style="mix-blend-mode:multiply" opacity="0.44">
<path d="M20.9318 43.9656C19.5007 43.2745 18.383 42.0729 17.8007 40.5993C17.5775 39.9261 17.6316 38.9027 18.477 38.7883C19.1938 38.694 19.4846 39.6231 19.8295 40.1348C19.9985 40.3839 20.4516 40.2358 20.3434 39.9193C20.0526 39.071 19.7686 38.0006 18.7069 37.8996C18.1953 37.8757 17.6951 38.0541 17.3151 38.3959C16.935 38.7376 16.7061 39.215 16.6781 39.7241C16.5361 40.9494 17.28 42.094 17.9765 43.0365C18.6731 43.9791 19.6198 44.7129 20.8642 44.4369C20.9089 44.4186 20.948 44.3891 20.9777 44.3511C21.0074 44.3132 21.0266 44.2682 21.0335 44.2205C21.0403 44.1729 21.0345 44.1243 21.0167 44.0796C20.9988 44.0349 20.9696 43.9956 20.9318 43.9656Z" fill="#DA8966"/>
</g>
<g style="mix-blend-mode:multiply" opacity="0.44">
<path d="M73.1794 39.6092C73.1185 38.6869 72.3476 37.8588 71.367 38.2627C70.6908 38.5253 69.6426 39.7978 70.3662 40.4575C70.3849 40.4743 70.4071 40.4868 70.4312 40.4943C70.4553 40.5017 70.4807 40.5039 70.5058 40.5007C70.5308 40.4975 70.5548 40.489 70.5762 40.4758C70.5976 40.4625 70.6159 40.4448 70.6299 40.4239C70.9951 39.9459 71.0356 39.1582 71.739 38.9764C72.6992 38.734 72.4152 40.3229 72.28 40.8144C72.1721 41.3863 71.9415 41.9283 71.6037 42.4033C71.1906 42.8376 70.6811 43.1697 70.1159 43.3727C70.0893 43.3884 70.0666 43.4099 70.0497 43.4356C70.0327 43.4613 70.0218 43.4906 70.0179 43.5211C70.014 43.5516 70.0171 43.5826 70.0271 43.6118C70.037 43.6409 70.0535 43.6674 70.0754 43.6892C70.8395 44.524 71.9554 43.4064 72.3814 42.7332C72.9495 41.7923 73.227 40.7059 73.1794 39.6092Z" fill="#DA8966"/>
</g>
<path d="M32.8882 32.1494C32.3742 31.6041 31.3531 31.806 30.6903 31.9003C29.9357 32.0192 29.2023 32.246 28.5128 32.5736C27.8427 32.8811 27.2135 33.27 26.6395 33.7315C26.1459 34.122 25.287 34.8424 25.5237 35.5493C25.5535 35.6467 25.6133 35.7322 25.6946 35.7938C25.7759 35.8555 25.8746 35.8901 25.9768 35.8927C26.5787 35.96 27.1873 35.2194 27.6269 34.8963C28.1262 34.5194 28.6688 34.203 29.2431 33.9537C29.8001 33.7251 30.3775 33.5493 30.9676 33.4286C31.583 33.2939 32.408 33.4286 32.8882 32.9506C32.9906 32.8462 33.048 32.706 33.048 32.5601C33.048 32.4141 32.9906 32.274 32.8882 32.1696V32.1494Z" fill="#5F130F"/>
<path d="M51.5472 51.2028C51.1994 52.5488 50.5652 53.8047 49.6875 54.8855C49.074 55.6244 48.303 56.218 47.4304 56.6233C46.5578 57.0286 45.6055 57.2353 44.6426 57.2285C43.5652 57.2808 42.4925 57.0554 41.5281 56.5742C40.5638 56.093 39.7405 55.3722 39.1378 54.4816C38.4164 53.4434 37.8874 52.2851 37.5757 51.0614C37.5288 50.893 37.5457 50.7134 37.623 50.5565C37.6979 50.3837 37.8361 50.2458 38.0094 50.1708C38.1827 50.0958 38.3783 50.0892 38.5563 50.1525L38.7997 50.2333C42.6139 51.4586 46.7186 51.4586 50.5328 50.2333C50.616 50.2073 50.7026 50.1937 50.7898 50.1929C50.9602 50.1927 51.1265 50.2459 51.2648 50.345C51.4032 50.4441 51.5068 50.584 51.5607 50.745C51.6031 50.8954 51.5984 51.0551 51.5472 51.2028Z" fill="#831532"/>
<path d="M51.5333 50.7249C49.5038 52.1902 47.0741 53.0052 44.5678 53.0611C42.044 52.967 39.6131 52.0888 37.6158 50.5499C37.692 50.3767 37.8318 50.2392 38.0066 50.1653C38.1813 50.0915 38.3778 50.0869 38.5558 50.1526L38.7993 50.2334C42.6135 51.4587 46.7182 51.4587 50.5324 50.2334C50.6156 50.2075 50.7022 50.1938 50.7894 50.193C50.9527 50.1968 51.1112 50.2496 51.2439 50.3445C51.3766 50.4394 51.4775 50.572 51.5333 50.7249Z" fill="white"/>
<path d="M49.6865 54.8854C49.073 55.6243 48.302 56.2179 47.4294 56.6232C46.5568 57.0285 45.6045 57.2352 44.6416 57.2284C43.5642 57.2807 42.4914 57.0554 41.5271 56.5742C40.5628 56.0929 39.7395 55.3722 39.1368 54.4815C42.6229 53.6392 46.2757 53.779 49.6865 54.8854Z" fill="#FF6551"/>
<path d="M34.2775 48.9216C34.5489 47.7972 33.0584 46.4766 30.9485 45.9719C28.8386 45.4672 26.9082 45.9696 26.6368 47.094C26.3655 48.2184 27.8559 49.539 29.9659 50.0437C32.0758 50.5484 34.0062 50.046 34.2775 48.9216Z" fill="#F2786B"/>
<path d="M59.5424 50.119C61.6912 49.8176 63.3017 48.645 63.1396 47.4999C62.9776 46.3548 61.1043 45.6709 58.9556 45.9723C56.8068 46.2737 55.1963 47.4463 55.3584 48.5914C55.5204 49.7365 57.3937 50.4204 59.5424 50.119Z" fill="#F2786B"/>
<g style="mix-blend-mode:multiply" opacity="0.21">
<g style="mix-blend-mode:multiply" opacity="0.21">
<path d="M44.2559 45.312C43.5468 45.3324 42.8523 45.5168 42.2271 45.8506C42.179 45.8742 42.1355 45.9061 42.0986 45.9449C41.9769 46.1065 42.173 46.3152 42.3556 46.4094C43.5426 46.9272 44.8768 47.0037 46.1156 46.6249C46.4216 46.5792 46.7092 46.4512 46.9474 46.2546C47.0827 46.1199 47.1638 45.8775 47.0286 45.7496C46.9629 45.7007 46.8864 45.6684 46.8054 45.6554C45.6413 45.413 44.4394 45.413 43.2753 45.6554L44.2559 45.312Z" fill="#DA8966"/>
</g>
</g>
<path d="M42.1535 46.113C42.4713 45.9985 42.735 45.7831 43.0664 45.6821C43.4539 45.5769 43.8553 45.5315 44.2566 45.5474C44.6364 45.5372 45.0163 45.5575 45.3927 45.608C45.7746 45.6757 46.129 45.8509 46.4139 46.113C46.7317 46.3823 47.2592 46.0457 47.0225 45.6484C46.5018 44.7732 45.2102 44.7665 44.3175 44.7799C43.5601 44.7799 42.0723 44.8742 41.8627 45.8235C41.8627 45.9851 41.9709 46.1803 42.1535 46.113Z" fill="#D88261"/>
<path d="M52.8048 43.0907C52.3837 42.6455 52.068 42.1121 51.8808 41.5296C51.6935 40.9472 51.6396 40.3304 51.7228 39.7245C51.8984 38.5069 52.5406 37.4042 53.5149 36.6477C54.4667 35.886 55.6813 35.5281 56.8962 35.6513C57.5028 35.723 58.0835 35.9375 58.5904 36.277C59.0972 36.6165 59.5156 37.0713 59.8109 37.6037C59.9755 37.9426 60.1068 38.2966 60.2031 38.6607C60.4138 39.3422 60.4783 40.0601 60.3924 40.768C60.1468 41.8593 59.5004 42.8198 58.5801 43.461C57.9092 44.0183 57.0726 44.3401 56.1996 44.3767C55.2746 44.289 54.3865 43.9719 53.6163 43.4543C53.0536 43.2198 52.6032 42.7786 52.3585 42.2222L52.8048 43.0907Z" fill="white"/>
<path d="M37.331 42.9753C37.593 42.4226 37.7289 41.8191 37.7289 41.208C37.7289 40.5969 37.593 39.9933 37.331 39.4407C36.794 38.3309 35.8501 37.4683 34.6936 37.0304C33.5438 36.5878 32.2648 36.6169 31.1365 37.1112C30.5819 37.3642 30.0954 37.7445 29.7169 38.2208C29.3384 38.697 29.0787 39.2558 28.9589 39.8514C28.9003 40.2254 28.8822 40.6046 28.9048 40.9824C28.9033 41.7097 29.0602 42.4287 29.3647 43.0897C29.929 44.0583 30.8394 44.7795 31.9142 45.1095C32.7239 45.4383 33.6198 45.4927 34.4637 45.2643C35.3186 44.9046 36.0678 44.3347 36.6412 43.6081C37.1098 43.217 37.4059 42.6587 37.4663 42.0529L37.331 42.9753Z" fill="white"/>
<path d="M59.9124 41.1578C59.8568 40.4505 59.5995 39.7737 59.1705 39.2071C58.7416 38.6406 58.159 38.2078 57.4914 37.9598C55.6452 37.3606 53.258 38.2762 52.6561 40.0805C52.5436 40.271 52.455 40.4745 52.3924 40.6865C51.4253 43.844 55.395 45.1704 57.8025 44.248C58.4492 44.0398 59.0078 43.6229 59.3899 43.0632C59.7721 42.5036 59.9559 41.8331 59.9124 41.1578Z" fill="#2D2D2D"/>
<path d="M36.3986 39.9322L36.2363 39.7235C35.7766 39.2866 35.2108 38.9763 34.5943 38.8228C33.9778 38.6694 33.3318 38.6781 32.7197 38.8483C32.0714 38.9849 31.4745 39.2995 30.9964 39.7564C30.5184 40.2133 30.1783 40.7942 30.0147 41.4336C29.7104 42.7801 29.9674 44.3353 31.2658 45.0961C33.4298 46.3753 37.582 44.9884 37.5279 42.1472C37.519 41.7173 37.4128 41.2948 37.2173 40.9113C37.0218 40.5279 36.7419 40.1932 36.3986 39.9322Z" fill="#2D2D2D"/>
<path d="M54.0623 42.04C54.0044 42.193 53.9787 42.3563 53.9868 42.5196C53.995 42.6829 54.0368 42.8428 54.1097 42.9893C54.1524 43.2347 54.2841 43.456 54.4798 43.6111C54.6755 43.7662 54.9216 43.8444 55.1714 43.8309C55.4717 43.8177 55.759 43.7053 55.988 43.5115C56.2171 43.3176 56.3747 43.0534 56.436 42.7604C56.7133 41.3668 54.5898 40.6733 54.0623 42.04Z" fill="white"/>
<path d="M35.8496 42.377C35.9533 42.5049 36.0286 42.6533 36.0705 42.8122C36.1125 42.9712 36.1202 43.1372 36.0931 43.2994C36.1287 43.5513 36.0688 43.8075 35.925 44.0179C35.7813 44.2282 35.5639 44.3777 35.3154 44.4372C35.0207 44.5133 34.7089 44.4883 34.4303 44.3661C34.1518 44.2439 33.9227 44.0318 33.7803 43.7639C33.0905 42.5386 34.9029 41.2392 35.8496 42.377Z" fill="white"/>
<path d="M19.7415 33.9677L16.7795 27.6055C16.7795 27.6055 -0.431289 30.7496 0.00827891 55.209C1.17282 55.7851 2.38012 56.2713 3.6195 56.6632C3.49674 54.5339 3.9301 52.4092 4.87734 50.4962C5.0846 52.7879 5.46437 55.0609 6.01346 57.2961C7.4803 57.6373 8.97781 57.8313 10.4835 57.8751C10.1072 55.4239 10.169 52.9259 10.6661 50.4962C11.2156 52.9637 11.948 55.3874 12.8572 57.7471C14.2016 57.6043 15.5169 57.2617 16.7592 56.7305C16.7592 56.7305 13.0668 42.2353 19.7415 33.9677Z" fill="#672410"/>
<path d="M72.5508 24.6631L70.0283 32.8633C72.0668 36.0267 73.1089 39.7244 73.021 43.4817C72.933 47.239 71.7189 50.8844 69.5347 53.9497C69.2621 54.4228 69.0161 54.9106 68.7976 55.4107C68.6691 55.6531 68.5406 55.8887 68.3986 56.1311C69.7587 57.0649 71.2426 57.8058 72.8078 58.3326C73.8564 56.3495 74.5996 54.2206 75.0124 52.0175C75.0124 52.0175 75.4858 55.9695 74.6337 58.8645C76.3601 59.2862 78.1444 59.4227 79.9153 59.2685C81.1084 57.2221 81.8356 54.9399 82.0455 52.583C82.3106 54.6635 82.3898 56.7633 82.2822 58.8578C83.4883 58.5482 84.653 58.0961 85.7514 57.5113C85.7514 57.5113 97.6197 29.8337 72.5508 24.6631Z" fill="#672410"/>
<path d="M3.94394 46.1128H3.91013C3.82597 46.1095 3.74336 46.0892 3.66731 46.0532C3.59126 46.0171 3.52336 45.9661 3.46772 45.9031C3.41207 45.8402 3.36985 45.7666 3.3436 45.687C3.31735 45.6073 3.30763 45.5231 3.31502 45.4396C3.63963 39.3399 8.12322 33.6643 12.4648 30.7895C12.603 30.6968 12.7724 30.6625 12.936 30.6941C13.0995 30.7256 13.2438 30.8205 13.3372 30.9579C13.4306 31.0964 13.4653 31.2662 13.4337 31.4301C13.402 31.5941 13.3065 31.7389 13.1681 31.8331C9.23905 34.4655 4.87042 39.8718 4.57286 45.5204C4.5642 45.6805 4.49414 45.8313 4.37712 45.9415C4.2601 46.0518 4.10505 46.1131 3.94394 46.1128Z" fill="#772F1E"/>
<path d="M8.02828 50.3206C7.86265 50.3206 7.7037 50.2556 7.58594 50.1396C7.46819 50.0236 7.40114 49.8661 7.39936 49.7012C7.29116 42.4166 9.25907 37.0978 13.7697 32.5668C13.8872 32.4481 14.0472 32.3807 14.2147 32.3794C14.3821 32.3781 14.5431 32.4431 14.6624 32.5601C14.7817 32.6771 14.8494 32.8364 14.8506 33.0031C14.8519 33.1697 14.7866 33.3301 14.6691 33.4488C10.4155 37.724 8.58282 42.733 8.6572 49.6877C8.6581 49.77 8.64271 49.8516 8.61193 49.9279C8.58114 50.0042 8.53556 50.0737 8.47779 50.1325C8.42002 50.1912 8.35118 50.2381 8.27521 50.2704C8.19925 50.3027 8.11764 50.3197 8.03505 50.3206H8.02828Z" fill="#772F1E"/>
<path d="M13.3651 51.2098C13.2141 51.2082 13.0685 51.1532 12.9545 51.0545C12.8405 50.9558 12.7655 50.8199 12.743 50.6712C11.3093 40.68 15.6036 35.6576 15.7862 35.4488C15.8386 35.3815 15.9044 35.3256 15.9793 35.2844C16.0543 35.2432 16.1369 35.2177 16.2221 35.2095C16.3073 35.2012 16.3933 35.2104 16.4748 35.2364C16.5564 35.2624 16.6317 35.3046 16.6962 35.3606C16.7608 35.4166 16.8131 35.4851 16.8502 35.562C16.8872 35.6388 16.908 35.7224 16.9115 35.8076C16.9149 35.8927 16.9008 35.9777 16.8701 36.0572C16.8394 36.1368 16.7927 36.2093 16.7329 36.2702C16.6856 36.3308 12.6754 41.1244 13.9941 50.4894C14.0173 50.6544 13.9743 50.8219 13.8743 50.9555C13.7742 51.0891 13.6253 51.1781 13.4598 51.203L13.3651 51.2098Z" fill="#772F1E"/>
<path d="M76.791 49.6741H76.6896C76.6074 49.6619 76.5285 49.6334 76.4575 49.5904C76.3866 49.5473 76.3251 49.4905 76.2765 49.4233C76.228 49.3562 76.1934 49.28 76.175 49.1994C76.1565 49.1187 76.1544 49.0352 76.1688 48.9538C76.6084 46.2607 77.2509 39.5888 73.6599 36.3369C73.5983 36.2814 73.5483 36.2144 73.5129 36.1395C73.4775 36.0647 73.4573 35.9836 73.4535 35.901C73.4498 35.8184 73.4625 35.7358 73.4909 35.6581C73.5194 35.5804 73.563 35.5091 73.6193 35.4482C73.6745 35.3871 73.7413 35.3375 73.8159 35.3023C73.8905 35.2671 73.9713 35.2471 74.0538 35.2433C74.1362 35.2396 74.2186 35.2522 74.2961 35.2804C74.3736 35.3087 74.4447 35.352 74.5052 35.4078C78.4073 38.9424 78.0015 45.5404 77.4132 49.1557C77.3864 49.3008 77.3095 49.4319 77.196 49.5266C77.0824 49.6213 76.9391 49.6734 76.791 49.6741Z" fill="#772F1E"/>
<path d="M80.8476 52.0305H80.7394C80.6575 52.0167 80.5792 51.9869 80.509 51.9428C80.4388 51.8987 80.378 51.8411 80.3303 51.7735C80.2825 51.7059 80.2486 51.6296 80.2306 51.5489C80.2126 51.4682 80.2109 51.3848 80.2254 51.3034C81.6726 43.1772 80.1713 37.0573 75.4916 32.0483C75.4327 31.9901 75.386 31.9208 75.3541 31.8446C75.3222 31.7683 75.3058 31.6865 75.3058 31.6039C75.3058 31.5213 75.3222 31.4395 75.3541 31.3633C75.386 31.287 75.4327 31.2178 75.4916 31.1596C75.6191 31.0562 75.78 31.0026 75.9443 31.0088C76.1086 31.015 76.265 31.0806 76.3843 31.1932C81.348 36.5187 82.9508 42.9752 81.4359 51.5256C81.4077 51.6627 81.3347 51.7866 81.2282 51.8779C81.1218 51.9693 80.9879 52.0229 80.8476 52.0305Z" fill="#772F1E"/>
<path d="M85.4129 49.0625H85.3385C85.1757 49.0454 85.0262 48.9652 84.9224 48.8392C84.8186 48.7132 84.7688 48.5515 84.784 48.3892C85.4602 42.1414 83.7019 31.4164 75.952 29.2418C75.7915 29.1963 75.6557 29.0891 75.5745 28.9439C75.4934 28.7987 75.4735 28.6274 75.5192 28.4676C75.5649 28.3077 75.6726 28.1726 75.8184 28.0918C75.9643 28.011 76.1364 27.9911 76.2969 28.0367C84.7907 30.42 86.7789 41.8721 86.035 48.5306C86.0137 48.6793 85.9389 48.8152 85.8244 48.913C85.71 49.0109 85.5637 49.064 85.4129 49.0625Z" fill="#772F1E"/>
<path d="M18.01 40.167C17.7901 40.1679 17.5731 40.1175 17.3763 40.0197C17.1795 39.922 17.0085 39.7797 16.877 39.6042C16.7455 39.4288 16.6571 39.2251 16.619 39.0095C16.5809 38.7938 16.594 38.5723 16.6575 38.3627C16.3604 38.5632 15.9988 38.646 15.6435 38.595C15.2882 38.5439 14.9649 38.3627 14.7369 38.0867C14.5228 37.8012 14.3764 37.4713 14.3084 37.1215C14.2405 36.7718 14.2529 36.4112 14.3447 36.0669C14.5413 35.3791 14.8423 34.7252 15.2373 34.1279C14.1215 34.2357 12.8028 34.2626 12.1063 33.3874C11.4097 32.5121 11.8899 30.9704 12.8569 30.1827C12.1648 30.0061 11.5411 29.6289 11.0648 29.0987C10.2195 28.0148 10.9431 26.0354 12.0589 25.4093C13.8983 24.3927 16.6981 25.7122 17.7868 27.2944C18.1945 27.9377 18.5236 28.627 18.7674 29.3478C19.5383 31.3676 20.7353 34 20.3566 36.2285C20.1267 37.4336 19.5316 40.0661 18.01 40.167Z" fill="#FF6551"/>
<path d="M78.393 25.9623C78.477 26.296 78.4942 26.643 78.4435 26.9834C78.3928 27.3238 78.2752 27.6508 78.0975 27.946C77.9198 28.2411 77.6854 28.4984 77.4077 28.7033C77.13 28.9082 76.8145 29.0566 76.4792 29.14C76.9255 29.8537 77.8317 30.2509 78.1292 31.0319C78.2496 31.4595 78.2285 31.9143 78.0689 32.3291C77.9094 32.7438 77.6199 33.0963 77.2433 33.3344C76.4827 33.7983 75.6281 34.088 74.7412 34.1827C75.0625 35.2472 75.202 36.3578 75.1537 37.4682C75.1284 38.0246 74.9786 38.5685 74.7154 39.06C74.4522 39.5515 74.0821 39.9783 73.6321 40.3093C73.1716 40.6254 72.613 40.7678 72.0566 40.711C71.5002 40.6543 70.9823 40.4021 70.5957 39.9996C70.1951 39.4277 69.9611 38.7567 69.9194 38.0607C69.5608 36.1979 69.4674 34.294 69.6422 32.4053C69.7831 31.5075 69.9887 30.621 70.2576 29.7527C70.8121 27.7329 71.5628 26.0498 73.463 25.0736C75.1199 24.2387 77.6626 23.5655 78.393 25.9623Z" fill="#FF6551"/>
<path d="M57.2735 10.7736C57.2735 10.7736 55.1974 -0.146623 43.4778 0.00149322C38.5508 0.0942113 33.7059 1.27538 29.2933 3.45965C24.8807 5.64392 21.0106 8.77675 17.9626 12.6318C12.9244 18.9065 12.0318 33.2267 21.2289 40.7604C21.2289 40.7604 23.1562 32.1495 25.8275 28.2581C25.8275 28.2581 41.3814 35.7514 55.495 23.5453C55.495 23.5655 59.3496 17.5802 57.2735 10.7736Z" fill="#672410"/>
<path d="M54.7843 17.3178C54.7843 17.3178 54.3379 24.2725 58.9365 28.4534C63.5351 32.6343 67.0922 33.0787 67.0922 33.0787C67.0922 33.0787 69.6146 39.8853 67.8361 44.9011C70.4036 42.3934 72.3756 39.346 73.6077 35.9819C74.8398 32.6177 75.3008 29.0219 74.9571 25.4574C73.9156 12.9955 66.1657 7.83158 54.7708 7.95276L54.7843 17.3178Z" fill="#672410"/>
<path d="M20.9185 40.0805C20.7848 40.0805 20.6545 40.038 20.5466 39.9593C16.2321 36.8489 15.3123 30.0624 16.3132 24.7235C16.349 24.5633 16.4458 24.4233 16.5834 24.3328C16.7209 24.2424 16.8883 24.2087 17.0503 24.2388C17.1333 24.2495 17.2132 24.2766 17.2855 24.3184C17.3578 24.3603 17.421 24.416 17.4713 24.4825C17.5217 24.549 17.5583 24.6247 17.5789 24.7054C17.5995 24.7861 17.6037 24.8701 17.5913 24.9524C16.6919 29.746 17.4696 36.1689 21.3175 38.9427C21.4536 39.0411 21.5449 39.1892 21.5715 39.3545C21.5981 39.5198 21.5578 39.6888 21.4595 39.8246C21.3978 39.9087 21.316 39.9761 21.2216 40.0208C21.1271 40.0655 21.023 40.086 20.9185 40.0805Z" fill="#772F1E"/>
<path d="M20.661 37.2796C20.5159 37.2779 20.3758 37.227 20.2639 37.1351C20.1519 37.0433 20.0749 36.9161 20.0456 36.7746C18.5105 29.4294 18.9568 18.5967 25.2731 12.3018C26.9164 10.659 28.9587 8.61906 31.6231 7.9862C31.7035 7.96719 31.7868 7.96412 31.8684 7.97718C31.95 7.99024 32.0281 8.01916 32.0985 8.0623C32.1688 8.10544 32.2299 8.16195 32.2783 8.22859C32.3267 8.29524 32.3614 8.37073 32.3805 8.45074C32.3996 8.53076 32.4027 8.61373 32.3896 8.69493C32.3765 8.77613 32.3474 8.85396 32.3041 8.92398C32.2608 8.994 32.204 9.05483 32.1371 9.10302C32.0701 9.1512 31.9943 9.18578 31.9139 9.20479C29.6011 9.75686 27.6941 11.6554 26.1657 13.1837C20.2011 19.1421 19.8089 29.4765 21.2831 36.5188C21.3173 36.6821 21.2853 36.8522 21.1941 36.9922C21.1029 37.1321 20.9599 37.2306 20.7962 37.2661L20.661 37.2796Z" fill="#772F1E"/>
<path d="M23.2779 32.4121H23.1359C22.9757 32.3649 22.8387 32.2605 22.7513 32.1187C22.6639 31.977 22.6323 31.8081 22.6625 31.6446C23.8257 26.8039 26.6254 22.6297 28.8841 20.6436C31.8081 17.9892 35.4774 16.2884 39.4 15.7692C39.5626 15.7559 39.7241 15.806 39.8502 15.9091C39.9764 16.0121 40.0575 16.1599 40.0762 16.3213C40.0913 16.4835 40.0416 16.6452 39.9378 16.7713C39.834 16.8973 39.6845 16.9775 39.5217 16.9945C35.8655 17.4877 32.446 19.0748 29.7159 21.5457C27.606 23.4039 24.9821 27.329 23.8933 31.9071C23.864 32.0486 23.787 32.1758 23.6751 32.2676C23.5631 32.3595 23.423 32.4105 23.2779 32.4121Z" fill="#772F1E"/>
<path d="M28.3299 27.9216C28.2293 27.9224 28.13 27.899 28.0405 27.8533C27.951 27.8075 27.8739 27.7409 27.816 27.659C27.7675 27.5923 27.7327 27.5167 27.7136 27.4366C27.6944 27.3564 27.6914 27.2733 27.7046 27.192C27.7178 27.1107 27.7469 27.0328 27.7904 26.9628C27.8339 26.8927 27.8909 26.8319 27.958 26.7838C30.9284 24.6607 34.273 23.1123 37.8178 22.2191C37.8982 22.1987 37.9818 22.1944 38.0639 22.2062C38.146 22.218 38.2249 22.2458 38.2962 22.288C38.3674 22.3302 38.4297 22.386 38.4793 22.4521C38.5289 22.5183 38.565 22.5935 38.5854 22.6735C38.6058 22.7535 38.6102 22.8368 38.5983 22.9185C38.5864 23.0002 38.5585 23.0788 38.5161 23.1497C38.4737 23.2207 38.4177 23.2826 38.3513 23.332C38.2849 23.3814 38.2093 23.4173 38.1289 23.4377C34.7378 24.288 31.5376 25.7657 28.6951 27.7936C28.5906 27.8747 28.4624 27.9196 28.3299 27.9216Z" fill="#772F1E"/>
<path d="M34.2939 28.1573C34.1328 28.1575 33.9777 28.0962 33.8607 27.986C33.7437 27.8757 33.6736 27.725 33.6649 27.5648C33.6594 27.4817 33.6705 27.3983 33.6975 27.3194C33.7244 27.2405 33.7667 27.1677 33.822 27.1051C33.8773 27.0426 33.9445 26.9915 34.0197 26.9549C34.0948 26.9182 34.1765 26.8967 34.2601 26.8916C36.5951 26.8153 38.919 26.536 41.2052 26.0567C44.1064 25.3663 46.813 24.0313 49.1225 22.1519C51.432 20.2724 53.2844 17.8971 54.5411 15.2038C54.611 15.053 54.7383 14.9359 54.8949 14.8785C55.0516 14.821 55.2247 14.8279 55.3762 14.8975C55.5278 14.9672 55.6454 15.0939 55.7031 15.2498C55.7608 15.4057 55.7539 15.5781 55.6839 15.729C54.3484 18.5985 52.3765 21.129 49.9167 23.1301C47.4568 25.1312 44.5731 26.5508 41.4825 27.2821C39.1255 27.78 36.7291 28.0706 34.3209 28.1506L34.2939 28.1573Z" fill="#772F1E"/>
<path d="M68.4866 34.6209C68.3659 34.6216 68.2474 34.5877 68.1455 34.5233C68.0436 34.4588 67.9624 34.3665 67.9118 34.2573C67.0191 32.3184 65.714 31.4162 64.0639 30.2986C63.5905 29.9754 63.0901 29.6253 62.5829 29.2685C61.2304 28.2855 59.6547 26.6697 59.5803 24.5557C59.5767 24.4713 59.5899 24.387 59.6191 24.3076C59.6483 24.2282 59.6929 24.1554 59.7503 24.0932C59.8078 24.031 59.877 23.9806 59.954 23.9451C60.031 23.9095 60.1142 23.8894 60.1991 23.8858C60.2839 23.8823 60.3685 23.8954 60.4483 23.9245C60.528 23.9535 60.6012 23.9979 60.6636 24.0551C60.7261 24.1123 60.7767 24.1812 60.8124 24.2578C60.8482 24.3345 60.8684 24.4174 60.8719 24.5018C60.9328 26.1311 62.2245 27.4507 63.3673 28.2653C63.861 28.6289 64.3411 28.9386 64.8078 29.2685C66.4781 30.3928 68.0538 31.4566 69.0952 33.7389C69.1291 33.8141 69.1477 33.8951 69.1501 33.9774C69.1524 34.0597 69.1384 34.1417 69.1089 34.2186C69.0794 34.2955 69.0349 34.3659 68.978 34.4257C68.9211 34.4855 68.853 34.5335 68.7774 34.567C68.687 34.6102 68.5866 34.6288 68.4866 34.6209Z" fill="#772F1E"/>
<path d="M71.0161 40.6394H70.9012C70.7371 40.6099 70.5915 40.5167 70.4964 40.3804C70.4013 40.244 70.3644 40.0757 70.394 39.9123C71.3002 34.809 70.651 27.9283 66.1268 23.909C66.003 23.7969 65.9286 23.6407 65.9197 23.4743C65.9109 23.3079 65.9683 23.1448 66.0795 23.0203C66.1888 22.8975 66.3422 22.8224 66.5066 22.8111C66.671 22.7997 66.8333 22.8531 66.9586 22.9597C71.8682 27.3157 72.5918 34.6811 71.6248 40.121C71.5997 40.2644 71.5252 40.3945 71.4141 40.4891C71.303 40.5837 71.1623 40.6369 71.0161 40.6394Z" fill="#772F1E"/>
<g style="mix-blend-mode:screen" opacity="0.27">
<path d="M74.9237 25.4575C73.9364 13.5812 66.8559 8.33657 56.313 7.99321C54.8456 4.76831 51.3223 -0.0858678 43.4641 0.00165549C38.5394 0.0963549 33.6972 1.27847 29.2871 3.46267C24.877 5.64687 21.009 8.77865 17.9624 12.6319C13.5802 18.0853 12.3359 29.6317 18.1382 37.502C16.407 32.6209 15.7646 27.0868 17.2118 22.2191C19.2405 15.4865 24.5424 9.85139 30.8384 6.84194C37.77 3.52952 46.1421 5.15207 51.9985 10.013C51.671 8.32584 51.0411 6.71119 50.1388 5.24632C52.2884 7.10221 53.9858 9.42059 55.1025 12.026L55.9141 9.7706C56.0899 10.4439 56.2589 11.0767 56.428 11.7298C59.0764 11.2053 61.8123 11.3184 64.4079 12.0597L59.4644 13.689C61.642 12.9753 65.1856 14.167 66.9709 15.3317C69.2074 16.9066 71.0191 19.0063 72.2457 21.4449C73.5082 23.7289 74.4329 26.1824 74.9913 28.7295C75.035 27.6385 75.0124 26.5458 74.9237 25.4575Z" fill="#772F1E"/>
</g>
<path d="M7.81763 72.4432C7.81763 72.4432 12.4703 70.107 11.2801 63.3071C11.2801 63.3071 34.9897 67.9122 43.7405 79.4114C43.7405 79.4114 56.887 69.9858 78.7234 65.852C78.7234 65.852 78.365 71.6016 81.9491 74.1196L46.9189 94.0413L7.81763 72.4432Z" fill="#FFEBDD"/>
<g style="mix-blend-mode:multiply" opacity="0.41">
<path d="M34.043 86.9253L66.5642 82.8857L81.9289 74.1334C80.6856 73.2022 79.7772 71.8965 79.3388 70.4103L51.1185 77.9575C51.1185 77.9575 48.0348 80.9669 44.4032 81.1958C43.4277 81.3059 42.4412 81.1246 41.5694 80.675C40.6976 80.2254 39.9797 79.5279 39.5071 78.6711L10.2048 70.1006C9.61405 71.0646 8.79425 71.8692 7.81763 72.4435L34.043 86.9253Z" fill="#E79E82"/>
</g>
<g style="mix-blend-mode:multiply" opacity="0.41">
<g style="mix-blend-mode:multiply" opacity="0.41">
<path d="M33.3202 75.1029C33.3202 75.1029 21.0732 69.0436 11.4027 66.667C11.3384 67.2113 11.2206 67.748 11.051 68.2693C18.6248 70.0283 26.066 72.3117 33.3202 75.1029Z" fill="#E79E82"/>
</g>
<g style="mix-blend-mode:multiply" opacity="0.41">
<path d="M60.4447 73.8365C60.4447 73.8365 72.0493 70.4702 79.0486 69.3459C78.9131 68.7742 78.8182 68.1938 78.7646 67.6089C74.5717 68.8275 65.6046 71.5407 60.4447 73.8365Z" fill="#E79E82"/>
</g>
<g style="mix-blend-mode:multiply" opacity="0.41">
<path d="M78.7042 65.8527C56.8678 70.0202 43.7213 79.4457 43.7213 79.4457C34.9908 67.9129 11.2811 63.2876 11.2811 63.2876C11.3623 63.7589 11.4096 64.2032 11.4434 64.6341C16.5357 65.5093 32.9823 69.0776 43.9039 80.0786C43.9039 80.0786 60.6886 69.4412 78.7109 66.7212C78.6839 66.1961 78.7042 65.8527 78.7042 65.8527Z" fill="#E79E82"/>
</g>
</g>
<path d="M4.81555 72.4433L6.16807 70.6861L38.6488 79.5125C38.6488 79.5125 40.2786 82.2392 44.6675 82.2392C47.5619 82.2392 50.977 79.4115 50.977 79.4115L83.0046 70.6592L84.0393 72.4164L48.157 90.2711L4.81555 72.4433Z" fill="#B695F7"/>
<path d="M10.6862 104.679L4.823 72.4434L38.2099 81.842L40.9149 113.889L10.6862 104.679Z" fill="#864FF1"/>
<path d="M50.301 81.842L84.0396 72.4434L79.1029 105.628L51.1193 113.155L50.301 81.842Z" fill="#864FF1"/>
<path d="M38.2083 81.8418C39.9731 83.0945 42.0865 83.7677 44.254 83.7677C46.4215 83.7677 48.5349 83.0945 50.2998 81.8418L51.118 113.155C51.118 113.155 46.9185 118.743 40.9133 113.889L38.2083 81.8418Z" fill="#864FF1"/>
<path d="M38.2083 81.8418C39.9731 83.0945 42.0865 83.7677 44.254 83.7677C46.4215 83.7677 48.5349 83.0945 50.2998 81.8418L51.118 113.155C51.118 113.155 50.4418 115.673 46.1408 115.848C44.6462 115.915 42.8812 115.464 40.9133 113.875L38.2083 81.8418Z" fill="#864FF1"/>
<g style="mix-blend-mode:multiply" opacity="0.37">
<path d="M38.2083 81.8418C39.9731 83.0945 42.0865 83.7677 44.254 83.7677C46.4215 83.7677 48.5349 83.0945 50.2998 81.8418L51.118 113.155C51.118 113.155 50.4418 115.673 46.1408 115.848C44.6462 115.915 42.8812 115.464 40.9133 113.875L38.2083 81.8418Z" fill="#8E487A"/>
</g>
<g style="mix-blend-mode:multiply" opacity="0.13">
<path d="M10.6861 104.679L40.9149 113.889L38.8387 89.2549C38.1625 93.7994 36.9587 100.027 35.3492 102.37C32.6983 106.167 25.8275 109.257 15.5078 101.892C13.0056 100.108 10.774 97.4013 8.79932 94.338L10.6861 104.679Z" fill="#8E487A"/>
</g>
<g style="mix-blend-mode:multiply" opacity="0.13">
<path d="M74.7412 100.134C66.3556 105.729 56.8609 101.609 50.5785 92.2842L51.1195 113.155L79.1302 105.628L81.1589 92.0015C79.59 95.2937 77.5207 98.2964 74.7412 100.134Z" fill="#8E487A"/>
</g>
<g style="mix-blend-mode:multiply" opacity="0.37">
<path d="M38.6697 87.2354C38.6697 87.2354 44.6749 90.4064 50.4434 87.2354L50.5245 90.2717C50.5245 90.2717 46.1964 93.8737 38.9199 90.2717L38.6697 87.2354Z" fill="#8E487A"/>
</g>
<g style="mix-blend-mode:multiply" opacity="0.37">
<path d="M40.3669 107.412C42.013 108.232 43.8282 108.659 45.6688 108.659C47.5094 108.659 49.3247 108.232 50.9707 107.412L51.0586 110.778C49.5028 111.759 47.6994 112.279 45.8582 112.279C44.0169 112.279 42.2136 111.759 40.6577 110.778L40.3669 107.412Z" fill="#8E487A"/>
</g>
<path d="M83.6214 82.7448C83.6214 82.7448 81.9984 81.028 80.8758 81.2098C79.7532 81.3915 80.9164 83.0949 81.9646 83.9701C81.9646 83.9701 77.8191 82.8929 77.6501 83.7883C77.481 84.6838 81.1531 86.0101 81.1531 86.0101C81.1531 86.0101 77.224 85.5657 77.5081 86.616C77.7921 87.6663 81.099 88.0972 81.099 88.0972C81.099 88.0972 77.4134 87.9356 77.4337 88.7704C77.454 89.6053 80.6053 90.3391 82.3839 89.4437C83.0596 89.0963 83.628 88.5727 84.0281 87.9288C84.4283 87.285 84.6454 86.545 84.6561 85.7879C84.7143 85.2364 84.652 84.6789 84.4734 84.1536C84.2948 83.6283 84.0042 83.1477 83.6214 82.7448Z" fill="#FFBF94"/>
<path d="M5.8107 82.7448C5.8107 82.7448 7.43373 81.028 8.55632 81.2098C9.67891 81.3915 8.51574 83.0949 7.46754 83.9701C7.46754 83.9701 11.613 82.8929 11.7821 83.7883C11.9511 84.6838 8.27905 86.0101 8.27905 86.0101C8.27905 86.0101 12.2081 85.5657 11.9241 86.616C11.6401 87.6663 8.33315 88.0972 8.33315 88.0972C8.33315 88.0972 12.0188 87.9356 11.9985 88.7704C11.9782 89.6053 8.82682 90.3391 7.04826 89.4437C6.3725 89.0963 5.8042 88.5727 5.40401 87.9288C5.00382 87.285 4.78677 86.545 4.77603 85.7879C4.71781 85.2364 4.78015 84.6789 4.95874 84.1536C5.13734 83.6283 5.42798 83.1477 5.8107 82.7448Z" fill="#FFBF94"/>
</svg>
