<svg width="170" height="48" viewBox="0 0 170 48" fill="none" xmlns="http://www.w3.org/2000/svg">
<path d="M58.755 19.5272C58.755 19.9279 58.8445 20.2618 59.0682 20.4844C59.2918 20.7293 59.605 20.8406 60.0076 20.8406H71.3931C71.7958 20.8406 72.1313 20.7293 72.355 20.4844C72.5786 20.2395 72.6905 19.9279 72.6905 19.5272V11.2236C72.6905 10.8675 72.5786 10.5558 72.355 10.3109C72.1313 10.066 71.8405 9.93248 71.4379 9.93248C71.0352 9.93248 70.7444 10.066 70.5208 10.3109C70.2971 10.5558 70.2076 10.8675 70.2076 11.2236V18.7035H66.9642V11.2236C66.9642 10.8675 66.8523 10.5558 66.6287 10.3109C66.405 10.066 66.1142 9.93248 65.7116 9.93248C65.3089 9.93248 65.0181 10.066 64.7945 10.3109C64.5708 10.5558 64.4813 10.8675 64.4813 11.2236V18.7035H61.2379V5.28726C61.2379 4.93107 61.1261 4.61941 60.9024 4.37454C60.6787 4.12966 60.3879 3.99609 59.9853 3.99609C59.5826 3.99609 59.2918 4.12966 59.0682 4.37454C58.8445 4.61941 58.755 4.93107 58.755 5.28726V19.5272Z" fill="#243976"/>
<path d="M76.124 19.5494C76.124 19.9279 76.2134 20.2395 76.4371 20.4844C76.6384 20.7293 76.9516 20.8406 77.3542 20.8406C77.7569 20.8406 78.0476 20.7293 78.2713 20.4844C78.495 20.2395 78.6069 19.9279 78.6069 19.5494V16.0544L82.745 20.2395C83.4608 20.9964 84.1095 21.0409 84.691 20.4176C84.9147 20.195 85.0042 19.9056 84.9595 19.5717C84.9147 19.2378 84.7581 18.9261 84.4897 18.659L80.9332 15.342L84.1095 11.9805C84.3779 11.6911 84.5345 11.3795 84.5792 11.0678C84.6016 10.7561 84.5121 10.489 84.2884 10.2664C83.7068 9.73212 83.0805 9.82117 82.4095 10.5781L78.6069 14.8745V11.2236C78.6069 10.8675 78.495 10.5558 78.2713 10.3109C78.0476 10.066 77.7569 9.93248 77.3542 9.93248C76.9516 9.93248 76.6608 10.066 76.4371 10.3109C76.2134 10.5558 76.124 10.8675 76.124 11.2236V19.5494Z" fill="#243976"/>
<path d="M87.4101 15.3865C87.4101 17.0784 87.8798 18.4363 88.8193 19.4826C89.7587 20.5512 91.0561 21.0632 92.7561 21.0632C94.4337 21.0632 95.7535 20.5512 96.6929 19.4826C97.6324 18.4141 98.1245 17.0561 98.1245 15.3865C98.1245 13.7392 97.6324 12.3812 96.6929 11.3127C95.7535 10.2441 94.4337 9.70986 92.7561 9.70986C91.0561 9.70986 89.7587 10.2441 88.8193 11.2904C87.8798 12.359 87.4101 13.7169 87.4101 15.3865ZM90.0048 15.3865C90.0048 14.3625 90.2285 13.5166 90.7206 12.8487C91.1903 12.1809 91.8614 11.847 92.7561 11.847C93.6508 11.847 94.3219 12.1809 94.814 12.8265C95.2837 13.4943 95.5298 14.3402 95.5298 15.3865C95.5298 16.4551 95.2837 17.301 94.814 17.9466C94.3219 18.6144 93.6508 18.9261 92.7561 18.9261C91.8614 18.9261 91.1903 18.6144 90.7206 17.9466C90.2285 17.301 90.0048 16.4551 90.0048 15.3865Z" fill="#243976"/>
<path d="M107.712 24.7437C107.712 25.1222 107.801 25.4339 108.025 25.6787C108.249 25.9236 108.562 26.0349 108.964 26.0349C109.367 26.0349 109.68 25.9236 109.904 25.6787C110.128 25.4339 110.239 25.1222 110.239 24.7437V11.2236C110.239 10.8675 110.128 10.5781 109.904 10.3109C109.68 10.066 109.367 9.93248 108.964 9.93248H104.043C103.686 9.93248 103.372 10.0438 103.126 10.2664C102.858 10.489 102.724 10.8007 102.724 11.2236C102.589 14.3848 102.366 16.5219 102.053 17.6127C101.851 18.3028 101.493 18.6367 101.001 18.6367C100.286 18.6367 99.9053 18.9929 99.9053 19.6607C99.8829 20.0837 100.017 20.3953 100.308 20.5957C100.576 20.8183 100.957 20.9074 101.404 20.9074C102.791 20.9074 103.73 20.1059 104.222 18.5031C104.67 17.1007 104.938 14.9858 105.028 12.1586H107.712V24.7437Z" fill="#243976"/>
<path d="M120.542 19.5494C120.542 19.9279 120.631 20.2395 120.833 20.4844C121.034 20.7293 121.347 20.8406 121.75 20.8406C122.152 20.8406 122.443 20.7293 122.644 20.4844C122.846 20.2618 122.957 19.9501 122.957 19.5494V13.8505C122.957 11.0901 121.481 9.70986 118.551 9.70986C116.94 9.70986 115.71 9.99926 114.905 10.5335C114.346 10.8897 114.167 11.3349 114.346 11.847C114.435 12.1141 114.592 12.2699 114.838 12.359C115.084 12.448 115.352 12.448 115.621 12.359C115.733 12.3367 115.911 12.2922 116.158 12.2031L116.694 12.0473C116.806 12.0028 116.963 11.9583 117.142 11.9137C117.321 11.8692 117.522 11.847 117.701 11.8247C117.88 11.8247 118.059 11.8024 118.26 11.8024C119.155 11.8024 119.759 12.0028 120.072 12.4035C120.385 12.8042 120.542 13.3385 120.542 14.0508V14.2957C119.915 14.2067 119.133 14.1399 118.193 14.1399C116.806 14.1399 115.665 14.4515 114.748 15.0303C113.831 15.6091 113.384 16.5441 113.384 17.7908C113.384 18.7925 113.697 19.5939 114.323 20.1727C114.95 20.7738 115.844 21.0632 116.963 21.0632C118.618 21.0632 119.804 20.4399 120.542 19.1487V19.5494ZM117.634 19.1042C117.075 19.1042 116.65 18.9706 116.336 18.7035C116.023 18.4363 115.867 18.0579 115.867 17.5904C115.867 16.3438 116.761 15.7204 118.551 15.7204C119.401 15.7204 120.05 15.765 120.542 15.8318V16.2102C120.542 16.9671 120.273 17.6572 119.759 18.236C119.222 18.8148 118.529 19.1042 117.634 19.1042Z" fill="#243976"/>
<path d="M64.2353 28.4095C64.5931 28.2759 65.0852 28.0978 65.7116 27.8752C66.3155 27.6748 66.7405 27.519 66.9642 27.4077C67.7247 27.0515 68.0155 26.5618 67.7918 25.9162C67.5681 25.2929 66.9642 25.1593 66.0247 25.4932L63.43 26.4505C61.4168 27.2296 60.0524 28.2091 59.3142 29.389C58.5537 30.5688 58.1958 32.3052 58.1958 34.5981C58.1958 36.6907 58.6432 38.3158 59.5379 39.4289C60.4326 40.5419 61.7524 41.0985 63.5195 41.0985C65.1076 41.0985 66.3826 40.6087 67.3445 39.5847C68.2839 38.5829 68.776 37.314 68.776 35.7557C68.776 34.1974 68.351 32.9508 67.5234 32.0158C66.6734 31.0808 65.5326 30.5911 64.0563 30.5911C63.2958 30.5911 62.5576 30.7692 61.8418 31.1254C61.1261 31.4815 60.5668 31.9936 60.1642 32.7059C60.209 31.4593 60.7011 30.4353 61.6629 29.6784C62.155 29.2999 63.005 28.877 64.2353 28.4095ZM66.1813 35.8448C66.1813 36.8243 65.9352 37.6034 65.4655 38.1377C64.9958 38.6942 64.3471 38.9614 63.4971 38.9614C62.6695 38.9614 62.0208 38.6942 61.5734 38.16C61.1037 37.6257 60.88 36.8688 60.88 35.8893C60.88 34.9098 61.1037 34.1529 61.5958 33.5741C62.0655 33.0176 62.7142 32.7282 63.5195 32.7282C64.3695 32.7282 65.0181 33.0176 65.4879 33.5519C65.9352 34.1084 66.1813 34.8653 66.1813 35.8448Z" fill="#243976"/>
<path d="M74.8483 40.8759C74.5127 41.7218 74.1996 42.3674 73.9088 42.7903C73.5956 43.2133 73.2154 43.4137 72.7456 43.4137C72.4996 43.4137 72.097 43.3246 71.5378 43.1465C70.8667 42.9684 70.4417 43.102 70.218 43.5918C69.9272 44.2151 70.1509 44.7493 70.9114 45.1501C71.4035 45.4172 72.0075 45.5508 72.7233 45.5508C73.6851 45.5508 74.468 45.2391 75.072 44.5935C75.6759 43.9479 76.3022 42.7458 76.9733 40.9872L80.4627 31.7932C80.7982 30.8582 80.6417 30.2794 79.9706 30.0568C79.1654 29.7897 78.6285 30.1236 78.3154 31.0808L76.0114 37.8928L73.3943 30.9918C73.0364 30.0791 72.4325 29.7674 71.6272 30.0791C71.2246 30.2349 71.0009 30.502 70.9114 30.8805C70.822 31.2589 70.8667 31.6151 71.0457 31.949L74.8483 40.8759Z" fill="#243976"/>
<path d="M91.4441 40.8759V42.2561C91.4441 42.6123 91.5335 42.9016 91.7125 43.1243C91.8914 43.3469 92.1822 43.4582 92.5401 43.4582C93.2559 43.4582 93.6138 43.0575 93.6138 42.2561V40.0299C93.6138 39.7183 93.5243 39.4289 93.3454 39.2063C93.1664 38.9836 92.898 38.8723 92.5401 38.8723H91.9585V31.2589C91.9585 30.8805 91.8467 30.5688 91.623 30.3239C91.3993 30.1013 91.0862 29.9678 90.6835 29.9678H85.6283C84.7783 29.9678 84.3533 30.413 84.3086 31.2589C84.3086 31.3257 84.2862 31.5261 84.2862 31.86C84.2638 32.2162 84.2415 32.5056 84.2415 32.7727C84.2191 33.0398 84.1967 33.396 84.1744 33.8412C84.1296 34.2865 84.1073 34.6649 84.0625 34.9988L83.9507 36.1342C83.9059 36.5571 83.8388 36.9133 83.7717 37.225C83.6822 37.5366 83.6151 37.8038 83.5257 38.0709C83.4362 38.3381 83.3244 38.5384 83.2125 38.672C83.0783 38.8055 82.9665 38.8723 82.8323 38.8723H82.7204C82.3625 38.8723 82.1165 38.9836 81.9375 39.2063C81.7586 39.4289 81.6691 39.696 81.6691 40.0299V42.2561C81.6691 43.0575 82.027 43.4582 82.7428 43.4582C83.1007 43.4582 83.3691 43.3469 83.548 43.1243C83.727 42.9016 83.8388 42.6123 83.8388 42.2561V40.8759H91.4441ZM85.6059 38.8723C86.1204 37.4921 86.4112 35.2437 86.5007 32.1049H89.4756V38.8723H85.6059Z" fill="#243976"/>
<path d="M100.221 40.8759C99.8854 41.7218 99.5722 42.3674 99.2814 42.7903C98.9683 43.2133 98.588 43.4137 98.1183 43.4137C97.8722 43.4137 97.4696 43.3246 96.9104 43.1465C96.2393 42.9684 95.8143 43.102 95.5906 43.5918C95.2999 44.2151 95.5235 44.7493 96.2841 45.1501C96.7762 45.4172 97.3801 45.5508 98.0959 45.5508C99.0577 45.5508 99.8406 45.2391 100.445 44.5935C101.049 43.9479 101.675 42.7458 102.346 40.9872L105.835 31.7932C106.171 30.8582 106.014 30.2794 105.343 30.0568C104.538 29.7897 104.001 30.1236 103.688 31.0808L101.384 37.8928L98.767 30.9918C98.4091 30.0791 97.8051 29.7674 96.9999 30.0791C96.5972 30.2349 96.3735 30.502 96.2841 30.8805C96.1946 31.2589 96.2393 31.6151 96.4183 31.949L100.221 40.8759Z" fill="#243976"/>
<path d="M110.007 40.8759H122.019V42.2561C122.019 42.6123 122.109 42.9016 122.287 43.1243C122.466 43.3469 122.757 43.4582 123.115 43.4582C123.831 43.4582 124.189 43.0575 124.189 42.2561V39.8964C124.189 39.5847 124.099 39.2953 123.92 39.0727C123.741 38.8501 123.473 38.7388 123.115 38.7388H122.69V31.2589C122.69 30.9027 122.578 30.5911 122.355 30.3462C122.131 30.1013 121.84 29.9678 121.437 29.9678C121.035 29.9678 120.744 30.1013 120.52 30.3462C120.297 30.5911 120.207 30.9027 120.207 31.2589V38.7388H116.964V31.2589C116.964 30.9027 116.852 30.5911 116.628 30.3462C116.405 30.1013 116.114 29.9678 115.711 29.9678C115.309 29.9678 115.018 30.1013 114.794 30.3462C114.57 30.5911 114.481 30.9027 114.481 31.2589V38.7388H111.238V31.2589C111.238 30.9027 111.126 30.5911 110.902 30.3462C110.678 30.1013 110.388 29.9678 109.985 29.9678C109.582 29.9678 109.291 30.1013 109.068 30.3462C108.844 30.5911 108.755 30.9027 108.755 31.2589V39.5624C108.755 39.9631 108.844 40.2971 109.068 40.5197C109.291 40.7646 109.605 40.8759 110.007 40.8759Z" fill="#243976"/>
<path d="M135.131 36.3345C135.556 36.3345 135.891 36.2455 136.115 36.0674C136.339 35.8893 136.495 35.6222 136.607 35.2215C136.674 34.9543 136.719 34.6204 136.719 34.1752C136.719 32.8395 136.294 31.7709 135.489 30.9695C134.683 30.1681 133.565 29.7451 132.133 29.7451C130.523 29.7451 129.27 30.2794 128.331 31.3034C127.391 32.3497 126.922 33.7299 126.922 35.4663C126.922 37.2695 127.347 38.6497 128.241 39.6292C129.136 40.6087 130.411 41.0985 132.089 41.0985C133.565 41.0985 134.751 40.8091 135.623 40.2303C135.891 40.0522 136.07 39.8296 136.16 39.5624C136.249 39.2953 136.227 39.0282 136.093 38.8055C135.824 38.3381 135.354 38.2268 134.706 38.4939C133.766 38.8946 132.983 39.0727 132.335 39.0727C131.462 39.0727 130.769 38.8278 130.255 38.3381C129.718 37.8483 129.449 37.1805 129.427 36.3345H135.131ZM132.133 31.7709C132.872 31.7709 133.431 31.9936 133.811 32.3943C134.191 32.8172 134.393 33.3515 134.393 34.0193C134.393 34.242 134.37 34.4423 134.37 34.5759H129.427C129.494 33.6854 129.762 32.9953 130.232 32.5056C130.702 32.0158 131.328 31.7709 132.133 31.7709Z" fill="#243976"/>
<path d="M141.54 29.9678C141.137 29.9678 140.847 30.1013 140.623 30.3462C140.399 30.6133 140.287 30.9027 140.287 31.2589V44.037C140.287 44.4154 140.377 44.7271 140.6 44.972C140.824 45.2168 141.137 45.3281 141.54 45.3281C141.943 45.3281 142.256 45.2168 142.479 44.972C142.703 44.7271 142.815 44.4154 142.815 44.037V32.1939H146.55C147.356 32.1939 147.758 31.8377 147.758 31.1031C147.758 30.3462 147.356 29.9678 146.55 29.9678H141.54Z" fill="#243976"/>
<path d="M149.367 35.4218C149.367 37.1137 149.837 38.4716 150.776 39.5179C151.716 40.5865 153.013 41.0985 154.713 41.0985C156.391 41.0985 157.711 40.5865 158.65 39.5179C159.589 38.4494 160.082 37.0914 160.082 35.4218C160.082 33.7745 159.589 32.4165 158.65 31.348C157.711 30.2794 156.391 29.7451 154.713 29.7451C153.013 29.7451 151.716 30.2794 150.776 31.3257C149.837 32.3943 149.367 33.7522 149.367 35.4218ZM151.962 35.4218C151.962 34.3978 152.186 33.5519 152.678 32.884C153.147 32.2162 153.818 31.8822 154.713 31.8822C155.608 31.8822 156.279 32.2162 156.771 32.8617C157.241 33.5296 157.487 34.3755 157.487 35.4218C157.487 36.4904 157.241 37.3363 156.771 37.9819C156.279 38.6497 155.608 38.9614 154.713 38.9614C153.818 38.9614 153.147 38.6497 152.678 37.9819C152.186 37.3363 151.962 36.4904 151.962 35.4218Z" fill="#243976"/>
<path d="M129.737 16.7222C129.737 10.9232 134.438 6.22217 140.237 6.22217H162.208C166.511 6.22217 170 9.71054 170 14.0137C170 18.3168 166.511 21.8052 162.208 21.8052H130.737C130.185 21.8052 129.737 21.3575 129.737 20.8052V16.7222Z" fill="#49B3F7"/>
<path d="M134.957 14.9204C134.957 15.6455 135.162 16.2274 135.572 16.6759C135.982 17.1338 136.549 17.3532 137.291 17.3532C138.023 17.3532 138.6 17.1338 139.01 16.6759C139.42 16.2179 139.635 15.6359 139.635 14.9204C139.635 14.2144 139.42 13.6324 139.01 13.1744C138.6 12.7165 138.023 12.4875 137.291 12.4875C136.549 12.4875 135.982 12.7165 135.572 13.1649C135.162 13.6229 134.957 14.2048 134.957 14.9204ZM136.09 14.9204C136.09 14.4815 136.187 14.119 136.402 13.8327C136.607 13.5465 136.9 13.4034 137.291 13.4034C137.682 13.4034 137.975 13.5465 138.19 13.8232C138.395 14.1094 138.502 14.472 138.502 14.9204C138.502 15.3783 138.395 15.7409 138.19 16.0175C137.975 16.3038 137.682 16.4373 137.291 16.4373C136.9 16.4373 136.607 16.3038 136.402 16.0175C136.187 15.7409 136.09 15.3783 136.09 14.9204Z" fill="white"/>
<path d="M140.561 16.7045C140.561 16.8667 140.6 17.0002 140.698 17.1052C140.796 17.2101 140.932 17.2578 141.108 17.2578C141.284 17.2578 141.421 17.2101 141.518 17.1052C141.616 17.0002 141.665 16.8667 141.665 16.7045V15.4737C141.665 15.1875 141.685 14.9299 141.724 14.7009C141.763 14.4815 141.821 14.2716 141.899 14.0713C141.978 13.8709 142.105 13.7183 142.261 13.6038C142.417 13.4988 142.612 13.4416 142.847 13.4416C143.394 13.4416 143.677 13.8041 143.677 14.5101V16.7045C143.677 16.8667 143.716 17.0002 143.814 17.1052C143.911 17.2101 144.048 17.2578 144.224 17.2578C144.4 17.2578 144.537 17.2101 144.634 17.1052C144.732 17.0002 144.781 16.8667 144.781 16.7045V14.5292C144.781 13.8614 144.654 13.3462 144.4 13.0027C144.146 12.6593 143.716 12.4875 143.111 12.4875C142.798 12.4875 142.515 12.5543 142.261 12.6879C142.007 12.8214 141.802 13.0218 141.665 13.2794V13.1363C141.665 12.9836 141.616 12.8501 141.518 12.7451C141.421 12.6402 141.284 12.5829 141.108 12.5829C140.932 12.5829 140.796 12.6402 140.698 12.7451C140.6 12.8501 140.561 12.9836 140.561 13.1363V16.7045Z" fill="white"/>
<path d="M148.324 15.1875C148.48 15.1875 148.607 15.1494 148.705 15.0635C148.803 14.9872 148.851 14.8631 148.851 14.7105C148.851 14.5674 148.803 14.4529 148.705 14.367C148.607 14.2812 148.48 14.2335 148.324 14.2335H145.941C145.784 14.2335 145.657 14.2812 145.56 14.367C145.462 14.4529 145.413 14.5674 145.413 14.7105C145.413 14.8631 145.462 14.9872 145.56 15.0635C145.657 15.1494 145.784 15.1875 145.941 15.1875H148.324Z" fill="white"/>
<path d="M149.489 15.7886C149.489 16.838 149.978 17.3532 150.964 17.3532C151.374 17.3532 151.697 17.2864 151.951 17.1433C152.263 16.9716 152.371 16.7522 152.263 16.466C152.214 16.361 152.136 16.2942 152.019 16.2561C151.902 16.2274 151.785 16.237 151.667 16.2847C151.472 16.361 151.306 16.3992 151.15 16.3992C150.945 16.3992 150.798 16.3419 150.72 16.2179C150.632 16.1034 150.593 15.9031 150.593 15.6359V11.2282C150.593 11.0755 150.544 10.9419 150.446 10.837C150.349 10.732 150.212 10.6748 150.036 10.6748C149.86 10.6748 149.724 10.732 149.626 10.837C149.528 10.9419 149.489 11.0755 149.489 11.2282V15.7886Z" fill="white"/>
<path d="M152.78 16.7045C152.78 16.8667 152.819 17.0002 152.917 17.1052C153.014 17.2101 153.151 17.2578 153.327 17.2578C153.503 17.2578 153.64 17.2101 153.737 17.1052C153.835 17.0002 153.884 16.8667 153.884 16.7045V13.1363C153.884 12.9836 153.835 12.8501 153.737 12.7451C153.64 12.6402 153.503 12.5829 153.327 12.5829C153.151 12.5829 153.014 12.6402 152.917 12.7451C152.819 12.8501 152.78 12.9836 152.78 13.1363V16.7045ZM152.692 11.3522C152.692 11.543 152.741 11.6957 152.858 11.7911C152.975 11.8865 153.132 11.9342 153.327 11.9342C153.522 11.9342 153.679 11.8865 153.796 11.7815C153.913 11.6861 153.972 11.543 153.972 11.3522C153.972 11.1805 153.913 11.0373 153.796 10.9324C153.679 10.8275 153.522 10.7702 153.327 10.7702C153.132 10.7702 152.975 10.8275 152.858 10.9324C152.741 11.0373 152.692 11.1805 152.692 11.3522Z" fill="white"/>
<path d="M155.06 16.7045C155.06 16.8667 155.099 17.0002 155.196 17.1052C155.294 17.2101 155.431 17.2578 155.607 17.2578C155.782 17.2578 155.919 17.2101 156.017 17.1052C156.115 17.0002 156.163 16.8667 156.163 16.7045V15.4737C156.163 15.1875 156.183 14.9299 156.222 14.7009C156.261 14.4815 156.32 14.2716 156.398 14.0713C156.476 13.8709 156.603 13.7183 156.759 13.6038C156.915 13.4988 157.111 13.4416 157.345 13.4416C157.892 13.4416 158.175 13.8041 158.175 14.5101V16.7045C158.175 16.8667 158.215 17.0002 158.312 17.1052C158.41 17.2101 158.547 17.2578 158.722 17.2578C158.898 17.2578 159.035 17.2101 159.133 17.1052C159.23 17.0002 159.279 16.8667 159.279 16.7045V14.5292C159.279 13.8614 159.152 13.3462 158.898 13.0027C158.644 12.6593 158.215 12.4875 157.609 12.4875C157.296 12.4875 157.013 12.5543 156.759 12.6879C156.505 12.8214 156.3 13.0218 156.163 13.2794V13.1363C156.163 12.9836 156.115 12.8501 156.017 12.7451C155.919 12.6402 155.782 12.5829 155.607 12.5829C155.431 12.5829 155.294 12.6402 155.196 12.7451C155.099 12.8501 155.06 12.9836 155.06 13.1363V16.7045Z" fill="white"/>
<path d="M163.789 15.3115C163.975 15.3115 164.121 15.2734 164.219 15.1971C164.317 15.1207 164.385 15.0062 164.434 14.8345C164.463 14.72 164.483 14.5769 164.483 14.3861C164.483 13.8137 164.297 13.3557 163.946 13.0123C163.594 12.6688 163.106 12.4875 162.48 12.4875C161.777 12.4875 161.23 12.7165 160.82 13.1554C160.41 13.6038 160.205 14.1953 160.205 14.9395C160.205 15.7122 160.39 16.3038 160.781 16.7236C161.172 17.1433 161.728 17.3532 162.461 17.3532C163.106 17.3532 163.623 17.2292 164.004 16.9812C164.121 16.9048 164.2 16.8094 164.239 16.6949C164.278 16.5804 164.268 16.466 164.209 16.3706C164.092 16.1702 163.887 16.1225 163.604 16.237C163.193 16.4087 162.852 16.485 162.568 16.485C162.187 16.485 161.885 16.3801 161.66 16.1702C161.426 15.9603 161.308 15.6741 161.299 15.3115H163.789ZM162.48 13.3557C162.803 13.3557 163.047 13.4511 163.213 13.6229C163.379 13.8041 163.467 14.0331 163.467 14.3193C163.467 14.4147 163.457 14.5006 163.457 14.5578H161.299C161.328 14.1762 161.445 13.8805 161.65 13.6706C161.855 13.4607 162.129 13.3557 162.48 13.3557Z" fill="white"/>
<path d="M5.88859 32.4109L10.0107 40.6157C25.0856 32.1766 24.4377 17.8574 22.6711 11.6063L14.1327 16.5877C14.1327 16.5877 16.1936 24.4992 5.88859 32.4109Z" fill="#49B3F7"/>
<path d="M33.1733 4.17478L23.9754 3.58075C23.6975 20.792 36.4494 27.4549 42.7645 29.0884L42.747 19.2383C42.747 19.2383 34.8428 17.0206 33.1733 4.17478Z" fill="#864FF1"/>
<path d="M44.3006 42.0168L49.5437 34.4722C34.856 25.382 22.5554 32.838 17.8995 37.3875L26.3962 42.4393C26.3962 42.4393 32.3729 36.834 44.3006 42.0168Z" fill="#49B3F7"/>
</svg>
