<svg width="114" height="248" viewBox="0 0 114 248" fill="none" xmlns="http://www.w3.org/2000/svg">
<path d="M60.5744 124.313C13.0512 123.78 2.79516 100.869 0.362768 85.5834C-0.877777 77.783 1.26701 71.6331 3.71526 65.3013C6.0645 59.2258 8.69218 52.9856 8.87553 44.96C8.93995 42.124 9.04184 38.761 9.37561 35.1945C10.9629 18.146 17.8095 -3.56044 50.9605 5.37305C50.9605 5.37305 57.0981 -1.99598 71.6837 0.52573C85.1948 2.86103 97.1884 15.5028 100.059 34.8206C100.288 36.3555 100.458 37.9327 100.568 39.5522C101.61 55.0007 106.039 60.2799 109.64 68.1512C111.452 72.0703 112.731 76.2158 113.442 80.4763C116.499 98.0287 108.098 124.847 60.5744 124.313Z" fill="#672410"/>
<g style="mix-blend-mode:multiply" opacity="0.28">
<path d="M60.5744 124.313C13.0512 123.78 2.79516 100.869 0.362768 85.5833C-0.877777 77.7828 1.26701 71.6329 3.71526 65.3011C3.69861 70.1479 5.08052 80.6252 16.7773 84.6354C32.2197 89.9299 34.3705 72.711 56.8499 72.811C79.3293 72.9094 81.2057 77.0784 94.9608 79.2358C103.332 80.5495 107.59 73.7079 109.64 68.151C111.452 72.0701 112.731 76.2156 113.442 80.4761C116.499 98.0285 108.098 124.846 60.5744 124.313Z" fill="#772F1E"/>
</g>
<path d="M22.1394 111.619C21.3572 111.624 20.5753 111.584 19.7976 111.499C19.0925 111.389 18.394 111.24 17.7054 111.053C16.3147 110.668 14.9883 110.079 13.7693 109.306C11.7945 108.104 10.209 106.355 9.20403 104.27C8.32251 102.156 8.0566 99.8359 8.43715 97.5773C8.84264 95.2566 9.4225 92.97 10.1718 90.737C10.8264 88.5083 11.5521 86.1528 11.3854 83.801C11.3852 83.7192 11.4143 83.6401 11.4675 83.578C11.5206 83.5159 11.5942 83.4751 11.6748 83.4629C11.7555 83.4507 11.8378 83.468 11.9069 83.5116C11.9759 83.5552 12.0269 83.6222 12.0508 83.7004C12.4979 86.059 12.4506 88.4851 11.9117 90.8243C11.0727 94.8046 9.20096 99.3912 11.1663 103.328C12.1242 105.191 13.6167 106.723 15.4512 107.727C16.5004 108.308 17.5992 108.794 18.7345 109.18C19.3671 109.401 20.0067 109.594 20.6492 109.787C21.2113 109.956 21.7182 110.217 22.2876 110.378C22.9449 110.561 22.8496 111.654 22.1394 111.619Z" fill="#772F1E"/>
<path d="M103.138 77.5127C102.701 81.4124 101.403 85.1655 99.3382 88.4995C97.6827 91.2301 95.7258 93.7652 93.5045 96.0568C92.4252 97.1728 91.281 98.224 90.0781 99.2049C89.4197 99.7393 88.7346 100.24 88.0253 100.704C87.4399 101.156 86.7852 101.51 86.0868 101.751C85.9661 101.78 85.8394 101.77 85.7251 101.721C85.6109 101.673 85.5151 101.589 85.452 101.482C85.3889 101.375 85.3618 101.25 85.3745 101.127C85.3873 101.003 85.4394 100.886 85.523 100.795C86.1311 100.138 86.8015 99.543 87.5246 99.017C88.1996 98.4202 88.8957 97.846 89.5692 97.2463C90.8574 96.1002 92.0837 94.8861 93.243 93.6092C97.0489 89.412 100.377 84.2206 101.372 78.4982C101.451 78.0435 101.514 77.586 101.563 77.1257C101.952 73.9622 101.447 70.7527 100.105 67.863C98.9451 65.5041 96.8817 62.8866 97.9953 60.116C98.0916 59.878 98.3969 60.0617 98.3701 60.2715C98.1111 62.2229 99.1697 63.8718 100.146 65.446C101.114 66.9286 101.885 68.5316 102.44 70.2142C103.148 72.5776 103.385 75.0576 103.138 77.5127Z" fill="#772F1E"/>
<path d="M94.9592 79.236C94.7192 81.5066 93.7812 83.6462 92.275 85.3588C90.8082 86.8834 89.1862 88.2498 87.4356 89.4357C85.7148 90.593 84.2286 92.0668 83.0555 93.7792C81.7798 95.9045 81.2513 98.3971 81.5543 100.859C81.5995 101.242 81.0666 101.253 80.9482 100.951C80.4541 99.6871 80.2367 98.3315 80.3107 96.9761C80.3848 95.6206 80.7485 94.297 81.3773 93.0948C83.3894 89.2251 87.6459 87.5138 90.5969 84.5682C92.1166 83.0564 93.1267 81.1061 93.4859 78.9902C93.5108 78.8563 93.5328 78.721 93.5517 78.5842C93.7017 77.3488 93.7441 76.1027 93.6785 74.8599C93.6393 73.5999 93.6086 72.3049 93.4834 71.0507C93.4829 70.9797 93.5079 70.911 93.5538 70.857C93.5997 70.8031 93.6635 70.7675 93.7334 70.7567C93.8033 70.746 93.8748 70.7608 93.9347 70.7985C93.9947 70.8362 94.0391 70.8942 94.0598 70.962C94.419 72.325 94.7081 73.7056 94.9261 75.0984C95.1056 76.4711 95.1167 77.8606 94.9592 79.236Z" fill="#772F1E"/>
<path d="M89.6361 76.6487C89.5221 77.1371 89.3737 77.6167 89.192 78.084C88.5177 79.7499 87.4775 81.242 86.1487 82.4492C84.2279 84.2667 81.9489 85.6175 79.9767 87.3705C78.2497 88.9091 76.6081 90.8454 76.2274 93.2324C76.0873 94.2221 76.1733 95.2309 76.4787 96.1825C76.7842 97.134 77.3013 98.0037 77.9908 98.7257C78.2711 99.0266 78.0108 99.6613 77.5675 99.4917C75.4885 98.6978 74.4829 96.4656 74.4611 94.2816C74.5531 91.8276 75.5499 89.4952 77.2584 87.7355C79.1103 85.6521 81.511 84.1872 83.7298 82.5567C85.5855 81.321 87.187 79.7393 88.4471 77.8975C88.716 77.4585 88.9429 76.9951 89.125 76.5134C89.1442 76.447 89.1886 76.3908 89.2487 76.3567C89.3087 76.3227 89.3797 76.3135 89.4463 76.3312C89.513 76.3488 89.5702 76.3919 89.6057 76.4512C89.6411 76.5106 89.652 76.5815 89.6361 76.6487Z" fill="#772F1E"/>
<path d="M73.406 87.833C69.7706 90.0724 69.6938 95.3069 71.7093 98.6956C71.7531 98.7714 71.7684 98.8603 71.7526 98.9464C71.7368 99.0325 71.6908 99.1101 71.6229 99.1653C71.5551 99.2204 71.4699 99.2494 71.3826 99.2471C71.2953 99.2448 71.2117 99.2113 71.1468 99.1527C70.2357 98.2468 69.5425 97.1444 69.1202 95.9294C68.7312 94.7217 68.6754 93.431 68.9587 92.1941C69.2063 91.087 69.714 90.0553 70.4395 89.1847C71.1651 88.3142 72.0876 87.63 73.1302 87.1892C73.5021 87.0276 73.7314 87.6326 73.406 87.833Z" fill="#772F1E"/>
<path d="M110.269 90.7747C110.266 95.1881 108.769 99.47 106.023 102.919C104.614 104.772 103.03 106.484 101.294 108.032C100.392 108.847 99.4652 109.631 98.5297 110.403C97.7359 111.24 96.7057 111.813 95.5775 112.046C95.4839 112.045 95.3916 112.023 95.3076 111.982C95.2237 111.94 95.1504 111.88 95.0933 111.805C95.0361 111.731 94.9967 111.644 94.9779 111.553C94.9592 111.461 94.9616 111.365 94.9851 111.275C95.4443 110.263 96.1885 109.409 97.126 108.817C97.9647 108.137 98.7944 107.449 99.6075 106.737C101.283 105.307 102.846 103.75 104.283 102.081C106.917 98.9351 109.118 94.9748 109.514 90.7855C109.515 90.6862 109.554 90.591 109.623 90.5204C109.693 90.4498 109.787 90.4094 109.886 90.408C109.985 90.4066 110.081 90.4442 110.152 90.5128C110.224 90.5814 110.266 90.6755 110.269 90.7747Z" fill="#772F1E"/>
<g style="mix-blend-mode:multiply" opacity="0.28">
<path d="M22.1394 111.619C21.3572 111.624 20.5753 111.584 19.7976 111.499C19.0925 111.389 18.394 111.24 17.7054 111.053C16.3147 110.668 14.9883 110.079 13.7693 109.306C11.7945 108.104 10.209 106.355 9.20403 104.27C8.32251 102.156 8.0566 99.8359 8.43715 97.5773C8.84264 95.2566 9.4225 92.97 10.1718 90.737C10.8264 88.5083 11.5521 86.1528 11.3854 83.801C11.3852 83.7192 11.4143 83.6401 11.4675 83.578C11.5206 83.5159 11.5942 83.4751 11.6748 83.4629C11.7555 83.4507 11.8378 83.468 11.9069 83.5116C11.9759 83.5552 12.0269 83.6222 12.0508 83.7004C12.4979 86.059 12.4506 88.4851 11.9117 90.8243C11.0727 94.8046 9.20096 99.3912 11.1663 103.328C12.1242 105.191 13.6167 106.723 15.4512 107.727C16.5004 108.308 17.5992 108.794 18.7345 109.18C19.3671 109.401 20.0067 109.594 20.6492 109.787C21.2113 109.956 21.7182 110.217 22.2876 110.378C22.9449 110.561 22.8496 111.654 22.1394 111.619Z" fill="#772F1E"/>
</g>
<g style="mix-blend-mode:multiply" opacity="0.28">
<path d="M73.406 87.833C69.7706 90.0724 69.6938 95.3069 71.7093 98.6956C71.7531 98.7714 71.7684 98.8603 71.7526 98.9464C71.7368 99.0325 71.6908 99.1101 71.6229 99.1653C71.5551 99.2204 71.4699 99.2494 71.3826 99.2471C71.2953 99.2448 71.2117 99.2113 71.1468 99.1527C70.2357 98.2468 69.5425 97.1444 69.1202 95.9294C68.7312 94.7217 68.6754 93.431 68.9587 92.1941C69.2063 91.087 69.714 90.0553 70.4395 89.1847C71.1651 88.3142 72.0876 87.63 73.1302 87.1892C73.5021 87.0276 73.7314 87.6326 73.406 87.833Z" fill="#772F1E"/>
</g>
<g style="mix-blend-mode:multiply" opacity="0.28">
<path d="M86.1487 82.449C84.2279 84.2664 81.9489 85.6172 79.9767 87.3702C78.2497 88.9088 76.6081 90.8451 76.2274 93.2321C76.0873 94.2219 76.1733 95.2306 76.4787 96.1822C76.7842 97.1338 77.3013 98.0034 77.9908 98.7254C78.2711 99.0263 78.0108 99.6611 77.5675 99.4915C75.4885 98.6975 74.4829 96.4654 74.4611 94.2813C74.5531 91.8274 75.5499 89.4949 77.2584 87.7352C79.1103 85.6518 81.511 84.187 83.7298 82.5564C85.5855 81.3208 87.187 79.739 88.4471 77.8972C88.6915 77.9604 88.9398 78.0226 89.1921 78.0838C88.5178 79.7497 87.4775 81.2417 86.1487 82.449Z" fill="#772F1E"/>
</g>
<g style="mix-blend-mode:multiply" opacity="0.28">
<path d="M87.4356 89.4359C85.7148 90.5931 84.2286 92.067 83.0555 93.7794C81.7798 95.9047 81.2513 98.3973 81.5543 100.859C81.5995 101.242 81.0666 101.253 80.9482 100.951C80.4541 99.6873 80.2367 98.3317 80.3107 96.9763C80.3848 95.6208 80.7485 94.2972 81.3773 93.095C83.3894 89.2253 87.6459 87.514 90.5969 84.5684C92.1166 83.0566 93.1267 81.1063 93.4859 78.9904C93.9622 79.0745 94.4518 79.157 94.9592 79.2362C94.7192 81.5068 93.7812 83.6464 92.275 85.359C90.8082 86.8836 89.1862 88.25 87.4356 89.4359Z" fill="#772F1E"/>
</g>
<g style="mix-blend-mode:multiply" opacity="0.28">
<path d="M99.3382 88.4993C97.6827 91.2299 95.7258 93.765 93.5045 96.0566C92.4252 97.1727 91.281 98.2239 90.0781 99.2047C89.4197 99.7391 88.7346 100.24 88.0253 100.704C87.4399 101.156 86.7852 101.51 86.0868 101.751C85.9661 101.78 85.8394 101.77 85.7251 101.721C85.6109 101.673 85.5151 101.589 85.452 101.482C85.3889 101.375 85.3618 101.25 85.3745 101.126C85.3873 101.003 85.4394 100.886 85.523 100.794C86.1311 100.138 86.8015 99.5429 87.5246 99.0168C88.1996 98.4201 88.8957 97.8458 89.5692 97.2461C90.8574 96.1 92.0837 94.886 93.243 93.609C97.0489 89.4119 100.377 84.2204 101.372 78.498C101.99 78.225 102.581 77.8951 103.138 77.5126C102.701 81.4122 101.403 85.1653 99.3382 88.4993Z" fill="#772F1E"/>
</g>
<g style="mix-blend-mode:multiply" opacity="0.28">
<path d="M110.269 90.7747C110.266 95.1881 108.769 99.47 106.023 102.919C104.614 104.772 103.03 106.484 101.294 108.032C100.392 108.847 99.4652 109.631 98.5297 110.403C97.7359 111.24 96.7057 111.813 95.5775 112.046C95.4839 112.045 95.3916 112.023 95.3076 111.982C95.2237 111.94 95.1504 111.88 95.0933 111.805C95.0361 111.731 94.9967 111.644 94.9779 111.553C94.9592 111.461 94.9616 111.365 94.9851 111.275C95.4443 110.263 96.1885 109.409 97.126 108.817C97.9647 108.137 98.7944 107.449 99.6075 106.737C101.283 105.307 102.846 103.75 104.283 102.081C106.917 98.9351 109.118 94.9748 109.514 90.7855C109.515 90.6862 109.554 90.591 109.623 90.5204C109.693 90.4498 109.787 90.4094 109.886 90.408C109.985 90.4066 110.081 90.4442 110.152 90.5128C110.224 90.5814 110.266 90.6755 110.269 90.7747Z" fill="#772F1E"/>
</g>
<path d="M43.6928 165.401C43.6928 165.401 45.7592 203.057 47.9055 221.347C47.9055 221.347 44.8458 231.891 43.6928 235.979C42.5398 240.068 43.0598 242.219 48.9167 242.219C54.7735 242.219 55.1249 234.043 54.6272 226.942C54.6272 226.942 53.513 215.322 53.6067 209.943C53.7004 204.563 54.4046 176.795 53.6067 167.66L43.6928 165.401Z" fill="#FFBF94"/>
<g style="mix-blend-mode:multiply" opacity="0.21">
<path d="M51.339 194.343C52.3747 198.065 53.1608 201.853 53.6919 205.681C53.8901 195.975 54.2736 175.302 53.6062 167.66L43.6922 165.401C43.6922 165.401 44.8201 183.375 45.3767 192.087C48.2052 192.565 51.339 193.699 51.339 194.343Z" fill="#DA8966"/>
</g>
<path d="M46.0407 227.791C46.0407 227.791 42.2178 236.948 40.6081 241.359C38.9984 245.77 41.8959 247.599 45.5446 247.922C49.1932 248.244 53.8347 247.599 54.787 245.447C55.7394 243.295 56.0883 233.804 54.787 227.791C54.787 227.791 54.6662 236.732 51.4468 237.378C48.2274 238.024 45.1153 238.454 45.008 236.195C44.9007 233.935 46.0407 227.791 46.0407 227.791Z" fill="#FF6551"/>
<path d="M54.787 227.791C54.7428 230.134 54.3793 232.46 53.7066 234.704C53.9242 237.842 53.7902 241.071 51.5004 243.941C50.5883 244.855 47.8518 245.77 45.1153 244.855C44.1553 244.533 43.2739 244.011 42.5285 243.324C41.783 242.637 41.1903 241.8 40.789 240.868C40.7264 241.037 40.6655 241.201 40.6081 241.359C38.9985 245.77 41.8959 247.599 45.5445 247.921C49.1932 248.244 53.8346 247.599 54.787 245.447C55.7393 243.295 56.0882 233.804 54.787 227.791Z" fill="#DF4C4B"/>
<path d="M69.5637 165.401C69.5637 165.401 67.4973 203.057 65.351 221.347C65.351 221.347 68.4107 231.891 69.5637 235.979C70.7167 240.068 70.1967 242.219 64.3398 242.219C58.483 242.219 58.1316 234.043 58.6293 226.942C58.6293 226.942 59.7435 215.322 59.6498 209.943C59.5561 204.563 58.8519 176.795 59.6498 167.66L69.5637 165.401Z" fill="#FFBF94"/>
<g style="mix-blend-mode:multiply" opacity="0.21">
<path d="M62.4642 193.419C60.4434 201.523 59.5646 205.681 59.5646 205.681C59.3664 195.975 58.9829 175.302 59.6503 167.66L69.5643 165.401C69.5643 165.401 68.4969 182.514 67.9403 191.226C65.1118 191.704 62.4642 192.775 62.4642 193.419Z" fill="#DA8966"/>
</g>
<path d="M67.2163 227.791C67.2163 227.791 71.0392 236.948 72.6489 241.359C74.2586 245.77 71.3611 247.599 67.7125 247.922C64.0638 248.244 59.4224 247.599 58.47 245.447C57.5177 243.295 57.1688 233.804 58.47 227.791C58.47 227.791 58.5908 236.732 61.8102 237.378C65.0296 238.023 68.1417 238.454 68.249 236.194C68.3564 233.935 67.2163 227.791 67.2163 227.791Z" fill="#FF6551"/>
<path d="M58.47 227.791C58.5142 230.134 58.8777 232.46 59.5504 234.704C59.3329 237.842 59.4668 241.071 61.7566 243.941C62.6688 244.855 65.4052 245.77 68.1417 244.855C69.1017 244.533 69.9831 244.011 70.7286 243.324C71.474 242.637 72.0667 241.8 72.4681 240.868C72.5306 241.037 72.5916 241.201 72.6489 241.359C74.2586 245.77 71.3612 247.599 67.7125 247.921C64.0638 248.244 59.4224 247.599 58.47 245.447C57.5177 243.295 57.1688 233.804 58.47 227.791Z" fill="#DF4C4B"/>
<path d="M29.1501 163.357C28.3989 161.205 26.1453 155.61 27.0684 152.706C27.9915 149.801 29.4721 148.187 29.9013 145.497C30.3306 142.807 33.3354 121.794 33.3354 121.794L38.8938 122.895C38.8938 122.895 36.5548 136.245 35.6962 139.795C34.8377 143.345 34.0866 144.744 34.4085 147.111C34.7304 149.478 36.7694 156.471 35.6962 157.117C34.6231 157.762 34.0622 156.256 33.5256 155.933C32.989 155.61 32.9061 157.977 33.4427 160.667C33.9792 163.357 32.8073 164.002 32.1592 163.357C31.511 162.711 30.6313 158.408 30.6313 158.408C30.6313 158.408 31.833 163.174 31.1891 163.588C30.5452 164.002 29.1501 163.357 29.1501 163.357Z" fill="#FFBF94"/>
<path d="M45.491 97.1523C45.491 97.1523 40.34 96.7978 38.1937 99.4145C36.0474 102.031 31.7328 118.207 30.4024 120.824C30.4024 120.824 32.3988 125.593 40.1253 124.087C40.1253 124.087 44.6622 106.555 45.491 102.279C46.3198 98.0041 45.491 97.1523 45.491 97.1523Z" fill="#FFC652"/>
<path d="M31.6899 117.321C31.3289 118.513 30.899 119.682 30.4024 120.824C30.4024 120.824 32.3988 125.592 40.1253 124.086C40.1253 124.086 40.6078 122.222 41.2852 119.567C37.8484 120.055 34.387 119.57 31.6899 117.321Z" fill="#F7A845"/>
<path d="M81.1572 163.357C81.9084 161.205 84.162 155.611 83.2389 152.706C82.3158 149.801 80.8353 148.187 80.406 145.497C79.9768 142.808 76.972 121.794 76.972 121.794L71.4136 122.895C71.4136 122.895 73.7526 136.245 74.6111 139.795C75.4696 143.346 76.2208 144.744 75.8989 147.111C75.5769 149.478 73.538 156.471 74.6111 157.117C75.6842 157.762 76.4354 154.858 76.972 154.535C77.5086 154.212 77.4013 157.978 76.8647 160.667C76.3281 163.357 77.5 164.003 78.1482 163.357C78.7963 162.711 79.676 158.408 79.676 158.408C79.676 158.408 78.4744 163.174 79.1183 163.588C79.7621 164.003 81.1572 163.357 81.1572 163.357Z" fill="#FFBF94"/>
<path d="M64.9153 97.1525C64.9153 97.1525 69.7987 96.6907 71.7084 98.4121C73.6182 100.134 75.7914 106.718 77.0417 111.592C78.1574 115.94 80.3685 122.676 80.3685 122.676C80.3685 122.676 74.9056 125.271 70.5007 124.733L65.7738 100.994L64.9153 97.1525Z" fill="#FFC652"/>
<path d="M69.6626 120.522L70.5011 124.732C74.906 125.27 80.3687 122.676 80.3687 122.676C80.3687 122.676 79.8543 121.108 79.198 119.002C76.3871 120.557 72.9696 120.584 69.6626 120.522Z" fill="#F7A845"/>
<path d="M40.9351 142.76C36.7495 151.005 32.4477 159.301 27.6087 167.184C27.823 170.677 29.2494 173.986 31.6409 176.535C36.6431 166.92 40.9033 156.935 44.3841 146.667C43.3121 145.298 42.1604 143.994 40.9351 142.76Z" fill="#6640D0"/>
<path d="M30.3839 165.169C30.3839 165.169 36.5155 152.317 39.3663 150.154C42.217 147.991 41.8696 150.93 41.4634 152.415C41.0572 153.9 34.466 168.13 33.3542 171.024C33.3542 171.024 30.4374 170.068 30.3839 165.169Z" fill="#864FF1"/>
<path d="M43.2923 144.566C38.8541 154.751 34.1826 164.365 28.8132 174.087C28.8315 175.843 29.409 177.547 30.4615 178.951C31.5139 180.354 32.9863 181.384 34.6636 181.89C41.0589 171.35 44.9881 159.455 47.2866 147.383C45.7246 146.195 44.9322 145.626 43.2923 144.566Z" fill="#6640D0"/>
<path d="M31.9056 171.759C31.9056 171.759 39.2707 154.873 41.9734 152.069C44.6763 149.266 44.5491 152.368 44.1965 153.856C42.3476 161.66 38.6762 169.657 35.7032 177.27C35.7032 177.27 32.1902 176.665 31.9056 171.759Z" fill="#864FF1"/>
<path d="M46.2464 142.62C42.8324 155.704 38.3596 168.488 32.8724 180.843C32.8724 180.843 35.8985 185.555 42.9066 185.804C46.1765 172.106 48.7066 158.241 50.486 144.269C48.8078 143.554 47.9601 143.219 46.2464 142.62Z" fill="#6640D0"/>
<path d="M36.4042 177.133C38.7531 168.535 42.006 160.212 46.1084 152.302C47.8893 148.941 48.9454 151.926 48.5226 153.45C46.0621 162.318 43.6552 171.753 42.6263 180.992C42.6263 180.992 35.8391 179.17 36.4042 177.133Z" fill="#864FF1"/>
<path d="M49.7966 144.715C47.8198 158.879 45.4091 172.913 42.6996 186.954C42.6996 186.954 49.0337 191.136 55.7672 188.025C55.7542 173.619 55.7461 159.213 55.743 144.808C53.3677 144.69 52.1792 144.67 49.7966 144.715Z" fill="#6640D0"/>
<path d="M46.4084 182.46C46.6306 172.497 48.1845 162.61 51.0284 153.062C52.2757 148.979 53.5143 151.671 53.5686 153.249C53.9155 163.311 53.6405 173.46 53.8825 183.567C53.8826 183.567 46.3582 184.424 46.4084 182.46Z" fill="#864FF1"/>
<path d="M70.957 142.76C75.1434 151.004 79.445 159.3 84.2842 167.184C84.0703 170.677 82.644 173.986 80.2525 176.536C75.2501 166.92 70.9897 156.935 67.5089 146.667C68.5806 145.298 69.7319 143.993 70.957 142.76Z" fill="#6640D0"/>
<path d="M81.5098 165.169C81.5098 165.169 75.378 152.317 72.5273 150.154C69.6768 147.991 70.0242 150.93 70.4305 152.415C70.8367 153.9 77.4281 168.13 78.54 171.024C78.54 171.024 81.4565 170.068 81.5098 165.169Z" fill="#864FF1"/>
<path d="M68.0629 144.566C72.5083 154.741 77.1841 164.365 82.5425 174.087C82.5241 175.843 81.9465 177.547 80.8939 178.951C79.8413 180.355 78.3688 181.384 76.6913 181.89C70.2968 171.35 66.3666 159.455 64.0692 147.382C65.631 146.195 66.4234 145.626 68.0629 144.566Z" fill="#6640D0"/>
<path d="M79.4488 171.759C79.4488 171.759 72.0833 154.873 69.3807 152.069C66.678 149.266 66.8076 152.363 67.1577 153.856C68.9925 161.682 72.6723 169.668 75.6511 177.27C75.651 177.27 79.164 176.666 79.4488 171.759Z" fill="#864FF1"/>
<path d="M63.882 143.396C67.5375 156.439 72.05 169.225 77.39 181.67C76.1187 183.271 74.5101 184.571 72.6793 185.475C70.8485 186.38 68.8408 186.868 66.7999 186.904C63.7516 173.031 61.4002 159.216 59.6514 145.119C61.325 144.378 62.1691 144.029 63.882 143.396Z" fill="#6640D0"/>
<path d="M73.4663 177.277C71.0863 168.654 67.9306 160.265 64.038 152.214C62.3524 148.844 61.1435 151.884 61.6222 153.391C64.4972 162.4 66.3607 171.702 67.1782 181.126C67.1782 181.126 74.0604 179.348 73.4663 177.277Z" fill="#864FF1"/>
<path d="M59.9299 143.063C62.2254 157.634 64.7349 172.162 67.2882 186.69C67.2882 186.69 61.7156 191.417 54.9128 188.379C55.1676 173.383 55.3675 158.387 55.5124 143.391C57.2756 143.212 58.1588 143.146 59.9299 143.063Z" fill="#6640D0"/>
<path d="M64.7587 182.431C64.0805 172.049 62.3086 161.768 59.4728 151.76C58.2587 147.614 56.9466 150.461 56.8918 152.073C56.535 162.569 56.941 173.315 57.2396 183.985C57.2396 183.985 64.9046 184.449 64.7587 182.431Z" fill="#864FF1"/>
<path d="M52.0906 94.8865C52.0906 94.8865 44.2787 96.4696 43.5165 97.1526C42.7543 97.8356 38.849 118.923 38.3871 122.473C37.9252 126.024 37.2813 141.194 37.2813 143.13C37.2813 145.067 41.7885 150.124 53.2711 150.446C64.7536 150.769 71.1924 147.111 72.3729 146.573C73.5533 146.035 74.4273 144.852 74.4732 140.871C74.5191 136.89 71.5144 113.866 70.3339 108.917C69.1535 103.968 68.0803 97.7607 66.5779 97.1526C61.8944 95.6523 57.0074 94.8879 52.0906 94.8865Z" fill="#F7A845"/>
<path d="M50.1693 97.1525C50.1693 97.1525 46.403 96.3605 44.7934 98.658C43.1837 100.956 41.3604 109.441 41.8428 115.392C42.3251 121.344 45.9738 129.305 45.9738 129.305C45.2226 131.206 42.0363 126.075 41.2851 126.72C40.5339 127.366 39.9654 136.952 41.8428 141.278C43.7202 145.605 49.4813 148.079 57.0101 147.541C64.539 147.003 66.8291 142.592 68.7962 139.257C70.7633 135.922 71.3418 128.119 70.5973 128.334C69.8529 128.549 70.9916 127.584 65.8268 129.628C65.8268 129.628 63.3045 130.596 65.3435 128.229C67.3824 125.862 68.617 126.884 69.3682 119.03C70.1194 111.176 67.3292 99.8033 66.1488 98.658C64.9683 97.5127 61.6416 97.6203 60.5685 97.9431C59.4953 98.2658 51.1166 97.87 49.2976 96.8896" fill="#FFC652"/>
<path d="M52.0903 94.8865C52.0903 94.8865 50.2764 95.2547 48.3127 95.7116C48.8333 97.1165 49.7602 98.3337 50.9747 99.2076C52.1893 100.081 53.6362 100.572 55.1305 100.617C56.7462 100.855 58.3947 100.542 59.8115 99.7278C61.2283 98.9138 62.3312 97.6463 62.9432 96.1286C59.3774 95.3436 55.7408 94.9274 52.0903 94.8865Z" fill="#F7A845"/>
<path d="M60.6061 96.192C60.6061 96.192 59.2612 99.0405 55.1176 98.6131C50.9728 98.1856 50.1064 96.0289 50.1064 96.0289L50.1708 93.7714L50.1695 93.7712L50.2617 90.5361L60.1568 88.6021L61.0861 88.4202L61.0355 89.2503L60.7688 93.5512L60.6061 96.192Z" fill="#EA9573"/>
<g style="mix-blend-mode:multiply" opacity="0.31">
<path d="M60.7697 93.5512C59.4112 94.923 57.6808 96.2998 56.1796 96.3385C53.205 96.4158 50.2461 93.8366 50.1717 93.7714L50.1704 93.7712L50.2626 90.5361L60.1577 88.6022L61.0364 89.2503L60.7697 93.5512Z" fill="#DD7258"/>
</g>
<path d="M85.7948 55.3276C85.7948 55.3276 90.6149 52.7653 93.3737 56.4579C96.1325 60.1505 91.9721 69.7047 88.7019 70.6877C85.4317 71.6707 84.1355 70.7567 84.1355 70.7567L85.7948 55.3276Z" fill="#FFBF94"/>
<path d="M25.0085 56.2461C25.0085 56.2461 20.1251 53.8304 17.4613 57.6049C14.7975 61.3795 19.1991 70.8043 22.493 71.6881C25.787 72.5719 27.0595 71.6191 27.0595 71.6191L25.0085 56.2461Z" fill="#FFBF94"/>
<path d="M87.8984 41.1118C87.8984 41.1118 87.1862 55.0391 85.9316 66.2594L85.9302 66.264L85.9302 66.2672L85.9251 66.3139C85.7367 67.9972 85.5361 69.62 85.324 71.1247L85.3201 71.1543C84.6822 75.6544 83.9409 79.0904 83.1112 79.9524C80.153 83.0234 63.1568 93.3348 56.4438 92.9586C49.7308 92.5824 31.9184 83.6044 29.0219 80.3029C28.095 79.2464 27.061 75.4919 26.0831 70.8746C24.0045 61.0646 22.1804 47.3608 22.1804 47.3608C22.6063 24.737 34.0679 16.9178 56.4617 15.7828C78.8555 14.6478 87.8984 41.1118 87.8984 41.1118Z" fill="#FFBF94"/>
<g style="mix-blend-mode:multiply" opacity="0.28">
<g style="mix-blend-mode:multiply" opacity="0.28">
<path d="M20.8866 41.9226C20.3911 39.4919 22.1006 37.1785 23.8326 35.3135C29.8273 28.9005 37.0669 23.7845 45.1064 20.2799C51.6133 17.4316 59.0316 15.6171 65.9455 17.3795C69.21 18.3525 72.3432 19.7228 75.2753 21.4597C76.6747 22.1464 77.9915 22.9907 79.2002 23.9763C80.2155 24.928 81.1101 26.0014 81.8638 27.1722C85.1379 31.932 87.7557 37.1133 89.6462 42.5757C90.1433 43.7332 90.3405 44.9979 90.2194 46.2523C89.9515 47.3891 89.386 48.4336 88.5812 49.2782C86.9357 51.1855 84.8911 52.7057 82.593 53.7307C81.6327 50.1564 80.6725 46.5822 79.7122 43.0079C78.9942 44.0271 78.0434 44.8592 76.9391 45.4349C75.8349 46.0106 74.6093 46.313 73.3647 46.3169C72.5495 43.033 70.8613 40.0322 68.4799 37.6339C66.8464 40.5189 63.7453 42.4437 60.4958 43.5819C60.2243 40.1939 59.337 36.8843 57.8775 33.8165L55.0066 42.8537C53.6154 42.6576 52.2874 42.1448 51.1244 41.3547C49.9614 40.5646 48.9942 39.5181 48.2969 38.2953C47.3573 39.4015 46.6545 40.6894 46.232 42.0792C45.8095 43.469 45.6763 44.931 45.8407 46.3745C43.8434 46.6731 41.8025 46.3756 39.9726 45.5192C38.1427 44.6628 36.6047 43.2854 35.5503 41.5586C34.8505 44.8663 34.1506 48.174 33.4507 51.4816C30.5826 51.0051 28.0117 49.4291 26.2815 47.0868C25.3429 49.5972 25.1529 52.327 25.7346 54.9437C25.7346 54.9437 23.6277 54.4586 23.1616 52.9244C22.6955 51.3903 20.8866 41.9226 20.8866 41.9226Z" fill="#DA8966"/>
</g>
</g>
<path d="M63.1988 21.2045C63.1988 21.2045 51.9879 26.7327 53.8102 40.8159C53.8102 40.8159 48.4369 38.7458 48.0618 32.9234C48.0618 32.9234 42.3398 38.0663 43.4736 45.1047C43.4736 45.1047 36.3126 42.6 37.0799 33.3873C37.0799 33.3873 30.9146 38.6899 33.2917 49.8513C33.2917 49.8513 27.4463 45.7942 27.2258 40.4297C27.2258 40.4297 23.0378 49.2313 25.5119 56.5573C23.8794 56.332 22.3478 55.6344 21.1046 54.5499C19.0162 52.6792 17.3313 49.0894 16.7058 42.1139C15.4835 28.4821 31.8866 11.5308 53.2791 12.2981C74.6716 13.0654 90.1583 27.4131 92.2426 38.8854C92.8699 42.18 92.7153 45.5763 91.7912 48.7999C90.8672 52.0235 89.1996 54.9839 86.9233 57.4418C88.6946 55.1646 86.0257 21.1369 63.1988 21.2045Z" fill="#672410"/>
<path d="M58.1591 21.8902C58.1591 21.8902 62.7384 31.1797 62.4247 40.9994C62.4247 40.9994 68.5921 35.8502 69.1448 32.775C69.1448 32.775 75.0005 37.5988 75.5508 45.4124C75.5508 45.4124 79.9593 41.9753 79.4604 37.995C79.4604 37.995 84.7203 42.674 84.2664 53.1091C84.2664 53.1091 88.6403 50.4305 88.8165 45.2948C88.8165 45.2948 85.3788 14.2925 58.1591 21.8902Z" fill="#672410"/>
<path d="M67.9303 49.5247C68.1937 49.9345 68.64 49.8834 69.0753 49.9233C69.5806 49.9697 70.0805 49.9633 70.587 49.9682C71.5702 49.9529 72.5474 50.1239 73.4673 50.4721C74.301 50.8543 75.0866 51.3342 75.8076 51.9019C76.1617 52.1812 76.532 52.4393 76.9166 52.6747C77.1347 52.8058 77.3657 52.9139 77.6059 52.9974C77.8353 53.0633 78.0628 53.0183 78.2875 53.0995C78.5568 53.1968 78.7174 52.8611 78.6168 52.6442C78.5061 52.4057 78.5296 52.1289 78.4075 51.8892C78.2654 51.6272 78.0954 51.3814 77.9005 51.1561C77.5371 50.7389 77.1309 50.3612 76.6886 50.0291C75.8009 49.329 74.794 48.7961 73.7166 48.4562C72.5872 48.1319 71.4008 48.0581 70.2401 48.24C69.8767 48.2878 67.4003 48.7 67.9303 49.5247H67.9303Z" fill="#5F130F"/>
<path d="M39.2177 50.6329C38.5168 49.8845 37.1526 50.1864 36.2652 50.3283C35.2549 50.5025 34.2758 50.8254 33.3596 51.2866C32.4647 51.7269 31.6293 52.2796 30.8736 52.9313C30.2179 53.4891 29.1258 54.5025 29.4144 55.4855C29.4544 55.6187 29.5354 55.7359 29.6459 55.8203C29.7563 55.9046 29.8905 55.9518 30.0292 55.9551C30.8364 56.0349 31.632 54.9945 32.2169 54.5296C32.8774 53.9983 33.5987 53.5477 34.3656 53.1874C35.1063 52.8574 35.8774 52.6007 36.6679 52.421C37.4873 52.2241 38.5979 52.3489 39.2322 51.7174C39.3669 51.5683 39.4403 51.3735 39.4376 51.1723C39.4349 50.9711 39.3563 50.7783 39.2176 50.6329H39.2177Z" fill="#5F130F"/>
<g style="mix-blend-mode:multiply" opacity="0.44">
<path d="M24.8677 68.061C22.961 67.0555 21.4986 65.371 20.7685 63.3389C20.4691 62.427 20.5223 60.9517 21.6405 60.7737C22.5642 60.6266 22.9598 61.9307 23.3832 62.5952C23.4307 62.6723 23.5049 62.7291 23.5916 62.7547C23.6783 62.7803 23.7713 62.7729 23.8529 62.7339C23.9345 62.695 23.9989 62.6272 24.0337 62.5436C24.0685 62.46 24.0713 62.3664 24.0415 62.2809C23.6475 61.0896 23.2657 59.5865 21.8918 59.4273C20.4833 59.2642 19.4426 60.632 19.3129 62.0463C19.1543 63.7753 20.1345 65.3757 21.0535 66.6867C22.0008 68.0381 23.1561 69.142 24.7935 68.7553C24.8596 68.7282 24.9172 68.6838 24.9602 68.6266C25.0031 68.5694 25.0298 68.5016 25.0374 68.4304C25.045 68.3592 25.0333 68.2873 25.0034 68.2222C24.9735 68.1572 24.9266 68.1015 24.8677 68.061Z" fill="#DA8966"/>
</g>
<g style="mix-blend-mode:multiply" opacity="0.44">
<path d="M92.1023 60.8093C92.0026 59.5024 90.9949 58.3508 89.7444 58.9175C88.8987 59.3007 87.5534 61.1205 88.4946 62.03C88.5181 62.0543 88.5471 62.0725 88.5791 62.0833C88.6111 62.094 88.6453 62.0969 88.6786 62.0917C88.712 62.0865 88.7436 62.0733 88.7709 62.0534C88.7981 62.0334 88.8202 62.0072 88.8353 61.9769C89.2911 61.2936 89.3359 60.1879 90.2355 59.9192C91.4678 59.5512 91.0926 61.8387 90.9635 62.4942C90.8305 63.2997 90.5327 64.0689 90.0889 64.7535C89.58 65.3651 88.9316 65.8449 88.1986 66.152C88.1643 66.177 88.1357 66.2088 88.1145 66.2455C88.0933 66.2823 88.0801 66.323 88.0757 66.3652C88.0712 66.4074 88.0757 66.4501 88.0887 66.4904C88.1018 66.5308 88.1232 66.5679 88.1515 66.5995C89.1506 67.7617 90.5626 66.158 91.1009 65.2021C91.8278 63.8567 92.174 62.3377 92.1023 60.8093Z" fill="#DA8966"/>
</g>
<path d="M63.5063 76.5621C63.1211 78.2136 62.3936 79.7653 61.3712 81.1165C60.6691 82.0243 59.7717 82.7616 58.7459 83.2736C57.7201 83.7855 56.5923 84.0588 55.4466 84.0732C54.1649 84.1493 52.8856 83.8877 51.736 83.3145C50.5864 82.7413 49.6065 81.8765 48.8937 80.806C48.0218 79.5393 47.377 78.1298 46.9885 76.6409C46.9305 76.4372 46.9454 76.2196 47.0305 76.0258C47.1136 75.8225 47.2694 75.6577 47.4675 75.5637C47.6656 75.4697 47.8915 75.4533 48.101 75.5178L48.3972 75.6103C52.92 77.0362 57.7823 76.9521 62.2534 75.3707C62.3739 75.3271 62.5019 75.3084 62.6298 75.3158C62.7577 75.3231 62.8828 75.3564 62.9975 75.4135C63.1122 75.4706 63.2143 75.5504 63.2974 75.6481C63.3805 75.7458 63.443 75.8594 63.4812 75.982C63.547 76.1685 63.5558 76.3706 63.5063 76.5621Z" fill="#831532"/>
<path d="M63.4805 75.982C61.1268 77.8072 58.2641 78.8514 55.2907 78.9694C52.2943 78.8968 49.3997 77.8653 47.0299 76.0258C47.1129 75.8225 47.2688 75.6577 47.4669 75.5637C47.6649 75.4697 47.8909 75.4533 48.1004 75.5178L48.3965 75.6103C52.9194 77.0362 57.7817 76.9521 62.2528 75.3707C62.3732 75.3271 62.5013 75.3084 62.6292 75.3158C62.7571 75.3231 62.8822 75.3564 62.9969 75.4135C63.1116 75.4706 63.2136 75.5504 63.2967 75.6481C63.3799 75.7458 63.4424 75.8594 63.4805 75.982L63.4805 75.982Z" fill="white"/>
<path d="M61.3708 81.1169C60.6687 82.0247 59.7714 82.762 58.7456 83.274C57.7198 83.7859 56.592 84.0592 55.4462 84.0736C54.1645 84.1496 52.8853 83.8881 51.7357 83.3149C50.5861 82.7417 49.6061 81.8769 48.8933 80.8064C52.9966 79.7124 57.3267 79.8201 61.3708 81.1169Z" fill="#FF6551"/>
<path d="M41.4086 73.956C41.7778 72.3927 39.7774 70.5793 36.9406 69.9058C34.1037 69.2323 31.5046 69.9536 31.1353 71.517C30.7661 73.0803 32.7664 74.8937 35.6033 75.5672C38.4402 76.2407 41.0393 75.5194 41.4086 73.956Z" fill="#F2786B"/>
<path d="M75.3434 75.0555C78.2176 74.5795 80.3357 72.9076 80.0743 71.3213C79.8129 69.7351 77.271 68.8351 74.3968 69.3111C71.5226 69.7872 69.4045 71.459 69.6659 73.0453C69.9273 74.6316 72.4692 75.5316 75.3434 75.0555Z" fill="#F2786B"/>
<g style="mix-blend-mode:multiply" opacity="0.21">
<path d="M86.2917 61.632L85.9259 66.3138L85.3248 71.1246L85.3209 71.1542C84.683 75.6543 83.9417 79.0902 83.112 79.9523C80.1538 83.0233 63.1576 93.3347 56.4446 92.9585C49.7316 92.5823 31.9192 83.6043 29.0227 80.3028C28.0958 79.2463 27.0618 75.4918 26.084 70.8745C25.013 66.1477 24.2 60.7289 24.2 60.7289C24.596 63.6932 27.0845 73.5477 29.8317 78.7051C31.686 82.1863 50.6165 90.1089 57.2063 90.3423C63.7962 90.5772 73.4579 83.5399 78.6287 80.493C83.7188 77.4941 86.2261 61.9722 86.2917 61.632Z" fill="#DA8966"/>
</g>
<g style="mix-blend-mode:screen" opacity="0.27">
<path d="M100.051 35.2094C83.6363 10.7682 64.6468 10.5497 55.9135 12.0753C52.3405 12.7019 48.711 12.9441 45.0868 12.7977C22.7729 11.8824 13.3178 25.3573 9.36713 35.5736C10.9518 18.3376 17.7951 -3.60686 50.9474 5.43006C50.9474 5.43006 57.084 -2.01918 71.67 0.532543C85.1814 2.89566 97.177 15.6785 100.051 35.2094Z" fill="#772F1E"/>
</g>
<g style="mix-blend-mode:multiply" opacity="0.21">
<g style="mix-blend-mode:multiply" opacity="0.21">
<path d="M54.7274 68.6998C53.7695 68.739 52.835 69.0089 52.0031 69.4866C51.9393 69.5179 51.8831 69.5628 51.8385 69.6183C51.6792 69.8462 51.9442 70.1352 52.1867 70.2626C53.7839 70.9524 55.5778 71.0318 57.2295 70.4858C57.6417 70.4144 58.0258 70.2289 58.3384 69.9501C58.519 69.7605 58.626 69.4234 58.4357 69.2442C58.3508 69.1773 58.2489 69.1355 58.1415 69.1235C56.5748 68.8114 54.9598 68.8374 53.4039 69.1996L54.7274 68.6998Z" fill="#DA8966"/>
</g>
</g>
<path d="M51.9169 69.8556C52.341 69.6863 52.6887 69.3793 53.1346 69.2315C53.6513 69.0801 54.1879 69.0083 54.726 69.0186C55.2342 68.9969 55.7432 69.0198 56.2474 69.087C56.7641 69.1709 57.2441 69.4075 57.6261 69.7663C57.7198 69.8506 57.8405 69.8985 57.9664 69.9013C58.0923 69.9042 58.2151 69.8619 58.3125 69.7819C58.41 69.702 58.4758 69.5898 58.4979 69.4656C58.5201 69.3413 58.4972 69.2132 58.4334 69.1044C57.7241 67.9004 55.9867 67.917 54.7953 67.9549C53.7797 67.9872 51.787 68.1361 51.5234 69.4604C51.479 69.6831 51.6779 69.951 51.9168 69.8556H51.9169Z" fill="#D88261"/>
<g style="mix-blend-mode:screen" opacity="0.11">
<g style="mix-blend-mode:screen" opacity="0.11">
<path d="M62.7034 51.7541C62.8319 47.292 57.6448 46.4613 54.3624 46.9334C52.4169 47.2133 49.2734 47.1379 47.6302 48.2064C46.8417 48.7404 46.2469 49.5159 45.9347 50.417C45.6226 51.3181 45.6097 52.2963 45.8982 53.2053C46.2415 54.0512 46.7057 54.8425 47.2762 55.5543C48.8138 57.7162 50.1745 59.9992 51.3452 62.3809C51.8681 63.4443 52.4633 64.631 53.5603 65.0035C53.9459 65.1085 54.3489 65.1326 54.7442 65.0744C55.1395 65.0161 55.5186 64.8767 55.8577 64.6649C57.2378 63.7739 58.2983 62.4646 58.885 60.9275C59.558 59.4277 60.0177 57.8277 60.773 56.3702C61.5472 54.8761 62.6545 53.4482 62.7034 51.7541Z" fill="#F8A37A"/>
</g>
</g>
<g style="mix-blend-mode:screen" opacity="0.27">
<g style="mix-blend-mode:screen" opacity="0.27">
<path d="M51.9582 9.18809C49.5771 9.99041 47.5778 12.1752 45.9098 14.0202C44.1492 15.9418 42.5801 18.0311 41.2247 20.2585C38.6321 24.5834 37.0441 29.6702 37.7912 34.7868C38.1608 37.3178 38.9981 40.3832 41.2904 41.7529C41.3291 41.7731 41.3728 41.7815 41.4162 41.777C41.4596 41.7726 41.5007 41.7555 41.5345 41.7279C41.5683 41.7003 41.5933 41.6633 41.6064 41.6216C41.6195 41.58 41.6201 41.5353 41.6082 41.4933C41.1139 39.3265 40.1109 37.3327 39.8129 35.1059C39.5171 32.8874 39.6225 30.6337 40.124 28.4527C41.21 23.7562 43.8021 19.661 46.7732 16.0029C47.6327 14.9446 48.5385 13.932 49.4907 12.965C50.4602 11.9768 51.5638 11.1343 52.4914 10.1046C52.8434 9.71389 52.482 9.01159 51.9582 9.18809Z" fill="#772F1E"/>
</g>
<g style="mix-blend-mode:screen" opacity="0.27">
<path d="M52.8033 15.6392C53.1898 15.0826 52.4002 14.302 51.8725 14.7042C48.634 17.1729 47.4581 21.7709 47.4995 25.7537C47.5376 28.0794 47.9424 30.3845 48.6989 32.5834C49.3877 34.6095 50.2405 37.1539 51.9265 38.5366C52.0033 38.5995 52.1576 38.5657 52.1441 38.4398C51.9216 36.3644 50.7701 34.4094 50.1846 32.4251C49.5457 30.3728 49.2027 28.2395 49.166 26.0899C49.1558 24.2042 49.4706 22.3308 50.0966 20.5525C50.7764 18.8011 51.6867 17.1488 52.8033 15.6392Z" fill="#772F1E"/>
</g>
<g style="mix-blend-mode:screen" opacity="0.27">
<path d="M47.7981 8.83675C45.1946 9.36871 42.8075 10.967 40.6667 12.5314C38.4772 14.1277 36.4394 15.9233 34.5793 17.8954C30.7308 21.9841 27.2628 26.7327 26.7593 32.5852C26.5223 35.7263 27.2431 38.8654 28.8262 41.5864C28.8799 41.6717 28.9626 41.7347 29.059 41.7637C29.1554 41.7927 29.259 41.7858 29.3507 41.7443C29.4424 41.7029 29.5161 41.6295 29.5582 41.5379C29.6002 41.4462 29.6079 41.3424 29.5796 41.2456C28.7439 38.7426 28.4327 36.0936 28.6656 33.4645C28.8984 30.8353 29.6703 28.2827 30.9329 25.9665C33.6037 21.5042 37.0755 17.5762 41.1729 14.3813C43.3976 12.5887 45.9212 11.1666 48.0309 9.23692C48.2215 9.06266 48.0055 8.79438 47.7981 8.83675Z" fill="#772F1E"/>
</g>
<g style="mix-blend-mode:screen" opacity="0.27">
<path d="M48.2462 6.66389C44.8992 6.31398 41.3391 7.80405 38.398 9.32265C35.3587 10.9016 32.5849 12.948 30.1773 15.3875C24.6215 21.0001 21.7007 28.5669 19.9212 36.2604C19.3425 38.6126 19.0191 41.0207 18.9566 43.4426C18.9262 44.6769 19.0188 45.9111 19.233 47.127C19.3445 47.7079 19.4958 48.2804 19.6859 48.8404C19.9215 49.3943 20.1917 49.9329 20.4947 50.4529C20.7414 50.9683 21.3921 50.5582 21.3166 50.0811C21.2257 49.5064 21.2784 48.9178 21.2139 48.3304C21.1645 47.8806 21.1304 47.4281 21.0971 46.9767C21.023 45.9743 20.951 44.9711 20.9569 43.9651C20.9795 41.9206 21.1972 39.883 21.6071 37.8801C22.4172 33.7641 23.6613 29.746 25.3184 25.8936C27.0177 22.0496 29.471 18.5876 32.5323 15.7137C35.5936 12.8398 39.2004 10.6128 43.1379 9.1652C44.8667 8.53511 46.6511 8.09889 48.35 7.3814C48.4304 7.35281 48.4984 7.29718 48.5424 7.22399C48.5865 7.15079 48.6038 7.06455 48.5916 6.97994C48.5794 6.89534 48.5382 6.81761 48.4753 6.75998C48.4123 6.70235 48.3313 6.6684 48.2462 6.66389Z" fill="#772F1E"/>
</g>
<g style="mix-blend-mode:screen" opacity="0.27">
<path d="M43.331 5.47209C42.5345 5.4289 41.736 5.44439 40.9417 5.51842C40.1394 5.62687 39.3401 5.75173 38.5439 5.90106C36.9183 6.20967 35.3092 6.60004 33.7227 7.07071C30.6136 7.94446 27.6819 9.35919 25.0613 11.2503C20.2804 14.7806 17.0855 20.0915 15.2301 25.7826C14.3167 28.6421 13.7214 31.594 13.4549 34.5846C13.1138 38.1634 13.4048 41.7844 12.983 45.3543C12.5187 48.882 11.4242 52.297 9.75199 55.4356C8.25449 58.367 6.55386 61.2971 5.90533 64.584C4.6847 70.7703 7.67666 77.8554 13.5853 80.1164C13.7639 80.1847 13.9257 79.896 13.7715 79.7753C9.6848 76.5772 6.79559 71.1426 7.55294 65.7491C7.99352 62.6117 9.54466 59.8067 11.0058 57.0741C12.6439 54.1847 13.8856 51.0869 14.6972 47.8645C15.5001 44.3304 15.4093 40.7767 15.5272 37.1775C15.6218 34.287 16.0119 31.4138 16.6915 28.6031C17.9065 23.1298 20.6277 18.1077 24.5463 14.1069C27.023 11.7527 29.9394 9.91265 33.128 8.69262C34.7854 8.0402 36.4888 7.51204 38.2242 7.11251C39.0491 6.91558 39.8791 6.73939 40.71 6.57171C41.6234 6.38734 42.4881 6.10735 43.3862 5.85373C43.4291 5.83867 43.4655 5.80912 43.4891 5.77015C43.5126 5.73118 43.5219 5.6852 43.5154 5.6401C43.5089 5.59499 43.4869 5.55357 43.4533 5.52292C43.4196 5.49227 43.3764 5.4743 43.331 5.47209Z" fill="#772F1E"/>
</g>
<g style="mix-blend-mode:screen" opacity="0.27">
<path d="M18.9251 99.5809C18.7597 99.6179 18.5866 99.5957 18.4359 99.518C18.2852 99.4404 18.1664 99.3123 18.1001 99.156C18.0337 98.9997 18.0241 98.825 18.0729 98.6623C18.1216 98.4996 18.2257 98.3592 18.3669 98.2654C20.381 97.0762 21.9231 95.2256 22.732 93.0269C23.4331 90.9373 23.4511 88.6779 22.7835 86.5773C22.0381 84.2357 20.7553 82.1021 19.0382 80.3477C15.7386 76.9029 10.3135 74.4041 10.6387 68.7649C10.6385 68.7209 10.6556 68.6786 10.6863 68.6472C10.717 68.6158 10.7588 68.5978 10.8026 68.5972C10.8465 68.5966 10.8888 68.6133 10.9204 68.6438C10.952 68.6744 10.9703 68.7161 10.9713 68.7601C11.3683 72.0072 14.3345 74.2944 16.7132 76.0577C18.933 77.5755 20.8985 79.4368 22.5366 81.5721C23.5779 83.0148 24.3603 84.6285 24.8488 86.3407C25.0642 87.1026 25.2152 87.8812 25.3002 88.6684C25.7765 93.0692 23.4902 98.6307 18.9251 99.5809Z" fill="#772F1E"/>
</g>
<g style="mix-blend-mode:screen" opacity="0.27">
<path d="M32.5331 91.6183C32.5269 94.0338 31.5347 97.0033 28.7986 97.1514C27.9736 97.1954 27.9645 96.0759 28.6022 95.7923C30.8414 94.7941 30.8674 91.7525 30.5747 89.6434C30.3564 87.9594 29.7584 86.3474 28.8262 84.9295C28.5251 84.4832 28.1851 84.0647 27.81 83.6788C26.2924 82.124 24.3716 81.0641 22.81 79.5529C21.3276 78.2224 20.3798 76.3958 20.144 74.4151C20.1099 74.0812 20.6036 74.0312 20.6908 74.3305C21.3634 76.649 23.436 78.2894 25.289 79.6048C27.1495 80.9263 29.049 82.1658 30.3665 84.0808C30.4634 84.2221 30.5574 84.368 30.6485 84.517C31.9094 86.6681 32.561 89.1234 32.5331 91.6183Z" fill="#772F1E"/>
</g>
<g style="mix-blend-mode:screen" opacity="0.27">
<path d="M38.3557 92.059C38.1886 93.325 37.0851 95.1748 35.617 94.8477C35.5389 94.8237 35.4682 94.7802 35.4115 94.7214C35.3547 94.6626 35.3137 94.5903 35.2923 94.5113C35.271 94.4322 35.2699 94.3491 35.2892 94.2696C35.3086 94.19 35.3477 94.1167 35.4029 94.0564C35.7866 93.663 36.2295 93.4711 36.5405 92.9759C36.8098 92.5491 36.9785 92.0663 37.0337 91.5642C37.1332 90.2626 36.7354 88.9718 35.9208 87.9534C35.7075 87.6621 36.1717 87.2905 36.3995 87.5601C37.4539 88.801 38.589 90.3029 38.3557 92.059Z" fill="#772F1E"/>
</g>
<g style="mix-blend-mode:screen" opacity="0.27">
<path d="M6.42435 95.2893C5.98294 94.9673 5.5829 94.5918 5.23333 94.1714C4.89427 93.7067 4.58662 93.2198 4.31245 92.7139C3.78412 91.7306 3.33587 90.7061 2.97207 89.6505C1.44841 85.378 0.98684 80.7974 1.62734 76.3057C1.81986 74.1145 2.48388 71.9912 3.57367 70.082C3.62365 70.0144 3.69673 69.9676 3.77896 69.9506C3.86118 69.9335 3.94678 69.9475 4.01939 69.9898C4.05804 70.0148 4.08851 70.0507 4.10702 70.093C4.12553 70.1353 4.13127 70.182 4.12354 70.2275C4.11567 70.3043 4.10634 70.3826 4.09697 70.4595C3.86284 72.4872 3.34438 74.4607 3.1921 76.5011C3.0335 78.6116 3.08683 80.7328 3.35129 82.8327C3.6193 84.9246 4.1058 86.9825 4.80279 88.9725C5.15636 89.9827 5.57209 90.9736 6.00095 91.952C6.20012 92.4093 6.40517 92.8618 6.59842 93.3222C6.78326 93.8381 6.93369 94.3657 7.04874 94.9015C7.07182 94.9817 7.06814 95.0672 7.03824 95.145C7.00835 95.2229 6.95388 95.2888 6.88315 95.3327C6.81241 95.3766 6.7293 95.3962 6.64646 95.3883C6.56363 95.3805 6.48563 95.3457 6.42435 95.2893Z" fill="#772F1E"/>
</g>
<g style="mix-blend-mode:screen" opacity="0.27">
<path d="M66.9919 25.7055C65.9767 23.4193 64.5626 21.3331 62.8161 19.5451C61.9369 18.5741 61.0387 17.6214 60.1539 16.6561C59.7221 16.185 59.3039 15.7044 58.9071 15.2015C58.5872 14.6984 58.2147 14.2309 57.7961 13.8069C57.7817 13.7932 57.764 13.7835 57.7448 13.7788C57.7256 13.7741 57.7055 13.7745 57.6864 13.7799C57.6674 13.7854 57.6501 13.7958 57.6363 13.81C57.6225 13.8243 57.6127 13.8419 57.6078 13.8611C57.3101 14.8401 58.1656 15.9494 58.6971 16.6692C59.4318 17.6644 60.2263 18.6008 61.0304 19.536C62.712 21.3189 64.1276 23.3362 65.2331 25.5254C66.263 27.6714 66.4424 30.1293 65.7351 32.4028C65.3747 33.483 64.8966 34.52 64.3094 35.495C63.658 36.3602 63.1895 37.3495 62.9325 38.4024C62.9194 38.5325 63.0883 38.5722 63.1655 38.4981C63.5789 38.0264 63.9529 37.5213 64.2834 36.988C64.6155 36.539 64.9625 36.1016 65.3086 35.6641C66.0895 34.7984 66.7494 33.8303 67.2701 32.7864C68.0999 30.4797 68.0001 27.9396 66.9919 25.7055Z" fill="#772F1E"/>
</g>
<g style="mix-blend-mode:screen" opacity="0.27">
<path d="M76.0173 26.7466C72.9815 22.4294 68.4858 19.7548 64.4042 16.6463C63.2277 15.7656 62.0988 14.8228 61.0223 13.8218C59.9252 12.7841 58.9278 11.6553 57.8686 10.5821C57.8405 10.5561 57.8046 10.54 57.7664 10.5363C57.7283 10.5327 57.69 10.5416 57.6574 10.5618C57.6248 10.5821 57.5997 10.6124 57.5859 10.6483C57.5722 10.6842 57.5705 10.7236 57.5812 10.7605C58.5575 12.9794 60.0632 14.9236 61.9656 16.4217C63.8466 18.0797 65.9132 19.5078 67.9106 21.0086C71.763 23.9031 75.8463 27.3453 77.0308 32.3531C77.631 35.3157 77.3886 38.3877 76.3313 41.2189C76.2111 41.5672 76.694 41.7042 76.8718 41.4452C79.9357 36.9804 78.9971 30.984 76.0173 26.7466Z" fill="#772F1E"/>
</g>
<g style="mix-blend-mode:screen" opacity="0.27">
<path d="M86.597 37.0495C86.2829 33.3422 85.2909 29.7245 83.6705 26.3773C82.0207 23.1596 79.6139 20.3932 76.6582 18.3175C73.8598 16.4384 70.8622 14.8762 67.7203 13.6595C66.021 12.9877 64.3644 12.2121 62.7599 11.337C61.2328 10.3722 59.7875 9.28311 58.4387 8.08064C58.2785 7.94836 57.9531 8.07348 58.0512 8.32106C59.1895 11.1922 62.251 12.9044 64.8117 14.2026C67.7672 15.701 70.8787 16.8052 73.7226 18.5444C76.6868 20.2713 79.2027 22.6751 81.0658 25.5604C82.9297 28.729 84.1026 32.2577 84.5071 35.9139C84.7913 38.207 84.949 40.514 84.9795 42.8245C85.0014 44.0412 85.0215 45.2491 85.0902 46.4642C85.1035 47.6001 85.2381 48.7313 85.4915 49.8385C85.5018 49.8733 85.5232 49.9039 85.5524 49.9254C85.5815 49.9469 85.617 49.9583 85.6532 49.9578C85.6894 49.9573 85.7245 49.9449 85.7531 49.9225C85.7816 49.9002 85.8021 49.869 85.8114 49.8339C86.4594 47.806 86.779 45.687 86.7581 43.5576C86.8432 41.387 86.7894 39.2132 86.597 37.0495Z" fill="#772F1E"/>
</g>
<g style="mix-blend-mode:screen" opacity="0.27">
<path d="M92.4588 35.1717C92.2394 30.7012 91.0198 26.3373 88.8902 22.4034C86.8211 18.7265 84.0463 15.4967 80.7259 12.9002C77.4056 10.3038 73.6054 8.39201 69.5444 7.27523C67.1979 6.60389 64.7869 6.1841 62.352 6.02291C59.8787 5.86024 57.3392 6.19076 54.9224 5.50905C54.8832 5.50101 54.8424 5.50579 54.8061 5.52268C54.7698 5.53956 54.7398 5.56768 54.7206 5.60289C54.7013 5.6381 54.6939 5.67856 54.6993 5.71834C54.7047 5.75811 54.7226 5.79511 54.7505 5.8239C56.2902 7.11621 58.3217 7.11787 60.2122 7.21103C62.3565 7.31936 64.488 7.60839 66.584 8.07506C70.7695 8.98513 74.7389 10.7012 78.272 13.1281C81.6218 15.4377 84.4492 18.4281 86.5707 21.905C88.6921 25.3819 90.06 29.2675 90.5854 33.3091C90.8818 36.024 90.9031 38.7621 90.6493 41.4813C90.4179 44.1718 89.835 46.897 89.9088 49.6034C89.9092 49.6549 89.9265 49.7049 89.9581 49.7456C89.9896 49.7863 90.0336 49.8155 90.0833 49.8286C90.1331 49.8418 90.1857 49.8381 90.2332 49.8183C90.2806 49.7985 90.3203 49.7636 90.346 49.719C91.3193 47.442 91.9223 45.0234 92.1319 42.5551C92.4562 40.1083 92.5656 37.6377 92.4588 35.1717Z" fill="#772F1E"/>
</g>
<g style="mix-blend-mode:screen" opacity="0.27">
<path d="M109.5 84.2145C108.869 88.2566 107.245 92.0781 104.776 95.3349C102.395 98.5959 99.0475 101.019 95.2108 102.257C95.0897 102.284 94.9628 102.268 94.8522 102.212C94.7417 102.155 94.6545 102.061 94.6059 101.947C94.5574 101.832 94.5505 101.704 94.5865 101.585C94.6225 101.466 94.6991 101.363 94.8029 101.295C95.6371 100.856 96.4415 100.362 97.2108 99.8171C103.494 95.3564 107.969 88.2254 107.718 80.1605C107.649 78.2395 107.37 76.3318 106.885 74.472C105.364 68.5096 102.089 63.0124 99.512 57.5175C97.6775 53.8593 96.338 49.9722 95.5288 45.9589C94.6745 41.0543 95.3964 36.0873 94.8625 31.1613C94.337 26.2996 91.7447 22.2281 89.3496 18.1369C87.1157 14.3226 84.677 10.5219 81.2598 7.72137C74.4135 2.10812 65.2627 2.58881 57.1409 4.06537C57.0443 4.08625 56.9433 4.06942 56.8587 4.01831C56.774 3.96719 56.7119 3.88564 56.6851 3.79026C56.6582 3.69487 56.6687 3.59282 56.7143 3.50488C56.7598 3.41694 56.8371 3.34973 56.9304 3.31692C57.9409 2.93404 58.9747 2.61598 60.0255 2.36468C68.5869 0.457028 77.9159 1.63929 84.4472 8.11431C87.6767 11.3163 90.0867 15.3076 92.4053 19.2281C93.7258 21.3512 94.8559 23.5875 95.7825 25.9108C96.6418 28.3759 97.0997 30.9637 97.1385 33.5748C97.2352 36.2389 97.0928 38.9064 97.1998 41.5703C97.2882 43.8378 97.6383 46.0874 98.2431 48.2741C99.4935 52.3176 101.117 56.2354 103.092 59.9768C105.131 63.8667 106.869 67.9076 108.291 72.064C109.611 75.9693 110.024 80.1249 109.5 84.2145Z" fill="#772F1E"/>
</g>
<g style="mix-blend-mode:multiply" opacity="0.28">
<path d="M7.04873 94.9015C7.07183 94.9817 7.06815 95.0672 7.03826 95.145C7.00837 95.2229 6.9539 95.2888 6.88317 95.3327C6.81243 95.3767 6.72931 95.3962 6.64648 95.3884C6.56364 95.3805 6.48564 95.3457 6.42436 95.2893C5.98294 94.9673 5.5829 94.5918 5.23333 94.1715C4.89427 93.7068 4.58663 93.2198 4.31246 92.7139C3.78412 91.7306 3.33587 90.7062 2.97208 89.6505C1.44841 85.378 0.986837 80.7974 1.62734 76.3057C1.81986 74.1145 2.48389 71.9912 3.57368 70.082C3.62365 70.0144 3.69673 69.9676 3.77896 69.9506C3.86119 69.9335 3.94679 69.9475 4.0194 69.9898C4.04373 70.1443 4.06962 70.3019 4.09693 70.4595C3.8628 72.4872 3.34434 74.4607 3.19206 76.5011C3.03346 78.6116 3.08679 80.7328 3.35124 82.8327C3.61926 84.9246 4.10576 86.9825 4.80275 88.9725C5.15632 89.9827 5.57205 90.9736 6.00091 91.952C6.20008 92.4093 6.40513 92.8618 6.59838 93.3222C6.78323 93.8381 6.93368 94.3657 7.04873 94.9015Z" fill="#772F1E"/>
</g>
<g style="mix-blend-mode:multiply" opacity="0.28">
<path d="M25.3019 88.6685C25.7782 93.0693 23.4919 98.6308 18.9267 99.5811C18.7614 99.618 18.5883 99.5958 18.4376 99.5182C18.2869 99.4405 18.168 99.3124 18.1017 99.1561C18.0354 98.9998 18.0258 98.8251 18.0745 98.6625C18.1233 98.4998 18.2273 98.3593 18.3686 98.2655C20.3826 97.0763 21.9247 95.2257 22.7336 93.0271C23.4347 90.9374 23.4528 88.6781 22.7851 86.5774C23.4787 86.5533 24.1693 86.4742 24.8504 86.3408C25.0658 87.1026 25.2168 87.8813 25.3019 88.6685Z" fill="#772F1E"/>
</g>
<g style="mix-blend-mode:multiply" opacity="0.28">
<path d="M30.6478 84.5169C31.9084 86.668 32.5599 89.1233 32.532 91.6182C32.5258 94.0337 31.5338 97.0033 28.7982 97.1513C27.9733 97.1953 27.9642 96.0758 28.6018 95.7923C30.8405 94.794 30.8665 91.7525 30.574 89.6433C30.3557 87.9593 29.7578 86.3473 28.8257 84.9295C29.3433 84.6705 29.8547 84.3856 30.3657 84.0808C30.4627 84.222 30.5567 84.3679 30.6478 84.5169Z" fill="#772F1E"/>
</g>
<g style="mix-blend-mode:multiply" opacity="0.28">
<path d="M36.3995 87.5602C37.4539 88.801 38.589 90.3029 38.3557 92.059C38.1886 93.3249 37.0851 95.1748 35.617 94.8477C35.5389 94.8237 35.4682 94.7802 35.4115 94.7214C35.3547 94.6625 35.3137 94.5902 35.2923 94.5112C35.271 94.4322 35.2699 94.3491 35.2892 94.2696C35.3086 94.19 35.3477 94.1167 35.4029 94.0564C35.7866 93.663 36.2295 93.4711 36.5405 92.9759C36.8098 92.549 36.9785 92.0662 37.0337 91.5642C37.1332 90.2626 36.7354 88.9718 35.9208 87.9534C35.7075 87.6621 36.1717 87.2905 36.3995 87.5602Z" fill="#772F1E"/>
</g>
<g style="mix-blend-mode:multiply" opacity="0.28">
<path d="M109.499 84.2146C108.868 88.2567 107.245 92.0781 104.775 95.335C102.395 98.596 99.047 101.019 95.2103 102.257C95.0892 102.284 94.9623 102.268 94.8517 102.212C94.7412 102.155 94.654 102.061 94.6054 101.947C94.5569 101.832 94.55 101.704 94.586 101.585C94.622 101.466 94.6986 101.363 94.8024 101.295C95.6366 100.856 96.441 100.362 97.2103 99.8172C103.494 95.3564 107.969 88.2254 107.718 80.1606C107.649 78.2395 107.369 76.3319 106.884 74.4721C107.403 73.6997 107.873 72.8955 108.291 72.0641C109.61 75.9694 110.023 80.125 109.499 84.2146Z" fill="#772F1E"/>
</g>
</g>
<path d="M39.9575 67.7293C43.3833 67.7293 46.1605 64.8609 46.1605 61.3226C46.1605 57.7844 43.3833 54.916 39.9575 54.916C36.5317 54.916 33.7546 57.7844 33.7546 61.3226C33.7546 64.8609 36.5317 67.7293 39.9575 67.7293Z" fill="white"/>
<path d="M45.2017 62.4949C45.0397 63.1157 44.7555 63.6978 44.366 64.207C43.9765 64.7162 43.4895 65.1423 42.9335 65.4603C42.3774 65.7782 41.7637 65.9816 41.1282 66.0586C40.4927 66.1355 39.8482 66.0844 39.2327 65.9083C37.9876 65.5175 36.9445 64.6535 36.3267 63.5014C35.709 62.3494 35.5657 61.0006 35.9274 59.7439C36.0895 59.1231 36.3736 58.541 36.7631 58.0318C37.1526 57.5226 37.6396 57.0965 38.1957 56.7785C38.7517 56.4605 39.3654 56.2571 40.0009 56.1802C40.6364 56.1032 41.2809 56.1543 41.8964 56.3304C43.1416 56.7213 44.1846 57.5852 44.8024 58.7373C45.4201 59.8894 45.5635 61.2382 45.2017 62.4949Z" fill="black"/>
<path d="M43.1032 63.513C43.0562 63.6934 42.9736 63.8625 42.8605 64.0105C42.7473 64.1585 42.6058 64.2823 42.4443 64.3747C42.2827 64.4671 42.1044 64.5262 41.9198 64.5485C41.7352 64.5709 41.5479 64.556 41.3691 64.5048C41.0074 64.3913 40.7044 64.1402 40.5249 63.8055C40.3454 63.4707 40.3038 63.0788 40.4089 62.7137C40.456 62.5333 40.5385 62.3641 40.6517 62.2162C40.7648 62.0682 40.9063 61.9443 41.0678 61.8519C41.2294 61.7595 41.4077 61.7004 41.5923 61.6781C41.777 61.6557 41.9642 61.6706 42.143 61.7217C42.5048 61.8353 42.8078 62.0864 42.9872 62.4212C43.1667 62.7559 43.2083 63.1478 43.1032 63.513Z" fill="white"/>
<path d="M65.4171 61.5717C65.5094 62.3936 65.7635 63.189 66.1644 63.9118C66.5654 64.6346 67.1054 65.2706 67.7531 65.7828C68.4009 66.2951 69.1435 66.6735 69.938 66.8961C70.7326 67.1188 71.5632 67.1812 72.382 67.0799C74.0365 66.826 75.5243 65.9283 76.5227 64.5816C77.5211 63.2348 77.9496 61.5477 77.7151 59.8862C77.6227 59.0643 77.3687 58.2689 76.9677 57.5461C76.5667 56.8233 76.0267 56.1873 75.379 55.6751C74.7313 55.1629 73.9887 54.7845 73.1941 54.5618C72.3996 54.3392 71.5689 54.2767 70.7501 54.3781C69.0957 54.6319 67.6079 55.5297 66.6095 56.8764C65.6111 58.2231 65.1826 59.9102 65.4171 61.5717Z" fill="white"/>
<path d="M66.3715 61.1015C66.4434 61.7407 66.641 62.3593 66.9528 62.9215C67.2647 63.4836 67.6847 63.9782 68.1885 64.3766C68.6923 64.775 69.2699 65.0692 69.8879 65.2424C70.5059 65.4155 71.152 65.4641 71.7889 65.3853C73.0757 65.1878 74.2329 64.4897 75.0094 63.4423C75.786 62.3949 76.1192 61.0828 75.9369 59.7907C75.865 59.1514 75.6674 58.5329 75.3555 57.9707C75.0437 57.4085 74.6237 56.9139 74.1199 56.5156C73.6161 56.1172 73.0384 55.8229 72.4205 55.6498C71.8025 55.4766 71.1564 55.4281 70.5195 55.5069C69.2327 55.7043 68.0755 56.4025 67.2989 57.4499C66.5224 58.4973 66.1891 59.8094 66.3715 61.1015Z" fill="black"/>
<path d="M67.7818 61.6864C67.8027 61.8722 67.8601 62.0519 67.9507 62.2153C68.0413 62.3786 68.1633 62.5223 68.3097 62.6381C68.4561 62.7539 68.6239 62.8394 68.8034 62.8897C68.9829 62.94 69.1706 62.9541 69.3557 62.9312C69.7295 62.8739 70.0657 62.671 70.2913 62.3666C70.5169 62.0623 70.6137 61.681 70.5607 61.3056C70.5399 61.1198 70.4825 60.9401 70.3919 60.7767C70.3012 60.6134 70.1792 60.4697 70.0329 60.3539C69.8865 60.2381 69.7187 60.1526 69.5392 60.1023C69.3596 60.052 69.1719 60.0379 68.9869 60.0608C68.6131 60.1182 68.2769 60.3211 68.0512 60.6254C67.8256 60.9297 67.7288 61.311 67.7818 61.6864Z" fill="white"/>
</svg>
