<svg width="109" height="305" viewBox="0 0 109 305" fill="none" xmlns="http://www.w3.org/2000/svg">
<path d="M21.1108 100.801C19.9428 100.026 18.8261 99.1757 17.7678 98.2547C11.0863 92.4065 7.45956 83.7635 5.26278 75.1255C2.18882 63.0382 0.590121 48.6713 4.86323 36.674C6.32902 32.5585 8.30649 28.6663 9.56331 24.465C11.2724 18.5296 14.1801 13.0138 18.104 8.26348C21.2493 4.53483 25.4579 1.49928 30.2554 0.735487C34.9287 0.11508 39.6575 1.36268 43.4292 4.21119C46.5344 1.20955 51.0058 -0.00878972 55.3092 4.77055e-05C63.2082 0.0163322 68.7891 2.20355 73.9792 8.07981C77.5908 12.1689 81.0183 16.4135 84.2618 20.8136C89.8144 28.3473 95.2676 37.3337 95.7669 46.9335C96.3137 57.445 93.6326 67.8667 89.875 77.5909C87.5063 83.7207 84.6531 89.7391 80.5407 94.8482C74.1867 102.751 65.1115 107.952 55.1223 109.417C45.5844 110.724 35.8222 108.336 27.1298 104.171C25.0474 103.191 23.0361 102.065 21.1108 100.801Z" fill="#662920"/>
<path d="M14.296 76.6248C14.4001 79.6057 14.7896 82.5696 15.4593 85.4751C17.191 92.0196 22.6074 96.5033 27.3082 100.975" stroke="#5B1F17" stroke-width="3" stroke-linecap="round" stroke-linejoin="round"/>
<path d="M24.5678 81.1249C26.6244 89.3867 29.7073 98.3233 39.4744 99.391" stroke="#5B1F17" stroke-width="3" stroke-linecap="round" stroke-linejoin="round"/>
<path d="M30.9644 83.4298C31.0271 89.2265 36.3043 93.3399 40.9508 95.7059" stroke="#5B1F17" stroke-width="3" stroke-linecap="round" stroke-linejoin="round"/>
<path d="M64.8164 84.9382C65.3097 91.7421 61.4346 97.1547 57.1995 102.025" stroke="#5B1F17" stroke-width="3" stroke-linecap="round" stroke-linejoin="round"/>
<path d="M63.5202 195.767C63.5202 195.767 60.1612 219.832 59.9745 223.404C59.7879 226.976 61.8407 235.813 61.7474 239.761C61.6541 243.709 58.295 265.33 58.1084 269.279C57.9218 273.227 57.3619 277.927 58.1084 280.747C58.8549 283.567 61.7407 290.336 61.9773 292.968C62.2139 295.6 53.8163 296.352 52.3234 295.036C50.8305 293.72 47.9778 280.889 48.0312 280.26C48.0847 279.632 47.0384 264.261 46.8581 259.561C46.6778 254.861 46.7185 240.228 46.5941 235.106C46.4697 229.985 44.3943 193.826 44.3943 193.826L63.5202 195.767Z" fill="#FFBF94"/>
<g style="mix-blend-mode:multiply" opacity="0.39">
<g style="mix-blend-mode:multiply" opacity="0.39">
<path d="M49.3374 230.737C48.4976 229.327 47.5645 225.661 47.3888 220.585C47.2131 215.508 47.3888 198.211 47.3888 198.211L44.588 197.223C45.1064 206.341 46.493 230.949 46.5939 235.107C46.7184 240.229 46.6777 254.861 46.858 259.562C46.8682 259.828 46.8816 260.133 46.8971 260.464L50.1772 262.256C50.1772 262.256 46.9856 245.581 48.0312 240.608C49.0768 235.634 49.4973 233.34 49.4973 233.34C49.4973 233.34 51.9501 233.369 53.0697 233.34C54.1894 233.311 54.7492 231.771 54.7492 231.771C52.1367 232.899 50.1772 232.147 49.3374 230.737Z" fill="#E6A07A"/>
</g>
<g style="mix-blend-mode:multiply" opacity="0.39">
<path d="M59.9744 223.405C59.9958 222.995 60.0606 222.305 60.1557 221.422C60.7416 215.986 62.5351 202.888 63.2351 197.821C61.2586 198.423 53.2535 197.359 50.4104 197.439C47.0513 197.533 48.9857 200.303 48.9857 200.303C48.9857 200.303 52.4164 204.728 59.8811 203.397C59.8811 203.397 61.0007 203.476 60.9074 205.638C60.8141 207.8 59.6011 216.167 59.6011 216.167C58.9312 218.731 58.4325 221.338 58.1082 223.969C57.9735 226.725 57.3411 229.432 56.2421 231.959C57.1027 230.672 57.8641 229.319 58.5197 227.915C59.4467 232.105 60.1503 236.342 60.6275 240.608C60.8155 242.8 60.9271 244.99 60.9941 246.831C61.4156 243.56 61.72 240.911 61.7472 239.762C61.8404 235.814 59.7877 226.977 59.9744 223.405Z" fill="#E6A07A"/>
</g>
</g>
<path d="M46.8584 259.561C46.8584 259.561 54.2831 260.748 59.415 259.561C59.415 259.561 57.5669 275.389 57.732 276.987C58.0276 278.704 58.4324 280.4 58.9439 282.064L62.5874 291.943C62.5874 291.943 55.2161 296.258 52.2303 295.6C49.2445 294.942 48.0315 287.516 48.0315 287.516L47.4654 279.713C47.4654 279.713 47.6457 268.339 47.4654 267.117C47.2851 265.895 46.8584 259.561 46.8584 259.561Z" fill="#FF6551"/>
<path d="M47.4655 279.713C46.9399 281.865 46.6133 284.062 46.4897 286.275C46.3521 289.583 47.4718 300.857 49.5246 302.74C51.5774 304.624 57.5423 304.436 61.9778 303.402C66.4132 302.368 66.8797 299.676 66.7864 298.813C66.6931 297.95 62.401 291.088 62.401 291.088C62.401 291.088 58.8553 294.004 54.8431 293.815C53.5257 293.805 52.2437 293.384 51.1741 292.61C50.1044 291.835 49.2998 290.745 48.8714 289.489C48.4982 288.267 47.4655 279.713 47.4655 279.713Z" fill="#2435A1"/>
<path d="M65.8734 296.904C62.6365 301.663 55.3414 302.63 51.8095 299.784C49.3056 297.766 47.7519 294.791 46.7459 291.465C47.1831 295.949 48.1414 301.473 49.5235 302.741C51.5762 304.625 57.5412 304.437 61.9767 303.403C66.4122 302.369 66.8786 299.676 66.7853 298.813C66.5543 298.144 66.2484 297.503 65.8734 296.904Z" fill="#243976"/>
<path d="M47.464 283.473C49.2516 281.629 51.6386 280.494 54.1884 280.277C58.2006 280.089 58.8587 280.42 58.8587 280.42L59.5136 283.444C57.4824 283.046 55.3871 283.131 53.3938 283.69C51.4005 284.25 49.5641 285.27 48.0302 286.669L47.464 283.473Z" fill="#2435A1"/>
<path d="M22.0793 179.486C22.0793 179.486 32.4351 215.584 32.5617 220.847C32.6883 226.109 31.8109 232.525 31.5015 240.243C31.1921 247.962 37.9826 280.143 37.9826 280.143L46.245 279.941C46.245 279.941 45.4482 255.512 45.6886 248.736C45.9289 241.96 47.4734 234.963 47.2631 228.386C47.0529 221.809 46.0837 179.318 46.0837 179.318L22.0793 179.486Z" fill="#FFBF94"/>
<g style="mix-blend-mode:multiply" opacity="0.39">
<path d="M45.628 226.086C46.2969 224.126 46.5972 222.057 46.5136 219.985C46.1341 221.986 45.4573 223.918 44.5059 225.715C44.3137 226.012 44.1575 226.331 44.0406 226.665C43.9756 226.923 43.9389 227.188 43.9313 227.455C43.8766 228.297 43.822 229.138 43.7674 229.98C43.7683 230.556 43.6527 231.125 43.4276 231.654C42.5051 233.478 39.7077 234.087 37.8214 234.515C39.0973 234.648 40.3852 234.608 41.6506 234.396C42.4383 234.33 43.1823 234.004 43.7676 233.469C44.1467 232.979 44.3775 232.389 44.4322 231.77C44.7425 229.875 44.8223 228.089 45.5381 226.316C45.5689 226.24 45.5989 226.163 45.628 226.086Z" fill="#E6A07A"/>
</g>
<g style="mix-blend-mode:multiply" opacity="0.39">
<path d="M45.6891 248.736C45.9296 241.96 47.474 234.964 47.2637 228.387C47.1289 224.169 46.6821 205.188 46.3788 192.109L26.8828 194.053L27.8295 200.269C27.8967 200.521 27.9638 200.774 28.0307 201.026C31.2293 202.132 34.6084 202.613 37.9861 202.441C43.1043 202.034 43.6631 201.204 44.9996 203.851C46.3362 206.498 46.5557 221.681 46.5557 221.681C46.5557 221.681 45.3355 231.443 45.1738 235.396C45.0119 239.349 44.0962 257.708 44.6197 260.657L45.6964 258.013C45.6371 254.125 45.6197 250.693 45.6891 248.736Z" fill="#E6A07A"/>
</g>
<g style="mix-blend-mode:multiply" opacity="0.39">
<path d="M34.1293 221.028C33.8599 224.288 34.5813 227.436 35.0869 230.639C35.1004 230.905 35.2016 231.158 35.3744 231.358C35.541 231.489 35.7355 231.579 35.9426 231.621C36.3784 231.746 36.9232 231.846 37.2323 231.532C37.1434 229.679 35.6324 228.157 35.1754 226.353C34.7705 224.755 33.9919 222.69 34.1293 221.028Z" fill="#E6A07A"/>
</g>
<path d="M33.7592 258.255C37.7029 259.199 41.8222 259.099 45.7158 257.963C45.7158 257.963 46.2992 277.119 47.2256 280.67C48.152 284.22 50.0561 292.073 48.874 295.299C47.6918 298.525 35.5931 296.563 34.6589 295.646C33.7247 294.728 36.9941 280.167 36.9941 280.167C36.9941 280.167 34.6042 263.299 33.7592 258.255Z" fill="#FF6551"/>
<path d="M34.4063 291.232C37.4053 291.718 40.4544 291.81 43.4768 291.504C48.1394 290.967 47.6869 290.709 47.9911 287.938C48.2953 285.167 47.0735 279.921 47.0735 279.921L46.8316 278.115C47.4989 280.778 51.6123 300.275 47.4629 303.339C43.3136 306.402 33.7632 304.647 31.9069 302.718C30.0506 300.788 34.4063 291.232 34.4063 291.232Z" fill="#2435A1"/>
<path d="M48.9044 289.917C48.7508 292.775 49.0504 295.761 48.5679 296.94C46.8293 301.206 35.6643 301.709 31.794 298.601C31.3702 300.418 31.2537 302.04 31.9062 302.718C33.7626 304.647 43.3129 306.402 47.4623 303.339C51.0662 300.678 49.8177 293.337 48.9044 289.917Z" fill="#243976"/>
<path d="M35.8235 284.678C39.8398 283.364 44.1287 283.138 48.2591 284.023L47.1526 280.345C47.1526 280.345 40.5869 279.173 36.5274 281.036L35.8235 284.678Z" fill="#2435A1"/>
<path d="M31.2444 153.406C31.2444 153.406 28.919 154.374 27.2367 159.746C25.5545 165.118 16.3487 202.174 16.3487 202.174C16.3487 202.174 18.2179 208.19 28.1246 205.784L36.9098 156.251L31.2444 153.406Z" fill="#243976"/>
<path d="M37.1905 153.406L27.3461 208.431C27.3461 208.431 32.8318 212.762 38.8897 211.8C44.9477 210.837 48.3122 206.198 50.1814 206.352L48.5475 154.72L37.1905 153.406Z" fill="#243976"/>
<path d="M47.3435 152.906L49.0204 206.688V209.393C49.0204 209.393 59.1028 213.965 67.0722 207.228L58.546 151.883L47.3435 152.906Z" fill="#243976"/>
<path d="M66.2443 150.654L79.7687 200.249C79.7687 200.249 72.5816 206.592 69.7491 206.352C66.9167 206.112 61.7999 206.359 61.7999 206.359L56.35 155.252L66.2443 150.654Z" fill="#243976"/>
<path d="M23.1976 199.923C24.9865 199.134 25.9118 196.654 26.6281 194.401C29.6174 185 32.2619 175.433 34.5616 165.7L32.9283 175.248C31.9357 181.05 30.9363 186.872 30.4537 192.789C30.0755 197.426 29.2182 203.689 33.2806 206.009C36.245 207.703 39.7927 206.794 42.59 204.682C43.7946 203.827 44.7679 202.682 45.421 201.351C46.2443 199.566 46.3654 197.404 46.466 195.332L47.9122 165.553C47.9787 176.225 48.052 186.98 49.7558 197.424C50.2422 200.405 51.0426 203.668 53.1113 205.148C54.3593 205.918 55.835 206.226 57.284 206.018C59.6493 205.868 62.518 204.736 62.9412 201.737C63.0208 200.913 62.994 200.082 62.8614 199.264L58.7557 164.745C59.4752 174.934 61.9926 184.751 64.4925 194.463C64.8061 196.138 65.4407 197.736 66.3608 199.167C66.7852 199.719 67.3421 200.153 67.979 200.428C68.616 200.704 69.312 200.811 70.0015 200.74C70.691 200.67 71.3513 200.423 71.9202 200.024C72.489 199.625 72.9477 199.087 73.253 198.46C73.4383 198.15 73.5619 197.806 73.6172 197.448C73.6468 196.985 73.5942 196.521 73.462 196.077C71.1143 186.15 67.9722 176.223 65.6245 166.296C64.6317 162.098 66.2244 157.799 59.9313 159.71C51.2985 162.33 43.6712 163.689 35.2608 160.063C28.7428 157.252 26.6723 167.107 25.3033 172.909C23.3291 181.276 20.7844 189.73 19.2623 198.252C20.0918 199.728 21.8681 200.51 23.1976 199.923Z" fill="#2435A1"/>
<path d="M60.354 164.775C61.1001 164.749 68.9933 163.604 68.9705 163.552L67.5323 160.283C67.4587 160.591 67.0239 160.566 66.7263 160.669C66.5201 160.762 66.3345 160.895 66.1805 161.062C64.9656 162.169 63.5881 162.293 62.1172 162.735C60.5765 163.277 58.9945 163.691 57.387 163.973C54.7199 164.327 52.1139 164.83 49.4166 164.969C43.9893 165.324 38.5461 164.586 33.4056 162.796C32.592 162.507 31.76 162.273 30.9153 162.096C31.6093 162.317 32.2475 162.687 32.7861 163.18C33.3247 163.673 33.7511 164.278 34.0358 164.953C34.3205 165.627 34.4569 166.356 34.4356 167.089C34.4143 167.822 34.2358 168.542 33.9124 169.199C34.7569 167.62 35.7876 165.889 37.5128 165.449C38.4622 165.282 39.4364 165.331 40.3647 165.591L45.5794 166.647C46.3112 166.706 46.9954 167.036 47.4996 167.573C48.3187 168.717 47.283 170.552 48.1617 171.65C48.6332 170.158 48.9611 168.623 49.1409 167.068C50.3647 166.526 51.6644 166.179 52.9938 166.038C53.6597 165.973 54.3315 166.063 54.9577 166.3C55.5838 166.538 56.1476 166.917 56.6057 167.408C56.8798 167.765 57.1163 168.15 57.3114 168.556L59.5272 172.79C59.1458 170.827 58.8915 168.842 58.7658 166.846C58.7227 166.161 58.7615 165.339 59.3419 164.98C59.6562 164.825 60.0048 164.755 60.354 164.775Z" fill="#243976"/>
<path d="M74.5937 149.63L74.5952 149.631C74.9067 150.015 75.3127 150.309 75.7726 150.484C76.2325 150.66 76.7301 150.711 77.2155 150.632C77.883 150.375 78.4557 149.917 78.8561 149.321C81.3742 146.163 81.9074 144.925 84.1869 140.303C86.5213 135.57 92.4422 121.619 93.9042 117.527C94.2757 116.488 95.6751 116.295 97.9991 115.715C100.322 115.134 102.141 109.658 103.5 108.341C104.858 107.023 109.908 103.912 108.857 102.431C107.805 100.951 102.372 105.765 102.069 104.935C101.765 104.105 107.812 95.6578 106.314 94.3952C104.817 93.1318 99.7831 101.966 99.2832 101.558C98.7833 101.15 103.207 91.9435 101.571 90.4419C99.9337 88.9402 96.1882 99.8875 95.6203 100.491C95.0524 101.095 97.8286 89.5669 96.4634 88.7385C95.099 87.9094 94.2413 92.0147 94.2413 92.0147C93.4387 94.6897 92.546 100.271 91.7434 102.946C91.7088 103.159 91.6327 103.363 91.5195 103.546C91.4063 103.73 91.2582 103.888 91.0838 104.014C90.6041 103.032 90.7723 101.853 90.6769 100.752C90.5924 99.7677 90.2862 98.8154 89.7817 97.9679C89.44 97.3525 88.9397 96.8414 88.3337 96.4888C88.0366 96.3202 87.7037 96.2262 87.3629 96.2148C87.0222 96.2034 86.6838 96.2748 86.3763 96.4232C86.1397 96.5367 85.9521 96.733 85.8486 96.9755C85.6234 97.5813 86.1434 98.1748 86.4963 98.7078C87.1686 99.8993 87.3948 101.294 87.1338 102.639C86.9499 103.988 86.5293 105.29 86.3491 106.64C86.091 107.986 86.3241 109.38 87.0053 110.566C87.5588 111.185 88.0731 111.838 88.5452 112.521C88.9444 113.54 89.0008 114.663 88.7057 115.717C88.6472 116.021 88.5824 116.324 88.5111 116.624C82.7872 127.914 74.9494 136.543 72.7556 142.759C71.9343 145.086 72.9324 147.905 74.5937 149.63Z" fill="#FFBF94"/>
<path d="M66.7384 125.116C66.7876 126.578 66.9259 128.035 67.1524 129.48C67.1823 129.666 67.2141 129.85 67.248 130.032C67.423 130.984 67.6056 127.958 67.7947 128.935L67.7953 128.938C69.8391 139.5 72.6474 148.653 74.5933 149.63L74.5948 149.631C75.2332 149.949 75.9553 148.355 76.6523 145.972C78.2758 140.415 79.7665 132.959 79.7665 132.959C79.7665 132.959 79.5974 131.796 79.3131 129.951C78.8666 127.052 78.1375 126.462 77.3353 122.054C76.943 119.891 76.5308 117.77 76.129 115.911C75.9032 114.871 75.6794 113.915 75.4629 113.079C73.5694 105.755 71.1379 101.611 69.6113 101.245C69.6113 101.245 66.315 114.316 66.7384 125.116Z" fill="#FFBF94"/>
<g style="mix-blend-mode:multiply" opacity="0.39">
<path d="M66.7389 125.116C66.7885 126.578 66.9268 128.036 67.1531 129.48C71.3 128.55 75.3547 124.369 77.3362 122.054C76.9435 119.891 76.5316 117.77 76.1295 115.911L76.1283 115.911L71.7671 119.737C69.9872 121.429 68.3082 123.225 66.7389 125.116Z" fill="#E6A07A"/>
</g>
<path d="M1.21066 130.653L3.19607 136.637C6.69509 137.342 10.5962 136.783 12.465 135.316C14.7369 133.533 28.2063 120.791 28.2063 120.791C27.0374 114.802 26.0917 105.972 25.3029 106.263C24.3398 106.62 20.9853 110.094 20.9853 110.094L1.21066 130.653Z" fill="#FFBF94"/>
<g style="mix-blend-mode:multiply" opacity="0.39">
<path d="M17.188 125.062C18.5623 126.223 28.7235 129.84 28.9307 129.793C29.2307 128.831 29.4824 127.855 29.6847 126.868C29.6847 126.868 29.5315 126.062 29.2742 124.744C28.9315 124.218 28.5577 123.713 28.1546 123.232L21.4165 119.352L18.1622 121.103C17.8479 122.366 17.5197 123.694 17.188 125.062Z" fill="#E6A07A"/>
</g>
<path d="M36.9471 94.8559C36.9471 94.8559 38.4504 100.605 38.5981 100.559C38.7459 100.512 61.1793 99.3844 61.1793 99.3844L59.483 97.4512L59.1488 96.4249C59.1488 96.4249 54.537 93.6602 56.3382 84.2533C56.5395 83.2166 56.7927 82.1908 57.0968 81.1799C57.3429 80.4068 57.4911 79.6056 57.5377 78.7951C57.8048 71.0176 41.8403 80.7491 41.7061 80.7443C41.4591 81.1454 41.2648 81.5771 41.1283 82.0286C40.8344 82.793 40.5433 83.617 40.5433 83.617C40.8372 84.619 41.0412 85.6457 41.1528 86.6845C41.4807 89.6621 41.1468 93.8728 36.9471 94.8559Z" fill="#E6A07A"/>
<g style="mix-blend-mode:multiply" opacity="0.39">
<path d="M40.5447 83.6173C40.8385 84.6194 41.0425 85.646 41.1541 86.6848C43.3624 87.5748 47.2781 89.0188 48.9214 88.8046C50.5385 88.5933 54.2062 85.9099 56.3395 84.2536C56.5409 83.2169 56.7941 82.1911 57.0982 81.1802C57.3442 80.4071 57.4924 79.6059 57.539 78.7954L49.8946 81.1143L41.1296 82.0289C40.8357 82.7933 40.5447 83.6173 40.5447 83.6173Z" fill="#E6A07A"/>
</g>
<path d="M65.3393 113.813C65.332 114.047 69.1242 119.175 68.9097 123.694C68.6952 128.212 65.5976 133.642 65.0638 136.667C64.5301 139.691 68.4232 157.052 68.4232 157.052C68.4232 157.052 52.7804 165.123 27.3779 158.212C27.3779 158.212 31.039 143.125 28.8439 135.016C28.0041 131.914 24.5852 122.665 30.2029 113.89C35.8206 105.116 62.0104 112.596 62.0104 112.596L65.3393 113.813Z" fill="#864FF1"/>
<path d="M29.1194 130.46C29.8516 131.044 30.626 131.572 31.4364 132.039C32.354 132.455 33.306 132.789 34.2815 133.038C36.5721 133.671 38.8961 134.24 41.2324 134.644C45.8895 135.547 50.6497 135.782 55.3721 135.343C56.6454 135.197 57.9074 134.964 59.1497 134.647C60.357 134.289 61.6037 134.083 62.8613 134.033C63.0485 134.032 63.1009 134.273 62.9917 134.403C61.4012 136.288 58.7654 136.989 56.5266 137.558C54.0988 138.149 51.6112 138.455 49.1135 138.47C46.4613 138.46 43.8197 138.133 41.2442 137.495C38.7477 136.948 36.2959 136.212 33.9099 135.292C32.7845 134.886 31.7226 134.319 30.7566 133.609C29.7585 132.951 29.0101 131.973 28.6328 130.832C28.6164 130.769 28.6191 130.701 28.6405 130.639C28.662 130.577 28.7011 130.523 28.7532 130.483C28.8052 130.443 28.8677 130.42 28.9329 130.416C28.998 130.412 29.063 130.427 29.1194 130.46Z" fill="#6640D0"/>
<path d="M13.2742 114.536C13.2742 114.536 16.4315 125.396 27.1817 127.714C27.4286 127.768 27.6804 127.816 27.9359 127.861C39.2933 129.819 66.9663 126.978 66.9663 126.978C67.4321 126.931 67.8923 126.839 68.3404 126.703C69.832 126.217 71.1978 125.403 72.3388 124.32C73.8262 122.864 75.1628 121.26 76.328 119.532C77.269 118.234 78.21 116.935 79.151 115.636C79.596 115.023 80.0406 114.41 80.4848 113.797C80.2685 114.096 76.3301 108.169 75.9754 107.53C74.6335 105.105 72.3739 100.302 70.3901 99.7636C62.8359 97.7135 58.4101 95.5032 58.2354 95.6124C58.2354 95.6124 55.1175 98.9341 47.0752 98.6483C39.0329 98.3624 36.9469 94.8557 36.9469 94.8557C36.9469 94.8557 30.2106 97.269 27.3225 98.3368C24.4899 99.3837 18.6321 111.586 13.5692 114.383C13.4711 114.438 13.3721 114.489 13.2742 114.536Z" fill="#864FF1"/>
<g style="mix-blend-mode:screen" opacity="0.14">
<path d="M31.7753 121.78C31.356 122.201 31.0476 122.721 30.8777 123.293C30.7079 123.864 30.682 124.469 30.8025 125.053C31.154 126.364 32.3731 127.156 33.5111 127.778C37.3937 129.987 41.6268 131.502 46.0227 132.255C50.4175 132.993 54.9293 132.494 59.0601 130.812C60.4178 130.311 61.6219 129.461 62.5527 128.346C64.0958 126.297 64.0531 123.35 63.4267 120.808C62.7248 117.96 61.8419 114.977 60.8931 112.217C60.61 111.474 60.2849 110.747 59.9191 110.041C59.8831 109.972 59.8254 109.918 59.755 109.886C59.6847 109.854 59.6059 109.847 59.5311 109.866C59.4564 109.885 59.3901 109.928 59.3427 109.99C59.2953 110.051 59.2697 110.126 59.2698 110.204C59.2642 112.184 59.1525 114.224 58.9642 116.193C58.9061 117.684 58.3778 119.118 57.456 120.286C56.4662 121.253 55.1969 121.878 53.8315 122.071C48.1328 123.229 43.0647 120.914 37.5293 120.173C35.5248 119.905 33.3002 120.218 31.8479 121.704C31.8234 121.729 31.7992 121.755 31.7753 121.78Z" fill="#FFC652"/>
</g>
<path d="M66.5524 116.406C67.4447 119.515 68.0129 122.709 68.2479 125.936C68.2634 126.193 68.2943 126.449 68.3405 126.703C69.8321 126.217 71.1979 125.403 72.3389 124.32C73.8263 122.864 75.163 121.26 76.3282 119.532C77.2691 118.234 78.2101 116.935 79.1512 115.637C77.8651 116.977 76.2534 117.955 74.476 118.473C73.4093 118.777 72.2856 118.818 71.1999 118.592C70.1142 118.366 69.0986 117.88 68.2387 117.175C67.4513 116.435 66.7816 115.578 66.2534 114.633C66.247 115.237 66.3483 115.838 66.5524 116.406Z" fill="#6640D0"/>
<path d="M13.2742 114.536C13.2742 114.536 16.4315 125.396 27.1817 127.714C27.2297 124.884 27.3365 122.498 28.2059 120.791C29.1311 118.97 30.1085 116.774 30.3107 116.315C29.6011 117.929 28.4285 119.292 26.9436 120.229C26.2082 120.685 25.3898 120.989 24.5364 121.122C23.6829 121.256 22.8116 121.216 21.9736 121.006C21.1609 120.763 20.3867 120.405 19.6744 119.942C17.3516 118.438 15.2893 116.56 13.5692 114.383C13.4711 114.438 13.3721 114.489 13.2742 114.536Z" fill="#6640D0"/>
<path d="M28.0004 120.301C28.4106 119.298 28.8641 118.315 29.3227 117.335C29.6626 116.353 30.208 115.457 30.922 114.706C30.9373 114.692 30.9563 114.683 30.9765 114.68C30.9968 114.677 31.0175 114.68 31.036 114.689C31.0544 114.698 31.0698 114.713 31.0803 114.73C31.0907 114.748 31.0957 114.769 31.0947 114.789C31.0459 115.842 30.7517 116.868 30.2358 117.785C29.8035 118.802 29.3751 119.822 28.9999 120.866C28.1847 122.898 27.7743 125.073 27.7919 127.265C27.9804 131.676 31.4929 136.873 29.4457 141.149C29.4457 141.149 29.2701 139.612 29.2524 139.387C28.8444 134.223 26.5257 131.117 26.5864 126.515C26.6645 124.372 27.1443 122.264 28.0004 120.301Z" fill="#6640D0"/>
<path d="M35.7019 96.3837C36.1562 96.5553 36.5675 96.8255 36.9066 97.175C37.3723 97.5492 37.8572 97.8985 38.3592 98.2214C39.0663 98.6826 39.799 99.1028 40.5537 99.4798C40.8387 99.121 41.1761 98.8077 41.5543 98.5508C41.7599 98.4301 42.0529 98.6547 41.9637 98.8775C41.8016 99.2293 41.5859 99.5534 41.3244 99.8381C41.8116 100.05 42.3078 100.24 42.8131 100.408C43.1149 99.8726 43.512 99.3974 43.9845 99.0065C44.0162 98.9899 44.0517 98.9817 44.0874 98.9827C44.1231 98.9837 44.158 98.9939 44.1887 99.0124C44.2194 99.0308 44.2449 99.0569 44.2628 99.0881C44.2807 99.1193 44.2903 99.1546 44.2909 99.1906C44.2492 99.5178 44.1419 99.8329 43.9754 100.117C43.8812 100.299 43.7931 100.493 43.694 100.68C44.7507 100.979 45.8296 101.191 46.9203 101.315C46.9571 100.974 47.0513 100.641 47.1988 100.332C47.277 99.9217 47.4891 99.5499 47.8012 99.2752C47.8356 99.2578 47.8754 99.2541 47.9125 99.265C47.9495 99.2758 47.9812 99.3003 48.0011 99.3336C48.1418 99.7457 48.1394 100.194 47.9942 100.604C47.9656 100.873 47.9107 101.139 47.8302 101.397C49.0016 101.474 50.1776 101.433 51.3409 101.275C51.2849 100.988 51.2868 100.692 51.3467 100.405C51.3511 100.083 51.4574 99.771 51.6503 99.514C51.6803 99.488 51.7155 99.4689 51.7536 99.458C51.7917 99.4471 51.8317 99.4448 51.8707 99.451C51.9098 99.4573 51.9471 99.4721 51.9799 99.4944C52.0127 99.5167 52.0403 99.5459 52.0608 99.58C52.1876 99.847 52.2475 100.141 52.2351 100.437C52.2722 100.663 52.2923 100.892 52.295 101.121C52.9622 100.996 53.6225 100.835 54.2729 100.64C54.4392 100.59 54.6043 100.537 54.7687 100.482C54.6762 100.224 54.6021 99.9594 54.5469 99.6907C54.4422 99.378 54.4126 99.0448 54.4603 98.7183C54.474 98.681 54.4968 98.6477 54.5267 98.6216C54.5566 98.5954 54.5925 98.5773 54.6311 98.5689C54.6698 98.5605 54.7099 98.562 54.7478 98.5733C54.7858 98.5847 54.8202 98.6055 54.848 98.6338C55.0388 98.8928 55.1833 99.1833 55.2751 99.4923C55.3681 99.7234 55.4967 99.9523 55.5849 100.189C56.1997 99.9517 56.8011 99.6856 57.3894 99.3903C57.3036 99.193 57.2301 98.9896 57.1527 98.7902C57.0331 98.54 56.9486 98.2742 56.9017 98.0006C56.884 97.8082 57.1873 97.7049 57.3075 97.8542C57.4543 98.0682 57.5751 98.2992 57.6672 98.5423C57.7528 98.7248 57.8461 98.9052 57.9308 99.0886C58.6421 98.5792 59.4087 98.1533 60.2159 97.8192C60.2219 97.8177 60.2283 97.818 60.2341 97.8201C60.24 97.8223 60.2451 97.8261 60.2488 97.8311C60.2525 97.8361 60.2547 97.8421 60.2551 97.8483C60.2554 97.8546 60.254 97.8608 60.2508 97.8662C59.7602 98.5163 59.1308 99.0469 58.4092 99.419C57.6233 99.9266 56.7974 100.369 55.94 100.741C53.4007 101.849 50.6514 102.384 47.885 102.309C45.1186 102.233 42.4021 101.548 39.9264 100.302C39.0046 99.842 38.1273 99.2967 37.3057 98.6732C36.6342 98.1627 35.588 97.5254 35.3636 96.6898C35.3545 96.6444 35.3573 96.5975 35.3717 96.5535C35.3861 96.5096 35.4117 96.4702 35.4458 96.4392C35.48 96.4083 35.5216 96.3869 35.5665 96.3772C35.6115 96.3674 35.6581 96.3697 35.7019 96.3837Z" fill="#6640D0"/>
<g style="mix-blend-mode:multiply" opacity="0.39">
<path d="M67.7961 128.938C69.84 139.501 72.6482 148.653 74.5941 149.63L74.5956 149.631C74.9071 150.015 75.3131 150.309 75.773 150.484C76.2329 150.66 76.7305 150.711 77.2159 150.632C77.8969 150.399 78.4766 149.936 78.8565 149.321C85.2137 139.927 90.4587 125.813 90.4587 125.813C90.3144 126.158 80.1322 145.822 76.6531 145.972H76.6524C75.544 146.019 74.2509 144.093 73.0008 141.437C70.3279 135.758 67.852 129.143 67.7961 128.938Z" fill="#E6A07A"/>
</g>
<path d="M64.5812 137.406C64.6131 136.466 64.7401 135.532 64.9602 134.617C65.2052 133.775 65.5562 132.967 66.0047 132.214C66.4343 131.501 66.8216 130.763 67.1646 130.004C67.5097 129.121 67.6642 128.174 67.618 127.226C67.5201 125.159 67.2659 123.103 66.8575 121.075C66.4487 118.763 65.9311 116.478 65.6455 114.144C65.6269 113.992 65.8348 113.873 65.9027 114.039C67.4397 117.877 68.4215 121.917 68.8179 126.035C68.9504 127.007 68.9543 127.991 68.8294 128.964C68.671 129.813 68.3828 130.631 67.9751 131.391C67.1257 133.065 66.1355 134.551 65.7591 136.45C65.2844 138.846 65.1781 141.34 64.8169 143.76C64.8166 143.782 64.8119 143.803 64.8032 143.823C64.7945 143.844 64.782 143.862 64.7662 143.877C64.7505 143.892 64.732 143.903 64.7117 143.911C64.6914 143.919 64.6698 143.923 64.6481 143.922C64.6265 143.921 64.6052 143.916 64.5855 143.907C64.5658 143.898 64.5481 143.885 64.5335 143.868C64.5189 143.852 64.5076 143.833 64.5003 143.813C64.493 143.792 64.4899 143.77 64.4911 143.748C64.4602 141.635 64.4745 139.518 64.5812 137.406Z" fill="#6640D0"/>
<path d="M29.4178 156.064C29.4178 156.064 48.388 161.317 66.0622 155.673" stroke="#6640D0" stroke-linecap="round" stroke-linejoin="round"/>
<path d="M26.3054 106.391L39.797 103.994C39.797 103.994 41.8397 102.725 42.1984 105.192C42.5572 107.66 45.3564 156.872 45.3564 156.872C45.3564 156.872 43.9568 158.564 42.9771 158.564C41.9973 158.564 23.4009 157.577 23.4009 157.577L26.3054 106.391Z" fill="#CE4831"/>
<path d="M30.8016 103.441C33.5991 104.806 36.6946 105.432 39.7981 105.263L42.9782 156.731C42.9782 156.731 39.7943 155.725 34.6034 157.577L30.8016 103.441Z" fill="#FFEBDD"/>
<g style="mix-blend-mode:multiply" opacity="0.41">
<path d="M37.9832 105.059L39.4663 119.481L39.1031 105.297L37.9832 105.059Z" fill="#E79E82"/>
</g>
<g style="mix-blend-mode:multiply" opacity="0.41">
<path d="M40.7056 156.288L40.2385 139.034L42.2276 156.575L40.7056 156.288Z" fill="#E79E82"/>
</g>
<g style="mix-blend-mode:multiply" opacity="0.41">
<path d="M38.7243 156.576V144.299L39.8632 156.479L38.7243 156.576Z" fill="#E79E82"/>
</g>
<g style="mix-blend-mode:multiply" opacity="0.41">
<path d="M36.8879 105.059L37.3463 114.604L35.8013 105.059H36.8879Z" fill="#E79E82"/>
</g>
<path d="M13.9486 108.57C13.9486 108.57 17.3077 155.948 17.4476 157.358C17.4476 157.358 17.5666 158.768 19.9564 159.05C22.3462 159.332 36.0853 159.614 36.0853 159.614C36.0853 159.614 38.0737 159.755 38.2577 156.935C38.4417 154.115 35.0827 103.505 35.0827 103.505C35.0827 103.505 34.6264 101.528 31.4693 102.233C28.3121 102.938 13.9486 108.57 13.9486 108.57Z" fill="#CE4831"/>
<path d="M12.4652 108.506C12.4652 108.506 15.8243 155.885 15.9642 157.295C15.9642 157.295 16.0832 158.705 18.473 158.987C20.8628 159.269 34.6018 159.551 34.6018 159.551C34.6018 159.551 36.5903 159.692 36.7743 156.872C36.9583 154.052 33.5993 103.441 33.5993 103.441C33.5993 103.441 33.7363 101.402 31.2818 101.809C28.0908 102.337 12.4652 108.506 12.4652 108.506Z" fill="#FF6551"/>
<path d="M17.0058 114.605V117.883L29.9756 114.136V110.388L17.0058 114.605Z" fill="#FF998C"/>
<path d="M2.47877 129.623C2.47877 129.623 7.63702 127.401 10.7162 128.952C13.7953 130.503 15.8947 132.59 17.5042 132.675C19.1138 132.759 19.8136 132.9 20.3734 132.054C20.9333 131.208 21.7731 128.741 23.8725 127.119C25.7299 125.787 27.5118 124.351 29.2098 122.818C30.3806 121.62 30.8005 123.312 30.2407 124.369C29.4473 125.908 28.4198 127.311 27.1953 128.529C25.9719 129.587 26.3054 130.362 26.3054 130.362C27.987 129.915 29.6125 129.277 31.1504 128.459C33.0399 127.331 38.5764 124.933 39.797 125.286C41.0177 125.638 40.3959 126.273 39.797 126.696C39.1982 127.119 36.8188 128.106 35.2093 128.952C33.5998 129.798 30.5206 132.054 31.5703 131.702C32.62 131.349 40.1079 127.683 41.4375 128.177C42.7672 128.67 41.0177 130.01 40.1779 130.503C39.3381 130.997 32.69 134.451 32.69 134.451C32.69 134.451 41.2834 129.869 41.9203 130.362C42.5573 130.856 42.2073 131.744 40.8777 132.675C39.5481 133.605 33.5298 136.355 33.0399 137.131C32.55 137.906 40.5278 134.099 41.2976 134.733C42.0674 135.368 37.2387 138.188 35.5592 138.964C33.8797 139.739 31.1504 141.22 28.9111 141.22C26.6717 141.22 19.7436 140.656 19.7436 140.656C19.7436 140.656 9.75674 141.854 5.9778 141.22C2.19885 140.585 0.169427 137.272 0.0294667 135.509C-0.110494 133.746 0.177945 130.774 2.47877 129.623Z" fill="#FFBF94"/>
<g style="mix-blend-mode:multiply" opacity="0.39">
<path d="M29.975 139.589C26.6668 139.14 23.3284 138.954 19.9912 139.034C16.8187 139.175 11.0337 140.209 5.90183 139.034C4.53129 138.697 3.27303 138.003 2.2537 137.02C1.23436 136.038 0.48993 134.802 0.0953296 133.437C-0.00284403 134.123 -0.0252169 134.818 0.028621 135.509C0.168526 137.271 2.19796 140.585 5.97695 141.22C9.75594 141.854 19.7427 140.656 19.7427 140.656C19.7427 140.656 26.6708 141.22 28.9102 141.22C31.1495 141.22 33.8787 139.739 35.5583 138.964C37.0589 138.271 41.0621 135.95 41.3512 135.01C39.0316 136.377 32.7168 139.915 29.975 139.589Z" fill="#E6A07A"/>
</g>
<g style="mix-blend-mode:multiply" opacity="0.39">
<path d="M15.5227 131.905C13.3345 130.883 11.0161 130.172 8.63384 129.793C6.59538 129.496 4.52952 129.439 2.47794 129.623C2.47794 129.623 6.36239 127.982 9.53783 128.549C12.7133 129.116 15.5227 131.905 15.5227 131.905Z" fill="#E6A07A"/>
</g>
<path d="M45.8729 11.4248C28.1912 12.9459 21.0469 24.6954 20.2617 37.9329C19.4765 51.1705 24.024 71.5394 26.1365 74.0819C28.2489 76.6244 41.6538 86.1944 48.1512 86.4025C54.6486 86.6107 70.0703 75.2023 73.4355 68.7078C76.8006 62.2132 81.0534 25.7215 69.3912 18.5237C62.2768 14.1848 54.1833 11.7418 45.8729 11.4248Z" fill="#FFBF94"/>
<g style="mix-blend-mode:multiply" opacity="0.39">
<path d="M68.874 60.4913C68.874 60.4913 72.2033 43.491 64.419 39.6362C56.6347 35.7814 49.3655 31.8442 46.4381 28.1617C46.4381 28.1617 45.8289 37.6039 34.2192 40.71C22.6095 43.8162 24.9539 56.1173 25.2115 60.4849C25.4692 64.8526 22.9063 70.2195 21.5773 70.9185C20.2483 71.6176 23.0123 66.6575 22.9667 64.2365C22.9211 61.8155 21.0159 47.7558 21.0159 47.7558L41.4327 20.457L50.7968 22.1211C50.7968 22.1211 66.9337 30.8584 67.137 31.0827C67.3403 31.3071 72.871 40.7502 72.6919 41.0399C72.5129 41.3296 73.1984 53.2658 73.168 53.4844C73.1376 53.703 68.8439 60.8195 68.8439 60.8195L68.874 60.4913Z" fill="#E6A07A"/>
</g>
<path d="M75.6545 49.2807C75.6545 49.2807 78.0558 46.627 80.3513 50.731C82.6468 54.835 79.0424 57.8964 77.8197 61.819C76.5969 65.7415 73.931 65.0503 73.931 65.0503C73.931 65.0503 74.262 54.3359 75.6545 49.2807Z" fill="#FFBF94"/>
<g style="mix-blend-mode:multiply" opacity="0.2">
<path d="M74.7832 54.5524C74.8897 53.8437 75.1458 53.1663 75.5341 52.5658C75.4631 52.5734 75.3928 52.586 75.3235 52.6032C75.0464 52.6743 74.9734 52.2929 75.1358 52.1405C75.4893 51.8505 75.9408 51.7103 76.395 51.7497C76.8492 51.789 77.2704 52.0047 77.5695 52.3512C77.9246 52.7588 78.1673 53.2531 78.2734 53.7847C78.3794 54.3163 78.3451 54.8667 78.1739 55.3808C77.8553 56.6262 77.083 57.6937 76.634 58.8903C76.2478 60.2159 75.7314 61.4995 75.0925 62.722C75.0219 62.8082 74.9281 62.872 74.8224 62.9057C74.7167 62.9394 74.6035 62.9415 74.4967 62.9118C74.3898 62.8821 74.2937 62.8218 74.22 62.7383C74.1464 62.6548 74.0983 62.5516 74.0817 62.4411C73.9403 60.6589 73.9923 58.8665 74.2366 57.0957C74.3658 56.2372 74.5484 55.3878 74.7832 54.5524Z" fill="#E6A07A"/>
</g>
<path d="M20.6213 49.5274C20.6213 49.5274 17.9237 46.8168 15.6795 51.3163C13.4353 55.8158 17.4382 58.9002 18.9416 63.0258C20.4449 67.1515 23.6469 66.1447 23.6469 66.1447C23.6469 66.1447 22.363 54.8539 20.6213 49.5274Z" fill="#FFBF94"/>
<g style="mix-blend-mode:multiply" opacity="0.2">
<path d="M16.5159 53.5356C16.5208 55.4247 18.0708 56.9534 19.1203 58.3673C19.7217 59.1247 20.2157 59.9627 20.588 60.8572C20.804 61.4281 20.8504 62.4473 21.6116 62.5745C22.3472 62.6974 22.6794 61.8709 22.7277 61.2794C22.7631 60.5571 22.6795 59.8339 22.4804 59.1391C22.4091 58.3446 22.2556 57.5597 22.0225 56.7972C21.5028 55.1531 20.7424 53.575 20.1165 51.9694C20.028 51.8389 19.9605 51.6953 19.9165 51.5436C19.622 51.269 19.2484 51.0961 18.8497 51.0501C18.4511 51.0041 18.0483 51.0873 17.6998 51.2876C17.3219 51.5224 17.0129 51.8545 16.8048 52.2496C16.5967 52.6448 16.497 53.0887 16.5159 53.5356Z" fill="#E6A07A"/>
</g>
<path d="M68.6588 49.5659C68.8585 49.8146 68.523 50.1163 68.2244 49.9566C66.9661 49.2839 65.2956 49.335 62.6822 49.0073C60.2594 48.7036 55.4248 49.5505 55.5219 46.5609C55.5956 44.2891 59.8895 44.0355 63.8759 45.8807C65.7295 46.7235 67.3659 47.9844 68.6588 49.5659Z" fill="#662920"/>
<path d="M25.8588 52.1258C25.8375 52.1857 25.8373 52.2512 25.8582 52.3113C25.8791 52.3713 25.9199 52.4223 25.9736 52.4558C26.0274 52.4892 26.0909 52.5031 26.1536 52.495C26.2162 52.4869 26.2743 52.4575 26.3179 52.4115C27.1827 51.497 29.4591 50.6381 31.5307 49.7713C33.4512 48.9677 38.9197 49.0642 38.2419 46.1503C37.7157 43.8884 31.6683 44.9394 28.8551 47.5605C27.5096 48.8201 26.4823 50.3853 25.8588 52.1258Z" fill="#662920"/>
<g style="mix-blend-mode:multiply" opacity="0.39">
<path d="M45.1199 64.0032C45.8104 63.6242 46.5778 63.4092 47.3634 63.3747C48.1922 63.3558 49.0166 63.5002 49.7905 63.7996C50.6007 64.0176 51.3158 64.501 51.8232 65.1737C51.8612 65.2387 51.8775 65.3142 51.87 65.3892C51.8624 65.4643 51.8313 65.5349 51.7811 65.5909C51.412 65.9759 50.9692 65.8768 50.5034 65.7102C49.7152 65.3709 48.8806 65.1533 48.028 65.0649C47.379 65.0223 46.7295 65.1393 46.1354 65.4056C45.5164 65.7038 45.1767 66.3471 44.4566 66.3768C44.28 66.3796 44.109 66.3137 43.9793 66.1929C43.8496 66.0721 43.771 65.9056 43.7599 65.7279C43.6619 64.9162 44.4879 64.3534 45.1199 64.0032Z" fill="#E6A07A"/>
</g>
<path d="M41.1625 70.6209C41.1625 70.6209 41.2207 71.1701 41.4002 71.9952C41.7549 73.786 42.4616 75.4873 43.4786 76.9988C44.0134 77.8158 44.7538 78.4752 45.6243 78.9095C46.4948 79.3438 47.4642 79.5375 48.4333 79.4708C49.4506 79.3908 50.4279 79.0373 51.2634 78.4472C52.099 77.8572 52.7621 77.0521 53.1837 76.116C53.9949 74.4608 54.5018 72.6712 54.68 70.8339C54.7838 69.9174 54.7876 69.3112 54.7876 69.3112C50.5384 71.3422 45.7162 71.8058 41.1625 70.6209Z" fill="#9F2236"/>
<path d="M43.6146 16.7519C44.5572 18.3322 45.1311 20.1076 45.2929 21.944C45.4547 23.7804 45.2002 25.6298 44.5487 27.3527C43.203 30.8016 40.8032 33.7298 37.6964 35.7137C34.2719 38.004 30.2006 39.3469 27.2128 42.1907C24.5782 44.7233 23.0368 48.1974 22.9209 51.8642C22.836 55.0427 23.837 58.1541 23.986 61.3302C24.2005 65.8982 22.6566 70.3341 21.6105 74.7841C20.5645 79.2341 20.0618 84.1463 22.1864 88.1875C20.776 86.5025 19.7557 84.5223 19.1993 82.3906C18.643 80.2589 18.5647 78.0291 18.97 75.8631C19.4756 73.8268 20.105 71.8238 20.8545 69.8653C22.6289 64.4124 22.9412 58.1879 20.2485 53.1311C19.0411 50.8636 17.2902 48.9318 16.0223 46.6981C13.6591 42.3311 13.0209 37.2257 14.2356 32.4048C15.4745 27.6142 18.0372 23.2761 21.6259 19.8945C26.6629 15.0139 33.8583 11.8811 40.6889 13.3686L43.6146 16.7519Z" fill="#662920"/>
<path d="M33.4017 10.6105C34.7149 14.6291 46.8221 25.8765 50.2374 28.3383C53.7256 30.8322 57.3479 33.1302 61.0877 35.2216C62.9842 36.1594 64.7386 37.3641 66.2983 38.7997C69.5252 42.1167 70.1905 47.1925 69.8689 51.8257C69.5474 56.459 68.4183 61.0604 68.7538 65.6927C69.0969 70.4295 70.954 74.9266 71.6248 79.6277C72.6392 86.7368 71.9871 88.7673 67.7868 94.5704C72.5034 89.7972 74.1689 88.8247 75.4097 82.2065C75.8535 79.9829 76.0456 77.7158 75.9821 75.4486C75.8799 72.8874 75.3507 70.3654 75.0263 67.823C74.4507 63.5982 74.5542 59.3076 75.3328 55.116C76.3663 49.8235 78.6472 44.7838 79.0951 39.4087C79.5455 34.0057 78.1107 28.6267 76.3589 23.4999C75.4389 20.8075 74.3584 18.0412 72.2693 16.1234C70.4706 14.4724 68.1073 13.6208 65.8114 12.8089C62.1899 11.5283 58.4001 10.2283 54.5961 10.7428L33.4017 10.6105Z" fill="#662920"/>
<path d="M41.1625 70.6208C41.1625 70.6208 41.2207 71.1701 41.4002 71.9952C43.23 73.149 45.3294 73.7963 47.4868 73.872C50.7715 73.9525 53.5168 71.8736 54.68 70.8339C54.7838 69.9174 54.7876 69.3112 54.7876 69.3112C50.5384 71.3422 45.7162 71.8057 41.1625 70.6208Z" fill="white"/>
<path d="M43.4806 76.9981C44.0153 77.8151 44.7558 78.4744 45.6263 78.9088C46.4968 79.3431 47.4661 79.5368 48.4353 79.4701C49.4525 79.3901 50.4299 79.0366 51.2654 78.4465C52.1009 77.8564 52.764 77.0514 53.1857 76.1153C52.3762 75.8296 51.5144 75.7257 50.6609 75.8111C49.8073 75.8964 48.9826 76.1688 48.2446 76.6092C48.2446 76.6092 46.256 75.5806 43.4806 76.9981Z" fill="#FF6551"/>
<path d="M19.7851 40.5269C20.3278 38.8713 21.253 37.3692 22.4846 36.1443C25.0081 33.5596 28.2465 31.9192 31.208 29.9223C32.0434 29.3589 32.8475 28.7482 33.6342 28.1183C34.4752 27.5156 35.2317 26.8013 35.8832 25.9948C35.9984 25.8342 36.2864 25.9983 36.1853 26.1765C35.7077 27.1224 35.1425 28.0207 34.4972 28.8595C33.8179 29.6327 33.0623 30.3342 32.2421 30.9534C30.5154 32.3107 28.6133 33.4053 26.8249 34.6739C24.9959 35.8658 23.4257 37.4188 22.209 39.239C21.045 41.0181 20.5503 43.1576 20.8141 45.2718C20.8249 45.3791 20.7973 45.4867 20.7365 45.5754C20.6756 45.6641 20.5853 45.728 20.4819 45.7557C20.3785 45.7834 20.2686 45.7731 20.1721 45.7266C20.0755 45.6801 19.9986 45.6004 19.955 45.5019C19.642 44.748 19.4609 43.9452 19.42 43.1291C19.4056 42.2478 19.5288 41.3697 19.7851 40.5269Z" fill="#7A332D"/>
<path d="M16.2961 45.1639C16.2999 45.1419 16.3113 45.122 16.3283 45.1076C16.3453 45.0933 16.3668 45.0855 16.389 45.0856C16.4112 45.0857 16.4326 45.0937 16.4495 45.1082C16.4664 45.1227 16.4776 45.1427 16.4812 45.1648C16.8844 46.4335 17.5472 47.6028 18.427 48.5973C19.281 49.629 20.0664 50.7165 20.7781 51.8526C22.1751 54.5642 22.8703 57.5872 22.7992 60.6416C22.8267 63.9404 22.2213 67.2135 21.0162 70.2809C19.9188 73.1237 18.8274 75.8774 18.9723 78.9857C19.2006 82.1356 20.2717 85.1644 22.0718 87.7502C22.3086 88.108 21.8463 88.6515 21.5026 88.3113C19.5404 86.3014 18.247 83.7267 17.8013 80.9436C17.2986 78.0148 17.5642 75.0045 18.5719 72.2109C19.1158 70.5877 19.764 69.0015 20.2405 67.3553C20.6913 65.7744 20.9725 64.1494 21.0794 62.5082C21.3704 59.2791 20.8308 56.029 19.5126 53.0711C18.8409 51.6888 17.8559 50.4739 17.0871 49.1455C16.3494 47.9602 16.068 46.5439 16.2961 45.1639Z" fill="#7A332D"/>
<path d="M9.14868 39.0086C10.8166 35.1057 13.3878 31.662 16.6474 28.9654C18.3059 27.6112 20.1645 26.5268 22.1558 25.7515C24.3777 24.8984 26.6804 24.3286 28.7823 23.1766C30.8006 22.0464 32.6269 20.5989 34.1923 18.8889C35.825 17.1395 37.2374 15.194 38.3975 13.0965C38.5214 12.8716 38.9131 12.9358 38.8607 13.2275C38.706 14.2499 38.4374 15.2514 38.0602 16.2133C37.6638 17.1746 37.1834 18.0986 36.6248 18.9743C35.4561 20.7495 34.0058 22.3191 32.3318 23.6203C30.6412 24.9507 28.7508 26.0008 26.7317 26.7309C24.5374 27.4145 22.4029 28.2796 20.35 29.3172C12.837 33.5798 8.96182 42.1922 8.43608 50.5783C8.08216 56.2234 9.07208 61.9028 10.3788 67.3732C10.5038 67.8959 9.6706 68.1022 9.48397 67.6128C6.03545 58.5712 5.20315 48.0421 9.14868 39.0086Z" fill="#7A332D"/>
<path d="M17.5139 17.3075C18.3956 15.542 19.6985 14.0247 21.3059 12.8917C24.4491 10.5894 28.1535 9.74665 31.7516 8.47603C33.3993 7.89417 35.4926 7.12417 36.515 5.60336C36.7845 5.2023 37.4778 5.60904 37.2464 6.04324C36.9101 6.76021 36.4819 7.42963 35.9728 8.03437C35.4342 8.61285 34.8193 9.11408 34.1453 9.52404C32.656 10.3799 31.0809 11.0744 29.4463 11.5959C26.0132 12.8285 22.6112 14.3897 20.2703 17.3058C19.6236 18.0576 19.0994 18.9079 18.717 19.8251C18.5186 20.2726 18.3484 20.7323 18.2073 21.2013C18.1341 21.722 18.0224 22.2365 17.8732 22.7405C17.8241 22.8465 17.7458 22.9361 17.6476 22.9985C17.5493 23.0609 17.4354 23.0935 17.3192 23.0925C17.2031 23.0914 17.0897 23.0567 16.9927 22.9924C16.8956 22.9282 16.8189 22.8372 16.7718 22.7302C16.4927 21.8353 16.4552 20.8816 16.6631 19.9672C16.7959 19.0386 17.0835 18.1394 17.5139 17.3075Z" fill="#7A332D"/>
<path d="M64.5577 36.8148C66.1838 37.5149 67.5761 38.6708 68.569 40.1451C69.7132 41.6459 70.5352 43.3699 70.9829 45.2077C71.4899 47.2673 71.6392 49.3997 71.4244 51.5107C71.2092 53.7546 70.5103 55.8848 70.1342 58.0974C69.817 60.4441 69.7629 62.8194 69.9729 65.1783C70.0375 67.3661 70.2564 69.5465 70.6279 71.703C71.0552 73.8597 72.0215 75.8288 72.5968 77.9399C73.1012 79.8018 73.3156 81.7312 73.2322 83.6594C73.1505 85.497 72.7933 87.3116 72.1729 89.0416C72.7656 87.9383 73.2833 86.7958 73.7225 85.6219C74.8978 82.4597 75.5182 79.1156 75.5557 75.7392C75.5719 74.7528 75.5009 73.7738 75.4264 72.7914C75.289 71.8966 75.2438 70.9898 75.2916 70.0857C75.2933 70.0756 75.2978 70.0663 75.3046 70.0588C75.3114 70.0513 75.3202 70.0459 75.33 70.0434C75.3398 70.0408 75.3501 70.0412 75.3596 70.0444C75.3692 70.0476 75.3776 70.0536 75.3839 70.0615C76.2986 71.3472 76.4335 73.3272 76.5579 74.8514C76.6992 76.6253 76.6421 78.4096 76.3876 80.1706C75.9005 83.6431 74.7118 86.9781 72.895 89.9696C71.8877 91.6245 70.7211 93.407 69.0332 94.4168C69.0044 94.4321 68.9717 94.4381 68.9393 94.4341C68.907 94.43 68.8768 94.4161 68.8526 94.3941C68.6467 94.6033 68.4341 94.8086 68.2146 95.01C67.943 95.2586 67.5989 94.8446 67.7872 94.5699C69.8689 91.5661 71.1579 88.0782 71.5329 84.4343C71.6973 82.5988 71.5641 80.7486 71.1388 78.9561C70.6695 76.9745 69.7417 75.1381 69.2254 73.1685C68.7354 71.1245 68.4432 69.0375 68.3528 66.9366C68.1679 64.7356 68.1015 62.5262 68.1539 60.318C68.3546 58.1344 68.7322 55.9711 69.2828 53.8496C69.7172 51.8142 69.8621 49.727 69.7132 47.6506C69.5415 45.564 68.9905 43.527 68.0876 41.6411C67.1323 39.8936 65.8983 38.3162 64.4349 36.9722C64.3571 36.8913 64.4718 36.7841 64.5577 36.8148Z" fill="#7A332D"/>
<path d="M46.6215 13.4678C46.9172 14.128 47.3245 14.7119 47.6518 15.3511C48.0084 16.0475 48.3807 16.735 48.7985 17.3966C49.5977 18.657 50.5046 19.8446 51.5089 20.9461C53.6363 23.2142 56.0776 25.161 58.7573 26.7261C61.8518 28.5123 65.0404 30.1278 68.3089 31.5654C71.2515 32.8327 74.0994 34.3125 76.8302 35.9934C79.6249 37.8141 82.0885 40.1678 83.2465 43.3756C83.4054 43.8159 82.789 44.2238 82.5097 43.7986C79.023 38.4933 73.0663 35.9137 67.5298 33.3804C61.378 30.5655 55.0957 27.6112 50.5397 22.4178C49.4191 21.1567 48.4521 19.7651 47.6594 18.2727C47.2832 17.5611 46.9616 16.8216 46.6971 16.0607C46.4609 15.2477 46.3124 14.4114 46.2542 13.5662C46.2497 13.5204 46.2615 13.4744 46.2875 13.4365C46.3136 13.3987 46.3521 13.3714 46.3963 13.3595C46.4405 13.3477 46.4875 13.3521 46.5287 13.3719C46.57 13.3918 46.6029 13.4258 46.6215 13.4678Z" fill="#7A332D"/>
<path d="M51.1227 8.36882C51.9898 9.25953 52.7511 10.2464 53.6323 11.1262C54.528 12.0334 55.5142 12.8451 56.5751 13.5486C58.7854 14.9307 61.0985 16.1384 63.4938 17.161C66.205 18.3743 68.9808 19.4279 71.6439 20.7495C74.1283 21.9473 76.477 23.412 78.649 25.1182C82.6179 28.3687 85.8354 32.452 88.0773 37.0837C90.3191 41.7154 91.5314 46.784 91.6295 51.9361C91.7116 55.1507 91.3151 58.3595 90.4531 61.4557C89.5116 64.5291 88.1867 67.4697 86.5103 70.207C86.4387 70.3291 86.2425 70.2552 86.3027 70.1166C86.9067 68.7893 87.3848 67.4074 87.7307 65.9895C88.0337 64.6535 88.3641 63.3233 88.6126 61.9751C89.1149 59.2652 89.3829 56.5164 89.4137 53.7598C89.4602 48.5734 88.3259 43.4453 86.0979 38.7696C84.071 34.5225 81.1656 30.7615 77.5768 27.7391C73.3645 24.1946 68.2508 22.2253 63.3634 19.8408C60.6621 18.6138 58.1317 17.0362 55.8365 15.148C53.8275 13.4027 51.4552 11.3672 50.6513 8.72712C50.5735 8.47119 50.885 8.12458 51.1227 8.36882Z" fill="#7A332D"/>
<path d="M52.4039 3.46363C52.9553 3.86755 53.5859 4.03327 54.1381 4.43438C54.6696 4.82044 55.2151 5.18616 55.7747 5.53152C56.8546 6.19639 57.9775 6.78739 59.136 7.30051C61.5239 8.30429 63.9965 9.08959 66.5241 9.64691C69.1999 10.2455 71.722 11.4011 73.9285 13.0395C75.9041 14.5505 77.7352 16.2443 79.3979 18.0988C80.3389 19.07 81.1538 20.1576 81.823 21.3355C82.4137 22.5007 82.8469 23.7402 83.1111 25.0211C83.1773 25.322 82.7312 25.4125 82.6128 25.1546C82.0913 24.0651 81.4452 23.0409 80.6875 22.1026C79.975 21.1917 79.2928 20.2676 78.5057 19.4178C76.82 17.643 74.9515 16.0541 72.9318 14.678C70.7491 13.251 68.3171 12.255 65.7652 11.7429C63.2224 11.2247 60.7559 10.3804 58.4261 9.23056C57.1966 8.57892 56.0208 7.82943 54.9097 6.98922C54.3309 6.54762 53.7705 6.08309 53.2284 5.59563C52.7606 5.06849 52.3298 4.50917 51.9392 3.9217C51.6896 3.62753 52.1125 3.25009 52.4039 3.46363Z" fill="#7A332D"/>
<path d="M37.0381 63.4115C39.3017 61.6913 39.7527 58.448 38.0453 56.1675C36.3378 53.8869 33.1187 53.4326 30.855 55.1528C28.5914 56.873 28.1405 60.1162 29.8479 62.3968C31.5553 64.6774 34.7745 65.1317 37.0381 63.4115Z" fill="white"/>
<path d="M37.9625 60.6885C38.7883 58.5498 37.7368 56.1416 35.6139 55.3096C33.4911 54.4776 31.1007 55.537 30.2749 57.6757C29.4491 59.8144 30.5006 62.2227 32.6235 63.0546C34.7463 63.8866 37.1367 62.8273 37.9625 60.6885Z" fill="black"/>
<path d="M36.6803 58.4413C36.8534 58.6477 36.9619 58.9011 36.992 59.1695C37.0221 59.4379 36.9726 59.7094 36.8496 59.9494C36.7267 60.1895 36.5358 60.3875 36.3012 60.5183C36.0666 60.649 35.7987 60.7068 35.5315 60.6842C35.2643 60.6616 35.0097 60.5597 34.8 60.3914C34.5903 60.2231 34.4348 59.9959 34.3533 59.7385C34.2717 59.4811 34.2677 59.2052 34.3418 58.9456C34.4159 58.6859 34.5648 58.4543 34.7696 58.2799C34.9056 58.1641 35.0629 58.0764 35.2325 58.0219C35.4021 57.9673 35.5807 57.9469 35.7581 57.9619C35.9356 57.9769 36.1083 58.027 36.2665 58.1092C36.4248 58.1915 36.5653 58.3043 36.6803 58.4413Z" fill="white"/>
<path d="M62.8629 64.0794C65.6687 63.668 67.6123 61.0429 67.2039 58.2161C66.7956 55.3893 64.19 53.4312 61.3842 53.8426C58.5783 54.254 56.6348 56.8791 57.0432 59.7059C57.4515 62.5327 60.0571 64.4908 62.8629 64.0794Z" fill="white"/>
<path d="M64.309 62.1988C66.2044 60.9261 66.7169 58.3463 65.4536 56.4367C64.1903 54.5271 61.6297 54.0108 59.7343 55.2835C57.8389 56.5563 57.3264 59.136 58.5897 61.0456C59.853 62.9552 62.4136 63.4715 64.309 62.1988Z" fill="black"/>
<path d="M59.2598 59.2602C59.3268 59.4966 59.4618 59.7076 59.6479 59.8667C59.8339 60.0257 60.0626 60.1256 60.305 60.1537C60.5474 60.1818 60.7926 60.1369 61.0096 60.0246C61.2267 59.9123 61.4058 59.7376 61.5243 59.5228C61.6428 59.3079 61.6955 59.0625 61.6756 58.8175C61.6556 58.5725 61.564 58.339 61.4124 58.1464C61.2607 57.9539 61.0558 57.811 60.8235 57.7357C60.5912 57.6605 60.342 57.6564 60.1074 57.7239C59.7928 57.8144 59.5267 58.0271 59.3678 58.3152C59.2088 58.6033 59.17 58.9433 59.2598 59.2602Z" fill="white"/>
</svg>
