<svg width="128" height="195" viewBox="0 0 128 195" fill="none" xmlns="http://www.w3.org/2000/svg">
<path d="M81.9829 162.339C81.7668 163.307 81.5158 164.268 81.2298 165.221C80.2983 168.184 79.1675 171.08 77.8454 173.888C76.3212 177.238 72.0757 187.174 70.6805 188.265C70.0755 188.777 69.3142 189.064 68.5236 189.08C67.733 189.096 66.9609 188.839 66.336 188.352C66.219 181.175 65.0999 172.079 65.1599 164.902C65.1659 164.241 65.0909 162.686 64.9709 160.672C64.8748 159.101 64.7548 157.25 64.6258 155.33C64.614 155.153 64.5349 154.987 64.4049 154.867C64.2749 154.747 64.104 154.681 63.9273 154.684C63.7506 154.686 63.5817 154.757 63.4554 154.881C63.3291 155.006 63.2551 155.174 63.2486 155.351C63.1886 157.054 63.1346 158.77 63.0957 160.377C63.0326 162.954 63.0056 165.248 63.0476 166.756C63.1827 171.63 62.2016 178.576 62.2016 183.457C62.2016 184.458 62.2975 185.395 62.3515 186.387C62.3575 186.507 62.3966 186.77 62.4236 187.065V187.071C62.4711 187.426 62.4609 187.787 62.3936 188.138C62.3754 188.223 62.3288 188.299 62.2616 188.352C61.6361 188.839 60.8635 189.096 60.0724 189.08C59.2814 189.064 58.5196 188.777 57.914 188.265C56.5219 187.174 52.2764 177.238 50.7522 173.888C49.468 171.159 48.3635 168.349 47.4458 165.474C47.4188 165.39 47.3918 165.306 47.3678 165.221C45.4847 158.665 45.0041 151.782 45.9576 145.026C46.1707 143.362 46.4537 141.706 46.8067 140.058C46.8817 139.705 46.9598 139.353 47.0438 139C47.2208 138.231 47.4098 137.465 47.6168 136.703C47.8539 135.822 48.1059 134.945 48.379 134.074C48.607 133.338 48.85 132.606 49.102 131.876L59.6003 130.297L70.6055 130.541L79.4955 131.876C80.0536 133.489 80.5557 135.122 81.0017 136.775C81.2718 137.791 81.5188 138.813 81.7428 139.841C82.1058 141.514 82.3999 143.202 82.6219 144.893C83.4374 150.701 83.2211 156.608 81.9829 162.339Z" fill="#2435A1"/>
<g style="mix-blend-mode:multiply" opacity="0.4">
<path d="M62.2025 183.457C62.2025 184.458 62.2985 185.395 62.3525 186.387C62.3585 186.507 62.3975 186.77 62.4245 187.065V187.071C62.4125 187.433 62.4005 187.789 62.3945 188.138C62.3764 188.223 62.3298 188.298 62.2625 188.352C61.637 188.839 60.8644 189.096 60.0734 189.08C59.2823 189.064 58.5206 188.777 57.915 188.265C56.5228 187.174 52.2773 177.238 50.7532 173.888C49.469 171.159 48.3645 168.349 47.4468 165.474C48.4821 166.725 49.7855 167.724 51.2596 168.397C52.7337 169.07 54.3401 169.399 55.9588 169.36C59.7932 169.279 61.9895 164.193 63.0966 160.377C63.0336 162.954 63.0066 165.248 63.0486 166.756C63.1836 171.63 62.2025 178.576 62.2025 183.457Z" fill="#30A2BE"/>
</g>
<path d="M62.4636 182.373C62.4944 182.043 62.4165 181.459 61.5069 182.111C60.5973 182.763 55.937 183.317 54.373 182.047C53.3934 181.251 54.5768 183.951 55.5982 186.081L55.6002 186.085L55.6067 186.098C55.748 186.393 57.6892 190.585 54.057 191.489C50.821 192.294 59.526 192.657 59.526 192.657L61.3718 192.107L62.1142 190.036L61.7301 188.798C61.7784 188.643 61.8169 188.486 61.8453 188.326C62.1741 186.497 62.4328 182.704 62.4636 182.373Z" fill="#FF6551"/>
<path d="M61.8481 192.974C61.6813 193.479 61.368 193.922 60.9484 194.246C60.5289 194.57 60.0224 194.76 59.4942 194.793C56.9109 194.952 51.4863 195.209 49.5536 194.698C46.9794 194.017 47.3816 189.933 50.5993 188.767C53.8169 187.6 58.5861 189.205 59.8501 190.128C59.9522 190.214 60.0776 190.269 60.2105 190.283C60.3433 190.298 60.4775 190.273 60.5961 190.211C60.8701 190.022 61.0833 189.758 61.2098 189.449C61.415 189.018 61.5764 188.567 61.6917 188.103C61.8362 187.553 61.9532 186.997 62.0421 186.435C62.1358 185.862 62.2089 185.285 62.2614 184.706C62.3081 184.198 62.3412 183.688 62.3501 183.178C62.3539 182.963 62.3517 182.748 62.3423 182.533C62.3391 182.46 62.2625 181.983 62.3559 181.972C62.4344 181.962 62.4729 182.15 62.4749 182.19C62.4973 182.667 62.5183 183.144 62.5327 183.622C62.5488 184.152 62.559 184.683 62.5633 185.214C62.5684 185.846 62.5641 186.477 62.5506 187.109C62.5353 187.778 62.5081 188.447 62.4625 189.115C62.4185 189.759 62.358 190.403 62.2671 191.042C62.1931 191.601 62.0812 192.155 61.9324 192.699C61.906 192.791 61.8779 192.883 61.8481 192.974Z" fill="#F37A7C"/>
<g style="mix-blend-mode:multiply" opacity="0.4">
<path d="M81.9837 162.339C81.7676 163.307 81.5166 164.267 81.2306 165.221C80.2991 168.184 79.1683 171.079 77.8462 173.888C76.322 177.237 72.0765 187.173 70.6813 188.265C70.0763 188.776 69.315 189.064 68.5244 189.08C67.7338 189.096 66.9617 188.839 66.3368 188.352C66.2198 181.174 65.1007 172.079 65.1607 164.901C65.1667 164.241 65.0917 162.686 64.9717 160.672C66.0308 164.684 68.266 170.201 72.5566 170.614C76.421 170.988 79.7904 166.385 81.9837 162.339Z" fill="#30A2BE"/>
</g>
<path d="M66.1483 182.373C66.1176 182.043 66.1954 181.459 67.105 182.111C68.0146 182.763 72.6749 183.317 74.239 182.047C75.2186 181.251 74.0351 183.951 73.0137 186.081L73.0116 186.085L73.0052 186.098C72.8638 186.393 70.9226 190.585 74.5548 191.489C77.7909 192.294 69.0859 192.657 69.0859 192.657L67.2401 192.107L66.4977 190.036L66.8817 188.798C66.8334 188.643 66.7949 188.486 66.7665 188.326C66.4378 186.497 66.1791 182.704 66.1483 182.373Z" fill="#FF6551"/>
<path d="M66.7636 192.974C66.9304 193.479 67.2437 193.922 67.6633 194.246C68.0828 194.57 68.5893 194.76 69.1176 194.793C71.7008 194.952 77.1254 195.209 79.0583 194.698C81.6323 194.017 81.2302 189.933 78.0125 188.767C74.7948 187.6 70.0256 189.205 68.7618 190.128C68.6596 190.214 68.5342 190.269 68.4013 190.283C68.2685 190.298 68.1342 190.273 68.0156 190.211C67.7417 190.022 67.5284 189.758 67.4019 189.449C67.1968 189.018 67.0354 188.567 66.9201 188.103C66.7755 187.553 66.6586 186.997 66.5697 186.435C66.476 185.862 66.4029 185.285 66.3504 184.706C66.3036 184.198 66.2706 183.688 66.2616 183.178C66.2579 182.963 66.2601 182.748 66.2695 182.533C66.2727 182.46 66.3492 181.983 66.2559 181.972C66.1774 181.962 66.1388 182.15 66.137 182.19C66.1144 182.667 66.0935 183.144 66.0791 183.622C66.063 184.152 66.0528 184.683 66.0484 185.214C66.0434 185.846 66.0477 186.477 66.0613 187.109C66.0764 187.778 66.1038 188.447 66.1493 189.115C66.1933 189.759 66.2537 190.403 66.3448 191.042C66.4188 191.601 66.5306 192.155 66.6794 192.699C66.7057 192.791 66.7338 192.883 66.7636 192.974Z" fill="#F37A7C"/>
<path d="M85.0379 100.418C85.4875 103.898 85.4895 107.422 85.0438 110.903L85.0408 110.915C85.0288 111.029 85.0138 111.144 85.0019 111.261C84.1359 118.187 82.8179 125.048 81.0564 131.8C80.9093 132.349 80.7613 132.875 80.6124 133.38L80.6093 133.392C80.4923 133.796 80.3753 134.185 80.2584 134.555C77.3603 135.336 74.4188 135.944 71.4493 136.376C56.2705 138.565 48.1937 134.577 48.1937 134.577C47.4106 130.793 45.8024 116.941 45.1543 111.192C44.9773 109.648 44.8723 108.687 44.8692 108.666C44.2691 101.259 46.6255 94.5558 52.8513 94.0374C53.4183 93.989 72.4849 93.4809 74.208 93.7486C84.7792 95.3905 85.0379 100.418 85.0379 100.418Z" fill="#FF6551"/>
<path d="M75.2849 97.1765L74.5498 93.793C74.5498 93.793 91.8927 95.325 99.0713 116.663C99.3048 117.536 99.2626 118.46 98.9506 119.308C98.6386 120.156 98.0721 120.885 97.3295 121.395C96.587 121.906 95.7049 122.172 94.8054 122.156C93.9059 122.141 93.0333 121.845 92.3083 121.31C90.0269 119.87 86.8715 114.37 84.5324 112.329C79.2352 107.706 75.1893 103.209 75.2849 97.1765Z" fill="#FF6551"/>
<path d="M98.9554 116.412C99.6333 117.017 99.4379 128.497 84.9121 136.323C83.305 135.088 82.1788 133.327 81.729 131.345C81.729 131.345 88.4752 120.15 91.2838 118.906C93.7859 117.912 96.3482 117.079 98.9554 116.412Z" fill="#FF6551"/>
<path d="M55.8706 93.9749C56.9377 95.4278 58.3467 96.5923 59.9714 97.3641C61.5961 98.1358 63.3859 98.4909 65.1807 98.3974C66.9336 98.3397 68.6521 97.8929 70.213 97.0892C71.7738 96.2855 73.1384 95.1448 74.2087 93.7488C73.6401 93.4413 73.0478 93.1803 72.4375 92.9684C70.4362 92.7965 60.0819 92.5502 57.8046 92.7763C57.2855 92.8275 56.0536 93.9477 55.8706 93.9749Z" fill="#DF4C4B"/>
<path d="M85.0378 110.833C85.0288 110.941 85.0168 111.053 85.0019 111.164C84.138 118.122 82.82 125.015 81.0564 131.799C80.9063 132.345 80.7583 132.872 80.6123 133.379L80.6093 133.391C80.4923 133.792 80.3753 134.175 80.2583 134.546C77.3591 135.324 74.418 135.935 71.4493 136.376C56.2705 138.564 48.1936 134.576 48.1936 134.576C47.4105 130.792 45.8024 116.94 45.1543 111.191C46.5045 115.116 51.9471 128.14 64.9445 128.779C79.9103 129.514 84.8218 111.653 85.0378 110.833Z" fill="#DF4C4B"/>
<path d="M82.328 131.83C82.1121 131.571 81.8316 131.373 81.5152 131.258C81.2977 131.191 80.1357 131.049 77.3491 131.854C76.8575 131.996 74.9887 132.934 75.2146 134.071C75.3777 134.892 77.4848 134.247 78.2417 134.18C77.5979 134.289 74.3228 135.091 74.5493 136.322C74.7751 137.55 78.4072 136.419 78.4072 136.419C78.4072 136.419 75.4973 137.19 75.5282 138.316C75.559 139.441 79.729 138.436 79.729 138.436C79.729 138.436 77.2828 139.025 77.657 140.141C77.8341 140.669 79.6221 140.529 80.0093 140.48C80.6239 140.411 81.2244 140.249 81.7902 139.998C82.9906 139.418 83.932 138.409 84.4297 137.167C84.5409 136.875 84.6947 136.6 84.8861 136.353L84.9106 136.322C85.2438 135.908 84.4639 134.819 84.2712 134.507C83.7898 133.743 83.2689 133.005 82.7107 132.296C82.5902 132.14 82.4642 131.979 82.328 131.83Z" fill="#FFBF94"/>
<path d="M32.1491 99.4775L32.9669 98.9972C33.5243 98.4207 33.8935 97.6871 34.0253 96.8943C34.157 96.1015 34.0451 95.2872 33.7045 94.56C32.5196 91.9572 34.0347 91.2565 34.2082 90.3857C34.3816 89.5149 33.0939 88.9208 32.0338 89.9721C31.597 90.4449 31.3336 91.0532 31.287 91.6966C31.258 91.9538 30.8045 92.0637 30.6328 91.4688C29.9842 89.221 29.9201 85.0031 28.4681 84.9165C26.9713 84.8272 27.804 86.6857 28.8333 91.4323C28.4975 91.7539 25.8548 83.8948 24.5464 84.5729C23.1906 85.2753 27.2101 92.6718 26.8528 92.6706C26.737 92.7495 23.165 86.4315 22.3579 87.0686C21.5795 87.6831 23.3343 90.391 25.1199 94.3078C24.8859 94.4106 21.337 90.6745 20.8833 92.2082C20.682 92.8889 23.818 95.0812 25.3734 97.7152C26.8666 100.244 28.2119 101.144 29.3262 100.75C30.2884 100.375 31.2306 99.9503 32.1491 99.4775Z" fill="#FFBF94"/>
<path d="M49.6415 95.6182C49.9331 95.6734 50.2186 95.7571 50.494 95.8682C51.1158 96.1228 51.6723 96.5151 52.1222 97.0158C52.5721 97.5166 52.9037 98.1128 53.0924 98.7603C53.7614 101.124 52.4122 103.541 51.1166 105.625C47.0259 112.206 41.5703 119.752 33.7118 122.167C30.7403 123.082 26.9667 120.643 29.0513 115.967C30.1527 113.496 35.1325 109.589 36.8176 106.977C38.6449 104.092 40.7658 101.405 43.146 98.9596C44.8789 97.2116 47.0567 95.1353 49.6415 95.6182Z" fill="#FF6551"/>
<path d="M31.9036 122.154C27.8454 122.244 26.8104 116.412 26.5229 114.325C25.8181 109.207 26.594 99.3062 26.594 99.3062C27.5494 99.7321 28.5844 99.9478 29.6296 99.9387C30.6747 99.9297 31.7059 99.6962 32.6539 99.2538C33.3991 101.839 34.0506 104.46 34.5984 107.095C34.9741 108.902 35.3588 110.786 35.6078 112.597C35.9744 115.603 35.3113 118.645 33.7277 121.222C33.5428 121.507 33.2914 121.742 32.9955 121.906C32.6995 122.07 32.368 122.159 32.03 122.165C31.9877 122.163 31.9459 122.153 31.9036 122.154Z" fill="#FF6551"/>
<path d="M72.4023 93.7424C72.4023 93.7424 70.6491 96.4182 64.8739 95.6825C59.0969 94.9466 57.8053 92.7757 57.8053 92.7757L57.803 90.5779L57.8012 90.5777L57.7979 87.4282L71.4695 86.3024L72.7535 86.1963L72.7168 87.0024L72.5211 91.1782L72.4023 93.7424Z" fill="#EA9573"/>
<g style="mix-blend-mode:multiply" opacity="0.31">
<path d="M72.521 91.1785C70.689 92.4125 68.3404 93.6227 66.2559 93.545C62.1256 93.3916 57.909 90.6476 57.803 90.5782L57.8012 90.5779L57.7978 87.4285L71.4694 86.3026L72.7168 87.0026L72.521 91.1785Z" fill="#DD7258"/>
</g>
<path d="M98.7814 52.0124C98.7814 52.0124 104.228 49.4457 107.265 53.3102C110.302 57.1747 105.486 66.9807 101.803 67.9411C98.1193 68.9015 96.6797 67.9344 96.6797 67.9344L98.7814 52.0124Z" fill="#FFBF94"/>
<path d="M30.5848 51.9238C30.5848 51.9238 25.1449 49.343 22.0982 53.1996C19.0515 57.0563 23.8416 66.8747 27.5225 67.8446C31.2035 68.8145 32.6455 67.8513 32.6455 67.8513L30.5848 51.9238Z" fill="#FFBF94"/>
<path d="M101.36 37.352C101.36 37.352 100.344 51.7376 98.7619 63.3157L98.7603 63.3205V63.3237L98.7538 63.372C98.5163 65.1089 98.266 66.7831 98.0047 68.335L97.9998 68.3655C97.2142 73.0068 96.3291 76.5462 95.385 77.4232C92.019 80.5475 72.7944 90.9171 65.2706 90.4134C57.7469 89.9098 37.9076 80.3243 34.7101 76.8618C33.687 75.7538 32.5857 71.8549 31.5608 67.0648C29.3823 56.8878 27.5498 42.6899 27.5498 42.6899C28.3804 19.3089 41.3581 11.4212 66.4939 10.6303C91.6296 9.83928 101.36 37.352 101.36 37.352Z" fill="#FFBF94"/>
<g opacity="0.27">
<path opacity="0.27" d="M82.7763 18.7518C82.7763 18.7518 79.7745 2.80968 62.8359 3.02511C55.7149 3.16066 48.7128 4.88334 42.3351 8.06877C35.9574 11.2542 30.3633 15.8229 25.9568 21.4449C21.6995 26.9886 19.7825 33.992 20.6195 40.9434C21.4566 47.8948 24.9806 54.2368 30.4308 58.6004C30.4308 58.6004 34.3225 51.3532 38.182 45.6759C38.182 45.6759 59.8341 55.1763 80.2033 37.3949C80.2033 37.3949 85.7781 28.6685 82.7763 18.7518Z" fill="#DA8966"/>
<path opacity="0.27" d="M79.1317 28.2826C79.1317 28.2826 78.4884 38.4335 85.1352 44.5348C91.7821 50.6362 96.928 51.2825 96.928 51.2825C96.928 51.2825 100.573 58.1814 98 65.5005C98 65.5005 107.283 56.7391 105.783 38.5662C104.282 20.3932 95.6077 14.4433 79.1147 14.6587L79.1317 28.2826Z" fill="#DA8966"/>
</g>
<path d="M78.5055 46.2119C78.783 46.6461 79.2649 46.5998 79.7337 46.6489C80.2777 46.7058 80.8168 46.7073 81.3628 46.7207C82.4216 46.7207 83.4715 46.9158 84.4602 47.2966C85.3505 47.7096 86.1897 48.2258 86.9608 48.8347C87.3388 49.1339 87.7339 49.4107 88.1441 49.6636C88.3778 49.8049 88.6251 49.9221 88.8823 50.0134C89.1285 50.0863 89.3746 50.0428 89.6155 50.1316C89.9043 50.2382 90.0828 49.8887 89.9777 49.6595C89.8622 49.4075 89.8919 49.1175 89.764 48.8641C89.6144 48.5862 89.435 48.3256 89.229 48.0868C88.8425 47.6419 88.4105 47.2391 87.9403 46.8848C86.9893 46.1332 85.9127 45.558 84.7608 45.1861C83.5465 44.8272 82.2703 44.7304 81.0161 44.9022C80.6236 44.9464 77.9471 45.3381 78.5055 46.2119V46.2119Z" fill="#5F130F"/>
<g style="mix-blend-mode:multiply" opacity="0.44">
<path d="M30.2423 64.1365C28.1675 63.1168 26.5518 61.3484 25.7179 59.1843C25.3963 58.2363 25.479 56.712 26.736 56.547C27.7743 56.4107 28.1977 57.7658 28.6623 58.4601C28.9046 58.8223 29.5639 58.6094 29.4056 58.1463C28.9822 56.9079 28.5775 55.3473 27.0389 55.1593C26.2994 55.1261 25.5767 55.3871 25.0276 55.8858C24.4784 56.3844 24.1471 57.0805 24.1054 57.823C23.9005 59.6079 24.9751 61.2794 25.9853 62.6504C27.0269 64.0637 28.3054 65.2248 30.1481 64.853C30.221 64.8312 30.2861 64.7886 30.3354 64.7305C30.3848 64.6724 30.4163 64.6011 30.4263 64.5254C30.4362 64.4496 30.4242 64.3726 30.3915 64.3036C30.3589 64.2346 30.307 64.1765 30.2423 64.1365Z" fill="#DA8966"/>
</g>
<g style="mix-blend-mode:multiply" opacity="0.44">
<path d="M105.77 57.7871C105.679 56.4342 104.566 55.2264 103.154 55.791C102.2 56.1727 100.662 58.0312 101.704 58.9876C101.731 59.0133 101.763 59.0326 101.798 59.0443C101.833 59.0559 101.87 59.0595 101.907 59.0548C101.944 59.0501 101.979 59.0372 102.01 59.0171C102.041 58.997 102.067 58.9701 102.087 58.9385C102.609 58.2398 102.676 57.0974 103.69 56.835C105.078 56.4755 104.621 58.8342 104.466 59.5096C104.301 60.3487 103.954 61.141 103.45 61.8306C102.855 62.4634 102.122 62.9476 101.307 63.2442C101.269 63.2673 101.237 63.2987 101.212 63.3362C101.188 63.3736 101.172 63.4162 101.167 63.4606C101.161 63.505 101.165 63.5501 101.179 63.5926C101.193 63.6351 101.217 63.6738 101.248 63.706C102.35 64.9247 103.96 63.2908 104.578 62.3116C105.409 60.9538 105.824 59.3802 105.77 57.7871Z" fill="#DA8966"/>
</g>
<path d="M47.5302 46.9023C46.7863 46.1058 45.3107 46.4001 44.3518 46.5344C43.2621 46.6998 42.2019 47.0222 41.2039 47.4919C40.2352 47.9372 39.326 48.5031 38.4977 49.1763C37.7819 49.7507 36.5884 50.7957 36.8841 51.8315C36.9273 51.9737 37.0137 52.0986 37.1313 52.1888C37.2489 52.279 37.3917 52.3299 37.5395 52.3343C38.4085 52.4312 39.2827 51.3529 39.9206 50.8749C40.6437 50.3269 41.4284 49.8662 42.2585 49.5022C43.0638 49.1678 43.8991 48.9113 44.7529 48.7361C45.6394 48.5431 46.8348 48.6922 47.5287 48.0402C47.676 47.8879 47.7585 47.684 47.7588 47.4716C47.7591 47.2592 47.6771 47.055 47.5302 46.9023V46.9023Z" fill="#5F130F"/>
<path d="M74.5025 74.6912C73.9978 76.6575 73.0793 78.4922 71.809 80.0715C70.9188 81.1468 69.8023 82.0103 68.5399 82.5997C67.2775 83.1891 65.9007 83.4898 64.5087 83.48C62.9514 83.554 61.4013 83.2239 60.0077 82.5215C58.6141 81.8191 57.4239 80.7681 56.5517 79.4696C55.511 77.9531 54.7472 76.2627 54.2959 74.4773C54.2287 74.2339 54.2509 73.9744 54.3584 73.746C54.4687 73.5031 54.6639 73.3094 54.907 73.2016C55.1501 73.0938 55.4241 73.0795 55.677 73.1614L56.0376 73.277C61.5513 75.0582 67.4833 75.0488 72.9913 73.25C73.1119 73.2103 73.2379 73.1896 73.3649 73.1886C73.6119 73.1905 73.8523 73.2697 74.0526 73.4152C74.2528 73.5606 74.403 73.7652 74.4822 74.0003C74.5593 74.2231 74.5664 74.4643 74.5025 74.6912Z" fill="#831532"/>
<path d="M74.483 74.0003C71.5485 76.1377 68.0349 77.3248 64.4113 77.4031C60.763 77.2678 57.2482 75.989 54.3594 73.746C54.4696 73.5031 54.6648 73.3094 54.9079 73.2016C55.151 73.0938 55.4251 73.0795 55.678 73.1614L56.0386 73.277C61.5522 75.0582 67.4842 75.0488 72.9922 73.25C73.1128 73.2103 73.2388 73.1896 73.3657 73.1887C73.6128 73.1906 73.8532 73.2697 74.0534 73.4152C74.2536 73.5607 74.4038 73.7652 74.483 74.0003Z" fill="white"/>
<path d="M71.809 80.0716C70.9188 81.1469 69.8023 82.0104 68.5399 82.5998C67.2776 83.1892 65.9008 83.4899 64.5088 83.4801C62.9514 83.5541 61.4013 83.224 60.0077 82.5216C58.6141 81.8192 57.424 80.7682 56.5518 79.4697C61.5946 78.2444 66.8773 78.4528 71.809 80.0716Z" fill="#FF6551"/>
<path d="M49.5298 71.3707C49.9222 69.7294 47.7661 67.8018 44.7141 67.0652C41.6621 66.3286 38.8699 67.062 38.4775 68.7032C38.0852 70.3444 40.2412 72.2721 43.2932 73.0087C46.3452 73.7453 49.1374 73.0119 49.5298 71.3707Z" fill="#F2786B"/>
<path d="M86.0529 73.1177C89.161 72.6775 91.4906 70.9658 91.2561 69.2944C91.0217 67.6229 88.312 66.6248 85.2039 67.065C82.0958 67.5051 79.7662 69.2169 80.0007 70.8883C80.2352 72.5597 82.9448 73.5578 86.0529 73.1177Z" fill="#F2786B"/>
<g style="mix-blend-mode:multiply" opacity="0.21">
<g style="mix-blend-mode:multiply" opacity="0.21">
<path d="M63.9664 66.1069C62.936 66.1315 61.9257 66.3989 61.0168 66.8875C60.9479 66.919 60.8866 66.9652 60.8373 67.023C60.6619 67.2594 60.943 67.5669 61.2025 67.7045C62.9188 68.4546 64.8446 68.5669 66.6357 68.0214C67.0791 67.9544 67.4955 67.7663 67.8398 67.4778C68.0376 67.2818 68.1583 66.9301 67.9559 66.7389C67.8647 66.667 67.7557 66.6216 67.6407 66.6075C65.9557 66.2544 64.2162 66.2551 62.5315 66.6095L63.9664 66.1069Z" fill="#DA8966"/>
</g>
</g>
<path d="M60.9179 67.2728C61.3779 67.1022 61.7576 66.7859 62.2407 66.6382C62.8009 66.4877 63.3802 66.4213 63.9598 66.441C64.508 66.4265 65.0563 66.4589 65.599 66.5377C66.1518 66.6327 66.6648 66.8883 67.0747 67.2729C67.5403 67.6638 68.2973 67.1757 67.9556 66.5918C67.2098 65.3172 65.3365 65.3061 64.0513 65.3263C62.9559 65.3435 60.8051 65.467 60.4999 66.8518C60.4486 67.0846 60.6588 67.3689 60.9179 67.2728H60.9179Z" fill="#D88261"/>
<path d="M52.529 61.7416C54.2288 58.4463 52.9481 54.3905 49.6685 52.6826C46.3889 50.9747 42.3522 52.2615 40.6525 55.5567C38.9527 58.852 40.2334 62.9078 43.513 64.6157C46.7926 66.3236 50.8292 65.0368 52.529 61.7416Z" fill="white"/>
<path d="M52.2438 59.8795C51.9598 60.8731 51.3889 61.7598 50.6033 62.4274C49.8177 63.095 48.8527 63.5136 47.8304 63.6302C46.808 63.7467 45.7742 63.5561 44.8597 63.0823C43.9452 62.6086 43.1911 61.873 42.6927 60.9686C42.1942 60.0642 41.9739 59.0316 42.0596 58.0014C42.1452 56.9712 42.533 55.9896 43.1738 55.1808C43.8147 54.372 44.6798 53.7724 45.6599 53.4576C46.64 53.1429 47.6909 53.1272 48.6798 53.4126C49.3364 53.6021 49.9495 53.9197 50.484 54.3472C51.0184 54.7747 51.4639 55.3039 51.7948 55.9044C52.1258 56.5049 52.3357 57.165 52.4128 57.8471C52.4898 58.5291 52.4324 59.2197 52.2438 59.8795Z" fill="black"/>
<path d="M49.9835 60.9475C49.901 61.2363 49.7351 61.4939 49.5068 61.6879C49.2786 61.8819 48.9982 62.0035 48.7011 62.0374C48.404 62.0712 48.1037 62.0158 47.8379 61.8782C47.5722 61.7405 47.3531 61.5268 47.2082 61.264C47.0634 61.0012 46.9994 60.7011 47.0243 60.4018C47.0492 60.1024 47.1619 59.8172 47.3481 59.5822C47.5343 59.3472 47.7857 59.1729 48.0705 59.0815C48.3553 58.99 48.6606 58.9855 48.948 59.0684C49.1388 59.1235 49.3169 59.2158 49.4722 59.34C49.6275 59.4642 49.7569 59.618 49.8531 59.7925C49.9493 59.967 50.0103 60.1588 50.0327 60.357C50.055 60.5552 50.0384 60.7558 49.9835 60.9475Z" fill="white"/>
<path d="M75.9971 59.8925C76.1711 61.2101 76.7301 62.4462 77.6033 63.4446C78.4765 64.443 79.6248 65.1588 80.9029 65.5015C82.181 65.8442 83.5316 65.7984 84.7838 65.3699C86.036 64.9414 87.1336 64.1494 87.9378 63.0941C88.7421 62.0388 89.2168 60.7675 89.3019 59.4411C89.3871 58.1148 89.0789 56.7928 88.4163 55.6424C87.7537 54.492 86.7665 53.5649 85.5795 52.9782C84.3924 52.3916 83.059 52.1718 81.7476 52.3466C79.9891 52.5811 78.3954 53.5078 77.317 54.9229C76.2385 56.338 75.7638 58.1256 75.9971 59.8925Z" fill="white"/>
<path d="M77.0257 59.3998C77.161 60.4246 77.5958 61.3861 78.275 62.1626C78.9542 62.9392 79.8473 63.4959 80.8414 63.7625C81.8355 64.029 82.886 63.9934 83.8599 63.6601C84.8339 63.3268 85.6876 62.7107 86.3131 61.8899C86.9386 61.0691 87.3079 60.0804 87.3741 59.0487C87.4403 58.0171 87.2006 56.9888 86.6852 56.0941C86.1699 55.1993 85.402 54.4782 84.4788 54.0219C83.5555 53.5656 82.5183 53.3947 81.4983 53.5307C80.8211 53.6209 80.1682 53.8444 79.5769 54.1882C78.9856 54.532 78.4675 54.9895 78.0522 55.5345C77.6369 56.0795 77.3325 56.7013 77.1563 57.3646C76.9802 58.0278 76.9358 58.7193 77.0257 59.3998Z" fill="black"/>
<path d="M78.5478 60.0133C78.5871 60.311 78.7134 60.5904 78.9108 60.8161C79.1081 61.0417 79.3676 61.2035 79.6565 61.281C79.9454 61.3584 80.2506 61.3481 80.5336 61.2513C80.8166 61.1544 81.0647 60.9754 81.2465 60.7369C81.4282 60.4984 81.5355 60.2111 81.5548 59.9113C81.574 59.6116 81.5044 59.3128 81.3547 59.0528C81.2049 58.7928 80.9818 58.5832 80.7135 58.4506C80.4452 58.318 80.1439 58.2684 79.8475 58.3079C79.4501 58.3609 79.0899 58.5703 78.8462 58.8901C78.6024 59.2099 78.4951 59.6139 78.5478 60.0133Z" fill="white"/>
<path d="M28.5292 49.5517L24.241 40.288C24.241 40.288 -0.630965 44.8581 0.0122646 80.4895C1.6959 81.3292 3.44127 82.0378 5.23296 82.6089C5.05435 79.5154 5.6749 76.428 7.03436 73.6466C7.33725 76.9906 7.88909 80.307 8.68527 83.5682C10.8042 84.0643 12.9675 84.3449 15.1424 84.4058C14.6033 80.8416 14.6935 77.2098 15.4088 73.677C16.2128 77.2746 17.2806 80.8075 18.6036 84.2468C20.5451 84.0309 22.4445 83.5296 24.241 82.759C24.241 82.759 18.8807 61.616 28.5292 49.5517Z" fill="#672410"/>
<path d="M104.86 35.9794L101.215 47.936C104.161 52.5516 105.667 57.9462 105.54 63.4278C105.414 68.9093 103.66 74.2278 100.504 78.7008C100.112 79.3929 99.7561 80.1042 99.4359 80.8321C99.2469 81.183 99.0611 81.534 98.8569 81.8846C100.826 83.2459 102.972 84.328 105.235 85.1004C106.747 82.2056 107.821 79.101 108.423 75.8886C108.423 75.8886 109.104 81.651 107.872 85.8761C110.368 86.487 112.946 86.684 115.505 86.4592C117.23 83.4763 118.281 80.1485 118.583 76.7119C118.968 79.7452 119.084 82.8069 118.931 85.8608C120.673 85.4092 122.356 84.7505 123.943 83.8988C123.943 83.8988 141.096 43.5196 104.86 35.9794Z" fill="#672410"/>
<path d="M18.5118 45.6746C11.9916 50.0824 6.11189 58.295 5.68701 66.3573" stroke="#772F1E" stroke-width="1.86439" stroke-linecap="round" stroke-linejoin="round"/>
<path d="M20.5423 48.1514C14.7001 54.0758 11.4372 61.2661 11.5911 72.4955" stroke="#772F1E" stroke-width="1.86439" stroke-linecap="round" stroke-linejoin="round"/>
<path d="M23.4918 52.3114C23.4918 52.3114 17.2738 59.4623 19.3107 73.7887" stroke="#772F1E" stroke-width="1.86439" stroke-linecap="round" stroke-linejoin="round"/>
<path d="M107.075 52.3113C112.035 56.8429 111.964 65.5042 110.988 71.5467" stroke="#772F1E" stroke-width="1.86439" stroke-linecap="round" stroke-linejoin="round"/>
<path d="M109.786 46.1111C117.435 54.3879 118.756 64.1971 116.855 74.9852" stroke="#772F1E" stroke-width="1.86439" stroke-linecap="round" stroke-linejoin="round"/>
<path d="M110.027 41.7363C121.457 44.9756 124.579 60.453 123.451 70.6564" stroke="#772F1E" stroke-width="1.86439" stroke-linecap="round" stroke-linejoin="round"/>
<path d="M26.0191 58.5962C25.7035 58.5941 25.3927 58.5181 25.1114 58.3741C24.8302 58.2301 24.5863 58.0222 24.3991 57.7668C24.2119 57.5115 24.0866 57.2158 24.0331 56.9032C23.9796 56.5907 23.9995 56.2699 24.0911 55.9664C23.6605 56.2591 23.1368 56.38 22.6222 56.3052C22.1077 56.2304 21.6395 55.9654 21.3091 55.5621C20.9961 55.1443 20.7826 54.66 20.6848 54.1464C20.5871 53.6328 20.6077 53.1036 20.7452 52.5992C21.0283 51.594 21.4645 50.6388 22.0384 49.7676C20.4243 49.9259 18.5159 49.9663 17.5125 48.686C16.4264 47.3002 17.172 45.141 18.5334 44.0273C17.5334 43.7719 16.6311 43.2244 15.9405 42.4541C14.7216 40.8715 15.7657 37.978 17.3831 37.0716C20.0373 35.5843 24.0856 37.5083 25.6643 39.8167C26.2529 40.7559 26.7277 41.7624 27.0787 42.8148C28.1953 45.7689 29.921 49.6014 29.3774 52.847C29.0828 54.606 28.2199 58.4486 26.0191 58.5962Z" fill="#FF6551"/>
<path d="M113.305 37.8694C113.428 38.3567 113.454 38.8636 113.382 39.361C113.309 39.8584 113.14 40.3365 112.883 40.7678C112.626 41.1992 112.286 41.5752 111.884 41.8744C111.482 42.1736 111.025 42.39 110.54 42.5112C111.186 43.5528 112.477 44.1289 112.923 45.2718C113.097 45.8949 113.067 46.5578 112.838 47.1627C112.609 47.7675 112.192 48.2823 111.649 48.6311C110.548 49.3037 109.312 49.7245 108.03 49.8636C108.491 51.4189 108.693 53.0402 108.627 54.6616C108.587 55.4726 108.369 56.2648 107.989 56.9809C107.608 57.6971 107.074 58.3194 106.425 58.8031C105.758 59.2618 104.951 59.4682 104.147 59.3854C103.344 59.3026 102.595 58.936 102.035 58.3509C101.473 57.5118 101.148 56.5353 101.095 55.5254C100.58 52.8063 100.445 50.0285 100.694 47.272C100.904 45.9632 101.2 44.6701 101.582 43.4011C102.389 40.4814 103.476 37.9971 106.224 36.5725C108.577 35.3524 112.255 34.3571 113.305 37.8694Z" fill="#FF6551"/>
<path d="M82.7762 15.7289C82.7762 15.7289 79.7744 -0.21327 62.8358 0.00216395C55.7148 0.137714 48.7127 1.8604 42.335 5.04584C35.9573 8.23128 30.3632 12.8 25.9567 18.422C18.6666 27.5778 17.3802 48.4749 30.6738 59.4621C30.6738 59.4621 33.4611 46.9033 37.3206 41.2261C37.3206 41.2261 59.834 52.1534 80.2032 34.372C80.2032 34.372 85.778 25.6455 82.7762 15.7289Z" fill="#672410"/>
<path d="M79.1318 25.2594C79.1318 25.2594 78.4886 35.4103 85.1354 41.5116C91.7821 47.613 96.9281 48.2593 96.9281 48.2593C96.9281 48.2593 100.573 58.1807 98.0001 65.4997C101.712 61.8419 104.563 57.396 106.344 52.4878C108.125 47.5796 108.79 42.3333 108.292 37.1332C106.791 18.9602 95.6078 11.42 79.1149 11.6355L79.1318 25.2594Z" fill="#672410"/>
<path d="M30.2202 57.5549C24.0946 53.0919 23.1894 43.0958 24.4665 36.2358" stroke="#772F1E" stroke-width="1.86439" stroke-linecap="round" stroke-linejoin="round"/>
<path d="M29.8603 53.4641C27.5194 42.183 28.6576 27.1659 37.1655 18.5898C39.6981 16.037 42.4191 13.3748 45.9086 12.5383" stroke="#772F1E" stroke-width="1.86439" stroke-linecap="round" stroke-linejoin="round"/>
<path d="M33.6392 46.3684C35.1917 39.8166 38.9386 33.8085 42.3414 30.7851C46.4372 27.0499 51.5641 24.6505 57.0453 23.9037" stroke="#772F1E" stroke-width="1.86439" stroke-linecap="round" stroke-linejoin="round"/>
<path d="M40.9351 39.8169C45.131 36.7794 49.863 34.5705 54.8794 33.3074" stroke="#772F1E" stroke-width="1.86439" stroke-linecap="round" stroke-linejoin="round"/>
<path d="M49.5649 40.1558C52.9936 40.0379 56.4056 39.6211 59.7626 38.9102C64.0954 37.8808 68.138 35.8737 71.5841 33.0411C75.0301 30.2085 77.7891 26.6248 79.6518 22.5616" stroke="#772F1E" stroke-width="1.86439" stroke-linecap="round" stroke-linejoin="round"/>
<path d="M87.0171 35.7723C87.1112 38.313 88.9587 40.4521 90.9915 41.9663C94.3162 44.4427 97.1966 45.6293 98.9833 49.5919" stroke="#772F1E" stroke-width="1.86439" stroke-linecap="round" stroke-linejoin="round"/>
<path d="M96.1641 34.1746C102.725 40.0559 104.08 50.0331 102.617 58.3678" stroke="#772F1E" stroke-width="1.86439" stroke-linecap="round" stroke-linejoin="round"/>
<g style="mix-blend-mode:screen" opacity="0.27">
<path d="M108.291 37.1333C106.86 19.8123 96.6298 12.1563 81.3937 11.6625C79.2663 6.95491 74.1778 -0.142138 62.8351 0.00216636C55.7141 0.137718 48.712 1.8604 42.3344 5.04583C35.9567 8.23126 30.3626 12.7999 25.956 18.4219C19.6156 26.3852 17.822 43.2272 26.207 54.7092C23.7018 47.5835 22.7722 39.516 24.8643 32.4304C27.763 22.6122 35.4665 14.3913 44.5667 9.99801C54.5817 5.16305 66.6897 7.53677 75.1498 14.6243C74.6802 12.1623 73.771 9.80593 72.4664 7.66913C75.5718 10.3787 78.0232 13.7623 79.6354 17.564C80.029 16.465 80.4227 15.366 80.8164 14.267C81.0635 15.2227 81.3107 16.1784 81.5579 17.1341C85.3837 16.3652 89.3373 16.5297 93.0868 17.6137C90.7072 18.4043 88.3276 19.1948 85.948 19.9854C89.0881 18.9422 94.2117 20.6839 96.7969 22.3831C100.029 24.6823 102.647 27.7452 104.423 31.3016C106.245 34.6332 107.58 38.2114 108.386 41.9257C108.455 40.3278 108.423 38.7272 108.291 37.1333Z" fill="#772F1E"/>
</g>
</svg>
