<svg width="208" height="188" viewBox="0 0 208 188" fill="none" xmlns="http://www.w3.org/2000/svg">
<g filter="url(#filter0_d_320_77924)">
<path d="M170.723 164.676C160.928 170.363 148.264 167.936 136.769 169.177C127.055 170.226 117.974 173.986 108.675 176.783C99.3772 179.581 89.1885 181.418 79.9057 178.577C73.529 176.625 68.1509 172.636 62.15 169.849C54.9085 166.486 46.8611 164.918 39.3042 162.209C31.7472 159.5 24.2864 155.257 20.778 148.513C16.5591 140.405 18.9838 130.772 17.3892 121.898C15.5894 111.884 8.74546 103.237 5.8809 93.4355C3.85706 86.5109 5.95692 78.3396 8.4026 71.6205C10.9869 64.5206 18.1707 56.5438 25.093 52.4125C27.3515 51.0646 29.5819 49.7143 31.715 48.1895C32.6495 47.5214 37.5675 44.5989 37.5675 43.5409C43.0893 38.6304 46.4037 32.3684 51.2019 26.9303C56.1805 21.2879 63.4677 17.6322 71.1105 15.8393C78.031 14.1937 85.1109 13.2837 92.2288 13.1252C99.8732 13.0081 107.287 13.6649 114.663 11.2393C116.211 10.73 117.713 10.1068 119.258 9.58476C129.686 6.06081 143.651 7.60423 153.4 12.3488C157.119 14.1592 160.232 16.8549 163.231 19.5747C166.953 22.7973 170.206 26.5094 172.897 30.6062C175.361 34.5581 176.141 39.275 179.279 42.9844C181.387 45.4754 183.461 48.2118 185.55 50.6144C188.778 54.327 193.749 56.1112 196.819 60.1568C199.909 64.2291 201.378 69.2013 202.396 74.0205C203.698 80.1904 204.428 86.5157 203.73 92.7685C202.613 102.773 196.914 110.211 191.088 118.352C189.147 121.064 187.196 123.872 186.451 127.048C186.152 128.571 185.969 130.114 185.903 131.664C185.544 136.18 184.312 140.34 183.384 144.715C181.755 152.401 178.19 160.342 170.723 164.676Z" fill="#EFF2FD"/>
<path d="M190.279 47.1021L190.266 47.9151L189.633 90.6235L189.606 92.3988L188.713 152.49H23.8845L23.0108 137.628L19.8162 83.2412L17.692 47.1021H190.279Z" fill="#5B5B5C"/>
<path d="M183.901 147.917H28.3653L22.9852 56.0604L185.395 55.7793L183.901 147.917Z" fill="#545554"/>
<path d="M104.474 54.3272C106.277 54.3272 107.738 52.8894 107.738 51.1158C107.738 49.3421 106.277 47.9043 104.474 47.9043C102.672 47.9043 101.211 49.3421 101.211 51.1158C101.211 52.8894 102.672 54.3272 104.474 54.3272Z" fill="#3F4040"/>
<path d="M184.125 147.917H28.588L22.9852 56.0604L185.395 55.7793L184.125 147.917Z" fill="#49B3F7"/>
<path d="M185.291 63.2733L185.334 60.126H23.2323L23.4243 63.2733H185.291Z" fill="#3A77BA"/>
<path d="M23.32 61.5491H185.315L185.395 55.7793L22.9852 56.0604L23.32 61.5491Z" fill="#864FF1"/>
<path d="M178.95 60.5902C179.934 60.5902 180.732 59.8053 180.732 58.8371C180.732 57.8689 179.934 57.084 178.95 57.084C177.966 57.084 177.169 57.8689 177.169 58.8371C177.169 59.8053 177.966 60.5902 178.95 60.5902Z" fill="white"/>
<path d="M172.975 60.5902C173.959 60.5902 174.756 59.8053 174.756 58.8371C174.756 57.8689 173.959 57.084 172.975 57.084C171.991 57.084 171.193 57.8689 171.193 58.8371C171.193 59.8053 171.991 60.5902 172.975 60.5902Z" fill="white"/>
<path d="M166.813 60.5902C167.797 60.5902 168.595 59.8053 168.595 58.8371C168.595 57.8689 167.797 57.084 166.813 57.084C165.829 57.084 165.031 57.8689 165.031 58.8371C165.031 59.8053 165.829 60.5902 166.813 60.5902Z" fill="white"/>
<path d="M123.422 52.5338H112.94C112.558 52.5338 112.191 52.3844 111.921 52.1183C111.651 51.8523 111.499 51.4915 111.499 51.1153C111.499 50.929 111.536 50.7446 111.608 50.5725C111.681 50.4004 111.787 50.244 111.921 50.1123C112.055 49.9805 112.214 49.876 112.388 49.8048C112.563 49.7335 112.751 49.6968 112.94 49.6968H123.422C123.612 49.6968 123.799 49.7335 123.974 49.8048C124.149 49.876 124.308 49.9805 124.442 50.1123C124.575 50.244 124.682 50.4004 124.754 50.5725C124.827 50.7446 124.864 50.929 124.864 51.1153C124.864 51.4915 124.712 51.8523 124.442 52.1183C124.171 52.3844 123.805 52.5338 123.422 52.5338Z" fill="#545554"/>
<path d="M95.5441 52.5338H85.0617C84.6794 52.5338 84.3128 52.3844 84.0425 52.1183C83.7722 51.8523 83.6204 51.4915 83.6204 51.1153C83.6204 50.929 83.6576 50.7446 83.7301 50.5725C83.8025 50.4004 83.9087 50.244 84.0425 50.1123C84.1764 49.9805 84.3352 49.876 84.5101 49.8048C84.685 49.7335 84.8724 49.6968 85.0617 49.6968H95.5441C95.7334 49.6968 95.9208 49.7335 96.0957 49.8048C96.2706 49.876 96.4295 49.9805 96.5633 50.1123C96.6971 50.244 96.8033 50.4004 96.8758 50.5725C96.9482 50.7446 96.9855 50.929 96.9855 51.1153C96.9855 51.4915 96.8336 51.8523 96.5633 52.1183C96.293 52.3844 95.9264 52.5338 95.5441 52.5338Z" fill="#545554"/>
<g style="mix-blend-mode:screen" opacity="0.28">
<path d="M151.555 47.1021C113.312 69.1896 49.8089 79.4401 19.817 83.2409L17.6934 47.1021H151.555Z" fill="#EBF7FD"/>
</g>
<path d="M60.2701 92.7153C61.2049 93.44 62.2213 94.0567 63.2991 94.553C64.2449 94.8925 65.1297 95.3781 65.9201 95.9917C66.479 96.5643 66.9236 97.2352 67.2306 97.9695C69.8709 103.505 69.4072 111.589 74.015 116.05C76.9424 118.884 82.2902 120.014 86.2353 120.162C91.2858 120.352 96.1982 121.886 101.233 121.985C106.515 122.088 111.516 119.612 115.795 116.562C116.974 115.63 118.251 114.827 119.606 114.167C124.367 112.136 130.576 114.385 134.658 111.232C137.841 108.773 138.169 104.171 140.381 100.835C143.096 96.741 148.315 94.9966 151.706 91.424C156.665 86.2006 156.806 78.0073 154.682 71.1711C153.417 67.099 152.746 64.2005 154.964 60.4363C156.715 57.4631 159.92 54.4345 160.583 50.9844C160.849 49.5848 160.902 48.1542 160.743 46.7391C160.312 42.9835 158.575 39.4899 155.827 36.85C152.077 33.2731 146.672 31.3386 143.941 26.9595C140.372 21.2338 144.563 14.197 141.297 8.22344C138.985 3.99533 134.046 1.80363 129.25 0.923298C124.349 0.0299714 119.309 0.194039 114.479 1.40417C109.711 2.60261 104.958 4.03539 100.006 3.04637C95.2491 2.09594 90.7264 -0.420806 85.7453 0.0605778C80.2836 0.587464 75.8714 4.6863 72.6822 9.08204C69.7252 13.1542 67.3661 17.6203 63.8985 21.3217C60.6289 24.8134 57.2125 28.3642 55.2469 32.7705C52.2773 39.4208 54.0633 45.0473 56.402 51.4216C58.4524 57.0102 54.7679 61.2963 53.0181 66.3504C51.2356 71.4989 52.2485 79.218 54.147 84.2391C55.3648 87.561 57.4821 90.4921 60.2701 92.7153Z" fill="#732C15"/>
<path d="M72.7955 80.6962C71.5632 79.6769 70.4073 78.5715 69.1449 77.5884C68.6617 77.2121 69.2566 76.4807 69.7714 76.7558C71.1991 77.5186 72.6503 78.2017 74.0079 79.0849C75.2667 79.9144 76.4775 80.8125 77.6345 81.775C79.8242 83.5727 82.1189 85.739 82.7332 88.5975C83.3225 91.3399 82.1191 93.8487 80.9806 96.2764C80.2318 97.6334 79.7777 99.1288 79.6472 100.668C79.6178 101.357 79.6761 102.048 79.8208 102.723C80.0136 103.304 80.2606 103.866 80.5587 104.402C80.6845 104.69 80.3326 104.983 80.0584 104.906C79.545 104.695 79.0829 104.38 78.7028 103.98C78.3227 103.581 78.0333 103.106 77.8538 102.588C77.4306 101.45 77.3633 100.213 77.6607 99.0368C78.256 96.1926 80.2936 93.7999 80.6462 90.8951C81.0226 87.7953 78.5872 85.4512 76.3833 83.6141C75.1992 82.6271 73.9834 81.6787 72.7955 80.6962Z" fill="#7F391F"/>
<path d="M141.477 94.449C141.379 94.5017 141.282 94.5555 141.186 94.6105C138.71 96.0394 136.809 98.2622 135.8 100.907C135.637 101.475 135.376 102.012 135.03 102.494C134.851 102.732 134.6 102.907 134.313 102.994C134.026 103.081 133.718 103.076 133.434 102.979C132.609 102.595 132.7 101.409 133.035 100.574C134.471 96.9935 137.841 94.5299 141.285 92.7042C144.766 90.7598 147.662 87.941 149.675 84.5356C150.517 83.2825 151.15 81.9054 151.551 80.456C151.979 78.496 152.069 76.479 151.817 74.4895C151.509 72.792 151.107 71.1121 150.614 69.4574C150.602 69.403 150.665 69.3343 150.721 69.3743C152.819 70.875 153.689 73.5755 153.942 76.0299C154.309 79.4375 153.619 82.8745 151.963 85.889C150.308 88.9034 147.764 91.3542 144.666 92.9188C143.616 93.4551 142.513 93.8891 141.477 94.449Z" fill="#7F391F"/>
<path d="M132.759 88.3544C132.562 87.542 132.543 86.6976 132.702 85.8772C132.862 85.0569 133.196 84.2792 133.684 83.5956C135.603 80.9393 139.321 79.6419 140.405 76.3934C140.412 76.3693 140.427 76.3481 140.447 76.3329C140.467 76.3177 140.492 76.3094 140.517 76.3091C140.543 76.3088 140.568 76.3166 140.589 76.3313C140.609 76.346 140.625 76.3668 140.632 76.3908C141.701 79.2994 138.77 81.4381 136.875 83.1032C135.587 84.2351 134.608 85.4276 134.606 87.2056C134.603 89.1837 135.702 90.7586 136.065 92.6333C136.093 92.7459 136.084 92.8645 136.039 92.9717C135.994 93.0788 135.915 93.1689 135.814 93.2286C135.713 93.2883 135.595 93.3145 135.478 93.3034C135.36 93.2923 135.25 93.2444 135.162 93.1667C133.798 92.0939 133.089 89.9903 132.759 88.3544Z" fill="#7F391F"/>
<path d="M121.84 87.4998C121.7 86.035 121.953 84.5597 122.573 83.2209C122.834 82.5878 123.676 83.0695 123.604 83.6274C123.481 84.8902 123.63 86.1644 124.042 87.3664C124.368 88.4118 125.037 89.4546 125.144 90.5319C125.143 90.6808 125.103 90.8269 125.027 90.956C124.952 91.0851 124.844 91.1928 124.713 91.2687C124.583 91.3445 124.435 91.3859 124.284 91.3888C124.133 91.3918 123.983 91.3561 123.85 91.2854C122.579 90.629 122.012 88.8046 121.84 87.4998Z" fill="#7F391F"/>
<path d="M61.1876 119.421C59.2207 120.921 57.1755 122.318 55.0606 123.607C54.2811 124.084 53.4925 124.545 52.695 124.99C52.1749 125.284 51.6463 125.571 51.1133 125.852C49.5433 126.793 47.7918 127.403 45.9699 127.643C44.4691 127.689 42.9718 127.474 41.5464 127.01C32.8944 124.58 25.0325 119.979 18.7318 113.658C18.0387 112.96 17.3216 112.121 17.4009 111.15C17.5059 109.907 18.943 109.127 20.2044 109.23C21.4546 109.447 22.6339 109.955 23.6443 110.712C27.557 113.13 31.7549 115.069 36.145 116.487C38.5873 117.383 41.1814 117.811 43.7872 117.748C44.8998 117.67 45.999 117.462 47.0612 117.127C48.0217 116.826 48.9575 116.454 49.8604 116.014C51.7974 115.034 53.6667 113.93 55.456 112.708L61.1876 119.421Z" fill="#FFBF94"/>
<path d="M61.1879 119.422C59.221 120.921 57.1759 122.318 55.061 123.608C52.7038 121.549 50.9147 118.937 49.8607 116.014C51.7978 115.034 53.667 113.93 55.4563 112.708L61.1879 119.422Z" fill="#F49B73"/>
<path d="M128.604 137.453C129.661 139.134 130.854 140.728 132.171 142.22C133.315 143.539 134.544 144.784 135.85 145.949C138.096 145.863 145.549 146.264 147.837 145.949C144.185 142.78 140.711 136.653 137.581 132.994C137.161 132.507 136.75 132.015 136.347 131.517C135.421 130.426 134.604 129.251 133.907 128.006C133.533 127.315 133.239 126.584 133.03 125.828L122.182 124.961C122.935 126.665 123.756 128.476 124.651 130.305C125.831 132.758 127.151 135.145 128.604 137.453Z" fill="#FFBF94"/>
<path d="M124.651 130.304C125.831 132.758 127.151 135.144 128.604 137.452C133.696 137.144 136.322 134.756 137.581 132.993C137.161 132.506 136.75 132.014 136.347 131.517C135.421 130.426 134.604 129.25 133.907 128.006L127.288 128.237C126.37 128.878 125.49 129.567 124.651 130.304Z" fill="#F49B73"/>
<path d="M120.628 98.5264C114.821 96.597 110.232 95.868 104.424 93.9387C102.231 93.2101 104.238 94.3349 101.936 94.096C99.9832 93.9493 98.0205 93.9956 96.0772 94.2344C90.5464 94.7564 85.0431 95.4977 79.5672 96.4583C77.8757 96.6506 76.2399 97.1718 74.7549 97.9916C73.0403 99.0842 66.6249 100.919 53.0003 113.27C51.1368 114.128 59.4328 124.326 63.6563 126.26C68.9296 128.675 80.199 116.74 84.0869 110.72C84.2003 110.418 84.4216 110.168 84.7093 110.015C84.997 109.863 85.3314 109.819 85.6497 109.891C94.5435 110.584 103.437 111.276 112.331 111.969C112.687 111.961 113.036 112.063 113.329 112.262C113.558 112.505 113.709 112.808 113.764 113.135C115.849 120.74 119.675 127.774 124.949 133.699C125.211 134.048 125.562 134.322 125.967 134.494C126.36 134.59 126.771 134.589 127.164 134.491C131.632 133.715 135.87 131.976 139.573 129.397C139.873 129.236 140.1 128.969 140.209 128.651C140.231 128.309 140.123 127.971 139.906 127.704C135.559 120.769 131.902 113.439 128.984 105.814C128.848 105.46 128.712 105.102 128.569 104.745C128.092 103.545 127.351 102.464 126.401 101.578C125.45 100.692 124.313 100.023 123.07 99.6188L120.628 98.5264Z" fill="#FFC652"/>
<path d="M92.7139 77.9487C92.7298 78.6974 92.7458 79.4482 92.7617 80.1969C92.7737 80.7575 92.7856 81.3174 92.7976 81.8767C92.8115 82.6274 92.8268 83.3788 92.8434 84.1308C92.8573 84.8305 92.8733 85.5323 92.8872 86.234L92.8991 86.8435C92.927 88.1705 92.9542 89.4975 92.9808 90.8244L93.0585 94.5564C93.0383 94.9342 93.1057 95.3116 93.2556 95.6599C93.4656 95.9939 93.7618 96.2672 94.114 96.4518C95.9696 97.5609 98.0896 98.1685 100.26 98.2132C102.431 98.258 104.575 97.7383 106.476 96.7066C106.725 96.5702 106.926 96.3623 107.053 96.1105C107.179 95.8588 107.224 95.5751 107.183 95.2973C106.997 94.0939 106.879 92.8814 106.828 91.6653C106.783 90.5775 106.791 89.489 106.854 88.3998C106.87 88.1391 106.888 87.8765 106.91 87.6158C106.972 86.8611 107.057 86.1085 107.173 85.3597C107.316 84.3993 107.505 83.448 107.738 82.5059C107.75 82.4549 107.764 82.402 107.776 82.351L107.372 82.2334L103.293 81.0437L101.782 80.6007L92.7139 77.9487Z" fill="#FFAF79"/>
<path d="M4.66037 99.6605C4.86609 99.5115 5.11474 99.4309 5.37018 99.4305C7.15387 99.3213 12.5892 103.688 13.2163 103.103C11.7769 101.956 10.9655 101.06 9.52621 99.9128C8.80279 99.3364 7.43575 97.9563 8.178 97.4037C8.35247 97.3032 8.54798 97.2434 8.74956 97.2288C8.95114 97.2142 9.15344 97.2452 9.34098 97.3194C11.8377 98.0362 13.1477 100.822 15.4949 101.924C15.3937 100.663 15.5091 99.3939 15.8363 98.1702C15.9549 97.727 16.1586 97.2317 16.6024 97.0932C16.8638 97.051 17.1319 97.1045 17.3559 97.2438C17.5799 97.383 17.7442 97.5982 17.8178 97.8487C17.9482 98.354 18.0075 98.8745 17.9941 99.3956C18.1688 101.592 19.8971 103.302 21.239 105.066C22.5809 106.829 25.0351 109.956 23.7475 111.758L22.3453 114.081C19.9902 115.636 18.1155 115.93 15.7864 114.338C14.1421 113.214 12.8866 111.366 10.9215 110.99C10.047 110.822 9.36738 110.531 8.51168 110.287C7.65598 110.043 6.38673 109.24 6.79264 108.459C8.24891 108.552 9.94934 108.965 11.4057 109.058C10.2826 108.05 8.73583 107.679 7.31953 107.136C5.90323 106.593 3.55147 104.702 4.07455 103.711C4.22751 103.421 4.65286 103.436 4.97839 103.5C6.37932 103.773 11.5521 106.159 11.6113 105.741C9.40288 104.551 7.28116 103.212 5.26149 101.733C4.63437 101.192 4.02341 100.19 4.66037 99.6605Z" fill="#FFBF94"/>
<path d="M114.487 136.755H79.5793V146.189H114.487V136.755Z" fill="#FFC652"/>
<path d="M79.7143 109.763C79.1739 112.358 78.4245 114.907 77.4733 117.385C76.7452 118.885 76.1311 120.436 75.636 122.025C74.8811 125.07 75.6058 128.263 76.3933 131.3C77.2539 134.62 80.4213 140.777 81.7722 141.575C82.5565 142.039 84.4178 141.903 85.3314 141.95C88.5181 142.111 91.6746 142.314 94.864 142.284C98.17 142.252 101.474 142.132 104.775 141.925C106.853 141.794 108.929 141.628 111.002 141.428C111.386 141.424 111.763 141.332 112.104 141.159C112.445 140.987 112.74 140.739 112.967 140.435C114.675 138.327 116.632 136.016 117.293 133.333C117.454 132.677 117.538 132.022 117.73 131.358L118.413 128.998L119.777 124.278C120.36 122.264 120.942 120.251 121.524 118.237L118.962 108.467L106.531 103.661C106.531 103.661 78.784 104.098 79.006 104.753C79.1185 106.134 79.1185 107.522 79.006 108.904L79.7143 109.763Z" fill="#FFC652"/>
<path d="M76.1499 118.153C77.0433 115.203 78.0876 112.355 79.1965 109.481C79.2001 109.47 79.2081 109.46 79.2188 109.454C79.2294 109.449 79.2419 109.447 79.2536 109.45C79.2653 109.454 79.2753 109.461 79.2814 109.471C79.2876 109.482 79.2895 109.494 79.2868 109.505C78.7876 112.091 78.3077 114.647 77.6165 117.194C76.9555 119.629 76.1622 121.866 76.1998 124.403C76.3022 126.885 76.7739 129.339 77.5998 131.686C78.4313 134.258 79.8457 136.844 80.4115 139.447C80.4483 139.616 80.3946 139.878 80.2241 139.836C80.1601 139.81 80.109 139.76 80.0816 139.698C78.8291 137.643 77.7473 135.493 76.8467 133.267C76.5954 132.635 76.3546 132 76.1327 131.357C75.7003 130.134 75.3586 128.882 75.1104 127.61C74.2788 123.669 75.3563 120.773 76.1499 118.153Z" fill="#F7A845"/>
<path d="M113.961 138.399C114.028 138.3 114.099 138.203 114.166 138.107C114.645 137.427 115.047 136.694 115.494 136.005C116.014 135.166 116.448 134.279 116.791 133.357C117.749 131.219 118.369 128.95 118.63 126.628C118.767 124.389 118.059 122.154 117.804 119.938C117.536 117.497 117.523 115.034 117.765 112.59C117.766 112.558 117.78 112.528 117.803 112.506C117.826 112.484 117.857 112.472 117.89 112.472C117.922 112.472 117.953 112.484 117.976 112.506C118 112.528 118.013 112.558 118.015 112.59C118.239 115.331 118.582 118.12 119.006 120.838C119.115 121.534 119.24 122.223 119.353 122.909C119.413 122.924 119.467 122.954 119.512 122.996C119.556 123.038 119.589 123.091 119.607 123.149C120.745 126.801 122.601 130.197 125.069 133.146C125.99 134.21 127.126 133.774 128.344 133.514C129.334 133.303 130.325 133.072 131.307 132.826C133.332 132.318 135.235 131.492 137.228 130.899C137.256 130.891 137.284 130.931 137.258 130.951C135.341 132.278 133.245 133.334 131.03 134.09C129.37 134.735 126.398 136.043 124.824 134.63C124.145 133.931 123.536 133.169 123.006 132.355C122.286 131.423 121.619 130.454 121.007 129.451C120.5 128.608 120.051 127.732 119.664 126.829C119.644 127.208 119.603 127.586 119.541 127.96C119.095 130.212 118.347 132.396 117.316 134.454C116.996 135.131 116.638 135.79 116.244 136.428C115.823 137.102 115.203 137.669 114.735 138.321C114.521 138.694 114.214 139.006 113.841 139.227C113.769 139.262 113.69 139.283 113.61 139.29C113.638 138.966 113.76 138.657 113.961 138.399Z" fill="#F7A845"/>
<path d="M85.1339 136.944C86.1177 137.091 87.0823 137.588 88.0676 137.804C89.0593 138.022 90.0769 138.173 91.0821 138.319C93.3877 138.641 95.7153 138.787 98.044 138.756C102.6 138.73 107.128 138.058 111.488 136.759C111.595 136.726 111.673 136.895 111.566 136.942C109.442 137.934 107.224 138.719 104.943 139.283C102.545 139.825 100.102 140.151 97.6441 140.255C95.2382 140.34 92.8296 140.2 90.4504 139.839C88.6551 139.575 85.7576 139.172 84.6933 137.508C84.4933 137.196 84.8225 136.898 85.1339 136.944Z" fill="#F7A845"/>
<path d="M84.452 133.877C86.06 134.014 87.652 134.293 89.2085 134.713C90.9635 135.074 92.7392 135.329 94.5257 135.476C98.0696 135.72 101.631 135.533 105.128 134.919C105.131 134.918 105.134 134.919 105.136 134.92C105.139 134.922 105.14 134.924 105.141 134.927C105.142 134.93 105.142 134.932 105.14 134.935C105.139 134.937 105.137 134.939 105.134 134.94C101.679 136.2 98.01 136.792 94.3275 136.683C91.1325 136.62 86.8991 136.247 84.3085 134.218C84.1675 134.108 84.288 133.874 84.452 133.877Z" fill="#F7A845"/>
<path d="M92.8431 84.1313C92.8571 84.8311 92.873 85.5328 92.8869 86.2345L92.8989 86.8441C92.9267 88.1711 92.954 89.498 92.9805 90.825C96.9319 94.7701 104.068 93.5093 106.828 91.6659C106.782 90.578 106.791 89.4895 106.854 88.4004C106.87 88.1397 106.888 87.877 106.91 87.6164C106.971 86.8617 107.057 86.1091 107.173 85.3603C106.587 84.9957 106.155 84.7351 106.155 84.7351C106.155 84.7351 104.355 84.639 102.008 84.5214C98.9633 84.3705 94.996 84.1843 92.8431 84.1313Z" fill="#F59D75"/>
<path d="M90.9443 95.4235C90.9697 95.2606 91.1754 95.2206 91.2996 95.2812C91.8957 95.572 92.2184 96.2394 92.6667 96.71C93.2417 97.3035 93.8984 97.8148 94.6175 98.2292C96.2741 99.2145 98.1245 99.8424 100.046 100.071C101.871 100.321 103.731 100.075 105.424 99.359C106.867 98.6018 108.161 97.5975 109.245 96.3933C109.252 96.3864 109.262 96.3821 109.272 96.3809C109.282 96.3797 109.292 96.3818 109.301 96.3869C109.31 96.392 109.317 96.3997 109.321 96.4089C109.325 96.4182 109.326 96.4284 109.323 96.4382C108.388 100.136 103.239 101.741 99.8503 101.39C97.7456 101.192 95.7237 100.483 93.9663 99.3257C92.8484 98.5615 90.7054 96.9543 90.9443 95.4235Z" fill="#F7A845"/>
<path d="M15.8357 98.1702C15.8525 97.9392 15.9326 97.7171 16.0675 97.5275C16.2024 97.3378 16.3871 97.1877 16.6018 97.0932C16.8633 97.051 17.1313 97.1045 17.3553 97.2438C17.5793 97.383 17.7437 97.5982 17.8173 97.8487C17.9476 98.354 18.007 98.8745 17.9936 99.3956C18.1682 101.592 19.8966 103.302 21.2384 105.066C22.5803 106.829 25.0346 109.956 23.7469 111.758L22.3448 114.081C19.9897 115.636 19.4873 115.346 17.1582 113.754C16.424 113.252 18.0158 110.414 17.5374 108.109C16.8553 104.82 15.1376 102.88 15.8357 98.1702Z" fill="#FFBF94"/>
<path d="M133.752 51.4595C133.62 58.9321 131.873 66.2913 128.627 73.0477C127.672 75.1719 126.409 77.1487 124.878 78.9165C123.246 80.6043 121.382 82.0599 119.341 83.2412C114.596 86.1657 109.486 88.4746 104.14 90.1105C102.411 90.7564 100.554 91.002 98.7134 90.8283C96.5406 90.4836 82.1723 84.1026 78.1021 73.5932C77.201 71.2666 75.4654 66.0628 75.9452 63.6181C77.3696 56.3605 78.7949 49.0995 80.5785 41.9192C82.003 36.1851 83.7967 30.2551 87.9547 26.0007C89.7524 24.2697 91.7439 22.7452 93.8911 21.4564C95.8963 20.0736 98.0673 18.9398 100.355 18.0808C104.625 16.6386 109.286 16.995 113.766 17.5427C116.971 17.9347 120.254 18.4452 123.046 20.0434C125.237 21.3906 127.121 23.1686 128.582 25.266C133.215 31.5559 135.488 39.2334 135.011 46.9885L133.752 51.4595Z" fill="#FFBF94"/>
<path d="M130.887 60.0747C130.887 60.0747 127.019 57.635 127.3 54.6047C125.048 54.6465 122.86 53.8632 121.161 52.4069C119.463 50.9506 118.375 48.9252 118.108 46.7238C114.814 47.5149 111.341 47.1137 108.323 45.5935C103.663 43.0332 103.737 36.8817 103.737 36.8817C103.737 36.8817 103.307 38.5913 99.7971 40.0245C96.2876 41.4578 93.5499 38.3613 93.5499 38.3613C93.9143 39.7135 93.8479 41.1432 93.3598 42.4571C92.8717 43.771 91.9854 44.9057 90.8207 45.7078C89.7427 46.6255 88.3948 47.1801 86.9739 47.2906C85.5529 47.401 84.1333 47.0616 82.9222 46.3218C82.9222 46.3218 82.3616 50.4553 78.9777 50.8868C75.5938 51.3183 75.6779 40.3954 75.6779 40.3954C75.6779 40.3954 90.9686 33.4046 91.1216 33.1349C91.2747 32.8651 109.644 26.1507 109.919 26.3013C110.193 26.452 125.297 35.6353 126.119 36.0871C126.941 36.5389 133.767 53.0275 134.283 54.0188C134.8 55.0102 130.887 60.0747 130.887 60.0747Z" fill="#F49B73"/>
<path d="M126.546 58.5325C126.355 57.6525 125.904 56.8479 125.248 56.2203C124.205 55.0297 122.919 54.0682 121.474 53.3981C120.019 52.7299 118.381 52.5524 116.813 52.8931C116.025 53.0832 115.153 53.6089 115.177 54.4074C115.2 54.6383 115.28 54.8601 115.41 55.0538C115.54 55.2475 115.716 55.4072 115.922 55.5191C116.337 55.7386 116.78 55.9006 117.24 56.0006C119.374 56.5974 121.377 57.578 123.148 58.8929C123.66 59.3515 124.268 59.6934 124.93 59.8943C125.263 59.9828 125.618 59.9452 125.925 59.789C126.231 59.6327 126.467 59.3691 126.586 59.05C126.74 58.3635 126.132 57.7616 125.582 57.3128L126.546 58.5325Z" fill="#692E12"/>
<path d="M93.1074 51.3111C92.1331 51.1415 91.1465 51.0499 90.1572 51.0371C88.9558 51.1756 87.8067 51.6 86.8093 52.2736C86.3068 52.6597 85.6978 52.8881 85.0616 52.9291C84.8521 52.9074 84.6495 52.8433 84.4664 52.7408C84.2834 52.6384 84.1238 52.4998 83.9977 52.3338C83.8716 52.1677 83.7818 51.9778 83.7338 51.776C83.6859 51.5742 83.6808 51.3648 83.719 51.161C83.9342 50.5552 84.368 50.0483 84.9381 49.7366C87.8304 47.7877 93.5136 45.7938 95.8068 49.1275C96.3498 49.917 96.6206 51.658 93.1074 51.3111Z" fill="#692E12"/>
<path d="M104.651 73.0602C104.066 72.3734 103.265 71.8982 102.375 71.7101C102.26 71.6838 102.143 71.6638 102.027 71.6435C101.943 71.6297 101.859 71.6206 101.775 71.6165C101.539 71.5996 101.303 71.5995 101.067 71.6163C100.609 71.6573 100.16 71.7722 99.7392 71.9562C99.5693 72.0027 99.3876 71.9814 99.2336 71.8968C99.0796 71.8122 98.9658 71.6712 98.9169 71.5044C98.8733 71.3373 98.8967 71.1601 98.9821 71.0095C99.0675 70.8588 99.2085 70.7463 99.3759 70.6951C100.432 70.2743 101.594 70.1848 102.703 70.439C103.813 70.6932 104.815 71.2786 105.574 72.1151C105.696 72.238 105.767 72.4025 105.77 72.5748C105.774 72.7472 105.71 72.9143 105.592 73.0419C105.469 73.166 105.301 73.2374 105.125 73.2409C104.949 73.2443 104.779 73.1794 104.651 73.0602L104.651 73.0602Z" fill="#DD664A"/>
<path d="M134.197 62.6403C132.306 61.8656 130.803 60.3853 130.018 58.5231C129.233 56.6609 129.229 54.5685 130.007 52.7034C128.727 53.3013 127.291 53.4979 125.893 53.2668C124.496 53.0356 123.204 52.3879 122.193 51.411C121.182 50.4342 120.499 49.1753 120.238 47.8046C119.977 46.4339 120.15 45.0173 120.734 43.7464C119.556 44.6284 118.145 45.1584 116.67 45.2734C112.949 45.6104 109.257 43.556 107.105 40.5495C105.044 37.4433 104.094 33.7499 104.404 30.0529C104.528 33.6146 102.659 36.252 99.674 37.2647C98.1565 37.7105 96.5489 37.7708 95.0014 37.4398C93.4538 37.1088 92.0166 36.3974 90.8239 35.372C93.0227 37.5816 92.6224 41.6041 90.2579 43.6412C87.8933 45.6783 84.1191 45.697 81.485 44.0106C81.8158 44.9492 81.8861 45.9576 81.6888 46.9318C81.4915 47.906 81.0336 48.8108 80.3624 49.5528C78.9994 51.0191 77.3338 52.1819 75.4772 52.9634C73.4753 50.7069 72.8246 47.5801 72.6844 44.5877C72.3394 36.3787 75.2329 28.3563 80.7597 22.1987C82.7925 20.039 85.0055 18.0505 87.3754 16.2541C88.8449 15.0184 90.4524 13.9512 92.167 13.0731C95.6793 11.4141 99.7236 11.2922 103.616 11.4472C106.986 11.5196 110.337 11.9615 113.608 12.7647C118.556 14.0781 123.068 16.6034 127.519 19.1034C130.443 20.7454 133.483 22.4942 135.283 25.2929C136.724 27.5311 137.221 30.2185 138.267 32.6597C139.126 34.6647 140.36 36.5156 141.011 38.595C142.356 42.8893 141.054 47.5072 139.712 51.8022C138.784 54.7694 137.836 57.7302 136.867 60.6845C136.588 61.5353 136.004 62.5765 135.111 62.409L134.197 62.6403Z" fill="#732C15"/>
<path d="M130.613 61.0319C130.78 60.5826 131.102 60.2052 131.523 59.9655C131.943 59.7257 132.436 59.6389 132.915 59.7201C133.579 59.8914 134.16 60.2858 134.559 60.8347C135.52 62.1176 135.974 63.7003 135.838 65.2883C135.696 66.8636 135.266 68.4007 134.569 69.8256C134.265 70.576 133.838 71.2723 133.305 71.8867C132.768 72.4573 132.084 72.8732 131.325 73.0896C130.566 73.306 129.761 73.3147 128.998 73.1149C128.234 72.9151 127.541 72.5142 126.991 71.9555C126.442 71.3967 126.058 70.7011 125.88 69.9435L130.613 61.0319Z" fill="#FFBF94"/>
<path d="M131.277 62.8047C131.277 62.8047 134.235 62.6607 133.249 67.25C132.264 71.8393 128.608 70.3614 128.608 70.3614C129.565 69.3552 130.296 68.1629 130.756 66.8613C131.216 65.5598 131.393 64.1779 131.277 62.8047Z" fill="#F49B73"/>
<path d="M79.4169 52.4396C79.2938 51.8916 79.0578 51.3743 78.7235 50.9197C78.3893 50.465 77.9638 50.0827 77.4734 49.7963C77.1086 49.5737 76.6959 49.4385 76.2684 49.4016C75.1271 49.3343 74.1462 50.2035 73.5151 51.1417C72.7292 52.3844 72.2509 53.7914 72.1189 55.2494C71.9868 56.7074 72.2046 58.1755 72.7548 59.5354C72.9659 60.1399 73.3015 60.6951 73.7405 61.1662C74.345 61.7183 75.1454 62.0149 75.9697 61.9924C76.7941 61.9698 77.5765 61.6299 78.1489 61.0457L79.4169 52.4396Z" fill="#FFBF94"/>
<path d="M76.3608 60.1045C76.3608 60.1045 72.8852 60.618 73.7312 56.0019C74.7108 50.6564 77.9355 53.0979 77.9355 53.0979C76.8743 55.2846 76.3356 57.6813 76.3608 60.1045Z" fill="#F49B73"/>
<path d="M127.556 73.6587C127.659 74.0178 127.869 74.3388 128.158 74.5808C128.446 74.8229 128.802 74.9753 129.179 75.0187C129.555 75.0621 129.937 74.9945 130.275 74.8246C130.612 74.6547 130.892 74.39 131.076 74.064C131.261 73.738 131.344 73.3654 131.314 72.9933C131.283 72.6212 131.142 72.2662 130.906 71.9733C130.671 71.6805 130.353 71.4628 129.992 71.348C129.631 71.2331 129.243 71.2261 128.878 71.3279C128.389 71.4644 127.974 71.7867 127.726 72.2238C127.478 72.6609 127.417 73.177 127.556 73.6587Z" fill="#EECAB9"/>
<path d="M74.0981 62.9824C74.2015 63.3416 74.4109 63.6625 74.6998 63.9046C74.9886 64.1467 75.3439 64.299 75.7208 64.3424C76.0976 64.3858 76.4791 64.3182 76.8169 64.1483C77.1547 63.9784 77.4338 63.7137 77.6187 63.3877C77.8036 63.0618 77.8862 62.6892 77.8559 62.317C77.8257 61.9449 77.6839 61.5899 77.4486 61.2971C77.2133 61.0042 76.8951 60.7866 76.5341 60.6717C76.1731 60.5568 75.7855 60.5498 75.4205 60.6516C75.1781 60.7192 74.9517 60.8331 74.754 60.9869C74.5564 61.1406 74.3915 61.3311 74.2687 61.5475C74.1459 61.764 74.0676 62.0021 74.0383 62.2483C74.0091 62.4945 74.0293 62.7439 74.0981 62.9824Z" fill="#EECAB9"/>
<path d="M128.505 72.8398C128.559 73.0253 128.667 73.1911 128.816 73.3161C128.965 73.4411 129.149 73.5198 129.343 73.5422C129.538 73.5646 129.735 73.5297 129.91 73.442C130.084 73.3542 130.228 73.2175 130.324 73.0492C130.419 72.8808 130.462 72.6884 130.446 72.4962C130.431 72.304 130.357 72.1207 130.236 71.9694C130.114 71.8182 129.95 71.7058 129.763 71.6464C129.577 71.5871 129.377 71.5835 129.188 71.6361C129.063 71.671 128.946 71.7298 128.844 71.8092C128.742 71.8886 128.657 71.987 128.594 72.0988C128.53 72.2105 128.49 72.3335 128.475 72.4607C128.459 72.5878 128.47 72.7167 128.505 72.8398Z" fill="white"/>
<path d="M74.8917 62.3974C74.9452 62.5829 75.0533 62.7487 75.2025 62.8737C75.3517 62.9987 75.5352 63.0774 75.7298 63.0998C75.9244 63.1222 76.1214 63.0873 76.2959 62.9995C76.4704 62.9118 76.6145 62.7751 76.71 62.6067C76.8055 62.4384 76.8481 62.246 76.8325 62.0538C76.8168 61.8616 76.7436 61.6783 76.6221 61.527C76.5006 61.3758 76.3362 61.2634 76.1498 61.204C75.9634 61.1447 75.7632 61.1411 75.5747 61.1937C75.3219 61.2642 75.1079 61.4307 74.9799 61.6564C74.8518 61.8821 74.8201 62.1487 74.8917 62.3974Z" fill="white"/>
<path d="M59.3761 55.3111C61.0019 54.1224 62.1828 52.4382 62.7353 50.5205C63.8938 46.2758 61.6125 41.7918 62.158 37.4297C63.107 29.8305 71.6914 25.8143 76.0248 19.4553C78.6227 15.6423 80.2626 10.4095 84.7478 9.15141C88.7444 8.03186 92.6454 10.7856 96.4828 12.349C100.726 14.0647 105.421 14.3745 109.858 13.2316C113.831 12.1981 117.769 9.99363 121.789 10.8295C126.078 11.7244 128.869 15.7915 130.587 19.7627C132.305 23.7318 133.522 28.0948 136.589 31.179C141.524 36.1444 149.681 36.3096 155.432 40.3344C157.743 41.973 159.575 44.1821 160.742 46.7391C160.311 42.9835 158.575 39.4899 155.826 36.85C152.076 33.2732 146.671 31.3386 143.94 26.9596C140.371 21.2339 144.563 14.197 141.296 8.22345C138.985 3.99535 134.046 1.80364 129.249 0.923313C124.348 0.0299873 119.309 0.194055 114.479 1.40419C109.711 2.60262 104.958 4.03541 100.005 3.04639C95.2485 2.09594 90.7259 -0.420806 85.7447 0.0605778C80.283 0.587464 75.8708 4.6863 72.6817 9.08204C69.7246 13.1542 67.3655 17.6203 63.8979 21.3217C60.6283 24.8134 57.2119 28.3642 55.2464 32.7705C53.6547 36.5198 53.1978 40.6419 53.9304 44.6408C54.6631 48.6397 56.5542 52.345 59.3761 55.3111Z" fill="#7F391F"/>
<path d="M111.199 16.285C113.061 15.1824 115.261 14.7692 117.405 15.1195C119.611 15.4756 121.653 16.4876 123.258 18.0196C126.841 21.3771 128.066 26.1878 130.235 30.3995C131.221 32.517 132.713 34.3681 134.584 35.7945C136.421 37.0299 138.475 37.9173 140.642 38.4109C143.049 39.011 145.461 39.3167 147.636 40.5884C149.558 41.7044 151.175 43.2645 152.346 45.1337C153.814 47.5077 153.534 49.9452 152.054 52.2501C150.76 54.2641 148.844 55.8103 146.385 55.9919C146.288 55.9905 146.192 55.9613 146.111 55.9078C146.03 55.8544 145.966 55.779 145.928 55.6907C145.889 55.6024 145.877 55.505 145.894 55.4102C145.91 55.3154 145.954 55.2274 146.02 55.1567C147.537 54.0185 148.842 52.6305 149.877 51.0541C150.408 50.2468 150.705 49.3114 150.733 48.3498C150.533 47.3267 150.012 46.3913 149.244 45.6751C148.009 44.2776 146.42 43.2271 144.638 42.6303C142.575 41.9595 140.382 41.8139 138.303 41.1924C134.292 40.0424 130.86 37.4639 128.675 33.9592C126.417 30.2693 125.505 25.9507 123.2 22.2872C122.084 20.3973 120.412 18.8851 118.404 17.9503C116.26 17.0727 113.904 16.824 111.619 17.2342C111.064 17.3422 110.644 16.5893 111.199 16.285Z" fill="#7F391F"/>
<path d="M68.4367 43.6921C69.1749 42.2714 69.5932 40.7107 69.6632 39.1165C69.6441 37.582 69.3687 36.0623 69.42 34.5247C69.4133 32.9842 69.8747 31.477 70.7449 30.1966C71.8174 28.7184 73.414 27.927 74.8654 26.8791C77.5959 24.9078 78.7647 21.3033 80.8141 18.7371C83.0729 15.9087 86.2775 14.3163 89.9413 15.2021C91.8443 15.7738 93.6813 16.5399 95.4222 17.4878C96.3411 17.9486 97.3147 18.295 98.3205 18.5192C99.3128 18.7173 100.316 18.6262 101.303 18.7802C101.327 18.7839 101.33 18.8133 101.317 18.8284C100.397 19.9207 98.654 19.9075 97.3475 19.7541C95.6212 19.4885 93.9339 19.0185 92.3222 18.3544C90.7651 17.779 89.0246 17.1725 87.3367 17.4551C85.664 17.8592 84.2207 18.8965 83.3205 20.3417C81.2995 23.1486 80.3683 26.6101 77.6935 28.9701C76.4293 30.0855 74.7513 30.6744 73.5398 31.814C72.6099 32.8809 72.0704 34.2239 72.0077 35.6283C71.653 38.3532 72.1508 43.076 68.994 44.3861C68.5579 44.5671 68.2957 44.0221 68.4367 43.6921Z" fill="#7F391F"/>
<path d="M87.7389 31.6688C87.9524 28.1639 91.1863 25.7886 94.3929 24.8305C96.2775 24.2674 98.1446 24.4436 100.081 24.4972C101.151 24.5668 102.226 24.4635 103.262 24.1915C104.236 23.8969 105.113 23.4444 106.048 23.0677C106.114 23.0411 106.155 23.1224 106.133 23.1729C104.521 26.9021 99.7838 25.9357 96.5988 26.4026C93.0013 26.93 90.7506 29.4512 88.3986 31.9275C88.3451 31.9798 88.2772 32.0155 88.2033 32.0303C88.1294 32.0452 88.0527 32.0384 87.9826 32.011C87.9125 31.9835 87.8522 31.9365 87.8089 31.8757C87.7656 31.8149 87.7412 31.743 87.7389 31.6688Z" fill="#7F391F"/>
<path d="M108.845 33.2273C108.967 31.6907 109.325 30.1811 109.908 28.7505C110.499 27.233 111.614 25.4693 111.23 23.7826C111.218 23.7339 111.221 23.6825 111.241 23.636C111.26 23.5895 111.295 23.5505 111.338 23.5246C111.382 23.4987 111.433 23.4874 111.484 23.4923C111.535 23.4973 111.583 23.5181 111.621 23.5519C113.39 25.2027 112.156 27.6253 111.681 29.5904C111.145 31.8089 110.964 34.2983 112.21 36.328C113.415 38.2897 115.66 38.6396 117.831 38.5526C118.97 38.561 120.078 38.1908 120.976 37.502C121.58 36.8432 121.995 36.0375 122.176 35.1682C122.214 35.035 122.286 34.9136 122.385 34.8157C122.484 34.7177 122.607 34.6464 122.743 34.6087C122.878 34.571 123.021 34.5681 123.157 34.6002C123.294 34.6324 123.42 34.6986 123.523 34.7925C125.764 36.8318 123.457 40.2161 121.319 41.2228C119.84 41.825 118.237 42.0724 116.641 41.9445C115.046 41.8167 113.504 41.3172 112.144 40.4875C111.012 39.6534 110.115 38.5489 109.538 37.2785C108.96 36.008 108.722 34.6137 108.845 33.2273Z" fill="#7F391F"/>
<path d="M124.38 46.3096C124.285 45.2766 124.492 44.2382 124.978 43.3178C125.444 42.4244 126.197 41.7073 127.12 41.2776C127.143 41.2651 127.179 41.2914 127.161 41.3166C125.689 43.3203 125.242 46.4187 127.208 48.2676C127.634 48.6846 128.168 48.9788 128.752 49.1183C129.336 49.2578 129.947 49.2373 130.52 49.059C130.976 48.9066 131.719 48.5019 131.828 47.9837C131.96 47.3583 131.282 46.8883 130.797 46.6317C130.716 46.5864 130.65 46.5215 130.603 46.4432C130.555 46.3649 130.53 46.2759 130.528 46.185C130.527 46.094 130.549 46.0042 130.593 45.9243C130.637 45.8444 130.702 45.7771 130.78 45.729C132.755 44.8087 134.465 46.9228 133.888 48.8055C133.207 51.0294 130.217 51.7038 128.199 51.1055C127.147 50.7758 126.22 50.142 125.539 49.2866C124.858 48.4312 124.454 47.3939 124.38 46.3096Z" fill="#7F391F"/>
<path d="M134.55 56.6494C134.478 55.5578 134.679 54.4655 135.135 53.4679C135.591 52.4704 136.289 51.5978 137.166 50.9265C137.237 50.8683 137.366 50.9387 137.307 51.0292C136.615 52.1332 136.229 53.396 136.186 54.6924C136.143 55.9888 136.445 57.2738 137.062 58.4198C137.718 59.5323 138.71 60.4156 139.9 60.9466C141.091 61.4792 142.443 61.5792 143.572 62.2684C145.536 63.4679 146.179 66.0549 146.237 68.1851C146.294 70.2904 145.704 72.4581 143.747 73.5702C143.344 73.7994 142.84 73.2437 143.217 72.9188C145.081 71.3137 144.895 68.3762 144.126 66.272C143.934 65.6522 143.592 65.0877 143.129 64.6269C142.666 64.166 142.096 63.8228 141.469 63.6265C140.26 63.3433 139.099 62.8902 138.021 62.281C137.055 61.6534 136.243 60.8227 135.643 59.8489C135.043 58.8751 134.669 57.7823 134.55 56.6494Z" fill="#7F391F"/>
<path d="M80.5079 35.078C80.6267 35.1091 80.7353 35.17 80.823 35.2549C80.9106 35.3398 80.9743 35.4456 81.0079 35.562C81.0414 35.6785 81.0436 35.8015 81.0142 35.919C80.9848 36.0365 80.9249 36.1445 80.8403 36.2323C79.5487 37.2706 80.3704 38.6968 81.8059 39.0303C82.5199 39.1511 83.2544 39.0387 83.8974 38.7102C84.5404 38.3817 85.0565 37.8552 85.367 37.211C86.0324 35.8611 84.426 34.4288 84.2531 33.0585C84.112 31.8697 84.4368 30.6727 85.1613 29.7115C85.1688 29.7015 85.1812 29.7126 85.1801 29.7217C84.9826 31.0691 85.2417 32.4429 85.9174 33.6308C86.4778 34.6027 87.2946 35.4404 87.3207 36.6242C87.3654 38.6496 85.3701 40.526 83.5216 41.0587C82.589 41.3431 81.5831 41.283 80.6923 40.8895C79.8016 40.4961 79.0872 39.7964 78.6833 38.9216C78.0273 37.3673 78.2787 34.8055 80.5079 35.078Z" fill="#7F391F"/>
<path d="M64.1967 56.2807C64.0464 54.6213 64.554 52.969 65.6133 51.6694C66.8365 50.2202 68.4146 49.1015 70.1988 48.4187C72.1279 47.5893 73.9554 47.0142 74.9197 45.0116C74.9324 44.9897 74.9507 44.9713 74.9728 44.9584C74.9949 44.9455 75.0201 44.9385 75.0458 44.938C75.0715 44.9376 75.0968 44.9437 75.1194 44.9558C75.142 44.9679 75.1609 44.9856 75.1745 45.0071C76.6307 48.2404 71.2621 49.6202 69.3653 50.7695C68.5574 51.1912 67.8501 51.7777 67.2906 52.4898C66.7312 53.2019 66.3325 54.0232 66.1212 54.8989C65.8183 56.7145 67.0113 58.6635 68.1066 60.0329C68.5072 60.5338 67.7185 61.012 67.285 60.6805C66.4859 60.1588 65.7781 59.5131 65.1891 58.7684C64.6532 58.0333 64.3121 57.1783 64.1967 56.2807Z" fill="#7F391F"/>
<path d="M55.913 71.5124C56.2054 69.9685 56.6578 68.4582 57.2633 67.0052C57.5987 66.2049 57.9527 65.4094 58.3364 64.6303C58.7335 63.8241 59.2608 63.1648 59.7226 62.4158C59.7352 62.395 59.755 62.3793 59.7784 62.3715C59.8017 62.3638 59.8271 62.3645 59.85 62.3735C59.8729 62.3825 59.8917 62.3993 59.9032 62.4207C59.9147 62.4422 59.918 62.467 59.9126 62.4906C59.799 63.1131 59.8166 63.7213 59.6655 64.3554C59.4914 65.0856 59.299 65.8113 59.1248 66.5414C58.7917 67.9367 58.4483 69.3405 58.2166 70.7562C57.651 73.7178 57.8348 76.7708 58.7517 79.646C60.5895 85.0159 65.105 88.4077 70.6216 89.6047C70.8515 89.6702 71.0502 89.8142 71.182 90.0109C71.3138 90.2075 71.3701 90.444 71.3408 90.6778C71.3115 90.9116 71.1985 91.1275 71.022 91.2867C70.8456 91.446 70.6174 91.5381 70.3781 91.5467C64.0743 91.5564 58.7958 86.812 56.6719 81.2093C55.5389 78.1027 55.2767 74.7531 55.913 71.5124Z" fill="#7F391F"/>
<path d="M94.2044 74.3076C94.2044 74.3076 94.1364 74.861 94.1271 75.7132C94.0716 77.555 94.391 79.3891 95.0666 81.1076C95.4166 82.033 96.01 82.8504 96.7861 83.4762C97.5623 84.1021 98.4933 84.5139 99.4841 84.6697C100.526 84.8233 101.592 84.699 102.568 84.3096C103.545 83.9203 104.398 83.2802 105.038 82.456C106.236 81.0138 107.158 79.37 107.761 77.6043C108.076 76.7269 108.22 76.1316 108.22 76.1316C103.475 77.1582 98.5148 76.5126 94.2044 74.3076Z" fill="#9F2236"/>
<path d="M94.2046 74.3076C94.2046 74.3076 94.1367 74.861 94.1273 75.7132C95.7033 77.2656 97.6673 78.3815 99.8213 78.9486C103.109 79.7779 106.351 78.3608 107.761 77.6043C108.077 76.7269 108.22 76.1316 108.22 76.1316C103.475 77.1582 98.5151 76.5126 94.2046 74.3076Z" fill="white"/>
<path d="M95.0667 81.1077C95.4168 82.0332 96.0102 82.8506 96.7863 83.4764C97.5624 84.1022 98.4935 84.5141 99.4843 84.6698C100.527 84.8234 101.592 84.6991 102.569 84.3098C103.545 83.9204 104.398 83.2803 105.038 82.4562C104.289 81.9904 103.446 81.6915 102.567 81.5805C101.688 81.4694 100.796 81.5489 99.9514 81.8134C99.9514 81.8134 98.1867 80.3478 95.0667 81.1077Z" fill="#FF6551"/>
<path d="M91.711 66.2755C94.3854 65.1009 95.5864 62.0147 94.3935 59.3823C93.2005 56.7499 90.0654 55.5681 87.3909 56.7428C84.7164 57.9174 83.5154 61.0036 84.7084 63.636C85.9013 66.2684 89.0365 67.4501 91.711 66.2755Z" fill="white"/>
<path d="M93.1108 64.5029C94.4348 62.5888 93.9313 59.9811 91.9861 58.6785C90.0409 57.3758 87.3907 57.8715 86.0667 59.7856C84.7427 61.6998 85.2463 64.3075 87.1914 65.6101C89.1366 66.9127 91.7868 66.417 93.1108 64.5029Z" fill="black"/>
<path d="M92.0306 62.2933C92.1573 62.5357 92.2082 62.8097 92.1767 63.0806C92.1452 63.3514 92.0327 63.607 91.8536 63.815C91.6745 64.023 91.4367 64.1741 91.1703 64.2491C90.9039 64.3241 90.6209 64.3197 90.3571 64.2365C90.0932 64.1532 89.8604 63.9949 89.688 63.7815C89.5156 63.568 89.4114 63.3091 89.3886 63.0374C89.3658 62.7657 89.4254 62.4934 89.5598 62.255C89.6943 62.0166 89.8975 61.8228 90.1439 61.6981C90.3075 61.6153 90.4861 61.565 90.6694 61.5501C90.8528 61.5352 91.0373 61.556 91.2125 61.6112C91.3877 61.6665 91.5501 61.7552 91.6905 61.8722C91.8308 61.9892 91.9464 62.1323 92.0306 62.2933Z" fill="white"/>
<path d="M121.919 67.1101C122.159 64.2375 119.988 61.7171 117.069 61.4808C114.15 61.2444 111.589 63.3815 111.349 66.2542C111.109 69.1268 113.281 71.6472 116.2 71.8835C119.118 72.1199 121.679 69.9828 121.919 67.1101Z" fill="white"/>
<path d="M117.924 71.0567C120.125 70.2381 121.235 67.8184 120.404 65.6522C119.572 63.4861 117.114 62.3937 114.913 63.2124C112.712 64.0311 111.602 66.4508 112.434 68.617C113.265 70.7831 115.723 71.8754 117.924 71.0567Z" fill="black"/>
<path d="M113.215 67.3081C113.228 67.5559 113.315 67.7942 113.466 67.9931C113.617 68.192 113.824 68.3425 114.061 68.4255C114.299 68.5085 114.556 68.5203 114.801 68.4594C115.045 68.3986 115.266 68.2678 115.435 68.0835C115.603 67.8993 115.713 67.67 115.749 67.4245C115.786 67.179 115.747 66.9285 115.639 66.7045C115.531 66.4805 115.357 66.2931 115.141 66.1661C114.924 66.0391 114.674 65.9781 114.422 65.9909C114.085 66.0081 113.768 66.1565 113.541 66.4035C113.315 66.6505 113.198 66.9759 113.215 67.3081Z" fill="white"/>
<path d="M28.3777 144.461L28.5883 147.917H184.125L184.173 144.461H28.3777Z" fill="#864FF1"/>
<path d="M182.909 147.286C183.324 147.284 183.736 147.227 184.135 147.117L184.172 144.461H28.3777L28.55 147.286L182.909 147.286Z" fill="#864FF1"/>
<path d="M164.597 102.749V144.452H158.318L158.199 140.423L158.088 136.763L157.995 133.667L157.891 130.179L157.89 130.177L157.063 102.749H164.597Z" fill="#FF6551"/>
<path d="M174.219 99.2104L172.481 136.763L172.391 138.718L172.311 140.423L172.127 144.452H164.596V99.2104H174.219Z" fill="#864FF1"/>
<path d="M166.843 140.423H158.198L158.087 136.763H166.601C166.687 138.067 166.767 139.295 166.843 140.423Z" fill="#F7A845"/>
<path d="M174.775 140.423H164.596V136.763H174.533C174.619 138.067 174.699 139.295 174.775 140.423Z" fill="#2435A1"/>
<path d="M159.399 130.733V104.839C159.399 104.526 159.526 104.226 159.75 104.005C159.975 103.784 160.28 103.66 160.598 103.66H161.97C162.288 103.66 162.593 103.784 162.818 104.005C163.042 104.226 163.169 104.526 163.169 104.839V130.733C163.169 131.046 163.042 131.346 162.818 131.567C162.593 131.788 162.288 131.912 161.97 131.912H160.598C160.28 131.912 159.975 131.788 159.75 131.567C159.526 131.346 159.399 131.046 159.399 130.733Z" fill="#FF8D7E"/>
<path d="M166.299 101.76V133.991C166.299 134.784 166.951 135.426 167.757 135.426H169.335C170.14 135.426 170.793 134.784 170.793 133.991V101.76C170.793 100.967 170.14 100.324 169.335 100.324H167.757C166.951 100.324 166.299 100.967 166.299 101.76Z" fill="#A880F5"/>
<g style="mix-blend-mode:multiply" opacity="0.25">
<path d="M172.312 134.489V133.401C172.312 133.401 172.333 133.833 172.312 134.489Z" fill="#471E44"/>
</g>
<path d="M184.125 144.449V144.451H172.129L172.183 140.436L172.208 138.69L172.235 136.749L172.76 99.2099L172.839 93.6426H184.693L184.05 136.501L184.052 136.749L184.088 140.436L184.125 144.449Z" fill="#2435A1"/>
<path d="M184.088 140.436H172.184L172.236 136.75H184.053L184.088 140.436Z" fill="#F7A845"/>
<path d="M175.388 133.736V97.2666C175.388 96.8182 175.569 96.3882 175.892 96.0711C176.214 95.7541 176.651 95.5759 177.106 95.5759H179.165C179.62 95.5759 180.057 95.7541 180.379 96.0711C180.702 96.3882 180.883 96.8182 180.883 97.2666V133.736C180.883 133.958 180.838 134.177 180.752 134.383C180.666 134.588 180.539 134.774 180.379 134.931C180.22 135.088 180.031 135.213 179.822 135.298C179.614 135.383 179.39 135.426 179.165 135.426H177.106C176.651 135.426 176.214 135.248 175.892 134.931C175.569 134.614 175.388 134.184 175.388 133.736Z" fill="#525FB5"/>
<g style="mix-blend-mode:multiply" opacity="0.23">
<path d="M163.934 102.749V144.473L164.596 144.452V102.749H163.934Z" fill="#471E44"/>
</g>
<path d="M171.742 99.2104V144.449L172.128 144.452L172.759 99.2104H171.742Z" fill="#243976"/>
<path d="M136.322 140.114L135.981 141.098L135.307 143.051L96.4762 143.958L57.6456 143.051L56.6299 140.114C62.6893 140.017 68.7179 139.243 74.5998 137.807C83.4545 135.5 92.5697 135.244 96.4762 139.088C100.383 135.244 109.498 135.5 118.353 137.807C124.234 139.243 130.263 140.017 136.322 140.114Z" fill="#FFEBDD"/>
<path d="M135.801 144.471H57.1501V142.676H58.2852H135.801V144.471Z" fill="#FF6551"/>
<path d="M136.322 140.114L135.981 141.098C130.952 141.316 122.519 140.37 113.404 138.063C104.289 135.756 96.7362 140.114 96.4758 140.114V139.088C100.382 135.244 109.497 135.5 118.352 137.807C124.234 139.243 130.263 140.017 136.322 140.114Z" fill="#F5C6B1"/>
<path d="M56.6299 140.114L56.9711 141.098C62 141.316 70.4329 140.37 79.548 138.063C88.6632 135.756 96.2158 140.114 96.4762 140.114V139.088C92.5697 135.244 83.4545 135.5 74.5998 137.807C68.7179 139.243 62.6893 140.017 56.6299 140.114Z" fill="#F5C6B1"/>
<g style="mix-blend-mode:multiply" opacity="0.15">
<path d="M189.607 92.3989L188.714 152.49H79.3689C114.791 142.306 160.299 123.948 189.607 92.3989Z" fill="#29ABE2"/>
</g>
</g>
<defs>
<filter id="filter0_d_320_77924" x="0" y="0" width="208" height="188" filterUnits="userSpaceOnUse" color-interpolation-filters="sRGB">
<feFlood flood-opacity="0" result="BackgroundImageFix"/>
<feColorMatrix in="SourceAlpha" type="matrix" values="0 0 0 0 0 0 0 0 0 0 0 0 0 0 0 0 0 0 127 0" result="hardAlpha"/>
<feOffset dy="4"/>
<feGaussianBlur stdDeviation="2"/>
<feComposite in2="hardAlpha" operator="out"/>
<feColorMatrix type="matrix" values="0 0 0 0 0 0 0 0 0 0 0 0 0 0 0 0 0 0 0.25 0"/>
<feBlend mode="normal" in2="BackgroundImageFix" result="effect1_dropShadow_320_77924"/>
<feBlend mode="normal" in="SourceGraphic" in2="effect1_dropShadow_320_77924" result="shape"/>
</filter>
</defs>
</svg>
