<svg width="175" height="158" viewBox="0 0 175 158" fill="none" xmlns="http://www.w3.org/2000/svg">
<g filter="url(#filter0_d_320_72488)">
<path d="M143.214 137.23C135.035 141.969 124.46 139.947 114.862 140.981C106.751 141.855 99.1682 144.988 91.4042 147.32C83.6402 149.651 75.1326 151.181 67.3815 148.814C62.057 147.188 57.5663 143.863 52.5555 141.541C46.5088 138.738 39.7893 137.432 33.4793 135.174C27.1692 132.917 20.9394 129.381 18.0099 123.761C14.4871 117.004 16.5118 108.977 15.1802 101.582C13.6774 93.2367 7.96274 86.0306 5.57084 77.863C3.88093 72.0926 5.63431 65.2832 7.67645 59.6839C9.83431 53.7673 15.8328 47.12 21.613 43.6772C23.4987 42.554 25.3612 41.4288 27.1423 40.1581C27.9226 39.6014 32.0292 37.1659 32.0292 36.2843C36.6398 32.1922 39.4073 26.9738 43.4139 22.4422C47.571 17.7402 53.6558 14.6938 60.0375 13.1997C65.8161 11.8283 71.7279 11.07 77.6712 10.9379C84.0544 10.8403 90.2449 11.3877 96.4038 9.36631C97.6968 8.94193 98.9509 8.42256 100.241 7.98755C108.948 5.05092 120.609 6.3371 128.749 10.2909C131.855 11.7996 134.454 14.046 136.958 16.3125C140.066 18.998 142.782 22.0914 145.03 25.5054C147.086 28.7986 147.738 32.7294 150.358 35.8205C152.118 37.8964 153.85 40.1767 155.594 42.1789C158.29 45.2727 162.441 46.7595 165.004 50.1308C167.584 53.5244 168.811 57.668 169.661 61.6839C170.748 66.8255 171.358 72.0966 170.775 77.3072C169.842 85.6444 165.083 91.8428 160.218 98.6269C158.598 100.887 156.969 103.226 156.347 105.874C156.097 107.143 155.944 108.428 155.889 109.72C155.589 113.483 154.561 116.95 153.786 120.596C152.425 127.001 149.449 133.618 143.214 137.23Z" fill="#EFF2FD"/>
<path d="M159.543 39.252L159.532 39.9295L159.004 75.5198L158.981 76.9992L158.236 127.075H20.6037L19.8742 114.69L17.2066 69.3679L15.433 39.252H159.543Z" fill="#5B5B5C"/>
<path d="M154.217 123.264H24.3448L19.8524 46.7166L155.464 46.4824L154.217 123.264Z" fill="#545554"/>
<path d="M87.8959 45.2728C89.4007 45.2728 90.6205 44.0747 90.6205 42.5966C90.6205 41.1186 89.4007 39.9204 87.8959 39.9204C86.3911 39.9204 85.1712 41.1186 85.1712 42.5966C85.1712 44.0747 86.3911 45.2728 87.8959 45.2728Z" fill="#3F4040"/>
<path d="M154.404 123.264H24.5307L19.8524 46.7166L155.464 46.4824L154.404 123.264Z" fill="#49B3F7"/>
<path d="M155.378 52.7277L155.414 50.105H20.0589L20.2192 52.7277H155.378Z" fill="#3A77BA"/>
<path d="M20.132 51.2906H155.398L155.464 46.4824L19.8524 46.7166L20.132 51.2906Z" fill="#864FF1"/>
<path d="M150.083 50.4922C150.905 50.4922 151.571 49.8381 151.571 49.0312C151.571 48.2244 150.905 47.5703 150.083 47.5703C149.262 47.5703 148.596 48.2244 148.596 49.0312C148.596 49.8381 149.262 50.4922 150.083 50.4922Z" fill="white"/>
<path d="M145.094 50.4922C145.915 50.4922 146.582 49.8381 146.582 49.0312C146.582 48.2244 145.915 47.5703 145.094 47.5703C144.272 47.5703 143.606 48.2244 143.606 49.0312C143.606 49.8381 144.272 50.4922 145.094 50.4922Z" fill="white"/>
<path d="M139.948 50.4922C140.77 50.4922 141.436 49.8381 141.436 49.0312C141.436 48.2244 140.77 47.5703 139.948 47.5703C139.127 47.5703 138.46 48.2244 138.46 49.0312C138.46 49.8381 139.127 50.4922 139.948 50.4922Z" fill="white"/>
<path d="M103.718 43.7787H94.965C94.6459 43.7787 94.3397 43.6542 94.114 43.4325C93.8883 43.2108 93.7615 42.9102 93.7615 42.5967C93.7615 42.4414 93.7927 42.2877 93.8531 42.1443C93.9136 42.0009 94.0023 41.8705 94.114 41.7608C94.2258 41.651 94.3585 41.5639 94.5045 41.5045C94.6505 41.4451 94.807 41.4146 94.965 41.4146H103.718C103.876 41.4146 104.032 41.4451 104.178 41.5045C104.324 41.5639 104.457 41.651 104.569 41.7608C104.681 41.8705 104.769 42.0009 104.83 42.1443C104.89 42.2877 104.921 42.4414 104.921 42.5967C104.921 42.9102 104.795 43.2108 104.569 43.4325C104.343 43.6542 104.037 43.7787 103.718 43.7787Z" fill="#545554"/>
<path d="M80.4395 43.7787H71.6867C71.3675 43.7787 71.0614 43.6542 70.8357 43.4325C70.61 43.2108 70.4832 42.9102 70.4832 42.5967C70.4832 42.4414 70.5143 42.2877 70.5748 42.1443C70.6353 42.0009 70.7239 41.8705 70.8357 41.7608C70.9474 41.651 71.0801 41.5639 71.2261 41.5045C71.3721 41.4451 71.5286 41.4146 71.6867 41.4146H80.4395C80.5976 41.4146 80.7541 41.4451 80.9001 41.5045C81.0461 41.5639 81.1788 41.651 81.2905 41.7608C81.4023 41.8705 81.4909 42.0009 81.5514 42.1443C81.6119 42.2877 81.643 42.4414 81.643 42.5967C81.643 42.9102 81.5162 43.2108 81.2905 43.4325C81.0648 43.6542 80.7587 43.7787 80.4395 43.7787Z" fill="#545554"/>
<g style="mix-blend-mode:screen" opacity="0.28">
<path d="M127.208 39.252C95.2757 57.6582 42.2503 66.2003 17.2071 69.3676L15.4339 39.252H127.208Z" fill="#EBF7FD"/>
</g>
<path d="M50.9856 77.2626C51.7662 77.8666 52.6148 78.3805 53.5149 78.7941C54.3046 79.077 55.0433 79.4817 55.7033 79.993C56.1701 80.4701 56.5413 81.0293 56.7976 81.6411C59.0023 86.2537 58.6151 92.9904 62.4626 96.7083C64.907 99.0703 69.3724 100.012 72.6665 100.135C76.8837 100.293 80.9856 101.572 85.1899 101.654C89.6004 101.74 93.776 99.6763 97.3492 97.1353C98.333 96.3586 99.3998 95.6893 100.531 95.1391C104.506 93.4465 109.691 95.3207 113.099 92.6931C115.758 90.6438 116.031 86.8088 117.878 84.0294C120.145 80.6174 124.503 79.1637 127.335 76.1866C131.475 71.8338 131.593 65.006 129.82 59.3092C128.764 55.9157 128.203 53.5003 130.055 50.3636C131.517 47.8859 134.193 45.362 134.747 42.4869C134.969 41.3206 135.014 40.1285 134.88 38.9492C134.52 35.8196 133.07 32.9082 130.776 30.7083C127.644 27.7276 123.131 26.1154 120.851 22.4663C117.871 17.6948 121.37 11.8308 118.643 6.85286C116.713 3.32944 112.589 1.50302 108.584 0.769414C104.491 0.0249762 100.283 0.161699 96.2501 1.17014C92.2691 2.16884 88.3001 3.36282 84.1649 2.53864C80.193 1.74662 76.4166 -0.350671 72.2574 0.0504814C67.6969 0.489553 64.0127 3.90525 61.3497 7.56836C58.8806 10.9618 56.9108 14.6836 54.0153 17.768C51.2852 20.6778 48.4325 23.6368 46.7913 27.3088C44.3116 32.8506 45.8029 37.5394 47.7557 42.8513C49.4679 47.5085 46.3913 51.0802 44.9302 55.2919C43.4418 59.5824 44.2876 66.0149 45.8729 70.1992C46.8896 72.9674 48.6576 75.41 50.9856 77.2626Z" fill="#732C15"/>
<path d="M61.444 67.2462C60.4151 66.3968 59.4498 65.4756 58.3958 64.6563C57.9923 64.3427 58.489 63.7333 58.9189 63.9625C60.111 64.5982 61.3228 65.1674 62.4564 65.9034C63.5075 66.5947 64.5185 67.3431 65.4846 68.1451C67.3129 69.6433 69.2291 71.4485 69.742 73.8306C70.2341 76.1159 69.2292 78.2066 68.2786 80.2296C67.6533 81.3605 67.2742 82.6067 67.1652 83.8891C67.1406 84.4637 67.1893 85.039 67.3101 85.6018C67.4711 86.0857 67.6774 86.554 67.9263 87.0006C68.0314 87.2411 67.7375 87.4852 67.5086 87.4207C67.0799 87.2454 66.694 86.9826 66.3766 86.6496C66.0593 86.3167 65.8176 85.9212 65.6677 85.4895C65.3143 84.541 65.2581 83.5102 65.5064 82.53C66.0036 80.1598 67.7049 78.1659 67.9994 75.7452C68.3136 73.1621 66.2801 71.2087 64.4399 69.6778C63.4511 68.8553 62.4359 68.065 61.444 67.2462Z" fill="#7F391F"/>
<path d="M118.793 78.7068C118.712 78.7507 118.631 78.7956 118.55 78.8414C116.483 80.0322 114.895 81.8845 114.053 84.0882C113.917 84.5619 113.699 85.0094 113.41 85.4113C113.26 85.6093 113.051 85.7553 112.811 85.8279C112.571 85.9005 112.314 85.8961 112.077 85.8152C111.389 85.4953 111.464 84.5071 111.744 83.8111C112.943 80.8272 115.757 78.7743 118.633 77.2528C121.54 75.6325 123.958 73.2835 125.639 70.4457C126.342 69.4015 126.87 68.2538 127.205 67.046C127.563 65.4127 127.638 63.7318 127.427 62.0739C127.17 60.6593 126.835 59.2594 126.423 57.8805C126.412 57.8352 126.465 57.7779 126.512 57.8112C128.264 59.0619 128.99 61.3123 129.201 63.3576C129.508 66.1972 128.932 69.0614 127.549 71.5735C126.167 74.0855 124.043 76.1278 121.456 77.4317C120.58 77.8786 119.658 78.2403 118.793 78.7068Z" fill="#7F391F"/>
<path d="M111.514 73.6281C111.349 72.951 111.333 72.2474 111.466 71.5638C111.599 70.8802 111.879 70.2321 112.286 69.6624C113.889 67.4489 116.993 66.3677 117.898 63.6606C117.904 63.6405 117.916 63.6228 117.933 63.6102C117.95 63.5975 117.971 63.5906 117.992 63.5903C118.013 63.5901 118.034 63.5966 118.051 63.6088C118.069 63.6211 118.081 63.6385 118.088 63.6584C118.981 66.0822 116.532 67.8645 114.95 69.2521C113.875 70.1953 113.058 71.1891 113.056 72.6708C113.054 74.3192 113.971 75.6316 114.274 77.1938C114.298 77.2877 114.29 77.3865 114.252 77.4758C114.215 77.5651 114.149 77.6402 114.064 77.6899C113.98 77.7397 113.882 77.7615 113.784 77.7522C113.686 77.743 113.593 77.703 113.52 77.6384C112.381 76.7443 111.789 74.9913 111.514 73.6281Z" fill="#7F391F"/>
<path d="M102.396 72.9164C102.279 71.6957 102.49 70.4662 103.008 69.3506C103.227 68.823 103.93 69.2244 103.87 69.6894C103.766 70.7417 103.891 71.8035 104.235 72.8051C104.507 73.6764 105.066 74.5454 105.155 75.4431C105.154 75.5672 105.121 75.689 105.058 75.7965C104.995 75.9041 104.904 75.9939 104.796 76.0571C104.687 76.1202 104.563 76.1547 104.437 76.1572C104.311 76.1596 104.186 76.1299 104.075 76.071C103.013 75.524 102.54 74.0037 102.396 72.9164Z" fill="#7F391F"/>
<path d="M51.7518 99.5178C50.1094 100.767 48.4017 101.932 46.6358 103.006C45.9848 103.404 45.3264 103.788 44.6605 104.158C44.2262 104.403 43.7848 104.643 43.3398 104.876C42.0288 105.66 40.5663 106.169 39.045 106.369C37.7918 106.407 36.5416 106.228 35.3514 105.841C28.1269 103.817 21.5623 99.9824 16.3012 94.7146C15.7225 94.1334 15.1237 93.4337 15.1899 92.6246C15.2776 91.589 16.4776 90.9392 17.5309 91.0252C18.5747 91.2061 19.5595 91.6293 20.4031 92.2596C23.6702 94.2748 27.1755 95.8909 30.8412 97.072C32.8806 97.8191 35.0466 98.1758 37.2225 98.1228C38.1515 98.0583 39.0693 97.8847 39.9563 97.6056C40.7583 97.3553 41.5397 97.0452 42.2936 96.6779C43.911 95.8616 45.4718 94.9413 46.9659 93.923L51.7518 99.5178Z" fill="#FFBF94"/>
<path d="M51.7524 99.5181C50.11 100.767 48.4023 101.932 46.6364 103.006C44.6681 101.291 43.1743 99.114 42.2942 96.6783C43.9116 95.8619 45.4724 94.9416 46.9665 93.9233L51.7524 99.5181Z" fill="#F49B73"/>
<path d="M108.044 114.544C108.927 115.945 109.923 117.273 111.023 118.517C111.978 119.616 113.005 120.654 114.095 121.624C115.97 121.553 122.193 121.887 124.104 121.624C121.055 118.983 118.153 113.877 115.54 110.828C115.19 110.422 114.846 110.012 114.509 109.598C113.737 108.689 113.054 107.709 112.472 106.672C112.16 106.096 111.915 105.487 111.74 104.857L102.682 104.134C103.311 105.554 103.996 107.064 104.743 108.587C105.729 110.632 106.831 112.621 108.044 114.544Z" fill="#FFBF94"/>
<path d="M104.743 108.587C105.729 110.632 106.831 112.621 108.044 114.544C112.296 114.287 114.489 112.297 115.54 110.828C115.19 110.422 114.846 110.012 114.51 109.597C113.737 108.689 113.055 107.709 112.473 106.672L106.945 106.865C106.179 107.398 105.444 107.973 104.743 108.587Z" fill="#F49B73"/>
<path d="M101.385 82.1055C96.5351 80.4977 92.7033 79.8902 87.8539 78.2824C86.0226 77.6752 87.6985 78.6125 85.7764 78.4135C84.1459 78.2912 82.5071 78.3298 80.8844 78.5288C76.2663 78.9638 71.671 79.5816 67.0986 80.3821C65.6862 80.5423 64.3203 80.9766 63.0803 81.6599C61.6487 82.5703 56.2918 84.0992 44.9153 94.3918C43.3592 95.1069 50.2863 103.605 53.813 105.217C58.2162 107.229 67.6261 97.2833 70.8726 92.2668C70.9672 92.0154 71.152 91.8066 71.3922 91.6795C71.6325 91.5523 71.9117 91.5157 72.1775 91.5763C79.6038 92.1534 87.0302 92.7305 94.4565 93.3077C94.7535 93.3007 95.0451 93.3863 95.2895 93.5522C95.4809 93.7542 95.6074 94.0072 95.6531 94.2795C97.3941 100.617 100.589 106.479 104.992 111.416C105.211 111.706 105.504 111.935 105.842 112.078C106.17 112.158 106.514 112.157 106.842 112.076C110.572 111.43 114.111 109.98 117.204 107.831C117.454 107.697 117.643 107.475 117.735 107.209C117.753 106.924 117.663 106.643 117.481 106.42C113.852 100.641 110.798 94.5326 108.361 88.1785C108.248 87.8833 108.134 87.5848 108.015 87.2875C107.616 86.2879 106.998 85.387 106.204 84.6487C105.411 83.9104 104.461 83.3529 103.423 83.0158L101.385 82.1055Z" fill="#FFC652"/>
<path d="M78.076 64.957C78.0892 65.581 78.1026 66.2066 78.1159 66.8305C78.1259 67.2977 78.1358 67.7643 78.1458 68.2303C78.1575 68.8559 78.1702 69.4821 78.184 70.1087C78.1957 70.6919 78.209 71.2766 78.2206 71.8614L78.2306 72.3693C78.2539 73.4752 78.2766 74.581 78.2988 75.6868L78.3636 78.7967C78.3468 79.1116 78.4031 79.426 78.5283 79.7163C78.7036 79.9947 78.9509 80.2224 79.245 80.3762C80.7944 81.3005 82.5647 81.8068 84.377 81.8441C86.1894 81.8814 87.9797 81.4483 89.5671 80.5886C89.7753 80.4749 89.9434 80.3016 90.0489 80.0918C90.1543 79.882 90.1922 79.6456 90.1575 79.4142C90.0024 78.4114 89.9036 77.4009 89.8615 76.3875C89.8232 75.481 89.8304 74.5739 89.8831 73.6663C89.8964 73.449 89.9114 73.2301 89.9297 73.0129C89.9812 72.384 90.0527 71.7568 90.1492 71.1329C90.2689 70.3325 90.4263 69.5398 90.6215 68.7546C90.6314 68.7122 90.6431 68.6681 90.653 68.6256L90.3155 68.5276L86.9097 67.5361L85.6475 67.167L78.076 64.957Z" fill="#FFAF79"/>
<path d="M4.55141 83.0506C4.72318 82.9264 4.93081 82.8592 5.1441 82.8589C6.63348 82.7679 11.172 86.4071 11.6956 85.9192C10.4937 84.9635 9.81623 84.2166 8.61438 83.2608C8.01033 82.7805 6.86885 81.6305 7.48863 81.1699C7.63431 81.0862 7.79756 81.0363 7.96588 81.0242C8.1342 81.012 8.30312 81.0378 8.45972 81.0996C10.5445 81.697 11.6383 84.0186 13.5982 84.9372C13.5137 83.886 13.6101 82.8284 13.8833 81.8086C13.9823 81.4394 14.1524 81.0266 14.523 80.9111C14.7413 80.876 14.9651 80.9206 15.1522 81.0366C15.3392 81.1527 15.4764 81.332 15.5379 81.5407C15.6467 81.9618 15.6963 82.3956 15.6851 82.8299C15.8309 84.6603 17.2741 86.0851 18.3946 87.5548C19.515 89.0244 21.5643 91.63 20.4891 93.1319L19.3183 95.068C17.3518 96.3635 15.7865 96.6085 13.8416 95.2819C12.4686 94.3454 11.4203 92.8049 9.77945 92.4916C9.04923 92.3522 8.48176 92.1097 7.76725 91.9062C7.05274 91.7028 5.99292 91.0332 6.33185 90.3828C7.54784 90.4601 8.9677 90.8043 10.1837 90.8817C9.24596 90.0416 7.95442 89.7323 6.77181 89.2799C5.5892 88.8275 3.62547 87.2517 4.06225 86.4256C4.18997 86.1841 4.54514 86.1968 4.81696 86.2498C5.98673 86.4778 10.306 88.4661 10.3555 88.1179C8.51141 87.1264 6.73976 86.0101 5.05335 84.7773C4.5297 84.3265 4.01955 83.492 4.55141 83.0506Z" fill="#FFBF94"/>
<path d="M96.2565 113.963H67.1083V121.825H96.2565V113.963Z" fill="#FFC652"/>
<path d="M67.2215 91.469C66.7702 93.6316 66.1445 95.7556 65.3503 97.8207C64.7423 99.0706 64.2295 100.363 63.8161 101.687C63.1858 104.225 63.7909 106.886 64.4484 109.417C65.1671 112.183 67.8118 117.314 68.9398 117.979C69.5947 118.365 71.1489 118.253 71.9118 118.291C74.5726 118.426 77.2083 118.595 79.8715 118.57C82.632 118.543 85.3904 118.443 88.1468 118.27C89.8824 118.162 91.6159 118.024 93.3471 117.857C93.6671 117.853 93.9818 117.776 94.2665 117.633C94.5512 117.489 94.7981 117.283 94.9877 117.029C96.414 115.272 98.0475 113.347 98.5996 111.111C98.7345 110.564 98.8044 110.018 98.9647 109.465L99.5346 107.498L100.674 103.565C101.16 101.887 101.647 100.209 102.133 98.5307L99.9932 90.389L89.6136 86.3838C89.6136 86.3838 66.4447 86.7479 66.63 87.2941C66.724 88.4452 66.724 89.6019 66.63 90.7531L67.2215 91.469Z" fill="#FFC652"/>
<path d="M64.2453 98.4604C64.9912 96.0024 65.8633 93.629 66.7891 91.2339C66.7922 91.2244 66.7989 91.2164 66.8078 91.2117C66.8167 91.2069 66.8271 91.2058 66.8369 91.2084C66.8466 91.2111 66.8549 91.2173 66.8601 91.2259C66.8653 91.2344 66.8669 91.2446 66.8645 91.2543C66.4477 93.409 66.0471 95.5391 65.4699 97.6612C64.918 99.6904 64.2556 101.555 64.287 103.669C64.3725 105.737 64.7663 107.782 65.456 109.738C66.1502 111.881 67.3313 114.037 67.8037 116.205C67.8344 116.346 67.7896 116.565 67.6473 116.529C67.5938 116.508 67.5511 116.467 67.5282 116.414C66.4824 114.702 65.5791 112.91 64.8271 111.056C64.6173 110.529 64.4162 109.999 64.2309 109.464C63.8698 108.445 63.5846 107.401 63.3773 106.342C62.6829 103.057 63.5826 100.644 64.2453 98.4604Z" fill="#F7A845"/>
<path d="M95.8183 115.333C95.8742 115.251 95.9328 115.17 95.9893 115.09C96.389 114.523 96.7246 113.912 97.098 113.338C97.5318 112.639 97.8945 111.9 98.1808 111.131C98.9807 109.35 99.4988 107.459 99.7169 105.524C99.8307 103.658 99.2397 101.796 99.0272 99.949C98.8031 97.9144 98.792 95.8626 98.9941 93.8258C98.9951 93.7993 99.0065 93.7742 99.0259 93.7558C99.0454 93.7373 99.0714 93.7271 99.0984 93.7271C99.1254 93.7271 99.1514 93.7373 99.1708 93.7558C99.1903 93.7742 99.2017 93.7993 99.2026 93.8258C99.3903 96.1102 99.6764 98.4336 100.03 100.699C100.121 101.279 100.226 101.853 100.32 102.424C100.37 102.437 100.416 102.462 100.453 102.497C100.49 102.532 100.517 102.576 100.532 102.624C101.483 105.668 103.032 108.498 105.093 110.955C105.862 111.842 106.81 111.479 107.827 111.262C108.654 111.087 109.482 110.894 110.302 110.689C111.993 110.266 113.582 109.577 115.246 109.084C115.269 109.077 115.292 109.11 115.271 109.126C113.67 110.232 111.92 111.113 110.071 111.742C108.684 112.28 106.203 113.37 104.888 112.192C104.321 111.61 103.813 110.975 103.37 110.296C102.769 109.52 102.212 108.712 101.702 107.876C101.278 107.174 100.903 106.444 100.58 105.692C100.563 106.007 100.529 106.322 100.477 106.634C100.105 108.511 99.4806 110.331 98.6193 112.046C98.3526 112.61 98.0536 113.159 97.724 113.69C97.3726 114.252 96.8553 114.725 96.4639 115.268C96.2859 115.579 96.0289 115.839 95.718 116.023C95.6576 116.052 95.592 116.07 95.5248 116.076C95.5482 115.806 95.65 115.548 95.8183 115.333Z" fill="#F7A845"/>
<path d="M71.7465 114.121C72.568 114.243 73.3734 114.657 74.1961 114.837C75.0242 115.018 75.8739 115.145 76.7132 115.266C78.6385 115.535 80.582 115.657 82.5264 115.631C86.3303 115.609 90.1112 115.049 93.7522 113.966C93.8418 113.939 93.9063 114.08 93.8174 114.119C92.0439 114.946 90.1915 115.599 88.2873 116.069C86.2851 116.521 84.245 116.793 82.1925 116.88C80.1836 116.95 78.1724 116.834 76.1858 116.533C74.6867 116.313 72.2673 115.977 71.3786 114.591C71.2116 114.33 71.4865 114.082 71.7465 114.121Z" fill="#F7A845"/>
<path d="M71.177 111.564C72.5197 111.678 73.849 111.911 75.1487 112.261C76.6141 112.561 78.0968 112.773 79.5885 112.896C82.5477 113.099 85.521 112.943 88.4413 112.432C88.4437 112.431 88.4461 112.432 88.4482 112.433C88.4502 112.434 88.4517 112.436 88.4524 112.438C88.453 112.441 88.4527 112.443 88.4516 112.445C88.4505 112.447 88.4486 112.449 88.4463 112.45C85.5618 113.5 82.4979 113.993 79.4231 113.902C76.7552 113.849 73.2204 113.538 71.0572 111.848C70.9394 111.756 71.04 111.561 71.177 111.564Z" fill="#F7A845"/>
<path d="M78.1836 70.1094C78.1952 70.6925 78.2086 71.2773 78.2202 71.862L78.2302 72.37C78.2534 73.4758 78.2761 74.5816 78.2983 75.6874C81.5977 78.975 87.5564 77.9243 89.861 76.3881C89.8228 75.4816 89.83 74.5745 89.8827 73.6669C89.8959 73.4497 89.9109 73.2308 89.9292 73.0136C89.9807 72.3847 90.0522 71.7575 90.1487 71.1335C89.6598 70.8297 89.299 70.6125 89.299 70.6125C89.299 70.6125 87.7956 70.5324 85.8366 70.4344C83.2939 70.3086 79.9813 70.1535 78.1836 70.1094Z" fill="#F59D75"/>
<path d="M76.5981 79.5198C76.6194 79.3841 76.7911 79.3507 76.8949 79.4012C77.3926 79.6436 77.6621 80.1997 78.0363 80.5919C78.5165 81.0865 79.0648 81.5126 79.6653 81.8579C81.0486 82.679 82.5936 83.2022 84.1982 83.3929C85.7222 83.6012 87.2752 83.3959 88.689 82.7994C89.8935 82.1684 90.9738 81.3315 91.8793 80.328C91.8855 80.3223 91.8934 80.3186 91.9018 80.3177C91.9103 80.3167 91.9188 80.3184 91.9262 80.3227C91.9336 80.3269 91.9393 80.3333 91.9426 80.341C91.946 80.3487 91.9467 80.3573 91.9446 80.3654C91.1637 83.447 86.8644 84.784 84.0347 84.4917C82.2772 84.3267 80.589 83.7357 79.1215 82.7716C78.1881 82.1348 76.3987 80.7955 76.5981 79.5198Z" fill="#F7A845"/>
<path d="M13.8832 81.8086C13.8972 81.6162 13.9641 81.4311 14.0768 81.273C14.1895 81.115 14.3436 80.9899 14.5229 80.9111C14.7412 80.876 14.9651 80.9206 15.1521 81.0366C15.3391 81.1527 15.4764 81.332 15.5378 81.5407C15.6467 81.9618 15.6962 82.3956 15.685 82.8299C15.8309 84.6603 17.274 86.0851 18.3945 87.5548C19.515 89.0244 21.5643 91.63 20.4891 93.1319L19.3183 95.068C17.3518 96.3635 16.9323 96.1218 14.9875 94.7952C14.3745 94.3771 15.7036 92.012 15.3042 90.0906C14.7346 87.3505 13.3003 85.7333 13.8832 81.8086Z" fill="#FFBF94"/>
<path d="M112.343 42.8831C112.233 49.1103 110.774 55.243 108.063 60.8733C107.266 62.6434 106.212 64.2907 104.934 65.764C103.57 67.1704 102.014 68.3834 100.31 69.3678C96.3473 71.805 92.081 73.729 87.6167 75.0923C86.1731 75.6305 84.6227 75.8352 83.0856 75.6904C81.2714 75.4032 69.2738 70.0857 65.8753 61.3279C65.1229 59.389 63.6736 55.0526 64.0742 53.0153C65.2636 46.9673 66.4537 40.9164 67.9431 34.9329C69.1325 30.1545 70.6303 25.2128 74.1022 21.6675C75.6032 20.225 77.2662 18.9546 79.059 17.8806C80.7334 16.7282 82.5462 15.7834 84.4564 15.0675C88.0219 13.8658 91.9138 14.1627 95.6547 14.6192C98.3311 14.9458 101.072 15.3712 103.403 16.7031C105.233 17.8257 106.806 19.3074 108.026 21.0552C111.895 26.2968 113.792 32.6948 113.394 39.1573L112.343 42.8831Z" fill="#FFBF94"/>
<path d="M109.95 50.0615C109.95 50.0615 106.72 48.0285 106.955 45.5033C105.074 45.5381 103.247 44.8853 101.829 43.6718C100.411 42.4582 99.5024 40.7703 99.2798 38.9358C96.5294 39.5951 93.6293 39.2608 91.1091 37.9939C87.2182 35.8604 87.28 30.7341 87.28 30.7341C87.28 30.7341 86.9205 32.1587 83.9901 33.3531C81.0597 34.5475 78.7737 31.9671 78.7737 31.9671C79.0779 33.0939 79.0225 34.2854 78.615 35.3803C78.2074 36.4752 77.4673 37.4208 76.4948 38.0892C75.5947 38.8539 74.4692 39.3161 73.2827 39.4081C72.0962 39.5002 70.9108 39.2173 69.8996 38.6009C69.8996 38.6009 69.4315 42.0454 66.606 42.405C63.7804 42.7645 63.8506 33.6622 63.8506 33.6622C63.8506 33.6622 76.6183 27.8365 76.7461 27.6117C76.8739 27.3869 92.2126 21.7916 92.4415 21.9171C92.6704 22.0427 105.282 29.6955 105.969 30.072C106.656 30.4484 112.355 44.1889 112.786 45.015C113.217 45.8411 109.95 50.0615 109.95 50.0615Z" fill="#F49B73"/>
<path d="M106.326 48.7773C106.166 48.044 105.789 47.3735 105.242 46.8505C104.371 45.8583 103.297 45.0571 102.091 44.4987C100.876 43.9419 99.5079 43.7939 98.1988 44.0778C97.5405 44.2363 96.8126 44.6743 96.8321 45.3398C96.8516 45.5322 96.9185 45.717 97.0269 45.8784C97.1354 46.0398 97.2821 46.1729 97.4546 46.2661C97.8008 46.4491 98.1711 46.5841 98.5549 46.6674C100.337 47.1647 102.009 47.9819 103.488 49.0776C103.916 49.4598 104.424 49.7448 104.976 49.9122C105.254 49.9859 105.551 49.9546 105.807 49.8244C106.063 49.6941 106.26 49.4745 106.359 49.2086C106.488 48.6365 105.98 48.1349 105.521 47.7609L106.326 48.7773Z" fill="#692E12"/>
<path d="M78.4048 42.7595C77.5913 42.6182 76.7675 42.5418 75.9414 42.5311C74.9383 42.6466 73.9788 43.0003 73.146 43.5616C72.7263 43.8833 72.2179 44.0737 71.6866 44.1078C71.5117 44.0897 71.3425 44.0363 71.1897 43.9509C71.0368 43.8656 70.9036 43.7501 70.7983 43.6117C70.693 43.4733 70.618 43.3151 70.5779 43.1469C70.5379 42.9787 70.5337 42.8042 70.5655 42.6344C70.7452 42.1295 71.1075 41.7071 71.5835 41.4474C73.9986 39.8233 78.744 38.1617 80.6588 40.9398C81.1123 41.5977 81.3383 43.0486 78.4048 42.7595Z" fill="#692E12"/>
<path d="M88.0432 60.8839C87.5551 60.3115 86.8864 59.9156 86.1431 59.7589C86.0467 59.7369 85.9496 59.7203 85.8522 59.7033C85.7827 59.6918 85.7125 59.6843 85.6421 59.6808C85.4454 59.6667 85.2478 59.6667 85.051 59.6806C84.6681 59.7149 84.2936 59.8106 83.9422 59.9639C83.8004 60.0027 83.6487 59.9849 83.5201 59.9144C83.3915 59.8439 83.2965 59.7264 83.2556 59.5874C83.2192 59.4482 83.2387 59.3005 83.3101 59.175C83.3814 59.0494 83.4991 58.9556 83.6389 58.913C84.5205 58.5623 85.4909 58.4878 86.4173 58.6996C87.3436 58.9114 88.1807 59.3992 88.814 60.0963C88.9166 60.1987 88.9753 60.3358 88.9782 60.4794C88.9811 60.6231 88.9279 60.7623 88.8295 60.8686C88.7267 60.9721 88.5867 61.0316 88.4395 61.0345C88.2924 61.0373 88.1501 60.9833 88.0432 60.8839L88.0432 60.8839Z" fill="#DD664A"/>
<path d="M112.715 52.1999C111.136 51.5543 109.881 50.3207 109.225 48.7689C108.57 47.2171 108.566 45.4734 109.216 43.9192C108.147 44.4174 106.948 44.5812 105.781 44.3886C104.614 44.196 103.536 43.6562 102.691 42.8422C101.847 42.0281 101.277 40.9791 101.059 39.8368C100.841 38.6945 100.986 37.5141 101.473 36.455C100.49 37.1899 99.3118 37.6317 98.08 37.7275C94.9731 38.0083 91.8898 36.2963 90.0931 33.7909C88.3724 31.2024 87.5789 28.1246 87.8381 25.0437C87.941 28.0118 86.3803 30.2097 83.8882 31.0536C82.6211 31.4251 81.2787 31.4753 79.9865 31.1995C78.6943 30.9237 77.4942 30.3308 76.4983 29.4763C78.3344 31.3176 78.0001 34.6697 76.0257 36.3673C74.0513 38.0649 70.8999 38.0805 68.7003 36.6752C68.9766 37.4573 69.0353 38.2976 68.8705 39.1095C68.7058 39.9213 68.3234 40.6753 67.763 41.2936C66.6249 42.5156 65.2341 43.4846 63.6838 44.1358C62.0123 42.2554 61.469 39.6497 61.3519 37.1561C61.0638 30.3152 63.4798 23.6299 68.0947 18.4986C69.7921 16.6988 71.64 15.0417 73.6188 13.5447C74.8459 12.515 76.1882 11.6257 77.6199 10.8939C80.5526 9.51139 83.9296 9.40988 87.18 9.539C89.9939 9.59933 92.7921 9.96758 95.5229 10.6369C99.6546 11.7314 103.423 13.8359 107.139 15.9192C109.58 17.2875 112.118 18.7448 113.622 21.0771C114.825 22.9423 115.24 25.1817 116.113 27.2161C116.83 28.8869 117.861 30.4293 118.405 32.1621C119.527 35.7407 118.441 39.589 117.32 43.1681C116.545 45.6408 115.753 48.1081 114.944 50.57C114.711 51.2791 114.223 52.1467 113.478 52.0072L112.715 52.1999Z" fill="#732C15"/>
<path d="M109.722 50.8601C109.862 50.4857 110.131 50.1711 110.482 49.9714C110.833 49.7716 111.245 49.6992 111.645 49.7669C112.199 49.9097 112.684 50.2383 113.017 50.6957C113.819 51.7649 114.199 53.0837 114.085 54.4071C113.966 55.7198 113.607 57.0007 113.025 58.1882C112.772 58.8135 112.415 59.3937 111.97 59.9057C111.522 60.3812 110.95 60.7278 110.317 60.9081C109.683 61.0884 109.011 61.0957 108.374 60.9292C107.736 60.7627 107.157 60.4287 106.698 59.963C106.239 59.4974 105.919 58.9178 105.77 58.2864L109.722 50.8601Z" fill="#FFBF94"/>
<path d="M110.276 52.3373C110.276 52.3373 112.746 52.2173 111.923 56.0417C111.101 59.8661 108.048 58.6346 108.048 58.6346C108.847 57.796 109.458 56.8025 109.841 55.7178C110.225 54.6332 110.373 53.4816 110.276 52.3373Z" fill="#F49B73"/>
<path d="M66.973 43.6997C66.8702 43.2431 66.6732 42.812 66.394 42.4332C66.1149 42.0543 65.7596 41.7357 65.3501 41.497C65.0456 41.3115 64.7009 41.1989 64.344 41.1681C63.391 41.112 62.5719 41.8363 62.045 42.6182C61.3888 43.6537 60.9894 44.8263 60.8791 46.0412C60.7689 47.2562 60.9508 48.4796 61.4102 49.6129C61.5864 50.1167 61.8666 50.5793 62.2332 50.9719C62.7379 51.432 63.4063 51.6792 64.0946 51.6604C64.7829 51.6416 65.4363 51.3583 65.9142 50.8715L66.973 43.6997Z" fill="#FFBF94"/>
<path d="M64.4211 50.0876C64.4211 50.0876 61.519 50.5156 62.2254 46.6688C63.0434 42.2143 65.736 44.2488 65.736 44.2488C64.8499 46.0711 64.4001 48.0683 64.4211 50.0876Z" fill="#F49B73"/>
<path d="M107.169 61.3823C107.256 61.6816 107.431 61.949 107.672 62.1508C107.913 62.3525 108.21 62.4795 108.524 62.5156C108.839 62.5518 109.157 62.4955 109.44 62.3539C109.722 62.2123 109.955 61.9917 110.109 61.7201C110.264 61.4484 110.332 61.1379 110.307 60.8278C110.282 60.5177 110.164 60.2219 109.967 59.9779C109.771 59.7338 109.505 59.5524 109.203 59.4567C108.902 59.361 108.578 59.3552 108.274 59.44C107.865 59.5538 107.519 59.8223 107.312 60.1866C107.105 60.5508 107.054 60.9809 107.169 61.3823Z" fill="#EECAB9"/>
<path d="M62.532 52.4854C62.6184 52.7847 62.7932 53.0521 63.0344 53.2538C63.2756 53.4555 63.5723 53.5825 63.8869 53.6187C64.2016 53.6548 64.5201 53.5985 64.8022 53.4569C65.0843 53.3153 65.3173 53.0947 65.4717 52.8231C65.6261 52.5515 65.6951 52.241 65.6698 51.9309C65.6445 51.6207 65.5262 51.325 65.3297 51.0809C65.1332 50.8368 64.8675 50.6555 64.566 50.5597C64.2646 50.464 63.941 50.4582 63.6362 50.543C63.4338 50.5994 63.2447 50.6943 63.0797 50.8224C62.9147 50.9505 62.777 51.1093 62.6744 51.2896C62.5719 51.47 62.5066 51.6684 62.4821 51.8736C62.4577 52.0787 62.4746 52.2866 62.532 52.4854Z" fill="#EECAB9"/>
<path d="M107.962 60.6999C108.007 60.8545 108.097 60.9926 108.221 61.0968C108.346 61.201 108.499 61.2666 108.662 61.2853C108.824 61.3039 108.989 61.2749 109.134 61.2017C109.28 61.1286 109.4 61.0147 109.48 60.8744C109.56 60.7341 109.596 60.5737 109.583 60.4136C109.569 60.2534 109.508 60.1006 109.407 59.9746C109.305 59.8486 109.168 59.7549 109.012 59.7054C108.857 59.656 108.69 59.653 108.532 59.6968C108.428 59.7259 108.33 59.7749 108.245 59.8411C108.16 59.9072 108.089 59.9892 108.036 60.0824C107.983 60.1755 107.949 60.278 107.936 60.384C107.924 60.4899 107.932 60.5973 107.962 60.6999Z" fill="white"/>
<path d="M63.1949 51.9983C63.2396 52.1528 63.3299 52.291 63.4544 52.3951C63.579 52.4993 63.7322 52.5649 63.8947 52.5836C64.0572 52.6022 64.2217 52.5732 64.3674 52.5C64.5131 52.4269 64.6334 52.313 64.7132 52.1727C64.7929 52.0324 64.8285 51.872 64.8155 51.7119C64.8024 51.5517 64.7413 51.399 64.6398 51.2729C64.5383 51.1469 64.4011 51.0532 64.2454 51.0038C64.0897 50.9543 63.9226 50.9513 63.7652 50.9952C63.5541 51.0539 63.3755 51.1926 63.2685 51.3807C63.1616 51.5689 63.1351 51.791 63.1949 51.9983Z" fill="white"/>
<path d="M50.2389 46.0925C51.5963 45.1019 52.5825 43.6984 53.0438 42.1004C54.0111 38.5631 52.1062 34.8264 52.5617 31.1913C53.3542 24.8587 60.5221 21.5119 64.1405 16.2127C66.3097 13.0353 67.6791 8.67458 71.4242 7.62617C74.7614 6.69321 78.0187 8.98799 81.2229 10.2909C84.7657 11.7206 88.686 11.9787 92.3914 11.0263C95.7089 10.1651 98.9971 8.32802 102.354 9.02458C105.935 9.77033 108.265 13.1595 109.7 16.4689C111.134 19.7765 112.151 23.4123 114.711 25.9825C118.832 30.1203 125.644 30.258 130.445 33.6119C132.375 34.9775 133.905 36.8184 134.879 38.9492C134.52 35.8196 133.07 32.9082 130.775 30.7083C127.643 27.7276 123.13 26.1154 120.85 22.4663C117.87 17.6949 121.37 11.8309 118.642 6.85287C116.712 3.32945 112.588 1.50303 108.583 0.769427C104.491 0.0249894 100.283 0.161712 96.2493 1.17016C92.2683 2.16885 88.2994 3.36283 84.1641 2.53865C80.1923 1.74662 76.4159 -0.350671 72.2566 0.0504814C67.6961 0.489553 64.0119 3.90525 61.349 7.56836C58.8798 10.9618 56.91 14.6836 54.0145 17.768C51.2844 20.6778 48.4317 23.6368 46.7905 27.3087C45.4615 30.4332 45.0799 33.8682 45.6917 37.2006C46.3035 40.533 47.8825 43.6208 50.2389 46.0925Z" fill="#7F391F"/>
<path d="M93.5109 13.571C95.0656 12.6522 96.9029 12.3078 98.6928 12.5998C100.535 12.8965 102.24 13.7398 103.58 15.0165C106.572 17.8144 107.595 21.8234 109.406 25.3331C110.229 27.0977 111.475 28.6402 113.038 29.8289C114.571 30.8584 116.287 31.5979 118.096 32.0092C120.106 32.5093 122.12 32.764 123.936 33.8238C125.541 34.7538 126.891 36.0539 127.869 37.6115C129.095 39.5899 128.861 41.6211 127.624 43.5418C126.544 45.2202 124.944 46.5087 122.891 46.66C122.81 46.6589 122.73 46.6345 122.663 46.59C122.595 46.5455 122.542 46.4826 122.509 46.409C122.477 46.3354 122.467 46.2543 122.481 46.1753C122.495 46.0963 122.531 46.023 122.587 45.964C123.853 45.0155 124.942 43.8589 125.807 42.5452C126.251 41.8725 126.498 41.0929 126.522 40.2916C126.355 39.4391 125.92 38.6595 125.278 38.0627C124.247 36.8982 122.92 36.0227 121.433 35.5254C119.71 34.9664 117.879 34.845 116.143 34.3271C112.794 33.3688 109.928 31.2201 108.103 28.2995C106.218 25.2246 105.456 21.6257 103.532 18.5728C102.6 16.9979 101.204 15.7377 99.5274 14.9587C97.7369 14.2274 95.7693 14.0201 93.8616 14.362C93.3984 14.452 93.0474 13.8246 93.5109 13.571Z" fill="#7F391F"/>
<path d="M57.8048 36.4102C58.4212 35.2263 58.7705 33.9257 58.829 32.5972C58.813 31.3185 58.583 30.0521 58.6259 28.7707C58.6203 27.487 59.0055 26.231 59.7322 25.164C60.6277 23.9321 61.9609 23.2726 63.1728 22.3994C65.4528 20.7566 66.4287 17.7529 68.1399 15.6144C70.026 13.2574 72.7018 11.9304 75.7612 12.6686C77.3502 13.145 78.884 13.7834 80.3377 14.5734C81.105 14.9573 81.9179 15.246 82.7578 15.4328C83.5863 15.5979 84.4238 15.522 85.2483 15.6503C85.268 15.6534 85.2705 15.6779 85.2599 15.6905C84.4915 16.6008 83.0362 16.5897 81.9453 16.4619C80.5039 16.2406 79.095 15.8489 77.7492 15.2955C76.449 14.816 74.9957 14.3106 73.5863 14.546C72.1896 14.8828 70.9845 15.7472 70.2328 16.9516C68.5452 19.2906 67.7677 22.1752 65.5342 24.1419C64.4787 25.0714 63.0775 25.5622 62.0659 26.5118C61.2894 27.4009 60.839 28.5201 60.7866 29.6904C60.4905 31.9611 60.9061 35.8968 58.2702 36.9886C57.906 37.1394 57.6871 36.6852 57.8048 36.4102Z" fill="#7F391F"/>
<path d="M73.9222 26.3907C74.1005 23.4699 76.8008 21.4905 79.4784 20.6921C81.052 20.2229 82.611 20.3697 84.2277 20.4144C85.1215 20.4723 86.0189 20.3862 86.8844 20.1596C87.6969 19.9141 88.4299 19.537 89.2106 19.2231C89.2658 19.2009 89.2994 19.2686 89.2811 19.3107C87.9354 22.4184 83.9797 21.613 81.3202 22.0022C78.3163 22.4416 76.437 24.5426 74.4731 26.6062C74.4284 26.6498 74.3717 26.6796 74.31 26.6919C74.2483 26.7043 74.1843 26.6987 74.1257 26.6758C74.0672 26.6529 74.0168 26.6137 73.9807 26.5631C73.9445 26.5124 73.9242 26.4525 73.9222 26.3907Z" fill="#7F391F"/>
<path d="M91.5457 27.6896C91.6474 26.4091 91.9465 25.1511 92.433 23.9589C92.9262 22.6943 93.8579 21.2245 93.537 19.819C93.5265 19.7784 93.5297 19.7355 93.546 19.6968C93.5622 19.6581 93.5908 19.6256 93.6273 19.604C93.6639 19.5824 93.7065 19.573 93.749 19.5771C93.7914 19.5812 93.8314 19.5986 93.863 19.6268C95.3406 21.0024 94.3099 23.0213 93.9132 24.6588C93.4655 26.5076 93.3145 28.5821 94.3552 30.2735C95.3611 31.9083 97.2356 32.1998 99.0485 32.1273C99.9994 32.1343 100.925 31.8258 101.675 31.2518C102.18 30.7028 102.525 30.0314 102.677 29.307C102.708 29.196 102.769 29.0949 102.851 29.0132C102.934 28.9316 103.037 28.8722 103.15 28.8407C103.263 28.8093 103.382 28.8069 103.496 28.8337C103.61 28.8605 103.715 28.9157 103.802 28.9939C105.673 30.6933 103.746 33.5136 101.961 34.3525C100.726 34.8543 99.3874 35.0605 98.0553 34.9539C96.7231 34.8474 95.4359 34.4312 94.2998 33.7397C93.3546 33.0447 92.6056 32.1243 92.1237 31.0656C91.6418 30.0069 91.4429 28.8449 91.5457 27.6896Z" fill="#7F391F"/>
<path d="M104.517 38.5915C104.437 37.7307 104.611 36.8653 105.016 36.0983C105.406 35.3538 106.034 34.7562 106.805 34.3982C106.824 34.3878 106.854 34.4096 106.839 34.4307C105.61 36.1004 105.237 38.6824 106.878 40.2232C107.234 40.5707 107.68 40.8159 108.168 40.9321C108.655 41.0483 109.166 41.0312 109.644 40.8826C110.025 40.7557 110.645 40.4184 110.736 39.9866C110.846 39.4654 110.28 39.0737 109.875 38.8599C109.808 38.8222 109.752 38.768 109.713 38.7028C109.674 38.6376 109.652 38.5634 109.651 38.4876C109.649 38.4119 109.668 38.337 109.705 38.2704C109.742 38.2038 109.796 38.1477 109.861 38.1077C111.51 37.3408 112.938 39.1025 112.457 40.6714C111.888 42.5246 109.391 43.0866 107.706 42.5881C106.827 42.3133 106.053 41.7852 105.485 41.0723C104.916 40.3595 104.579 39.4951 104.517 38.5915Z" fill="#7F391F"/>
<path d="M113.009 47.2077C112.949 46.298 113.117 45.3878 113.498 44.5565C113.879 43.7251 114.461 42.998 115.194 42.4386C115.253 42.3901 115.36 42.4488 115.311 42.5242C114.734 43.4442 114.411 44.4965 114.375 45.5769C114.339 46.6572 114.591 47.728 115.107 48.683C115.654 49.6101 116.482 50.3461 117.476 50.7886C118.471 51.2325 119.6 51.3159 120.542 51.8902C122.182 52.8898 122.72 55.0456 122.768 56.8207C122.815 58.5752 122.323 60.3815 120.689 61.3083C120.352 61.4993 119.931 61.0363 120.246 60.7655C121.802 59.4279 121.647 56.98 121.005 55.2265C120.845 54.71 120.559 54.2396 120.172 53.8555C119.786 53.4715 119.31 53.1855 118.786 53.0219C117.777 52.7859 116.807 52.4083 115.907 51.9007C115.101 51.3777 114.423 50.6854 113.922 49.8739C113.42 49.0624 113.109 48.1518 113.009 47.2077Z" fill="#7F391F"/>
<path d="M67.884 29.2318C67.9832 29.2576 68.0739 29.3084 68.1471 29.3792C68.2203 29.4499 68.2735 29.5381 68.3015 29.6351C68.3295 29.7321 68.3313 29.8346 68.3068 29.9326C68.2823 30.0305 68.2322 30.1205 68.1616 30.1936C67.0831 31.0589 67.7692 32.2474 68.9678 32.5253C69.564 32.626 70.1773 32.5323 70.7142 32.2586C71.2511 31.9848 71.6821 31.5461 71.9414 31.0093C72.497 29.8843 71.1556 28.6908 71.0113 27.5488C70.8935 26.5582 71.1647 25.5607 71.7696 24.7596C71.7759 24.7513 71.7862 24.7606 71.7853 24.7682C71.6204 25.891 71.8368 27.0359 72.4009 28.0257C72.8689 28.8357 73.551 29.5338 73.5727 30.5202C73.61 32.2081 71.944 33.7718 70.4005 34.2156C69.6218 34.4527 68.7818 34.4025 68.038 34.0747C67.2942 33.7468 66.6978 33.1637 66.3605 32.4347C65.8127 31.1395 66.0227 29.0047 67.884 29.2318Z" fill="#7F391F"/>
<path d="M54.264 46.901C54.1385 45.5181 54.5624 44.1412 55.4469 43.0583C56.4683 41.8506 57.786 40.9183 59.2758 40.3494C60.8866 39.6582 62.4125 39.1789 63.2177 37.5101C63.2283 37.4918 63.2436 37.4765 63.2621 37.4657C63.2805 37.455 63.3015 37.4491 63.323 37.4488C63.3444 37.4484 63.3656 37.4535 63.3845 37.4636C63.4033 37.4737 63.4191 37.4884 63.4304 37.5063C64.6464 40.2008 60.1636 41.3505 58.5798 42.3083C57.9052 42.6598 57.3146 43.1485 56.8474 43.7419C56.3803 44.3353 56.0474 45.0197 55.871 45.7495C55.6181 47.2625 56.6142 48.8867 57.5288 50.0278C57.8633 50.4452 57.2047 50.8437 56.8427 50.5675C56.1755 50.1328 55.5845 49.5946 55.0927 48.9741C54.6452 48.3615 54.3604 47.649 54.264 46.901Z" fill="#7F391F"/>
<path d="M47.3472 59.593C47.5913 58.3064 47.9691 57.0479 48.4747 55.837C48.7548 55.1701 49.0504 54.5071 49.3708 53.8579C49.7023 53.1861 50.1426 52.6367 50.5282 52.0125C50.5388 51.9951 50.5553 51.9821 50.5748 51.9756C50.5943 51.9692 50.6155 51.9698 50.6346 51.9773C50.6537 51.9848 50.6694 51.9987 50.679 52.0166C50.6886 52.0345 50.6914 52.0552 50.6868 52.0749C50.5921 52.5936 50.6067 53.1004 50.4805 53.6289C50.3351 54.2373 50.1746 54.8421 50.029 55.4505C49.7509 56.6133 49.4641 57.7831 49.2707 58.9628C48.7984 61.4308 48.9519 63.975 49.7175 66.371C51.252 70.8459 55.0225 73.6724 59.6289 74.6699C59.8209 74.7245 59.9868 74.8445 60.0968 75.0084C60.2068 75.1723 60.2539 75.3693 60.2294 75.5642C60.2049 75.759 60.1106 75.9389 59.9633 76.0716C59.8159 76.2043 59.6253 76.2811 59.4256 76.2883C54.1619 76.2963 49.7543 72.3426 47.9809 67.6738C47.0348 65.0849 46.8159 62.2936 47.3472 59.593Z" fill="#7F391F"/>
<path d="M79.3209 61.9229C79.3209 61.9229 79.2642 62.384 79.2563 63.0942C79.21 64.629 79.4767 66.1574 80.0408 67.5895C80.3331 68.3607 80.8286 69.0418 81.4767 69.5634C82.1247 70.0849 82.9021 70.4281 83.7295 70.5579C84.5998 70.6859 85.4892 70.5823 86.3048 70.2578C87.1205 69.9334 87.8327 69.4 88.3671 68.7132C89.3671 67.5113 90.1374 66.1415 90.6405 64.6701C90.904 63.9389 91.0238 63.4429 91.0238 63.4429C87.062 64.2983 82.9201 63.7604 79.3209 61.9229Z" fill="#9F2236"/>
<path d="M79.3211 61.9229C79.3211 61.9229 79.2644 62.384 79.2566 63.0942C80.5725 64.3878 82.2124 65.3178 84.011 65.7903C86.7561 66.4814 89.4632 65.3005 90.6407 64.6701C90.9042 63.9389 91.024 63.4429 91.024 63.4429C87.0622 64.2983 82.9203 63.7604 79.3211 61.9229Z" fill="white"/>
<path d="M80.041 67.5894C80.3333 68.3606 80.8288 69.0417 81.4769 69.5632C82.125 70.0848 82.9024 70.428 83.7297 70.5578C84.6 70.6858 85.4894 70.5822 86.3051 70.2577C87.1208 69.9333 87.8329 69.3999 88.3673 68.7131C87.7419 68.3249 87.0377 68.0758 86.3039 67.9833C85.5701 67.8908 84.8247 67.957 84.1197 68.1774C84.1197 68.1774 82.6462 66.9561 80.041 67.5894Z" fill="#FF6551"/>
<path d="M77.2411 55.2307C79.4744 54.2523 80.4771 51.6809 79.4805 49.4875C78.484 47.294 75.8656 46.309 73.6323 47.2875C71.3989 48.2659 70.3962 50.8372 71.3928 53.0307C72.3893 55.2242 75.0077 56.2091 77.2411 55.2307Z" fill="white"/>
<path d="M78.4079 53.7528C79.5135 52.1577 79.093 49.9846 77.4688 48.8991C75.8445 47.8136 73.6316 48.2267 72.5261 49.8218C71.4205 51.4169 71.841 53.59 73.4653 54.6755C75.0895 55.761 77.3024 55.3479 78.4079 53.7528Z" fill="black"/>
<path d="M77.5056 51.9113C77.6114 52.1134 77.6539 52.3417 77.6276 52.5674C77.6012 52.7931 77.5074 53.0061 77.3578 53.1794C77.2082 53.3527 77.0097 53.4786 76.7872 53.5411C76.5648 53.6037 76.3285 53.6 76.1082 53.5306C75.8879 53.4613 75.6935 53.3293 75.5495 53.1515C75.4056 52.9736 75.3186 52.7578 75.2995 52.5314C75.2805 52.305 75.3302 52.0781 75.4425 51.8794C75.5548 51.6808 75.7245 51.5193 75.9302 51.4153C76.0668 51.3463 76.2159 51.3044 76.369 51.292C76.5221 51.2796 76.6762 51.2969 76.8225 51.3429C76.9688 51.389 77.1044 51.4629 77.2216 51.5604C77.3388 51.6579 77.4353 51.7772 77.5056 51.9113Z" fill="white"/>
<path d="M102.462 55.9247C102.662 53.5308 100.849 51.4303 98.4113 51.233C95.9741 51.0358 93.8361 52.8165 93.636 55.2104C93.4359 57.6043 95.2494 59.7048 97.6866 59.9021C100.124 60.0994 102.262 58.3186 102.462 55.9247Z" fill="white"/>
<path d="M99.1278 59.2133C100.966 58.5314 101.892 56.5154 101.198 54.7104C100.503 52.9054 98.4503 51.9949 96.6125 52.6769C94.7747 53.3588 93.8479 55.3749 94.5425 57.1799C95.2371 58.9849 97.29 59.8953 99.1278 59.2133Z" fill="black"/>
<path d="M95.1944 56.0898C95.2052 56.2962 95.2782 56.4949 95.404 56.6606C95.5298 56.8264 95.7029 56.9517 95.9013 57.0209C96.0996 57.0901 96.3145 57.0999 96.5185 57.0492C96.7226 56.9985 96.9068 56.8895 97.0478 56.736C97.1888 56.5824 97.2803 56.3913 97.3106 56.1868C97.341 55.9822 97.3089 55.7734 97.2185 55.5867C97.128 55.4001 96.9832 55.2439 96.8024 55.1381C96.6215 55.0323 96.4128 54.9815 96.2025 54.9921C95.9206 55.0064 95.656 55.1301 95.467 55.3359C95.2779 55.5418 95.1799 55.8129 95.1944 56.0898Z" fill="white"/>
<path d="M24.3555 120.385L24.5313 123.264H154.404L154.444 120.385H24.3555Z" fill="#864FF1"/>
<path d="M153.389 122.739C153.735 122.737 154.08 122.689 154.413 122.598L154.444 120.385H24.3555L24.4994 122.739L153.389 122.739Z" fill="#864FF1"/>
<path d="M138.098 85.6245V120.377H132.855L132.756 117.019L132.663 113.969L132.586 111.389L132.499 108.483L132.498 108.481L131.808 85.6245H138.098Z" fill="#FF6551"/>
<path d="M146.133 82.6758L144.681 113.969L144.606 115.598L144.54 117.02L144.385 120.377H138.097V82.6758H146.133Z" fill="#864FF1"/>
<path d="M139.973 117.02H132.755L132.662 113.97H139.771C139.843 115.057 139.91 116.08 139.973 117.02Z" fill="#F7A845"/>
<path d="M146.597 117.02H138.097V113.97H146.395C146.467 115.057 146.533 116.08 146.597 117.02Z" fill="#2435A1"/>
<path d="M133.758 108.944V87.3651C133.758 87.1046 133.864 86.8547 134.051 86.6704C134.239 86.4862 134.494 86.3827 134.759 86.3827H135.905C136.171 86.3827 136.425 86.4862 136.613 86.6704C136.8 86.8547 136.906 87.1046 136.906 87.3651V108.944C136.906 109.204 136.8 109.454 136.613 109.639C136.425 109.823 136.17 109.926 135.905 109.926H134.759C134.494 109.926 134.239 109.823 134.051 109.639C133.864 109.454 133.758 109.204 133.758 108.944Z" fill="#FF8D7E"/>
<path d="M139.519 84.7989V111.659C139.519 112.319 140.064 112.854 140.737 112.854H142.054C142.727 112.854 143.272 112.319 143.272 111.659V84.7989C143.272 84.1384 142.727 83.6029 142.054 83.6029H140.737C140.064 83.6029 139.519 84.1384 139.519 84.7989Z" fill="#A880F5"/>
<g style="mix-blend-mode:multiply" opacity="0.25">
<path d="M144.54 112.074V111.167C144.54 111.167 144.558 111.527 144.54 112.074Z" fill="#471E44"/>
</g>
<path d="M154.404 120.375V120.377H144.387L144.433 117.031L144.453 115.576L144.476 113.958L144.915 82.6756L144.98 78.0361H154.878L154.341 113.752L154.343 113.958L154.373 117.031L154.404 120.375Z" fill="#2435A1"/>
<path d="M154.373 117.03H144.434L144.477 113.958H154.344L154.373 117.03Z" fill="#F7A845"/>
<path d="M147.109 111.446V81.0548C147.109 80.6812 147.26 80.3228 147.529 80.0586C147.798 79.7944 148.163 79.6459 148.544 79.6459H150.263C150.643 79.6459 151.008 79.7944 151.277 80.0586C151.546 80.3228 151.697 80.6812 151.697 81.0548V111.446C151.697 111.631 151.66 111.814 151.588 111.985C151.516 112.156 151.41 112.311 151.277 112.442C151.144 112.573 150.986 112.676 150.811 112.747C150.637 112.818 150.451 112.854 150.263 112.854H148.544C148.163 112.854 147.798 112.706 147.529 112.442C147.26 112.178 147.109 111.819 147.109 111.446Z" fill="#525FB5"/>
<g style="mix-blend-mode:multiply" opacity="0.23">
<path d="M137.545 85.6245V120.394L138.097 120.377V85.6245H137.545Z" fill="#471E44"/>
</g>
<path d="M144.064 82.6758V120.375L144.386 120.377L144.914 82.6758H144.064Z" fill="#243976"/>
<path d="M114.489 116.762L114.204 117.582L113.641 119.209L81.2176 119.966L48.794 119.209L47.9459 116.762C53.0055 116.681 58.0394 116.036 62.9508 114.839C70.3445 112.917 77.9556 112.703 81.2176 115.907C84.4795 112.703 92.0906 112.917 99.4843 114.839C104.396 116.036 109.43 116.681 114.489 116.762Z" fill="#FFEBDD"/>
<path d="M114.054 120.392H48.3803V118.897H49.3281H114.054V120.392Z" fill="#FF6551"/>
<path d="M114.488 116.762L114.204 117.582C110.004 117.763 102.963 116.975 95.3518 115.053C87.7407 113.131 81.4343 116.762 81.2168 116.762V115.907C84.4787 112.703 92.0899 112.917 99.4836 114.839C104.395 116.036 109.429 116.681 114.488 116.762Z" fill="#F5C6B1"/>
<path d="M47.9459 116.762L48.2308 117.582C52.43 117.763 59.4714 116.975 67.0825 115.053C74.6937 113.131 81.0001 116.762 81.2176 116.762V115.907C77.9556 112.703 70.3445 112.917 62.9508 114.839C58.0394 116.036 53.0055 116.681 47.9459 116.762Z" fill="#F5C6B1"/>
<g style="mix-blend-mode:multiply" opacity="0.15">
<path d="M158.981 76.9995L158.236 127.075H66.9326C96.5098 118.589 134.509 103.291 158.981 76.9995Z" fill="#29ABE2"/>
</g>
</g>
<defs>
<filter id="filter0_d_320_72488" x="0" y="0" width="175" height="158" filterUnits="userSpaceOnUse" color-interpolation-filters="sRGB">
<feFlood flood-opacity="0" result="BackgroundImageFix"/>
<feColorMatrix in="SourceAlpha" type="matrix" values="0 0 0 0 0 0 0 0 0 0 0 0 0 0 0 0 0 0 127 0" result="hardAlpha"/>
<feOffset dy="4"/>
<feGaussianBlur stdDeviation="2"/>
<feComposite in2="hardAlpha" operator="out"/>
<feColorMatrix type="matrix" values="0 0 0 0 0 0 0 0 0 0 0 0 0 0 0 0 0 0 0.25 0"/>
<feBlend mode="normal" in2="BackgroundImageFix" result="effect1_dropShadow_320_72488"/>
<feBlend mode="normal" in="SourceGraphic" in2="effect1_dropShadow_320_72488" result="shape"/>
</filter>
</defs>
</svg>
