<svg width="192" height="158" viewBox="0 0 192 158" fill="none" xmlns="http://www.w3.org/2000/svg">
<g filter="url(#filter0_d_320_72597)">
<path d="M159.251 136.662C150.898 141.612 140.1 139.5 130.299 140.58C122.016 141.493 114.273 144.765 106.344 147.2C98.4162 149.635 89.7286 151.234 81.8136 148.761C76.3764 147.063 71.7907 143.59 66.6739 141.165C60.4993 138.237 53.6377 136.873 47.1941 134.515C40.7506 132.158 34.389 128.464 31.3975 122.595C27.8002 115.537 29.8677 107.153 28.5079 99.4299C26.9734 90.7136 21.1378 83.1873 18.6953 74.6567C16.9696 68.6298 18.7601 61.5177 20.8454 55.6696C23.0489 49.49 29.1743 42.5473 35.0767 38.9515C37.0024 37.7783 38.9043 36.6031 40.723 35.276C41.5199 34.6945 45.7133 32.1508 45.7133 31.2299C50.4215 26.956 53.2476 21.5057 57.3389 16.7726C61.5839 11.8617 67.7975 8.67983 74.3142 7.11931C80.215 5.68699 86.2519 4.89502 92.321 4.75703C98.8391 4.6551 105.161 5.22677 111.45 3.11559C112.77 2.67235 114.051 2.1299 115.368 1.67555C124.259 -1.39159 136.167 -0.0482506 144.479 4.08126C147.651 5.65699 150.305 8.00323 152.862 10.3705C156.036 13.1754 158.809 16.4063 161.104 19.972C163.205 23.4116 163.87 27.5171 166.546 30.7456C168.343 32.9137 170.111 35.2953 171.892 37.3865C174.645 40.6179 178.884 42.1708 181.501 45.6919C184.136 49.2363 185.389 53.564 186.256 57.7584C187.367 63.1285 187.989 68.6339 187.394 74.0762C186.442 82.7839 181.582 89.2579 176.614 96.3435C174.959 98.7041 173.296 101.147 172.661 103.912C172.406 105.238 172.25 106.581 172.194 107.929C171.887 111.86 170.837 115.481 170.046 119.289C168.657 125.979 165.617 132.89 159.251 136.662Z" fill="#EFF2FD"/>
<path d="M114.436 116.757C81.9368 117.783 49.4377 118.809 16.9386 119.835C11.6731 120.001 7.25756 115.536 7.11352 109.862C6.46022 81.2297 6.43751 52.6035 7.04539 23.9838C7.18049 18.3094 11.5889 13.8379 16.8546 13.9958C49.3553 14.9698 81.856 15.9438 114.357 16.9177C116.887 16.998 119.282 18.0807 121.021 19.9294C122.759 21.778 123.699 24.2425 123.635 26.7847C123.074 53.4888 123.095 80.1854 123.698 106.875C123.767 109.417 122.831 111.883 121.095 113.734C119.36 115.586 116.966 116.672 114.436 116.757Z" fill="#243976"/>
<path d="M111.787 114.236C79.2861 115.21 46.7855 116.184 14.2848 117.158C9.019 117.316 4.61031 112.838 4.47508 107.155C3.86631 78.4788 3.88905 49.8101 4.54331 21.1489C4.68757 15.4663 9.1033 10.995 14.3688 11.1612C46.8679 12.1873 79.367 13.2133 111.866 14.2393C114.398 14.3257 116.793 15.415 118.528 17.2693C120.264 19.1236 121.198 21.5923 121.128 24.1365C120.524 50.8822 120.503 77.6214 121.065 104.354C121.131 106.898 120.192 109.365 118.454 111.217C116.716 113.068 114.319 114.154 111.787 114.236Z" fill="#864FF1"/>
<path d="M56.7534 12.4993L14.3693 11.1612C9.10383 10.995 4.68809 15.4663 4.54383 21.1489C4.26551 33.182 4.08424 45.2152 4 57.2486C7.25826 30.3055 30.6416 12.7654 56.7534 12.4993Z" fill="#9768F3"/>
<path d="M111.866 14.2394C103.142 13.964 94.4169 13.6885 85.6923 13.4131C93.9728 16.8761 101.199 22.4689 106.645 29.6287C123.977 52.6731 96.7425 78.7132 76.8156 87.2808C54.3095 96.9574 25.7415 98.5376 4.09262 85.3985C4.17029 92.6507 4.29778 99.9029 4.47508 107.155C4.61031 112.838 9.01899 117.316 14.2848 117.158C46.7854 116.184 79.2861 115.21 111.787 114.236C114.319 114.154 116.716 113.068 118.454 111.217C120.192 109.365 121.131 106.898 121.065 104.354C120.503 77.6074 120.524 50.8683 121.128 24.1366C121.198 21.5925 120.264 19.1238 118.528 17.2695C116.793 15.4152 114.398 14.3259 111.866 14.2394Z" fill="#602A9F"/>
<path d="M110.036 111.239C78.6437 112.121 47.251 113.003 15.8583 113.885C11.5474 114.006 7.94587 110.34 7.83903 105.697C7.36422 82.5267 7.29241 59.3588 7.6236 36.1938C44.2291 36.8151 80.8345 37.4363 117.44 38.0575C117.13 59.7587 117.197 81.4551 117.642 103.147C117.696 105.231 116.926 107.253 115.501 108.769C114.076 110.286 112.111 111.173 110.036 111.239Z" fill="white"/>
<path d="M85.524 32.719C71.4153 32.4386 57.3067 32.1582 43.198 31.8778C42.6474 31.8527 42.1072 31.7188 41.6081 31.4838C41.1091 31.2488 40.6611 30.9172 40.2897 30.5081C39.9183 30.099 39.6308 29.6203 39.4438 29.0995C39.2567 28.5787 39.1736 28.0259 39.1994 27.4728C39.1982 26.9191 39.3057 26.3706 39.5158 25.8587C39.7258 25.3468 40.0342 24.8815 40.4234 24.4894C40.8126 24.0974 41.2749 23.7862 41.7839 23.5738C42.2929 23.3614 42.8386 23.2518 43.3897 23.2515C57.4968 23.6037 71.6039 23.956 85.7109 24.3082C86.8067 24.3481 87.8421 24.8227 88.5901 25.6282C89.3381 26.4337 89.7377 27.5043 89.7013 28.6052C89.6888 29.7067 89.242 30.7583 88.459 31.5295C87.6759 32.3006 86.6205 32.7284 85.524 32.719Z" fill="white"/>
<path d="M117.163 25.0943C117.148 25.6026 116.983 26.095 116.689 26.5092C116.395 26.9234 115.986 27.2409 115.512 27.4217C115.039 27.6024 114.523 27.6382 114.03 27.5247C113.536 27.4112 113.087 27.1533 112.74 26.7837C112.392 26.4141 112.161 25.9492 112.076 25.4478C111.991 24.9465 112.055 24.431 112.262 23.9665C112.468 23.502 112.806 23.1093 113.235 22.8379C113.663 22.5666 114.161 22.4287 114.668 22.4418C115.348 22.4616 115.994 22.7521 116.462 23.2494C116.929 23.7467 117.182 24.4102 117.163 25.0943Z" fill="white"/>
<path d="M108.57 24.8799C108.552 25.3877 108.385 25.8787 108.09 26.2911C107.794 26.7035 107.384 27.0189 106.91 27.1976C106.437 27.3762 105.922 27.4102 105.429 27.2951C104.936 27.1801 104.489 26.9211 104.142 26.551C103.796 26.1808 103.566 25.716 103.482 25.215C103.398 24.714 103.464 24.1992 103.67 23.7354C103.877 23.2717 104.216 22.8798 104.643 22.609C105.071 22.3382 105.569 22.2007 106.075 22.2137C106.758 22.2355 107.404 22.5284 107.872 23.0283C108.34 23.5282 108.591 24.1941 108.57 24.8799Z" fill="white"/>
<path d="M99.7086 24.6587C99.6878 25.1658 99.5182 25.6553 99.2212 26.0659C98.9242 26.4764 98.5131 26.7896 98.0394 26.9661C97.5658 27.1427 97.0508 27.1746 96.5591 27.058C96.0675 26.9414 95.6211 26.6815 95.276 26.3108C94.931 25.9401 94.7027 25.4753 94.6198 24.9746C94.5369 24.474 94.6032 23.9599 94.8102 23.497C95.0173 23.0341 95.3559 22.643 95.7835 22.3728C96.2111 22.1026 96.7087 21.9654 97.2137 21.9784C97.8981 22.002 98.5453 22.2976 99.013 22.8001C99.4808 23.3026 99.731 23.971 99.7086 24.6587Z" fill="white"/>
<path d="M103.088 95.2942L24.6149 96.7237C24.331 78.4115 24.2915 60.103 24.4965 41.7983C50.656 42.161 76.8155 42.5237 102.975 42.8864C102.78 60.3603 102.817 77.8295 103.088 95.2942Z" fill="#FF6551"/>
<path d="M101.823 105.129C76.6492 105.739 51.4752 106.349 26.3011 106.958C25.899 106.956 25.5143 106.793 25.2316 106.505C24.9489 106.218 24.7914 105.83 24.7936 105.426C24.7727 105.022 24.9122 104.627 25.1813 104.327C25.4504 104.026 25.8272 103.846 26.2288 103.825C51.4039 103.261 76.579 102.698 101.754 102.134C102.147 102.128 102.526 102.278 102.808 102.553C103.09 102.827 103.252 103.203 103.259 103.597C103.27 103.992 103.126 104.375 102.857 104.662C102.587 104.949 102.216 105.117 101.823 105.129Z" fill="#BFBFBF"/>
<path d="M26.2281 103.824C25.8307 103.857 25.4608 104.041 25.194 104.339C24.9272 104.636 24.7837 105.025 24.793 105.425C24.8022 105.826 24.9635 106.208 25.2437 106.493C25.5239 106.777 25.902 106.944 26.3005 106.958C35.9437 106.724 45.5868 106.491 55.23 106.257C55.2004 105.025 55.1862 104.409 55.1589 103.177L26.2281 103.824Z" fill="#2435A1"/>
<path d="M63.5243 84.9343C59.6445 84.9166 55.93 83.3542 53.195 80.5896C51.6875 79.106 50.4889 77.3357 49.6692 75.3821C48.8494 73.4284 48.4248 71.3304 48.4202 69.2103C48.4156 67.0902 48.831 64.9903 49.6422 63.0331C50.4534 61.0758 51.6443 59.3003 53.1453 57.81C54.5011 56.4273 56.1157 55.3275 57.8962 54.574C59.6767 53.8205 61.5879 53.4281 63.5199 53.4194C63.5535 53.4194 63.5867 53.4194 63.6203 53.4201C71.7986 53.4775 78.723 60.6788 78.7412 69.1442C78.7593 77.6095 71.8661 84.8399 63.6882 84.933C63.6338 84.9337 63.5787 84.9343 63.5243 84.9343ZM63.5202 55.4663C61.855 55.4757 60.2081 55.8159 58.6742 56.4671C57.1404 57.1184 55.7498 58.0678 54.5825 59.261C53.2722 60.5605 52.2327 62.1092 51.5245 63.8167C50.8163 65.5241 50.4536 67.3562 50.4576 69.2059C50.4617 71.0557 50.8323 72.8861 51.548 74.5904C52.2636 76.2947 53.3099 77.8388 54.6259 79.1326C56.9806 81.5182 60.1808 82.8685 63.5249 82.8875C63.5716 82.8875 63.6183 82.8868 63.665 82.8868C70.7486 82.8058 76.7195 76.5142 76.7038 69.1482C76.688 61.7822 70.6899 55.5169 63.6062 55.4663H63.5202Z" fill="white"/>
<path d="M60.4647 63.9292C60.4604 68.4948 60.4659 70.7777 60.4924 75.3432C64.5071 73.2559 66.5162 72.2185 70.5373 70.1559C66.5037 67.6803 64.4891 66.4349 60.4647 63.9292Z" fill="white"/>
<path d="M59.1608 104.624C59.148 105.326 58.9301 106.008 58.5343 106.587C58.1384 107.165 57.582 107.614 56.9343 107.877C56.2866 108.141 55.5761 108.207 54.8912 108.068C54.2064 107.929 53.5773 107.59 53.0823 107.095C52.5873 106.599 52.2482 105.969 52.1071 105.281C51.966 104.594 52.0293 103.88 52.2889 103.228C52.5486 102.576 52.9932 102.016 53.5675 101.616C54.1418 101.216 54.8204 100.994 55.519 100.979C56.4826 100.979 57.407 101.362 58.0896 102.045C58.7723 102.729 59.1575 103.656 59.1608 104.624Z" fill="#FF6551"/>
<path d="M57.3467 104.667C57.3404 105.011 57.2336 105.345 57.0397 105.628C56.8457 105.912 56.5731 106.132 56.2558 106.261C55.9384 106.39 55.5903 106.422 55.2547 106.354C54.919 106.286 54.6108 106.121 54.3681 105.878C54.1255 105.635 53.9592 105.326 53.89 104.989C53.8207 104.652 53.8516 104.303 53.9787 103.983C54.1057 103.664 54.3235 103.389 54.6048 103.193C54.8861 102.997 55.2186 102.888 55.5609 102.88C56.0333 102.88 56.4867 103.068 56.8215 103.402C57.1563 103.737 57.3452 104.192 57.3467 104.667Z" fill="white"/>
<g style="mix-blend-mode:multiply" opacity="0.35">
<path d="M85.608 42.7695C84.611 42.7686 83.6237 42.9656 82.7027 43.349C81.7817 43.7325 80.9452 44.295 80.2412 45.0042C79.5372 45.7134 78.9795 46.5553 78.6003 47.4816C78.2211 48.4079 78.0277 49.4003 78.0313 50.4018C77.8852 72.9036 78.1352 95.3969 78.7815 117.882C90.6665 117.507 102.551 117.131 114.436 116.756C116.966 116.672 119.36 115.585 121.096 113.734C122.831 111.882 123.767 109.416 123.699 106.874C123.219 85.6767 123.095 64.4818 123.326 43.2896C110.753 43.1163 98.1807 42.9429 85.608 42.7695Z" fill="#3F4D88"/>
</g>
<path d="M180.16 131.694C150.71 131.229 121.259 130.764 91.8083 130.3C89.821 130.266 87.9281 129.442 86.5445 128.009C85.161 126.575 84.3998 124.649 84.4278 122.652C84.7266 97.0604 84.7352 71.4701 84.4538 45.8815C84.4271 43.885 85.1896 41.9593 86.5741 40.5267C87.9586 39.0941 89.8521 38.2715 91.8394 38.2394C121.29 37.7947 150.741 37.35 180.192 36.9053C181.193 36.9073 182.184 37.1076 183.107 37.4947C184.031 37.8819 184.87 38.4482 185.575 39.1613C186.281 39.8745 186.839 40.7204 187.219 41.6507C187.599 42.5809 187.792 43.5773 187.788 44.5828C188.079 71.0643 188.07 97.5439 187.761 124.021C187.764 125.027 187.57 126.023 187.19 126.953C186.81 127.883 186.251 128.729 185.545 129.441C184.839 130.154 184 130.72 183.076 131.106C182.152 131.493 181.161 131.693 180.16 131.694Z" fill="#243976"/>
<path d="M178.174 129.57C148.723 129.125 119.272 128.68 89.8215 128.236C87.8348 128.204 85.9417 127.382 84.5572 125.951C83.1727 124.519 82.4098 122.594 82.4358 120.599C82.717 95.0237 82.7084 69.4507 82.4098 43.8796C82.3825 41.8838 83.1441 39.9585 84.5276 38.5259C85.9112 37.0933 87.8037 36.2704 89.7904 36.2376C119.241 35.7728 148.692 35.308 178.142 34.8433C179.143 34.8443 180.133 35.0435 181.057 35.4296C181.981 35.8156 182.82 36.3809 183.526 37.0931C184.232 37.8053 184.791 38.6503 185.171 39.5799C185.552 40.5095 185.746 41.5053 185.743 42.5104C186.052 68.9744 186.061 95.4366 185.77 121.897C185.774 122.902 185.58 123.898 185.2 124.828C184.82 125.758 184.262 126.603 183.556 127.316C182.851 128.029 182.012 128.595 181.089 128.981C180.165 129.368 179.175 129.568 178.174 129.57Z" fill="#49B3F7"/>
<path d="M178.141 34.8433L159.088 35.144C168.613 37.9946 175.447 46.5231 177.011 55.6562C180.827 77.9375 137.698 103.906 119.694 108.331C107.762 111.264 94.3571 113.066 82.5627 108.287C82.5216 113.212 82.496 115.674 82.4346 120.599C82.4086 122.594 83.1715 124.519 84.556 125.951C85.9405 127.382 87.8337 128.204 89.8203 128.236C119.271 128.68 148.722 129.125 178.173 129.57C179.174 129.568 180.164 129.368 181.087 128.981C182.011 128.595 182.849 128.029 183.555 127.316C184.26 126.603 184.819 125.758 185.199 124.828C185.579 123.898 185.772 122.902 185.769 121.897C186.06 95.4329 186.051 68.9707 185.742 42.5105C185.745 41.5054 185.551 40.5095 185.17 39.5799C184.79 38.6504 184.23 37.8053 183.524 37.0931C182.818 36.3809 181.98 35.8156 181.056 35.4296C180.132 35.0435 179.142 34.8443 178.141 34.8433Z" fill="#378FDD"/>
<path d="M148.713 35.3081C129.072 35.618 109.431 35.928 89.7903 36.2379C87.8037 36.2708 85.9111 37.0937 84.5276 38.5263C83.144 39.9588 82.3824 41.8841 82.4098 43.88C82.5527 55.9855 82.6384 68.091 82.6667 80.1964C95.3005 55.5309 123.103 41.8197 148.713 35.3081Z" fill="#6CC1F9"/>
<path d="M176.902 127.102C148.322 126.693 119.743 126.284 91.163 125.876C89.536 125.851 87.9853 125.178 86.8512 124.006C85.7171 122.834 85.0921 121.258 85.1134 119.623C85.3459 98.019 85.3744 76.4157 85.1991 54.8131C117.868 54.5008 150.536 54.1884 183.205 53.876C183.386 76.1926 183.356 98.5078 183.116 120.822C183.119 121.644 182.961 122.459 182.65 123.22C182.34 123.981 181.883 124.673 181.305 125.256C180.728 125.839 180.042 126.303 179.287 126.619C178.531 126.936 177.721 127.1 176.902 127.102Z" fill="white"/>
<path d="M181.263 43.196C181.255 43.608 181.127 44.0086 180.894 44.3478C180.661 44.687 180.334 44.9498 179.953 45.1033C179.572 45.2568 179.155 45.2943 178.753 45.2111C178.351 45.1279 177.983 44.9277 177.694 44.6354C177.404 44.3432 177.207 43.9718 177.127 43.5677C177.046 43.1636 177.086 42.7446 177.241 42.363C177.396 41.9814 177.659 41.6542 177.998 41.422C178.337 41.1899 178.737 41.0631 179.147 41.0576C179.426 41.0584 179.702 41.1143 179.959 41.2222C180.216 41.3301 180.45 41.4878 180.646 41.6864C180.843 41.8849 180.998 42.1205 181.104 42.3795C181.21 42.6385 181.264 42.9159 181.263 43.196Z" fill="white"/>
<path d="M174.26 43.2877C174.253 43.7 174.126 44.101 173.893 44.4408C173.661 44.7806 173.334 45.0441 172.953 45.1984C172.573 45.3526 172.155 45.3908 171.753 45.3081C171.351 45.2254 170.982 45.0256 170.693 44.7336C170.403 44.4415 170.205 44.0702 170.124 43.666C170.043 43.2617 170.083 42.8425 170.238 42.4607C170.393 42.0789 170.656 41.7513 170.995 41.519C171.334 41.2866 171.734 41.1598 172.144 41.1543C172.423 41.1547 172.698 41.2103 172.955 41.3177C173.212 41.4252 173.446 41.5825 173.642 41.7806C173.839 41.9787 173.994 42.2138 174.1 42.4724C174.207 42.731 174.261 43.008 174.26 43.2877Z" fill="white"/>
<path d="M167.041 43.3823C167.035 43.7947 166.908 44.1962 166.676 44.5367C166.444 44.8771 166.118 45.1413 165.737 45.2963C165.357 45.4513 164.939 45.4902 164.537 45.4081C164.134 45.3259 163.765 45.1265 163.475 44.8347C163.185 44.5428 162.987 44.1716 162.905 43.7672C162.824 43.3629 162.863 42.9435 163.018 42.5614C163.172 42.1793 163.436 41.8515 163.775 41.6189C164.114 41.3864 164.514 41.2594 164.924 41.2539C165.203 41.254 165.478 41.3091 165.735 41.4162C165.992 41.5232 166.225 41.68 166.422 41.8776C166.618 42.0753 166.774 42.3099 166.88 42.5681C166.986 42.8262 167.041 43.1029 167.041 43.3823Z" fill="white"/>
<path d="M153.682 50.4122L113.598 50.8448C112.71 50.8499 111.857 50.5007 111.225 49.8739C110.593 49.2471 110.234 48.394 110.228 47.5019C110.213 46.6099 110.551 45.7485 111.168 45.1068C111.785 44.4651 112.631 44.0957 113.518 44.0796L153.601 43.5566C154.044 43.5563 154.483 43.6437 154.892 43.8138C155.302 43.9839 155.674 44.2335 155.987 44.5481C156.3 44.8627 156.549 45.2364 156.719 45.6476C156.888 46.0588 156.975 46.4995 156.975 46.9446C156.986 47.3896 156.909 47.8324 156.749 48.2475C156.59 48.6627 156.35 49.0421 156.044 49.3641C155.738 49.6862 155.372 49.9445 154.967 50.1243C154.561 50.3042 154.125 50.402 153.682 50.4122Z" fill="white"/>
<path d="M100.154 75.5528C99.3524 75.5498 98.5846 75.2283 98.0182 74.6586C97.4518 74.0888 97.1327 73.3171 97.1307 72.5119C97.1209 69.768 97.1142 68.3967 97.0984 65.6527C97.0928 64.8461 97.4058 64.0701 97.9687 63.4949C98.5316 62.9197 99.2986 62.5922 100.102 62.5842L106.895 62.5376H106.916C107.311 62.5368 107.701 62.6144 108.066 62.7661C108.431 62.9177 108.762 63.1403 109.04 63.421C109.324 63.7036 109.549 64.0395 109.703 64.4096C109.857 64.7797 109.936 65.1767 109.937 65.5778C109.953 68.3326 109.96 69.7106 109.97 72.4654C109.973 72.8687 109.896 73.2686 109.744 73.6419C109.591 74.0151 109.367 74.3543 109.083 74.6397C108.805 74.9227 108.474 75.1474 108.109 75.3009C107.744 75.4544 107.352 75.5336 106.956 75.5339L100.163 75.5528H100.154ZM106.916 63.5209H106.902L100.108 63.5668C99.5646 63.573 99.0455 63.7955 98.6648 64.1855C98.2841 64.5755 98.0728 65.1011 98.0772 65.6473C98.093 68.3913 98.0997 69.7639 98.1094 72.5079C98.1101 73.0531 98.3255 73.5759 98.7086 73.9622C99.0916 74.3484 99.6112 74.5668 100.154 74.5695L100.16 74.5688L106.954 74.55C107.221 74.5499 107.486 74.4966 107.732 74.393C107.978 74.2894 108.202 74.1377 108.389 73.9467C108.582 73.7527 108.734 73.5222 108.837 73.2686C108.941 73.015 108.993 72.7434 108.991 72.4694C108.981 69.7147 108.974 68.338 108.959 65.5832C108.958 65.3108 108.904 65.0411 108.799 64.7897C108.695 64.5383 108.542 64.31 108.349 64.1181C108.161 63.9285 107.938 63.778 107.692 63.6755C107.446 63.573 107.182 63.5204 106.916 63.5209Z" fill="#FF6551"/>
<path d="M120.762 75.496C119.958 75.4905 119.189 75.1658 118.623 74.5928C118.056 74.0198 117.738 73.2451 117.738 72.4375C117.729 69.6747 117.722 68.2939 117.706 65.5311C117.698 64.7222 118.01 63.9431 118.573 63.3646C119.136 62.7861 119.904 62.4554 120.709 62.445L127.503 62.3984C128.305 62.4065 129.074 62.7253 129.649 63.2886C130.221 63.8637 130.543 64.643 130.545 65.4562C130.561 68.2298 130.567 69.6173 130.578 72.391C130.583 73.2042 130.269 73.9867 129.702 74.5674C129.424 74.8548 129.092 75.0835 128.725 75.2398C128.358 75.3962 127.963 75.4771 127.564 75.4777L120.771 75.496H120.762ZM127.523 63.3817H127.509L120.716 63.4283C120.17 63.4367 119.65 63.6622 119.269 64.0553C118.888 64.4485 118.678 64.9772 118.685 65.5257C118.701 68.2885 118.707 69.6706 118.717 72.4335C118.716 72.9811 118.93 73.507 119.313 73.8965C119.696 74.2861 120.217 74.5076 120.762 74.5127L120.768 74.512L127.562 74.4938C127.83 74.4934 128.096 74.4389 128.344 74.3334C128.591 74.2279 128.815 74.0736 129.002 73.8797C129.389 73.4834 129.603 72.9496 129.599 72.395C129.589 69.6214 129.582 68.2352 129.566 65.4616C129.565 64.907 129.346 64.3754 128.956 63.983C128.769 63.7923 128.546 63.641 128.3 63.5377C128.054 63.4345 127.79 63.3815 127.523 63.3817Z" fill="#FF6551"/>
<path d="M141.371 75.4403C140.565 75.4327 139.794 75.1049 139.227 74.5285C138.66 73.9521 138.344 73.1738 138.346 72.3636C138.336 69.5819 138.33 68.1917 138.314 65.41C138.303 64.5987 138.614 63.8166 139.177 63.2348C139.74 62.6531 140.509 62.3192 141.317 62.3063L148.11 62.2598H148.131C148.527 62.2593 148.919 62.3383 149.284 62.4922C149.649 62.6461 149.98 62.8718 150.257 63.156C150.829 63.7357 151.151 64.5187 151.152 65.3351C151.169 68.1276 151.175 69.5245 151.185 72.3171C151.192 73.1335 150.877 73.9196 150.311 74.5049C150.034 74.7941 149.702 75.0242 149.334 75.1817C148.967 75.3391 148.572 75.4206 148.172 75.4214L141.378 75.4403L141.371 75.4403ZM148.131 63.243H148.117L141.323 63.2896C140.775 63.3004 140.254 63.5291 139.873 63.9255C139.492 64.322 139.283 64.8538 139.292 65.4046C139.308 68.1863 139.315 69.5779 139.325 72.3596C139.321 72.9097 139.534 73.4389 139.918 73.8317C140.301 74.2246 140.823 74.4491 141.371 74.4564H141.376L148.17 74.4375C148.439 74.4369 148.705 74.3819 148.952 74.2757C149.199 74.1695 149.423 74.0142 149.609 73.8193C149.997 73.4183 150.211 72.88 150.206 72.3211C150.197 69.5286 150.19 68.133 150.174 65.3404C150.173 64.7814 149.954 64.245 149.562 63.8477C149.376 63.6562 149.153 63.5041 148.907 63.4003C148.661 63.2965 148.397 63.243 148.131 63.243Z" fill="#FF6551"/>
<path d="M161.977 75.3832C161.169 75.373 160.397 75.042 159.831 74.4623C159.264 73.8826 158.949 73.1013 158.954 72.289C158.944 69.4884 158.938 68.0887 158.921 65.2881C158.909 64.4744 159.218 63.6889 159.781 63.1037C160.344 62.5185 161.114 62.1811 161.924 62.1655L168.718 62.1203L168.738 62.1196C169.135 62.1195 169.528 62.1994 169.893 62.3545C170.259 62.5096 170.59 62.7368 170.866 63.0226C171.438 63.607 171.759 64.3936 171.76 65.2131C171.776 68.0246 171.783 69.431 171.793 72.2424C171.797 72.656 171.718 73.0663 171.563 73.4494C171.408 73.8324 171.178 74.1808 170.888 74.4741C170.613 74.7552 170.284 74.9786 169.922 75.1314C169.561 75.2842 169.172 75.3633 168.779 75.3643L161.986 75.3832L161.977 75.3832ZM168.738 63.1029H168.724L161.931 63.1488C161.38 63.1624 160.857 63.3946 160.477 63.7945C160.096 64.1944 159.889 64.7295 159.9 65.2827C159.916 68.0833 159.923 69.4843 159.933 72.2849C159.927 72.8373 160.138 73.3696 160.521 73.7659C160.904 74.1621 161.428 74.39 161.978 74.3999L161.983 74.3992L168.777 74.3803C169.041 74.3797 169.302 74.3263 169.546 74.2233C169.789 74.1203 170.009 73.9697 170.194 73.7804C170.393 73.5787 170.551 73.3392 170.657 73.0759C170.764 72.8126 170.817 72.5307 170.814 72.2465C170.804 69.435 170.798 68.03 170.781 65.2186C170.781 64.6552 170.561 64.1144 170.168 63.7123C169.983 63.5196 169.76 63.3664 169.515 63.2617C169.269 63.1571 169.005 63.1031 168.738 63.1029Z" fill="#FF6551"/>
<path d="M103.303 73.7557L102.508 72.9574C99.7331 70.1709 98.3439 68.7814 95.5629 66.0071L96.942 64.6115C99.4463 67.1091 100.823 68.4858 103.096 70.7675C105.82 67.1395 107.387 65.0421 110.299 61.1279L111.867 62.3049C108.72 66.5355 107.143 68.6458 103.981 72.8541L103.303 73.7557Z" fill="#2435A1"/>
<path d="M97.6207 94.3347L97.6129 96.3018L171.297 96.599L171.305 94.6319L97.6207 94.3347Z" fill="#BFBFBF"/>
<path d="M97.5826 101.949L97.5698 103.916L171.253 104.401L171.266 102.434L97.5826 101.949Z" fill="#BFBFBF"/>
<path d="M97.5254 109.563L97.5075 111.53L171.189 112.202L171.207 110.235L97.5254 109.563Z" fill="#BFBFBF"/>
<path d="M97.4498 117.176L97.4269 119.144L171.107 120.001L171.13 118.034L97.4498 117.176Z" fill="#BFBFBF"/>
<path d="M101.601 85.5609C101.294 86.5805 101.14 87.0902 100.832 88.1092C100.161 88.1082 99.826 88.1076 99.1553 88.1065C100.302 84.5122 100.872 82.7134 102.008 79.1122C102.838 79.1111 103.252 79.1105 104.081 79.1094C105.243 82.7098 105.821 84.5118 106.972 88.1193C106.27 88.1181 105.918 88.1176 105.216 88.1164C104.895 87.0948 104.735 86.5841 104.413 85.5631C103.288 85.5621 102.726 85.5617 101.601 85.5609ZM104.15 84.3203C103.87 83.4329 103.73 82.9894 103.45 82.1025C103.278 81.5548 103.133 80.9406 103 80.4196L102.974 80.4196C102.842 80.9409 102.697 81.5681 102.552 82.1028C102.278 82.9897 102.141 83.433 101.866 84.3194L104.15 84.3203Z" fill="#49B3F7"/>
<path d="M126.582 79.0771C126.582 79.6209 126.583 79.8928 126.583 80.4366C125.03 80.438 124.254 80.4387 122.701 80.4402C122.702 81.2199 122.702 81.6098 122.702 82.3895C123.066 82.3457 123.432 82.3232 123.798 82.3221C124.649 82.3043 125.487 82.543 126.201 83.0075C126.55 83.2538 126.831 83.5835 127.02 83.9668C127.209 84.3501 127.3 84.7748 127.284 85.2022C127.299 85.577 127.234 85.9506 127.095 86.2986C126.956 86.6466 126.745 86.961 126.476 87.2213C125.503 87.96 124.298 88.3212 123.081 88.2387C122.415 88.2401 121.749 88.1986 121.088 88.1144C121.093 84.5025 121.094 82.6966 121.089 79.0847L126.582 79.0771ZM122.7 86.9338C122.984 86.9753 123.271 86.9937 123.559 86.9889C124.131 87.0115 124.69 86.8094 125.117 86.4254C125.268 86.2685 125.387 86.0831 125.466 85.88C125.546 85.6768 125.585 85.4598 125.58 85.2415C125.589 85.0022 125.54 84.7643 125.436 84.5486C125.333 84.3329 125.178 84.1458 124.987 84.0036C124.552 83.7057 124.034 83.5549 123.508 83.5728C123.257 83.5728 122.967 83.5995 122.702 83.6261C122.702 84.9492 122.702 85.6107 122.7 86.9338Z" fill="#49B3F7"/>
<path d="M141.703 79.1912C142.487 79.0505 143.282 78.9814 144.079 78.9848C144.963 78.9191 145.846 79.121 146.615 79.5645C146.902 79.7486 147.138 80.0031 147.3 80.3041C147.462 80.605 147.545 80.9425 147.541 81.2846C147.531 81.7268 147.384 82.1548 147.118 82.5076C146.853 82.8605 146.483 83.1202 146.063 83.25V83.2906C146.574 83.4015 147.031 83.6857 147.358 84.0956C147.685 84.5054 147.861 85.0159 147.858 85.5411C147.862 85.9002 147.789 86.2559 147.643 86.5835C147.496 86.9112 147.281 87.2028 147.011 87.4379C146.381 87.9931 145.332 88.2756 143.695 88.2729C143.028 88.2738 142.362 88.232 141.701 88.1478C141.707 84.5652 141.707 82.7739 141.703 79.1912ZM143.316 82.79L144.148 82.7899C145.284 82.7897 145.904 82.2479 145.904 81.4752C145.903 80.6082 145.269 80.2159 144.239 80.217C143.929 80.2065 143.619 80.2295 143.315 80.2854C143.316 81.2873 143.316 81.7882 143.316 82.79V82.79ZM143.314 86.9729C143.598 87.0112 143.885 87.0251 144.172 87.0145C145.215 87.0158 146.153 86.6241 146.154 85.4992C146.155 84.4287 145.244 83.9949 144.121 83.9947L143.316 83.9945C143.316 85.1858 143.315 85.7815 143.314 86.9729V86.9729Z" fill="#49B3F7"/>
<path d="M168.746 79.0195C168.747 79.5709 168.747 79.8466 168.748 80.398C167.364 80.3993 166.672 80.3999 165.288 80.4012C165.291 83.5262 165.291 85.0887 165.286 88.2137L163.661 88.211C163.667 84.5372 163.668 82.7003 163.662 79.0266C165.696 79.0237 166.713 79.0224 168.746 79.0195Z" fill="#49B3F7"/>
</g>
<defs>
<filter id="filter0_d_320_72597" x="0" y="0" width="192" height="158" filterUnits="userSpaceOnUse" color-interpolation-filters="sRGB">
<feFlood flood-opacity="0" result="BackgroundImageFix"/>
<feColorMatrix in="SourceAlpha" type="matrix" values="0 0 0 0 0 0 0 0 0 0 0 0 0 0 0 0 0 0 127 0" result="hardAlpha"/>
<feOffset dy="4"/>
<feGaussianBlur stdDeviation="2"/>
<feComposite in2="hardAlpha" operator="out"/>
<feColorMatrix type="matrix" values="0 0 0 0 0 0 0 0 0 0 0 0 0 0 0 0 0 0 0.25 0"/>
<feBlend mode="normal" in2="BackgroundImageFix" result="effect1_dropShadow_320_72597"/>
<feBlend mode="normal" in="SourceGraphic" in2="effect1_dropShadow_320_72597" result="shape"/>
</filter>
</defs>
</svg>
