<svg width="220" height="181" viewBox="0 0 220 181" fill="none" xmlns="http://www.w3.org/2000/svg">
<g filter="url(#filter0_d_320_78033)">
<path d="M182.875 157.617C173.251 163.326 160.81 160.89 149.517 162.136C139.974 163.189 131.053 166.963 121.918 169.771C112.783 172.579 102.773 174.423 93.6539 171.571C87.3893 169.612 82.1058 165.608 76.2103 162.81C69.0962 159.434 61.1903 157.86 53.7662 155.141C46.3421 152.422 39.0124 148.162 35.5657 141.393C31.421 133.253 33.8031 123.583 32.2364 114.676C30.4683 104.623 23.7447 95.9427 20.9305 86.1041C18.9423 79.153 21.0052 70.9505 23.4078 64.2056C25.9467 57.0785 33.0042 49.0712 39.8048 44.9241C42.0236 43.571 44.2148 42.2156 46.3104 40.6849C47.2285 40.0143 52.0601 37.0806 52.0601 36.0185C57.4847 31.0892 60.7409 24.8033 65.4547 19.3444C70.3458 13.6804 77.5049 10.0107 85.0133 8.21094C91.8121 6.55899 98.7676 5.64559 105.76 5.48644C113.27 5.36888 120.554 6.02821 127.8 3.59331C129.321 3.08211 130.797 2.45648 132.314 1.93247C142.559 -1.60497 156.279 -0.055649 165.856 4.70705C169.51 6.5244 172.568 9.23039 175.515 11.9607C179.171 15.1956 182.366 18.9219 185.011 23.0343C187.431 27.0014 188.197 31.7364 191.28 35.4599C193.351 37.9604 195.388 40.7073 197.441 43.1191C200.612 46.8459 205.496 48.6369 208.512 52.698C211.547 56.7859 212.991 61.7772 213.99 66.6147C215.27 72.8083 215.987 79.1578 215.301 85.4345C214.204 95.4775 208.605 102.944 202.881 111.116C200.974 113.839 199.058 116.657 198.326 119.845C198.032 121.374 197.853 122.923 197.788 124.479C197.435 129.012 196.225 133.188 195.313 137.58C193.712 145.296 190.21 153.266 182.875 157.617Z" fill="#EFF2FD"/>
<path d="M131.242 134.659C93.7969 135.843 56.3522 137.026 18.9075 138.209C12.8408 138.401 7.75328 133.252 7.58731 126.708C6.83459 93.685 6.80843 60.6695 7.50881 27.6614C7.66448 21.117 12.7438 15.9599 18.8108 16.1419C56.2573 17.2653 93.7038 18.3886 131.15 19.5119C134.065 19.6045 136.826 20.8532 138.829 22.9853C140.831 25.1174 141.914 27.9598 141.84 30.8918C141.194 61.6906 141.219 92.4807 141.914 123.262C141.992 126.194 140.914 129.038 138.914 131.174C136.915 133.309 134.157 134.562 131.242 134.659Z" fill="#243976"/>
<path d="M128.189 131.752C90.7429 132.876 53.2964 133.999 15.8499 135.122C9.78279 135.304 4.70321 130.139 4.5474 123.585C3.84599 90.512 3.87219 57.4474 4.62601 24.3914C4.79222 17.8375 9.87993 12.6806 15.9467 12.8724C53.3914 14.0557 90.8361 15.2391 128.281 16.4224C131.198 16.5221 133.958 17.7784 135.957 19.9171C137.956 22.0557 139.033 24.9029 138.952 27.8371C138.256 58.6839 138.232 89.523 138.879 120.355C138.955 123.289 137.874 126.134 135.871 128.27C133.868 130.405 131.107 131.657 128.189 131.752Z" fill="#864FF1"/>
<path d="M64.7812 14.4156L15.9473 12.8724C9.88051 12.6806 4.7928 17.8375 4.62659 24.3914C4.30592 38.2696 4.09706 52.148 4 66.0265C7.75409 34.9521 34.6958 14.7225 64.7812 14.4156Z" fill="#9768F3"/>
<path d="M128.281 16.4227C118.229 16.1051 108.177 15.7874 98.1245 15.4697C107.665 19.4637 115.991 25.9141 122.266 34.1718C142.235 60.7496 110.856 90.7825 87.897 100.664C61.9659 111.824 29.0506 113.647 4.10724 98.4929C4.19673 106.857 4.34362 115.221 4.5479 123.586C4.70371 130.14 9.78329 135.305 15.8504 135.123C53.2969 133.999 90.7434 132.876 128.19 131.752C131.107 131.657 133.869 130.406 135.872 128.27C137.874 126.135 138.956 123.289 138.88 120.355C138.233 89.5072 138.257 58.668 138.953 27.8375C139.034 24.9033 137.957 22.056 135.957 19.9174C133.958 17.7788 131.199 16.5225 128.281 16.4227Z" fill="#602A9F"/>
<path d="M126.172 128.295C90.002 129.312 53.832 130.33 17.6621 131.347C12.6952 131.487 8.54559 127.259 8.4225 121.904C7.87543 95.1808 7.79269 68.4606 8.17428 41.7437C50.3502 42.4602 92.5262 43.1766 134.702 43.893C134.345 68.9218 134.422 93.9449 134.935 118.963C134.997 121.367 134.11 123.698 132.468 125.447C130.826 127.196 128.563 128.22 126.172 128.295Z" fill="white"/>
<path d="M97.9296 37.7357C81.674 37.4123 65.4183 37.0889 49.1627 36.7654C48.5283 36.7365 47.9058 36.5821 47.3308 36.311C46.7558 36.04 46.2396 35.6576 45.8117 35.1857C45.3838 34.7139 45.0526 34.1618 44.8371 33.5612C44.6215 32.9605 44.5258 32.3229 44.5555 31.685C44.5542 31.0464 44.6781 30.4138 44.9201 29.8234C45.1621 29.233 45.5174 28.6964 45.9658 28.2442C46.4143 27.792 46.9469 27.4332 47.5334 27.1882C48.1198 26.9432 48.7485 26.8168 49.3835 26.8164C65.6374 27.2227 81.8912 27.629 98.145 28.0352C99.4076 28.0811 100.601 28.6286 101.462 29.5576C102.324 30.4866 102.785 31.7213 102.743 32.9911C102.728 34.2615 102.213 35.4743 101.311 36.3637C100.409 37.2531 99.193 37.7465 97.9296 37.7357Z" fill="white"/>
<path d="M134.384 28.942C134.367 29.5283 134.176 30.0962 133.838 30.5739C133.499 31.0517 133.028 31.4178 132.482 31.6263C131.937 31.8347 131.343 31.8761 130.774 31.7451C130.206 31.6142 129.688 31.3168 129.288 30.8905C128.887 30.4642 128.621 29.9281 128.523 29.3498C128.425 28.7716 128.499 28.1771 128.737 27.6413C128.975 27.1056 129.365 26.6527 129.858 26.3397C130.351 26.0268 130.926 25.8678 131.509 25.8828C132.293 25.9057 133.037 26.2407 133.576 26.8143C134.115 27.3878 134.406 28.1531 134.384 28.942Z" fill="white"/>
<path d="M124.483 28.6951C124.462 29.2807 124.269 29.847 123.929 30.3227C123.589 30.7983 123.116 31.1621 122.57 31.3681C122.025 31.5742 121.431 31.6133 120.864 31.4806C120.296 31.3479 119.78 31.0493 119.381 30.6224C118.982 30.1955 118.717 29.6594 118.62 29.0815C118.524 28.5037 118.599 27.91 118.837 27.3752C119.075 26.8403 119.465 26.3883 119.958 26.076C120.452 25.7637 121.025 25.6051 121.608 25.6201C122.394 25.6452 123.139 25.9831 123.678 26.5596C124.217 27.1361 124.507 27.9042 124.483 28.6951Z" fill="white"/>
<path d="M114.273 28.4394C114.249 29.0242 114.054 29.5889 113.711 30.0624C113.369 30.5358 112.896 30.8971 112.35 31.1007C111.804 31.3043 111.211 31.3412 110.644 31.2067C110.078 31.0722 109.564 30.7724 109.166 30.3449C108.768 29.9173 108.505 29.3812 108.41 28.8038C108.314 28.2264 108.391 27.6335 108.629 27.0996C108.868 26.5657 109.258 26.1146 109.751 25.803C110.243 25.4914 110.817 25.3331 111.398 25.3481C112.187 25.3754 112.933 25.7163 113.472 26.2958C114.011 26.8754 114.299 27.6463 114.273 28.4394Z" fill="white"/>
<path d="M118.167 109.906L27.7519 111.554C27.4248 90.4342 27.3793 69.3184 27.6154 48.207C57.7558 48.6253 87.8962 49.0436 118.037 49.4619C117.811 69.6151 117.855 89.763 118.167 109.906Z" fill="#FF6551"/>
<path d="M116.71 121.249C87.7051 121.952 58.7001 122.655 29.6951 123.358C29.2318 123.355 28.7886 123.167 28.4629 122.836C28.1372 122.504 27.9557 122.057 27.9582 121.591C27.9342 121.125 28.0948 120.669 28.4049 120.323C28.715 119.977 29.1491 119.769 29.6118 119.744C58.618 119.094 87.6242 118.444 116.63 117.794C117.083 117.787 117.519 117.961 117.844 118.277C118.169 118.594 118.356 119.027 118.364 119.482C118.377 119.937 118.211 120.378 117.901 120.71C117.59 121.041 117.162 121.235 116.71 121.249Z" fill="#BFBFBF"/>
<path d="M29.6113 119.744C29.1535 119.782 28.7272 119.994 28.4198 120.337C28.1124 120.68 27.9471 121.129 27.9578 121.591C27.9684 122.052 28.1542 122.493 28.4771 122.821C28.8 123.15 29.2356 123.342 29.6947 123.358C40.8053 123.089 51.916 122.819 63.0266 122.55C62.9925 121.129 62.9762 120.418 62.9447 118.997L29.6113 119.744Z" fill="#2435A1"/>
<path d="M72.5824 97.9575C68.1122 97.9371 63.8325 96.1351 60.6813 92.9466C58.9443 91.2355 57.5634 89.1938 56.6189 86.9406C55.6744 84.6874 55.1852 82.2677 55.1799 79.8225C55.1745 77.3773 55.6531 74.9554 56.5878 72.6981C57.5225 70.4407 58.8945 68.393 60.624 66.6742C62.1862 65.0794 64.0465 63.811 66.0979 62.942C68.1493 62.0729 70.3514 61.6204 72.5773 61.6104C72.616 61.6104 72.6544 61.6104 72.6931 61.6111C82.1159 61.6773 90.0941 69.9828 90.115 79.7462C90.1359 89.5096 82.1937 97.8486 72.7712 97.956C72.7086 97.9568 72.6451 97.9575 72.5824 97.9575ZM72.5778 63.971C70.6591 63.982 68.7616 64.3743 66.9943 65.1254C65.227 65.8765 63.6249 66.9715 62.2799 68.3476C60.7703 69.8464 59.5725 71.6326 58.7565 73.6018C57.9405 75.5711 57.5227 77.6841 57.5273 79.8174C57.532 81.9508 57.959 84.0619 58.7836 86.0276C59.6081 87.9932 60.8137 89.7741 62.3299 91.2662C65.043 94.0176 68.7301 95.5749 72.5832 95.5969C72.637 95.5969 72.6908 95.5961 72.7445 95.5961C80.9062 95.5027 87.7857 88.2463 87.7675 79.7508C87.7493 71.2554 80.8384 64.0294 72.6768 63.971H72.5778Z" fill="white"/>
<path d="M69.0574 73.7314C69.0525 78.9971 69.0588 81.63 69.0893 86.8956C73.715 84.4883 76.0298 83.2917 80.6628 80.9129C76.0154 78.0577 73.6943 76.6213 69.0574 73.7314Z" fill="white"/>
<path d="M67.555 120.666C67.5402 121.475 67.2892 122.262 66.8331 122.93C66.377 123.597 65.736 124.114 64.9897 124.418C64.2434 124.722 63.4248 124.798 62.6357 124.637C61.8466 124.477 61.1218 124.087 60.5514 123.515C59.9811 122.944 59.5904 122.217 59.4279 121.424C59.2653 120.631 59.3382 119.807 59.6374 119.056C59.9365 118.304 60.4488 117.657 61.1105 117.196C61.7722 116.735 62.5541 116.48 63.359 116.462C64.4692 116.462 65.5343 116.904 66.3208 117.692C67.1073 118.48 67.5511 119.549 67.555 120.666Z" fill="#FF6551"/>
<path d="M65.464 120.716C65.4568 121.113 65.3338 121.498 65.1103 121.825C64.8868 122.152 64.5728 122.406 64.2071 122.555C63.8414 122.703 63.4403 122.741 63.0536 122.662C62.667 122.584 62.3117 122.393 62.0322 122.113C61.7526 121.833 61.5611 121.477 61.4813 121.088C61.4015 120.7 61.437 120.296 61.5835 119.928C61.7299 119.559 61.9808 119.242 62.3049 119.016C62.629 118.79 63.012 118.665 63.4064 118.656C63.9508 118.655 64.4731 118.872 64.8589 119.258C65.2446 119.644 65.4623 120.168 65.464 120.716Z" fill="white"/>
<g style="mix-blend-mode:multiply" opacity="0.35">
<path d="M98.0264 49.3276C96.8777 49.3266 95.7401 49.5537 94.679 49.996C93.6178 50.4383 92.654 51.087 91.8429 51.905C91.0317 52.7229 90.3892 53.6939 89.9523 54.7622C89.5153 55.8305 89.2925 56.9751 89.2967 58.1302C89.1283 84.0822 89.4164 110.025 90.161 135.957C103.855 135.525 117.548 135.092 131.242 134.659C134.157 134.562 136.915 133.309 138.915 131.173C140.914 129.038 141.992 126.194 141.914 123.262C141.361 98.8139 141.218 74.3692 141.484 49.9274C126.998 49.7275 112.512 49.5276 98.0264 49.3276Z" fill="#3F4D88"/>
</g>
<path d="M206.968 151.887C173.035 151.351 139.103 150.815 105.171 150.279C102.881 150.241 100.7 149.29 99.1058 147.637C97.5118 145.984 96.6347 143.762 96.6671 141.459C97.0112 111.943 97.0212 82.4292 96.697 52.917C96.6662 50.6144 97.5447 48.3934 99.1399 46.7411C100.735 45.0889 102.917 44.1402 105.206 44.1031C139.139 43.5902 173.072 43.0773 207.005 42.5645C208.158 42.5668 209.299 42.7978 210.363 43.2443C211.428 43.6908 212.394 44.344 213.207 45.1665C214.02 45.9889 214.663 46.9646 215.101 48.0375C215.538 49.1104 215.761 50.2596 215.756 51.4192C216.091 81.9612 216.081 112.501 215.725 143.039C215.729 144.198 215.505 145.347 215.067 146.42C214.629 147.492 213.985 148.468 213.171 149.29C212.358 150.111 211.391 150.764 210.327 151.21C209.262 151.656 208.121 151.886 206.968 151.887Z" fill="#243976"/>
<path d="M204.679 149.437C170.746 148.924 136.814 148.411 102.881 147.898C100.592 147.862 98.4109 146.915 96.8157 145.263C95.2205 143.612 94.3415 141.392 94.3715 139.09C94.6955 109.594 94.6856 80.0999 94.3416 50.608C94.3101 48.3061 95.1875 46.0856 96.7816 44.4334C98.3757 42.7811 100.556 41.832 102.845 41.7942C136.778 41.2581 170.71 40.7221 204.642 40.186C205.795 40.1872 206.936 40.417 208.001 40.8622C209.065 41.3075 210.031 41.9595 210.845 42.7808C211.658 43.6022 212.303 44.5769 212.741 45.649C213.179 46.7211 213.403 47.8696 213.4 49.0288C213.755 79.5506 213.766 110.07 213.43 140.588C213.435 141.747 213.212 142.896 212.774 143.968C212.336 145.041 211.693 146.016 210.88 146.838C210.067 147.66 209.101 148.312 208.037 148.758C206.973 149.204 205.832 149.435 204.679 149.437Z" fill="#49B3F7"/>
<path d="M204.641 40.186L182.688 40.5329C193.664 43.8205 201.537 53.6568 203.339 64.1903C207.736 89.8881 158.043 119.839 137.3 124.942C123.551 128.324 108.107 130.403 94.5179 124.891C94.4706 130.571 94.4411 133.411 94.3703 139.09C94.3403 141.392 95.2193 143.612 96.8145 145.263C98.4097 146.915 100.591 147.862 102.88 147.898C136.813 148.411 170.745 148.924 204.678 149.437C205.831 149.435 206.972 149.204 208.036 148.758C209.1 148.312 210.066 147.66 210.879 146.838C211.692 146.016 212.335 145.041 212.773 143.968C213.211 142.896 213.434 141.747 213.429 140.588C213.765 110.066 213.754 79.5463 213.398 49.0289C213.402 47.8697 213.178 46.7211 212.74 45.649C212.301 44.5769 211.657 43.6022 210.844 42.7809C210.03 41.9595 209.064 41.3075 207.999 40.8623C206.935 40.417 205.794 40.1872 204.641 40.186Z" fill="#378FDD"/>
<path d="M170.734 40.7212C148.104 41.0786 125.475 41.4361 102.845 41.7936C100.556 41.8314 98.3757 42.7806 96.7816 44.4328C95.1876 46.085 94.3101 48.3055 94.3416 50.6074C94.5063 64.5691 94.605 78.5308 94.6376 92.4923C109.194 64.0448 141.227 48.2312 170.734 40.7212Z" fill="#6CC1F9"/>
<path d="M203.213 146.591C170.284 146.12 137.355 145.648 104.427 145.177C102.552 145.148 100.765 144.373 99.4586 143.021C98.1519 141.669 97.4319 139.851 97.4564 137.966C97.7242 113.049 97.7571 88.133 97.5551 63.2181C135.195 62.8578 172.835 62.4976 210.475 62.1372C210.683 87.8757 210.649 113.613 210.373 139.348C210.377 140.296 210.194 141.236 209.836 142.114C209.478 142.992 208.952 143.79 208.287 144.462C207.622 145.135 206.831 145.669 205.961 146.035C205.09 146.4 204.156 146.589 203.213 146.591Z" fill="white"/>
<path d="M208.239 49.8197C208.23 50.295 208.082 50.757 207.813 51.1482C207.545 51.5394 207.168 51.8425 206.729 52.0195C206.29 52.1966 205.81 52.2398 205.347 52.1439C204.884 52.0479 204.459 51.817 204.126 51.4799C203.793 51.1429 203.565 50.7146 203.473 50.2485C203.38 49.7824 203.426 49.2992 203.604 48.8591C203.783 48.419 204.086 48.0415 204.477 47.7738C204.867 47.506 205.328 47.3599 205.8 47.3535C206.122 47.3544 206.439 47.4189 206.736 47.5433C207.032 47.6678 207.301 47.8497 207.528 48.0787C207.754 48.3077 207.933 48.5793 208.055 48.8781C208.177 49.1768 208.24 49.4968 208.239 49.8197Z" fill="white"/>
<path d="M200.17 49.9254C200.162 50.4008 200.015 50.8634 199.747 51.2553C199.479 51.6472 199.103 51.9511 198.664 52.129C198.226 52.3069 197.745 52.3509 197.281 52.2556C196.818 52.1602 196.393 51.9298 196.059 51.5929C195.725 51.2561 195.498 50.8278 195.405 50.3616C195.311 49.8954 195.357 49.4119 195.535 48.9716C195.714 48.5312 196.017 48.1534 196.408 47.8855C196.798 47.6175 197.259 47.4712 197.732 47.4648C198.052 47.4654 198.37 47.5294 198.666 47.6533C198.962 47.7773 199.231 47.9587 199.458 48.1872C199.684 48.4157 199.864 48.6868 199.986 48.985C200.108 49.2833 200.171 49.6028 200.17 49.9254Z" fill="white"/>
<path d="M191.851 50.0338C191.845 50.5095 191.698 50.9726 191.431 51.3652C191.164 51.7578 190.788 52.0626 190.349 52.2413C189.911 52.4201 189.43 52.4649 188.966 52.3702C188.503 52.2755 188.077 52.0455 187.743 51.7089C187.409 51.3723 187.18 50.9441 187.087 50.4778C186.993 50.0115 187.038 49.5277 187.216 49.0871C187.395 48.6464 187.698 48.2683 188.089 48.0001C188.479 47.7319 188.94 47.5855 189.413 47.5791C189.734 47.5792 190.051 47.6428 190.347 47.7662C190.643 47.8897 190.912 48.0705 191.138 48.2985C191.364 48.5264 191.544 48.797 191.666 49.0948C191.789 49.3925 191.852 49.7116 191.851 50.0338Z" fill="white"/>
<path d="M176.46 58.1416L130.277 58.6406C129.254 58.6465 128.27 58.2437 127.542 57.5208C126.814 56.7979 126.401 55.8139 126.394 54.7851C126.377 53.7563 126.766 52.7628 127.477 52.0227C128.188 51.2826 129.162 50.8565 130.185 50.838L176.367 50.2349C176.878 50.2345 177.383 50.3353 177.855 50.5315C178.327 50.7277 178.755 51.0155 179.116 51.3784C179.477 51.7412 179.764 52.1721 179.959 52.6464C180.155 53.1207 180.255 53.629 180.255 54.1424C180.267 54.6556 180.179 55.1662 179.995 55.645C179.81 56.1238 179.534 56.5614 179.182 56.9328C178.829 57.3042 178.408 57.6022 177.941 57.8096C177.474 58.017 176.971 58.1298 176.46 58.1416Z" fill="white"/>
<path d="M114.786 87.1378C113.863 87.1343 112.978 86.7636 112.325 86.1065C111.673 85.4494 111.305 84.5594 111.303 83.6307C111.292 80.466 111.284 78.8844 111.266 75.7197C111.259 74.7894 111.62 73.8945 112.268 73.2311C112.917 72.5677 113.801 72.1899 114.726 72.1807L122.553 72.127H122.577C123.032 72.126 123.482 72.2156 123.902 72.3904C124.322 72.5653 124.704 72.822 125.025 73.1458C125.351 73.4717 125.61 73.8592 125.788 74.286C125.965 74.7129 126.057 75.1707 126.058 75.6333C126.077 78.8105 126.084 80.3998 126.095 83.577C126.099 84.0421 126.01 84.5034 125.835 84.9339C125.66 85.3644 125.401 85.7556 125.074 86.0847C124.754 86.4111 124.372 86.6703 123.952 86.8473C123.531 87.0243 123.08 87.1157 122.624 87.116L114.796 87.1378H114.786ZM122.577 73.261H122.561L114.733 73.3139C114.107 73.3211 113.509 73.5777 113.07 74.0275C112.632 74.4773 112.388 75.0836 112.393 75.7135C112.412 78.8782 112.419 80.4613 112.43 83.626C112.431 84.2548 112.679 84.8578 113.121 85.3033C113.562 85.7488 114.161 86.0006 114.786 86.0038L114.793 86.003L122.621 85.9812C122.929 85.9812 123.233 85.9196 123.517 85.8002C123.801 85.6808 124.059 85.5058 124.275 85.2854C124.497 85.0617 124.672 84.7958 124.791 84.5034C124.91 84.2109 124.97 83.8976 124.968 83.5816C124.957 80.4045 124.949 78.8167 124.931 75.6396C124.93 75.3253 124.868 75.0143 124.747 74.7243C124.627 74.4344 124.45 74.1712 124.229 73.9498C124.012 73.7311 123.755 73.5576 123.471 73.4393C123.188 73.3211 122.884 73.2605 122.577 73.261Z" fill="#FF6551"/>
<path d="M138.53 87.0716C137.604 87.0653 136.718 86.6908 136.065 86.03C135.413 85.3692 135.046 84.4756 135.046 83.5442C135.035 80.3578 135.028 78.7653 135.009 75.5788C135 74.6459 135.359 73.7473 136.008 73.0801C136.656 72.413 137.542 72.0316 138.469 72.0195L146.297 71.9658C147.222 71.9751 148.107 72.3428 148.769 72.9924C149.429 73.6557 149.8 74.5546 149.802 75.4924C149.821 78.6914 149.828 80.2916 149.84 83.4905C149.846 84.4285 149.484 85.3309 148.831 86.0007C148.511 86.3322 148.128 86.5959 147.705 86.7762C147.282 86.9566 146.827 87.0499 146.368 87.0506L138.54 87.0716H138.53ZM146.32 73.0998H146.304L138.477 73.1536C137.848 73.1633 137.249 73.4233 136.81 73.8768C136.371 74.3302 136.129 74.94 136.137 75.5726C136.156 78.7591 136.163 80.3531 136.174 83.5396C136.172 84.1711 136.419 84.7777 136.861 85.227C137.302 85.6762 137.902 85.9317 138.53 85.9376L138.537 85.9368L146.365 85.9158C146.674 85.9154 146.981 85.8525 147.266 85.7308C147.551 85.6092 147.809 85.4312 148.025 85.2075C148.47 84.7505 148.717 84.1349 148.712 83.4952C148.7 80.2963 148.693 78.6976 148.674 75.4986C148.673 74.8591 148.42 74.2459 147.971 73.7933C147.755 73.5734 147.498 73.3989 147.215 73.2798C146.931 73.1608 146.627 73.0996 146.32 73.0998Z" fill="#FF6551"/>
<path d="M162.275 87.0072C161.346 86.9984 160.458 86.6204 159.805 85.9556C159.152 85.2908 158.787 84.3932 158.79 83.4588C158.779 80.2505 158.771 78.6472 158.753 75.4389C158.741 74.5033 159.099 73.6012 159.747 72.9302C160.396 72.2593 161.282 71.8742 162.213 71.8594L170.04 71.8057H170.064C170.52 71.8051 170.972 71.8963 171.392 72.0738C171.813 72.2513 172.195 72.5116 172.514 72.8393C173.173 73.5079 173.544 74.4109 173.545 75.3525C173.564 78.5732 173.572 80.1844 173.583 83.4051C173.59 84.3467 173.228 85.2534 172.575 85.9284C172.256 86.2619 171.874 86.5273 171.45 86.7089C171.027 86.8905 170.572 86.9845 170.112 86.9854L162.284 87.0072L162.275 87.0072ZM170.064 72.9397H170.048L162.22 72.9934C161.589 73.0059 160.988 73.2696 160.549 73.7269C160.111 74.1841 159.87 74.7975 159.88 75.4327C159.899 78.641 159.907 80.2459 159.918 83.4541C159.914 84.0886 160.159 84.6989 160.601 85.152C161.043 85.6051 161.644 85.864 162.275 85.8724H162.281L170.108 85.8506C170.418 85.85 170.725 85.7865 171.01 85.664C171.295 85.5415 171.552 85.3625 171.767 85.1377C172.214 84.6751 172.461 84.0543 172.455 83.4097C172.444 80.189 172.436 78.5794 172.418 75.3587C172.417 74.7139 172.164 74.0953 171.713 73.637C171.498 73.4162 171.241 73.2408 170.958 73.1211C170.675 73.0013 170.371 72.9397 170.064 72.9397Z" fill="#FF6551"/>
<path d="M186.018 86.9418C185.086 86.9301 184.197 86.5483 183.544 85.8797C182.892 85.2111 182.529 84.31 182.534 83.3732C182.523 80.1431 182.515 78.5289 182.496 75.2988C182.482 74.3604 182.838 73.4545 183.487 72.7795C184.135 72.1045 185.023 71.7155 185.956 71.6975L193.784 71.6453L193.807 71.6445C194.264 71.6444 194.717 71.7365 195.138 71.9154C195.559 72.0943 195.941 72.3563 196.259 72.6859C196.918 73.36 197.288 74.2671 197.289 75.2124C197.308 78.4549 197.315 80.0769 197.327 83.3195C197.331 83.7965 197.241 84.2697 197.062 84.7115C196.883 85.1533 196.619 85.555 196.284 85.8934C195.967 86.2176 195.589 86.4752 195.172 86.6514C194.755 86.8276 194.307 86.9189 193.855 86.92L186.028 86.9418L186.018 86.9418ZM193.807 72.7786H193.791L185.964 72.8315C185.33 72.8472 184.727 73.1149 184.289 73.5762C183.85 74.0374 183.611 74.6546 183.624 75.2926C183.643 78.5226 183.65 80.1385 183.662 83.3685C183.655 84.0055 183.899 84.6195 184.34 85.0765C184.781 85.5335 185.385 85.7964 186.018 85.8078L186.025 85.807L193.853 85.7852C194.157 85.7845 194.457 85.7229 194.738 85.6041C195.018 85.4853 195.272 85.3117 195.484 85.0933C195.714 84.8606 195.896 84.5845 196.018 84.2808C196.141 83.9771 196.202 83.6519 196.199 83.3241C196.188 80.0816 196.18 78.4611 196.161 75.2186C196.161 74.5689 195.908 73.9452 195.455 73.4814C195.241 73.2592 194.985 73.0825 194.702 72.9618C194.419 72.841 194.114 72.7787 193.807 72.7786Z" fill="#FF6551"/>
<path d="M118.415 85.0646L117.498 84.1438C114.301 80.9301 112.7 79.3275 109.496 76.1278L111.085 74.5182C113.971 77.3988 115.556 78.9866 118.176 81.6181C121.314 77.4338 123.12 75.0148 126.475 70.5005L128.282 71.8579C124.656 76.7372 122.838 79.1711 119.195 84.0247L118.415 85.0646Z" fill="#2435A1"/>
<path d="M111.867 108.799L111.858 111.068L196.755 111.411L196.764 109.142L111.867 108.799Z" fill="#BFBFBF"/>
<path d="M111.823 117.58L111.808 119.849L196.705 120.409L196.72 118.141L111.823 117.58Z" fill="#BFBFBF"/>
<path d="M111.757 126.362L111.737 128.63L196.631 129.406L196.652 127.137L111.757 126.362Z" fill="#BFBFBF"/>
<path d="M111.67 135.143L111.644 137.412L196.536 138.4L196.562 136.132L111.67 135.143Z" fill="#BFBFBF"/>
<path d="M116.453 98.6795C116.099 99.8555 115.922 100.443 115.567 101.619C114.794 101.617 114.408 101.617 113.635 101.615C114.956 97.4701 115.613 95.3954 116.922 91.2421C117.878 91.2407 118.355 91.2401 119.311 91.2388C120.649 95.3913 121.315 97.4696 122.641 101.63C121.832 101.629 121.427 101.628 120.618 101.627C120.248 100.449 120.064 99.8597 119.693 98.682C118.397 98.681 117.749 98.6805 116.453 98.6795ZM119.39 97.2487C119.068 96.2253 118.906 95.7137 118.583 94.6908C118.385 94.0591 118.218 93.3508 118.065 92.7498L118.035 92.7499C117.883 93.3511 117.716 94.0745 117.549 94.6912C117.233 95.7141 117.075 96.2254 116.758 97.2477L119.39 97.2487Z" fill="#49B3F7"/>
<path d="M145.235 91.2021C145.236 91.8293 145.236 92.1429 145.237 92.77C143.448 92.7717 142.553 92.7725 140.764 92.7742C140.765 93.6735 140.765 94.1231 140.765 95.0224C141.185 94.9719 141.606 94.946 142.028 94.9447C143.009 94.9242 143.974 95.1995 144.797 95.7352C145.198 96.0192 145.523 96.3995 145.74 96.8415C145.958 97.2836 146.063 97.7734 146.044 98.2664C146.061 98.6986 145.987 99.1295 145.827 99.5309C145.667 99.9322 145.424 100.295 145.114 100.595C143.993 101.447 142.604 101.864 141.202 101.768C140.434 101.77 139.667 101.722 138.905 101.625C138.912 97.4594 138.912 95.3766 138.906 91.2109L145.235 91.2021ZM140.763 100.263C141.091 100.311 141.421 100.333 141.752 100.327C142.412 100.353 143.056 100.12 143.548 99.6771C143.722 99.4962 143.859 99.2824 143.95 99.048C144.042 98.8137 144.086 98.5634 144.081 98.3117C144.092 98.0357 144.035 97.7614 143.915 97.5126C143.796 97.2637 143.618 97.048 143.397 96.884C142.896 96.5405 142.3 96.3665 141.694 96.3872C141.405 96.3872 141.07 96.4179 140.766 96.4486C140.765 97.9745 140.765 98.7375 140.763 100.263Z" fill="#49B3F7"/>
<path d="M162.657 91.3336C163.561 91.1713 164.478 91.0916 165.395 91.0956C166.414 91.0197 167.432 91.2526 168.317 91.7641C168.648 91.9764 168.92 92.27 169.106 92.6171C169.293 92.9642 169.389 93.3534 169.384 93.748C169.373 94.258 169.203 94.7516 168.897 95.1585C168.592 95.5655 168.166 95.8651 167.681 96.0147V96.0616C168.27 96.1894 168.797 96.5173 169.173 96.99C169.55 97.4627 169.753 98.0514 169.749 98.6571C169.755 99.0713 169.67 99.4816 169.502 99.8594C169.333 100.237 169.084 100.574 168.773 100.845C168.048 101.485 166.84 101.811 164.953 101.808C164.185 101.809 163.418 101.761 162.656 101.664C162.663 97.5316 162.663 95.4656 162.657 91.3336ZM164.517 95.4842L165.475 95.4841C166.784 95.4839 167.499 94.8589 167.498 93.9678C167.498 92.9678 166.767 92.5154 165.58 92.5167C165.223 92.5046 164.866 92.5311 164.515 92.5956C164.516 93.7511 164.516 94.3288 164.517 95.4842V95.4842ZM164.514 100.308C164.842 100.353 165.173 100.369 165.503 100.357C166.705 100.358 167.786 99.9062 167.786 98.6088C167.787 97.3742 166.738 96.8739 165.444 96.8736L164.516 96.8733C164.516 98.2474 164.516 98.9344 164.514 100.308V100.308Z" fill="#49B3F7"/>
<path d="M193.817 91.1353C193.818 91.7711 193.818 92.0891 193.819 92.725C192.224 92.7265 191.427 92.7273 189.833 92.7288C189.836 96.3329 189.836 98.135 189.83 101.739L187.958 101.736C187.965 97.499 187.965 95.3805 187.96 91.1434C190.302 91.1401 191.474 91.1385 193.817 91.1353Z" fill="#49B3F7"/>
</g>
<defs>
<filter id="filter0_d_320_78033" x="0" y="0" width="220" height="181" filterUnits="userSpaceOnUse" color-interpolation-filters="sRGB">
<feFlood flood-opacity="0" result="BackgroundImageFix"/>
<feColorMatrix in="SourceAlpha" type="matrix" values="0 0 0 0 0 0 0 0 0 0 0 0 0 0 0 0 0 0 127 0" result="hardAlpha"/>
<feOffset dy="4"/>
<feGaussianBlur stdDeviation="2"/>
<feComposite in2="hardAlpha" operator="out"/>
<feColorMatrix type="matrix" values="0 0 0 0 0 0 0 0 0 0 0 0 0 0 0 0 0 0 0.25 0"/>
<feBlend mode="normal" in2="BackgroundImageFix" result="effect1_dropShadow_320_78033"/>
<feBlend mode="normal" in="SourceGraphic" in2="effect1_dropShadow_320_78033" result="shape"/>
</filter>
</defs>
</svg>
