<svg width="178" height="158" viewBox="0 0 178 158" fill="none" xmlns="http://www.w3.org/2000/svg">
<g filter="url(#filter0_d_320_72654)">
<path d="M145.563 136.662C137.192 141.612 126.37 139.5 116.546 140.58C108.245 141.493 100.485 144.765 92.5389 147.2C84.593 149.635 75.8861 151.234 67.9534 148.761C62.5041 147.063 57.9082 143.59 52.78 141.165C46.5917 138.237 39.7148 136.873 33.2569 134.515C26.799 132.158 20.4232 128.464 17.4251 122.595C13.8198 115.537 15.8919 107.153 14.5291 99.4299C12.9911 90.7136 7.14253 83.1873 4.69459 74.6567C2.9651 68.6298 4.75956 61.5177 6.84951 55.6696C9.05792 49.49 15.1969 42.5473 21.1125 38.9515C23.0425 37.7783 24.9486 36.6031 26.7714 35.276C27.57 34.6945 31.7728 32.1508 31.7728 31.2299C36.4915 26.956 39.3238 21.5057 43.4242 16.7726C47.6787 11.8617 53.9061 8.67983 60.4373 7.11931C66.3513 5.68699 72.4016 4.89502 78.4842 4.75703C85.0169 4.6551 91.3524 5.22677 97.6556 3.11559C98.9789 2.67235 100.262 2.1299 101.582 1.67555C110.494 -1.39159 122.428 -0.0482506 130.759 4.08126C133.937 5.65699 136.597 8.00323 139.161 10.3705C142.341 13.1754 145.12 16.4063 147.421 19.972C149.526 23.4116 150.193 27.5171 152.874 30.7456C154.675 32.9137 156.448 35.2953 158.233 37.3865C160.991 40.6179 165.24 42.1708 167.863 45.6919C170.503 49.2363 171.759 53.564 172.629 57.7584C173.742 63.1285 174.365 68.6339 173.769 74.0762C172.815 82.7839 167.944 89.2579 162.965 96.3435C161.307 98.7041 159.639 101.147 159.003 103.912C158.748 105.238 158.591 106.581 158.535 107.929C158.228 111.86 157.175 115.481 156.382 119.289C154.99 125.979 151.943 132.89 145.563 136.662Z" fill="#EFF2FD"/>
<path d="M43.5213 59.2592L51.2781 62.9411L126.663 74.8349L137.473 50.7173C128.621 54.2822 105.499 55.6131 85.5526 56.5515C63.939 57.5683 41.2044 57.3639 41.2044 57.3639L43.5213 59.2592Z" fill="#B57D92"/>
<path d="M124.268 8.03343L123.81 11.5205L117.612 58.6741L111.976 101.563L54.0833 101.58L52.8692 66.3924L52.861 66.1084L50.5776 0L124.268 8.03343Z" fill="#FFD7BD"/>
<path d="M123.821 11.4326L123.812 11.5204L117.613 58.674L52.8711 66.3924L51.9501 66.5022L52.8628 66.1083L66.0492 60.4155L65.1633 59.9435L62.8413 17.1994L123.821 11.4326Z" fill="#ECB891"/>
<path d="M66.0494 19.2831L69.1834 110.151L127.08 110.134L136.974 11.8799L66.0494 19.2831Z" fill="#FFEBDD"/>
<path d="M126.394 22.1273L74.3289 26.7633C74.0491 26.7881 73.7896 26.9203 73.6045 27.1321C73.4193 27.344 73.3229 27.6192 73.3351 27.9006C73.3474 28.182 73.4675 28.4477 73.6703 28.6426C73.8732 28.8374 74.1432 28.9463 74.4242 28.9466C74.4566 28.9466 74.4891 28.9455 74.522 28.9425L126.587 24.3065C126.73 24.2938 126.869 24.2531 126.996 24.1866C127.123 24.1201 127.236 24.0292 127.328 23.919C127.419 23.8088 127.489 23.6816 127.532 23.5445C127.575 23.4075 127.59 23.2633 127.578 23.1202C127.565 22.9771 127.524 22.8379 127.458 22.7106C127.392 22.5833 127.301 22.4703 127.191 22.3781C127.081 22.2859 126.954 22.2163 126.817 22.1733C126.681 22.1302 126.537 22.1146 126.394 22.1273H126.394Z" fill="#F4C6B1"/>
<path d="M125.514 37.9891L73.3961 41.9917C73.1148 42.0134 72.8529 42.1433 72.6652 42.3544C72.4775 42.5654 72.3786 42.8411 72.3892 43.1236C72.3998 43.4061 72.5192 43.6735 72.7222 43.8698C72.9253 44.066 73.1962 44.1759 73.4783 44.1762C73.5063 44.1762 73.5345 44.1751 73.5628 44.1732L125.68 40.1705C125.823 40.1595 125.963 40.1205 126.09 40.0555C126.218 39.9906 126.332 39.901 126.425 39.792C126.519 39.6829 126.59 39.5565 126.634 39.42C126.679 39.2834 126.696 39.1394 126.685 38.9962C126.674 38.853 126.635 38.7133 126.57 38.5852C126.506 38.457 126.416 38.3429 126.307 38.2494C126.199 38.1559 126.073 38.0848 125.936 38.0401C125.8 37.9954 125.656 37.9781 125.514 37.989L125.514 37.9891Z" fill="#F4C6B1"/>
<path d="M100.548 33.8096L125.668 31.5729C125.811 31.5604 125.95 31.5199 126.078 31.4535C126.205 31.3871 126.318 31.2962 126.41 31.1859C126.502 31.0757 126.572 30.9484 126.615 30.8112C126.658 30.6739 126.674 30.5296 126.661 30.3863C126.648 30.243 126.608 30.1036 126.541 29.9762C126.475 29.8487 126.384 29.7356 126.274 29.6434C126.163 29.5512 126.036 29.4817 125.899 29.4389C125.762 29.396 125.618 29.3806 125.475 29.3936L100.355 31.6304C100.075 31.6553 99.8158 31.7874 99.6307 31.9993C99.4456 32.2111 99.3491 32.4864 99.3614 32.7677C99.3737 33.0491 99.4937 33.3148 99.6966 33.5097C99.8994 33.7045 100.169 33.8134 100.45 33.8138C100.483 33.8138 100.515 33.8126 100.548 33.8096Z" fill="#F4C6B1"/>
<path d="M73.5044 36.213C73.5367 36.213 73.5694 36.2119 73.6023 36.2088L95.8874 34.2245C96.0301 34.2118 96.169 34.171 96.296 34.1045C96.423 34.038 96.5358 33.9471 96.6277 33.8369C96.7197 33.7268 96.7891 33.5995 96.8321 33.4624C96.875 33.3254 96.8905 33.1812 96.8778 33.0381C96.8652 32.895 96.8245 32.7558 96.7581 32.6285C96.6918 32.5012 96.6011 32.3882 96.4912 32.296C96.3813 32.2038 96.2543 32.1342 96.1176 32.0912C95.9809 32.0482 95.837 32.0326 95.6943 32.0453L73.4092 34.0297C73.1293 34.0545 72.8698 34.1867 72.6847 34.3985C72.4995 34.6104 72.4031 34.8856 72.4153 35.167C72.4276 35.4484 72.5477 35.7141 72.7506 35.909C72.9534 36.1038 73.2235 36.2127 73.5044 36.213H73.5044Z" fill="#F4C6B1"/>
<path d="M125.481 45.5783L90.5021 48.443C90.2214 48.466 89.9604 48.5968 89.7737 48.8082C89.587 49.0196 89.4891 49.2952 89.5005 49.5772C89.5118 49.8593 89.6315 50.1261 89.8345 50.3218C90.0375 50.5174 90.3081 50.6269 90.5897 50.6271C90.6196 50.6271 90.6496 50.626 90.6799 50.6237L125.659 47.7591C125.947 47.7355 126.215 47.5979 126.402 47.3767C126.589 47.1555 126.681 46.8688 126.658 46.5796C126.634 46.2904 126.497 46.0225 126.276 45.8347C126.056 45.6469 125.77 45.5547 125.481 45.5783Z" fill="#F4C6B1"/>
<path d="M86.0475 49.09L73.4091 50.2154C73.1292 50.2403 72.8697 50.3725 72.6846 50.5843C72.4995 50.7962 72.4031 51.0715 72.4154 51.3528C72.4276 51.6342 72.5477 51.8999 72.7506 52.0948C72.9534 52.2896 73.2235 52.3985 73.5044 52.3988C73.5367 52.3988 73.5694 52.3977 73.6023 52.3946L86.2407 51.2692C86.5274 51.2415 86.7915 51.1012 86.9754 50.8791C87.1594 50.657 87.2483 50.3711 87.2228 50.0835C87.1973 49.796 87.0595 49.5302 86.8393 49.3441C86.6192 49.158 86.3346 49.0667 86.0475 49.09Z" fill="#F4C6B1"/>
<path d="M137.471 50.7178L134.726 78.9355L131.08 116.386L45.8804 116.64L45.4988 111.818L41.2029 57.3623C96.9435 70.2492 137.471 50.7178 137.471 50.7178Z" fill="#FFC652"/>
<path d="M136.47 61.0156L131.08 116.386L45.8807 116.64L44.0249 93.1978C44.0249 93.1978 117.848 99.5834 136.47 61.0156Z" fill="#F7A845"/>
<path d="M53.8519 79.3295C53.729 79.3295 53.6085 79.2949 53.5042 79.2296C53.3999 79.1644 53.3159 79.0712 53.2619 78.9605C53.2078 78.8498 53.1857 78.7262 53.1982 78.6036C53.2107 78.481 53.2573 78.3644 53.3326 78.2669C54.3624 76.9372 55.2905 75.5313 56.1089 74.0613C55.3463 74.1247 54.5794 74.0114 53.8674 73.7302C53.1555 73.449 52.5176 73.0074 52.0031 72.4396C51.3987 71.73 51.035 70.8463 50.9644 69.916C50.8938 68.9857 51.12 68.057 51.6104 67.264C52.0822 66.5989 52.696 66.0476 53.407 65.65C55.0734 64.6077 57.0544 64.1911 58.9981 64.4743C59.985 64.629 60.924 65.0062 61.7443 65.5775C62.5646 66.1489 63.2448 66.8994 63.7337 67.7726C65.2694 70.6961 63.9912 74.2088 61.9344 76.1676C60.0539 77.9582 57.3538 79.0208 53.9101 79.3269C53.8904 79.3287 53.8708 79.3295 53.8519 79.3295ZM59.5842 66.8078C59.6474 66.8077 59.7102 66.8169 59.7707 66.8352C59.8535 66.8596 59.9306 66.9002 59.9977 66.9546C60.0648 67.0089 60.1206 67.076 60.1617 67.1521C60.2029 67.2281 60.2287 67.3115 60.2377 67.3975C60.2466 67.4835 60.2385 67.5705 60.2139 67.6534C59.1424 71.2902 57.4812 74.7256 55.297 77.8219C57.4246 77.5444 59.4208 76.6356 61.0292 75.2122C62.9773 73.3564 63.6404 70.4217 62.5709 68.3866C62.1784 67.6924 61.6338 67.0966 60.9782 66.6441C60.3225 66.1916 59.5729 65.8943 58.7859 65.7744C57.1494 65.5416 55.4835 65.8974 54.0838 66.7786C53.5397 67.0784 53.068 67.4945 52.7021 67.9973C52.3725 68.5503 52.2237 69.1929 52.2766 69.8349C52.3296 70.477 52.5815 71.0864 52.9972 71.5777C53.4506 72.0668 54.027 72.4245 54.6659 72.6133C55.3048 72.8021 55.9826 72.8149 56.6282 72.6506C56.7032 72.6303 56.7813 72.6247 56.8584 72.6343C57.7094 70.9131 58.4107 69.1215 58.9545 67.2795C58.9946 67.1433 59.0777 67.0237 59.1911 66.9387C59.3046 66.8537 59.4425 66.8078 59.5842 66.8078Z" fill="white"/>
<path d="M65.8718 78.9296C65.4923 78.9312 65.1166 78.8532 64.769 78.7006C64.3602 78.5316 64.0145 78.2382 63.7808 77.8619V77.861C63.5578 77.3644 63.4554 76.8218 63.482 76.2778C63.5086 75.7338 63.6634 75.2039 63.9338 74.7315C64.2042 74.2591 64.5825 73.8577 65.0376 73.5602C65.4927 73.2626 66.0117 73.0775 66.552 73.0199H66.558C66.9703 73.0082 67.3769 73.1182 67.7274 73.3363C68.0778 73.5543 68.3567 73.8707 68.5292 74.2463C68.7773 74.8288 68.8718 75.4654 68.8038 76.0951C68.7358 76.7248 68.5075 77.3264 68.1408 77.8422C67.8691 78.1835 67.5238 78.4586 67.1308 78.647C66.7379 78.8353 66.3074 78.9319 65.8718 78.9296ZM64.9119 77.1921C65.0081 77.3296 65.143 77.4353 65.2995 77.4957C65.6096 77.6185 65.9505 77.6404 66.2737 77.5582C66.597 77.476 66.8862 77.2939 67.1004 77.0377C67.3186 76.7173 67.4553 76.3483 67.4985 75.9627C67.5418 75.5772 67.4903 75.187 67.3485 74.826C67.283 74.6721 67.1714 74.5425 67.0292 74.4549C66.8869 74.3673 66.7211 74.3262 66.5546 74.3371H66.552C66.2358 74.3736 65.934 74.4898 65.6747 74.6749C65.4154 74.86 65.2072 75.1078 65.0693 75.3954C64.8936 75.6571 64.787 75.9592 64.7594 76.2734C64.7319 76.5876 64.7844 76.9037 64.9119 77.1921Z" fill="white"/>
<path d="M117.126 79.589C116.962 79.5889 116.804 79.5274 116.683 79.4167C116.562 79.3059 116.487 79.1539 116.472 78.9904C116.436 78.5985 116.43 78.2057 116.433 77.8129C116.071 78.4282 115.527 78.9146 114.876 79.204C114.577 79.3137 114.257 79.3573 113.94 79.3317C113.623 79.3061 113.315 79.2119 113.037 79.0556C112.799 78.9306 112.585 78.7636 112.406 78.5625C112.166 78.7709 111.882 78.923 111.576 79.0077C111.269 79.0924 110.948 79.1076 110.635 79.0522C110.347 78.9857 110.082 78.8464 109.864 78.6477C109.646 78.4491 109.483 78.1977 109.39 77.9176C109.044 78.294 108.608 78.5766 108.124 78.7388C107.64 78.9011 107.122 78.9378 106.62 78.8455C106.144 78.7329 105.713 78.4788 105.384 78.1165C105.174 78.4298 104.884 78.6801 104.543 78.841C104.203 79.0018 103.825 79.0671 103.45 79.0299C103.078 78.9954 102.72 78.864 102.414 78.6486C102.108 78.4332 101.863 78.1413 101.703 77.8018C101.446 77.2464 101.365 76.6253 101.471 76.0223C100.748 76.2974 99.96 76.3535 99.2051 76.1835C99.1991 76.2573 99.194 76.3302 99.1905 76.4039L99.2641 78.0008C99.2722 78.1699 99.215 78.3356 99.1044 78.4635C98.9938 78.5914 98.8382 78.6717 98.6701 78.6877C98.502 78.7038 98.3342 78.6542 98.2015 78.5495C98.0688 78.4447 97.9815 78.2927 97.9577 78.1251C97.9372 77.9845 97.92 77.843 97.9072 77.7015C97.6625 77.9709 97.3628 78.1844 97.0285 78.3275C96.7335 78.4725 96.4052 78.5358 96.0776 78.5109C95.75 78.486 95.435 78.3739 95.1651 78.186C94.9285 78.0109 94.7322 77.7869 94.5894 77.5291C94.4141 77.7441 94.1979 77.922 93.9533 78.0523C93.7087 78.1826 93.4407 78.2627 93.1648 78.2881C92.9562 78.2962 92.7477 78.2693 92.548 78.2083C92.2315 78.1412 91.9363 77.9972 91.6883 77.7889C91.4404 77.5805 91.2473 77.3144 91.126 77.0137C90.7954 77.4342 90.3803 77.7805 89.9077 78.03C89.6067 78.2111 89.2597 78.3009 88.9089 78.2886C88.558 78.2762 88.2182 78.1623 87.9305 77.9605C87.7989 77.8643 87.6804 77.7513 87.578 77.6243C87.2931 78.0396 86.9105 78.3782 86.464 78.6102C86.0176 78.8422 85.521 78.9604 85.0182 78.9544C84.7529 78.9498 84.4933 78.877 84.2642 78.743C84.035 78.6091 83.8439 78.4185 83.7092 78.1894C83.6728 78.1199 83.6425 78.0473 83.6185 77.9725C83.0174 78.496 82.2349 78.7613 81.4402 78.7108C81.0831 78.6987 80.7346 78.5977 80.4262 78.4168C80.1177 78.2359 79.8591 77.981 79.6735 77.6749C79.5872 77.5261 79.5183 77.3678 79.4682 77.2032L79.4048 77.3164C79.1786 77.7879 78.857 78.207 78.4603 78.547C78.1897 78.7733 77.856 78.9104 77.5048 78.9398C77.1536 78.9691 76.8019 78.8891 76.4977 78.7108C76.2272 78.5076 76.0134 78.238 75.8769 77.928C75.7404 77.618 75.6858 77.278 75.7182 76.9408C75.6703 77.0025 75.6216 77.0634 75.5728 77.1234C74.9764 77.8635 74.2569 78.1191 73.6486 77.8104C73.4493 77.6946 73.2801 77.5332 73.155 77.3392C73.0299 77.1453 72.9525 76.9244 72.9291 76.6946C72.4213 77.626 71.5836 78.3328 70.5815 78.6757C70.3 78.7811 69.995 78.8071 69.6998 78.7508C69.4046 78.6946 69.1304 78.5582 68.9071 78.3566C68.7473 78.1879 68.6394 77.9766 68.5963 77.748C68.5532 77.5194 68.5768 77.2832 68.6641 77.0677C68.7331 76.8787 68.8563 76.7145 69.0184 76.5957C69.1804 76.477 69.3739 76.409 69.5745 76.4005C69.6957 76.3964 69.8157 76.4261 69.9212 76.4863C70.0267 76.5465 70.1134 76.6347 70.1719 76.7413C70.2304 76.8479 70.2583 76.9686 70.2525 77.0901C70.2467 77.2116 70.2075 77.3291 70.1391 77.4296C70.1631 77.4244 70.1896 77.4176 70.217 77.4099C70.9856 77.0984 71.6072 76.5054 71.9555 75.7513C72.16 75.3774 72.3328 74.9863 72.5056 74.5961C72.7295 74.0614 72.9875 73.5418 73.2782 73.0404C73.3611 72.9035 73.491 72.8016 73.6435 72.7537C73.796 72.7059 73.9607 72.7154 74.1067 72.7805C74.2528 72.8456 74.3701 72.9618 74.4368 73.1073C74.5035 73.2529 74.515 73.4178 74.4691 73.5713C74.2025 74.4698 74.1139 75.412 74.2082 76.3447C74.2146 76.4436 74.2344 76.5411 74.2672 76.6346C74.2698 76.578 74.4007 76.4819 74.5504 76.2958C75.4415 75.1912 76.2033 73.9879 76.8211 72.7094C76.8815 72.5837 76.9801 72.4806 77.1028 72.4148C77.2254 72.3489 77.3657 72.3239 77.5035 72.3431C77.6413 72.3624 77.7695 72.425 77.8694 72.522C77.9694 72.6189 78.0361 72.7452 78.0599 72.8826C78.1123 73.4254 77.9756 73.9696 77.6732 74.4228C77.2556 75.1904 77.0354 76.0502 77.0324 76.9244C77.035 77.3412 77.1274 77.5496 77.2129 77.6054C77.2901 77.6275 77.3716 77.6296 77.4499 77.6116C77.5281 77.5936 77.6005 77.5561 77.6604 77.5025C77.9098 77.2674 78.1122 76.9868 78.2567 76.6757L79.2004 74.9743C79.5656 74.084 80.2617 73.3709 81.1417 72.9855C81.1482 72.9823 81.1545 72.9786 81.1605 72.9744C81.6016 72.7279 82.0958 72.5927 82.6006 72.5803C83.1054 72.5679 83.6057 72.6787 84.0583 72.9032C84.1446 72.8651 84.2389 72.8489 84.3329 72.856C84.503 72.8634 84.6636 72.9366 84.7809 73.0602C84.8982 73.1839 84.963 73.3483 84.9618 73.5189C84.9618 73.5704 84.9609 73.6236 84.9609 73.6776C85.0063 73.7714 85.0289 73.8746 85.0268 73.9788C85.0247 74.083 84.998 74.1852 84.9489 74.2771C84.9387 74.6309 84.9092 74.9839 84.8608 75.3345C84.8403 76.0008 84.8368 76.6689 84.8514 77.3327C84.8496 77.4147 84.8568 77.4966 84.8728 77.5771C84.9446 77.617 85.0251 77.6387 85.1072 77.6405C85.8669 77.7014 86.5633 76.9519 86.9261 76.1963C86.9706 76.1037 87.0125 76.0085 87.0527 75.9133C87.0562 75.7979 87.0665 75.6828 87.0835 75.5686C87.2679 74.6827 87.6396 73.8466 88.1735 73.1168C88.2657 72.9708 88.4115 72.867 88.5793 72.8278C88.7472 72.7886 88.9237 72.817 89.0708 72.907C89.2179 72.997 89.3239 73.1413 89.3659 73.3089C89.4078 73.4765 89.3824 73.6539 89.2951 73.8028C89.0286 74.3014 88.8124 74.8254 88.65 75.3671C88.5611 75.6295 88.4721 75.8919 88.3728 76.15C88.3751 76.2895 88.4052 76.4271 88.4615 76.5547C88.5178 76.6823 88.5991 76.7972 88.7005 76.8927C88.7536 76.9313 88.9204 77.0522 89.3191 76.8516C90.2568 76.3816 90.9113 74.9511 91.4366 73.802C91.5512 73.5515 91.6599 73.3131 91.766 73.0962C91.8039 73.0183 91.8567 72.9487 91.9215 72.8914C91.9862 72.834 92.0616 72.79 92.1433 72.7619C92.2251 72.7338 92.3115 72.7221 92.3978 72.7275C92.484 72.7329 92.5683 72.7553 92.6459 72.7934C92.7235 72.8315 92.7929 72.8846 92.85 72.9495C92.9071 73.0145 92.9509 73.0902 92.9788 73.1721C93.0068 73.2541 93.0183 73.3408 93.0128 73.4272C93.0072 73.5137 92.9848 73.5982 92.9467 73.6759C92.7613 74.1285 92.6301 74.6014 92.5557 75.0849C92.5001 75.3645 92.4453 75.6372 92.3794 75.8876C92.1929 76.5986 92.4171 76.8053 92.8962 76.9382C92.9642 76.9562 93.0338 76.9677 93.1041 76.9725C93.3206 76.9631 93.7227 76.6492 94.2009 75.8216C94.2026 75.7787 94.2061 75.7358 94.2095 75.6938C94.3847 74.5951 94.8124 73.5523 95.4586 72.6477C95.5407 72.5139 95.6678 72.4139 95.8169 72.3658C95.9661 72.3176 96.1275 72.3245 96.272 72.3852C96.4166 72.4458 96.5347 72.5562 96.6052 72.6965C96.6757 72.8368 96.6938 72.9977 96.6564 73.1502C96.405 74.167 96.0358 75.1508 95.5561 76.0815C95.5442 76.1055 95.5313 76.1295 95.5193 76.1535C95.5271 76.5174 95.6763 76.8639 95.9351 77.1192C95.9933 77.1603 96.1499 77.2709 96.5118 77.1166C97.1945 76.8233 97.4589 75.9511 97.7643 74.94C97.9614 74.0031 98.39 73.1309 99.0109 72.4032C99.1224 72.2939 99.2691 72.2279 99.4248 72.217C99.5804 72.2062 99.7348 72.2512 99.8603 72.3441C99.9859 72.4369 100.074 72.5715 100.11 72.7237C100.146 72.876 100.126 73.036 100.055 73.1751C99.7769 73.7177 99.5627 74.2906 99.4164 74.8825C99.7476 74.9703 100.093 74.9905 100.432 74.942C100.771 74.8934 101.097 74.777 101.391 74.5998C101.684 74.4225 101.939 74.188 102.14 73.9101C102.341 73.6322 102.485 73.3167 102.562 72.9821C102.582 72.8979 102.618 72.8183 102.668 72.748C102.718 72.6777 102.782 72.6179 102.855 72.5722C102.928 72.5265 103.01 72.4957 103.095 72.4816C103.18 72.4674 103.267 72.4703 103.351 72.4899C103.435 72.5094 103.515 72.5454 103.585 72.5958C103.655 72.6461 103.714 72.7098 103.76 72.7833C103.806 72.8567 103.836 72.9384 103.85 73.0237C103.865 73.109 103.862 73.1963 103.842 73.2806L103.838 73.2977C103.701 73.8042 103.517 74.2966 103.289 74.7685C102.884 75.675 102.534 76.4579 102.898 77.2521C102.96 77.3793 103.053 77.4887 103.169 77.5701C103.285 77.6516 103.419 77.7023 103.56 77.7178C104.297 77.7529 104.634 76.8533 104.767 76.2796C104.78 76.1888 104.799 76.0992 104.824 76.0111C104.871 75.8485 104.978 75.71 105.124 75.6244C105.269 75.5389 105.442 75.5127 105.606 75.5514C105.77 75.5901 105.914 75.6907 106.006 75.8324C106.098 75.974 106.132 76.1458 106.102 76.3122C106.09 76.3765 106.078 76.4408 106.064 76.5034C106.056 76.6863 106.103 76.8674 106.199 77.0231C106.276 77.155 106.378 77.2705 106.5 77.3627C106.622 77.455 106.76 77.5223 106.908 77.5608C107.227 77.6031 107.553 77.5577 107.849 77.4295C108.145 77.3013 108.4 77.095 108.589 76.8327C108.68 76.7013 108.753 76.5578 108.805 76.4065C108.584 76.4043 108.363 76.375 108.148 76.319C107.888 76.2526 107.644 76.1323 107.433 75.9656C107.222 75.799 107.048 75.5898 106.923 75.3516C106.782 75.06 106.726 74.7348 106.759 74.4125C106.78 74.0064 106.913 73.614 107.142 73.2786C107.372 72.9433 107.69 72.678 108.06 72.5121C108.381 72.3276 108.757 72.2636 109.121 72.3316C109.485 72.3997 109.813 72.5953 110.046 72.8835C110.115 72.9752 110.175 73.0737 110.224 73.1776C110.353 73.1882 110.475 73.2365 110.577 73.3166C110.678 73.3967 110.754 73.5049 110.795 73.6278V73.6287C110.884 73.915 110.914 74.2168 110.881 74.5151C110.848 74.8134 110.753 75.1015 110.603 75.361C110.504 75.9395 110.48 76.5286 110.534 77.1131C110.565 77.3327 110.656 77.7083 110.917 77.7657C111.185 77.8344 111.649 77.6088 111.982 77.0917C112.052 76.9838 112.151 76.8987 112.268 76.8468C112.385 76.7948 112.515 76.7783 112.641 76.7993C112.768 76.8202 112.885 76.8778 112.979 76.9647C113.073 77.0517 113.14 77.1644 113.171 77.2889C113.205 77.4155 113.264 77.5338 113.345 77.6365C113.426 77.7392 113.527 77.824 113.642 77.8858C113.755 77.9582 113.883 78.0036 114.017 78.0185C114.15 78.0334 114.286 78.0173 114.412 77.9716C115.03 77.6083 115.5 77.0388 115.741 76.3627C115.619 76.3889 115.494 76.4044 115.369 76.409C114.998 76.4144 114.633 76.3168 114.313 76.127C113.994 75.9372 113.733 75.6626 113.56 75.3336C113.358 75.0075 113.25 74.6324 113.247 74.2489C113.243 73.8655 113.345 73.4884 113.54 73.1587C113.75 72.8628 114.028 72.6222 114.351 72.4578C114.674 72.2933 115.032 72.2098 115.394 72.2145C115.897 72.2171 116.385 72.3809 116.789 72.6819C116.858 72.6115 116.944 72.5581 117.037 72.526C117.131 72.4938 117.231 72.4838 117.329 72.4967C117.415 72.507 117.498 72.5341 117.573 72.5765C117.648 72.6188 117.714 72.6757 117.767 72.7437C117.821 72.8117 117.86 72.8896 117.883 72.9729C117.906 73.0562 117.913 73.1432 117.903 73.2291C117.762 74.2077 117.708 75.197 117.741 76.1852C117.761 76.5943 117.756 77.0051 117.751 77.4159C117.735 77.9009 117.745 78.3864 117.781 78.8703C117.797 79.0443 117.743 79.2174 117.631 79.3517C117.52 79.4859 117.36 79.5704 117.186 79.5864C117.166 79.5882 117.145 79.589 117.126 79.589ZM81.7217 74.1733C81.3967 74.4051 81.131 74.7105 80.946 75.0648C80.7611 75.419 80.6622 75.812 80.6574 76.2118C80.6325 76.4865 80.6846 76.7628 80.808 77.0093C80.886 77.1285 80.9924 77.2262 81.1176 77.2938C81.2428 77.3613 81.3828 77.3965 81.525 77.3961C81.7954 77.4147 82.0664 77.3677 82.3149 77.2592C82.5634 77.1507 82.7823 76.9838 82.9529 76.7726C83.2837 76.3111 83.4897 75.7716 83.5509 75.2067C83.5612 74.8937 83.5755 74.5809 83.5937 74.2685C83.0135 73.996 82.3507 73.9592 81.744 74.1656L81.7217 74.1733ZM115.367 73.5318C115.229 73.5229 115.091 73.5487 114.965 73.607C114.84 73.6653 114.731 73.7541 114.649 73.8654C114.585 73.9928 114.556 74.135 114.564 74.2773C114.573 74.4197 114.619 74.5572 114.698 74.6758C114.758 74.7922 114.845 74.8917 114.953 74.9647C115.061 75.0378 115.186 75.0821 115.316 75.0935C115.735 75.0763 116.064 74.7136 116.287 74.2239C116.262 74.1154 116.22 74.0115 116.163 73.916C116.075 73.7915 115.957 73.6912 115.82 73.6241C115.683 73.557 115.532 73.5252 115.379 73.5318L115.367 73.5318ZM108.893 73.645C108.777 73.6553 108.663 73.6846 108.556 73.7316C108.414 73.8067 108.293 73.9185 108.208 74.0554C108.122 74.1924 108.075 74.3497 108.07 74.5112C108.056 74.5931 108.065 74.6771 108.094 74.7547C108.14 74.829 108.199 74.8935 108.269 74.9445C108.34 74.9954 108.42 75.0318 108.504 75.0515C108.71 75.1105 108.929 75.1006 109.128 75.0232C109.228 74.5745 109.184 74.1057 109.002 73.6836C108.988 73.6692 108.971 73.6583 108.952 73.6516C108.933 73.6449 108.913 73.6427 108.893 73.645V73.645Z" fill="white"/>
<path d="M70.4515 101.543C70.3292 101.543 70.2093 101.509 70.1054 101.444C70.0014 101.38 69.9174 101.287 69.8629 101.177C69.3463 99.973 69.2959 98.6189 69.7217 97.3792L69.8672 96.8484C70.2556 95.4385 70.6406 94.0397 71.0179 92.6179C71.1026 92.2963 71.1967 91.9421 71.3139 91.5767C71.4311 90.563 71.5324 89.5499 71.6176 88.5374C71.6326 88.3637 71.7157 88.2031 71.8486 88.0908C71.9815 87.9784 72.1535 87.9235 72.3268 87.938C72.5 87.9525 72.6605 88.0353 72.773 88.1683C72.8854 88.3012 72.9407 88.4735 72.9267 88.6472C72.919 88.7441 72.9104 88.8401 72.9018 88.9371C73.1849 88.7114 73.5156 88.5534 73.8687 88.475C74.2219 88.3967 74.5882 88.4002 74.9398 88.4851C75.2084 88.5494 75.4569 88.6799 75.6626 88.8647C75.8683 89.0494 76.0248 89.2827 76.1179 89.5434C76.3872 90.4015 76.3408 91.328 75.987 92.1547C75.8168 92.5882 75.73 93.05 75.7312 93.5158L75.2948 94.1401L75.7859 93.7019C75.9485 93.8862 76.0451 93.8656 76.0931 93.8571C76.2858 93.7722 76.4586 93.6479 76.6005 93.492C76.7424 93.3362 76.8502 93.1524 76.917 92.9523C77.3047 91.7472 77.9384 90.6362 78.7778 89.69C79.0267 89.3176 79.3605 89.0098 79.7514 88.7921C80.0831 88.6208 80.4489 88.5261 80.8218 88.5151C81.1948 88.5042 81.5655 88.5771 81.9066 88.7287C82.2629 88.8821 82.5716 89.1285 82.8007 89.4422C82.852 89.1995 82.9119 88.9585 82.9846 88.7209C83.0295 88.5798 83.1201 88.4577 83.2421 88.3739C83.364 88.2902 83.5104 88.2497 83.6579 88.2587C83.8058 88.269 83.9458 88.329 84.0553 88.4291C84.1648 88.5292 84.2373 88.6635 84.2611 88.8101C84.3492 89.589 84.2004 90.3765 83.8342 91.0691C83.7411 91.6042 83.5899 92.1276 83.3833 92.6299C83.3706 92.8576 83.4128 93.085 83.5065 93.2928C83.6002 93.5007 83.7425 93.6828 83.9215 93.8237C84.0574 93.9147 84.2158 93.9666 84.3792 93.9735C84.5426 93.9805 84.7048 93.9423 84.848 93.8631C85.4872 93.4731 85.9555 92.8552 86.1587 92.1333L86.2648 91.8778C86.2956 91.8014 86.3273 91.7243 86.3607 91.6445C86.3912 91.1315 86.5315 90.631 86.7722 90.1771C87.0128 89.7233 87.3481 89.3267 87.7552 89.0143C87.9853 88.8376 88.2567 88.723 88.5436 88.6815C88.8305 88.6401 89.1231 88.6732 89.3936 88.7776C89.794 88.9705 90.1156 89.2962 90.3039 89.6995C90.3725 89.8298 90.3955 89.9793 90.3693 90.1243C90.343 90.2692 90.269 90.4012 90.1591 90.499C90.0492 90.5968 89.9098 90.6548 89.7631 90.6638C89.6164 90.6728 89.4709 90.6322 89.35 90.5485C88.9941 90.3024 88.8204 90.3555 88.7656 90.3727C88.3421 90.4988 87.9409 91.298 87.662 91.9429C87.6587 92.3058 87.7613 92.6617 87.9571 92.9669C88.1443 93.225 88.3937 93.4313 88.682 93.5664C88.9704 93.7016 89.2882 93.7612 89.6058 93.7396C89.8474 93.7403 90.0849 93.677 90.2943 93.5563C90.5037 93.4355 90.6776 93.2615 90.7985 93.0518C91.0306 92.5146 91.1459 91.9339 91.1368 91.3485C91.1276 90.7631 90.9942 90.1863 90.7454 89.6566C90.5513 89.2696 90.3303 88.8968 90.0841 88.5409C89.5975 87.8852 89.2369 87.1445 89.0206 86.3566C88.9049 85.9043 88.9264 85.4278 89.0822 84.9879C89.2363 84.6342 89.4774 84.3256 89.783 84.0909C90.0886 83.8561 90.4486 83.703 90.8293 83.6457C91.3786 83.5613 91.9373 83.5587 92.4873 83.638C93.3103 83.7205 94.1373 83.7546 94.9642 83.7401C95.309 83.7521 95.6533 83.7051 95.9823 83.6011C96.0853 83.5688 96.1798 83.5139 96.2591 83.4405C96.3384 83.3671 96.4005 83.277 96.4409 83.1766C96.4851 83.0081 96.5941 82.8639 96.7441 82.7758C96.8942 82.6877 97.0729 82.6629 97.2412 82.7067C97.4095 82.7505 97.5536 82.8594 97.6419 83.0096C97.7302 83.1597 97.7555 83.3388 97.7123 83.5077C97.6218 83.8109 97.4614 84.0885 97.2439 84.318C97.0264 84.5474 96.7581 84.7223 96.4606 84.8283C95.987 84.992 95.4881 85.0695 94.9873 85.0573C94.154 85.0633 93.3301 85.0393 92.5233 84.9647C92.0461 84.8874 91.5604 84.8787 91.0808 84.939C90.9195 84.9581 90.7651 85.0156 90.6306 85.1068C90.496 85.1979 90.3852 85.3201 90.3074 85.463C90.2491 85.6622 90.2479 85.8738 90.3039 86.0736C90.4912 86.7029 90.789 87.2936 91.1835 87.8179C91.4628 88.2253 91.7135 88.6517 91.9338 89.094C92.2799 89.8173 92.459 90.6094 92.4578 91.4116C92.4566 92.2138 92.2752 93.0054 91.9269 93.7276C91.6965 94.1236 91.3685 94.4536 90.9744 94.6861C90.5803 94.9185 90.1332 95.0456 89.676 95.0552C89.1322 95.0894 88.5887 94.9834 88.0975 94.7472C87.6062 94.5111 87.1835 94.1527 86.8697 93.7062L86.856 93.6848C86.5218 94.2776 86.0166 94.7553 85.4067 95.0552C85.0575 95.2313 84.6679 95.3111 84.2778 95.2865C83.8876 95.262 83.511 95.1339 83.1865 94.9154C82.905 94.7243 82.6672 94.4752 82.4893 94.1847C82.18 94.6062 81.7453 94.9184 81.2478 95.0766C80.9285 95.1555 80.5957 95.1621 80.2735 95.0959C79.9514 95.0298 79.6479 94.8925 79.3853 94.6941C78.8211 94.3141 78.4251 93.7304 78.2799 93.0647C78.2372 93.1745 78.1943 93.2877 78.1524 93.4035C78.0127 93.8194 77.775 94.1955 77.4594 94.4998C77.1438 94.804 76.7596 95.0275 76.3395 95.1513C76.0558 95.2029 75.7634 95.1769 75.4932 95.0761C75.2229 94.9753 74.9848 94.8034 74.8038 94.5784C74.6796 94.4392 74.5824 94.2781 74.5171 94.1033C74.4626 93.9441 74.4301 93.7782 74.4205 93.6101C74.403 92.9775 74.5097 92.3475 74.7345 91.7561C74.9914 91.2047 75.0438 90.5795 74.8825 89.9928C74.8613 89.9324 74.8244 89.8788 74.7754 89.8376C74.7265 89.7964 74.6675 89.7692 74.6044 89.7587C74.4527 89.7263 74.2957 89.7276 74.1445 89.7624C73.9934 89.7972 73.8516 89.8647 73.7292 89.9603C73.1866 90.4821 72.7969 91.1429 72.6024 91.871C72.2431 94.9446 71.7374 98.0105 71.0941 101.022C71.0626 101.17 70.9816 101.302 70.8646 101.397C70.7477 101.491 70.6019 101.543 70.4515 101.543L70.4515 101.543ZM79.7874 90.539C79.5634 90.9455 79.4504 91.404 79.4597 91.8683C79.4717 92.7722 79.6719 93.3048 80.1099 93.5946C80.5693 93.8991 80.8132 93.8313 80.891 93.809C81.4129 93.6615 81.8706 92.7602 82.0845 92.3074C82.1418 91.8234 82.2728 91.3511 82.4729 90.9069C82.3329 90.9075 82.1963 90.8639 82.0824 90.7824C81.9684 90.7008 81.883 90.5854 81.8381 90.4524C81.8012 90.352 81.7389 90.263 81.6573 90.194C81.5757 90.125 81.4776 90.0784 81.3727 90.0588C81.1278 90.0025 80.8734 90.0023 80.6284 90.0581C80.3834 90.1139 80.1541 90.2244 79.9576 90.3812C79.9003 90.4318 79.8438 90.4841 79.7874 90.539V90.539Z" fill="white"/>
<path d="M95.6736 95.0875C95.4442 95.0877 95.2158 95.0559 94.9951 94.9931C94.6276 94.8824 94.2868 94.6971 93.9939 94.4486C93.701 94.2002 93.4623 93.8939 93.2925 93.549C93.178 93.3188 93.1003 93.0719 93.0624 92.8174C93.019 92.3129 93.0843 91.8049 93.2539 91.3278C93.4236 90.8508 93.6935 90.4159 94.0454 90.0526C94.3373 89.6865 94.7169 89.4005 95.1488 89.2211C95.5807 89.0418 96.0508 88.9749 96.5154 89.0269C96.9774 89.1027 97.3958 89.3449 97.6921 89.7081C97.9885 90.0713 98.1423 90.5305 98.1248 90.9993C98.2027 91.5722 98.2114 92.1524 98.1504 92.7274C98.0737 93.4131 97.7526 94.0481 97.2461 94.5155C96.8068 94.8881 96.249 95.091 95.6736 95.0875ZM96.1356 90.3098C95.9213 90.3333 95.7138 90.3991 95.5251 90.5034C95.3364 90.6078 95.1702 90.7487 95.0362 90.9179C94.8126 91.1399 94.6373 91.406 94.5213 91.6992C94.4053 91.9925 94.351 92.3066 94.362 92.6219L94.3629 92.6245C94.3799 92.7418 94.4157 92.8556 94.4689 92.9615C94.556 93.1428 94.6793 93.3041 94.8312 93.4356C94.9831 93.567 95.1603 93.6658 95.3519 93.7256C95.5286 93.7763 95.7148 93.7839 95.895 93.7478C96.0753 93.7117 96.2443 93.633 96.388 93.5181C96.6526 93.258 96.8163 92.9121 96.85 92.5422C96.8931 92.0711 96.8822 91.5966 96.8175 91.128C96.7499 90.4428 96.6267 90.3853 96.2793 90.3227C96.2319 90.3137 96.1838 90.3094 96.1356 90.3098Z" fill="white"/>
<path d="M106.441 94.8922C106.183 94.8926 105.927 94.8464 105.686 94.7558C104.282 94.2284 104.729 92.7328 104.945 92.0132L105.037 91.6908C105.074 91.5467 105.12 91.4061 105.166 91.268C105.285 90.9138 105.326 90.7551 105.265 90.6094C105.175 90.3941 105.122 90.3538 105.112 90.3478C105.079 90.3249 105.041 90.3099 105.001 90.3041C104.961 90.2983 104.921 90.3018 104.882 90.3143C104.504 90.5065 104.203 90.8224 104.029 91.2097C103.691 92.065 103.406 92.9406 103.176 93.8313C103.133 93.9924 103.03 94.1309 102.889 94.2189C102.747 94.3069 102.578 94.3378 102.414 94.3054C102.251 94.2729 102.106 94.1795 102.009 94.0441C101.912 93.9087 101.869 93.7413 101.891 93.5758C102.293 90.4927 101.78 90.1505 101.775 90.1471C101.671 90.1702 101.574 90.2177 101.492 90.2859C101.41 90.354 101.345 90.4408 101.303 90.539C100.943 91.3197 100.681 92.1417 100.523 92.9866C100.43 93.3802 100.339 93.7662 100.237 94.1272C100.191 94.2834 100.09 94.4174 99.9522 94.5038C99.8145 94.5901 99.65 94.6227 99.4898 94.5955C99.3296 94.5673 99.1856 94.4804 99.0856 94.3517C98.9857 94.223 98.9371 94.0617 98.9491 93.8991C98.9594 93.7645 99.193 90.5948 99.5283 88.9808C99.5616 88.821 99.6528 88.6793 99.7844 88.5831C99.916 88.4869 100.078 88.4431 100.24 88.4602C100.402 88.4773 100.552 88.554 100.661 88.6756C100.77 88.7971 100.829 88.9548 100.829 89.118C100.97 89.0206 101.127 88.9465 101.292 88.8985C101.519 88.8223 101.762 88.8056 101.997 88.85C102.233 88.8945 102.453 88.9985 102.637 89.1523C102.906 89.4006 103.096 89.7218 103.186 90.0768C103.508 89.5991 103.975 89.2387 104.518 89.0494C104.731 88.9851 104.955 88.9674 105.176 88.9974C105.396 89.0274 105.608 89.1045 105.796 89.2235C106.111 89.4345 106.349 89.7411 106.476 90.0982C106.663 90.6154 106.64 91.1853 106.412 91.6856C106.376 91.7937 106.339 91.9035 106.31 92.0158C106.281 92.1316 106.244 92.2585 106.203 92.3923C105.94 93.2722 105.975 93.4583 106.146 93.5226C106.255 93.5625 106.371 93.5799 106.486 93.5737C106.602 93.5675 106.715 93.5379 106.819 93.4866C107.362 93.2164 107.459 92.6221 107.571 91.6745C107.602 90.9784 107.788 90.298 108.115 89.6831C108.123 89.6703 108.131 89.6574 108.14 89.6446C108.287 89.3004 108.507 88.9926 108.786 88.7426C109.064 88.4926 109.393 88.3064 109.751 88.1969C110.116 88.1121 110.494 88.1035 110.863 88.1716C111.231 88.2398 111.582 88.3833 111.893 88.5932C111.93 88.4446 112.018 88.3139 112.142 88.224C112.265 88.1341 112.416 88.0908 112.569 88.1018C112.743 88.1126 112.905 88.1922 113.021 88.3231C113.136 88.454 113.195 88.6254 113.185 88.7998C113.169 89.0451 113.152 89.3007 113.128 89.5631C113.145 89.5871 113.162 89.6111 113.178 89.636C113.266 89.77 113.302 89.9314 113.279 90.0901C113.257 90.2487 113.177 90.3937 113.056 90.4979C113.042 90.5099 113.027 90.521 113.012 90.5322C112.975 90.7663 112.93 91.003 112.875 91.2388C112.823 91.6886 112.84 92.1437 112.923 92.5887L112.962 92.7876C112.983 92.977 113.037 93.1611 113.122 93.3314C113.3 93.3915 113.49 93.4098 113.676 93.385C113.863 93.3602 114.041 93.2928 114.197 93.1881C114.563 92.9483 114.836 92.5903 114.97 92.1736C115.028 92.0085 115.148 91.8729 115.305 91.7967C115.462 91.7204 115.642 91.7098 115.807 91.7671C115.972 91.8244 116.107 91.945 116.183 92.1023C116.259 92.2596 116.27 92.4407 116.213 92.6058C115.979 93.3125 115.508 93.916 114.88 94.3133C114.522 94.5427 114.111 94.6771 113.687 94.7038C113.263 94.7305 112.839 94.6486 112.455 94.466C112.141 94.2702 111.911 93.9646 111.809 93.6084C111.55 93.9374 111.213 94.197 110.829 94.3639C110.519 94.4846 110.185 94.5334 109.854 94.5067C109.522 94.4799 109.2 94.3784 108.913 94.2095C108.704 94.1 108.519 93.9492 108.37 93.7662C108.145 94.1562 107.809 94.4698 107.405 94.6666C107.105 94.8153 106.775 94.8925 106.441 94.8922ZM109.292 90.2912C109.258 90.376 109.229 90.4631 109.207 90.5519C108.975 91.4832 109.063 92.8022 109.52 93.0415C109.637 93.1224 109.772 93.174 109.912 93.1921C110.053 93.2102 110.196 93.1941 110.33 93.1453C110.912 92.7514 111.316 92.1431 111.454 91.4524C111.499 91.31 111.54 91.1659 111.575 91.0201C111.608 90.6994 111.655 90.3829 111.703 90.0699C111.578 89.9689 111.448 89.8744 111.313 89.7869C111.101 89.7045 110.874 89.6691 110.647 89.6832C110.39 89.6748 110.134 89.7252 109.9 89.8305C109.665 89.9359 109.457 90.0934 109.292 90.2912L109.292 90.2912Z" fill="white"/>
<path d="M16.2733 126.76L17.9209 106.011L160.755 103.895L162.403 106.011V128.875H17.9209L16.2733 126.76ZM150.95 118.304C151.651 118.304 152.337 118.095 152.92 117.705C153.503 117.315 153.957 116.76 154.225 116.11C154.494 115.461 154.564 114.746 154.427 114.057C154.29 113.368 153.953 112.735 153.457 112.238C152.961 111.741 152.329 111.402 151.642 111.265C150.954 111.128 150.241 111.199 149.593 111.468C148.946 111.736 148.392 112.192 148.003 112.776C147.613 113.361 147.405 114.048 147.405 114.75C147.405 115.217 147.497 115.679 147.675 116.11C147.853 116.541 148.114 116.933 148.443 117.263C148.773 117.593 149.163 117.855 149.593 118.033C150.024 118.212 150.485 118.304 150.95 118.304Z" fill="#2435A1"/>
<path d="M16.2733 103.895H160.755V126.76H16.2733V103.895ZM149.571 119.686C150.272 119.686 150.958 119.478 151.541 119.087C152.124 118.697 152.578 118.142 152.846 117.492C153.115 116.843 153.185 116.129 153.048 115.439C152.911 114.75 152.574 114.117 152.078 113.62C151.582 113.123 150.951 112.785 150.263 112.647C149.575 112.51 148.862 112.581 148.215 112.85C147.567 113.119 147.013 113.574 146.624 114.158C146.234 114.743 146.026 115.43 146.026 116.133C146.026 116.599 146.118 117.061 146.296 117.492C146.474 117.923 146.735 118.315 147.065 118.645C147.394 118.975 147.785 119.237 148.215 119.415C148.645 119.594 149.106 119.686 149.571 119.686Z" fill="#49B3F7"/>
<path d="M153.018 116.934C152.839 117.716 152.4 118.414 151.774 118.913C151.148 119.413 150.371 119.685 149.571 119.685C148.771 119.685 147.994 119.413 147.368 118.913C146.742 118.414 146.304 117.716 146.125 116.934H16.2731V126.759H160.755V116.934H153.018Z" fill="#378FDD"/>
<path d="M135.514 103.895H133.126V115.327H135.514V103.895Z" fill="white"/>
<path d="M114.838 103.895H112.451V115.327H114.838V103.895Z" fill="white"/>
<path d="M94.1638 103.895H91.7766V115.327H94.1638V103.895Z" fill="white"/>
<path d="M73.4888 103.895H71.1017V115.327H73.4888V103.895Z" fill="white"/>
<path d="M52.8149 103.895H50.4277V115.327H52.8149V103.895Z" fill="white"/>
<path d="M32.1404 103.895H29.7533V115.327H32.1404V103.895Z" fill="white"/>
<path d="M125.24 103.895H122.853V111.547H125.24V103.895Z" fill="white"/>
<path d="M104.565 103.895H102.178V111.547H104.565V103.895Z" fill="white"/>
<path d="M83.8909 103.895H81.5038V111.547H83.8909V103.895Z" fill="white"/>
<path d="M63.2165 103.895H60.8293V111.547H63.2165V103.895Z" fill="white"/>
<path d="M42.5415 103.895H40.1543V111.547H42.5415V103.895Z" fill="white"/>
<path d="M141.232 25.0815H122.853V116.671H141.232V25.0815Z" fill="#E94B36"/>
<path d="M136.172 25.0815H128.162V116.671H136.172V25.0815Z" fill="#FF6551"/>
<path d="M141.233 25.0815H136.172V116.671H141.233V25.0815Z" fill="#E94B36"/>
<path d="M141.232 116.671H122.853L130.695 136.36C130.826 136.689 131.054 136.97 131.347 137.167C131.64 137.364 131.986 137.467 132.339 137.462C132.692 137.458 133.036 137.346 133.324 137.143C133.613 136.939 133.833 136.652 133.956 136.32L141.232 116.671Z" fill="#FFBF94"/>
<path d="M136.806 128.627H127.616L130.696 136.36C130.827 136.689 131.054 136.97 131.348 137.167C131.641 137.363 131.987 137.466 132.34 137.462C132.693 137.458 133.037 137.346 133.325 137.142C133.614 136.939 133.834 136.652 133.957 136.32L136.806 128.627Z" fill="#5B5B5C"/>
<path d="M141.232 25.0815H122.853V29.3892H141.232V25.0815Z" fill="#2435A1"/>
<path d="M126.871 17.2808H137.214C138.279 17.2808 139.301 17.7051 140.055 18.4604C140.808 19.2157 141.232 20.24 141.232 21.3082V25.0808H122.853V21.3082C122.853 20.24 123.276 19.2157 124.029 18.4604C124.783 17.7051 125.805 17.2808 126.871 17.2808Z" fill="#F7A845"/>
</g>
<defs>
<filter id="filter0_d_320_72654" x="-0.000244141" y="0" width="178" height="158" filterUnits="userSpaceOnUse" color-interpolation-filters="sRGB">
<feFlood flood-opacity="0" result="BackgroundImageFix"/>
<feColorMatrix in="SourceAlpha" type="matrix" values="0 0 0 0 0 0 0 0 0 0 0 0 0 0 0 0 0 0 127 0" result="hardAlpha"/>
<feOffset dy="4"/>
<feGaussianBlur stdDeviation="2"/>
<feComposite in2="hardAlpha" operator="out"/>
<feColorMatrix type="matrix" values="0 0 0 0 0 0 0 0 0 0 0 0 0 0 0 0 0 0 0.25 0"/>
<feBlend mode="normal" in2="BackgroundImageFix" result="effect1_dropShadow_320_72654"/>
<feBlend mode="normal" in="SourceGraphic" in2="effect1_dropShadow_320_72654" result="shape"/>
</filter>
</defs>
</svg>
