<svg width="204" height="181" viewBox="0 0 204 181" fill="none" xmlns="http://www.w3.org/2000/svg">
<g filter="url(#filter0_d_320_78090)">
<path d="M167.214 157.617C157.562 163.326 145.085 160.89 133.76 162.136C124.189 163.189 115.242 166.963 106.08 169.771C96.9193 172.579 86.8807 174.423 77.7348 171.571C71.4521 169.612 66.1533 165.608 60.2408 162.81C53.106 159.434 45.1773 157.86 37.7317 155.141C30.2862 152.422 22.9353 148.162 19.4786 141.393C15.3219 133.253 17.7109 123.583 16.1397 114.676C14.3665 104.623 7.62344 95.9427 4.80111 86.1041C2.8071 79.153 4.87601 70.9505 7.2856 64.2056C9.83177 57.0785 16.9097 49.0712 23.73 44.9241C25.9552 43.571 28.1528 42.2156 30.2544 40.6849C31.1751 40.0143 36.0207 37.0806 36.0207 36.0185C41.461 31.0892 44.7266 24.8033 49.4541 19.3444C54.3593 13.6804 61.5391 10.0107 69.0692 8.21094C75.8877 6.55899 82.8633 5.64559 89.8762 5.48644C97.408 5.36888 104.712 6.02821 111.98 3.59331C113.505 3.08211 114.985 2.45648 116.507 1.93247C126.781 -1.60497 140.541 -0.055649 150.145 4.70705C153.81 6.5244 156.877 9.23039 159.832 11.9607C163.499 15.1956 166.704 18.9219 169.356 23.0343C171.783 27.0014 172.552 31.7364 175.644 35.4599C177.72 37.9604 179.763 40.7073 181.822 43.1191C185.002 46.8459 189.9 48.6369 192.925 52.698C195.969 56.7859 197.417 61.7772 198.419 66.6147C199.702 72.8083 200.422 79.1578 199.734 85.4345C198.634 95.4775 193.018 102.944 187.278 111.116C185.366 113.839 183.443 116.657 182.709 119.845C182.415 121.374 182.235 122.923 182.17 124.479C181.816 129.012 180.602 133.188 179.688 137.58C178.083 145.296 174.57 153.266 167.214 157.617Z" fill="#EFF2FD"/>
<path d="M49.5665 68.3458L58.5096 72.5923L145.424 86.3097L157.887 58.4941C147.681 62.6057 121.023 64.1406 98.0262 65.2229C73.1069 66.3956 46.8953 66.1599 46.8953 66.1599L49.5665 68.3458Z" fill="#B57D92"/>
<path d="M142.663 9.26523L142.135 13.2869L134.988 67.6708L128.491 117.136L61.7439 117.155L60.3442 76.5726L60.3346 76.245L57.7021 0L142.663 9.26523Z" fill="#FFD7BD"/>
<path d="M142.146 13.1851L142.136 13.2863L134.989 67.6702L60.3453 76.572L59.2834 76.6987L60.3357 76.2444L75.5388 69.6786L74.5174 69.1343L71.8404 19.8361L142.146 13.1851Z" fill="#ECB891"/>
<path d="M75.5395 22.2395L79.1528 127.041L145.904 127.021L157.311 13.7012L75.5395 22.2395Z" fill="#FFEBDD"/>
<path d="M145.114 25.5201L85.0858 30.8669C84.7631 30.8955 84.4639 31.0479 84.2505 31.2923C84.0371 31.5366 83.9258 31.8541 83.94 32.1786C83.9541 32.5031 84.0926 32.8096 84.3264 33.0343C84.5603 33.2591 84.8717 33.3847 85.1956 33.385C85.2329 33.385 85.2705 33.3837 85.3083 33.3802L145.336 28.0334C145.501 28.0188 145.661 27.9718 145.808 27.8951C145.954 27.8184 146.084 27.7135 146.19 27.5865C146.296 27.4594 146.376 27.3127 146.426 27.1546C146.475 26.9965 146.493 26.8302 146.478 26.6652C146.464 26.5002 146.417 26.3396 146.34 26.1928C146.264 26.0459 146.159 25.9156 146.033 25.8093C145.906 25.7029 145.76 25.6227 145.602 25.573C145.444 25.5234 145.278 25.5054 145.114 25.5201H145.114Z" fill="#F4C6B1"/>
<path d="M144.099 43.8133L84.0103 48.4297C83.6861 48.4546 83.3841 48.6046 83.1677 48.8479C82.9513 49.0913 82.8372 49.4093 82.8495 49.7351C82.8618 50.061 82.9994 50.3694 83.2335 50.5957C83.4676 50.8221 83.7799 50.9487 84.1051 50.9492C84.1374 50.9492 84.17 50.9478 84.2026 50.9456L144.291 46.3292C144.456 46.3166 144.616 46.2715 144.764 46.1966C144.911 46.1217 145.042 46.0184 145.15 45.8926C145.258 45.7669 145.339 45.6211 145.391 45.4636C145.442 45.3061 145.462 45.1401 145.45 44.9749C145.437 44.8097 145.392 44.6486 145.317 44.5008C145.243 44.353 145.139 44.2214 145.014 44.1136C144.889 44.0057 144.743 43.9237 144.586 43.8721C144.429 43.8206 144.264 43.8006 144.099 43.8133L144.099 43.8133Z" fill="#F4C6B1"/>
<path d="M115.315 38.9927L144.277 36.4131C144.442 36.3987 144.602 36.3519 144.749 36.2754C144.896 36.1988 145.026 36.0939 145.132 35.9668C145.239 35.8397 145.319 35.6928 145.368 35.5346C145.418 35.3763 145.436 35.2098 145.421 35.0445C145.407 34.8793 145.36 34.7186 145.283 34.5716C145.207 34.4245 145.102 34.2941 144.975 34.1878C144.848 34.0815 144.701 34.0013 144.543 33.9518C144.385 33.9024 144.219 33.8847 144.054 33.8997L115.092 36.4794C114.77 36.5081 114.47 36.6605 114.257 36.9048C114.044 37.1492 113.932 37.4666 113.947 37.7911C113.961 38.1156 114.099 38.4221 114.333 38.6469C114.567 38.8716 114.878 38.9972 115.202 38.9976C115.239 38.9976 115.277 38.9963 115.315 38.9927Z" fill="#F4C6B1"/>
<path d="M84.1348 41.7653C84.172 41.7653 84.2096 41.764 84.2476 41.7605L109.941 39.4719C110.106 39.4572 110.266 39.4102 110.412 39.3335C110.559 39.2568 110.689 39.152 110.795 39.0249C110.901 38.8978 110.981 38.7511 111.03 38.593C111.08 38.4349 111.098 38.2686 111.083 38.1036C111.068 37.9386 111.021 37.778 110.945 37.6312C110.868 37.4843 110.764 37.354 110.637 37.2477C110.51 37.1414 110.364 37.0611 110.206 37.0115C110.049 36.9619 109.883 36.9439 109.718 36.9586L84.025 39.2472C83.7023 39.2759 83.4031 39.4283 83.1896 39.6726C82.9762 39.9169 82.865 40.2344 82.8791 40.5589C82.8933 40.8834 83.0317 41.19 83.2656 41.4147C83.4995 41.6394 83.8108 41.765 84.1348 41.7653H84.1348Z" fill="#F4C6B1"/>
<path d="M144.061 52.5667L103.733 55.8706C103.409 55.8971 103.108 56.048 102.893 56.2918C102.678 56.5356 102.565 56.8534 102.578 57.1788C102.591 57.5041 102.729 57.8118 102.963 58.0374C103.197 58.2631 103.509 58.3893 103.834 58.3896C103.868 58.3896 103.903 58.3883 103.938 58.3857L144.266 55.0818C144.599 55.0546 144.907 54.8959 145.123 54.6408C145.339 54.3857 145.445 54.055 145.418 53.7215C145.391 53.388 145.233 53.0789 144.978 52.8624C144.724 52.6458 144.394 52.5394 144.061 52.5667Z" fill="#F4C6B1"/>
<path d="M98.5962 56.6169L84.0248 57.9149C83.7022 57.9436 83.403 58.096 83.1896 58.3404C82.9762 58.5847 82.865 58.9022 82.8791 59.2267C82.8933 59.5512 83.0317 59.8577 83.2656 60.0824C83.4995 60.3071 83.8108 60.4327 84.1348 60.4331C84.172 60.4331 84.2096 60.4318 84.2476 60.4283L98.819 59.1303C99.1495 59.0983 99.4539 58.9366 99.666 58.6804C99.8781 58.4242 99.9807 58.0944 99.9513 57.7628C99.9219 57.4312 99.7629 57.1246 99.5091 56.91C99.2553 56.6953 98.9272 56.59 98.5962 56.6169Z" fill="#F4C6B1"/>
<path d="M157.885 58.4946L154.72 91.0391L150.517 134.232L52.2863 134.525L51.8463 128.964L46.8934 66.158C111.159 81.0209 157.885 58.4946 157.885 58.4946Z" fill="#FFC652"/>
<path d="M156.73 70.3711L150.517 134.231L52.2865 134.524L50.1469 107.488C50.1469 107.488 135.261 114.853 156.73 70.3711Z" fill="#F7A845"/>
<path d="M61.4767 91.4931C61.335 91.4931 61.1961 91.4532 61.0758 91.378C60.9556 91.3027 60.8588 91.1952 60.7964 91.0675C60.734 90.9399 60.7086 90.7973 60.7231 90.6559C60.7375 90.5145 60.7911 90.38 60.878 90.2677C62.0653 88.734 63.1353 87.1125 64.0789 85.4171C63.1996 85.4902 62.3154 85.3596 61.4946 85.0352C60.6737 84.7109 59.9383 84.2016 59.3451 83.5468C58.6483 82.7284 58.229 81.7092 58.1476 80.6363C58.0662 79.5633 58.327 78.4922 58.8923 77.5776C59.4364 76.8106 60.144 76.1747 60.9638 75.7161C62.885 74.514 65.169 74.0335 67.41 74.3601C68.5478 74.5385 69.6304 74.9736 70.5762 75.6325C71.5219 76.2915 72.3062 77.1571 72.8698 78.1641C74.6404 81.536 73.1667 85.5873 70.7954 87.8464C68.6273 89.9116 65.5141 91.1371 61.5438 91.4902C61.5211 91.4922 61.4984 91.4931 61.4767 91.4931ZM68.0857 77.0514C68.1585 77.0513 68.231 77.062 68.3007 77.0831C68.3961 77.1112 68.4851 77.158 68.5625 77.2207C68.6398 77.2834 68.7041 77.3608 68.7516 77.4485C68.799 77.5361 68.8288 77.6323 68.8391 77.7316C68.8494 77.8308 68.8401 77.9311 68.8117 78.0266C67.5763 82.2212 65.6611 86.1833 63.1428 89.7543C65.5958 89.4343 67.8973 88.3861 69.7517 86.7445C71.9978 84.6041 72.7623 81.2195 71.5292 78.8723C71.0767 78.0717 70.4488 77.3846 69.6929 76.8627C68.9369 76.3408 68.0727 75.9978 67.1654 75.8596C65.2785 75.5911 63.3579 76.0015 61.7441 77.0178C61.1168 77.3636 60.5729 77.8434 60.151 78.4233C59.771 79.0612 59.5995 79.8022 59.6605 80.5427C59.7215 81.2832 60.012 81.9861 60.4913 82.5527C61.014 83.1168 61.6786 83.5294 62.4152 83.7471C63.1518 83.9648 63.9333 83.9797 64.6776 83.7901C64.764 83.7667 64.8541 83.7603 64.943 83.7713C65.9242 81.7862 66.7328 79.7199 67.3596 77.5954C67.406 77.4383 67.5017 77.3005 67.6325 77.2025C67.7634 77.1044 67.9223 77.0514 68.0857 77.0514Z" fill="white"/>
<path d="M75.3349 91.0312C74.8974 91.0331 74.4642 90.9431 74.0634 90.7671C73.5921 90.5722 73.1936 90.2338 72.9241 89.7997V89.7988C72.667 89.226 72.5489 88.6002 72.5795 87.9728C72.6102 87.3454 72.7887 86.7343 73.1005 86.1894C73.4123 85.6446 73.8484 85.1816 74.3731 84.8385C74.8978 84.4953 75.4962 84.2818 76.1191 84.2153H76.126C76.6014 84.2019 77.0702 84.3287 77.4743 84.5802C77.8783 84.8317 78.1998 85.1966 78.3987 85.6298C78.6847 86.3016 78.7937 87.0358 78.7153 87.7621C78.6369 88.4883 78.3737 89.1821 77.9509 89.777C77.6377 90.1707 77.2396 90.488 76.7865 90.7052C76.3334 90.9225 75.8371 91.0339 75.3349 91.0312ZM74.2282 89.0273C74.3391 89.1859 74.4947 89.3078 74.675 89.3774C75.0326 89.5191 75.4256 89.5444 75.7983 89.4496C76.171 89.3547 76.5044 89.1447 76.7514 88.8492C77.003 88.4797 77.1606 88.054 77.2104 87.6094C77.2603 87.1648 77.2009 86.7147 77.0375 86.2984C76.9619 86.1209 76.8332 85.9714 76.6693 85.8704C76.5053 85.7694 76.3141 85.7219 76.1221 85.7346H76.1191C75.7546 85.7767 75.4066 85.9107 75.1076 86.1241C74.8087 86.3376 74.5686 86.6234 74.4097 86.9551C74.2071 87.2569 74.0842 87.6053 74.0524 87.9677C74.0207 88.3301 74.0811 88.6947 74.2282 89.0273Z" fill="white"/>
<path d="M134.428 91.7921C134.239 91.7919 134.057 91.721 133.917 91.5933C133.778 91.4656 133.691 91.2902 133.674 91.1017C133.633 90.6497 133.626 90.1967 133.629 89.7437C133.212 90.4533 132.584 91.0143 131.833 91.348C131.489 91.4745 131.121 91.5248 130.755 91.4953C130.389 91.4657 130.034 91.3571 129.714 91.1769C129.439 91.0327 129.193 90.8401 128.987 90.6081C128.709 90.8485 128.382 91.0239 128.029 91.1216C127.675 91.2193 127.305 91.2368 126.944 91.1729C126.613 91.0962 126.307 90.9356 126.056 90.7065C125.804 90.4773 125.616 90.1874 125.509 89.8643C125.11 90.2985 124.608 90.6244 124.049 90.8115C123.491 90.9987 122.895 91.041 122.316 90.9345C121.767 90.8047 121.27 90.5116 120.89 90.0938C120.648 90.4551 120.313 90.7438 119.921 90.9293C119.528 91.1148 119.093 91.1901 118.661 91.1472C118.231 91.1074 117.819 90.9558 117.466 90.7074C117.113 90.459 116.83 90.1223 116.647 89.7308C116.35 89.0902 116.257 88.3739 116.379 87.6784C115.545 87.9958 114.637 88.0604 113.766 87.8644C113.759 87.9494 113.753 88.0335 113.75 88.1186L113.834 89.9603C113.844 90.1553 113.778 90.3464 113.65 90.494C113.523 90.6415 113.343 90.7341 113.149 90.7526C112.956 90.7711 112.762 90.7139 112.609 90.5931C112.456 90.4723 112.356 90.297 112.328 90.1037C112.304 89.9415 112.285 89.7783 112.27 89.6151C111.988 89.9258 111.642 90.1721 111.257 90.3372C110.917 90.5043 110.538 90.5773 110.161 90.5486C109.783 90.5199 109.42 90.3906 109.108 90.174C108.836 89.9719 108.609 89.7136 108.445 89.4163C108.243 89.6643 107.993 89.8694 107.711 90.0197C107.429 90.17 107.12 90.2624 106.802 90.2917C106.562 90.3011 106.321 90.27 106.091 90.1997C105.726 90.1223 105.386 89.9561 105.1 89.7159C104.814 89.4756 104.591 89.1686 104.452 88.8219C104.07 89.3069 103.592 89.7062 103.047 89.9939C102.7 90.2028 102.3 90.3064 101.895 90.2922C101.491 90.278 101.099 90.1466 100.767 89.9138C100.616 89.8029 100.479 89.6726 100.361 89.5261C100.032 90.0051 99.5913 90.3956 99.0766 90.6632C98.5619 90.9307 97.9893 91.0671 97.4096 91.0602C97.1038 91.0548 96.8045 90.9708 96.5403 90.8164C96.2761 90.6619 96.0557 90.4421 95.9004 90.1779C95.8585 90.0976 95.8235 90.0139 95.7958 89.9276C95.1029 90.5315 94.2007 90.8374 93.2844 90.7792C92.8727 90.7652 92.4709 90.6487 92.1153 90.4401C91.7597 90.2315 91.4615 89.9374 91.2475 89.5844C91.1481 89.4128 91.0686 89.2303 91.0108 89.0404L90.9378 89.171C90.677 89.7148 90.3061 90.1981 89.8488 90.5903C89.5367 90.8513 89.1521 91.0094 88.7471 91.0432C88.3422 91.077 87.9367 90.9848 87.586 90.7792C87.2741 90.5448 87.0276 90.2339 86.8702 89.8764C86.7129 89.5188 86.6499 89.1267 86.6873 88.7377C86.6321 88.8089 86.5759 88.8792 86.5196 88.9484C85.8321 89.802 85.0025 90.0967 84.3012 89.7407C84.0713 89.6072 83.8763 89.421 83.7321 89.1973C83.5879 88.9736 83.4986 88.7188 83.4716 88.4539C82.8861 89.5281 81.9204 90.3433 80.7649 90.7387C80.4404 90.8602 80.0888 90.8902 79.7484 90.8253C79.4081 90.7605 79.092 90.6032 78.8345 90.3707C78.6503 90.1761 78.5259 89.9324 78.4762 89.6688C78.4265 89.4051 78.4536 89.1327 78.5544 88.8841C78.6339 88.6662 78.776 88.4768 78.9628 88.3398C79.1496 88.2028 79.3727 88.1245 79.6039 88.1146C79.7437 88.1099 79.8821 88.1442 80.0037 88.2136C80.1253 88.283 80.2253 88.3848 80.2928 88.5077C80.3602 88.6306 80.3923 88.7698 80.3857 88.91C80.379 89.0501 80.3337 89.1856 80.255 89.3015C80.2826 89.2956 80.3132 89.2877 80.3447 89.2788C81.2309 88.9195 81.9475 88.2356 82.3491 87.3659C82.5849 86.9346 82.7841 86.4836 82.9834 86.0336C83.2415 85.4169 83.539 84.8176 83.8741 84.2393C83.9697 84.0814 84.1195 83.9639 84.2953 83.9087C84.4712 83.8535 84.661 83.8645 84.8294 83.9395C84.9977 84.0146 85.133 84.1486 85.2099 84.3165C85.2868 84.4844 85.3001 84.6746 85.2472 84.8516C84.9398 85.888 84.8376 86.9746 84.9463 88.0503C84.9537 88.1643 84.9766 88.2768 85.0144 88.3846C85.0174 88.3193 85.1683 88.2086 85.3409 87.9939C86.3682 86.7199 87.2466 85.3321 87.9588 83.8575C88.0285 83.7127 88.1422 83.5937 88.2836 83.5178C88.425 83.4418 88.5868 83.4129 88.7457 83.4351C88.9045 83.4574 89.0523 83.5296 89.1676 83.6414C89.2828 83.7532 89.3597 83.8989 89.3872 84.0573C89.4475 84.6833 89.29 85.311 88.9413 85.8337C88.4598 86.719 88.2059 87.7106 88.2025 88.7189C88.2055 89.1996 88.312 89.44 88.4106 89.5043C88.4996 89.5298 88.5936 89.5322 88.6838 89.5115C88.774 89.4907 88.8575 89.4474 88.9265 89.3856C89.2141 89.1145 89.4475 88.7909 89.6141 88.4321L90.7021 86.4697C91.1231 85.4429 91.9257 84.6205 92.9402 84.176C92.9478 84.1723 92.9551 84.168 92.9619 84.1632C93.4705 83.879 94.0403 83.723 94.6223 83.7087C95.2043 83.6944 95.7811 83.8222 96.3029 84.0811C96.4024 84.0372 96.5112 84.0185 96.6196 84.0267C96.8156 84.0351 97.0008 84.1196 97.136 84.2622C97.2713 84.4048 97.346 84.5945 97.3446 84.7912C97.3446 84.8506 97.3436 84.9119 97.3436 84.9742C97.3959 85.0824 97.4219 85.2014 97.4195 85.3216C97.4171 85.4418 97.3864 85.5596 97.3298 85.6656C97.3179 86.0737 97.284 86.4808 97.2282 86.8851C97.2045 87.6537 97.2006 88.4242 97.2173 89.1897C97.2153 89.2843 97.2236 89.3788 97.242 89.4716C97.3248 89.5176 97.4175 89.5427 97.5122 89.5448C98.3881 89.615 99.1911 88.7506 99.6093 87.8792C99.6606 87.7724 99.7089 87.6626 99.7553 87.5528C99.7594 87.4197 99.7712 87.2869 99.7908 87.1552C100.003 86.1334 100.432 85.1692 101.047 84.3274C101.154 84.1591 101.322 84.0394 101.515 83.9941C101.709 83.9489 101.912 83.9817 102.082 84.0855C102.252 84.1893 102.374 84.3557 102.422 84.549C102.471 84.7423 102.441 84.9469 102.341 85.1187C102.033 85.6936 101.784 86.298 101.597 86.9228C101.494 87.2254 101.392 87.5281 101.277 87.8258C101.28 87.9866 101.315 88.1453 101.38 88.2925C101.444 88.4396 101.538 88.5722 101.655 88.6823C101.716 88.7268 101.909 88.8663 102.368 88.6349C103.449 88.0928 104.204 86.443 104.81 85.1177C104.942 84.8288 105.067 84.5539 105.189 84.3036C105.233 84.2139 105.294 84.1336 105.369 84.0674C105.443 84.0013 105.53 83.9506 105.625 83.9181C105.719 83.8857 105.818 83.8722 105.918 83.8784C106.017 83.8847 106.115 83.9105 106.204 83.9544C106.293 83.9984 106.373 84.0596 106.439 84.1345C106.505 84.2095 106.556 84.2967 106.588 84.3913C106.62 84.4858 106.633 84.5858 106.627 84.6855C106.621 84.7852 106.595 84.8826 106.551 84.9723C106.337 85.4942 106.186 86.0397 106.1 86.5974C106.036 86.9198 105.973 87.2343 105.897 87.5231C105.682 88.3431 105.94 88.5815 106.492 88.7348C106.571 88.7555 106.651 88.7688 106.732 88.7744C106.982 88.7635 107.445 88.4015 107.997 87.447C107.999 87.3975 108.003 87.3481 108.007 87.2996C108.209 86.0324 108.702 84.8297 109.447 83.7864C109.541 83.6321 109.688 83.5168 109.86 83.4613C110.032 83.4057 110.218 83.4137 110.385 83.4836C110.551 83.5536 110.688 83.6809 110.769 83.8427C110.85 84.0045 110.871 84.1901 110.828 84.366C110.538 85.5387 110.112 86.6733 109.559 87.7467C109.545 87.7744 109.531 87.8021 109.517 87.8298C109.526 88.2494 109.698 88.649 109.996 88.9435C110.063 88.991 110.244 89.1186 110.661 88.9405C111.448 88.6022 111.753 87.5963 112.105 86.4302C112.332 85.3497 112.827 84.3437 113.542 83.5045C113.671 83.3784 113.84 83.3022 114.02 83.2897C114.199 83.2772 114.377 83.3292 114.522 83.4362C114.666 83.5433 114.769 83.6985 114.81 83.8741C114.851 84.0497 114.828 84.2342 114.746 84.3946C114.426 85.0204 114.179 85.6812 114.01 86.3639C114.392 86.4652 114.79 86.4885 115.181 86.4325C115.572 86.3765 115.948 86.2423 116.286 86.0378C116.624 85.8334 116.918 85.5629 117.15 85.2424C117.382 84.9219 117.548 84.5579 117.637 84.1721C117.659 84.0749 117.701 83.9832 117.759 83.9021C117.817 83.821 117.89 83.7521 117.974 83.6994C118.059 83.6466 118.153 83.6111 118.251 83.5948C118.349 83.5785 118.45 83.5818 118.546 83.6044C118.643 83.627 118.735 83.6685 118.816 83.7265C118.897 83.7846 118.965 83.8581 119.018 83.9428C119.07 84.0274 119.106 84.1217 119.122 84.2201C119.138 84.3185 119.135 84.4191 119.113 84.5163L119.108 84.5361C118.95 85.1202 118.738 85.6881 118.474 86.2324C118.008 87.2778 117.604 88.1809 118.024 89.0968C118.095 89.2436 118.203 89.3697 118.337 89.4636C118.47 89.5575 118.625 89.6161 118.787 89.6339C119.636 89.6744 120.025 88.6369 120.179 87.9752C120.194 87.8705 120.216 87.7671 120.245 87.6656C120.299 87.478 120.422 87.3183 120.59 87.2196C120.758 87.1209 120.957 87.0907 121.146 87.1354C121.336 87.18 121.501 87.296 121.607 87.4594C121.714 87.6228 121.753 87.8209 121.718 88.0127C121.704 88.0869 121.69 88.1611 121.674 88.2333C121.665 88.4443 121.719 88.6531 121.83 88.8327C121.919 88.9849 122.037 89.118 122.177 89.2244C122.317 89.3308 122.477 89.4085 122.647 89.4528C123.016 89.5016 123.39 89.4493 123.732 89.3014C124.073 89.1536 124.368 88.9157 124.585 88.6131C124.691 88.4615 124.775 88.2961 124.835 88.1215C124.579 88.1191 124.325 88.0852 124.077 88.0206C123.777 87.9441 123.496 87.8053 123.253 87.6131C123.01 87.4209 122.809 87.1796 122.665 86.9049C122.502 86.5686 122.437 86.1935 122.475 85.8219C122.5 85.3534 122.653 84.9009 122.918 84.5141C123.182 84.1273 123.549 83.8214 123.976 83.63C124.346 83.4172 124.779 83.3434 125.199 83.4219C125.618 83.5003 125.996 83.7259 126.265 84.0583C126.345 84.1641 126.414 84.2778 126.47 84.3976C126.619 84.4098 126.76 84.4655 126.877 84.5579C126.994 84.6502 127.082 84.7751 127.128 84.9168V84.9178C127.232 85.248 127.266 85.5962 127.228 85.9402C127.19 86.2842 127.08 86.6164 126.907 86.9158C126.793 87.583 126.766 88.2623 126.827 88.9365C126.864 89.1897 126.968 89.623 127.269 89.6892C127.578 89.7684 128.114 89.5082 128.497 88.9118C128.577 88.7874 128.692 88.6893 128.827 88.6294C128.962 88.5695 129.112 88.5504 129.257 88.5746C129.403 88.5987 129.538 88.6651 129.647 88.7654C129.756 88.8657 129.833 88.9957 129.868 89.1393C129.907 89.2852 129.975 89.4217 130.068 89.5401C130.162 89.6586 130.278 89.7565 130.411 89.8277C130.542 89.9112 130.69 89.9636 130.843 89.9807C130.997 89.9979 131.153 89.9794 131.299 89.9266C132.011 89.5077 132.554 88.8508 132.832 88.0711C132.69 88.1013 132.547 88.1191 132.403 88.1245C131.975 88.1306 131.553 88.0181 131.185 87.7992C130.817 87.5803 130.516 87.2636 130.316 86.8841C130.084 86.5081 129.959 86.0754 129.955 85.6332C129.951 85.1909 130.068 84.756 130.294 84.3758C130.535 84.0344 130.856 83.757 131.229 83.5673C131.601 83.3777 132.014 83.2814 132.431 83.2868C133.011 83.2898 133.574 83.4787 134.039 83.8259C134.12 83.7446 134.218 83.683 134.326 83.646C134.434 83.6089 134.549 83.5974 134.662 83.6122C134.761 83.6241 134.857 83.6554 134.943 83.7042C135.03 83.7531 135.106 83.8187 135.168 83.8971C135.229 83.9756 135.274 84.0654 135.301 84.1615C135.328 84.2575 135.335 84.3579 135.323 84.4569C135.161 85.5857 135.099 86.7266 135.137 87.8663C135.161 88.3382 135.155 88.8119 135.149 89.2857C135.131 89.8451 135.142 90.405 135.183 90.9632C135.201 91.1638 135.139 91.3635 135.011 91.5183C134.882 91.6732 134.698 91.7705 134.498 91.7891C134.474 91.7911 134.45 91.7921 134.428 91.7921ZM93.609 85.5459C93.2343 85.8133 92.9279 86.1655 92.7146 86.5741C92.5014 86.9826 92.3874 87.4359 92.3819 87.897C92.3531 88.2138 92.4133 88.5324 92.5555 88.8168C92.6455 88.9542 92.7682 89.067 92.9125 89.1449C93.0568 89.2227 93.2182 89.2633 93.3821 89.2629C93.694 89.2843 94.0063 89.2301 94.2929 89.105C94.5794 88.9798 94.8317 88.7874 95.0285 88.5439C95.4098 88.0115 95.6474 87.3894 95.718 86.7378C95.7298 86.3768 95.7462 86.0161 95.7673 85.6557C95.0983 85.3415 94.3341 85.299 93.6346 85.537L93.609 85.5459ZM132.4 84.8061C132.241 84.7958 132.081 84.8256 131.937 84.8928C131.792 84.96 131.667 85.0625 131.572 85.1908C131.498 85.3378 131.465 85.5017 131.475 85.6659C131.485 85.8302 131.538 85.9888 131.629 86.1255C131.697 86.2598 131.799 86.3745 131.923 86.4587C132.048 86.543 132.192 86.5941 132.341 86.6072C132.825 86.5874 133.204 86.169 133.461 85.6043C133.432 85.4792 133.384 85.3594 133.318 85.2492C133.216 85.1056 133.08 84.9899 132.922 84.9125C132.765 84.8351 132.59 84.7985 132.414 84.8061L132.4 84.8061ZM124.935 84.9366C124.802 84.9485 124.671 84.9823 124.548 85.0365C124.383 85.1232 124.245 85.252 124.146 85.41C124.047 85.568 123.992 85.7494 123.986 85.9356C123.971 86.0302 123.981 86.127 124.015 86.2165C124.067 86.3022 124.136 86.3766 124.217 86.4354C124.298 86.4941 124.39 86.5361 124.488 86.5587C124.724 86.6268 124.977 86.6154 125.207 86.5261C125.322 86.0087 125.271 85.4679 125.062 84.9811C125.045 84.9646 125.026 84.952 125.004 84.9443C124.982 84.9365 124.958 84.9339 124.935 84.9366V84.9366Z" fill="white"/>
<path d="M80.6156 117.112C80.4746 117.111 80.3364 117.072 80.2165 116.998C80.0966 116.923 79.9998 116.817 79.9369 116.69C79.3413 115.301 79.2833 113.739 79.7742 112.309L79.9419 111.697C80.3897 110.071 80.8336 108.458 81.2686 106.818C81.3663 106.447 81.4748 106.039 81.6099 105.617C81.745 104.448 81.8618 103.28 81.9601 102.112C81.9773 101.912 82.0731 101.726 82.2264 101.597C82.3796 101.467 82.5779 101.404 82.7777 101.421C82.9774 101.437 83.1624 101.533 83.2921 101.686C83.4218 101.84 83.4855 102.038 83.4693 102.239C83.4604 102.35 83.4506 102.461 83.4407 102.573C83.767 102.313 84.1483 102.13 84.5554 102.04C84.9626 101.95 85.3849 101.954 85.7903 102.052C86.1001 102.126 86.3865 102.276 86.6236 102.489C86.8608 102.702 87.0412 102.972 87.1486 103.272C87.4592 104.262 87.4056 105.33 86.9977 106.284C86.8015 106.784 86.7014 107.316 86.7027 107.854L86.1997 108.574L86.7659 108.068C86.9533 108.281 87.0647 108.257 87.12 108.247C87.3421 108.149 87.5414 108.006 87.705 107.826C87.8686 107.647 87.9929 107.435 88.0699 107.204C88.5169 105.814 89.2476 104.533 90.2154 103.441C90.5023 103.012 90.8871 102.657 91.3379 102.406C91.7203 102.208 92.142 102.099 92.572 102.086C93.002 102.074 93.4294 102.158 93.8227 102.333C94.2334 102.509 94.5894 102.794 94.8535 103.155C94.9126 102.876 94.9817 102.598 95.0655 102.324C95.1173 102.161 95.2218 102.02 95.3624 101.923C95.503 101.827 95.6717 101.78 95.8418 101.79C96.0123 101.802 96.1738 101.872 96.3 101.987C96.4262 102.103 96.5099 102.257 96.5373 102.427C96.6389 103.325 96.4673 104.233 96.045 105.032C95.9377 105.649 95.7634 106.253 95.5252 106.832C95.5105 107.095 95.5593 107.357 95.6673 107.597C95.7753 107.836 95.9394 108.046 96.1457 108.209C96.3025 108.314 96.485 108.374 96.6734 108.382C96.8618 108.39 97.0488 108.346 97.2139 108.254C97.9509 107.804 98.4908 107.092 98.7251 106.259L98.8474 105.964C98.8829 105.876 98.9194 105.787 98.9579 105.695C98.9931 105.104 99.1549 104.527 99.4324 104.003C99.7098 103.48 100.096 103.022 100.566 102.662C100.831 102.458 101.144 102.326 101.475 102.278C101.805 102.23 102.143 102.269 102.455 102.389C102.916 102.611 103.287 102.987 103.504 103.452C103.583 103.602 103.61 103.775 103.58 103.942C103.549 104.109 103.464 104.261 103.337 104.374C103.211 104.487 103.05 104.554 102.881 104.564C102.712 104.575 102.544 104.528 102.404 104.431C101.994 104.148 101.794 104.209 101.731 104.229C101.242 104.374 100.78 105.296 100.458 106.04C100.454 106.458 100.573 106.869 100.799 107.221C101.014 107.518 101.302 107.756 101.634 107.912C101.967 108.068 102.333 108.137 102.699 108.112C102.978 108.113 103.252 108.04 103.493 107.9C103.735 107.761 103.935 107.56 104.074 107.319C104.342 106.699 104.475 106.029 104.465 105.354C104.454 104.679 104.3 104.014 104.013 103.403C103.789 102.956 103.535 102.526 103.251 102.116C102.69 101.36 102.274 100.505 102.025 99.5967C101.891 99.0751 101.916 98.5255 102.096 98.0181C102.273 97.6103 102.551 97.2543 102.904 96.9836C103.256 96.7128 103.671 96.5362 104.11 96.4702C104.743 96.3729 105.387 96.3699 106.022 96.4613C106.97 96.5565 107.924 96.5958 108.877 96.579C109.275 96.5929 109.672 96.5387 110.051 96.4188C110.17 96.3814 110.279 96.3181 110.37 96.2335C110.462 96.1488 110.533 96.0449 110.58 95.9292C110.631 95.7348 110.756 95.5685 110.929 95.4669C111.102 95.3653 111.309 95.3366 111.503 95.3872C111.697 95.4377 111.863 95.5633 111.965 95.7365C112.066 95.9097 112.096 96.1163 112.046 96.311C111.941 96.6607 111.756 96.9809 111.506 97.2455C111.255 97.5102 110.946 97.7118 110.603 97.8342C110.057 98.0229 109.481 98.1123 108.904 98.0982C107.943 98.1052 106.993 98.0775 106.063 97.9914C105.513 97.9022 104.953 97.8922 104.4 97.9618C104.214 97.9838 104.036 98.0501 103.881 98.1553C103.726 98.2604 103.598 98.4013 103.508 98.5661C103.441 98.7958 103.44 99.0399 103.504 99.2703C103.72 99.9961 104.064 100.677 104.518 101.282C104.84 101.752 105.129 102.244 105.383 102.754C105.782 103.588 105.989 104.502 105.988 105.427C105.986 106.352 105.777 107.265 105.376 108.098C105.11 108.555 104.732 108.935 104.277 109.203C103.823 109.471 103.307 109.618 102.78 109.629C102.153 109.669 101.527 109.546 100.96 109.274C100.394 109.002 99.9066 108.588 99.5448 108.073L99.5291 108.049C99.1437 108.732 98.5612 109.283 97.8581 109.629C97.4555 109.832 97.0062 109.924 96.5564 109.896C96.1067 109.868 95.6725 109.72 95.2984 109.468C94.9737 109.247 94.6996 108.96 94.4944 108.625C94.1378 109.111 93.6367 109.471 93.0631 109.654C92.695 109.745 92.3113 109.752 91.9398 109.676C91.5684 109.6 91.2185 109.441 90.9157 109.213C90.2653 108.774 89.8087 108.101 89.6413 107.333C89.592 107.46 89.5426 107.591 89.4943 107.724C89.3332 108.204 89.0591 108.638 88.6952 108.989C88.3314 109.339 87.8885 109.597 87.4041 109.74C87.077 109.799 86.7399 109.77 86.4283 109.653C86.1168 109.537 85.8422 109.339 85.6335 109.079C85.4904 108.919 85.3783 108.733 85.303 108.531C85.2402 108.348 85.2027 108.156 85.1916 107.962C85.1715 107.233 85.2945 106.506 85.5536 105.824C85.8498 105.188 85.9103 104.467 85.7242 103.791C85.6999 103.721 85.6572 103.659 85.6008 103.611C85.5444 103.564 85.4763 103.533 85.4037 103.521C85.2287 103.483 85.0478 103.485 84.8735 103.525C84.6991 103.565 84.5357 103.643 84.3946 103.753C83.769 104.355 83.3197 105.117 83.0955 105.957C82.6812 109.502 82.0982 113.038 81.3564 116.511C81.3201 116.681 81.2267 116.834 81.0919 116.943C80.9571 117.052 80.789 117.112 80.6156 117.112L80.6156 117.112ZM91.3793 104.42C91.1211 104.889 90.9907 105.418 91.0015 105.954C91.0153 106.996 91.2461 107.61 91.7512 107.945C92.2809 108.296 92.562 108.218 92.6517 108.192C93.2534 108.022 93.7812 106.982 94.0278 106.46C94.0938 105.902 94.2448 105.357 94.4756 104.845C94.3142 104.845 94.1566 104.795 94.0253 104.701C93.8939 104.607 93.7954 104.474 93.7437 104.321C93.7011 104.205 93.6293 104.102 93.5352 104.023C93.4411 103.943 93.3281 103.889 93.2071 103.867C92.9247 103.802 92.6314 103.801 92.349 103.866C92.0665 103.93 91.8022 104.058 91.5756 104.238C91.5095 104.297 91.4444 104.357 91.3793 104.42V104.42Z" fill="white"/>
<path d="M109.694 109.667C109.43 109.667 109.167 109.63 108.912 109.558C108.488 109.43 108.095 109.217 107.758 108.93C107.42 108.643 107.145 108.29 106.949 107.892C106.817 107.627 106.727 107.342 106.684 107.049C106.634 106.467 106.709 105.881 106.905 105.331C107.1 104.781 107.411 104.279 107.817 103.86C108.154 103.438 108.591 103.108 109.089 102.901C109.587 102.694 110.129 102.617 110.665 102.677C111.197 102.764 111.68 103.044 112.022 103.463C112.363 103.882 112.541 104.411 112.52 104.952C112.61 105.613 112.62 106.282 112.55 106.945C112.461 107.736 112.091 108.468 111.507 109.007C111.001 109.437 110.358 109.671 109.694 109.667ZM110.227 104.157C109.98 104.184 109.741 104.26 109.523 104.38C109.306 104.5 109.114 104.663 108.959 104.858C108.702 105.114 108.5 105.421 108.366 105.759C108.232 106.097 108.169 106.46 108.182 106.823L108.183 106.826C108.203 106.962 108.244 107.093 108.305 107.215C108.406 107.424 108.548 107.61 108.723 107.762C108.898 107.913 109.103 108.027 109.323 108.096C109.527 108.155 109.742 108.163 109.95 108.122C110.157 108.08 110.352 107.989 110.518 107.857C110.823 107.557 111.012 107.158 111.051 106.731C111.1 106.188 111.088 105.641 111.013 105.1C110.935 104.31 110.793 104.244 110.393 104.171C110.338 104.161 110.283 104.156 110.227 104.157Z" fill="white"/>
<path d="M122.109 109.441C121.812 109.442 121.517 109.389 121.238 109.284C119.62 108.676 120.136 106.951 120.384 106.121L120.491 105.749C120.533 105.583 120.586 105.421 120.64 105.262C120.776 104.853 120.824 104.67 120.753 104.502C120.65 104.254 120.588 104.207 120.577 104.2C120.538 104.174 120.495 104.157 120.449 104.15C120.403 104.143 120.356 104.147 120.312 104.162C119.876 104.383 119.529 104.748 119.329 105.194C118.939 106.181 118.61 107.191 118.345 108.218C118.295 108.404 118.177 108.563 118.013 108.665C117.85 108.766 117.655 108.802 117.467 108.765C117.278 108.727 117.111 108.62 116.999 108.463C116.887 108.307 116.838 108.114 116.863 107.923C117.326 104.367 116.735 103.973 116.73 103.969C116.609 103.995 116.498 104.05 116.403 104.129C116.308 104.207 116.234 104.308 116.185 104.421C115.771 105.321 115.469 106.269 115.285 107.244C115.179 107.698 115.074 108.143 114.956 108.559C114.903 108.739 114.787 108.894 114.628 108.993C114.469 109.093 114.279 109.131 114.095 109.099C113.91 109.067 113.744 108.967 113.629 108.818C113.514 108.67 113.458 108.484 113.471 108.296C113.483 108.141 113.753 104.485 114.139 102.624C114.178 102.439 114.283 102.276 114.434 102.165C114.586 102.054 114.774 102.004 114.96 102.023C115.147 102.043 115.32 102.131 115.445 102.272C115.57 102.412 115.639 102.594 115.639 102.782C115.802 102.67 115.982 102.584 116.172 102.529C116.434 102.441 116.714 102.422 116.986 102.473C117.258 102.524 117.512 102.644 117.724 102.821C118.033 103.108 118.253 103.478 118.356 103.888C118.727 103.337 119.266 102.921 119.892 102.703C120.138 102.629 120.396 102.608 120.651 102.643C120.905 102.677 121.149 102.766 121.366 102.904C121.728 103.147 122.003 103.501 122.15 103.912C122.365 104.509 122.338 105.166 122.076 105.743C122.034 105.868 121.992 105.994 121.959 106.124C121.925 106.258 121.882 106.404 121.835 106.558C121.531 107.573 121.572 107.788 121.769 107.862C121.895 107.908 122.028 107.928 122.162 107.921C122.295 107.914 122.426 107.879 122.545 107.82C123.171 107.509 123.282 106.823 123.412 105.73C123.448 104.928 123.662 104.143 124.039 103.434C124.049 103.419 124.058 103.404 124.067 103.389C124.237 102.992 124.492 102.637 124.812 102.349C125.133 102.061 125.513 101.846 125.925 101.72C126.346 101.622 126.782 101.612 127.207 101.69C127.632 101.769 128.036 101.935 128.395 102.177C128.437 102.005 128.539 101.855 128.681 101.751C128.824 101.647 128.998 101.597 129.174 101.61C129.375 101.622 129.562 101.714 129.695 101.865C129.828 102.016 129.896 102.214 129.884 102.415C129.867 102.698 129.847 102.993 129.819 103.295C129.839 103.323 129.858 103.351 129.876 103.379C129.978 103.534 130.019 103.72 129.993 103.903C129.967 104.086 129.875 104.253 129.735 104.373C129.72 104.387 129.703 104.4 129.685 104.413C129.643 104.683 129.59 104.956 129.527 105.228C129.468 105.747 129.486 106.272 129.582 106.785L129.628 107.014C129.652 107.233 129.714 107.445 129.812 107.641C130.018 107.711 130.236 107.732 130.451 107.703C130.666 107.675 130.871 107.597 131.051 107.476C131.473 107.199 131.788 106.787 131.943 106.306C132.009 106.116 132.148 105.959 132.328 105.871C132.509 105.783 132.718 105.771 132.908 105.837C133.098 105.903 133.254 106.042 133.341 106.224C133.429 106.405 133.441 106.614 133.375 106.805C133.106 107.62 132.563 108.316 131.838 108.774C131.426 109.038 130.952 109.193 130.463 109.224C129.974 109.255 129.486 109.161 129.043 108.95C128.681 108.724 128.416 108.372 128.298 107.961C127.999 108.34 127.611 108.64 127.169 108.832C126.811 108.971 126.426 109.028 126.044 108.997C125.661 108.966 125.29 108.849 124.959 108.654C124.718 108.528 124.505 108.354 124.333 108.143C124.074 108.593 123.686 108.954 123.22 109.181C122.875 109.353 122.495 109.442 122.109 109.441ZM125.396 104.135C125.357 104.233 125.324 104.333 125.298 104.436C125.03 105.51 125.132 107.031 125.659 107.307C125.794 107.4 125.949 107.46 126.112 107.481C126.274 107.502 126.439 107.483 126.593 107.427C127.264 106.972 127.73 106.271 127.889 105.474C127.941 105.31 127.988 105.144 128.029 104.976C128.066 104.606 128.121 104.241 128.176 103.88C128.032 103.763 127.882 103.654 127.726 103.553C127.482 103.458 127.22 103.418 126.959 103.434C126.662 103.424 126.367 103.482 126.097 103.604C125.826 103.725 125.586 103.907 125.396 104.135L125.396 104.135Z" fill="white"/>
<path d="M18.1504 146.196L20.05 122.265L184.729 119.825L186.629 122.265V148.636H20.05L18.1504 146.196ZM173.425 136.443C174.233 136.443 175.023 136.203 175.695 135.753C176.368 135.302 176.891 134.662 177.201 133.913C177.51 133.165 177.591 132.341 177.433 131.546C177.276 130.751 176.886 130.02 176.315 129.447C175.743 128.874 175.015 128.484 174.222 128.326C173.429 128.167 172.607 128.249 171.861 128.559C171.114 128.869 170.476 129.394 170.026 130.068C169.577 130.742 169.338 131.535 169.338 132.345C169.338 132.883 169.443 133.416 169.649 133.913C169.854 134.411 170.155 134.862 170.535 135.243C170.914 135.624 171.365 135.925 171.861 136.131C172.357 136.337 172.888 136.443 173.425 136.443Z" fill="#2435A1"/>
<path d="M18.1504 119.825H184.729V146.196H18.1504V119.825ZM171.835 138.037C172.643 138.037 173.434 137.797 174.106 137.347C174.778 136.896 175.302 136.256 175.611 135.507C175.92 134.759 176.001 133.935 175.844 133.14C175.686 132.345 175.297 131.614 174.725 131.041C174.154 130.468 173.425 130.078 172.632 129.92C171.84 129.761 171.018 129.843 170.271 130.153C169.524 130.463 168.886 130.988 168.437 131.662C167.988 132.336 167.748 133.129 167.748 133.939C167.748 134.477 167.854 135.01 168.059 135.507C168.264 136.005 168.565 136.456 168.945 136.837C169.325 137.218 169.775 137.519 170.271 137.725C170.767 137.931 171.298 138.037 171.835 138.037Z" fill="#49B3F7"/>
<path d="M175.809 134.863C175.602 135.765 175.097 136.57 174.375 137.147C173.653 137.723 172.758 138.037 171.835 138.037C170.912 138.037 170.017 137.723 169.295 137.147C168.573 136.57 168.068 135.765 167.861 134.863H18.1504V146.195H184.729V134.863H175.809Z" fill="#378FDD"/>
<path d="M155.627 119.825H152.875V133.01H155.627V119.825Z" fill="white"/>
<path d="M131.79 119.825H129.038V133.01H131.79V119.825Z" fill="white"/>
<path d="M107.954 119.825H105.202V133.01H107.954V119.825Z" fill="white"/>
<path d="M84.1171 119.825H81.3648V133.01H84.1171V119.825Z" fill="white"/>
<path d="M60.2811 119.825H57.5289V133.01H60.2811V119.825Z" fill="white"/>
<path d="M36.4444 119.825H33.6921V133.01H36.4444V119.825Z" fill="white"/>
<path d="M143.783 119.825H141.031V128.651H143.783V119.825Z" fill="white"/>
<path d="M119.946 119.825H117.194V128.651H119.946V119.825Z" fill="white"/>
<path d="M96.1099 119.825H93.3577V128.651H96.1099V119.825Z" fill="white"/>
<path d="M72.2731 119.825H69.5209V128.651H72.2731V119.825Z" fill="white"/>
<path d="M48.4364 119.825H45.6842V128.651H48.4364V119.825Z" fill="white"/>
<path d="M162.221 28.9272H141.031V134.561H162.221V28.9272Z" fill="#E94B36"/>
<path d="M156.386 28.9272H147.151V134.561H156.386V28.9272Z" fill="#FF6551"/>
<path d="M162.221 28.9272H156.387V134.561H162.221V28.9272Z" fill="#E94B36"/>
<path d="M162.221 134.561H141.031L150.073 157.269C150.224 157.648 150.486 157.972 150.824 158.199C151.162 158.426 151.561 158.545 151.968 158.54C152.375 158.535 152.771 158.406 153.104 158.171C153.437 157.936 153.69 157.606 153.832 157.223L162.221 134.561Z" fill="#FFBF94"/>
<path d="M157.117 148.35H146.522L150.073 157.269C150.224 157.648 150.486 157.972 150.825 158.199C151.163 158.426 151.562 158.544 151.969 158.539C152.376 158.534 152.772 158.406 153.104 158.171C153.437 157.936 153.691 157.605 153.833 157.223L157.117 148.35Z" fill="#5B5B5C"/>
<path d="M162.221 28.9272H141.031V33.8954H162.221V28.9272Z" fill="#2435A1"/>
<path d="M145.663 19.9302H157.588C158.817 19.9302 159.995 20.4196 160.864 21.2907C161.733 22.1618 162.221 23.3432 162.221 24.5751V28.9262H141.031V24.5751C141.031 23.3432 141.519 22.1618 142.388 21.2907C143.256 20.4196 144.435 19.9302 145.663 19.9302Z" fill="#F7A845"/>
</g>
<defs>
<filter id="filter0_d_320_78090" x="0" y="0" width="204" height="181" filterUnits="userSpaceOnUse" color-interpolation-filters="sRGB">
<feFlood flood-opacity="0" result="BackgroundImageFix"/>
<feColorMatrix in="SourceAlpha" type="matrix" values="0 0 0 0 0 0 0 0 0 0 0 0 0 0 0 0 0 0 127 0" result="hardAlpha"/>
<feOffset dy="4"/>
<feGaussianBlur stdDeviation="2"/>
<feComposite in2="hardAlpha" operator="out"/>
<feColorMatrix type="matrix" values="0 0 0 0 0 0 0 0 0 0 0 0 0 0 0 0 0 0 0.25 0"/>
<feBlend mode="normal" in2="BackgroundImageFix" result="effect1_dropShadow_320_78090"/>
<feBlend mode="normal" in="SourceGraphic" in2="effect1_dropShadow_320_78090" result="shape"/>
</filter>
</defs>
</svg>
