<svg width="179" height="158" viewBox="0 0 179 158" fill="none" xmlns="http://www.w3.org/2000/svg">
<g filter="url(#filter0_d_320_72706)">
<path d="M145.798 136.662C137.413 141.612 126.573 139.5 116.733 140.58C108.419 141.493 100.645 144.765 92.686 147.2C84.7269 149.635 76.0056 151.234 68.0597 148.761C62.6014 147.063 57.9979 143.59 52.8612 141.165C46.6626 138.237 39.7742 136.873 33.3056 134.515C26.837 132.158 20.4507 128.464 17.4475 122.595C13.8362 115.537 15.9118 107.153 14.5468 99.4299C13.0062 90.7136 7.14793 83.1873 4.69593 74.6567C2.96356 68.6298 4.761 61.5177 6.85442 55.6696C9.0665 49.49 15.2157 42.5473 21.1411 38.9515C23.0743 37.7783 24.9835 36.6031 26.8094 35.276C27.6093 34.6945 31.819 32.1508 31.819 31.2299C36.5456 26.956 39.3826 21.5057 43.4898 16.7726C47.7514 11.8617 53.9891 8.67983 60.5311 7.11931C66.455 5.68699 72.5153 4.89502 78.608 4.75703C85.1515 4.6551 91.4975 5.22677 97.8112 3.11559C99.1367 2.67235 100.422 2.1299 101.744 1.67555C110.671 -1.39159 122.625 -0.0482506 130.969 4.08126C134.153 5.65699 136.818 8.00323 139.385 10.3705C142.571 13.1754 145.355 16.4063 147.659 19.972C149.767 23.4116 150.435 27.5171 153.122 30.7456C154.926 32.9137 156.701 35.2953 158.489 37.3865C161.252 40.6179 165.508 42.1708 168.135 45.6919C170.78 49.2363 172.038 53.564 172.909 57.7584C174.024 63.1285 174.648 68.6339 174.051 74.0762C173.095 82.7839 168.216 89.2579 163.229 96.3435C161.568 98.7041 159.898 101.147 159.26 103.912C159.005 105.238 158.848 106.581 158.791 107.929C158.484 111.86 157.429 115.481 156.635 119.289C155.241 125.979 152.189 132.89 145.798 136.662Z" fill="#EFF2FD"/>
<path d="M36.408 49.0396L36.3295 46.1776C36.3183 45.7705 36.5584 45.4379 36.8587 45.4444L55.7625 45.8578C56.0477 45.864 56.2819 46.1751 56.2925 46.5619L56.4038 50.6238L36.408 49.0396Z" fill="#545554"/>
<path d="M57.9565 49.6495L57.8211 46.7142C57.8043 46.3485 58.0145 46.0455 58.2844 46.0464L77.2999 46.106C77.5563 46.1068 77.772 46.3825 77.788 46.7299L77.9785 50.8591L57.9565 49.6495Z" fill="#545554"/>
<path d="M78.439 122.207L78.7428 125.13C78.7807 125.494 78.5883 125.809 78.3187 125.823L59.3313 126.858C59.0752 126.872 58.844 126.609 58.8081 126.263L58.3806 122.152L78.439 122.207Z" fill="#545554"/>
<path d="M23.252 125.675L24.5067 125.633L28.7543 125.49L42.7477 125.022L80.706 123.745L110.199 122.756L114.25 122.622H114.253L153.11 121.316V49.6906L152.351 49.6796L119.039 49.2884L50.8251 48.4799L47.2825 48.4377L23.252 48.1523V125.675Z" fill="#5B5B5C"/>
<path d="M147.73 117.512L28.6343 121.389V52.4355L147.73 53.8031V117.512Z" fill="#49B3F7"/>
<path d="M30.6652 98.9899V78.2217C30.6652 77.3614 29.9684 76.6641 29.1087 76.6641H28.0711C27.2114 76.6641 26.5145 77.3614 26.5145 78.2217V98.9899C26.5145 99.8501 27.2114 100.547 28.0711 100.547H29.1087C29.9684 100.547 30.6652 99.8501 30.6652 98.9899Z" fill="#5B5B5C"/>
<g style="mix-blend-mode:multiply" opacity="0.15">
<path d="M82.961 123.669L153.11 121.316V70.479C144.501 86.9131 127.56 107.482 82.961 123.669Z" fill="#00879F"/>
</g>
<g style="mix-blend-mode:screen" opacity="0.28">
<path d="M23.252 125.674L24.5066 125.632C59.8034 98.7019 94.4122 70.479 119.039 49.2884L23.252 48.1519V125.674Z" fill="#BFE6F6"/>
</g>
<path d="M172.728 108.859C131.963 109.495 91.1981 110.083 50.4322 110.625C49.7934 110.606 49.1882 110.335 48.7487 109.87C48.3092 109.406 48.0712 108.787 48.0866 108.147C47.6796 80.2565 47.6454 52.3671 47.9838 24.4791C47.9668 23.8399 48.2034 23.2199 48.6417 22.7546C49.0801 22.2894 49.6847 22.0167 50.3234 21.9961C91.0902 22.4493 131.857 22.9435 172.622 23.4789C173.248 23.5014 173.839 23.7714 174.266 24.2295C174.693 24.6877 174.92 25.2966 174.899 25.9226C174.573 52.7538 174.606 79.5828 174.998 106.41C175.021 107.036 174.795 107.645 174.37 108.104C173.944 108.564 173.353 108.835 172.728 108.859Z" fill="#243976"/>
<path d="M112.421 111.711C111.228 111.729 110.631 111.737 109.438 111.755C108.018 111.728 106.666 111.138 105.68 110.115C104.694 109.091 104.154 107.719 104.178 106.297C104.17 106.114 104.197 105.93 104.26 105.757C104.322 105.584 104.417 105.425 104.541 105.29C104.665 105.154 104.814 105.044 104.98 104.965C105.146 104.887 105.326 104.842 105.51 104.834C109.761 104.779 111.886 104.752 116.138 104.697C116.508 104.704 116.86 104.858 117.118 105.124C117.375 105.391 117.516 105.749 117.51 106.119C117.575 107.536 117.075 108.92 116.121 109.968C115.167 111.016 113.836 111.643 112.421 111.711Z" fill="#243976"/>
<path d="M171.109 106.672C130.344 107.276 89.5783 107.835 48.8121 108.35C48.1732 108.33 47.5681 108.058 47.1289 107.594C46.6898 107.129 46.4523 106.509 46.4683 105.869C46.082 77.9665 46.0685 50.0651 46.4278 22.1654C46.4112 21.5259 46.6481 20.9059 47.0868 20.4407C47.5255 19.9755 48.1304 19.703 48.7692 19.6826C89.5359 20.1603 130.302 20.6814 171.067 21.2459C171.693 21.269 172.284 21.5397 172.71 21.9984C173.137 22.4571 173.364 23.0664 173.342 23.6925C172.996 50.5379 173.009 77.3813 173.381 104.223C173.404 104.849 173.177 105.459 172.751 105.918C172.325 106.377 171.735 106.648 171.109 106.672Z" fill="#864FF1"/>
<path d="M110.8 109.478C110.24 109.486 109.96 109.49 109.401 109.498C107.981 109.47 106.63 108.879 105.645 107.855C104.66 106.831 104.121 105.458 104.146 104.037C104.129 103.666 104.259 103.304 104.509 103.029C104.759 102.755 105.108 102.591 105.478 102.574C109.095 102.53 110.904 102.508 114.521 102.464C114.892 102.471 115.244 102.626 115.501 102.893C115.758 103.16 115.899 103.518 115.893 103.888C115.956 105.305 115.456 106.689 114.501 107.737C113.546 108.785 112.215 109.411 110.8 109.478Z" fill="#864FF1"/>
<path d="M171.109 106.671C150.531 106.976 129.952 107.27 109.373 107.554C108.947 78.5079 108.933 49.4635 109.33 20.4209C129.91 20.6854 150.489 20.9602 171.068 21.2452C171.693 21.2683 172.284 21.539 172.711 21.9977C173.137 22.4564 173.364 23.0657 173.342 23.6918C172.996 50.5372 173.009 77.3806 173.382 104.222C173.404 104.848 173.178 105.458 172.752 105.917C172.326 106.376 171.735 106.647 171.109 106.671Z" fill="#864FF1"/>
<path d="M170.363 102.664C130.503 103.2 90.6419 103.698 50.7807 104.157C49.9884 76.0054 49.5764 47.85 49.5447 19.691C50.5437 17.5341 51.0443 16.4564 52.047 14.3022C71.4467 20.3273 90.8714 26.2689 110.321 32.1273C129.854 26.6423 149.415 21.2625 169.004 15.988C169.827 18.0924 170.24 19.1439 171.067 21.2452C170.461 48.3833 170.226 75.5227 170.363 102.664Z" fill="#ECB891"/>
<path d="M52.0481 14.3022C51.5936 43.7286 51.5546 73.1533 51.9311 102.576C71.4295 102.36 90.9278 102.135 110.426 101.902C110.084 74.9983 110.092 48.0962 110.452 21.1959C110.524 19.6338 109.973 18.1071 108.921 16.9507C107.869 15.7943 106.402 15.1026 104.841 15.0274C87.2438 14.7775 69.646 14.5358 52.0481 14.3022Z" fill="#FFF2EA"/>
<path d="M104.659 96.4937C87.0611 96.6733 69.4625 96.8474 51.864 97.0159C51.864 97.0159 51.0837 101.672 50.782 104.157C69.8201 103.946 91.3085 103.738 110.397 103.442V101.903C110.282 100.449 109.631 99.0908 108.57 98.0912C107.51 97.0915 106.116 96.5221 104.659 96.4937Z" fill="#FFD7BD"/>
<path d="M169.005 15.9876C168.563 44.3834 168.525 72.7776 168.891 101.17C149.393 101.423 129.895 101.666 110.397 101.902C110.054 74.998 110.063 48.0956 110.423 21.1951C110.396 19.6309 110.991 18.1202 112.077 16.9945C113.162 15.8688 114.65 15.2201 116.213 15.1909C133.81 15.4483 151.408 15.7139 169.005 15.9876Z" fill="#FFE0CC"/>
<path d="M110.423 21.1952C110.063 48.0993 110.054 75.0016 110.397 101.902C111.421 100.09 111.934 99.185 112.961 97.3759C112.652 70.287 112.704 43.2006 113.116 16.1167C113.116 16.1167 110.729 16.9816 110.423 21.1952Z" fill="#FFCFB3"/>
<path d="M116.031 96.3757C133.629 96.1909 151.227 96.0006 168.825 95.8047L170.364 102.663C150.876 102.915 129.914 101.667 110.426 101.902C110.504 100.448 111.122 99.0747 112.159 98.0525C113.195 97.0302 114.576 96.4322 116.031 96.3757Z" fill="#ECB891"/>
<path d="M169.122 97.0742C157.249 97.5729 145.102 98.0731 133.229 98.5745C145.11 98.6877 157.66 98.7956 169.541 98.8983L169.122 97.0742Z" fill="#DA9E7B"/>
<path d="M169.837 100.317C161.053 100.686 151.698 101.056 142.913 101.427C151.703 101.511 161.35 101.59 170.14 101.666L169.837 100.317Z" fill="#DA9E7B"/>
<path d="M51.7098 97.9526C65.7743 98.1251 80.017 98.2902 94.0817 98.448C80.0248 98.913 65.4806 99.2719 51.4236 99.7368L51.7098 97.9526Z" fill="#ECB891"/>
<path d="M51.1927 101.228C61.2243 101.351 71.9511 101.469 81.9829 101.581C71.9567 101.913 61.0203 102.245 50.994 102.576L51.1927 101.228Z" fill="#ECB891"/>
<path d="M63.7514 91.3603C63.5376 67.9827 63.5875 44.2658 63.8984 20.8687L64.9545 20.8821C64.6436 44.2718 64.5943 67.9807 64.8074 91.3508L63.7514 91.3603Z" fill="#49B3F7"/>
<path d="M91.846 91.1265C91.6336 67.9177 91.6828 44.3917 91.9923 21.2031L93.0484 21.2166C92.7395 44.3978 92.6903 67.9157 92.902 91.1171L91.846 91.1265Z" fill="#49B3F7"/>
<path d="M105.589 30.2736C89.1803 30.113 72.7716 29.9568 56.3629 29.8052L56.3724 28.748C72.7817 28.8993 89.1909 29.0554 105.6 29.2165L105.589 30.2736Z" fill="#49B3F7"/>
<path d="M105.477 43.2311C89.0681 43.1339 72.6589 43.0396 56.25 42.9482L56.2554 41.8911C72.6648 41.9822 89.0744 42.0765 105.484 42.174L105.477 43.2311Z" fill="#49B3F7"/>
<path d="M56.1977 55.0352L56.1956 56.0923L105.424 56.1886L105.427 55.1314L56.1977 55.0352Z" fill="#49B3F7"/>
<path d="M105.422 68.1018L56.1927 68.1646L56.1941 69.2217L105.423 69.1589L105.422 68.1018Z" fill="#49B3F7"/>
<path d="M56.2514 82.377L56.246 81.3199C72.6554 81.2307 89.0646 81.1389 105.474 81.0444L105.48 82.1016C89.0702 82.1961 72.6606 82.2879 56.2514 82.377Z" fill="#49B3F7"/>
<path d="M97.547 42.1766C96.6379 42.1697 95.7526 41.8845 95.0101 41.3594C94.9248 41.2997 94.8521 41.2239 94.7961 41.1361C94.7401 41.0484 94.702 40.9504 94.6838 40.8479C94.6471 40.6408 94.6941 40.4277 94.8145 40.2553C94.9349 40.083 95.1187 39.9655 95.3256 39.9288C95.5325 39.8921 95.7455 39.9392 95.9178 40.0596C96.2427 40.2986 96.6169 40.4619 97.013 40.5376C97.4092 40.6132 97.8172 40.5993 98.2072 40.4969C98.5863 40.3765 98.9278 40.1599 99.1986 39.8683C99.4693 39.5767 99.66 39.2199 99.7522 38.8327C99.7994 38.6096 99.782 38.3776 99.7022 38.1639C99.6225 37.9502 99.4836 37.7637 99.3017 37.6261C98.89 37.2555 98.4047 36.9761 97.8775 36.8062C97.3504 36.6363 96.7933 36.5797 96.2428 36.6402C96.114 36.6728 95.9791 36.6725 95.8504 36.6393C95.7218 36.6061 95.6036 36.541 95.5066 36.45C95.4097 36.3591 95.3372 36.2452 95.2958 36.1189C95.2544 35.9925 95.2454 35.8578 95.2697 35.7271C95.4931 34.7178 95.5986 33.686 95.584 32.6525C95.5789 32.5423 95.5968 32.4324 95.6366 32.3296C95.6763 32.2268 95.7369 32.1333 95.8146 32.0552C95.8915 31.976 95.9845 31.9142 96.0874 31.8742C96.1903 31.8341 96.3006 31.8167 96.4107 31.8231L100.375 31.9985C100.585 32.0078 100.782 32.1002 100.924 32.2554C101.066 32.4106 101.141 32.6158 101.131 32.8259C101.122 33.036 101.03 33.2339 100.875 33.3759C100.72 33.5179 100.515 33.5924 100.305 33.5831L97.1674 33.4441C97.1415 33.9716 97.0859 34.4973 97.0008 35.0185C98.2667 35.1187 99.4639 35.6352 100.406 36.4877C100.778 36.817 101.057 37.2389 101.214 37.7106C101.371 38.1823 101.401 38.6872 101.301 39.1743C101.112 40.0285 100.636 40.7923 99.9534 41.3385C99.2705 41.8848 98.4213 42.1806 97.547 42.1767L97.547 42.1766Z" fill="#FF6551"/>
<path d="M107.144 37.3291H107.138L102.818 37.2953C102.608 37.2936 102.408 37.2088 102.261 37.0596C102.114 36.9104 102.031 36.7089 102.032 36.4991C102.033 36.2894 102.117 36.0885 102.265 35.9404C102.413 35.7923 102.614 35.7091 102.824 35.709H102.83L107.15 35.7427C107.36 35.7445 107.56 35.8292 107.707 35.9784C107.854 36.1277 107.937 36.3292 107.936 36.5389C107.935 36.7487 107.851 36.9496 107.703 37.0977C107.554 37.2457 107.354 37.3289 107.144 37.3291Z" fill="#FF6551"/>
<path d="M104.887 39.7037H104.881C104.777 39.7029 104.674 39.6816 104.578 39.641C104.482 39.6004 104.395 39.5414 104.322 39.4672C104.249 39.393 104.191 39.3051 104.152 39.2086C104.113 39.1121 104.093 39.0088 104.094 38.9047L104.134 34.2178C104.134 34.1134 104.155 34.0099 104.195 33.9136C104.235 33.8172 104.294 33.7299 104.369 33.6567C104.443 33.5836 104.532 33.526 104.629 33.4875C104.726 33.4489 104.829 33.4302 104.934 33.4323C105.038 33.4333 105.141 33.4547 105.237 33.4955C105.332 33.5362 105.419 33.5955 105.492 33.6698C105.565 33.7441 105.622 33.8321 105.661 33.9286C105.7 34.0252 105.72 34.1285 105.719 34.2327L105.679 38.9168C105.677 39.1261 105.593 39.3262 105.445 39.4736C105.296 39.621 105.096 39.7037 104.887 39.7037Z" fill="#FF6551"/>
<path d="M98.9536 68.1797C98.0548 68.1727 97.1791 67.8944 96.4409 67.3814C96.2683 67.2619 96.1501 67.0789 96.1122 66.8724C96.0743 66.6658 96.1198 66.4527 96.2388 66.2797C96.3577 66.1067 96.5403 65.988 96.7466 65.9496C96.9529 65.9112 97.166 65.9562 97.3391 66.0748C97.6659 66.3113 98.0414 66.4717 98.4381 66.5442C98.8349 66.6167 99.2428 66.5995 99.632 66.4939C100.01 66.3709 100.349 66.152 100.618 65.8586C100.886 65.5652 101.073 65.2072 101.162 64.8196C101.207 64.5961 101.187 64.3645 101.106 64.1517C101.024 63.9389 100.884 63.7537 100.701 63.6177C100.286 63.2497 99.7985 62.9737 99.2696 62.8079C98.7408 62.6422 98.1828 62.5904 97.6325 62.656C97.504 62.6896 97.3692 62.6904 97.2404 62.6582C97.1115 62.6259 96.9929 62.5618 96.8953 62.4717C96.7977 62.3816 96.7243 62.2683 96.6819 62.1424C96.6395 62.0165 96.6295 61.8819 96.6526 61.7511C96.8674 60.7404 96.964 59.7081 96.9406 58.6751C96.9344 58.565 96.9512 58.4548 96.99 58.3516C97.0289 58.2484 97.0888 58.1544 97.166 58.0757C97.2432 57.997 97.3359 57.9352 97.4383 57.8945C97.5407 57.8537 97.6505 57.8348 97.7606 57.8389L101.727 57.9841C101.831 57.9878 101.933 58.012 102.027 58.0553C102.122 58.0986 102.207 58.1602 102.278 58.2365C102.349 58.3128 102.404 58.4023 102.44 58.4999C102.477 58.5975 102.493 58.7013 102.489 58.8053C102.478 59.0143 102.387 59.2109 102.233 59.3533C102.08 59.4958 101.878 59.573 101.669 59.5686L98.5308 59.4539C98.5094 59.9812 98.4583 60.5068 98.3777 61.0283C99.6446 61.1184 100.846 61.6252 101.795 62.4698C102.171 62.7958 102.453 63.2152 102.614 63.6856C102.775 64.1559 102.809 64.6605 102.713 65.1483C102.531 66.0092 102.057 66.7809 101.372 67.3331C100.687 67.8853 99.8331 68.1843 98.9536 68.1797L98.9536 68.1797Z" fill="#FF6551"/>
<path d="M87.9855 39.2826H87.9781L68.9589 39.1502C68.6793 39.1482 68.4119 39.0354 68.2153 38.8364C68.0187 38.6375 67.9088 38.3686 67.9098 38.0888C67.9108 37.8089 68.0225 37.5408 68.2205 37.3433C68.4186 37.1457 68.6867 37.0347 68.9663 37.0347H68.9737L87.9929 37.167C88.2727 37.1687 88.5403 37.2814 88.7372 37.4804C88.9341 37.6794 89.0441 37.9484 89.0431 38.2285C89.0421 38.5085 88.9302 38.7768 88.732 38.9744C88.5337 39.172 88.2653 39.2828 87.9855 39.2826H87.9855Z" fill="#F4C6B1"/>
<path d="M68.8686 65.2756C68.5888 65.275 68.3207 65.1633 68.123 64.9651C67.9254 64.7669 67.8143 64.4982 67.8142 64.2182C67.8141 63.9381 67.925 63.6694 68.1225 63.471C68.3201 63.2727 68.5881 63.1608 68.8679 63.16L87.8878 63.1499H87.8885C88.1683 63.1505 88.4364 63.2622 88.6341 63.4604C88.8318 63.6587 88.9428 63.9273 88.9429 64.2074C88.943 64.4874 88.8321 64.7561 88.6346 64.9545C88.437 65.1528 88.169 65.2647 87.8892 65.2655L68.8693 65.2756H68.8686Z" fill="#F4C6B1"/>
<path d="M122.301 90.8632C122.089 67.8575 122.138 44.5481 122.446 21.5815L123.502 21.5964C123.195 44.5542 123.146 67.8561 123.357 90.8537L122.301 90.8632Z" fill="#47A7E5"/>
<path d="M150.397 90.6102C150.189 67.8293 150.237 44.7277 150.541 21.9468L151.597 21.9603C151.294 44.7338 151.245 67.8272 151.453 90.6008L150.397 90.6102Z" fill="#47A7E5"/>
<path d="M164.136 30.877C147.727 30.7022 131.318 30.5321 114.91 30.3667L114.92 29.3096C131.329 29.4743 147.738 29.6444 164.147 29.8199L164.136 30.877Z" fill="#47A7E5"/>
<path d="M164.028 43.5961C147.619 43.4901 131.21 43.3873 114.801 43.2876L114.807 42.2305C131.216 42.3304 147.625 42.4332 164.035 42.539L164.028 43.5961Z" fill="#47A7E5"/>
<path d="M114.748 55.1509L114.746 56.208L163.974 56.3137L163.976 55.2566L114.748 55.1509Z" fill="#47A7E5"/>
<path d="M163.972 67.961L114.744 68.0864L114.746 69.1435L163.975 69.0182L163.972 67.961Z" fill="#47A7E5"/>
<path d="M114.802 82.0484L114.796 80.9912C131.205 80.894 147.614 80.7946 164.024 80.6929L164.031 81.75C147.621 81.8519 131.212 81.9514 114.802 82.0484Z" fill="#47A7E5"/>
<path d="M159.14 55.4578H159.118C159.014 55.4549 158.911 55.4315 158.816 55.389C158.721 55.3464 158.635 55.2855 158.564 55.2098C158.492 55.1341 158.436 55.0451 158.399 54.9478C158.362 54.8504 158.345 54.7467 158.347 54.6426C158.388 53.1876 158.43 51.7016 158.509 50.2007C157.821 50.1555 157.123 50.1798 156.394 50.2048C155.879 50.221 155.361 50.2358 154.837 50.2324C154.712 50.2309 154.589 50.1998 154.478 50.1418C154.368 50.0838 154.272 50.0004 154.2 49.8985C154.128 49.7966 154.081 49.6791 154.062 49.5554C154.044 49.4318 154.055 49.3056 154.095 49.1871C154.564 47.7809 154.748 46.2951 154.636 44.8167C154.62 44.6071 154.688 44.3997 154.825 44.2401C154.962 44.0805 155.157 43.9818 155.366 43.9657C155.576 43.9496 155.783 44.0174 155.943 44.1542C156.102 44.291 156.201 44.4856 156.217 44.6953C156.317 46.0163 156.21 47.3448 155.901 48.633C156.049 48.629 156.195 48.6243 156.342 48.6195C157.057 48.5952 157.79 48.5716 158.536 48.6135L158.727 47.2374C158.756 47.032 158.864 46.846 159.028 46.7192C159.192 46.5925 159.399 46.535 159.605 46.5592C159.81 46.5834 159.998 46.6873 160.129 46.8486C160.259 47.0099 160.321 47.2159 160.301 47.4223C160.066 49.8653 159.998 52.3163 159.932 54.6871C159.926 54.8934 159.84 55.0892 159.692 55.2331C159.545 55.377 159.347 55.4576 159.14 55.4578Z" fill="#ED614E"/>
<path d="M157.538 80.8496C156.649 80.8434 155.782 80.5751 155.045 80.0783C154.871 79.9614 154.749 79.7799 154.708 79.5736C154.667 79.3673 154.71 79.1531 154.827 78.9783C154.944 78.8034 155.125 78.6821 155.331 78.6411C155.537 78.6001 155.751 78.6427 155.926 78.7596C156.257 78.9918 156.635 79.1483 157.033 79.2179C157.432 79.2876 157.84 79.2686 158.23 79.1625C158.604 79.0437 158.94 78.83 159.206 78.5424C159.473 78.2547 159.66 77.9029 159.75 77.5213C159.792 77.3098 159.773 77.0909 159.696 76.8898C159.618 76.6887 159.485 76.5138 159.312 76.3855C158.889 76.0203 158.394 75.7471 157.86 75.5831C157.326 75.4191 156.763 75.3678 156.208 75.4326C156.079 75.466 155.945 75.4666 155.816 75.4343C155.687 75.4021 155.569 75.3381 155.471 75.2481C155.374 75.1581 155.3 75.045 155.258 74.9193C155.215 74.7935 155.205 74.6591 155.227 74.5283C155.438 73.5379 155.53 72.5259 155.503 71.5137C155.496 71.4036 155.512 71.2934 155.551 71.19C155.589 71.0865 155.648 70.9923 155.725 70.9131C155.883 70.7575 156.097 70.6711 156.319 70.6729L160.284 70.7991C160.389 70.8024 160.491 70.8261 160.586 70.869C160.681 70.9119 160.766 70.973 160.837 71.049C160.909 71.1249 160.964 71.2142 161.001 71.3116C161.038 71.4091 161.055 71.5129 161.052 71.617C161.049 71.7211 161.025 71.8236 160.982 71.9185C160.939 72.0135 160.878 72.0991 160.802 72.1704C160.726 72.2417 160.637 72.2973 160.54 72.3342C160.442 72.371 160.339 72.3882 160.235 72.385L157.095 72.2851C157.076 72.7944 157.028 73.3023 156.951 73.8062C158.228 73.8925 159.442 74.3956 160.406 75.2382C160.772 75.5561 161.047 75.9649 161.204 76.4233C161.361 76.8818 161.395 77.3737 161.301 77.8492C161.153 78.5079 160.835 79.116 160.378 79.6126C159.921 80.1091 159.341 80.4766 158.698 80.6782C158.322 80.7928 157.931 80.8506 157.538 80.8496Z" fill="#ED614E"/>
<path d="M146.46 52.5223H146.456L127.437 52.4554C127.157 52.4544 126.889 52.3423 126.692 52.1437C126.494 51.945 126.384 51.6761 126.384 51.396C126.385 51.1158 126.496 50.8472 126.694 50.6492C126.892 50.4512 127.161 50.34 127.441 50.3398H127.444L146.464 50.4067C146.744 50.4077 147.013 50.5199 147.21 50.7186C147.407 50.9173 147.518 51.1863 147.517 51.4665C147.517 51.7467 147.405 52.0153 147.207 52.2132C147.009 52.4112 146.74 52.5223 146.46 52.5223H146.46Z" fill="#E2B9A7"/>
<path d="M127.455 78.1283C127.175 78.1286 126.906 78.0176 126.708 77.8197C126.51 77.6218 126.398 77.3532 126.397 77.0729C126.397 76.7926 126.507 76.5235 126.705 76.3247C126.902 76.1259 127.17 76.0137 127.45 76.0127L146.47 75.9243H146.475C146.755 75.924 147.024 76.035 147.222 76.2329C147.42 76.4308 147.532 76.6994 147.533 76.9798C147.533 77.2601 147.423 77.5292 147.225 77.7279C147.028 77.9267 146.76 78.0389 146.48 78.0399L127.46 78.1283H127.455Z" fill="#E2B9A7"/>
</g>
<defs>
<filter id="filter0_d_320_72706" x="-6.10352e-05" y="0" width="179" height="158" filterUnits="userSpaceOnUse" color-interpolation-filters="sRGB">
<feFlood flood-opacity="0" result="BackgroundImageFix"/>
<feColorMatrix in="SourceAlpha" type="matrix" values="0 0 0 0 0 0 0 0 0 0 0 0 0 0 0 0 0 0 127 0" result="hardAlpha"/>
<feOffset dy="4"/>
<feGaussianBlur stdDeviation="2"/>
<feComposite in2="hardAlpha" operator="out"/>
<feColorMatrix type="matrix" values="0 0 0 0 0 0 0 0 0 0 0 0 0 0 0 0 0 0 0.25 0"/>
<feBlend mode="normal" in2="BackgroundImageFix" result="effect1_dropShadow_320_72706"/>
<feBlend mode="normal" in="SourceGraphic" in2="effect1_dropShadow_320_72706" result="shape"/>
</filter>
</defs>
</svg>
