<svg width="205" height="181" viewBox="0 0 205 181" fill="none" xmlns="http://www.w3.org/2000/svg">
<g filter="url(#filter0_d_320_78142)">
<path d="M167.358 157.617C157.698 163.326 145.21 160.89 133.874 162.136C124.295 163.189 115.34 166.963 106.171 169.771C97.0013 172.579 86.9539 174.423 77.8 171.571C71.5117 169.612 66.2082 165.608 60.2905 162.81C53.1495 159.434 45.2137 157.86 37.7616 155.141C30.3095 152.422 22.9521 148.162 19.4923 141.393C15.332 133.253 17.7231 123.583 16.1505 114.676C14.3758 104.623 7.62674 95.9427 4.80192 86.1041C2.80615 79.153 4.87689 70.9505 7.28861 64.2056C9.83702 57.0785 16.9212 49.0712 23.7475 44.9241C25.9746 43.571 28.1742 42.2156 30.2776 40.6849C31.1992 40.0143 36.049 37.0806 36.049 36.0185C41.4942 31.0892 44.7626 24.8033 49.4943 19.3444C54.4038 13.6804 61.59 10.0107 69.1267 8.21094C75.9512 6.55899 82.933 5.64559 89.9521 5.48644C97.4905 5.36888 104.801 6.02821 112.075 3.59331C113.602 3.08211 115.083 2.45648 116.606 1.93247C126.89 -1.60497 140.661 -0.055649 150.274 4.70705C153.943 6.5244 157.012 9.23039 159.97 11.9607C163.64 15.1956 166.848 18.9219 169.502 23.0343C171.931 27.0014 172.7 31.7364 175.795 35.4599C177.873 37.9604 179.918 40.7073 181.979 43.1191C185.162 46.8459 190.064 48.6369 193.091 52.698C196.138 56.7859 197.588 61.7772 198.591 66.6147C199.875 72.8083 200.595 79.1578 199.907 85.4345C198.805 95.4775 193.185 102.944 187.44 111.116C185.526 113.839 183.602 116.657 182.867 119.845C182.573 121.374 182.392 122.923 182.327 124.479C181.973 129.012 180.758 133.188 179.843 137.58C178.236 145.296 174.721 153.266 167.358 157.617Z" fill="#EFF2FD"/>
<path d="M41.3356 56.5586L41.2452 53.2578C41.2323 52.7883 41.5089 52.4047 41.8548 52.4122L63.6329 52.8889C63.9614 52.8961 64.2312 53.255 64.2435 53.701L64.3717 58.3858L41.3356 56.5586Z" fill="#545554"/>
<path d="M66.1602 57.2621L66.0042 53.8767C65.9848 53.4549 66.227 53.1055 66.5379 53.1064L88.4446 53.1752C88.74 53.1762 88.9886 53.4941 89.007 53.8948L89.2265 58.6571L66.1602 57.2621Z" fill="#545554"/>
<path d="M89.7567 140.945L90.1068 144.316C90.1504 144.736 89.9287 145.099 89.6182 145.115L67.7437 146.309C67.4488 146.325 67.1824 146.022 67.141 145.623L66.6486 140.881L89.7567 140.945Z" fill="#545554"/>
<path d="M26.179 144.944L27.6245 144.895L32.5179 144.73L48.6389 144.191L92.3686 142.718L126.346 141.578L131.013 141.423H131.016L175.781 139.916V57.3088L174.908 57.2961L136.53 56.8449L57.9445 55.9124L53.8633 55.8638L26.179 55.5347V144.944Z" fill="#5B5B5C"/>
<path d="M169.583 135.529L32.3797 140.001V60.4751L169.583 62.0524V135.529Z" fill="#49B3F7"/>
<path d="M34.7194 114.168V90.2154C34.7194 89.2232 33.9166 88.4189 32.9263 88.4189H31.7308C30.7405 88.4189 29.9376 89.2232 29.9376 90.2154V114.168C29.9376 115.16 30.7405 115.964 31.7308 115.964H32.9263C33.9166 115.964 34.7194 115.16 34.7194 114.168Z" fill="#5B5B5C"/>
<g style="mix-blend-mode:multiply" opacity="0.15">
<path d="M94.9664 142.631L175.781 139.917V81.2852C165.864 100.239 146.346 123.962 94.9664 142.631Z" fill="#00879F"/>
</g>
<g style="mix-blend-mode:screen" opacity="0.28">
<path d="M26.179 144.943L27.6244 144.895C68.2879 113.835 108.159 81.2848 136.53 56.845L26.179 55.5342V144.943Z" fill="#BFE6F6"/>
</g>
<path d="M198.382 125.551C151.42 126.284 104.456 126.963 57.4919 127.588C56.756 127.566 56.0587 127.253 55.5524 126.717C55.0461 126.182 54.7719 125.467 54.7896 124.73C54.3208 92.5628 54.2813 60.3971 54.6712 28.2329C54.6516 27.4956 54.9242 26.7806 55.4292 26.244C55.9342 25.7074 56.6307 25.3929 57.3665 25.3691C104.332 25.8918 151.296 26.4619 198.261 27.0793C198.981 27.1053 199.662 27.4166 200.154 27.945C200.646 28.4734 200.908 29.1757 200.883 29.8977C200.508 60.843 200.546 91.7859 200.998 122.726C201.024 123.448 200.764 124.151 200.273 124.681C199.783 125.21 199.103 125.523 198.382 125.551Z" fill="#243976"/>
<path d="M128.905 128.839C127.531 128.86 126.843 128.87 125.469 128.891C123.832 128.859 122.276 128.179 121.14 126.999C120.004 125.818 119.382 124.235 119.409 122.596C119.4 122.384 119.431 122.173 119.503 121.973C119.575 121.774 119.685 121.59 119.827 121.434C119.97 121.277 120.142 121.15 120.333 121.06C120.525 120.97 120.732 120.918 120.943 120.908C125.841 120.845 128.29 120.814 133.187 120.75C133.614 120.758 134.02 120.936 134.316 121.243C134.612 121.551 134.775 121.963 134.768 122.391C134.843 124.024 134.267 125.621 133.168 126.83C132.069 128.039 130.536 128.761 128.905 128.839Z" fill="#243976"/>
<path d="M196.517 123.028C149.554 123.724 102.59 124.37 55.6254 124.963C54.8894 124.941 54.1922 124.627 53.6863 124.091C53.1804 123.555 52.9068 122.84 52.9253 122.102C52.4802 89.9209 52.4647 57.7413 52.8787 25.5636C52.8595 24.8262 53.1324 24.1111 53.6378 23.5745C54.1432 23.038 54.84 22.7237 55.576 22.7002C102.541 23.2511 149.506 23.8521 196.469 24.5031C197.19 24.5299 197.871 24.842 198.362 25.371C198.853 25.9001 199.115 26.6028 199.09 27.3249C198.691 58.2866 198.706 89.246 199.135 120.203C199.161 120.925 198.9 121.628 198.409 122.158C197.918 122.688 197.238 123 196.517 123.028Z" fill="#864FF1"/>
<path d="M127.038 126.265C126.393 126.274 126.071 126.279 125.427 126.288C123.791 126.255 122.234 125.574 121.099 124.393C119.964 123.212 119.343 121.628 119.372 119.989C119.353 119.562 119.503 119.144 119.791 118.827C120.079 118.511 120.48 118.322 120.907 118.303C125.075 118.252 127.158 118.227 131.326 118.175C131.752 118.184 132.158 118.362 132.454 118.67C132.75 118.978 132.912 119.391 132.905 119.818C132.979 121.452 132.402 123.048 131.302 124.257C130.202 125.466 128.668 126.188 127.038 126.265Z" fill="#864FF1"/>
<path d="M196.518 123.027C172.81 123.379 149.102 123.718 125.394 124.046C124.904 90.5455 124.888 57.0475 125.345 23.5518C149.054 23.8568 172.762 24.1737 196.47 24.5024C197.191 24.5291 197.871 24.8413 198.363 25.3703C198.854 25.8993 199.116 26.6021 199.09 27.3242C198.691 58.2859 198.707 89.2453 199.136 120.203C199.162 120.925 198.901 121.628 198.41 122.157C197.919 122.687 197.239 123 196.518 123.027Z" fill="#864FF1"/>
<path d="M195.658 118.406C149.737 119.024 103.816 119.599 57.8936 120.128C56.9809 87.6599 56.5063 55.1874 56.4697 22.7106C57.6207 20.223 58.1973 18.98 59.3525 16.4956C81.7018 23.4445 104.08 30.2972 126.487 37.0538C148.99 30.7278 171.525 24.5231 194.092 18.4398C195.041 20.8669 195.516 22.0796 196.469 24.5032C195.771 55.8024 195.5 87.1032 195.658 118.406Z" fill="#ECB891"/>
<path d="M59.3534 16.4956C58.8298 50.434 58.7849 84.3705 59.2186 118.305C81.6817 118.055 104.145 117.796 126.608 117.527C126.213 86.4984 126.223 55.4713 126.638 24.4463C126.72 22.6446 126.086 20.8838 124.874 19.5501C123.662 18.2164 121.972 17.4187 120.174 17.3319C99.9004 17.0438 79.627 16.765 59.3534 16.4956Z" fill="#FFF2EA"/>
<path d="M119.964 111.289C99.6901 111.496 79.4158 111.697 59.1414 111.891C59.1414 111.891 58.2424 117.261 57.8949 120.128C79.8276 119.884 104.583 119.645 126.574 119.302V117.527C126.441 115.851 125.691 114.284 124.47 113.132C123.248 111.979 121.642 111.322 119.964 111.289Z" fill="#FFD7BD"/>
<path d="M194.093 18.4388C193.584 51.1886 193.541 83.9367 193.962 116.683C171.499 116.974 149.037 117.255 126.574 117.527C126.179 86.4975 126.189 55.4701 126.604 24.4448C126.573 22.6408 127.259 20.8985 128.509 19.6001C129.76 18.3018 131.473 17.5537 133.274 17.52C153.547 17.8169 173.82 18.1231 194.093 18.4388Z" fill="#FFE0CC"/>
<path d="M126.604 24.4447C126.189 55.474 126.179 86.5014 126.574 117.527C127.754 115.437 128.344 114.393 129.527 112.306C129.172 81.0638 129.231 49.8242 129.707 18.5874C129.707 18.5874 126.956 19.5849 126.604 24.4447Z" fill="#FFCFB3"/>
<path d="M133.064 111.153C153.338 110.94 173.612 110.721 193.886 110.495L195.658 118.405C173.207 118.696 149.058 117.255 126.607 117.527C126.697 115.849 127.409 114.266 128.603 113.087C129.797 111.908 131.388 111.218 133.064 111.153Z" fill="#ECB891"/>
<path d="M194.228 111.958C180.55 112.534 166.556 113.11 152.878 113.689C166.565 113.819 181.023 113.944 194.71 114.062L194.228 111.958Z" fill="#DA9E7B"/>
<path d="M195.052 115.698C184.932 116.124 174.154 116.551 164.034 116.978C174.16 117.075 185.274 117.167 195.4 117.255L195.052 115.698Z" fill="#DA9E7B"/>
<path d="M58.9631 112.972C75.1661 113.171 91.5743 113.361 107.777 113.543C91.5832 114.079 74.8277 114.493 58.6333 115.029L58.9631 112.972Z" fill="#ECB891"/>
<path d="M58.3677 116.75C69.9246 116.891 82.2824 117.027 93.8395 117.157C82.2887 117.54 69.6895 117.922 58.1387 118.304L58.3677 116.75Z" fill="#ECB891"/>
<path d="M72.8367 105.368C72.5903 78.4061 72.6478 51.0525 73.0061 24.0679L74.2232 24.0834C73.8649 51.0595 73.8082 78.4038 74.0538 105.357L72.8367 105.368Z" fill="#49B3F7"/>
<path d="M105.202 105.1C104.958 78.332 105.014 51.1987 105.371 24.4546L106.588 24.4702C106.232 51.2057 106.175 78.3297 106.419 105.089L105.202 105.1Z" fill="#49B3F7"/>
<path d="M121.035 34.9158C102.132 34.7305 83.2281 34.5504 64.3245 34.3755L64.3353 33.1562C83.2397 33.3306 102.144 33.5108 121.048 33.6966L121.035 34.9158Z" fill="#49B3F7"/>
<path d="M120.907 49.8594C102.002 49.7473 83.0982 49.6385 64.1943 49.5332L64.2005 48.314C83.1049 48.4191 102.01 48.5278 120.914 48.6402L120.907 49.8594Z" fill="#49B3F7"/>
<path d="M64.1344 63.4732L64.132 64.6924L120.846 64.8034L120.848 63.5842L64.1344 63.4732Z" fill="#49B3F7"/>
<path d="M120.843 78.5434L64.1288 78.6157L64.1304 79.8349L120.844 79.7626L120.843 78.5434Z" fill="#49B3F7"/>
<path d="M64.1959 95.0085L64.1897 93.7893C83.0941 93.6866 101.998 93.5807 120.902 93.4717L120.91 94.6909C102.005 94.7999 83.1001 94.9058 64.1959 95.0085Z" fill="#49B3F7"/>
<path d="M111.771 48.6428C110.723 48.6348 109.703 48.3059 108.848 47.7002C108.75 47.6315 108.666 47.5439 108.601 47.4427C108.537 47.3415 108.493 47.2286 108.472 47.1103C108.43 46.8715 108.484 46.6257 108.623 46.4269C108.761 46.2281 108.973 46.0926 109.211 46.0503C109.45 46.008 109.695 46.0623 109.894 46.2012C110.268 46.4768 110.699 46.6652 111.155 46.7524C111.612 46.8397 112.082 46.8237 112.531 46.7055C112.968 46.5666 113.361 46.3168 113.673 45.9805C113.985 45.6442 114.205 45.2327 114.311 44.7862C114.365 44.5288 114.345 44.2612 114.253 44.0148C114.162 43.7683 114.001 43.5532 113.792 43.3945C113.318 42.9671 112.759 42.6448 112.151 42.4489C111.544 42.2529 110.902 42.1876 110.268 42.2574C110.12 42.2951 109.964 42.2947 109.816 42.2564C109.668 42.2181 109.532 42.143 109.42 42.0381C109.308 41.9332 109.225 41.8019 109.177 41.6562C109.129 41.5105 109.119 41.3551 109.147 41.2043C109.404 40.0403 109.526 38.8503 109.509 37.6582C109.503 37.5312 109.524 37.4044 109.57 37.2858C109.615 37.1673 109.685 37.0595 109.775 36.9694C109.863 36.878 109.97 36.8068 110.089 36.7606C110.207 36.7144 110.335 36.6943 110.461 36.7017L115.028 36.904C115.27 36.9148 115.498 37.0213 115.661 37.2003C115.825 37.3793 115.911 37.6159 115.9 37.8583C115.889 38.1006 115.783 38.3288 115.604 38.4926C115.425 38.6563 115.189 38.7423 114.947 38.7316L111.333 38.5712C111.303 39.1797 111.239 39.7859 111.141 40.3871C112.6 40.5026 113.979 41.0984 115.064 42.0815C115.493 42.4613 115.814 42.9479 115.995 43.492C116.176 44.036 116.21 44.6184 116.095 45.18C115.877 46.1653 115.33 47.0462 114.543 47.6762C113.756 48.3062 112.778 48.6473 111.771 48.6428L111.771 48.6428Z" fill="#FF6551"/>
<path d="M122.827 43.0531H122.82L117.843 43.0142C117.602 43.0121 117.371 42.9144 117.201 42.7423C117.032 42.5702 116.937 42.3378 116.938 42.0959C116.939 41.854 117.035 41.6223 117.206 41.4515C117.377 41.2807 117.609 41.1847 117.85 41.1846H117.857L122.834 41.2235C123.075 41.2255 123.306 41.3233 123.476 41.4954C123.645 41.6674 123.74 41.8999 123.739 42.1418C123.738 42.3837 123.642 42.6154 123.471 42.7862C123.3 42.957 123.068 43.0529 122.827 43.0531Z" fill="#FF6551"/>
<path d="M120.227 45.7913H120.22C120.1 45.7904 119.981 45.7658 119.871 45.719C119.76 45.6722 119.66 45.6041 119.576 45.5185C119.492 45.4329 119.425 45.3316 119.38 45.2203C119.335 45.109 119.312 44.9899 119.313 44.8698L119.359 39.4643C119.359 39.3438 119.383 39.2245 119.429 39.1134C119.476 39.0022 119.544 38.9015 119.63 38.8171C119.716 38.7327 119.818 38.6664 119.929 38.6219C120.041 38.5775 120.161 38.5558 120.281 38.5583C120.401 38.5594 120.519 38.5842 120.63 38.6312C120.74 38.6782 120.84 38.7465 120.924 38.8322C121.008 38.9179 121.075 39.0194 121.119 39.1308C121.164 39.2421 121.187 39.3613 121.186 39.4814L121.14 44.8838C121.138 45.1251 121.041 45.3559 120.87 45.5259C120.699 45.6959 120.468 45.7913 120.227 45.7913Z" fill="#FF6551"/>
<path d="M113.391 78.634C112.355 78.6259 111.346 78.305 110.496 77.7133C110.297 77.5755 110.161 77.3644 110.117 77.1262C110.074 76.888 110.126 76.6422 110.263 76.4427C110.4 76.2432 110.611 76.1063 110.848 76.062C111.086 76.0177 111.331 76.0696 111.531 76.2064C111.907 76.4792 112.34 76.6641 112.797 76.7477C113.254 76.8314 113.724 76.8116 114.172 76.6898C114.608 76.5479 114.999 76.2954 115.308 75.957C115.617 75.6186 115.833 75.2057 115.935 74.7587C115.987 74.501 115.964 74.2338 115.87 73.9884C115.776 73.743 115.614 73.5294 115.404 73.3725C114.926 72.9481 114.364 72.6298 113.755 72.4386C113.146 72.2474 112.503 72.1877 111.869 72.2634C111.721 72.3022 111.565 72.303 111.417 72.2658C111.269 72.2287 111.132 72.1547 111.019 72.0508C110.907 71.9468 110.823 71.8163 110.774 71.671C110.725 71.5258 110.713 71.3706 110.74 71.2197C110.987 70.054 111.099 68.8635 111.072 67.6721C111.065 67.5451 111.084 67.418 111.129 67.2989C111.173 67.1799 111.242 67.0715 111.331 66.9807C111.42 66.8899 111.527 66.8188 111.645 66.7717C111.763 66.7247 111.89 66.7029 112.016 66.7077L116.585 66.875C116.705 66.8794 116.823 66.9073 116.932 66.9572C117.041 67.0072 117.139 67.0782 117.221 67.1662C117.302 67.2541 117.366 67.3574 117.408 67.4699C117.449 67.5825 117.469 67.7022 117.464 67.8223C117.451 68.0633 117.346 68.29 117.169 68.4543C116.993 68.6186 116.759 68.7076 116.519 68.7026L112.904 68.5703C112.879 69.1784 112.82 69.7846 112.727 70.3861C114.187 70.49 115.571 71.0745 116.665 72.0486C117.097 72.4246 117.422 72.9083 117.608 73.4508C117.794 73.9932 117.833 74.5752 117.722 75.1378C117.512 76.1308 116.966 77.0207 116.177 77.6576C115.388 78.2944 114.404 78.6393 113.391 78.6341L113.391 78.634Z" fill="#FF6551"/>
<path d="M100.755 45.3055H100.746L78.8354 45.1529C78.5133 45.1505 78.2052 45.0204 77.9787 44.7909C77.7522 44.5615 77.6256 44.2514 77.6267 43.9286C77.6279 43.6058 77.7566 43.2967 77.9847 43.0688C78.2129 42.8409 78.5218 42.713 78.8439 42.7129H78.8525L100.763 42.8655C101.086 42.8675 101.394 42.9975 101.621 43.227C101.848 43.4565 101.974 43.7668 101.973 44.0897C101.972 44.4127 101.843 44.7221 101.615 44.95C101.386 45.1779 101.077 45.3057 100.755 45.3055H100.755Z" fill="#F4C6B1"/>
<path d="M78.732 75.2837C78.4096 75.283 78.1007 75.1542 77.873 74.9256C77.6453 74.6969 77.5174 74.3871 77.5173 74.0641C77.5172 73.7411 77.6449 73.4312 77.8725 73.2024C78.1 72.9736 78.4088 72.8446 78.7312 72.8437L100.643 72.832H100.644C100.966 72.8327 101.275 72.9615 101.503 73.1902C101.73 73.4188 101.858 73.7286 101.858 74.0516C101.859 74.3746 101.731 74.6845 101.503 74.9133C101.276 75.1421 100.967 75.2711 100.645 75.272L78.7328 75.2837H78.732Z" fill="#F4C6B1"/>
<path d="M140.288 104.795C140.044 78.2617 140.099 51.3782 140.455 24.8901L141.672 24.9073C141.317 51.3852 141.261 78.2601 141.505 104.784L140.288 104.795Z" fill="#47A7E5"/>
<path d="M172.655 104.504C172.415 78.2298 172.471 51.5861 172.821 25.312L174.038 25.3276C173.689 51.5931 173.633 78.2274 173.872 104.493L172.655 104.504Z" fill="#47A7E5"/>
<path d="M188.484 35.6115C169.58 35.4099 150.677 35.2137 131.773 35.0229L131.785 33.8037C150.689 33.9937 169.593 34.1899 188.496 34.3923L188.484 35.6115Z" fill="#47A7E5"/>
<path d="M188.36 50.2811C169.455 50.1588 150.551 50.0402 131.647 49.9253L131.655 48.7061C150.559 48.8213 169.463 48.9399 188.367 49.0619L188.36 50.2811Z" fill="#47A7E5"/>
<path d="M131.586 63.6074L131.584 64.8267L188.297 64.9485L188.299 63.7293L131.586 63.6074Z" fill="#47A7E5"/>
<path d="M188.295 78.3812L131.582 78.5259L131.585 79.7451L188.298 79.6004L188.295 78.3812Z" fill="#47A7E5"/>
<path d="M131.649 94.6297L131.641 93.4105C150.546 93.2984 169.45 93.1837 188.355 93.0664L188.362 94.2856C169.458 94.4032 150.554 94.5179 131.649 94.6297Z" fill="#47A7E5"/>
<path d="M182.728 63.9605H182.702C182.582 63.9572 182.464 63.9302 182.355 63.8811C182.245 63.832 182.146 63.7618 182.064 63.6745C181.982 63.5872 181.917 63.4845 181.874 63.3723C181.832 63.26 181.811 63.1404 181.815 63.0203C181.861 61.3422 181.91 59.6284 182.001 57.8974C181.208 57.8452 180.404 57.8732 179.565 57.902C178.971 57.9207 178.374 57.9378 177.77 57.9339C177.626 57.9321 177.485 57.8963 177.358 57.8294C177.23 57.7625 177.12 57.6663 177.037 57.5488C176.954 57.4313 176.899 57.2957 176.878 57.1531C176.857 57.0105 176.87 56.8649 176.916 56.7283C177.456 55.1065 177.668 53.3928 177.54 51.6878C177.521 51.446 177.599 51.2068 177.757 51.0227C177.915 50.8387 178.139 50.7249 178.38 50.7063C178.622 50.6877 178.86 50.7659 179.044 50.9237C179.228 51.0815 179.342 51.3059 179.361 51.5477C179.475 53.0713 179.352 54.6035 178.996 56.0893C179.166 56.0846 179.335 56.0792 179.504 56.0737C180.329 56.0457 181.173 56.0184 182.032 56.0667L182.252 54.4797C182.285 54.2428 182.409 54.0283 182.598 53.882C182.787 53.7358 183.026 53.6696 183.263 53.6975C183.5 53.7253 183.717 53.8452 183.867 54.0312C184.017 54.2173 184.088 54.4549 184.066 54.6929C183.795 57.5105 183.717 60.3374 183.641 63.0717C183.634 63.3095 183.535 63.5354 183.364 63.7014C183.194 63.8673 182.966 63.9603 182.728 63.9605Z" fill="#ED614E"/>
<path d="M180.882 93.2465C179.859 93.2394 178.86 92.9299 178.011 92.3569C177.81 92.2221 177.67 92.0127 177.623 91.7748C177.576 91.5368 177.625 91.2899 177.759 91.0882C177.894 90.8865 178.103 90.7467 178.34 90.6994C178.578 90.6521 178.824 90.7012 179.026 90.836C179.407 91.1038 179.843 91.2843 180.301 91.3646C180.76 91.4449 181.231 91.4231 181.68 91.3007C182.111 91.1636 182.498 90.9172 182.805 90.5854C183.112 90.2537 183.328 89.848 183.431 89.4078C183.48 89.1639 183.458 88.9114 183.368 88.6795C183.279 88.4476 183.126 88.2459 182.926 88.0979C182.439 87.6767 181.869 87.3616 181.254 87.1724C180.638 86.9832 179.99 86.9241 179.35 86.9989C179.202 87.0374 179.047 87.038 178.899 87.0009C178.751 86.9637 178.614 86.8898 178.502 86.786C178.389 86.6823 178.305 86.5519 178.256 86.4068C178.206 86.2618 178.195 86.1068 178.221 85.9559C178.463 84.8136 178.57 83.6465 178.538 82.4791C178.53 82.3521 178.549 82.2249 178.593 82.1057C178.637 81.9864 178.706 81.8777 178.794 81.7864C178.977 81.6069 179.223 81.5072 179.479 81.5093L184.047 81.6549C184.167 81.6586 184.285 81.686 184.394 81.7355C184.503 81.7849 184.602 81.8555 184.684 81.9431C184.766 82.0307 184.83 82.1336 184.872 82.246C184.915 82.3584 184.935 82.4781 184.931 82.5982C184.927 82.7183 184.9 82.8365 184.85 82.946C184.801 83.0555 184.731 83.1542 184.643 83.2364C184.556 83.3187 184.453 83.3829 184.341 83.4253C184.229 83.4678 184.109 83.4877 183.989 83.4839L180.373 83.3687C180.35 83.9562 180.295 84.5419 180.207 85.1231C181.678 85.2226 183.076 85.8028 184.187 86.7747C184.608 87.1412 184.925 87.6127 185.106 88.1415C185.287 88.6702 185.326 89.2375 185.218 89.7861C185.048 90.5457 184.681 91.2471 184.155 91.8198C183.628 92.3924 182.96 92.8163 182.219 93.0488C181.786 93.181 181.335 93.2476 180.882 93.2465Z" fill="#ED614E"/>
<path d="M168.121 60.5756H168.116L146.205 60.4986C145.882 60.4974 145.574 60.3681 145.346 60.139C145.119 59.9099 144.991 59.5998 144.992 59.2766C144.992 58.9535 145.121 58.6438 145.349 58.4154C145.577 58.187 145.886 58.0587 146.209 58.0586H146.213L168.125 58.1357C168.448 58.1368 168.757 58.2662 168.984 58.4954C169.211 58.7245 169.339 59.0348 169.338 59.358C169.338 59.6812 169.209 59.9909 168.981 60.2192C168.752 60.4475 168.443 60.5757 168.121 60.5756H168.121Z" fill="#E2B9A7"/>
<path d="M146.226 90.1084C145.903 90.1087 145.594 89.9807 145.365 89.7524C145.137 89.5242 145.008 89.2144 145.007 88.8911C145.007 88.5678 145.134 88.2574 145.362 88.0282C145.589 87.7989 145.898 87.6695 146.221 87.6684L168.132 87.5664H168.138C168.46 87.5661 168.77 87.6941 168.999 87.9223C169.227 88.1506 169.356 88.4604 169.356 88.7837C169.357 89.107 169.23 89.4173 169.002 89.6466C168.775 89.8759 168.466 90.0053 168.143 90.0064L146.232 90.1084H146.226Z" fill="#E2B9A7"/>
</g>
<defs>
<filter id="filter0_d_320_78142" x="0.000106812" y="0" width="205" height="181" filterUnits="userSpaceOnUse" color-interpolation-filters="sRGB">
<feFlood flood-opacity="0" result="BackgroundImageFix"/>
<feColorMatrix in="SourceAlpha" type="matrix" values="0 0 0 0 0 0 0 0 0 0 0 0 0 0 0 0 0 0 127 0" result="hardAlpha"/>
<feOffset dy="4"/>
<feGaussianBlur stdDeviation="2"/>
<feComposite in2="hardAlpha" operator="out"/>
<feColorMatrix type="matrix" values="0 0 0 0 0 0 0 0 0 0 0 0 0 0 0 0 0 0 0.25 0"/>
<feBlend mode="normal" in2="BackgroundImageFix" result="effect1_dropShadow_320_78142"/>
<feBlend mode="normal" in="SourceGraphic" in2="effect1_dropShadow_320_78142" result="shape"/>
</filter>
</defs>
</svg>
