<svg width="150" height="150" viewBox="0 0 150 150" fill="none" xmlns="http://www.w3.org/2000/svg">
<path fill-rule="evenodd" clip-rule="evenodd" d="M136.094 37.5936C126.139 31.4767 116.783 23.8791 108.169 15.901C107.02 14.8369 105.168 13.646 105.663 11.5029C107.261 10.5766 109.664 12.5986 111.068 13.5546C115.47 16.5599 118.504 19.3264 122.922 22.7901C126.796 25.8294 130.784 28.8192 134.643 32.3169C136.058 33.5989 137.583 35.0339 137.938 36.1284C138.046 36.4659 138.202 37.8165 138.202 38.0324C138.203 39.8767 137.247 41.3887 136.62 43.017C133.037 52.3299 129.123 60.7208 124.898 69.5465C124.597 70.1746 124.207 71.0178 123.843 71.7444C123.442 72.5497 122.871 73.2763 122.79 73.7975C122.668 74.5823 122.916 75.7958 122.922 76.8769C122.932 78.9968 123.457 110.755 121.836 111.132C118.644 111.871 120.156 84.6473 120.156 82.7222C120.156 77.6673 120.746 70.7822 122.131 67.3492C126.193 57.2773 131.905 47.5422 136.094 37.5936Z" fill="#FF5000"/>
<g opacity="0.21">
<g opacity="0.21">
<path opacity="0.21" fill-rule="evenodd" clip-rule="evenodd" d="M136.094 37.5936C126.139 31.4767 116.783 23.8791 108.169 15.901C107.02 14.8369 105.168 13.646 105.663 11.5029C107.261 10.5766 109.664 12.5986 111.068 13.5546C115.47 16.5599 118.504 19.3264 122.922 22.7901C126.796 25.8294 130.784 28.8192 134.643 32.3169C136.058 33.5989 137.583 35.0339 137.938 36.1284C138.046 36.4659 138.202 37.8165 138.202 38.0324C138.203 39.8767 137.247 41.3887 136.62 43.017C133.037 52.3299 129.123 60.7208 124.898 69.5465C124.597 70.1746 124.207 71.0178 123.843 71.7444C123.442 72.5497 122.871 73.2763 122.79 73.7975C122.668 74.5823 122.916 75.7958 122.922 76.8769C122.932 78.9968 123.457 110.755 121.836 111.132C118.644 111.871 120.156 84.6473 120.156 82.7222C120.156 77.6673 120.746 70.7822 122.131 67.3492C126.193 57.2773 131.905 47.5422 136.094 37.5936Z" fill="black"/>
</g>
</g>
<path fill-rule="evenodd" clip-rule="evenodd" d="M140.376 38.1617C140.376 40.4166 138.732 42.248 136.704 42.248C134.679 42.248 133.034 40.4166 133.034 38.1617C133.034 35.9067 134.679 34.0759 136.704 34.0759C138.732 34.0762 140.376 35.907 140.376 38.1617Z" fill="#FF5000"/>
<path fill-rule="evenodd" clip-rule="evenodd" d="M138.453 38.1618C138.453 39.2387 137.671 40.108 136.703 40.108C135.738 40.108 134.955 39.2387 134.955 38.1618C134.955 37.0872 135.738 36.2156 136.703 36.2156C137.671 36.2159 138.453 37.0872 138.453 38.1618Z" fill="white"/>
<path fill-rule="evenodd" clip-rule="evenodd" d="M113.242 0.0309502C116.25 -0.207526 118.957 0.964935 120.766 2.41747C122.519 3.82548 124.038 5.74648 124.273 8.19951C124.678 12.4751 122.697 15.6796 122.374 19.7C121.655 28.6171 125.787 34.0095 130.479 38.8036C134.026 42.4244 137.601 45.9368 137.274 52.6285C137.176 54.6128 136.635 56.5109 136.031 58.0971C133.524 64.688 128.809 69.2155 126.245 75.8803C125.805 77.0211 124.818 99.5577 124.609 101.801C124.539 102.549 124.5 103.831 124.463 104.944C124.431 105.97 124.473 107.182 123.295 107.207C121.913 107.233 122.154 105.845 122.2 104.944C122.297 103.031 122.839 80.8968 123.177 79.1691C124.09 74.5004 126.553 70.3514 128.799 66.7045C130.568 63.8434 132.514 60.9181 133.767 57.7833C135.08 54.5044 135.519 50.0522 133.915 46.5966C132.542 43.6391 129.918 41.2288 127.632 38.8036C123.195 34.0982 119.092 28.0461 120.181 19.0713C120.408 17.2103 120.875 15.3356 121.351 13.4788C121.796 11.7353 122.357 9.59228 121.863 7.57138C121.322 5.37411 119.436 3.65439 117.333 2.66913C115.359 1.74482 112.533 1.6663 110.394 2.79511C109.782 3.11738 109.261 3.6456 108.713 4.11464C108.087 4.65253 107.175 5.13447 106.596 4.55497C105.998 3.95908 106.766 3.30927 107.252 2.85781C108.821 1.40439 110.463 0.250384 113.242 0.0309502Z" fill="#4D3D87"/>
<path fill-rule="evenodd" clip-rule="evenodd" d="M141.493 113.365C141.304 111.957 141.212 109.963 140.392 108.994C138.904 107.232 136.216 108.072 134.105 107.069C132.917 106.502 132.364 104.124 130.804 103.398C129.94 102.993 129.031 103.122 128.133 103.046C127.034 102.951 125.868 102.906 124.667 102.882C124.667 102.878 124.667 102.874 124.668 102.87C124.479 102.872 124.283 102.87 124.09 102.87C123.071 102.857 122.028 102.859 120.976 102.864C119.926 102.859 118.883 102.857 117.865 102.87C117.672 102.87 117.478 102.872 117.287 102.87C117.289 102.874 117.289 102.878 117.289 102.882C116.085 102.906 114.919 102.951 113.823 103.046C112.925 103.122 112.014 102.993 111.15 103.398C109.589 104.124 109.039 106.502 107.849 107.069C105.738 108.072 103.049 107.232 101.561 108.994C100.741 109.963 100.651 111.957 100.462 113.365C107.618 113.547 134.337 113.547 141.493 113.365Z" fill="#FF5000"/>
<path fill-rule="evenodd" clip-rule="evenodd" d="M101.539 40.7438C92.6626 35.814 84.7106 29.9221 77.4119 23.3649C74.9972 21.1957 72.6368 18.9534 70.5283 16.4804C75.3927 12.3554 81.0095 8.63881 89.0676 7.89174C98.0948 7.05678 103.869 12.1518 105.766 18.8646C106.83 22.638 106.513 27.385 105.56 31.0656C104.603 34.7625 103.251 37.8536 101.539 40.7438Z" fill="#FF5000"/>
<path opacity="0.21" d="M105.767 18.865C104.354 13.8664 100.788 9.76362 95.3306 8.34155C97.9005 10.3375 99.668 13.1503 100.566 16.3293C101.632 20.1013 101.315 24.8498 100.362 28.5289C99.4465 32.0618 98.1666 35.0398 96.5614 37.8201C98.1877 38.8279 99.8473 39.804 101.54 40.7439C103.252 37.8538 104.604 34.7626 105.561 31.066C106.514 27.3851 106.831 22.6384 105.767 18.865Z" fill="black"/>
<path fill-rule="evenodd" clip-rule="evenodd" d="M101.539 40.7439C101.145 41.3559 99.6187 40.2523 98.8816 39.8576C93.6911 37.0894 89.1325 33.3321 84.6368 29.8393C80.7439 26.815 77 23.6196 73.323 20.297C72.7496 19.7793 72.1294 19.1773 71.5514 18.5937C71.0085 18.0464 70.1208 16.985 70.5286 16.4808C70.8043 16.1404 72.1183 17.014 72.9819 17.5715C75.0447 18.9031 77.361 20.2153 79.2524 21.5934C81.994 23.5882 84.5267 25.6917 86.9534 27.6584C90.8528 30.8163 94.5228 33.7718 98.2672 36.9948C98.8532 37.5004 99.5179 38.0237 100.109 38.5639C100.641 39.0517 101.936 40.1278 101.539 40.7439Z" fill="#8F7ECE"/>
<path d="M86.953 27.6582C85.3478 26.3577 83.6923 24.9954 81.9635 23.6448C80.8959 24.1771 79.8773 24.7428 79.124 25.3666C78.8533 25.591 78.6163 25.8224 78.4235 26.0621C75.9702 29.1365 76.4697 33.6166 79.5433 36.0728C82.6168 38.5282 87.0998 38.0281 89.556 34.9545C89.7559 34.702 89.9366 34.4067 90.0998 34.0762C90.5231 33.2196 90.8284 32.1365 91.0921 31.0138C89.7327 29.9067 88.3584 28.7969 86.953 27.6582Z" fill="#EFAD1B"/>
<path fill-rule="evenodd" clip-rule="evenodd" d="M86.8929 10.8641C86.1684 9.82231 89.4186 9.33305 89.041 10.5222C88.8441 11.1442 87.4774 11.066 86.8929 10.8641Z" fill="white"/>
<path fill-rule="evenodd" clip-rule="evenodd" d="M84.8812 9.93999C85.1428 10.0033 85.6423 10.2725 85.4756 10.7876C85.2603 11.4593 83.8757 11.7643 83.3495 11.9911C82.7103 12.2638 81.6307 13.0686 81.0061 12.5946C80.1157 11.9187 81.9099 10.9833 82.5395 10.6879C82.8755 10.5312 83.2183 10.4093 83.5095 10.2898C84.0064 10.0856 84.379 9.819 84.8812 9.93999Z" fill="white"/>
<path fill-rule="evenodd" clip-rule="evenodd" d="M98.4018 34.1512C98.3189 33.3763 98.8799 32.1889 99.5019 31.0566C99.767 30.5705 100.212 29.7927 100.672 29.982C101.226 30.2084 100.862 31.1726 100.731 31.5159C100.315 32.6061 99.5927 33.8392 99.0167 34.3815C98.8415 34.4389 98.5404 34.3138 98.4018 34.1512Z" fill="white"/>
<path fill-rule="evenodd" clip-rule="evenodd" d="M99.256 29.3216C98.0252 29.0741 99.0105 26.5112 99.9348 26.9902C100.336 27.1991 100.323 28.6161 99.8862 29.1382C99.7295 29.3222 99.4699 29.3644 99.256 29.3216Z" fill="white"/>
<path fill-rule="evenodd" clip-rule="evenodd" d="M101.836 24.6308C101.394 24.5886 101.201 23.9719 101.248 23.3274C101.286 22.8091 101.594 21.8356 102.143 22.0656C102.389 22.1669 102.609 22.6389 102.583 23.1753C102.555 23.8043 102.411 24.6835 101.836 24.6308Z" fill="white"/>
<path fill-rule="evenodd" clip-rule="evenodd" d="M109.513 6.52884C109.157 4.41097 105.795 2.77591 103.517 2.9848C101.361 3.18314 99.971 4.40072 98.5404 5.78001C97.6677 6.61996 96.7147 7.53402 95.8817 8.43783C95.829 8.49466 95.7833 8.54417 95.7376 8.58841C96.5937 8.75365 97.1682 9.30443 97.4565 9.99027C98.2434 10.6527 98.9693 11.4138 99.6657 12.0976C100.895 13.2976 101.886 14.6977 103.007 15.9935C103.196 16.2123 103.339 16.4409 103.444 16.6723C103.98 16.5548 104.548 15.6589 105.016 15.049C105.605 14.2808 106.06 13.6787 106.447 13.1414C107.429 11.7712 108.34 10.6363 109.037 9.12044C109.309 8.52425 109.683 7.53607 109.513 6.52884ZM99.2219 9.32406C98.8598 9.69261 98.3617 10.2285 97.7216 10.0055C97.4761 9.50394 97.9712 8.9763 98.3362 8.50667C99.1065 7.50941 100.755 5.66107 101.811 5.23333C102.018 5.15101 102.227 5.17767 102.424 5.37044C102.39 5.95433 101.925 6.4515 101.539 6.86927C100.761 7.71185 100.062 8.46595 99.2219 9.32406ZM100.108 11.9813C99.7782 11.3356 100.482 10.6978 100.925 10.142C102.093 8.67835 104.03 6.83558 105.356 5.78001C105.548 5.62591 105.94 5.70472 106.105 5.91566C106.023 6.69144 105.423 7.27884 104.947 7.82464C103.988 8.92884 102.902 9.79193 101.811 10.8238C101.327 11.282 100.88 12.0636 100.108 11.9813ZM104.879 12.0493C104.592 12.3586 104.237 12.7005 103.926 13.0032C103.598 13.3231 103.248 13.7001 102.765 13.7529C102.35 13.1467 103.127 12.4017 103.583 11.8453C104.317 10.9541 104.978 10.1025 105.902 9.4597C106.165 9.40082 106.143 9.62728 106.311 9.66361C106.07 10.6105 105.463 11.4159 104.879 12.0493Z" fill="#FF5000"/>
<path opacity="0.21" fill-rule="evenodd" clip-rule="evenodd" d="M109.513 6.52884C109.157 4.41097 105.795 2.77591 103.517 2.9848C101.361 3.18314 99.971 4.40072 98.5404 5.78001C97.6677 6.61996 96.7147 7.53402 95.8817 8.43783C95.829 8.49466 95.7833 8.54417 95.7376 8.58841C96.5937 8.75365 97.1682 9.30443 97.4565 9.99027C98.2434 10.6527 98.9693 11.4138 99.6657 12.0976C100.895 13.2976 101.886 14.6977 103.007 15.9935C103.196 16.2123 103.339 16.4409 103.444 16.6723C103.98 16.5548 104.548 15.6589 105.016 15.049C105.605 14.2808 106.06 13.6787 106.447 13.1414C107.429 11.7712 108.34 10.6363 109.037 9.12044C109.309 8.52425 109.683 7.53607 109.513 6.52884ZM99.2219 9.32406C98.8598 9.69261 98.3617 10.2285 97.7216 10.0055C97.4761 9.50394 97.9712 8.9763 98.3362 8.50667C99.1065 7.50941 100.755 5.66107 101.811 5.23333C102.018 5.15101 102.227 5.17767 102.424 5.37044C102.39 5.95433 101.925 6.4515 101.539 6.86927C100.761 7.71185 100.062 8.46595 99.2219 9.32406ZM100.108 11.9813C99.7782 11.3356 100.482 10.6978 100.925 10.142C102.093 8.67835 104.03 6.83558 105.356 5.78001C105.548 5.62591 105.94 5.70472 106.105 5.91566C106.023 6.69144 105.423 7.27884 104.947 7.82464C103.988 8.92884 102.902 9.79193 101.811 10.8238C101.327 11.282 100.88 12.0636 100.108 11.9813ZM104.879 12.0493C104.592 12.3586 104.237 12.7005 103.926 13.0032C103.598 13.3231 103.248 13.7001 102.765 13.7529C102.35 13.1467 103.127 12.4017 103.583 11.8453C104.317 10.9541 104.978 10.1025 105.902 9.4597C106.165 9.40082 106.143 9.62728 106.311 9.66361C106.07 10.6105 105.463 11.4159 104.879 12.0493Z" fill="black"/>
<path fill-rule="evenodd" clip-rule="evenodd" d="M27.038 50.0468C27.2674 50.0559 27.5226 49.7928 27.5999 50.6102C27.6723 51.3669 27.256 52.3671 27.1174 53.1007C26.8678 54.4299 26.504 56.2404 26.4747 56.3957C25.9951 58.9952 25.6617 61.1673 25.3494 63.1472C24.556 68.1719 24.0313 72.6001 23.5031 77.05C22.6564 84.1609 22.3678 91.4101 22.0555 99.2312C21.9515 101.815 22.0499 104.686 21.2522 106.303C20.8675 107.081 19.9617 108.091 19.1619 108.312C18.2967 108.552 16.807 108.309 16.0277 108.152C15.295 108.003 14.225 107.746 13.4563 107.588C11.833 107.257 9.36001 106.862 8.71372 105.259C8.32465 104.293 8.56108 102.509 8.79399 101.16C9.44321 97.4052 10.7534 93.4348 11.6876 90.2304C13.0599 85.5209 14.4946 81.0045 15.9471 76.0855C17.3917 71.1938 18.7168 66.2424 20.206 61.8619C20.8968 59.8308 21.7063 57.4738 22.698 55.1099C23.4963 53.2059 24.8958 50.7751 26.7972 50.0465C26.8511 50.0257 26.9791 50.0453 27.038 50.0468Z" fill="#8F7ECE"/>
<path fill-rule="evenodd" clip-rule="evenodd" d="M51.0672 47.235C55.2464 47.0352 60.238 47.0619 64.5686 47.235C68.9201 47.4093 73.2065 47.3349 77.669 47.6358C81.6985 47.908 85.8361 48.3336 90.0449 48.762C93.9795 49.1616 98.4021 49.6728 100.975 51.2525C102.824 52.3883 103.602 53.9238 104.19 56.3159C105.667 62.3428 105.95 72.3832 106.359 78.8185C106.523 81.4089 106.639 84.1048 106.76 86.6938C106.884 89.2948 107.162 91.9013 107.162 94.4888C107.161 99.7125 107.895 105.73 106.117 109.518C105.599 110.621 104.92 111.42 103.465 111.929C101.013 112.786 97.0791 112.212 93.9818 111.929C84.3912 111.055 73.7819 110.947 63.7647 111.607C57.0042 112.053 50.7361 112.068 43.9134 112.653C40.9635 112.904 37.4476 113.26 34.109 113.295C28.4992 113.354 23.1903 112.975 21.7331 108.955C21.0754 107.141 20.8383 104.503 20.688 101.963C20.2457 94.4844 20.5952 85.6491 20.93 78.5768C21.3639 69.3799 21.5517 60.7359 23.8228 53.3416C24.2892 51.8247 24.8954 50.2204 26.2331 49.4044C27.4905 48.6392 29.4718 48.2657 31.6184 48.0372C35.6634 47.6088 40.1661 47.5286 44.3968 47.395C46.5827 47.3264 48.7934 47.3419 51.0672 47.235Z" fill="white"/>
<path fill-rule="evenodd" clip-rule="evenodd" d="M51.0672 47.235C55.2464 47.0352 60.238 47.0619 64.5686 47.235C68.9201 47.4093 73.2065 47.3349 77.669 47.6358C81.6985 47.908 85.8361 48.3336 90.0449 48.762C93.9795 49.1616 98.4021 49.6728 100.975 51.2525C102.824 52.3883 103.602 53.9238 104.19 56.3159C105.667 62.3428 105.95 72.3832 106.359 78.8185C106.523 81.4089 106.639 84.1048 106.76 86.6938C106.884 89.2948 107.162 91.9013 107.162 94.4888C107.161 99.7125 107.895 105.73 106.117 109.518C105.599 110.621 104.92 111.42 103.465 111.929C101.013 112.786 97.0791 112.212 93.9818 111.929C84.3912 111.055 73.7819 110.947 63.7647 111.607C57.0042 112.053 50.7361 112.068 43.9134 112.653C40.9635 112.904 37.4476 113.26 34.109 113.295C28.4992 113.354 23.1903 112.975 21.7331 108.955C21.0754 107.141 20.8383 104.503 20.688 101.963C20.2457 94.4844 20.5952 85.6491 20.93 78.5768C21.3639 69.3799 21.5517 60.7359 23.8228 53.3416C24.2892 51.8247 24.8954 50.2204 26.2331 49.4044C27.4905 48.6392 29.4718 48.2657 31.6184 48.0372C35.6634 47.6088 40.1661 47.5286 44.3968 47.395C46.5827 47.3264 48.7934 47.3419 51.0672 47.235Z" fill="#8F7ECE"/>
<path opacity="0.57" fill-rule="evenodd" clip-rule="evenodd" d="M51.0672 47.235C55.2464 47.0352 60.238 47.0619 64.5686 47.235C68.9201 47.4093 73.2065 47.3349 77.669 47.6358C81.6985 47.908 85.8361 48.3336 90.0449 48.762C93.9795 49.1616 98.4021 49.6728 100.975 51.2525C102.824 52.3883 103.602 53.9238 104.19 56.3159C105.667 62.3428 105.95 72.3832 106.359 78.8185C106.523 81.4089 106.639 84.1048 106.76 86.6938C106.884 89.2948 107.162 91.9013 107.162 94.4888C107.161 99.7125 107.895 105.73 106.117 109.518C105.599 110.621 104.92 111.42 103.465 111.929C101.013 112.786 97.0791 112.212 93.9818 111.929C84.3912 111.055 73.7819 110.947 63.7647 111.607C57.0042 112.053 50.7361 112.068 43.9134 112.653C40.9635 112.904 37.4476 113.26 34.109 113.295C28.4992 113.354 23.1903 112.975 21.7331 108.955C21.0754 107.141 20.8383 104.503 20.688 101.963C20.2457 94.4844 20.5952 85.6491 20.93 78.5768C21.3639 69.3799 21.5517 60.7359 23.8228 53.3416C24.2892 51.8247 24.8954 50.2204 26.2331 49.4044C27.4905 48.6392 29.4718 48.2657 31.6184 48.0372C35.6634 47.6088 40.1661 47.5286 44.3968 47.395C46.5827 47.3264 48.7934 47.3419 51.0672 47.235Z" fill="white"/>
<g opacity="0.78">
<path opacity="0.78" fill-rule="evenodd" clip-rule="evenodd" d="M88.8398 57.6017C89.0276 59.8511 89.0979 62.2177 89.0797 64.6745C86.9001 64.797 84.6509 64.8524 82.41 64.9159C82.507 62.3812 82.156 59.8646 82.3292 57.5217C84.4925 57.5545 86.8016 57.4426 88.8398 57.6017Z" fill="white"/>
<path opacity="0.78" fill-rule="evenodd" clip-rule="evenodd" d="M80.0789 57.6017C80.0886 60.0846 80.0359 62.6278 80.1598 64.9953C77.4525 65.0747 74.6617 65.07 72.044 65.2373C72.0967 62.772 72.155 60.3125 72.1228 57.7628C74.8111 57.7423 77.3388 57.5671 80.0789 57.6017Z" fill="#B1BC00"/>
<path opacity="0.78" fill-rule="evenodd" clip-rule="evenodd" d="M90.9291 57.8428C95.512 57.8393 98.4555 60.1736 99.0464 64.4325C96.4885 64.4747 93.9886 64.5731 91.4122 64.5942C91.3442 62.2508 91.2399 59.9437 90.9291 57.8428Z" fill="white"/>
<path opacity="0.78" fill-rule="evenodd" clip-rule="evenodd" d="M69.9527 57.8428C69.8719 60.3342 69.8288 62.8619 69.7122 65.3173C66.3973 65.4046 63.1711 65.5798 59.9077 65.7181C59.9259 63.2431 60.1031 60.6005 59.9077 58.1642C63.2124 58.0159 66.5997 57.9456 69.9527 57.8428Z" fill="white"/>
<path opacity="0.78" fill-rule="evenodd" clip-rule="evenodd" d="M57.7387 58.2442C57.8588 60.5892 57.5579 63.2057 57.6578 65.7996C55.0322 65.9868 52.2891 66.0557 49.6223 66.2013C49.6223 63.6032 49.6223 61.0034 49.6223 58.4054C52.2725 58.3512 55.2757 58.2196 57.7387 58.2442Z" fill="white"/>
<path opacity="0.78" fill-rule="evenodd" clip-rule="evenodd" d="M37.4059 58.4858C37.2679 61.1612 37.3265 64.0332 37.1654 66.684C34.0403 66.6685 30.9647 66.698 28.0022 66.8436C28.3708 64.4073 28.7042 61.9194 30.0123 60.3342C31.5152 58.5125 34.1654 58.5843 37.4059 58.4858Z" fill="white"/>
<path opacity="0.78" fill-rule="evenodd" clip-rule="evenodd" d="M47.4505 58.4858C47.428 61.1164 47.2326 63.5718 47.2894 66.2809C44.7209 66.4188 42.1165 66.5199 39.4929 66.6022C39.6385 63.8832 39.4592 61.0774 39.5747 58.4858C42.4815 58.5125 44.4965 58.4899 47.4505 58.4858Z" fill="white"/>
<path opacity="0.78" fill-rule="evenodd" clip-rule="evenodd" d="M100.411 73.1133C97.3718 73.1268 94.2525 73.0621 91.3302 73.1927C91.271 71.018 91.4597 69.0888 91.411 66.9247C93.8945 66.6384 96.8374 66.9554 98.9649 66.7644C99.5043 66.7158 99.5087 66.6159 99.688 67.2455C100.142 68.8374 100.158 71.5714 100.411 73.1133Z" fill="white"/>
<path opacity="0.78" fill-rule="evenodd" clip-rule="evenodd" d="M89.0796 67.0055C89.0283 69.0437 89.1836 71.2876 88.9993 73.1927C86.8668 73.3102 84.6147 73.3088 82.4099 73.3545C82.4626 71.3177 82.3029 69.0698 82.4901 67.1649C84.7779 67.2039 86.8205 66.995 89.0796 67.0055Z" fill="white"/>
<path opacity="0.78" fill-rule="evenodd" clip-rule="evenodd" d="M79.9982 67.2451C80.2935 67.5003 80.1593 68.151 80.1593 68.6918C80.1593 70.1329 80.1593 71.8397 80.1593 73.3541C77.2812 73.3154 74.6225 73.4962 71.7212 73.4335C71.8026 71.4521 71.8794 69.4673 71.9623 67.4868C74.5964 67.3605 77.3837 67.3916 79.9982 67.2451Z" fill="white"/>
<path opacity="0.78" fill-rule="evenodd" clip-rule="evenodd" d="M69.6315 67.5667C69.6786 69.65 69.4422 71.4499 69.4703 73.5142C66.2357 73.6554 62.8946 73.6894 59.7458 73.917C59.703 71.8915 59.8879 70.0938 59.8267 68.0498C62.9975 67.7908 66.3983 67.7621 69.6315 67.5667Z" fill="white"/>
<path opacity="0.78" fill-rule="evenodd" clip-rule="evenodd" d="M57.5761 68.1294C57.4923 70.056 57.555 72.1272 57.4149 73.9967C54.8295 74.1443 52.2144 74.2597 49.6205 74.3983C49.6205 72.4155 49.6205 70.4336 49.6205 68.4522C52.3448 68.4171 54.8731 68.1862 57.5761 68.1294Z" fill="#FF5000"/>
<path opacity="0.78" fill-rule="evenodd" clip-rule="evenodd" d="M47.2909 68.6123C47.2909 70.567 47.2909 72.5223 47.2909 74.4781C44.5452 74.5725 41.7936 74.6603 39.1736 74.8804C39.2178 72.8352 39.2896 70.8172 39.4147 68.8534C42.1487 68.8818 44.5906 68.6179 47.2909 68.6123Z" fill="white"/>
<path opacity="0.78" fill-rule="evenodd" clip-rule="evenodd" d="M27.7609 68.933C30.8942 68.8914 34.029 69.1533 37.0844 68.933C37.0437 70.9812 36.9522 72.9807 36.8424 74.9614C33.7328 75.226 30.378 75.2462 27.1987 75.4434C27.5239 73.4099 27.2544 70.7828 27.7609 68.933Z" fill="white"/>
<path opacity="0.78" fill-rule="evenodd" clip-rule="evenodd" d="M100.572 75.3638C100.905 77.4668 100.917 79.894 101.053 82.1941C97.784 82.3793 94.4011 82.4522 91.1699 82.6766C91.1233 80.2198 91.3111 77.9959 91.2502 75.5244C94.264 75.3764 97.4028 75.3539 100.572 75.3638Z" fill="white"/>
<path opacity="0.78" fill-rule="evenodd" clip-rule="evenodd" d="M88.9986 75.524C88.9649 77.9266 88.8761 80.2771 88.9183 82.7565C86.7562 82.8992 84.5653 83.0105 82.3279 83.0779C82.2772 80.5094 82.3962 78.1089 82.4088 75.6034C84.6928 75.6649 86.7521 75.5008 88.9986 75.524Z" fill="#FF5000"/>
<path opacity="0.78" fill-rule="evenodd" clip-rule="evenodd" d="M80.0794 75.6038C80.0272 78.1233 80.1863 80.8543 79.9991 83.2394C77.0536 83.2655 74.295 83.4805 71.4001 83.5593C71.4283 80.9085 71.5267 78.3278 71.6421 75.7655C74.36 75.6164 77.3823 75.774 80.0794 75.6038Z" fill="white"/>
<path opacity="0.78" fill-rule="evenodd" clip-rule="evenodd" d="M69.3092 75.845C69.3022 78.4896 69.0918 80.9315 69.1481 83.6409C66.1208 83.8533 62.8695 83.8436 59.8267 84.0419C59.6389 81.5766 59.7986 78.7662 59.7458 76.1666C62.9237 76.0503 66.0242 75.8549 69.3092 75.845Z" fill="white"/>
<path opacity="0.78" fill-rule="evenodd" clip-rule="evenodd" d="M57.3372 76.2458C57.4834 78.7786 57.406 81.5357 57.4977 84.1232C54.8545 84.1844 52.2987 84.3356 49.7012 84.4446C49.5161 82.0053 49.6737 79.2209 49.6218 76.6487C52.2372 76.5587 54.8332 76.4503 57.3372 76.2458Z" fill="white"/>
<path opacity="0.78" fill-rule="evenodd" clip-rule="evenodd" d="M47.0487 76.729C47.4814 76.748 47.2801 77.3445 47.2901 77.5329C47.3929 79.7135 47.3027 82.3065 47.3704 84.5243C44.557 84.6318 41.7773 84.7719 38.8508 84.7663C38.7867 82.1296 38.9938 79.7656 39.012 77.2118C41.5133 76.8717 44.4287 76.949 47.0487 76.729Z" fill="white"/>
<path opacity="0.78" fill-rule="evenodd" clip-rule="evenodd" d="M36.761 77.2917C36.6265 79.7541 36.6028 82.3291 36.5211 84.8457C33.3561 84.9766 29.9372 84.8533 26.8763 85.0868C26.8607 82.5259 26.9354 80.0559 27.038 77.6131C30.3494 77.5756 33.5835 77.4617 36.761 77.2917Z" fill="white"/>
<path opacity="0.78" fill-rule="evenodd" clip-rule="evenodd" d="M101.135 84.5242C101.33 87.2497 101.297 90.2028 101.295 93.1225C97.9746 93.1225 94.6514 93.1225 91.3309 93.1225C91.2507 90.4175 91.1297 87.7524 91.1707 84.9264C94.5111 84.8119 97.7261 84.5713 101.135 84.5242Z" fill="white"/>
<path opacity="0.78" fill-rule="evenodd" clip-rule="evenodd" d="M88.8402 85.0869C88.9957 87.6894 88.8598 90.5836 89.0801 93.1228C86.9104 93.1228 84.7398 93.1228 82.5715 93.1228C82.4716 90.571 82.3691 88.0213 82.3295 85.4092C84.4527 85.2557 86.6368 85.1613 88.8402 85.0869Z" fill="white"/>
<path opacity="0.78" fill-rule="evenodd" clip-rule="evenodd" d="M80.0783 85.489C80.0622 88.1307 80.1662 90.6514 80.3203 93.1223C77.3282 93.1053 74.5143 93.2635 71.48 93.2046C71.3892 90.8814 71.3162 88.1196 71.48 85.8098C74.4144 85.7732 77.1841 85.5672 80.0783 85.489Z" fill="white"/>
<path opacity="0.78" fill-rule="evenodd" clip-rule="evenodd" d="M69.0697 85.9714C69.017 88.462 69.2068 90.7085 69.1485 93.2045C66.1389 93.1594 63.1588 93.0871 60.0686 93.1222C60.046 90.7873 59.9145 88.5616 59.8271 86.2928C62.9294 86.2064 65.9602 86.0502 69.0697 85.9714Z" fill="#B1BC00"/>
<path opacity="0.78" fill-rule="evenodd" clip-rule="evenodd" d="M57.5757 86.3726C57.6103 88.6688 57.7424 90.869 57.8171 93.1226C55.2554 93.2667 52.5196 93.2371 50.0212 93.446C49.9775 91.1594 49.747 89.0579 49.7798 86.6939C52.4194 86.6283 54.9826 86.4856 57.5757 86.3726Z" fill="white"/>
<path opacity="0.78" fill-rule="evenodd" clip-rule="evenodd" d="M47.3698 86.7754C47.6575 88.8707 47.5696 91.3416 47.7715 93.5239C44.8336 93.6681 41.7993 93.7144 38.8503 93.8468C38.7849 91.6355 38.7448 89.3989 38.7715 87.0953C41.6185 86.9717 44.6086 86.9863 47.3698 86.7754Z" fill="white"/>
<path opacity="0.78" fill-rule="evenodd" clip-rule="evenodd" d="M36.5214 87.1763C36.5214 89.4278 36.5214 91.6769 36.5214 93.9263C33.1672 94.0022 29.9038 94.1669 26.7169 94.4094C26.5306 92.1058 26.6903 89.4565 26.8766 87.2563C29.9387 87.0782 33.3269 87.2244 36.5214 87.1763Z" fill="white"/>
<path opacity="0.78" fill-rule="evenodd" clip-rule="evenodd" d="M69.2302 95.4555C69.2463 98.198 69.3301 100.873 69.4716 103.49C66.5809 103.601 63.5909 103.611 60.7122 103.732C60.4842 101.066 60.3079 98.3503 60.2305 95.5335C60.2888 95.459 60.3761 95.4119 60.4705 95.3738C63.2786 95.5118 66.3035 95.435 69.2302 95.4555Z" fill="white"/>
<path opacity="0.78" fill-rule="evenodd" clip-rule="evenodd" d="M89.1609 95.4556C89.2277 97.9068 89.2037 100.449 89.3206 102.848C87.278 102.868 85.2489 102.903 83.2943 103.008C83.0918 100.56 82.861 98.1374 82.7315 95.6152C82.7279 95.4781 82.7906 95.4063 82.8917 95.3738C84.9563 95.4265 87.2303 95.2678 89.1609 95.4556Z" fill="white"/>
<path opacity="0.78" fill-rule="evenodd" clip-rule="evenodd" d="M57.898 95.4556C58.0431 98.2579 58.237 101.01 58.3797 103.812C55.7893 103.874 53.2926 104.029 50.8258 104.214C50.5551 101.431 50.3383 98.5945 50.1836 95.6953C52.7397 95.6012 55.2291 95.4366 57.898 95.4556Z" fill="white"/>
<path opacity="0.78" fill-rule="evenodd" clip-rule="evenodd" d="M80.4009 95.4556C80.6317 97.9833 80.7483 100.625 81.0437 103.09C77.8588 103.118 74.9189 103.394 71.7217 103.411C71.6499 100.831 71.4832 97.9159 71.5605 95.4556C74.5069 95.4556 77.4539 95.4556 80.4009 95.4556Z" fill="white"/>
<path opacity="0.78" fill-rule="evenodd" clip-rule="evenodd" d="M91.4911 95.4556C94.7328 95.4556 97.9739 95.4556 101.216 95.4556C101.142 97.7272 101.029 99.4942 100.17 100.759C98.658 102.978 95.1877 102.615 91.5719 102.768C91.6452 100.283 91.3581 97.7287 91.4911 95.4556Z" fill="white"/>
<path opacity="0.78" fill-rule="evenodd" clip-rule="evenodd" d="M47.6912 95.7749C48.1259 95.8938 47.908 96.4713 47.9332 96.7405C48.1476 99.0925 48.3213 101.851 48.4945 104.295C45.51 104.578 42.4048 104.739 39.2531 104.858C38.9789 102.078 38.9619 99.0383 38.8508 96.0983C41.8233 96.0154 44.8371 95.9732 47.6912 95.7749Z" fill="white"/>
<path opacity="0.78" fill-rule="evenodd" clip-rule="evenodd" d="M36.6015 96.1777C36.603 99.2029 36.7893 102.044 36.9223 104.937C34.0612 104.635 31.4968 104.437 29.7706 103.089C27.9539 101.671 27.1661 99.3954 26.797 96.4991C30.1442 96.4725 33.3613 96.3134 36.6015 96.1777Z" fill="white"/>
</g>
<path fill-rule="evenodd" clip-rule="evenodd" d="M29.8341 61.4952C27.7092 61.5023 30.1209 56.5578 31.4033 58.2099C32.0721 59.0709 30.6656 60.8821 29.8341 61.4952Z" fill="#8F7ECE"/>
<path fill-rule="evenodd" clip-rule="evenodd" d="M101.079 67.4559C100.382 66.621 100.114 64.8086 99.9583 63.0116C99.89 62.2414 99.8036 60.9951 100.485 60.8574C101.302 60.6927 101.627 62.0931 101.74 62.5926C102.103 64.1814 102.218 66.1712 101.97 67.2467C101.812 67.4492 101.364 67.5397 101.079 67.4559Z" fill="#8F7ECE"/>
<path fill-rule="evenodd" clip-rule="evenodd" d="M98.3294 61.1879C96.7102 61.8547 95.867 58.1158 97.3137 57.9541C97.9409 57.8873 99.0235 59.5423 98.9209 60.4854C98.8802 60.8223 98.6115 61.0704 98.3294 61.1879Z" fill="#8F7ECE"/>
<path fill-rule="evenodd" clip-rule="evenodd" d="M31.2626 53.7674C31.112 52.4669 31.823 51.6554 32.314 50.8541C32.8859 49.9237 33.6245 48.6759 33.3655 46.8894C33.3022 46.4365 33.0813 45.8315 32.7192 45.755C31.8119 45.5637 31.5166 46.8437 31.3428 47.7786C31.1656 48.7436 31.2514 50.2339 30.4537 50.2073C29.8721 50.1868 29.7195 49.1432 29.7251 48.2646C29.7362 46.0407 31.01 43.1901 33.4478 43.9741C34.8825 44.437 35.8428 47.1203 35.7133 49.4784C35.6486 50.6699 35.3111 51.8177 34.7427 52.7959C34.0267 54.032 32.3627 55.3999 31.2626 53.7674Z" fill="#4D3D87"/>
<path fill-rule="evenodd" clip-rule="evenodd" d="M44.4208 52.7653C44.0423 51.7414 44.7372 50.7072 45.1479 49.7712C45.7655 48.3673 46.6895 46.4225 45.7157 44.7529C44.9722 44.8695 44.7703 45.5252 44.5016 46.1287C44.2576 46.6765 44.1984 47.5537 43.5305 47.6671C43.0239 47.3041 43.5592 46.4946 43.773 45.8053C44.1325 44.6474 44.8843 42.5832 46.6055 43.376C47.714 43.8881 48.1163 46.2681 47.9812 48.1522C47.901 49.2734 47.5057 50.6955 46.9298 51.5515C46.3775 52.3701 45.4465 53.198 44.4208 52.7653Z" fill="#4D3D87"/>
<path fill-rule="evenodd" clip-rule="evenodd" d="M39.1594 44.8337C38.5032 45.0039 38.3338 45.6698 38.1079 46.2903C37.8841 46.9044 37.8704 47.7153 37.3793 48.0704C36.7061 47.955 36.9326 46.6032 37.0544 45.9666C37.314 44.6254 38.6532 42.3347 40.4543 43.6202C41.463 44.3397 41.6951 46.4295 41.5881 47.9093C41.4785 49.4356 40.9067 51.2509 40.1309 52.1983C39.8769 52.51 39.3264 53.0163 38.9971 53.0886C38.2536 53.2548 37.4807 52.8874 37.4611 52.4424C37.4239 51.6385 38.3341 50.7382 38.6757 50.0131C39.1954 48.9045 39.6598 47.6465 39.6454 46.2903C39.6413 45.8866 39.6287 45.2263 39.1594 44.8337Z" fill="#4D3D87"/>
<path fill-rule="evenodd" clip-rule="evenodd" d="M51.3002 52.1351C51.151 50.8361 51.8606 50.0222 52.3531 49.2218C52.925 48.2899 53.6621 47.0436 53.4046 45.2571C53.3413 44.8041 53.1204 44.1992 52.7583 44.1227C51.8509 43.9314 51.5542 45.2114 51.3819 46.1462C51.2046 47.1107 51.2905 48.6016 50.4913 48.5749C49.9097 48.5544 49.7586 47.5109 49.7627 46.6323C49.7753 44.4083 51.0485 41.5578 53.4869 42.3417C54.9218 42.8046 55.8804 45.4879 55.7524 47.846C55.6877 49.0375 55.3487 50.1854 54.7818 51.1636C54.0643 52.3997 52.4 53.7675 51.3002 52.1351Z" fill="#4D3D87"/>
<path fill-rule="evenodd" clip-rule="evenodd" d="M86.1334 52.6308C85.9837 51.3297 86.6926 50.5188 87.1857 49.7169C87.7567 48.7865 88.4938 47.5387 88.2372 45.7507C88.1733 45.2999 87.9524 44.6958 87.5909 44.6184C86.683 44.4271 86.3874 45.7065 86.2151 46.6428C86.0364 47.6049 86.1237 49.0976 85.3233 49.0701C84.7432 49.0504 84.5903 48.0066 84.5962 47.1283C84.6073 44.9043 85.8811 42.0529 88.3189 42.8372C89.7539 43.3001 90.7139 45.9839 90.585 48.34C90.5197 49.533 90.1828 50.6814 89.6138 51.6599C88.8975 52.8933 87.2335 54.2635 86.1334 52.6308Z" fill="#4D3D87"/>
<path fill-rule="evenodd" clip-rule="evenodd" d="M71.7765 52.2441C71.6268 50.9421 72.3369 50.1312 72.828 49.3302C73.3998 48.3991 74.1369 47.1526 73.88 45.3654C73.8158 44.9125 73.5952 44.3069 73.2328 44.2317C72.3255 44.0403 72.0287 45.3197 71.8565 46.2552C71.6792 47.2188 71.7665 48.7091 70.9676 48.683C70.3858 48.6634 70.2331 47.6195 70.239 46.7409C70.2504 44.5161 71.524 41.6644 73.9617 42.4498C75.3967 42.9133 76.3553 45.5966 76.2279 47.955C76.1625 49.1456 75.8242 50.2929 75.2564 51.2726C74.5392 52.5086 72.8772 53.8765 71.7765 52.2441Z" fill="#4D3D87"/>
<path fill-rule="evenodd" clip-rule="evenodd" d="M64.6537 52.3776C64.2781 51.3537 64.9716 50.3204 65.3838 49.3841C65.9999 47.9802 66.9239 46.034 65.9513 44.365C65.2065 44.4824 65.0067 45.1378 64.736 45.7407C64.492 46.2895 64.4334 47.1657 63.7645 47.2791C63.258 46.9161 63.7935 46.1066 64.0071 45.4182C64.3681 44.2598 65.1172 42.1976 66.841 42.9903C67.9481 43.5004 68.3518 45.8811 68.2159 47.7654C68.135 48.8866 67.7413 50.3087 67.1639 51.1639C66.6119 51.9824 65.6806 52.8109 64.6537 52.3776Z" fill="#4D3D87"/>
<path fill-rule="evenodd" clip-rule="evenodd" d="M59.3933 44.447C58.737 44.6163 58.5668 45.2825 58.3418 45.9036C58.1183 46.5198 58.1042 47.3281 57.6132 47.6831C56.9399 47.5677 57.1667 46.2168 57.2898 45.5793C57.5493 44.2387 58.887 41.9474 60.6897 43.2329C61.6983 43.9525 61.9289 46.0422 61.822 47.522C61.7136 49.0489 61.1417 50.8642 60.3645 51.8111C60.1105 52.1225 59.5611 52.629 59.2321 52.7029C58.4874 52.8681 57.7143 52.501 57.6946 52.0542C57.6574 51.2509 58.5668 50.3515 58.9078 49.6255C59.429 48.5193 59.8931 47.2595 59.879 45.9033C59.8749 45.4999 59.8623 44.8402 59.3933 44.447Z" fill="#4D3D87"/>
<path fill-rule="evenodd" clip-rule="evenodd" d="M93.1124 54.7025C92.7347 53.6798 93.4282 52.6453 93.8404 51.7084C94.4565 50.3059 95.3805 48.3591 94.4064 46.6916C93.6643 46.8076 93.461 47.4624 93.1923 48.0665C92.9483 48.6137 92.8912 49.4906 92.2209 49.6046C91.7143 49.2416 92.251 48.4306 92.4634 47.7422C92.8229 46.5838 93.5747 44.5215 95.2973 45.3143C96.4045 45.8244 96.8067 48.205 96.6725 50.0885C96.5917 51.2097 96.1976 52.6339 95.6205 53.4884C95.0682 54.3064 94.1363 55.1358 93.1124 54.7025Z" fill="#4D3D87"/>
<path fill-rule="evenodd" clip-rule="evenodd" d="M80.0208 44.1332C79.3639 44.3029 79.1937 44.9682 78.9687 45.5907C78.7452 46.2054 78.7317 47.0149 78.2401 47.3708C77.5677 47.2554 77.7936 45.9036 77.9158 45.267C78.1753 43.9258 79.5145 41.6336 81.3166 42.92C82.3252 43.6396 82.5543 45.729 82.4489 47.2097C82.3393 48.7366 81.7695 50.5513 80.9922 51.4988C80.7382 51.809 80.1869 52.3158 79.8584 52.39C79.1137 52.5537 78.3412 52.1866 78.3224 51.7413C78.2852 50.9389 79.194 50.0386 79.5365 49.3126C80.0568 48.2049 80.5206 46.9466 80.5065 45.5905C80.5018 45.1867 80.4889 44.527 80.0208 44.1332Z" fill="#4D3D87"/>
<path fill-rule="evenodd" clip-rule="evenodd" d="M131.191 121.1C131.129 122.457 130.141 123.844 130.063 125.46C130.004 126.657 130.16 128.034 130.592 129.258C131.422 131.616 133.76 132.443 134.637 134.256C125.334 138.403 114.979 141.914 104.443 145.739C101.389 146.847 96.1878 148.799 93.3003 147.737C90.4418 146.686 88.1469 140.712 90.3137 137.53C91.681 135.527 95.6853 133.775 99.285 132.51C106.067 130.133 114.372 127.931 120.666 125.393C124.476 123.858 127.929 122.377 131.191 121.1Z" fill="#8F7ECE"/>
<path opacity="0.81" fill-rule="evenodd" clip-rule="evenodd" d="M131.191 121.1C131.129 122.457 130.141 123.844 130.063 125.46C130.004 126.657 130.16 128.034 130.592 129.258C131.422 131.616 133.76 132.443 134.637 134.256C125.334 138.403 114.979 141.914 104.443 145.739C101.389 146.847 96.1878 148.799 93.3003 147.737C90.4418 146.686 88.1469 140.712 90.3137 137.53C91.681 135.527 95.6853 133.775 99.285 132.51C106.067 130.133 114.372 127.931 120.666 125.393C124.476 123.858 127.929 122.377 131.191 121.1Z" fill="white"/>
<path fill-rule="evenodd" clip-rule="evenodd" d="M123.499 128.846C123.599 130.046 94.4364 140.438 93.9357 139.193C93.5827 138.33 101.073 136.115 108.358 133.614C115.984 130.995 123.437 128.115 123.499 128.846Z" fill="#8F7ECE"/>
<path fill-rule="evenodd" clip-rule="evenodd" d="M129.938 130.028C130.038 131.224 100.875 141.617 100.368 140.372C100.02 139.51 107.512 137.296 114.795 134.795C122.425 132.173 129.875 129.294 129.938 130.028Z" fill="#8F7ECE"/>
<path fill-rule="evenodd" clip-rule="evenodd" d="M92.8403 137.104C90.8619 139.347 91.3139 144.35 93.9875 145.761C105.727 141.991 117.77 137.611 130.154 134.204C131.679 133.786 134.548 132.289 135.271 134.204C136.019 136.17 132.713 136.729 131.265 137.312C121.397 141.295 110.575 145.836 98.9164 148.545C96.8326 149.032 94.3406 149.742 92.5933 149.499C91.2099 149.308 89.4626 147.887 88.1088 146.887C81.5059 142.028 74.542 135.983 68.5945 130.38C66.3319 128.251 62.8933 125.423 61.7762 122.84C59.4826 117.531 63.2756 115.319 67.5843 113.18C70.6798 111.643 73.884 110.627 76.6772 109.646C83.7717 107.158 89.0835 104.702 94.6546 102.601C98.8619 101.01 103.92 104.607 107.105 106.041C114.044 109.167 118.689 111.258 125.576 115.164C127.36 116.181 133.263 119.423 132.921 121.385C132.56 123.474 125.788 124.937 123.476 125.799C113.153 129.646 103.028 133.47 92.8403 137.104Z" fill="#4D3D87"/>
<path opacity="0.21" fill-rule="evenodd" clip-rule="evenodd" d="M88.3287 138.347C86.1645 139.637 63.3965 119.443 64.2039 118.372C64.7315 117.665 69.5711 122.33 75.1767 126.982C81.6762 132.374 88.989 137.955 88.3287 138.347Z" fill="black"/>
<path fill-rule="evenodd" clip-rule="evenodd" d="M68.6459 113.091C69.0291 111.267 70.3556 110.402 70.8332 108.642C71.156 107.452 71.0591 105.702 71.3257 104.335C72.9716 104.37 74.6172 106.758 75.92 108.217C78.6399 111.256 80.4903 113.679 83.478 116.974C84.5781 118.19 86.4686 120.493 87.63 120.682C90.233 121.107 94.5332 118.889 97.2179 117.962C103.623 115.751 108.355 113.933 115.491 111.957C119.503 110.845 124.988 109.786 125.895 113.861C126.754 117.721 122.829 119.809 119.697 121.421C116.422 123.107 112.91 124.613 110.038 125.853C106.947 127.189 103.881 128.718 99.9405 130.109C96.6962 131.258 91.9448 133.285 88.6386 132.761C86.7683 132.466 84.3355 129.907 82.948 128.542C77.6725 123.338 73.8478 118.349 68.6459 113.091Z" fill="#8F7ECE"/>
<path opacity="0.81" fill-rule="evenodd" clip-rule="evenodd" d="M68.6459 113.091C69.0291 111.267 70.3556 110.402 70.8332 108.642C71.156 107.452 71.0591 105.702 71.3257 104.335C72.9716 104.37 74.6172 106.758 75.92 108.217C78.6399 111.256 80.4903 113.679 83.478 116.974C84.5781 118.19 86.4686 120.493 87.63 120.682C90.233 121.107 94.5332 118.889 97.2179 117.962C103.623 115.751 108.355 113.933 115.491 111.957C119.503 110.845 124.988 109.786 125.895 113.861C126.754 117.721 122.829 119.809 119.697 121.421C116.422 123.107 112.91 124.613 110.038 125.853C106.947 127.189 103.881 128.718 99.9405 130.109C96.6962 131.258 91.9448 133.285 88.6386 132.761C86.7683 132.466 84.3355 129.907 82.948 128.542C77.6725 123.338 73.8478 118.349 68.6459 113.091Z" fill="white"/>
<path fill-rule="evenodd" clip-rule="evenodd" d="M67.8639 111.492C68.8295 110.636 79.2947 122.028 83.8664 126.757C85.5405 128.489 87.194 131.378 88.9699 131.665C91.3014 132.043 96.9501 129.481 98.9666 128.698C105.532 126.158 110.601 124.07 116.89 121.014C119.08 119.949 123.993 118.078 124.606 116.318C124.967 115.269 124.983 113.475 124.324 112.928C123.046 111.863 117.955 113.718 115.07 114.553C107.529 116.731 100.689 119.504 93.0862 122.15C91.5185 122.695 89.6772 123.477 88.4962 123.384C86.6212 123.24 84.9135 120.645 83.4443 119.112C78.8388 114.314 70.4338 105.854 70.8686 103.943C71.3391 101.869 94.1408 94.4082 103.5 93.541C104.59 93.4381 106.755 93.1625 108.431 93.7689C113.43 95.5836 119.186 102.362 122.768 107.08C124.127 108.871 125.983 111.009 126.442 112.752C127.733 117.662 125.348 118.866 122.186 120.571C114.488 124.725 107.372 127.467 98.7188 130.851C97.4118 131.362 95.555 132.171 93.7594 132.762C91.9292 133.362 89.6745 134.119 88.0884 133.875C86.3596 133.608 84.1292 130.448 82.7739 128.981C79.2194 125.138 67.0685 112.202 67.8639 111.492Z" fill="#EFAD1B"/>
<path opacity="0.12" fill-rule="evenodd" clip-rule="evenodd" d="M118.693 109.698C118.345 110.458 116.529 108.647 115.567 107.625C113.728 105.662 109.794 102.279 107.796 99.8416C106.613 98.4019 104.344 95.7468 105.052 95.1608C105.608 94.7038 107.428 96.8032 108.382 97.8406C110.391 100.027 114.323 103.705 116.449 105.965C117.291 106.861 119.137 108.731 118.693 109.698Z" fill="white"/>
<path d="M85.2461 124.837C86.3974 125.862 87.5072 126.92 88.6586 127.857C89.0945 128.199 89.587 128.553 89.9456 128.7C90.0329 128.737 90.0988 128.733 90.0455 128.724C89.9673 128.737 90.1073 128.711 90.1328 128.703L90.3059 128.654C90.5626 128.575 90.8377 128.482 91.1084 128.387C92.2055 128.009 93.3191 127.609 94.4245 127.188C96.6513 126.394 98.8794 125.583 101.144 124.86C102.593 124.392 104.049 123.938 105.525 123.538C106.353 123.311 106.637 123.701 105.929 124.076C104.522 124.818 103.088 125.501 101.644 126.151C99.475 127.14 97.2672 128.021 95.028 128.855C93.8986 129.243 92.776 129.644 91.6091 129.981C91.3138 130.064 91.0231 130.146 90.7017 130.215L90.4407 130.264C90.3168 130.284 90.3127 130.297 90.0842 130.304C89.7373 130.298 89.5108 130.206 89.3309 130.12C88.6094 129.76 88.1957 129.32 87.7378 128.884C86.6055 127.729 85.634 126.49 84.717 125.215C84.2397 124.552 84.6159 124.271 85.2461 124.837Z" fill="#8F7ECE"/>
<path fill-rule="evenodd" clip-rule="evenodd" d="M122.271 114.131C122.371 115.33 93.2065 125.722 92.7058 124.478C92.3543 123.616 99.8446 121.4 107.129 118.899C114.756 116.279 122.207 113.4 122.271 114.131Z" fill="#8F7ECE"/>
<path fill-rule="evenodd" clip-rule="evenodd" d="M86.4205 114.891C86.5857 115.877 87.6864 117.149 88.8448 118.335C89.3399 118.84 90.1558 119.649 90.66 119.256C91.2635 118.787 90.4833 117.722 90.2042 117.342C89.3165 116.142 87.9984 114.87 87.1016 114.397C86.8664 114.387 86.5359 114.644 86.4205 114.891Z" fill="white"/>
<path fill-rule="evenodd" clip-rule="evenodd" d="M87.6302 119.385C86.1953 120.112 88.2935 122.937 89.2706 122.026C89.6933 121.631 89.1897 119.885 88.4708 119.395C88.2127 119.219 87.8799 119.258 87.6302 119.385Z" fill="white"/>
<path fill-rule="evenodd" clip-rule="evenodd" d="M71.8699 109.604C71.4486 109.383 71.4562 108.575 71.4788 108.06C71.5672 106.019 73.1633 105.252 75.0046 104.088C77.465 102.533 79.94 101.145 82.3617 99.7992C83.9337 98.925 86.0232 97.5674 88.2952 97.379C91.0693 97.1505 93.7066 97.5205 96.307 97.8566C102.614 98.6716 108.336 99.7515 114.448 101.086C115.679 101.355 117.465 101.501 117.61 102.226C117.888 103.615 115.827 103.438 114.447 103.189C113.47 103.014 111.862 102.669 110.794 102.441C104.415 101.073 98.7547 100.142 92.0428 99.2596C90.2211 99.022 88.3939 98.7454 86.7123 99.4389C85.4229 99.9692 84.2173 101.128 82.9839 102.025C80.5321 103.807 78.1872 105.616 75.8085 107.438C74.6639 108.313 73.5556 109.554 71.8699 109.604Z" fill="#4D3D87"/>
<path fill-rule="evenodd" clip-rule="evenodd" d="M113.124 118.359C113.999 118.678 114.719 116.552 114.769 116.065C114.899 114.791 111.812 110.195 110.466 107.936C109.592 106.467 108.522 104.355 106.746 103.119C104.577 101.607 102.235 100.651 99.9385 99.6876C94.37 97.3476 89.1569 95.5049 83.4985 93.6852C82.3591 93.3196 80.8228 92.5872 80.3582 93.1142C79.467 94.1215 81.245 94.9597 82.4963 95.412C83.3831 95.7354 84.8678 96.2209 85.8548 96.5423C91.7459 98.4624 96.8397 100.396 102.771 102.875C104.381 103.547 106.013 104.193 107.063 105.563C107.869 106.615 108.307 108.142 108.893 109.466C110.056 112.101 111.619 117.811 113.124 118.359Z" fill="#4D3D87"/>
<path fill-rule="evenodd" clip-rule="evenodd" d="M88.479 87.7391C92.9845 87.3254 96.9627 89.6537 97.8229 93.7661C98.4405 96.718 97.0251 99.2001 95.6403 100.752C93.4164 103.244 89.3713 105.361 85.5106 105.64C80.4226 106.012 76.2097 103.474 76.4292 98.2189C76.5332 95.7008 78.1565 93.5973 79.573 92.1061C81.3496 90.2352 83.231 88.9362 85.948 88.1765C86.71 87.9621 87.4562 87.834 88.479 87.7391ZM83.0661 91.8445C81.62 92.7841 79.8636 94.4343 79.2238 96.0366C77.4036 100.593 81.4568 103.173 85.6861 102.847C89.8448 102.527 93.8365 99.8628 95.2029 96.9958C95.5073 96.3577 95.8427 95.4483 95.8155 94.3772C95.7232 90.992 92.26 89.5066 89.0037 89.8344C86.4715 90.0917 84.7492 90.7494 83.0661 91.8445Z" fill="#4D3D87"/>
<path fill-rule="evenodd" clip-rule="evenodd" d="M111.217 91.6299C115.724 91.2142 119.702 93.543 120.561 97.654C121.18 100.607 119.763 103.089 118.378 104.64C116.154 107.133 112.109 109.25 108.248 109.531C103.16 109.901 98.9488 107.364 99.1685 102.107C99.2725 99.5902 100.895 97.4878 102.312 95.9946C104.088 94.1237 105.97 92.8252 108.686 92.0659C109.448 91.8529 110.194 91.7234 111.217 91.6299ZM105.804 95.7338C104.359 96.6734 102.602 98.3228 101.962 99.9256C100.143 104.482 104.195 107.062 108.424 106.735C112.582 106.415 116.574 103.752 117.942 100.885C118.247 100.247 118.581 99.3377 118.554 98.266C118.464 94.8828 115 93.3959 111.742 93.7252C109.209 93.9813 107.487 94.6396 105.804 95.7338Z" fill="#4D3D87"/>
<path opacity="0.6" fill-rule="evenodd" clip-rule="evenodd" d="M83.0646 91.8445C81.6186 92.784 79.8622 94.4343 79.2224 96.0366C77.4021 100.593 81.4554 103.173 85.6847 102.847C89.8434 102.527 93.8351 99.8627 95.2015 96.9957C95.5059 96.3577 95.8413 95.4483 95.8141 94.3772C95.7218 90.9919 92.2586 89.5066 89.0023 89.8344C86.4701 90.0917 84.7478 90.7494 83.0646 91.8445Z" fill="white"/>
<path opacity="0.6" fill-rule="evenodd" clip-rule="evenodd" d="M105.803 95.734C104.358 96.6735 102.601 98.3229 101.961 99.9258C100.142 104.482 104.194 107.063 108.423 106.736C112.582 106.416 116.574 103.752 117.941 100.885C118.246 100.247 118.58 99.3378 118.553 98.2661C118.463 94.8829 114.999 93.3961 111.741 93.7254C109.208 93.9814 107.487 94.6397 105.803 95.734Z" fill="white"/>
<path fill-rule="evenodd" clip-rule="evenodd" d="M112.678 93.3217C113.19 94.1046 111.59 94.4881 110.76 94.6729C109.889 94.8686 108.991 95.1223 108.832 94.5885C108.751 94.3155 109.024 94.116 109.239 93.9121C109.754 93.417 111.895 92.9406 112.397 93.1003C112.49 93.1304 112.622 93.2315 112.678 93.3217Z" fill="white"/>
<path fill-rule="evenodd" clip-rule="evenodd" d="M110.14 96.0599C110.739 97.0024 108.279 97.5722 108.121 96.678C107.988 95.9219 109.817 95.5483 110.14 96.0599Z" fill="white"/>
<path fill-rule="evenodd" clip-rule="evenodd" d="M107.533 94.9533C107.619 95.0843 107.682 95.2756 107.623 95.4485C107.44 95.9732 105.267 96.8052 105.07 95.829C104.991 95.4353 105.63 95.0398 106.265 94.8212C106.771 94.644 107.307 94.6082 107.533 94.9533Z" fill="white"/>
<path fill-rule="evenodd" clip-rule="evenodd" d="M88.5166 101.568C88.243 102.919 91.695 102.008 90.8053 100.984C90.3412 100.45 89.012 101.117 88.5166 101.568Z" fill="white"/>
<path fill-rule="evenodd" clip-rule="evenodd" d="M86.91 103.355C87.143 103.179 87.5262 102.694 87.1386 102.253C86.6335 101.676 85.1226 101.967 84.501 101.969C83.7463 101.971 82.3233 101.634 81.905 102.375C81.3079 103.431 83.4996 103.592 84.254 103.617C84.6562 103.629 85.0515 103.602 85.3913 103.596C85.9746 103.585 86.4621 103.692 86.91 103.355Z" fill="white"/>
<path fill-rule="evenodd" clip-rule="evenodd" d="M39.0309 77.3562C38.3662 74.7763 38.7131 70.934 36.897 68.0453C36.4821 67.3835 35.7576 66.6112 35.1617 66.8854C34.2116 67.3223 34.7419 70.2502 34.8192 71.0705C34.9789 72.7149 35.1913 74.04 35.4649 75.5453C34.7378 74.1388 34.189 72.3227 33.2073 70.4819C32.5118 69.1809 31.0426 66.5412 29.931 66.9681C28.388 67.5596 30.1349 71.8873 30.6145 73.2385C31.3074 75.1853 32.4271 77.9664 33.8246 80.2457C35.2144 82.5153 37.8602 85.3413 40.0253 82.8265C40.5189 82.2496 41.005 81.3326 41.3926 80.5454C42.1563 78.9889 42.5756 77.4478 42.8849 75.7407C43.0361 74.9008 43.243 73.9738 43.1902 73.2115C43.1389 72.4343 42.9307 71.5926 42.0957 71.3441C40.782 71.8082 40.3402 73.0615 39.9391 74.0506C39.5058 75.1126 39.2518 76.2646 38.9926 77.2858C39.0055 77.3105 39.0183 77.3345 39.0309 77.3562Z" fill="#FF5000"/>
<path fill-rule="evenodd" clip-rule="evenodd" d="M55.3607 112.063C55.3481 114.237 55.2959 116.568 55.1307 118.666C55.0794 119.375 55.1096 120.14 54.9057 120.715C54.5448 121.735 53.1467 122.671 52.7049 123.903C52.1972 125.318 52.3343 127.34 52.2485 129.217C52.1597 131.118 52.1269 132.992 52.0211 134.758C51.7917 138.531 52.2997 142.579 51.1841 145.386C51.18 145.395 51.1285 145.502 51.1103 145.537C49.6009 148.292 44.4989 149.274 40.7867 149.711C34.8414 150.411 27.3704 150.085 25.4553 145.916C25.1254 145.198 24.9974 144.205 24.8477 143.258C24.0986 138.546 23.9184 133.487 23.3284 128.61C23.2129 127.64 23.0787 126.667 22.9507 125.724C22.8206 124.772 22.6941 123.82 22.4199 123.069C21.9649 121.836 20.7438 121.305 20.2923 120.185C19.4623 118.117 19.8655 114.574 19.8385 111.835C20.6946 110.988 21.7566 110.345 22.8748 109.71C26.1145 107.872 30.2705 106.905 35.2466 106.673C39.1762 106.492 43.6179 107.039 47.0122 107.737C50.6565 108.487 53.9609 109.679 55.3607 112.063Z" fill="#4D3D87"/>
<path fill-rule="evenodd" clip-rule="evenodd" d="M53.1888 113.721C53.2816 114.364 52.5943 114.648 52.159 114.902C45.7008 118.66 33.22 118.601 24.2349 116.36C23.6912 116.224 23.0153 116.07 22.6673 115.623C22.5855 115.261 22.9345 115.267 23.1392 115.107C23.5972 114.748 24.1204 114.214 24.7028 113.868C26.3815 112.879 28.5964 112.08 30.8584 111.578C37.427 110.115 47.2843 110.291 52.5847 113.548C52.7367 113.949 53.129 113.384 53.1888 113.721Z" fill="#EFAD1B"/>
<path fill-rule="evenodd" clip-rule="evenodd" d="M36.915 106.523C40.8235 106.336 44.751 106.66 47.9974 107.433C49.6348 107.824 50.8339 108.082 52.5502 108.875C53.899 109.496 55.4921 110.611 55.6624 111.759C55.912 113.439 54.5898 114.864 53.463 115.632C52.1576 116.519 50.5975 116.982 49.1353 117.377C45.8535 118.256 41.8697 118.439 38.1288 118.439C34.6281 118.439 30.4348 118.353 26.9716 117.529C25.5713 117.194 24.0267 116.605 22.5715 115.858C21.2535 115.183 19.7667 114.072 19.6105 112.822C19.2053 109.643 24.0938 108.508 26.4414 107.889C29.7466 107.015 32.8547 106.716 36.915 106.523ZM24.4679 114.644C28.2619 115.951 33.0381 116.222 37.9032 116.39C43.1221 116.571 47.3385 115.764 50.8811 114.264C51.6604 113.934 53.8934 113.148 53.8407 112.139C53.7964 111.284 51.683 110.402 50.7299 110.014C46.9375 108.469 41.9839 108.02 36.6877 108.267C32.3986 108.473 27.4055 109.282 24.1638 110.621C23.0295 111.088 21.8189 111.704 21.3546 112.745C21.9944 113.784 23.2653 114.23 24.4679 114.644Z" fill="#8F7ECE"/>
<path opacity="0.21" fill-rule="evenodd" clip-rule="evenodd" d="M24.6199 123.754C30.0243 124.61 34.0983 124.885 39.0413 124.662C44.4957 124.415 52.5503 122.614 52.5503 122.614C52.5503 122.614 47.8716 125.839 39.1171 126.18C33.6389 126.395 28.3171 125.749 24.6199 123.754Z" fill="black"/>
<path fill-rule="evenodd" clip-rule="evenodd" d="M29.1558 142.488C28.0973 142.768 28.2716 146.453 29.6122 146.102C30.5506 145.858 30.1118 142.788 29.1558 142.488Z" fill="white"/>
<path fill-rule="evenodd" clip-rule="evenodd" d="M27.7804 140.146C28.6596 140.096 28.524 139.163 28.5535 138.434C28.5796 137.788 28.7624 136.99 28.7449 136.429C28.7252 135.688 28.5284 134.757 27.9887 134.491C27.36 135.04 27.2545 136.243 27.1728 137.188C27.0931 138.117 26.9686 139.386 27.7804 140.146Z" fill="white"/>
<path fill-rule="evenodd" clip-rule="evenodd" d="M27.4188 131.279C28.3001 130.413 28.165 129.035 28.2016 127.744C28.0238 127.733 27.8767 127.659 27.7657 127.523C27.115 127.702 26.8915 128.744 26.8071 129.416C26.7233 130.096 26.5756 131.184 27.4188 131.279Z" fill="white"/>
<path fill-rule="evenodd" clip-rule="evenodd" d="M31.52 135.638C32.3409 135.155 32.4956 133.07 31.4251 132.756C30.3581 133.103 30.4474 135.356 31.52 135.638Z" fill="white"/>
<path fill-rule="evenodd" clip-rule="evenodd" d="M31.7397 110.653C31.9647 111.719 32.197 112.782 32.4431 113.841H42.8892C43.324 113.248 43.6208 111.904 43.9231 110.927C44.9014 107.775 45.8242 104.675 46.2209 101.417C46.5092 99.0262 46.4304 96.8013 46.2877 94.6507C46.1306 92.3142 45.7615 89.5521 44.8161 87.4366C43.9073 85.3914 42.3657 83.5091 41.0075 82.9331C39.2977 82.208 35.8401 82.8177 33.6133 83.8143C31.2177 84.8869 29.7083 86.4253 29.0564 88.0823C28.2891 90.0291 28.3876 92.7701 28.6331 95.224C29.1379 100.289 30.6657 105.562 31.7397 110.653Z" fill="#B1BC00"/>
<path opacity="0.21" d="M32.7635 112.559C32.8148 112.988 32.8801 113.414 32.9443 113.841H34.4507C34.0681 110.625 33.5765 107.358 33.2326 104.122C32.9258 101.234 32.6249 98.3226 32.4905 95.3335C32.361 92.5151 32.0129 89.3888 32.7732 86.9053C33.1658 85.6253 33.9184 84.5633 34.5703 83.4377C34.2348 83.5552 33.9125 83.6818 33.6143 83.8139C33.4904 83.8696 33.3793 83.9314 33.2598 83.9882C32.8491 84.6354 32.4539 85.3048 32.1723 85.9549C31.1329 88.3435 31.2342 91.773 31.3081 94.5131C31.4677 100.419 32.0334 106.46 32.7635 112.559Z" fill="black"/>
<path opacity="0.21" d="M36.5923 113.841H38.0179C38.0882 109.609 37.8999 105.272 37.8111 100.932C37.7499 97.8305 37.2421 94.5267 37.1211 91.2076C37.0669 89.6912 37.1964 88.0559 37.2709 86.4882C37.3335 85.2094 37.4592 83.9259 37.4417 82.7388C37.195 82.773 36.946 82.8161 36.6961 82.8648C35.5122 88.5703 36.2979 94.631 36.4605 100.659C36.5762 105.024 36.4371 109.409 36.5923 113.841Z" fill="black"/>
<path opacity="0.21" d="M40.3801 90.5473C41.7152 98.6245 40.9857 106.295 40.2747 113.841H41.5836C41.7975 112.462 41.9619 111.016 42.0802 109.735C42.3603 106.738 42.384 103.58 42.4587 100.618C42.5367 97.5513 42.3925 94.3966 41.811 91.1429C41.3059 88.3105 40.3057 85.5463 39.44 82.6249C39.1552 82.6123 38.8555 82.6134 38.5473 82.6284C38.5945 82.8487 38.6487 83.0646 38.6903 83.2706C39.1746 85.6058 39.9834 88.1561 40.3801 90.5473Z" fill="black"/>
<path fill-rule="evenodd" clip-rule="evenodd" d="M29.867 88.8953C30.1749 89.9748 31.2337 90.2675 31.9096 90.7993C32.025 91.2079 31.3702 91.3943 31.6415 91.8513C31.9292 92.0819 32.4088 91.6916 32.8351 91.4842C33.5256 91.5179 34.1877 92.623 34.9474 91.8027C34.9008 91.2027 34.273 90.9314 33.9079 90.7246C34.1549 90.1231 35.015 89.6989 34.4848 88.8692C33.8124 88.8039 33.479 89.6253 32.9464 89.9693C31.8384 89.8679 31.1033 88.5753 29.867 88.8953Z" fill="white"/>
<path fill-rule="evenodd" clip-rule="evenodd" d="M41.7477 90.1501C41.3139 89.8131 40.9881 89.1273 40.3825 89.3362C40.4182 89.4065 40.3242 89.439 40.277 89.4847C40.3438 90.0903 40.9157 90.6115 41.2567 90.9604C41.1849 91.4163 40.2369 91.6181 40.4092 92.1428C40.6975 92.05 40.9837 91.9606 41.3095 91.7502C41.4917 92.2383 41.1724 92.8374 41.0927 93.4123C41.0112 94.0143 40.9611 94.6524 41.061 95.25C41.4577 94.9462 41.6801 94.2879 41.8271 93.7468C41.9839 93.1667 42.048 92.5316 42.1895 92.006C42.8183 92.4639 43.6356 93.1328 44.2263 93.7307C44.4076 93.9156 44.4401 94.3363 44.7811 94.2499C45.31 93.922 44.7621 93.2898 44.5728 92.9971C44.0918 92.26 43.1177 91.5229 42.6747 91.0158C43.1051 90.5473 44.1404 90.2514 43.6242 89.5064C43.3605 89.4733 42.9237 89.7871 42.7597 89.9708C42.7225 89.2046 43.3175 88.624 43.0755 87.7996C41.9757 88.1573 42.2018 89.4065 41.7477 90.1501Z" fill="white"/>
<path fill-rule="evenodd" clip-rule="evenodd" d="M35.8807 96.1213C35.4468 96.7313 35.9918 97.6231 36.4054 98.4768C35.9575 98.4461 35.6689 97.8973 35.1597 98.0561C35.3009 98.7897 36.0416 99.1814 36.5009 99.5171C36.3342 99.944 35.5368 100.189 35.6563 100.7C36.0726 100.644 36.5918 100.259 37.0588 100.037C37.8401 101.117 38.4726 102.675 39.2847 103.662C39.7131 102.973 38.9238 101.929 38.6088 101.023C39.2982 101.109 39.7341 102.02 40.5832 101.599C40.3933 100.354 38.8382 100.325 38.1038 99.5655C38.4893 99.1041 39.4831 98.8172 39.5288 98.2545C39.4634 98.137 39.4022 98.0195 39.3375 97.9035C38.7369 97.8156 38.2207 98.4944 37.5764 98.7575C37.1045 97.9064 36.8091 96.2163 35.8807 96.1213Z" fill="white"/>
<path fill-rule="evenodd" clip-rule="evenodd" d="M36.786 109.005C36.6594 109.546 35.7767 109.864 36.1276 110.541C36.5735 110.564 36.8246 110.089 37.2781 109.922C37.7536 110.776 38.4078 112.113 38.917 112.995H39.1394C39.3321 112.127 38.6548 111.009 38.4424 110.024C38.9987 110.097 39.3764 110.743 40.0868 110.325C40.2661 109.462 39.1282 109.282 38.6006 108.94C38.9369 108.355 40.3224 107.896 40.0171 107.268C39.636 106.482 38.4565 107.719 37.8207 108.176C37.2559 107.697 37.2257 105.882 36.2812 106.001C35.8921 106.464 36.2419 107.141 36.5041 107.793C36.0562 107.951 35.8127 107.447 35.3387 107.691C35.4966 108.43 36.2823 108.743 36.786 109.005Z" fill="white"/>
<path fill-rule="evenodd" clip-rule="evenodd" d="M29.867 88.8953C30.1749 89.9748 31.2337 90.2675 31.9096 90.7993C32.025 91.2079 31.3702 91.3943 31.6415 91.8513C31.9292 92.0819 32.4088 91.6916 32.8351 91.4842C33.5256 91.5179 34.1877 92.623 34.9474 91.8027C34.9008 91.2027 34.273 90.9314 33.9079 90.7246C34.1549 90.1231 35.015 89.6989 34.4848 88.8692C33.8124 88.8039 33.479 89.6253 32.9464 89.9693C31.8384 89.8679 31.1033 88.5753 29.867 88.8953Z" fill="#B1BC00"/>
<path fill-rule="evenodd" clip-rule="evenodd" d="M41.7477 90.1501C41.3139 89.8131 40.9881 89.1273 40.3825 89.3362C40.4182 89.4065 40.3242 89.439 40.277 89.4847C40.3438 90.0903 40.9157 90.6115 41.2567 90.9604C41.1849 91.4163 40.2369 91.6181 40.4092 92.1428C40.6975 92.05 40.9837 91.9606 41.3095 91.7502C41.4917 92.2383 41.1724 92.8374 41.0927 93.4123C41.0112 94.0143 40.9611 94.6524 41.061 95.25C41.4577 94.9462 41.6801 94.2879 41.8271 93.7468C41.9839 93.1667 42.048 92.5316 42.1895 92.006C42.8183 92.4639 43.6356 93.1328 44.2263 93.7307C44.4076 93.9156 44.4401 94.3363 44.7811 94.2499C45.31 93.922 44.7621 93.2898 44.5728 92.9971C44.0918 92.26 43.1177 91.5229 42.6747 91.0158C43.1051 90.5473 44.1404 90.2514 43.6242 89.5064C43.3605 89.4733 42.9237 89.7871 42.7597 89.9708C42.7225 89.2046 43.3175 88.624 43.0755 87.7996C41.9757 88.1573 42.2018 89.4065 41.7477 90.1501Z" fill="#B1BC00"/>
<path fill-rule="evenodd" clip-rule="evenodd" d="M35.8807 96.1213C35.4468 96.7313 35.9918 97.6231 36.4054 98.4768C35.9575 98.4461 35.6689 97.8973 35.1597 98.0561C35.3009 98.7897 36.0416 99.1814 36.5009 99.5171C36.3342 99.944 35.5368 100.189 35.6563 100.7C36.0726 100.644 36.5918 100.259 37.0588 100.037C37.8401 101.117 38.4726 102.675 39.2847 103.662C39.7131 102.973 38.9238 101.929 38.6088 101.023C39.2982 101.109 39.7341 102.02 40.5832 101.599C40.3933 100.354 38.8382 100.325 38.1038 99.5655C38.4893 99.1041 39.4831 98.8172 39.5288 98.2545C39.4634 98.137 39.4022 98.0195 39.3375 97.9035C38.7369 97.8156 38.2207 98.4944 37.5764 98.7575C37.1045 97.9064 36.8091 96.2163 35.8807 96.1213Z" fill="#B1BC00"/>
<path fill-rule="evenodd" clip-rule="evenodd" d="M36.786 109.005C36.6594 109.546 35.7767 109.864 36.1276 110.541C36.5735 110.564 36.8246 110.089 37.2781 109.922C37.7536 110.776 38.4078 112.113 38.917 112.995H39.1394C39.3321 112.127 38.6548 111.009 38.4424 110.024C38.9987 110.097 39.3764 110.743 40.0868 110.325C40.2661 109.462 39.1282 109.282 38.6006 108.94C38.9369 108.355 40.3224 107.896 40.0171 107.268C39.636 106.482 38.4565 107.719 37.8207 108.176C37.2559 107.697 37.2257 105.882 36.2812 106.001C35.8921 106.464 36.2419 107.141 36.5041 107.793C36.0562 107.951 35.8127 107.447 35.3387 107.691C35.4966 108.43 36.2823 108.743 36.786 109.005Z" fill="#B1BC00"/>
<g opacity="0.21">
<path opacity="0.21" fill-rule="evenodd" clip-rule="evenodd" d="M29.867 88.8953C30.1749 89.9748 31.2337 90.2675 31.9096 90.7993C32.025 91.2079 31.3702 91.3943 31.6415 91.8513C31.9292 92.0819 32.4088 91.6916 32.8351 91.4842C33.5256 91.5179 34.1877 92.623 34.9474 91.8027C34.9008 91.2027 34.273 90.9314 33.9079 90.7246C34.1549 90.1231 35.015 89.6989 34.4848 88.8692C33.8124 88.8039 33.479 89.6253 32.9464 89.9693C31.8384 89.8679 31.1033 88.5753 29.867 88.8953Z" fill="black"/>
<path opacity="0.21" fill-rule="evenodd" clip-rule="evenodd" d="M41.7477 90.1501C41.3139 89.8131 40.9881 89.1273 40.3825 89.3362C40.4182 89.4065 40.3242 89.439 40.277 89.4847C40.3438 90.0903 40.9157 90.6115 41.2567 90.9604C41.1849 91.4163 40.2369 91.6181 40.4092 92.1428C40.6975 92.05 40.9837 91.9606 41.3095 91.7502C41.4917 92.2383 41.1724 92.8374 41.0927 93.4123C41.0112 94.0143 40.9611 94.6524 41.061 95.25C41.4577 94.9462 41.6801 94.2879 41.8271 93.7468C41.9839 93.1667 42.048 92.5316 42.1895 92.006C42.8183 92.4639 43.6356 93.1328 44.2263 93.7307C44.4076 93.9156 44.4401 94.3363 44.7811 94.2499C45.31 93.922 44.7621 93.2898 44.5728 92.9971C44.0918 92.26 43.1177 91.5229 42.6747 91.0158C43.1051 90.5473 44.1404 90.2514 43.6242 89.5064C43.3605 89.4733 42.9237 89.7871 42.7597 89.9708C42.7225 89.2046 43.3175 88.624 43.0755 87.7996C41.9757 88.1573 42.2018 89.4065 41.7477 90.1501Z" fill="black"/>
<path opacity="0.21" fill-rule="evenodd" clip-rule="evenodd" d="M35.8807 96.1213C35.4468 96.7313 35.9918 97.6231 36.4054 98.4768C35.9575 98.4461 35.6689 97.8973 35.1597 98.0561C35.3009 98.7897 36.0416 99.1814 36.5009 99.5171C36.3342 99.944 35.5368 100.189 35.6563 100.7C36.0726 100.644 36.5918 100.259 37.0588 100.037C37.8401 101.117 38.4726 102.675 39.2847 103.662C39.7131 102.973 38.9238 101.929 38.6088 101.023C39.2982 101.109 39.7341 102.02 40.5832 101.599C40.3933 100.354 38.8382 100.325 38.1038 99.5655C38.4893 99.1041 39.4831 98.8172 39.5288 98.2545C39.4634 98.137 39.4022 98.0195 39.3375 97.9035C38.7369 97.8156 38.2207 98.4944 37.5764 98.7575C37.1045 97.9064 36.8091 96.2163 35.8807 96.1213Z" fill="black"/>
<path opacity="0.21" fill-rule="evenodd" clip-rule="evenodd" d="M36.786 109.005C36.6594 109.546 35.7767 109.864 36.1276 110.541C36.5735 110.564 36.8246 110.089 37.2781 109.922C37.7536 110.776 38.4078 112.113 38.917 112.995H39.1394C39.3321 112.127 38.6548 111.009 38.4424 110.024C38.9987 110.097 39.3764 110.743 40.0868 110.325C40.2661 109.462 39.1282 109.282 38.6006 108.94C38.9369 108.355 40.3224 107.896 40.0171 107.268C39.636 106.482 38.4565 107.719 37.8207 108.176C37.2559 107.697 37.2257 105.882 36.2812 106.001C35.8921 106.464 36.2419 107.141 36.5041 107.793C36.0562 107.951 35.8127 107.447 35.3387 107.691C35.4966 108.43 36.2823 108.743 36.786 109.005Z" fill="black"/>
</g>
<g opacity="0.21">
<path opacity="0.21" fill-rule="evenodd" clip-rule="evenodd" d="M29.867 88.8953C30.1749 89.9748 31.2337 90.2675 31.9096 90.7993C32.025 91.2079 31.3702 91.3943 31.6415 91.8513C31.9292 92.0819 32.4088 91.6916 32.8351 91.4842C33.5256 91.5179 34.1877 92.623 34.9474 91.8027C34.9008 91.2027 34.273 90.9314 33.9079 90.7246C34.1549 90.1231 35.015 89.6989 34.4848 88.8692C33.8124 88.8039 33.479 89.6253 32.9464 89.9693C31.8384 89.8679 31.1033 88.5753 29.867 88.8953Z" fill="black"/>
<path opacity="0.21" fill-rule="evenodd" clip-rule="evenodd" d="M41.7477 90.1501C41.3139 89.8131 40.9881 89.1273 40.3825 89.3362C40.4182 89.4065 40.3242 89.439 40.277 89.4847C40.3438 90.0903 40.9157 90.6115 41.2567 90.9604C41.1849 91.4163 40.2369 91.6181 40.4092 92.1428C40.6975 92.05 40.9837 91.9606 41.3095 91.7502C41.4917 92.2383 41.1724 92.8374 41.0927 93.4123C41.0112 94.0143 40.9611 94.6524 41.061 95.25C41.4577 94.9462 41.6801 94.2879 41.8271 93.7468C41.9839 93.1667 42.048 92.5316 42.1895 92.006C42.8183 92.4639 43.6356 93.1328 44.2263 93.7307C44.4076 93.9156 44.4401 94.3363 44.7811 94.2499C45.31 93.922 44.7621 93.2898 44.5728 92.9971C44.0918 92.26 43.1177 91.5229 42.6747 91.0158C43.1051 90.5473 44.1404 90.2514 43.6242 89.5064C43.3605 89.4733 42.9237 89.7871 42.7597 89.9708C42.7225 89.2046 43.3175 88.624 43.0755 87.7996C41.9757 88.1573 42.2018 89.4065 41.7477 90.1501Z" fill="black"/>
<path opacity="0.21" fill-rule="evenodd" clip-rule="evenodd" d="M35.8807 96.1213C35.4468 96.7313 35.9918 97.6231 36.4054 98.4768C35.9575 98.4461 35.6689 97.8973 35.1597 98.0561C35.3009 98.7897 36.0416 99.1814 36.5009 99.5171C36.3342 99.944 35.5368 100.189 35.6563 100.7C36.0726 100.644 36.5918 100.259 37.0588 100.037C37.8401 101.117 38.4726 102.675 39.2847 103.662C39.7131 102.973 38.9238 101.929 38.6088 101.023C39.2982 101.109 39.7341 102.02 40.5832 101.599C40.3933 100.354 38.8382 100.325 38.1038 99.5655C38.4893 99.1041 39.4831 98.8172 39.5288 98.2545C39.4634 98.137 39.4022 98.0195 39.3375 97.9035C38.7369 97.8156 38.2207 98.4944 37.5764 98.7575C37.1045 97.9064 36.8091 96.2163 35.8807 96.1213Z" fill="black"/>
<path opacity="0.21" fill-rule="evenodd" clip-rule="evenodd" d="M36.786 109.005C36.6594 109.546 35.7767 109.864 36.1276 110.541C36.5735 110.564 36.8246 110.089 37.2781 109.922C37.7536 110.776 38.4078 112.113 38.917 112.995H39.1394C39.3321 112.127 38.6548 111.009 38.4424 110.024C38.9987 110.097 39.3764 110.743 40.0868 110.325C40.2661 109.462 39.1282 109.282 38.6006 108.94C38.9369 108.355 40.3224 107.896 40.0171 107.268C39.636 106.482 38.4565 107.719 37.8207 108.176C37.2559 107.697 37.2257 105.882 36.2812 106.001C35.8921 106.464 36.2419 107.141 36.5041 107.793C36.0562 107.951 35.8127 107.447 35.3387 107.691C35.4966 108.43 36.2823 108.743 36.786 109.005Z" fill="black"/>
</g>
</svg>
