<svg width="150" height="150" viewBox="0 0 150 150" fill="none" xmlns="http://www.w3.org/2000/svg">
<path d="M129.018 136.754L128.879 137.766C128.68 139.222 127.337 140.242 125.881 140.042L50.8276 129.75C49.3712 129.55 48.3523 128.207 48.5521 126.75L48.6907 125.739L129.018 136.754Z" fill="#8F7ECE"/>
<path d="M55.7512 74.2447C55.9516 72.7875 57.2942 71.7688 58.752 71.9689L133.804 82.2606C135.259 82.4604 136.28 83.8034 136.079 85.2603L129.017 136.755L48.69 125.739L55.7512 74.2447Z" fill="#8F7ECE"/>
<path opacity="0.75" d="M126.945 136.46L133.747 86.8601C133.937 85.479 132.971 84.2049 131.589 84.0156L60.4119 74.2548C59.03 74.0658 57.7573 75.032 57.569 76.4137L50.7668 126.014L126.945 136.46Z" fill="white"/>
<path fill-rule="evenodd" clip-rule="evenodd" d="M127.362 130.33C126.521 131.262 126.131 133.342 125.873 135.41C125.762 136.294 125.606 137.728 126.386 137.918C127.323 138.145 127.76 136.543 127.912 135.969C128.4 134.154 128.62 131.864 128.381 130.61C128.208 130.369 127.696 130.248 127.362 130.33Z" fill="white"/>
<path fill-rule="evenodd" clip-rule="evenodd" d="M123.889 135.038C122.049 134.195 120.914 138.473 122.573 138.722C123.294 138.829 124.616 136.965 124.537 135.874C124.506 135.484 124.208 135.184 123.889 135.038Z" fill="white"/>
<path fill-rule="evenodd" clip-rule="evenodd" d="M90.016 79.599C90.016 96.1631 103.444 109.591 120.008 109.591C136.571 109.591 150 96.1634 150 79.599C150 63.0351 136.571 49.6072 120.008 49.6072C103.444 49.6072 90.016 63.0351 90.016 79.599Z" fill="#EFAD1B"/>
<path d="M127.93 100.952C128.3 99.6616 128.594 98.3901 129.64 97.6237C129.994 97.365 130.622 97.1547 131.166 97.0325C132.329 96.7715 133.501 96.8177 134.742 96.8151C136.004 96.8125 137.337 96.7108 138.133 96.1307C138.689 95.7253 138.962 95.0673 139.127 94.326C139.311 93.5131 139.316 92.5422 139.004 91.7444C138.946 91.5962 138.865 91.4388 138.786 91.2461C138.718 91.0814 138.662 90.9241 138.568 90.7175C138.496 90.5588 138.442 90.4715 138.381 90.2511C138.334 90.078 138.275 89.7639 138.32 89.5354C138.465 88.7889 139.396 88.5176 139.408 87.7313C139.411 87.5421 139.408 87.4047 139.314 87.2957C139.259 87.2295 139.064 87.1029 139.035 86.9535C138.984 86.686 139.375 86.3643 139.408 86.0207C139.472 85.36 138.811 85.0044 138.785 84.3408C138.768 83.8577 139.008 83.4601 139.345 83.19C139.393 83.151 139.475 83.1425 139.533 83.0965C139.582 83.0561 139.609 82.972 139.657 82.941C139.778 82.8645 139.934 82.8291 140.062 82.7541C140.497 82.498 140.974 82.1224 141.181 81.6965C141.441 81.1621 141.342 80.4179 141.026 79.8613C140.957 79.7415 140.833 79.612 140.745 79.4881C140.501 79.1383 140.213 78.8008 139.906 78.4612C139.126 77.601 138.253 76.7971 137.448 75.9423C137.139 75.6127 136.86 75.313 136.577 74.9465C136.357 74.6617 136.046 74.3485 135.863 73.9817C135.839 73.9375 135.83 73.8305 135.8 73.764C135.542 73.1927 135.622 72.2866 135.675 71.6177C135.738 70.8332 135.869 70.0864 135.738 69.1923C135.592 68.1962 135.065 67.2009 134.586 66.3918C134.332 65.9611 134.074 65.5553 133.809 65.1783C132.488 63.3065 130.732 61.3767 129.049 60.0762C128.769 59.86 128.491 59.6634 128.18 59.4546C127.896 59.2647 127.639 59.0919 127.338 58.9255C126.924 58.6964 126.52 58.4552 126.063 58.2408C124.537 57.5271 122.857 56.9652 121.024 56.6857C120.484 56.6043 119.938 56.5565 119.374 56.4994C118.825 56.4434 118.26 56.367 117.695 56.3438C117.317 56.3283 116.966 56.3784 116.607 56.3754C114.082 56.3485 111.814 56.8767 109.98 57.7126C109.723 57.83 109.481 57.9636 109.234 58.0855C108.468 58.4646 107.757 58.8267 107.025 59.2673C106.304 59.7033 105.751 60.2031 105.159 60.7603C104.781 61.1183 104.425 61.4983 104.071 61.9114C103.899 62.1112 103.721 62.323 103.605 62.565C103.422 62.6793 103.343 62.8881 103.231 63.0628C103.121 63.2339 102.989 63.388 102.889 63.5605C102.792 63.7249 102.734 63.9162 102.64 64.0893C102.439 64.4564 102.262 64.7995 102.08 65.2398C102.029 65.3634 101.949 65.4976 101.894 65.6447C101.876 65.6886 101.906 65.7352 101.894 65.7686C101.741 66.1668 101.603 66.5646 101.489 66.9821C101.324 67.5947 101.185 68.1853 101.084 68.8805C101.029 69.269 100.959 69.7574 100.928 70.28C100.902 70.7365 100.895 71.2202 100.898 71.7423C100.912 73.7497 101.254 75.7524 101.739 77.5281C101.795 77.7367 101.891 77.9403 101.956 78.1504C102.771 80.8272 103.932 82.8847 105.347 84.9004C105.574 85.2241 105.852 85.5206 106.093 85.8338C106.337 86.1502 106.576 86.4704 106.808 86.7982C107.28 87.4618 107.744 88.13 108.147 88.8513C108.549 89.5747 108.92 90.349 109.172 91.1848C109.308 91.6331 109.453 92.1127 109.484 92.5841C109.6 94.3756 107.275 101.802 106.032 106.139C110.206 108.342 114.961 109.591 120.009 109.591C121.86 109.591 123.671 109.422 125.429 109.101C126.21 106.587 127.04 103.896 127.277 103.099C127.484 102.398 127.721 101.678 127.93 100.952Z" fill="white"/>
<path opacity="0.67" d="M120.459 99.0855C120.256 98.0695 119.703 97.3098 119.548 96.2862C119.391 95.2546 119.727 94.393 120.146 93.7669C121.273 92.0827 123.534 91.7077 125.873 91.2776C126.642 91.1367 127.549 90.9146 128.465 90.9046C129.384 90.8938 130.561 90.8818 130.944 91.371C131.265 91.7809 131.153 92.7808 131.257 93.549C131.328 94.0745 131.537 95.073 132.14 95.073C132.591 95.073 132.747 94.5556 132.795 94.1706C132.851 93.7338 132.853 93.1288 132.853 92.6466C132.853 91.5407 133.02 90.3114 132.795 89.629C132.34 88.25 130.462 88.1768 128.665 88.3842C126.247 88.6634 124.435 89.3818 122.397 90.0641C121.917 90.2249 121.417 90.4121 120.887 90.5624C120.408 90.6984 119.737 90.8706 119.206 90.8425C118.833 90.822 118.269 90.6351 118.153 90.1892C118.037 89.7538 118.259 89.2083 118.409 88.8512C119.233 86.8819 121.033 86.2693 123.194 85.7721C124.924 85.3734 126.727 85.2656 128.75 85.4296C131.102 85.6201 133.258 86.0695 135.56 85.8647C136.07 85.8193 136.499 85.623 136.557 85.3045C136.662 84.7244 136.031 84.0533 135.76 83.6876C135.377 83.1732 135.056 82.7495 134.705 82.3496C133.922 81.4596 133.169 80.639 132.454 79.8307C131.684 78.9579 130.873 78.1927 129.775 77.7764C128.652 77.3498 127.225 77.3566 125.702 77.2792C124.582 77.2221 122.465 77.1061 121.627 77.5907C120.946 77.9832 120.592 78.9462 120.403 79.8919C120.264 80.5877 120.212 81.3471 119.975 81.9761C119.494 83.2567 118.388 83.9665 117.297 84.6515C116.532 85.132 115.595 85.6511 115.103 86.4559C114.338 87.7083 114.449 89.6911 114.364 91.7126C114.198 95.5786 114.102 99.5305 113.364 102.757C113.036 104.201 111.935 106.709 111.399 108.334C113.613 108.997 115.932 109.411 118.329 109.543C119.014 107.152 119.717 104.145 120.231 102.103C120.466 101.173 120.671 100.145 120.459 99.0855Z" fill="#CAD309"/>
<path opacity="0.29" fill-rule="evenodd" clip-rule="evenodd" d="M124.57 78.8344C123.949 79.0811 123.636 79.8873 123.358 80.5143C123.062 81.1814 122.77 81.8807 122.455 82.4119C121.828 83.4739 120.835 84.4758 119.75 85.3043C118.762 86.0587 117.639 86.8893 116.39 87.5447C115.83 87.8382 115.097 88.1836 114.337 88.2909C113.57 88.3993 112.68 88.2498 112.097 87.7623C111.248 87.0522 111.391 85.483 111.817 84.4336C112.396 83.0078 113.342 82.0181 114.337 81.0431C114.791 80.5984 115.451 80.0274 115.551 79.3008C115.606 78.9012 115.507 78.4925 115.457 78.15C115.399 77.7475 115.337 77.3496 115.427 76.9679C115.683 75.8573 117.019 75.191 117.978 74.8207C119.061 74.4024 120.286 74.156 121.461 73.9503C122.651 73.7411 124.055 73.6969 125.505 73.6386C126.998 73.5794 128.542 73.8364 129.363 73.2038C130.08 72.6507 129.998 71.4255 129.767 70.4034C129.531 69.361 129.268 68.5726 129.207 67.2932C129.173 66.5725 129.274 65.7109 129.829 65.9242C130.424 66.1515 131.117 66.7952 131.633 67.3547C132.378 68.163 133.178 68.9655 133.562 70.0618C134.033 71.405 133.686 73.4939 133.872 74.976C133.947 75.5666 134.081 76.2683 133.967 76.7807C133.806 77.4973 133.376 78.2321 132.566 78.4289C131.54 78.8915 125.584 78.4325 124.57 78.8344Z" fill="#8F7ECE"/>
<path opacity="0.41" fill-rule="evenodd" clip-rule="evenodd" d="M136.776 92.0561C136.759 92.0511 136.75 92.0271 136.714 92.0253C136.062 91.9875 136.117 92.896 135.967 93.1764C135.795 93.4992 135.137 93.552 134.598 93.5807C133.356 93.6472 132.495 93.6114 131.145 93.6114C130.663 93.6114 129.856 93.4781 129.652 93.7981C129.504 94.0298 129.667 94.4883 129.714 94.6386C129.967 95.4217 130.523 95.5005 131.612 95.5409C132.079 95.5576 132.583 95.5951 133.043 95.6338C134.06 95.7193 135.149 95.8696 135.935 95.7888C136.398 95.7422 136.778 95.5444 136.9 95.26C137.054 94.9023 136.919 94.4358 136.962 93.8291C136.999 93.3211 137.141 93.0032 137.118 92.6786C137.095 92.3602 137.005 92.1243 136.776 92.0561Z" fill="#FF5000"/>
<path opacity="0.41" fill-rule="evenodd" clip-rule="evenodd" d="M116.686 59.9168C118.347 59.9168 119.888 60.1986 121.229 60.6011C122.503 60.9837 123.862 61.5319 124.899 62.1565C125.921 62.7711 126.999 63.6339 127.481 64.8C128.074 66.2379 127.647 68.0387 127.014 69.0307C126.187 70.3256 124.135 70.5826 122.473 70.9599C121.246 71.238 120.02 71.5576 118.864 71.8309C118.235 71.9792 117.66 72.104 117.122 72.2979C115.549 72.8628 114.114 73.8401 113.389 75.2841C113.032 75.9937 112.873 76.7147 112.548 77.3686C111.972 78.5335 110.933 79.9673 109.252 79.9813C108.383 79.9881 107.702 79.6611 107.043 79.2351C105.877 78.4801 105.081 77.3528 104.524 75.8742C103.983 74.4451 103.644 72.7825 103.901 70.7736C104.094 69.2704 104.695 67.5577 105.364 66.3559C106.117 65.0024 106.824 63.9421 107.883 62.9648C109.808 61.1888 112.845 59.7366 116.623 59.9168C116.645 59.9176 116.667 59.9168 116.686 59.9168ZM124.899 62.5921C124.865 62.5877 124.977 62.6639 125.023 62.6853C125.109 62.724 125.03 62.6056 124.899 62.5921Z" fill="#FF5000"/>
<path fill-rule="evenodd" clip-rule="evenodd" d="M93.7631 73.6203C94.2486 74.5171 94.1592 76.2344 93.9676 77.9164C93.8876 78.6347 93.7359 79.7981 93.0858 79.7987C92.3027 79.7984 92.2625 78.451 92.2505 77.9697C92.2133 76.443 92.4758 74.5915 92.9053 73.6487C93.0884 73.4914 93.5159 73.4925 93.7631 73.6203Z" fill="white"/>
<path fill-rule="evenodd" clip-rule="evenodd" d="M95.6055 78.0006C97.2192 77.6871 97.3012 81.2818 95.9412 81.1617C95.3512 81.1069 94.6639 79.3834 94.9337 78.5382C95.0342 78.2344 95.3251 78.0562 95.6055 78.0006Z" fill="white"/>
<path fill-rule="evenodd" clip-rule="evenodd" d="M94.3328 87.237C94.8909 87.0659 95.4302 87.7177 95.6948 88.521C95.9051 89.167 96.0164 90.4992 95.2333 90.4959C94.8891 90.4959 94.387 90.0304 94.1526 89.3683C93.874 88.5931 93.6135 87.4552 94.3328 87.237Z" fill="white"/>
<path fill-rule="evenodd" clip-rule="evenodd" d="M142.833 66.982C144.528 66.9035 142.403 63.0539 141.447 64.4244C140.948 65.1386 142.145 66.527 142.833 66.982Z" fill="white"/>
<path fill-rule="evenodd" clip-rule="evenodd" d="M145.45 68.3652C145.17 68.1397 144.476 67.8277 144.065 68.4233C143.527 69.1993 144.329 70.9164 144.519 71.6579C144.746 72.5597 144.772 74.3597 145.783 74.6374C147.225 75.0326 146.759 72.3678 146.559 71.4581C146.454 70.9744 146.303 70.5107 146.194 70.1061C146.006 69.4135 145.987 68.7997 145.45 68.3652Z" fill="white"/>
<path fill-rule="evenodd" clip-rule="evenodd" d="M122.17 126.099C121.964 127.337 121.552 129.247 121.247 130.804C121.097 131.583 121.063 132.672 120.148 132.432C119.484 132.256 119.581 131.582 119.661 131.089C119.858 129.865 120.111 128.84 120.363 127.578C120.488 126.954 120.724 126.27 120.676 125.843C120.621 125.365 120.211 125.107 120.073 124.656C119.717 123.476 119.772 122.225 119.807 120.731C119.82 120.178 119.615 116.788 120.876 117.14C121.531 117.323 121.335 118.227 121.288 118.965C121.174 120.768 121.176 122.118 121.485 123.814C121.642 124.685 121.668 124.959 122.39 124.21C123.315 123.252 124.037 121.669 124.704 120.108C125.044 119.311 125.299 117.985 126.112 118.131C127.275 118.34 126.606 119.46 126.129 120.595C125.134 122.97 123.976 125.363 122.17 126.099Z" fill="white"/>
<path fill-rule="evenodd" clip-rule="evenodd" d="M95.153 114.677C95.6352 118.07 93.8689 123.357 91.2676 124.763C90.8853 124.971 90.3374 125.137 89.8279 125.059C88.8289 124.907 88.207 124.128 87.9846 123.471C87.1795 121.104 87.9805 116.63 89.455 113.166C89.8739 112.182 90.4953 110.555 91.1451 110.349C91.3584 110.28 91.6772 110.392 91.9543 110.404C92.2927 110.417 92.4966 110.379 92.7096 110.442C94.0616 110.847 94.5342 112.253 94.8573 113.237C95.7471 112.973 96.573 111.168 97.4806 110.863C97.8436 110.741 98.3358 111.074 98.3123 111.454C98.2895 111.848 97.8913 112.137 97.6203 112.435C96.8358 113.298 96.0286 114.108 95.153 114.677ZM91.9388 111.696C91.2568 112.916 92.3328 114.131 93.6497 113.953C93.4781 113.025 93.1611 111.74 91.9388 111.696ZM90.6761 113.633C90.6907 113.575 90.6196 113.57 90.6075 113.672C90.2519 114.487 89.9762 115.466 89.6879 116.474C89.1559 118.339 88.8948 120.07 89.0188 121.705C89.0706 122.388 89.1925 123.512 89.859 123.712C90.7435 123.979 91.6511 122.741 92.0853 122.11C93.3705 120.24 94.095 117.301 93.8686 115.253C92.5537 115.523 91.0385 114.579 90.6761 113.633Z" fill="white"/>
<path fill-rule="evenodd" clip-rule="evenodd" d="M109.512 118.25C109.886 121.181 108.063 125.59 106.134 127.185C105.266 127.901 103.526 128.379 102.646 127.014C101.69 125.529 102.071 122.464 102.927 119.432C103.272 118.209 103.787 117.127 104.197 116.024C104.552 115.064 104.699 114.341 105.379 113.946C105.87 113.661 106.829 113.569 107.512 113.907C108.456 114.374 108.989 115.842 109.271 116.827C109.89 116.774 111.248 114.742 111.987 114.95C112.27 115.03 112.469 115.333 112.462 115.557C112.442 116.187 111.509 116.749 111.076 117.106C110.471 117.606 110.043 117.877 109.512 118.25ZM107.698 116.141C107.526 115.786 107.18 115.224 106.936 115.098C106.081 114.655 105.547 115.422 105.567 116.179C105.591 117.103 107.105 117.769 108.056 117.362C107.989 117.04 107.904 116.563 107.698 116.141ZM104.795 117.845C104.482 118.445 104.298 119.448 104.095 120.297C103.682 122.026 103.312 123.419 103.433 124.881C103.482 125.479 103.595 126.469 104.173 126.624C104.857 126.809 105.762 125.716 106.187 125.138C107.366 123.537 108.373 120.725 108.258 118.717C107.179 118.973 105.523 118.55 104.841 117.681C104.827 117.736 104.811 117.79 104.795 117.845Z" fill="white"/>
<path fill-rule="evenodd" clip-rule="evenodd" d="M118.058 118.866C117.018 118.579 117.24 117.909 116.502 117.713C115.639 117.487 114.9 118.501 114.369 119.403C113.313 121.199 112.475 123.649 112.391 125.909C112.356 126.834 112.4 128.334 113.114 128.532C113.537 128.649 113.892 128.173 114.182 127.894C114.533 127.553 114.797 127.288 114.999 126.89C114.236 126.736 113.004 126.861 113.256 125.98C113.407 125.449 114.077 125.56 114.657 125.614C115.435 125.687 116.288 125.759 116.742 126.151C117.448 126.76 116.928 128.92 116.773 130.168C116.674 130.964 116.668 131.893 115.909 131.747C115.19 131.609 115.363 130.631 115.412 130.19C115.497 129.421 115.603 129.001 115.737 128.222C114.864 129.393 112.928 130.75 111.682 129.007C110.156 126.87 111.782 119.222 114.571 117.045C115.135 116.605 116.166 116.151 117.264 116.694C117.718 116.919 119.241 118.451 118.058 118.866Z" fill="white"/>
<path fill-rule="evenodd" clip-rule="evenodd" d="M100.117 112.147C100.045 113.311 99.5193 114.443 99.2462 115.61C98.4505 118.997 97.3317 122.573 97.1357 125.674C98.1221 126.263 100.533 125.93 100.265 127.099C100.143 127.628 99.7332 127.638 98.8639 127.465C97.7577 127.243 96.601 127.149 96.0769 126.492C95.6146 125.91 95.9544 124.314 96.1636 123.098C96.6957 120.005 97.5089 116.784 98.6164 113.486C98.9292 112.551 99.2014 111.204 100.117 112.147Z" fill="white"/>
<path fill-rule="evenodd" clip-rule="evenodd" d="M80.3573 116.341C81.4242 117.129 82.5651 118.597 81.5701 120.342C80.9895 121.361 78.6258 123.38 77.3678 122.676C76.522 122.204 77.0895 120.498 77.3757 119.143C78.0803 115.813 78.9141 112.524 79.9603 108.862C80.3285 107.571 80.2333 106.902 81.4313 107.219C84.2057 107.955 85.8158 109.657 84.7392 112.349C83.9001 114.446 81.7629 115.397 80.3573 116.341ZM83.5172 111.881C84.191 110.213 83.3262 109.026 81.2915 108.534C80.666 110.777 80.294 112.878 79.6406 115.134C80.6722 114.629 82.832 113.581 83.5172 111.881ZM78.208 121.385C78.9566 121.168 80.1109 120.49 80.4809 119.618C81.0197 118.348 79.9667 117.713 79.2044 117.073C78.8042 118.547 78.5452 119.944 78.208 121.385Z" fill="white"/>
<path fill-rule="evenodd" clip-rule="evenodd" d="M87.6185 109.282C88.527 109.28 88.0702 110.343 87.8531 111.353C87.0399 115.119 86.2061 118.999 85.1986 122.91C85.0114 123.635 84.8157 124.156 84.2409 123.992C83.6634 123.828 83.7873 123.239 83.9757 122.444C84.9293 118.436 85.7447 114.817 86.6994 110.847C86.8946 110.041 87.0504 109.284 87.6185 109.282Z" fill="white"/>
<path d="M88.2729 105.28C88.1955 105.28 88.1176 105.261 88.0432 105.222C84.7892 103.454 82.6042 100.531 82.1999 97.4027C81.9949 95.82 82.311 94.3356 83.0677 93.3046C82.8506 90.1728 85.0617 86.3117 86.8045 84.4669C86.9865 84.2736 87.29 84.2659 87.483 84.4473C87.6755 84.6295 87.6855 84.9339 87.5024 85.1264C86.0853 86.629 84.2372 89.7319 84.0313 92.3867C84.5539 92.0428 85.1706 91.8266 85.8562 91.7519C87.1274 91.6124 88.9581 91.974 89.9771 93.0963C90.6049 93.7869 90.8287 94.6611 90.6284 95.6229C90.4646 96.4127 89.9829 97.0119 89.2379 97.3555C88.0453 97.9057 86.448 97.6596 85.4865 97.1334C84.4602 96.5721 83.753 95.7782 83.3739 94.7657C83.1143 95.4902 83.0334 96.3591 83.1515 97.2793C83.5177 100.103 85.5163 102.757 88.502 104.377C88.7364 104.504 88.8222 104.796 88.6945 105.029C88.608 105.189 88.444 105.28 88.2729 105.28ZM84.0653 93.6043C84.0673 93.6172 84.0694 93.6307 84.0711 93.6448C84.2569 94.8201 84.8882 95.7114 85.9473 96.2903C86.6806 96.6913 87.9418 96.8958 88.8348 96.483C89.2997 96.2686 89.5874 95.9138 89.6885 95.4269C89.8256 94.7689 89.6824 94.2023 89.2655 93.742C88.5081 92.9079 87.0298 92.5904 85.9602 92.7073C85.1794 92.7925 84.5428 93.0943 84.0653 93.6043Z" fill="white"/>
<path d="M87.0162 88.2728C87.0097 88.2728 87.0021 88.2725 86.9948 88.2725C86.7291 88.2605 86.5234 88.0358 86.5366 87.7704L86.6385 85.5418L84.3882 86.5097C84.1445 86.6149 83.8621 86.5018 83.7575 86.2587C83.6523 86.0143 83.7648 85.7322 84.0086 85.6273L86.9628 84.3553C87.114 84.2905 87.2892 84.3072 87.4257 84.4015C87.5628 84.4962 87.6402 84.6529 87.6323 84.8187L87.4958 87.814C87.4843 88.0716 87.2719 88.2728 87.0162 88.2728Z" fill="white"/>
<path d="M97.8941 109.303C97.8668 109.301 97.8396 109.297 97.8129 109.29C97.5205 109.219 97.3418 108.924 97.4133 108.634C97.4924 108.307 97.5498 107.967 97.5791 107.623C97.7795 105.351 96.8028 103.331 95.446 103.212C93.4348 103.034 92.0643 100.579 92.3259 97.6235C92.3886 96.9078 93.4714 97.0027 93.4067 97.7184C93.2063 99.9907 94.1833 102.01 95.5418 102.13C97.551 102.307 98.9224 104.761 98.6613 107.718C98.6268 108.116 98.56 108.512 98.4683 108.893C98.4035 109.155 98.1566 109.327 97.8941 109.303Z" fill="white"/>
<path d="M91.475 108.296C91.2647 105.11 93.0653 101.911 95.5414 102.13C96.8979 102.25 98.2133 100.432 98.4131 98.16C98.4764 97.4455 99.5586 97.5401 99.4959 98.2558C99.2349 101.213 97.4548 103.39 95.4456 103.213C94.0877 103.091 92.7723 104.91 92.5728 107.181C92.5409 107.531 92.5368 107.881 92.5602 108.223C92.6059 108.941 91.5246 109.012 91.475 108.296Z" fill="white"/>
<path d="M93.8427 104.604C93.8327 104.737 93.9338 104.852 94.0656 104.861L96.4489 105.037C96.5802 105.047 96.6959 104.947 96.7067 104.814C96.7167 104.682 96.6147 104.566 96.4835 104.557L94.1013 104.381C93.9692 104.37 93.8526 104.47 93.8427 104.604Z" fill="white"/>
<path d="M93.5427 106.212L96.766 106.449C96.8993 106.459 97.015 106.36 97.0238 106.226C97.0343 106.094 96.9347 105.979 96.802 105.969L93.5788 105.732C93.4455 105.722 93.3312 105.822 93.321 105.954C93.3104 106.086 93.4103 106.202 93.5427 106.212Z" fill="white"/>
<path d="M97.0214 107.354L93.1574 107.069C93.0247 107.059 92.909 107.159 92.8996 107.291C92.8897 107.425 92.989 107.538 93.122 107.55L96.9859 107.834C97.1178 107.844 97.2335 107.744 97.2443 107.611C97.254 107.478 97.1532 107.364 97.0214 107.354Z" fill="white"/>
<path d="M94.5875 100.954L96.6242 101.105C96.7573 101.115 96.8727 101.015 96.8818 100.883C96.8923 100.75 96.7924 100.634 96.6585 100.625L94.6227 100.474C94.4897 100.464 94.3742 100.564 94.3643 100.697C94.3558 100.829 94.4551 100.945 94.5875 100.954Z" fill="white"/>
<path d="M97.3432 99.5274C97.3532 99.3947 97.2533 99.279 97.1203 99.2699L94.3652 99.0666C94.2319 99.0566 94.1173 99.1565 94.108 99.289C94.0974 99.422 94.1973 99.5365 94.3297 99.5459L97.0863 99.7501C97.2181 99.7597 97.3333 99.661 97.3432 99.5274Z" fill="white"/>
<path d="M94.1577 98.1651L97.4594 98.4098C97.5927 98.4191 97.7085 98.3195 97.7179 98.1865C97.7284 98.0538 97.6294 97.9378 97.4955 97.9287L94.1928 97.6855C94.061 97.6753 93.9444 97.7749 93.9345 97.907C93.9251 98.04 94.0244 98.1552 94.1577 98.1651Z" fill="white"/>
<path fill-rule="evenodd" clip-rule="evenodd" d="M59.0944 28.449C58.8334 29.337 56.5995 34.7434 55.6588 36.975C54.8364 38.9258 51.8493 43.9804 51.3893 44.552C51.1289 44.818 50.8825 45.0738 50.6921 45.2595C50.3484 45.5941 49.9895 45.9421 49.6547 46.2588C49.3382 46.5585 48.2929 47.5365 48.6457 47.9159C48.9366 48.2299 49.8319 47.1826 50.1635 47.0112C49.9072 47.5491 49.6473 48.4637 49.6341 49.415C49.6315 49.6661 49.5949 50.1928 49.8407 50.2233C50.1764 50.2634 50.2236 49.8445 50.2875 49.6549C50.3733 49.3889 50.4697 49.1997 50.5013 48.9653C50.564 49.3043 50.4794 50.0803 50.6191 50.467C50.6636 50.5916 50.775 50.7254 50.9001 50.7158C51.1939 50.6923 51.1831 50.2795 51.2358 50.0042C51.3038 49.6327 51.3782 49.3904 51.421 49.1349C51.4183 49.1232 51.4183 49.1103 51.4183 49.1012C51.4195 49.1094 51.421 49.1194 51.421 49.1279C51.421 49.1294 51.421 49.1323 51.421 49.1349C51.4456 49.4188 51.3823 50.2312 51.5056 50.6088C51.5543 50.76 51.6641 50.9229 51.8267 50.9053C52.1677 50.867 52.1537 50.184 52.1877 49.945C52.243 49.5281 52.3101 49.2392 52.3467 48.883C52.4288 49.1625 52.3535 50.0001 52.4812 50.4911C52.5319 50.6959 52.6377 50.9197 52.8468 50.888C53.1099 50.8485 53.1706 50.2831 53.1978 50.092C53.3308 49.1771 53.4861 48.1561 53.7539 47.4389C53.9595 46.8925 54.2039 46.408 54.5083 45.9392C55.9834 44.0384 58.6547 40.0212 59.6815 37.9031C60.7418 35.7155 63.0887 30.9058 63.626 29.0923C62.7993 29.1875 59.8464 28.57 59.0944 28.449Z" fill="#FCD2C0"/>
<path opacity="0.13" d="M56.958 37.5022C56.9862 37.3628 56.3712 36.972 55.7879 36.6655C55.7434 36.773 55.6986 36.8788 55.6587 36.9752C55.6074 37.0953 55.5494 37.2272 55.4821 37.3681C56.1169 37.5761 56.9314 37.6417 56.958 37.5022Z" fill="black"/>
<path d="M64.7669 20.7743C63.128 20.8698 62.1451 22.4158 61.4909 23.3928C59.7114 26.0507 58.6913 28.7507 57.5086 31.6979L62.8535 34.1867C63.7966 32.6258 64.6889 31.0402 65.4413 29.4283C65.8623 28.5248 66.305 27.5096 66.634 26.4031C66.9398 25.3598 67.1686 24.1048 66.9111 22.8752C66.6568 21.6582 65.8679 20.7104 64.7669 20.7743Z" fill="#B1BC00"/>
<path fill-rule="evenodd" clip-rule="evenodd" d="M83.8738 72.8858L89.0705 72.7648L88.8326 66.2468L83.6382 66.3687L83.8738 72.8858Z" fill="#FCD2C0"/>
<path fill-rule="evenodd" clip-rule="evenodd" d="M83.0469 72.4266C81.7675 72.758 80.5889 73.1491 79.6517 73.9129C79.3681 74.1408 78.9597 74.459 79.0004 74.8498C79.0531 75.3701 79.9853 75.5137 80.7705 75.6013C82.4193 75.7832 83.9598 75.8298 85.6894 75.8052C87.0872 75.7861 88.3499 75.6584 88.8354 74.8536C89.1916 74.2618 89.2883 73.5039 89.4008 72.7422C89.5121 71.981 89.5394 71.2278 89.4474 70.3231C88.2778 70.1368 86.7137 70.0307 85.1879 70.0574C85.2526 69.1583 84.7344 68.8211 83.7787 68.7379C83.4512 68.7089 82.8998 68.7346 82.7524 68.8964C82.4542 69.2268 82.8945 71.8852 83.0469 72.4266Z" fill="#FF5000"/>
<path d="M81.8282 69.904C81.982 69.8358 82.1498 69.8539 82.2996 69.9574C82.8509 70.3379 83.184 71.9583 83.1199 72.2856C83.1111 72.3289 83.078 72.367 83.034 72.3831C82.9895 72.3995 82.9368 72.3928 82.896 72.3658C82.4827 72.0943 81.5935 71.0047 81.5443 70.3857C81.5323 70.2172 81.5783 70.0886 81.6849 69.9981C81.7289 69.9585 81.7775 69.9275 81.8282 69.904ZM82.8284 71.9592C82.7619 71.4336 82.4853 70.4138 82.1285 70.1674C82.0494 70.1117 82.0007 70.1226 81.9574 70.141C81.9328 70.1534 81.9081 70.1703 81.88 70.1914C81.8428 70.2248 81.8282 70.2846 81.8334 70.3707C81.8674 70.7844 82.4156 71.5578 82.8284 71.9592Z" fill="#4D3D87"/>
<path d="M80.743 70.7157C80.8734 70.6574 81.0374 70.6629 81.2331 70.7327C81.9184 70.9764 82.9092 71.9839 83.0352 72.2722C83.0566 72.3141 83.0478 72.3613 83.0205 72.3976C82.9913 72.4351 82.9432 72.4553 82.8952 72.4503C82.3904 72.419 81.016 71.9157 80.6161 71.4082C80.5069 71.272 80.4688 71.1381 80.5054 71.0124C80.5452 70.8677 80.6273 70.7693 80.743 70.7157ZM82.5987 72.1339C82.2823 71.7701 81.6102 71.1469 81.1321 70.9764C81.0163 70.9351 80.9276 70.9266 80.8716 70.953C80.8344 70.9714 80.8036 71.0142 80.7796 71.0822C80.7691 71.1288 80.789 71.1879 80.8455 71.2594C81.1154 71.5981 82.0177 71.9901 82.5987 72.1339Z" fill="#4D3D87"/>
<path d="M80.7623 72.5137L82.8767 72.1914L82.928 72.4507L80.8142 72.7724L80.7623 72.5137Z" fill="#4D3D87"/>
<path d="M80.6423 73.9533C82.0169 74.5149 83.6763 74.2688 84.5643 73.4781C85.3495 72.78 85.5786 71.7229 85.6691 70.4295C85.6749 70.3196 85.687 70.1896 85.6957 70.0536C85.5246 70.0536 85.3574 70.0545 85.1883 70.0568C85.1992 69.9244 85.1951 69.8055 85.1778 69.6953C85.1845 69.7724 85.1913 69.848 85.1883 69.923C85.1286 71.5762 84.7275 73.745 82.2935 73.7635C81.6627 73.7682 81.1415 73.6302 80.7472 73.4509C80.6781 73.4195 80.6107 73.3756 80.5442 73.3284C80.3643 73.4242 80.1891 73.5253 80.0221 73.6381C80.2175 73.7755 80.4651 73.8812 80.6423 73.9533Z" fill="white"/>
<path d="M89.1086 72.7724C87.4545 72.569 86.6098 73.4825 86.2284 74.6327C86.1411 74.8996 85.9132 75.5368 86.0479 75.7967C86.1891 75.792 86.3283 75.7864 86.4648 75.7782C86.5802 75.591 86.6008 75.2418 86.6734 74.9708C87.0343 73.6023 87.6531 73.0732 89.0754 73.2429C89.1572 73.2522 89.236 73.2824 89.3145 73.3114C89.3423 73.1474 89.3658 72.9815 89.391 72.8154C89.2937 72.7946 89.1953 72.7826 89.1086 72.7724Z" fill="white"/>
<path d="M88.6675 75.0695C88.098 75.6816 86.9498 75.7861 85.6886 75.8052C83.9592 75.8298 82.4188 75.7832 80.7696 75.6013C80.0671 75.5245 79.2491 75.3991 79.0461 75.001L88.6675 75.0695Z" fill="#4D3D87"/>
<path fill-rule="evenodd" clip-rule="evenodd" d="M81.87 43.5713C83.445 52.9888 82.7138 57.8805 83.1899 66.8438C83.5162 67.0431 88.6127 67.1998 89.7509 67.2602C91.4185 57.6153 91.3572 51.8919 90.43 41.1777C87.4247 42.4313 84.4886 43.0009 81.87 43.5713Z" fill="#8F7ECE"/>
<path opacity="0.13" fill-rule="evenodd" clip-rule="evenodd" d="M81.87 43.5713C83.445 52.9888 82.7138 57.8805 83.1899 66.8438C83.5162 67.0431 88.6127 67.1998 89.7509 67.2602C91.4185 57.6153 91.3572 51.8919 90.43 41.1777C87.4247 42.4313 84.4886 43.0009 81.87 43.5713Z" fill="black"/>
<path fill-rule="evenodd" clip-rule="evenodd" d="M89.2896 49.8009C89.2017 50.1803 89.606 51.0387 89.9974 50.9154C90.4012 50.788 89.9447 49.9313 89.6591 49.6805C89.5518 49.6433 89.3766 49.699 89.2896 49.8009Z" fill="white"/>
<path fill-rule="evenodd" clip-rule="evenodd" d="M89.2162 51.9532C88.6362 51.9283 89.0106 52.748 89.2754 53.2572C89.4553 53.6029 89.7028 53.9926 89.9574 53.8645C90.3145 53.6876 89.641 52.172 89.3416 51.9778C89.3135 51.9599 89.2508 51.9552 89.2162 51.9532Z" fill="white"/>
<path fill-rule="evenodd" clip-rule="evenodd" d="M47.048 75.2671C46.6645 75.2735 46.3382 75.4973 45.8287 75.7437C45.7979 75.7581 44.7711 76.3338 44.7046 76.3138C44.6026 76.2839 44.0053 74.8581 43.9241 74.6823C42.6995 72.0292 41.4834 69.2583 40.0256 66.7094C39.8712 66.4396 39.7147 66.1581 39.5548 65.8759C39.425 65.3079 39.1833 64.5391 39.0641 64.0762C38.9583 63.6716 38.8496 63.2465 38.7544 62.8554C38.6659 62.4848 38.38 61.2678 37.8898 61.3252C37.487 61.373 37.9051 62.5179 37.8813 62.8343C37.5649 62.3878 36.9397 61.7498 36.1619 61.2664C35.9574 61.1392 35.5414 60.8509 35.3935 61.0077C35.1916 61.2221 35.5139 61.4632 35.6398 61.6027C35.8145 61.7958 35.9243 61.9557 36.1039 62.0955C35.7916 61.9707 35.1928 61.5227 34.8052 61.4278C34.6795 61.3973 34.5148 61.4087 34.4604 61.501C34.3344 61.7164 34.6795 61.9153 34.8805 62.0887C35.1529 62.3231 35.3135 62.4939 35.5045 62.6515C35.5139 62.6562 35.5265 62.6632 35.5332 62.6673C35.5259 62.6627 35.5186 62.6594 35.5092 62.6559C35.5077 62.6544 35.5065 62.6533 35.5045 62.6512C35.2613 62.5273 34.62 62.0796 34.248 61.9759C34.0974 61.934 33.909 61.9293 33.8431 62.0512C33.7051 62.3084 34.2752 62.6389 34.4571 62.7825C34.7715 63.0289 34.976 63.2205 35.2528 63.4232C34.9804 63.3412 34.3265 62.8712 33.8595 62.7136C33.6638 62.6495 33.4273 62.6099 33.3506 62.771C33.2513 62.9755 33.6875 63.3001 33.8302 63.4144C34.5195 63.9628 35.2848 64.5801 35.7415 65.1256C36.1297 65.5865 36.4314 66.0412 36.6819 66.546C37.4876 70.1498 38.4148 74.2006 39.5202 77.8088C39.7273 78.4824 39.9497 79.2327 40.2474 79.9871C40.6815 81.0898 41.2575 82.6241 42.9878 82.5122C43.9414 82.4498 44.9656 81.969 45.9186 81.5931C46.8811 81.2126 47.866 80.8546 48.6386 80.3559C48.1654 78.6303 47.489 77.009 47.048 75.2671Z" fill="#FCD2C0"/>
<path opacity="0.13" fill-rule="evenodd" clip-rule="evenodd" d="M47.048 75.2671C46.6645 75.2735 46.3382 75.4973 45.8287 75.7437C45.7979 75.7581 44.7711 76.3338 44.7046 76.3138C44.6026 76.2839 44.0053 74.8581 43.9241 74.6823C42.6995 72.0292 41.4834 69.2583 40.0256 66.7094C39.8712 66.4396 39.7147 66.1581 39.5548 65.8759C39.425 65.3079 39.1833 64.5391 39.0641 64.0762C38.9583 63.6716 38.8496 63.2465 38.7544 62.8554C38.6659 62.4848 38.38 61.2678 37.8898 61.3252C37.487 61.373 37.9051 62.5179 37.8813 62.8343C37.5649 62.3878 36.9397 61.7498 36.1619 61.2664C35.9574 61.1392 35.5414 60.8509 35.3935 61.0077C35.1916 61.2221 35.5139 61.4632 35.6398 61.6027C35.8145 61.7958 35.9243 61.9557 36.1039 62.0955C35.7916 61.9707 35.1928 61.5227 34.8052 61.4278C34.6795 61.3973 34.5148 61.4087 34.4604 61.501C34.3344 61.7164 34.6795 61.9153 34.8805 62.0887C35.1529 62.3231 35.3135 62.4939 35.5045 62.6515C35.5139 62.6562 35.5265 62.6632 35.5332 62.6673C35.5259 62.6627 35.5186 62.6594 35.5092 62.6559C35.5077 62.6544 35.5065 62.6533 35.5045 62.6512C35.2613 62.5273 34.62 62.0796 34.248 61.9759C34.0974 61.934 33.909 61.9293 33.8431 62.0512C33.7051 62.3084 34.2752 62.6389 34.4571 62.7825C34.7715 63.0289 34.976 63.2205 35.2528 63.4232C34.9804 63.3412 34.3265 62.8712 33.8595 62.7136C33.6638 62.6495 33.4273 62.6099 33.3506 62.771C33.2513 62.9755 33.6875 63.3001 33.8302 63.4144C34.5195 63.9628 35.2848 64.5801 35.7415 65.1256C36.1297 65.5865 36.4314 66.0412 36.6819 66.546C37.4876 70.1498 38.4148 74.2006 39.5202 77.8088C39.7273 78.4824 39.9497 79.2327 40.2474 79.9871C40.6815 81.0898 41.2575 82.6241 42.9878 82.5122C43.9414 82.4498 44.9656 81.969 45.9186 81.5931C46.8811 81.2126 47.866 80.8546 48.6386 80.3559C48.1654 78.6303 47.489 77.009 47.048 75.2671Z" fill="black"/>
<path opacity="0.13" fill-rule="evenodd" clip-rule="evenodd" d="M35.2579 63.871C35.2193 63.7949 35.1973 63.6074 35.2073 63.4867C35.2673 62.7844 35.9573 62.0441 36.4494 61.9114C36.0692 62.1833 35.4791 62.7434 35.2579 63.871Z" fill="white"/>
<path opacity="0.13" fill-rule="evenodd" clip-rule="evenodd" d="M37.9107 62.791C37.4536 63.403 37.3133 63.9878 37.2992 64.5608C36.9351 64.0962 37.3845 62.9765 37.9107 62.791Z" fill="white"/>
<path opacity="0.13" fill-rule="evenodd" clip-rule="evenodd" d="M44.0595 74.9893C43.7792 75.6329 42.9861 77.6526 43.2656 77.9928C43.4862 78.2652 44.7134 76.5953 44.7055 76.3138L44.0595 74.9893Z" fill="black"/>
<path fill-rule="evenodd" clip-rule="evenodd" d="M46.2821 75.4616C46.5458 76.5233 46.7937 77.593 47.3503 78.507C49.1623 77.8783 50.948 77.1934 52.578 76.204C53.1581 74.992 54.0024 74.2988 54.8562 73.6226C54.0479 72.8706 52.8109 73.1794 51.8898 73.3968C50.031 73.8371 47.7561 74.6375 46.2821 75.4616Z" fill="#EFAD1B"/>
<path fill-rule="evenodd" clip-rule="evenodd" d="M44.6378 47.0034C53.7729 48.9042 61.3153 53.6904 66.6213 59.471C72.3192 65.6778 76.2978 72.9435 78.2331 82.121C79.226 86.8346 79.4706 92.9535 78.9942 98.0148C78.0292 108.274 74.5695 116.211 70.0484 123.331C68.6 125.61 66.5082 128.389 64.5283 130.659C63.9509 131.319 63.0219 132.682 62.4345 132.848C61.3596 133.152 59.5523 132.835 58.0558 132.848C48.7142 132.929 38.0756 132.933 28.6476 132.562C27.1019 124.73 26.6636 116.712 23.6062 110.673C21.2706 106.064 18.0301 102.96 14.1822 99.9185C13.5749 99.4372 12.9576 98.9359 12.2788 98.4915C11.6809 98.0992 10.6898 97.8429 10.4706 96.9683C12.5483 97.0586 14.5476 97.7851 16.5623 98.3011C20.5742 99.3279 24.6072 100.234 28.7442 101.156C30.7643 101.606 32.7307 102.361 34.7407 102.679C44.4084 104.21 51.6509 99.5977 55.7733 94.1134C58.0168 91.1286 59.5139 87.6335 59.9607 83.1686C60.3995 78.7791 59.2968 74.1804 57.4854 70.7969C54.0444 64.3662 47.8235 60.1255 39.0231 59.1859C40.865 55.0949 42.7804 51.0783 44.6378 47.0034Z" fill="#8F7ECE"/>
<path fill-rule="evenodd" clip-rule="evenodd" d="M2.6685 88.8786C2.58794 88.8839 3.42231 88.8444 3.7147 88.8786C6.35991 89.1862 9.14224 90.1258 11.8988 90.782C17.6908 92.1596 21.7024 93.3262 27.6028 95.0647C30.4478 95.9034 33.398 96.7138 34.0753 98.5864C34.7366 100.416 33.6119 102.387 32.4549 102.869C31.2397 103.376 29.1078 102.883 27.6974 102.583C23.0351 101.591 19.1811 100.337 15.0409 98.9673C11.1063 97.6651 6.6145 96.7205 2.85835 94.8745C1.2772 94.0976 -0.761867 92.8047 0.288426 90.3069C0.633251 89.4857 1.47114 88.9633 2.6685 88.8786Z" fill="#4D3D87"/>
<path opacity="0.46" fill-rule="evenodd" clip-rule="evenodd" d="M63.1959 132.372C53.0094 132.346 42.2958 132.39 31.9801 131.8C31.6945 126.452 32.0282 119.925 33.3128 115.337C34.1812 112.229 35.4055 108.632 39.5944 109.626C42.3301 110.275 44.6964 112.54 46.5418 114.385C51.3287 119.172 55.8506 124.563 60.5323 129.422C61.0198 129.929 61.4885 130.473 61.9587 130.944C62.4064 131.392 63.0383 131.737 63.1959 132.372Z" fill="white"/>
<path d="M62.4347 132.943C63.0221 132.776 63.9511 131.414 64.5285 130.753C66.5084 128.484 68.6002 125.705 70.0487 123.425C74.5701 116.306 78.0297 108.37 78.9945 98.1096C79.4705 93.0482 79.2262 86.929 78.2333 82.216C76.298 73.0379 72.3198 65.7723 66.6215 59.5648C61.3159 53.7846 53.7731 48.9986 44.638 47.0981C44.4189 47.5792 44.1965 48.0576 43.9747 48.5372C44.0866 48.5659 44.186 48.5935 44.2566 48.6204C46.0481 49.301 47.7842 50.3448 49.5877 51.2853C51.34 52.2005 53.1766 53.1119 54.8216 54.1402C64.6507 60.2858 71.8736 69.8873 72.9997 84.5C73.8083 95.0108 71.5873 104.503 68.5258 111.91C66.1337 117.698 63.0242 122.621 59.6752 127.327C58.6642 128.748 56.4385 131.294 57.0933 132.95C57.4144 132.948 57.7399 132.945 58.0563 132.942C59.5525 132.929 61.3601 133.246 62.4347 132.943Z" fill="#4D3D87"/>
<path fill-rule="evenodd" clip-rule="evenodd" d="M71.7602 82.3703C73.6575 82.7954 72.4748 77.9017 71.0044 79.1269C70.2374 79.7653 71.1383 81.6602 71.7602 82.3703Z" fill="white"/>
<path fill-rule="evenodd" clip-rule="evenodd" d="M74.2338 84.6885C73.9941 84.3545 73.3209 83.8011 72.6875 84.3343C71.859 85.0292 72.2252 87.1688 72.2099 88.0439C72.19 89.1088 71.6738 91.1043 72.7059 91.7166C74.1784 92.5893 74.4687 89.5052 74.5247 88.44C74.554 87.874 74.5279 87.3167 74.5306 86.8363C74.5323 86.0151 74.6973 85.331 74.2338 84.6885Z" fill="white"/>
<path fill-rule="evenodd" clip-rule="evenodd" d="M42.5672 111.593C43.0412 110.458 44.7228 109.241 46.4458 108.148C47.1838 107.68 48.389 106.94 48.8833 107.551C49.4748 108.286 48.2388 109.343 47.7964 109.721C46.3925 110.91 44.4539 112.066 43.2425 112.378C42.9574 112.325 42.6351 111.923 42.5672 111.593Z" fill="white"/>
<path fill-rule="evenodd" clip-rule="evenodd" d="M45.2848 106.545C43.7693 105.267 47.0822 102.469 48 103.837C48.3944 104.432 47.2987 106.383 46.2991 106.77C45.9375 106.906 45.5491 106.767 45.2848 106.545Z" fill="white"/>
<path fill-rule="evenodd" clip-rule="evenodd" d="M54.9238 100.747C54.339 100.354 54.5429 99.3523 55.0981 98.4968C55.5449 97.8089 56.7112 96.6956 57.3012 97.4319C57.5637 97.7568 57.5057 98.5809 57.0622 99.3036C56.5448 100.152 55.6738 101.257 54.9238 100.747Z" fill="white"/>
<path fill-rule="evenodd" clip-rule="evenodd" d="M30.9326 73.4466C30.3519 74.6797 29.855 75.928 29.1253 77.3483C28.0905 79.3602 26.9324 81.2859 23.8908 80.2985C22.5188 79.8535 20.3684 78.778 19.8935 77.634C18.9513 75.3658 21.1624 72.0485 21.8913 70.2104C21.9367 70.0965 21.8359 69.9248 21.9859 69.9248C25.0427 71.0249 28.065 72.1587 30.9326 73.4466Z" fill="#4D3D87"/>
<path fill-rule="evenodd" clip-rule="evenodd" d="M47.0179 38.4378C45.1505 38.4234 43.6253 37.5861 42.2589 36.9149C40.8922 36.244 39.3614 35.7522 38.4535 34.5357C39.2173 32.0224 40.7439 29.6115 42.1648 26.9221C42.7806 25.7543 43.4296 24.5042 44.1626 23.3051C45.0236 21.8988 45.9093 20.4454 47.2074 19.7842C47.786 19.4895 48.8416 19.6321 49.5884 19.8791C51.2785 20.4396 54.0011 21.7251 54.1549 23.4964C54.282 24.9316 53.2924 26.4653 52.7269 27.588C51.4862 30.058 50.3322 32.5831 49.1108 35.0118C48.4724 36.2818 47.8912 37.5539 47.0179 38.4378Z" fill="#4D3D87"/>
<path fill-rule="evenodd" clip-rule="evenodd" d="M48.4505 22.5718C47.5968 24.5628 46.8196 26.1044 45.7798 28.0637C45.391 28.7979 44.9214 29.6185 44.3533 30.6334C44.107 31.0717 43.3098 32.9045 42.544 32.8224C41.5236 32.714 42.0805 31.0977 42.544 30.063C43.0183 29.0068 43.4862 28.3131 43.971 27.3978C44.5397 26.3244 44.9528 25.4437 45.3995 24.7333C45.9477 23.8623 46.3605 23.0598 46.9218 22.2589C47.9876 20.7381 49.0452 21.1843 48.4505 22.5718Z" fill="white"/>
<path fill-rule="evenodd" clip-rule="evenodd" d="M36.9292 33.1081C38.4714 32.7984 40.347 33.4872 41.6876 33.9647C44.6745 35.0294 49.006 36.3513 49.8723 39.3899C50.3592 41.0956 49.524 43.3605 48.9213 44.8145C46.9707 49.5167 44.9214 53.4858 42.544 57.9477C40.3734 62.0229 38.7401 66.948 36.3585 71.272C35.5687 72.7037 34.4372 74.284 33.2159 74.6027C31.7434 74.9877 30.275 74.4384 29.1254 74.032C27.904 73.6002 26.9396 73.1792 25.6977 72.6993C23.5019 71.8488 20.6279 71.0317 19.8937 68.8919C18.7874 65.6698 21.3102 60.7207 22.2717 58.5187C23.6976 55.2583 24.9688 52.205 26.3648 49.3825C28.0822 45.9094 29.1752 43.8381 30.8381 40.5308C31.5287 39.1564 32.2406 37.6321 33.2156 36.2487C34.1375 34.9453 35.235 33.4482 36.9292 33.1081Z" fill="#8F7ECE"/>
<path opacity="0.46" fill-rule="evenodd" clip-rule="evenodd" d="M36.9292 33.1081C38.4714 32.7984 40.347 33.4872 41.6876 33.9647C44.6745 35.0294 49.006 36.3513 49.8723 39.3899C50.3592 41.0956 49.524 43.3605 48.9213 44.8145C46.9707 49.5167 44.9214 53.4858 42.544 57.9477C40.3734 62.0229 38.7401 66.948 36.3585 71.272C35.5687 72.7037 34.4372 74.284 33.2159 74.6027C31.7434 74.9877 30.275 74.4384 29.1254 74.032C27.904 73.6002 26.9396 73.1792 25.6977 72.6993C23.5019 71.8488 20.6279 71.0317 19.8937 68.8919C18.7874 65.6698 21.3102 60.7207 22.2717 58.5187C23.6976 55.2583 24.9688 52.205 26.3648 49.3825C28.0822 45.9094 29.1752 43.8381 30.8381 40.5308C31.5287 39.1564 32.2406 37.6321 33.2156 36.2487C34.1375 34.9453 35.235 33.4482 36.9292 33.1081Z" fill="white"/>
<path fill-rule="evenodd" clip-rule="evenodd" d="M38.3392 36.3439C38.9005 37.05 38.3058 37.8196 38.0541 38.4378C36.1235 43.1672 33.6236 47.5333 31.3911 52.1423C29.4986 56.0528 27.9127 60.1491 26.0614 64.3242C25.5819 65.4094 24.986 67.6761 23.6825 67.7502C21.7132 67.8639 21.9657 65.134 22.5405 63.7538C24.2945 59.545 26.5495 55.7455 28.6322 51.8569C30.8694 47.6771 32.5281 43.9556 34.8171 39.9606C35.5451 38.6912 36.5292 37.0969 37.3876 36.4397C37.5312 36.3281 38.0228 36.097 38.3392 36.3439Z" fill="white"/>
<path fill-rule="evenodd" clip-rule="evenodd" d="M34.8818 65.3884C34.024 66.059 33.378 67.7764 32.8465 69.5023C32.6206 70.2406 32.2711 71.4412 32.9089 71.7198C33.6736 72.0541 34.2873 70.7524 34.5053 70.2866C35.1926 68.8109 35.724 66.8875 35.71 65.7822C35.5951 65.5513 35.1768 65.3706 34.8818 65.3884Z" fill="white"/>
<path fill-rule="evenodd" clip-rule="evenodd" d="M31.2096 68.8864C29.767 67.8924 28.1542 71.372 29.5353 71.8334C30.1341 72.0338 31.5424 70.6413 31.6376 69.698C31.6704 69.3587 31.4607 69.0593 31.2096 68.8864Z" fill="white"/>
<path fill-rule="evenodd" clip-rule="evenodd" d="M25.6076 128.856C25.5045 128.894 26.5847 128.516 26.9843 128.447C30.5805 127.821 34.605 127.972 38.4862 127.759C46.6369 127.314 52.3662 127.283 60.8028 127.27C64.8704 127.263 69.0643 127.179 70.6853 129.378C72.2676 131.526 71.5569 134.555 70.2265 135.639C68.8261 136.781 65.829 136.963 63.8579 137.118C57.3408 137.631 51.7847 137.485 45.8064 137.297C40.1257 137.118 33.8524 137.627 28.1937 136.665C25.8153 136.259 22.6281 135.354 23.0362 131.659C23.1681 130.447 24.0657 129.433 25.6076 128.856Z" fill="#4D3D87"/>
<path fill-rule="evenodd" clip-rule="evenodd" d="M29.6673 131.552C30.6528 131.09 32.4777 131.288 34.2546 131.592C35.0163 131.722 36.247 131.954 36.2063 132.648C36.1597 133.482 34.7213 133.441 34.2091 133.425C32.5791 133.373 30.6244 132.98 29.6459 132.467C29.4909 132.263 29.5167 131.808 29.6673 131.552Z" fill="#8F7ECE"/>
<path fill-rule="evenodd" clip-rule="evenodd" d="M36.4341 130.479C36.1971 128.74 40.0303 128.873 39.8199 130.311C39.7268 130.937 37.85 131.566 36.9638 131.226C36.6474 131.103 36.4763 130.78 36.4341 130.479Z" fill="white"/>
<path fill-rule="evenodd" clip-rule="evenodd" d="M64.5764 133.542C64.4285 132.937 65.1556 132.402 66.0269 132.169C66.7283 131.983 68.1527 131.945 68.102 132.778C68.0806 133.146 67.5553 133.653 66.8367 133.864C65.992 134.112 64.7663 134.322 64.5764 133.542Z" fill="#8F7ECE"/>
<path fill-rule="evenodd" clip-rule="evenodd" d="M56.983 100.166C57.2209 102.2 55.9702 105.046 54.7754 106.74C54.5159 107.109 54.1254 107.421 53.9396 107.784C53.6765 108.302 53.5426 108.996 53.3563 109.568C52.7967 111.275 52.1941 112.861 51.4702 114.492C56.3982 114.667 61.9505 117.569 65.5154 120.023C65.0211 121.527 64.6942 122.948 64.1715 124.466C60.7333 124.321 56.85 123.491 52.8656 122.465C48.6668 121.385 43.1197 119.931 42.9386 116.418C42.8888 115.432 43.1598 114.196 43.4487 113.018C44.2977 109.556 45.7875 105.351 47.1169 102.15C46.1733 102.454 45.2642 102.918 44.3191 103.318C41.5315 104.5 38.5898 105.653 35.6308 106.564C37.3403 111.388 36.8182 117.343 35.7711 123.564C34.3992 123.656 33.0181 123.731 31.6336 123.8C30.7731 119.406 29.8895 115.079 29.4673 110.307C29.334 108.794 29.1436 106.994 29.6551 105.376C30.7652 101.865 33.9307 100.109 36.3313 98.8929C39.0439 97.5186 41.6598 96.3236 44.4243 95.2879C44.4755 95.2534 44.54 95.2419 44.6062 95.2375C48.7863 96.8524 52.8984 98.5021 56.983 100.166Z" fill="#CAD309"/>
<path opacity="0.18" d="M51.4705 114.492C52.1944 112.86 52.7971 111.275 53.3566 109.568C53.543 108.995 53.6768 108.302 53.9399 107.783C54.1257 107.421 54.5159 107.109 54.7758 106.74C55.9705 105.046 57.2212 102.2 56.9833 100.166C56.5983 100.009 56.2107 99.8527 55.8252 99.6963C55.8 99.8914 55.7807 100.087 55.7473 100.255C55.4464 101.751 55.1411 102.865 54.2496 103.99C53.7808 104.582 53.3206 104.865 52.7253 105.631C51.3967 107.336 51.1602 109.742 50.3546 112.206C49.8586 113.722 48.8136 116.129 49.6693 116.645C50.0581 116.881 50.4571 116.707 50.7735 116.623C52.1927 116.243 53.6751 116.299 55.6391 116.844C59.0921 117.804 62.2242 119.151 64.8433 120.736C64.9772 120.816 65.1073 120.884 65.2318 120.94C65.3229 120.637 65.4149 120.332 65.5163 120.023C61.9506 117.569 56.3985 114.667 51.4705 114.492Z" fill="black"/>
<path opacity="0.18" d="M47.5421 101.518C47.7905 101.04 48.3606 100.349 48.1102 99.9493C47.9558 99.702 47.6273 99.7044 47.4653 99.7375C46.3187 99.9783 45.1758 100.422 44.0262 100.862C41.2371 101.926 38.5119 103.175 35.918 104.681C35.3698 104.999 34.7206 105.304 34.4549 105.794C33.7655 107.065 34.309 108.321 34.4742 109.256C35.0657 112.603 35.1208 115.969 34.911 119.823C34.8797 120.391 34.8117 121.205 34.7903 122.034C34.7772 122.535 34.761 123.205 35.054 123.606C35.2937 123.591 35.5321 123.578 35.7706 123.562C36.8177 117.341 37.3398 111.386 35.6303 106.562C38.5893 105.651 41.5307 104.498 44.3186 103.316C45.2637 102.916 46.1725 102.452 47.1164 102.147C46.984 102.466 46.8492 102.798 46.7153 103.135C46.7232 103.13 46.7326 103.126 46.742 103.121C46.9954 102.706 47.1938 102.19 47.5421 101.518Z" fill="black"/>
<path fill-rule="evenodd" clip-rule="evenodd" d="M44.3798 117.713C44.023 117.637 44.0356 117.343 43.9304 117.072C43.8253 116.799 43.4634 115.805 44.2553 116.08C44.6409 116.214 45.0604 117.496 44.3798 117.713Z" fill="white"/>
<path opacity="0.18" fill-rule="evenodd" clip-rule="evenodd" d="M46.067 118.924C45.6794 119.239 44.8002 118.61 45.2892 118.12C45.7559 118.151 46.3146 118.403 46.067 118.924Z" fill="black"/>
<path fill-rule="evenodd" clip-rule="evenodd" d="M55.3252 102.038C55.7541 102.37 55.3252 103.306 54.9388 103.887C54.6965 104.254 54.3707 104.589 54.0198 104.354C53.9632 103.431 54.8503 103.022 55.08 102.123C55.1181 102.063 55.1919 102.072 55.2265 102.005C55.2593 102.017 55.2921 102.027 55.3252 102.038Z" fill="white"/>
<path fill-rule="evenodd" clip-rule="evenodd" d="M53.5613 104.916C53.6005 105.521 52.9686 106.542 52.4293 105.864C52.6411 105.22 53.0146 104.896 53.5613 104.916Z" fill="white"/>
<path fill-rule="evenodd" clip-rule="evenodd" d="M51.1541 111.262C51.5112 111.801 50.8497 113.718 50.1272 113.395C49.6811 113.194 50.0212 112.698 50.202 112.157C50.3619 111.683 50.4352 110.906 51.1541 111.262Z" fill="white"/>
<path fill-rule="evenodd" clip-rule="evenodd" d="M36.9692 104.314C36.7841 104.776 36.3467 105.025 36.001 105.259C35.686 105.473 35.2744 105.869 34.767 105.678C34.7632 105.597 34.7298 105.531 34.6674 105.48C34.7846 105.168 35.0881 104.79 35.4212 104.52C35.8844 104.142 36.603 103.53 36.9692 104.314Z" fill="white"/>
<path opacity="0.18" fill-rule="evenodd" clip-rule="evenodd" d="M31.6627 104.771C32.6204 104.823 31.2186 106.724 30.7489 106.558C30.0159 106.296 31.2625 104.749 31.6627 104.771Z" fill="black"/>
<path fill-rule="evenodd" clip-rule="evenodd" d="M34.1304 106.786C34.8043 106.264 34.9297 108.347 34.1369 108.105C33.6529 107.956 33.9925 107.191 34.1304 106.786Z" fill="white"/>
<path fill-rule="evenodd" clip-rule="evenodd" d="M41.6818 97.6263C41.6399 98.1083 41.1791 98.1513 40.8627 98.2908C40.1977 98.5817 39.658 98.8044 38.9534 99.0929C38.673 99.2075 38.2969 99.5277 37.9819 99.2133C38.0657 98.7006 38.8125 98.3045 39.4266 97.9852C39.956 97.7089 41.0367 97.232 41.4352 97.3802C41.5359 97.4192 41.606 97.5414 41.6818 97.6263Z" fill="white"/>
<path fill-rule="evenodd" clip-rule="evenodd" d="M30.2424 125.954C29.1209 126.359 28.0941 126.811 27.3247 127.592C27.093 127.825 26.7567 128.152 26.8346 128.514C26.9386 128.994 27.7949 129.06 28.5142 129.083C30.0265 129.132 31.4278 129.061 32.9907 128.912C34.2529 128.789 35.3828 128.58 35.7379 127.792C35.9978 127.215 36.0051 126.5 36.0277 125.78C36.0476 125.063 35.9916 124.359 35.8153 123.521C34.7363 123.434 33.3086 123.451 31.9305 123.587C31.8965 122.745 31.3897 122.468 30.516 122.461C30.2169 122.458 29.7215 122.524 29.6049 122.686C29.3694 123.013 30.0479 125.462 30.2424 125.954Z" fill="#FF5000"/>
<path d="M31.7269 126.825C31.0051 127.627 29.5294 127.979 28.2254 127.557C28.0575 127.503 27.8237 127.421 27.6327 127.308C27.7719 127.19 27.9204 127.084 28.0721 126.981C28.1375 127.021 28.2028 127.056 28.2678 127.081C28.644 127.219 29.1301 127.31 29.699 127.258C31.7682 127.073 32.0633 125.34 31.9153 123.464C31.9112 123.399 31.8986 123.333 31.8846 123.267C31.9097 123.364 31.9253 123.47 31.9305 123.588C32.0832 123.573 32.2361 123.56 32.3893 123.548C32.3967 123.675 32.4008 123.797 32.4046 123.9C32.4588 125.112 32.3636 126.116 31.7269 126.825Z" fill="white"/>
<path d="M35.7649 125.831C35.8455 125.835 35.9348 125.839 36.0248 125.852C36.0207 126.008 36.0168 126.164 36.0086 126.318C35.9334 126.298 35.8586 126.275 35.7848 126.272C34.4202 126.217 33.9256 127.104 33.7918 128.06C33.7557 128.319 33.7704 128.643 33.6857 128.827C33.5624 128.844 33.4378 128.861 33.3116 128.876C33.1645 128.642 33.3031 128.033 33.3549 127.777C33.5767 126.678 34.2459 125.763 35.7649 125.831Z" fill="white"/>
<path d="M35.6074 128.006C35.1571 128.618 34.1288 128.8 32.99 128.912C31.427 129.061 30.0258 129.132 28.5135 129.083C27.8701 129.062 27.1183 129.007 26.8925 128.651L35.6074 128.006Z" fill="white"/>
<path d="M28.8683 123.692C29.0048 123.617 29.158 123.624 29.3039 123.708C29.8427 124.023 30.3155 125.507 30.2915 125.819C30.2889 125.86 30.2628 125.897 30.2244 125.916C30.1863 125.934 30.1392 125.932 30.0993 125.91C29.695 125.687 28.7775 124.737 28.6676 124.163C28.6362 124.006 28.6661 123.881 28.7514 123.791C28.7883 123.751 28.8276 123.718 28.8683 123.692ZM29.993 125.536C29.8784 125.051 29.5216 124.121 29.1718 123.916C29.0939 123.87 29.0505 123.884 29.0133 123.905C28.9948 123.917 28.9714 123.934 28.948 123.957C28.9187 123.991 28.9099 124.048 28.9266 124.128C28.9995 124.512 29.5761 125.192 29.993 125.536Z" fill="white"/>
<path d="M27.977 124.529C28.0883 124.465 28.2374 124.459 28.422 124.51C29.0671 124.686 30.0703 125.551 30.2167 125.812C30.2387 125.851 30.2378 125.896 30.2153 125.93C30.1921 125.968 30.1526 125.99 30.1075 125.99C29.6481 125.996 28.3488 125.63 27.936 125.187C27.8206 125.065 27.774 124.943 27.7927 124.823C27.8144 124.686 27.8756 124.587 27.977 124.529ZM29.8057 125.716C29.4799 125.398 28.8061 124.867 28.3567 124.744C28.248 124.714 28.1668 124.712 28.1197 124.741C28.0857 124.76 28.0611 124.803 28.0497 124.869C28.045 124.913 28.0702 124.966 28.127 125.028C28.4071 125.324 29.2634 125.625 29.8057 125.716Z" fill="white"/>
<path d="M28.1839 126.205L30.0639 125.748L30.1377 125.985L28.2572 126.443L28.1839 126.205Z" fill="white"/>
<path fill-rule="evenodd" clip-rule="evenodd" d="M65.6331 126.303C65.5944 127.495 65.6357 128.615 66.0752 129.619C66.207 129.92 66.3849 130.354 66.7505 130.416C67.2362 130.498 67.6136 129.725 67.9013 129.066C68.5059 127.677 68.9595 126.35 69.3977 124.843C69.7499 123.624 69.9752 122.497 69.3731 121.876C68.9328 121.421 68.2725 121.151 67.6115 120.864C66.9523 120.58 66.2782 120.371 65.4333 120.225C64.9552 121.196 64.4416 122.529 64.0587 123.859C63.2636 123.579 62.8194 123.947 62.489 124.756C62.3759 125.033 62.2525 125.518 62.3612 125.685C62.5786 126.026 65.1052 126.301 65.6331 126.303Z" fill="#FF5000"/>
<path d="M66.9908 125.246C67.4695 126.213 67.2513 127.714 66.3768 128.769C66.2637 128.905 66.1017 129.092 65.9253 129.228C65.8688 129.055 65.8233 128.878 65.7841 128.699C65.8453 128.653 65.9027 128.606 65.9493 128.553C66.2165 128.254 66.4808 127.838 66.6445 127.29C67.2378 125.298 65.7355 124.384 63.9387 123.827C63.8769 123.808 63.8101 123.794 63.7441 123.782C63.844 123.796 63.9466 123.819 64.0585 123.859C64.1019 123.711 64.1464 123.564 64.1918 123.417C64.3131 123.458 64.4276 123.499 64.5255 123.534C65.671 123.932 66.5675 124.392 66.9908 125.246Z" fill="white"/>
<path d="M67.5625 121.126C67.595 121.053 67.6322 120.971 67.677 120.893C67.8214 120.954 67.9641 121.016 68.1053 121.08C68.0582 121.141 68.0095 121.203 67.9802 121.271C67.4227 122.517 68.064 123.306 68.9045 123.784C69.1304 123.913 69.4375 124.019 69.5757 124.167C69.547 124.287 69.5172 124.408 69.4832 124.532C69.2122 124.582 68.6965 124.229 68.4783 124.086C67.539 123.472 66.9378 122.512 67.5625 121.126Z" fill="white"/>
<path d="M69.5253 122.076C69.927 122.722 69.7163 123.744 69.3982 124.843C68.9599 126.35 68.5064 127.678 67.9017 129.066C67.6448 129.656 67.3158 130.334 66.9009 130.412L69.5253 122.076Z" fill="white"/>
<path d="M63.0247 126.741C63.0054 126.587 63.0681 126.447 63.1999 126.343C63.6921 125.959 65.2463 126.069 65.5261 126.205C65.5633 126.223 65.5888 126.261 65.5908 126.304C65.5935 126.346 65.5756 126.39 65.5402 126.418C65.1833 126.711 63.9605 127.213 63.3871 127.103C63.2292 127.073 63.1255 127 63.0728 126.888C63.0491 126.838 63.0327 126.788 63.0247 126.741ZM65.1537 126.378C64.661 126.305 63.6646 126.292 63.3444 126.542C63.2732 126.597 63.2691 126.643 63.2764 126.684C63.2796 126.707 63.2869 126.735 63.3004 126.764C63.3203 126.805 63.3704 126.833 63.4495 126.849C63.8336 126.923 64.6794 126.639 65.1537 126.378Z" fill="white"/>
<path d="M63.4732 127.88C63.4524 127.752 63.5025 127.612 63.6182 127.46C64.021 126.924 65.1958 126.313 65.4935 126.273C65.5374 126.267 65.5787 126.284 65.6013 126.319C65.628 126.353 65.6332 126.399 65.6171 126.442C65.4533 126.87 64.6316 127.941 64.0682 128.162C63.9112 128.223 63.7811 128.222 63.6774 128.159C63.5578 128.09 63.4878 127.995 63.4732 127.88ZM65.2512 126.621C64.8364 126.804 64.0925 127.235 63.8121 127.607C63.7442 127.696 63.7122 127.772 63.721 127.825C63.7269 127.864 63.7576 127.903 63.8148 127.938C63.854 127.959 63.912 127.955 63.99 127.925C64.3697 127.775 64.9656 127.089 65.2512 126.621Z" fill="white"/>
<path d="M65.105 128.306L65.3766 126.392L65.6239 126.411L65.3534 128.327L65.105 128.306Z" fill="white"/>
<path fill-rule="evenodd" clip-rule="evenodd" d="M57.3954 101.183C58.0001 100.405 59.1776 98.0175 59.5851 97.0228C60.3289 95.2064 60.7783 93.061 61.122 91.1016C61.7753 87.3613 62.2388 83.6529 61.7879 80.4801C61.4068 77.7906 60.4851 74.8105 57.8539 73.4002C56.6232 72.7395 55.1495 72.9698 54.2692 73.4878C52.4284 74.5703 51.3064 77.1297 50.2367 80.0254C49.1812 82.8833 44.0006 93.17 43.2415 95.7426L57.3954 101.183Z" fill="#EFAD1B"/>
<path opacity="0.18" d="M57.5576 95.1545C58.2988 92.6678 59.1833 89.971 59.6881 87.4207C60.4841 83.408 60.9168 79.2484 60.3455 75.8669C60.7498 76.5586 61.0521 77.3157 61.2824 78.0935C61.2877 78.1105 61.2924 78.1275 61.2976 78.1448C61.3469 78.3126 61.3917 78.4814 61.4336 78.6516C61.4441 78.6871 61.4529 78.7222 61.4608 78.7582C61.4989 78.9106 61.5335 79.0635 61.5654 79.2167C61.5748 79.2604 61.5842 79.3035 61.5927 79.3477C61.6231 79.4962 61.6498 79.6454 61.6779 79.7942C61.6844 79.8367 61.6932 79.8794 61.7005 79.9213C61.733 80.1085 61.7611 80.2949 61.7878 80.48C62.2387 83.6529 61.7752 87.3613 61.1219 91.1016C60.7782 93.061 60.3288 95.2064 59.5849 97.0228C59.1774 98.0174 58 100.405 57.3953 101.183L55.0105 100.266C55.0805 100.18 55.1485 100.092 55.2229 100.011C56.3201 98.7894 57.0294 96.9241 57.5576 95.1545Z" fill="black"/>
<path opacity="0.18" fill-rule="evenodd" clip-rule="evenodd" d="M49.5221 84.666C49.2119 84.8488 48.8641 85.6996 49.3211 85.8045C49.6539 85.8813 50.2906 84.8198 49.5221 84.666Z" fill="black"/>
<path opacity="0.18" fill-rule="evenodd" clip-rule="evenodd" d="M48.8422 86.3931C48.4819 86.7194 47.864 87.8178 48.1464 88.3451C48.8106 88.7069 49.1806 86.7848 48.9969 86.4443C48.9453 86.4273 48.8929 86.4101 48.8422 86.3931Z" fill="black"/>
<path fill-rule="evenodd" clip-rule="evenodd" d="M58.284 92.2371C57.9723 92.3557 57.8291 93.0401 57.8592 93.3597C57.9624 93.3934 58.0658 93.4271 58.1701 93.4617C58.3965 93.2416 58.8454 92.3279 58.284 92.2371Z" fill="white"/>
<path fill-rule="evenodd" clip-rule="evenodd" d="M58.4788 96.5457C59.0363 96.4774 59.4957 94.9024 58.9355 94.8022C58.4281 94.7111 58.1398 96.2539 58.4788 96.5457Z" fill="white"/>
<path fill-rule="evenodd" clip-rule="evenodd" d="M57.5556 94.4646C57.0608 94.6225 56.2557 96.9534 56.897 97.1743C57.4923 97.3793 58.0891 95.333 58.039 94.7374C57.9511 94.6096 57.7921 94.5182 57.5556 94.4646Z" fill="white"/>
<path fill-rule="evenodd" clip-rule="evenodd" d="M55.3145 72.3728L55.3572 74.3231C55.3572 74.3231 54.4555 73.6334 54.5141 73.3516C54.6737 72.5785 55.3145 72.3728 55.3145 72.3728Z" fill="#EFAD1B"/>
<path opacity="0.18" fill-rule="evenodd" clip-rule="evenodd" d="M55.3145 72.3728L55.3572 74.3231C55.3572 74.3231 54.4555 73.6334 54.5141 73.3516C54.6737 72.5785 55.3145 72.3728 55.3145 72.3728Z" fill="black"/>
<path fill-rule="evenodd" clip-rule="evenodd" d="M55.3144 71.9777C55.3144 71.9777 55.136 73.9529 55.2066 74.1029C55.6334 75.017 59.1485 75.6832 59.249 73.8896C59.249 73.8896 59.3568 72.7301 59.4353 72.2106C59.6263 70.967 59.8062 70.1897 60.4261 69.2754C60.8064 68.7129 61.1873 68.0546 61.4079 67.2832C61.9692 65.3098 60.9057 63.3967 59.5484 62.7434C59.0348 62.497 57.9933 62.2251 57.2949 62.332C56.6128 62.4363 55.465 62.6353 54.872 63.1392C53.9808 63.898 53.9562 65.0733 53.6533 66.6803C53.4874 67.5595 53.2396 68.4838 53.1538 69.1462C52.9176 70.9778 53.7992 71.7393 55.3144 71.9777Z" fill="#FCD2C0"/>
<path fill-rule="evenodd" clip-rule="evenodd" d="M52.1755 59.8524C51.7999 60.7597 52.3006 61.4819 52.8074 61.9486C52.6155 62.0391 52.0794 61.6685 52.0689 61.9489C52.0337 62.9233 52.5065 63.3774 53.2908 63.5886C54.9077 64.0237 57.6136 63.3402 57.5269 65.3995C57.497 66.1187 57.1041 66.9713 57.5436 67.1523C57.9856 67.3322 58.2587 66.3001 58.832 66.4216C59.1177 66.4826 59.3002 66.7852 59.2876 67.0489C59.2516 67.8797 58.5648 67.9547 58.0357 67.8408C57.8081 68.4519 57.4231 69.3258 57.7633 69.7949C58.457 70.5381 60.0763 71.0681 61.0911 69.9786C61.6346 69.3962 62.212 67.8783 62.4104 66.9871C62.662 65.8559 62.1933 64.7382 61.1143 64.3234C61.5353 62.0098 58.2101 61.614 55.9665 60.9847C54.7791 60.6528 53.6963 60.2013 52.9138 59.8518C52.7002 59.7578 52.3173 59.5102 52.1755 59.8524Z" fill="#FF5000"/>
<path fill-rule="evenodd" clip-rule="evenodd" d="M59.9324 63.0037C59.8044 63.435 58.8215 62.9132 58.6931 62.6469C58.3152 61.8579 60.0367 62.6478 59.9324 63.0037Z" fill="white"/>
<path fill-rule="evenodd" clip-rule="evenodd" d="M60.6998 64.004C60.5 64.1895 60.1479 63.615 60.1631 63.4368C60.2071 62.908 60.8636 63.8508 60.6998 64.004Z" fill="white"/>
<path fill-rule="evenodd" clip-rule="evenodd" d="M55.9839 66.3363C55.7906 66.0202 55.5726 65.8461 55.3622 65.7571L54.728 65.8731L54.9155 66.3038C54.9711 66.3339 55.0327 66.3629 55.1003 66.3893C55.5023 66.5452 55.9839 66.3363 55.9839 66.3363Z" fill="white"/>
<path fill-rule="evenodd" clip-rule="evenodd" d="M54.4177 65.8083C54.4177 65.8083 54.8644 65.5493 55.3628 65.7568C55.3681 65.8007 55.3874 65.888 55.3801 65.9343C55.3467 66.1397 55.1636 66.2897 54.9412 66.316C54.531 66.1033 54.4177 65.8083 54.4177 65.8083Z" fill="#4D3D87"/>
<path d="M56.2611 66.0337C55.8929 65.2796 55.0166 65.1109 54.6741 65.1501L54.6396 64.8542C55.183 64.7918 56.1252 65.0763 56.5283 65.9033L56.2611 66.0337Z" fill="#FF5000"/>
<path fill-rule="evenodd" clip-rule="evenodd" d="M54.054 65.5807C54.3103 65.6085 53.8117 67.3294 53.4871 67.9693C53.1516 67.9795 52.7511 67.7961 52.7092 67.5119C52.6246 66.9488 53.8102 65.5557 54.054 65.5807Z" fill="#FCD2C0"/>
<path opacity="0.13" fill-rule="evenodd" clip-rule="evenodd" d="M54.054 65.5807C54.3103 65.6085 53.8117 67.3294 53.4871 67.9693C53.1516 67.9795 52.7511 67.7961 52.7092 67.5119C52.6246 66.9488 53.8102 65.5557 54.054 65.5807Z" fill="black"/>
<path fill-rule="evenodd" clip-rule="evenodd" d="M54.2661 68.6384C54.2228 69.2768 53.2425 69.6753 53.1294 69.4327C53.0673 69.3003 53.096 69.0509 53.1953 68.9531C53.5876 68.997 53.9014 68.9534 54.2661 68.6384Z" fill="#FCD2C0"/>
<path fill-rule="evenodd" clip-rule="evenodd" d="M54.2654 68.6384C53.9944 68.9026 53.3792 68.8408 53.216 68.8018C53.1606 67.8898 53.8339 68.6852 54.2654 68.6384Z" fill="#FCD2C0"/>
<path opacity="0.13" fill-rule="evenodd" clip-rule="evenodd" d="M54.2661 68.6384C54.2228 69.2768 53.2425 69.6753 53.1294 69.4327C53.0673 69.3003 53.096 69.0509 53.1953 68.9531C53.5876 68.997 53.9014 68.9534 54.2661 68.6384Z" fill="black"/>
<path opacity="0.13" fill-rule="evenodd" clip-rule="evenodd" d="M54.2654 68.6384C53.9944 68.9026 53.3792 68.8408 53.216 68.8018C53.1606 67.8898 53.8339 68.6852 54.2654 68.6384Z" fill="black"/>
<path opacity="0.13" d="M56.6528 68.1114C56.6194 68.5971 56.1993 68.9648 55.7132 68.9308C55.2284 68.8974 54.8622 68.4776 54.8947 67.9924C54.9272 67.5064 55.3482 67.1396 55.8336 67.173C56.3185 67.2064 56.6859 67.6265 56.6528 68.1114Z" fill="black"/>
<path opacity="0.13" fill-rule="evenodd" clip-rule="evenodd" d="M55.3131 71.9778L55.2238 73.3483C57.235 73.1456 57.9829 71.5688 57.9829 71.5688C57.9829 71.5688 56.5858 72.2764 55.3131 71.9778Z" fill="black"/>
<path fill-rule="evenodd" clip-rule="evenodd" d="M59.2098 72.9822C59.8379 73.0698 61.199 73.5192 62.5077 74.0507C64.1 74.6981 65.6132 75.4669 65.629 75.8562C65.6756 76.8693 62.7175 81.0913 62.1978 81.074C61.6104 81.055 61.3139 80.4831 61.2195 80.065C61.0359 79.2623 60.2214 77.9609 58.3274 76.5406C56.8988 75.4719 55.3572 74.3226 55.3572 74.3226C55.3572 74.3226 56.3527 72.5322 59.2098 72.9822Z" fill="#EFAD1B"/>
<g opacity="0.25">
<path opacity="0.25" fill-rule="evenodd" clip-rule="evenodd" d="M59.2098 72.9822C59.8379 73.0698 61.199 73.5192 62.5077 74.0507C64.1 74.6981 65.6132 75.4669 65.629 75.8562C65.6756 76.8693 62.7175 81.0913 62.1978 81.074C61.6104 81.055 61.3139 80.4831 61.2195 80.065C61.0359 79.2623 60.2214 77.9609 58.3274 76.5406C56.8988 75.4719 55.3572 74.3226 55.3572 74.3226C55.3572 74.3226 56.3527 72.5322 59.2098 72.9822Z" fill="white"/>
</g>
<path fill-rule="evenodd" clip-rule="evenodd" d="M33.3935 66.8493C34.8879 67.4417 35.6898 68.7501 36.5774 69.9091C37.4238 71.0115 38.2482 72.08 38.9804 73.2094C40.5381 75.6085 41.7899 78.0026 43.0195 80.1682C45.1667 79.0755 47.269 77.8934 49.4022 76.7748C49.7452 78.0609 50.2239 79.3239 50.6429 80.5875C50.8934 81.3477 51.4014 81.9425 52.0415 82.3693C50.0323 83.4123 47.9865 84.3981 45.8153 85.115C44.7278 85.4748 43.1716 85.9957 41.9522 85.8668C39.3296 85.5879 38.25 83.1384 37.4177 81.5672C36.5751 79.9796 35.9174 78.3425 35.3279 76.7587C34.7813 75.2941 34.1584 73.585 33.4972 71.8687C33.0542 70.7218 32.533 69.4184 32.1032 68.1806C31.7379 67.13 32.2878 66.4128 33.3935 66.8493Z" fill="#FCD2C0"/>
<path fill-rule="evenodd" clip-rule="evenodd" d="M31.3779 66.2108C31.142 66.1121 30.4181 65.6325 30.0126 65.5323C29.8556 65.4933 29.6576 65.493 29.5957 65.6213C29.4639 65.8903 30.0692 66.2166 30.2631 66.3593C30.6021 66.6072 30.8212 66.7988 31.1183 67.0015C30.8327 66.9236 30.1348 66.4548 29.6432 66.3054C29.4361 66.2439 29.1897 66.2096 29.117 66.3784C29.0224 66.5919 29.4879 66.916 29.6432 67.0299C30.3812 67.5784 31.2009 68.1956 31.7004 68.7467C32.2738 69.381 32.6848 70.005 33.0217 70.7697C33.1038 70.9536 33.2001 71.3826 33.3812 71.4678C33.4691 71.5079 33.7155 71.4687 33.8048 71.4394C34.1113 71.3395 34.4253 71.1133 34.8326 70.8496C34.9875 70.7494 35.1455 70.6563 35.3239 70.5022C35.4671 70.3777 35.7349 70.1925 35.7733 70.1093C35.8351 69.9781 35.7493 69.6391 35.6933 69.4384C35.5342 68.8542 35.2451 68.053 35.1 67.5731C34.9735 67.1571 34.8417 66.72 34.7277 66.3195C34.6178 65.9386 34.2689 64.6885 33.7626 64.7606C33.3493 64.8212 33.8306 65.9937 33.8201 66.3209C33.4732 65.8683 32.7964 65.2258 31.9667 64.7462C31.7508 64.6211 31.3061 64.3343 31.1602 64.4998C30.9604 64.7272 31.3046 64.9677 31.4406 65.1081C31.6304 65.3029 31.7517 65.4663 31.9433 65.6046C31.6149 65.4848 30.9745 65.0383 30.5687 64.951C30.4363 64.9226 30.2664 64.9384 30.2119 65.0357C30.09 65.2619 30.4577 65.4576 30.6733 65.6319C30.9689 65.8686 31.1447 66.0414 31.3521 66.2017C31.3606 66.2038 31.3688 66.2073 31.3779 66.2108Z" fill="#FCD2C0"/>
<path opacity="0.13" fill-rule="evenodd" clip-rule="evenodd" d="M42.2693 78.8174C42.4544 78.3627 41.1299 81.5637 41.4909 81.6911C42.0689 81.8941 43.0219 80.1683 43.0219 80.1683L42.2693 78.8174Z" fill="black"/>
<path fill-rule="evenodd" clip-rule="evenodd" d="M41.4064 84.975C41.0569 83.6112 43.2891 84.6266 43.1933 84.5171C43.9014 85.3233 41.5204 85.4209 41.4064 84.975Z" fill="white"/>
<path fill-rule="evenodd" clip-rule="evenodd" d="M40.3415 83.5845C40.5639 83.4793 41.0628 84.4016 40.8651 84.5472C40.667 84.6934 39.7122 83.8839 40.3415 83.5845Z" fill="white"/>
<path fill-rule="evenodd" clip-rule="evenodd" d="M46.3532 78.1226C46.9793 80.2967 48.0322 82.2549 49.1262 84.1929C50.7211 83.6354 52.3901 82.9179 53.9223 81.8049C55.3969 80.7344 56.9531 79.3618 57.5865 77.2694C57.9369 76.1128 57.8549 74.6565 56.3645 74.345C55.4847 74.1619 54.4386 74.4983 53.5922 74.7567C51.1122 75.5149 48.3404 76.825 46.3532 78.1226Z" fill="#EFAD1B"/>
<path opacity="0.18" fill-rule="evenodd" clip-rule="evenodd" d="M46.3532 78.1226C46.9793 80.2967 48.0322 82.2549 49.1262 84.1929C50.7211 83.6354 52.3901 82.9179 53.9223 81.8049C55.3969 80.7344 56.9531 79.3618 57.5865 77.2694C57.9369 76.1128 57.8549 74.6565 56.3645 74.345C55.4847 74.1619 54.4386 74.4983 53.5922 74.7567C51.1122 75.5149 48.3404 76.825 46.3532 78.1226Z" fill="black"/>
<path d="M76.9702 48.9178L73.4589 52.7329L78.168 57.0669L81.6792 53.2518L76.9702 48.9178Z" fill="#FCD2C0"/>
<path fill-rule="evenodd" clip-rule="evenodd" d="M77.2742 57.3389C76.6188 58.4868 76.0763 59.6039 75.9603 60.8059C75.9242 61.1657 75.8609 61.6789 76.1621 61.9201C76.5638 62.2423 77.3088 61.6716 77.9129 61.1683C79.1794 60.1095 80.2804 59.0343 81.4599 57.776C82.4143 56.7588 83.1986 55.7645 82.9725 54.8598C82.8078 54.1954 82.3452 53.6024 81.8917 52.9936C81.4373 52.3886 80.9319 51.8487 80.2388 51.2888C79.2998 52.0004 78.1411 53.0513 77.1034 54.1655C76.5228 53.496 75.9274 53.6358 75.2073 54.2648C74.9615 54.4801 74.598 54.8944 74.6085 55.1118C74.6325 55.5553 76.7914 57.0749 77.2742 57.3389Z" fill="#FF5000"/>
<path d="M74.6714 56.4724C74.7311 56.3139 74.8592 56.2073 75.0355 56.1709C75.683 56.0373 77.0421 56.9174 77.2267 57.1902C77.2498 57.2259 77.2539 57.2763 77.2352 57.3191C77.2138 57.3627 77.1725 57.395 77.1273 57.4055C76.6513 57.5148 75.2787 57.4008 74.8111 57.0065C74.684 56.9013 74.626 56.7783 74.6374 56.6397C74.6406 56.5814 74.6526 56.5243 74.6714 56.4724ZM76.7963 57.1749C76.3847 56.8588 75.4809 56.3532 75.0628 56.4372C74.9696 56.4566 74.943 56.4991 74.9263 56.5427C74.9175 56.5703 74.9116 56.5963 74.9075 56.6332C74.9049 56.6836 74.9362 56.7355 75.0001 56.7914C75.3106 57.0528 76.2297 57.1957 76.7963 57.1749Z" fill="#4D3D87"/>
<path d="M74.4882 57.812C74.5368 57.6781 74.6534 57.5656 74.8391 57.4719C75.4831 57.149 76.8709 57.1326 77.1607 57.2422C77.2031 57.2559 77.2318 57.294 77.2365 57.3386C77.2418 57.3857 77.2245 57.4329 77.1864 57.4657C76.8155 57.805 75.5136 58.446 74.8834 58.3815C74.7108 58.3651 74.591 58.3009 74.5304 58.189C74.4562 58.0593 74.4442 57.9327 74.4882 57.812ZM76.7605 57.4598C76.2867 57.4358 75.3873 57.4891 74.937 57.7124C74.8304 57.7663 74.7624 57.8252 74.7425 57.8835C74.729 57.923 74.7363 57.9752 74.7685 58.0385C74.7932 58.078 74.8479 58.1055 74.9385 58.1129C75.3601 58.1542 76.2577 57.7768 76.7605 57.4598Z" fill="#4D3D87"/>
<path d="M75.7542 59.0394L76.9928 57.2988L77.2099 57.4415L75.9698 59.1817L75.7542 59.0394Z" fill="#4D3D87"/>
<path d="M76.6744 60.1224C78.0161 59.5227 78.9958 58.1606 79.0579 56.9768C79.1411 55.424 78.6697 55.1888 77.6968 54.0761C77.6256 53.9955 77.5418 53.8977 77.4525 53.7983C77.3353 53.9196 77.2187 54.0415 77.1041 54.1648C77.0174 54.0652 76.9316 53.9864 76.8443 53.9217C76.9029 53.9703 76.9609 54.0195 77.0101 54.0737C78.3601 55.511 79.2571 57.1508 77.686 58.8058C77.2518 59.2619 76.7948 59.5399 76.3966 59.699C76.3254 59.7269 76.2501 59.7441 76.1716 59.7594C76.1142 59.9548 76.0623 60.1511 76.0263 60.3491C76.256 60.3043 76.5018 60.1988 76.6744 60.1224Z" fill="white"/>
<path d="M81.7109 53.2268C80.4236 54.2733 80.4775 55.512 81.0137 56.579C81.1388 56.8277 81.4265 57.4303 81.701 57.5144C81.7947 57.4104 81.8882 57.3061 81.9755 57.2021C81.9263 56.9903 81.6977 56.7336 81.5571 56.4955C80.9518 55.4581 81.1124 54.3164 82.0174 53.5746C82.0786 53.5239 82.1533 53.4873 82.2292 53.45C82.1334 53.3182 82.0361 53.187 81.9353 53.054C81.8554 53.109 81.7774 53.1714 81.7109 53.2268Z" fill="white"/>
<path d="M83.008 55.1287C83.0405 55.9613 82.3187 56.8583 81.4603 57.7759C80.2811 59.0342 79.1801 60.1094 77.9133 61.1682C77.3704 61.6194 76.7186 62.1201 76.3002 61.9903L83.008 55.1287Z" fill="#4D3D87"/>
<path fill-rule="evenodd" clip-rule="evenodd" d="M77.7566 49.1004C77.7513 49.1104 74.0013 52.7628 73.629 53.1835C73.3972 53.0107 68.9766 49.278 67.0621 47.4399C65.848 46.2762 63.9534 44.4109 64.2203 42.3865C64.5147 40.1625 68.5509 38.7372 71.2776 38.1704C74.132 37.5759 76.786 37.4693 79.4072 37.2044C78.8924 36.6645 78.3689 36.1415 77.8641 35.5752C80.1877 33.2476 82.5305 30.9311 85.0419 28.6873C86.5808 28.9184 88.3797 29.6426 89.9954 30.6214C91.5543 31.5683 93.0121 32.7267 93.8746 34.6111C94.5305 36.0475 94.5718 37.4464 94.1344 38.4273C92.8091 41.3997 87.9109 42.8746 84.1175 43.6615C80.1739 44.4794 75.9162 43.9782 72.4466 44.1164C73.7664 45.3112 77.6415 48.9853 77.7566 49.1004Z" fill="#8F7ECE"/>
<path fill-rule="evenodd" clip-rule="evenodd" d="M67.1727 45.7158C66.9023 45.9138 66.5601 45.5216 66.3635 45.1395C66.1678 44.7595 66.0046 44.3383 66.1798 44.2219C66.4576 44.0388 66.7054 44.577 66.8698 44.8732C67.0063 45.1187 67.4563 45.5075 67.1727 45.7158Z" fill="white"/>
<path fill-rule="evenodd" clip-rule="evenodd" d="M65.3534 44.3448C65.0203 44.5807 64.6055 43.5239 64.8967 43.3833C65.3054 43.1858 65.7182 44.0861 65.3534 44.3448Z" fill="white"/>
<path fill-rule="evenodd" clip-rule="evenodd" d="M65.7897 43.3656C65.5014 43.3214 65.2661 42.6614 65.1903 42.2418C65.1651 42.0933 65.1109 42.0564 65.2676 42.0072C65.5108 41.9316 65.64 42.3558 65.7777 42.6403C65.9227 42.9329 66.1533 43.2279 65.7897 43.3656Z" fill="white"/>
<path opacity="0.13" d="M70.3166 42.4488C70.5624 42.2416 72.5537 43.3086 73.6304 44.0929C73.2308 44.0929 72.8379 44.1008 72.4556 44.1163C72.0454 43.8275 71.6452 43.55 71.2503 43.2796C70.9169 43.0535 70.2187 42.5317 70.3166 42.4488Z" fill="black"/>
<path opacity="0.13" d="M83.2322 36.8408C83.2703 37.0716 82.368 37.0998 81.947 37.1214C81.0326 37.1657 80.1288 37.2046 79.2405 37.2207C79.2965 37.2155 79.3525 37.2102 79.4075 37.204C79.0806 36.861 78.751 36.5238 78.422 36.1775C79.5696 36.1831 80.9146 36.3263 81.9496 36.4502C82.4137 36.5059 83.1983 36.6442 83.2322 36.8408Z" fill="black"/>
<path fill-rule="evenodd" clip-rule="evenodd" d="M92.8422 37.7075C92.9055 37.6454 92.2155 38.8577 92.749 38.993C93.1319 39.09 93.3019 38.1273 93.1946 37.7936C93.1284 37.7107 92.9608 37.6703 92.8422 37.7075Z" fill="white"/>
<path fill-rule="evenodd" clip-rule="evenodd" d="M93.0195 35.7674C92.8516 36.0387 93.2231 37.4751 93.7279 37.2604C94.0583 37.1209 93.7493 35.9646 93.3696 35.6871C93.2711 35.664 93.1545 35.6898 93.0195 35.7674Z" fill="white"/>
<path fill-rule="evenodd" clip-rule="evenodd" d="M59.5398 15.086C59.9734 14.5944 60.6215 14.2596 61.1128 14.5306C62.7762 15.4455 61.3231 17.4377 61.4377 17.5994C62.3687 18.9031 63.961 20.7175 64.4772 21.4546C64.9788 22.1771 62.4549 25.1231 61.0427 23.9891C61.0427 23.9891 60.0112 22.925 59.5052 22.4703C58.8007 22.9136 57.7319 23.2648 56.8685 22.9186C56.3977 22.7261 55.7119 22.1615 55.3234 21.5715C55.1063 21.2419 54.9007 20.74 54.6654 20.2013C54.2731 19.2931 53.5252 18.7868 53.2035 17.8692C53.0157 17.3278 53.183 16.4958 53.1762 16.1686C53.1601 15.4713 53.5304 14.6073 54.3437 13.9399C55.5244 12.9746 57.4498 12.8264 58.6293 13.7677C59.1569 14.1872 59.3485 14.5959 59.5398 15.086Z" fill="#FCD2C0"/>
<path opacity="0.13" fill-rule="evenodd" clip-rule="evenodd" d="M60.9046 20.0068C61.3314 20.6476 61.5365 22.5064 60.4212 23.3549L59.5056 22.4704C60.4625 21.7008 60.6916 20.8614 60.9046 20.0068Z" fill="black"/>
<path d="M64.2844 14.8828C64.4282 14.3633 64.4393 13.739 64.0186 13.1088C63.7895 12.7669 63.3434 12.3533 63.0044 12.2179C62.5676 12.0471 61.9849 12.0498 61.5533 11.8962C61.0644 11.7246 60.6694 11.1656 60.254 10.7373C59.4334 9.8979 58.2647 9.69634 57.3085 10.2228C56.7387 10.5392 56.5019 10.9177 56.1709 11.3097C55.5949 10.9921 55.0181 10.9675 54.4069 11.3042C53.3268 11.8998 53.4179 12.7558 52.9605 13.4323C52.6435 13.9072 51.7819 14.3411 51.3955 14.7706C51.0346 15.1725 50.7056 15.5821 50.5485 16.0869C50.3449 16.746 50.647 17.7126 51.1459 18.3096C52.1147 19.4671 51.7266 19.899 52.372 20.8623C53.526 22.5837 54.7321 21.36 55.241 21.4338C55.1938 21.3539 55.108 21.1429 55.0638 21.0542C54.8095 20.5347 54.5537 19.7847 54.2221 19.2301C53.9575 18.7831 53.6139 18.4236 53.4202 17.9282C54.8367 16.858 55.1616 15.59 55.1631 14.264C55.8243 14.177 56.3886 14.1738 56.874 14.7852C57.1611 15.1497 57.3275 15.6413 57.6457 16.0286C57.8742 16.3063 58.1393 16.4789 58.3884 16.5758C58.483 16.6119 58.7262 16.7091 58.7607 16.5849C58.8067 16.4156 58.4411 16.3538 58.2554 16.2357C57.6507 15.8575 57.4169 14.8388 56.8975 14.3241C57.4324 14.6047 57.578 15.3952 58.0597 15.8097C58.3301 16.0415 58.7042 16.0793 59.0499 16.1853C59.4316 16.3045 59.7006 16.521 60.005 16.7513C60.0064 16.2861 60.0416 15.7283 60.549 15.4798C60.7843 15.3629 61.0553 15.4576 61.2035 15.6553C61.5372 16.0992 61.3913 17.097 60.7406 17.3373C60.5634 17.6484 61.0509 17.6575 61.5378 17.7744C64.5439 18.4986 63.9319 15.8308 63.9946 15.614C64.0679 15.3609 64.2135 15.1353 64.2844 14.8828ZM53.2626 17.6071L53.1852 17.4252C53.2685 17.3648 53.3563 17.2901 53.4305 17.2227C54.1119 16.589 54.6079 15.7719 54.8511 15.0123C54.7708 15.8496 54.3073 16.9201 53.2626 17.6071Z" fill="#FF5000"/>
<path fill-rule="evenodd" clip-rule="evenodd" d="M57.8871 17.3161C57.5214 17.2252 57.2396 17.2551 57.0243 17.3415L56.7805 17.8566L57.0914 18.0517C57.1529 18.0341 57.2176 18.0113 57.285 17.9823C57.6876 17.81 57.8871 17.3161 57.8871 17.3161Z" fill="white"/>
<path fill-rule="evenodd" clip-rule="evenodd" d="M56.3835 18.0498C56.3835 18.0498 56.5186 17.545 57.0249 17.3425C57.0603 17.3692 57.1374 17.4184 57.1634 17.4568C57.2868 17.6276 57.2601 17.8664 57.1174 18.0433C56.6718 18.1819 56.3835 18.0498 56.3835 18.0498Z" fill="#4D3D87"/>
<path d="M57.7205 16.8462C56.8882 16.6956 56.2261 17.3062 56.0515 17.6077L55.7837 17.4539C56.06 16.9748 56.8586 16.3737 57.777 16.5421L57.7205 16.8462Z" fill="#FF5000"/>
<path opacity="0.13" d="M56.8412 21.1458C57.631 20.8405 57.8788 19.9748 57.8706 19.6273L58.1788 19.6194C58.1914 20.1722 57.8232 21.1009 56.9522 21.4334L56.8412 21.1458Z" fill="black"/>
<path fill-rule="evenodd" clip-rule="evenodd" d="M55.3783 18.5498C55.0376 18.4651 54.7753 18.4932 54.5753 18.5738L54.3795 19.0501L54.6646 19.225C54.7141 19.2098 54.7657 19.1911 54.819 19.1679C55.1925 19.0071 55.3783 18.5498 55.3783 18.5498Z" fill="white"/>
<path fill-rule="evenodd" clip-rule="evenodd" d="M53.9808 19.2304C53.9808 19.2304 54.1074 18.7622 54.5756 18.5732C54.6107 18.5979 54.6822 18.6438 54.7068 18.6799C54.8208 18.8381 54.7962 19.0593 54.6649 19.2242C54.2512 19.3502 53.9808 19.2304 53.9808 19.2304Z" fill="#4D3D87"/>
<path d="M55.2221 18.1233C54.4536 17.9838 53.8457 18.5481 53.6852 18.8252L53.4174 18.6726C53.6752 18.2235 54.4223 17.6642 55.2769 17.8194L55.2221 18.1233Z" fill="#FF5000"/>
<path opacity="0.13" fill-rule="evenodd" clip-rule="evenodd" d="M56.9773 20.1168C55.4208 20.9029 55.7747 19.1357 55.6926 18.359C55.6885 18.313 55.654 18.2445 55.6926 18.2005C55.9124 17.9553 56.8015 19.4788 56.9773 20.1168Z" fill="black"/>
<path opacity="0.13" fill-rule="evenodd" clip-rule="evenodd" d="M59.2865 17.6773C59.517 17.909 59.517 18.2852 59.2859 18.5137C59.0542 18.7451 58.6812 18.7437 58.4509 18.5128C58.2192 18.2819 58.2218 17.9099 58.4521 17.6781C58.6824 17.4473 59.0562 17.4473 59.2865 17.6773Z" fill="black"/>
<path fill-rule="evenodd" clip-rule="evenodd" d="M58.5349 11.0401C58.8917 10.7506 57.8116 10.2505 57.8224 10.7029C57.8277 10.9402 58.3105 11.0509 58.5349 11.0401Z" fill="white"/>
<path fill-rule="evenodd" clip-rule="evenodd" d="M59.328 10.9219C59.2302 10.918 59.0289 10.9614 59.0342 11.1568C59.043 11.4123 59.4924 11.6587 59.6535 11.7902C59.8475 11.9508 60.1416 12.3392 60.4068 12.2382C60.785 12.0929 60.255 11.586 60.0657 11.4199C59.9658 11.3303 59.8592 11.2535 59.7707 11.1829C59.6172 11.0613 59.5164 10.9304 59.328 10.9219Z" fill="white"/>
<path fill-rule="evenodd" clip-rule="evenodd" d="M63.0667 13.1474C63.4244 12.8577 62.3442 12.3579 62.3556 12.8105C62.3609 13.0469 62.8443 13.1583 63.0667 13.1474Z" fill="white"/>
<path d="M84.213 27.1942C81.6583 25.962 75.6208 23.0036 75.2291 22.7718C73.604 21.8053 71.8366 20.7638 69.9859 20.0692C68.0499 19.3435 65.9236 18.9495 63.5133 19.8418C63.4295 19.8717 63.3501 19.9054 63.2681 19.9394C63.6416 21.6808 62.7402 23.2854 61.0831 24.0093C61.3849 24.8414 60.9665 32.0677 63.0812 33.2015C65.1809 34.3283 68.1504 32.9264 69.1216 33.2554C69.7363 33.464 73.9333 35.5658 76.1681 36.4397C77.3763 36.9125 78.0768 36.5425 78.4577 36.2812C80.6494 34.7847 83.8251 31.3579 84.9613 28.6523C85.1227 28.2659 85.3533 27.745 84.213 27.1942Z" fill="#CAD309"/>
<path fill-rule="evenodd" clip-rule="evenodd" d="M77.612 36.0755C77.66 36.4807 76.533 36.3486 76.5464 36.0254C76.5596 35.6926 77.5713 35.7623 77.612 36.0755Z" fill="white"/>
<path fill-rule="evenodd" clip-rule="evenodd" d="M76.9501 35.2303C76.777 35.4621 76.1738 35.4744 75.7674 35.3431C75.6242 35.2954 75.4777 35.2107 75.5064 35.049C75.5556 34.7979 75.9898 34.8849 76.3068 34.8963C76.6332 34.9081 77.0014 34.8439 76.9501 35.2303Z" fill="white"/>
<path fill-rule="evenodd" clip-rule="evenodd" d="M68.6234 20.6101C69.0435 20.1715 67.5417 19.6952 67.6311 20.2878C67.6777 20.5969 68.3316 20.6617 68.6234 20.6101Z" fill="white"/>
<path fill-rule="evenodd" clip-rule="evenodd" d="M69.6432 20.3236C69.514 20.3339 69.257 20.4253 69.2974 20.6802C69.3487 21.0141 69.9827 21.2629 70.2133 21.4094C70.4957 21.5869 70.9472 22.0486 71.2788 21.8705C71.7508 21.6171 70.9718 21.0405 70.6946 20.8533C70.5475 20.7537 70.3943 20.6702 70.2657 20.5926C70.0448 20.4587 69.8898 20.3031 69.6432 20.3236Z" fill="white"/>
<path fill-rule="evenodd" clip-rule="evenodd" d="M63.0918 30.272C62.8621 31.1693 60.8263 36.6534 59.9685 38.9189C59.2179 40.8988 56.4194 46.0577 55.9788 46.6472C55.7298 46.9217 55.4919 47.1865 55.3076 47.3784C54.976 47.7256 54.6303 48.0874 54.3068 48.4161C54.0019 48.7267 52.9929 49.7424 53.3597 50.1086C53.6641 50.4112 54.5184 49.3328 54.8441 49.15C54.6071 49.6964 54.3807 50.6192 54.4032 51.5702C54.4085 51.8213 54.3912 52.3486 54.6385 52.3703C54.976 52.3993 55.0088 51.978 55.0639 51.7858C55.1418 51.5178 55.2297 51.3244 55.2522 51.0889C55.327 51.4249 55.271 52.2054 55.4248 52.5856C55.474 52.7084 55.5906 52.8373 55.7157 52.8227C56.0081 52.7898 55.9809 52.3779 56.0228 52.1008C56.0781 51.7258 56.1452 51.4817 56.1772 51.2248C56.1751 51.2134 56.1739 51.2019 56.1733 51.1911C56.1745 51.2011 56.176 51.2099 56.1786 51.2184C56.1786 51.2207 56.1772 51.2227 56.1772 51.2245C56.2126 51.5069 56.1798 52.3214 56.3151 52.6946C56.3702 52.8443 56.4856 53.0031 56.6474 52.9785C56.9878 52.9284 56.9491 52.247 56.9737 52.0064C57.0136 51.5869 57.071 51.2951 57.0936 50.9389C57.1867 51.2151 57.1422 52.0557 57.2866 52.5411C57.3464 52.7433 57.4583 52.9633 57.6669 52.9246C57.9259 52.8748 57.9681 52.3076 57.99 52.116C58.0888 51.1964 58.2065 50.1707 58.4477 49.4441C58.6328 48.891 58.8593 48.3974 59.1476 47.9166C60.55 45.9637 63.0728 41.8513 64.0223 39.6974C65.0025 37.4723 67.1696 32.5814 67.6425 30.7489C66.8192 30.8761 63.8465 30.366 63.0918 30.272Z" fill="#FCD2C0"/>
<path d="M66.2546 21.3663C64.5618 21.5781 63.7198 23.275 63.1538 24.3487C61.8979 26.7291 61.1651 29.1045 60.4573 31.6234L66.6296 33.7967C67.1124 32.6837 67.5592 31.5613 67.9436 30.4322C68.2787 29.4516 68.6241 28.3539 68.8348 27.1639C69.0346 26.0459 69.1304 24.7076 68.7217 23.4306C68.318 22.167 67.3896 21.2224 66.2546 21.3663Z" fill="#B1BC00"/>
<path fill-rule="evenodd" clip-rule="evenodd" d="M64.7257 24.5913C64.4248 24.7861 64.0316 25.646 64.3753 25.8045C64.7315 25.9656 65.0898 25.0765 65.0538 24.7381C65.004 24.6473 64.8496 24.5802 64.7257 24.5913Z" fill="white"/>
<path fill-rule="evenodd" clip-rule="evenodd" d="M63.1851 26.0113C62.8063 25.6424 62.5403 26.4071 62.3985 26.9045C62.3021 27.24 62.2248 27.6454 62.477 27.716C62.8327 27.8168 63.336 26.4138 63.2543 26.1041C63.2472 26.0769 63.2077 26.0341 63.1851 26.0113Z" fill="white"/>
<path fill-rule="evenodd" clip-rule="evenodd" d="M64.587 23.0901C64.2794 23.1704 63.5429 24.4351 64.0523 24.6209C64.3854 24.7418 64.9699 23.7191 64.8934 23.2673C64.8395 23.1865 64.7382 23.1267 64.587 23.0901Z" fill="white"/>
<path fill-rule="evenodd" clip-rule="evenodd" d="M86.3588 28.9839C83.8261 31.62 81.6611 34.3713 79.2555 37.0461L78.4636 36.2897C80.4303 33.6787 82.6906 31.1601 84.9807 28.6514C84.981 28.6514 86.3834 28.959 86.3588 28.9839Z" fill="#EFAD1B"/>
<path d="M82.636 33.9965L81.7131 35.0975C81.4448 35.4169 80.9672 35.459 80.6476 35.191L80.0004 34.649C79.682 34.38 79.6389 33.9022 79.9073 33.582L80.831 32.4819C81.0994 32.1626 81.5769 32.1204 81.8959 32.3881L82.544 32.9313C82.8624 33.1994 82.9037 33.6778 82.636 33.9965ZM80.3505 33.9532C80.2861 34.0291 80.2952 34.1424 80.3713 34.2051L81.0194 34.7489C81.0947 34.8116 81.208 34.8019 81.2704 34.7266L82.1948 33.6251C82.258 33.5498 82.2481 33.437 82.1716 33.3737L81.5256 32.8305C81.4497 32.7672 81.3358 32.7769 81.274 32.8528L80.3505 33.9532Z" fill="white"/>
</svg>
