<svg width="102" height="154" viewBox="0 0 102 154" fill="none" xmlns="http://www.w3.org/2000/svg">
<path d="M52.2732 154C79.2419 154 101.104 149.787 101.104 144.59C101.104 139.393 79.2419 135.18 52.2732 135.18C25.3045 135.18 3.44202 139.393 3.44202 144.59C3.44202 149.787 25.3045 154 52.2732 154Z" fill="#DEE1F3"/>
<path d="M84.0848 118.149C75.0596 116.819 65.8979 116.676 56.8353 117.723C42.1283 119.481 58.1977 137.558 58.1977 137.558L84.0848 118.149Z" fill="#12296B"/>
<path d="M50.0546 81.0428C46.4131 81.0589 42.8206 81.8789 39.5363 83.4437C34.3822 86.0073 21.6839 97.8338 20.2981 108.599C18.9123 119.365 36.9826 121.131 36.9826 121.131L40.3304 117.8C40.3304 117.8 30.614 114.911 31.2057 107.368C31.7974 99.8242 45.8893 93.7135 45.8893 93.7135L50.0546 81.0428Z" fill="#FF6551"/>
<path d="M52.9429 78.7425C48.0832 79.0929 43.5099 81.1616 40.05 84.5745C34.4911 90.2283 34.6935 110.342 35.6823 121.402C35.6823 121.402 47.3606 132.244 66.373 126.924C66.373 126.924 69.8065 99.1504 71.3947 94.5887C72.983 90.0269 71.3013 84.6287 71.3013 84.6287C71.3013 84.6287 68.6153 76.9302 52.9429 78.7425Z" fill="#FFC652"/>
<path d="M67.1124 80.493C65.0415 82.6384 64.442 85.0161 63.6478 87.75C62.6501 90.6627 62.2246 93.7391 62.3944 96.8116C62.7214 101.869 62.3087 106.717 57.8632 109.978C53.9003 112.875 46.6052 110.365 43.3975 107.283C41.5134 105.478 40.4702 102.992 39.5904 100.545C38.705 98.1564 38.1803 95.6508 38.0333 93.1095C37.9321 91.1888 38.1034 87.1304 39.279 85.5195C34.4753 92.1414 34.7011 110.907 35.6431 121.456C35.6431 121.456 47.3215 132.299 66.3339 126.978C66.3339 126.978 69.7673 99.2048 71.3556 94.643C72.9438 90.0813 71.2621 84.683 71.2621 84.683C71.2621 84.683 70.4758 82.2899 67.1124 80.493Z" fill="#F7A845"/>
<path d="M25.5677 119.636C25.5677 119.636 19.4093 127.249 23.5746 132.802C27.7399 138.355 41.4036 143.452 48.3639 142.189C55.3242 140.927 67.8278 127.76 67.8278 127.76L66.8391 118.676L25.5677 119.636Z" fill="#12296B"/>
<path d="M33.8144 58.8613C33.4329 59.264 33.0359 59.6358 32.6155 60.0617C31.4243 61.177 30.0696 62.0986 28.4813 62.1141C27.2793 62.0967 26.1009 61.78 25.0536 61.1928C24.0064 60.6056 23.1238 59.7668 22.4864 58.7528C21.9543 57.6728 21.7694 56.4559 21.957 55.2676C22.034 54.7107 22.1591 54.1613 22.3307 53.6257C22.5641 52.8442 22.9301 52.1081 23.4129 51.4494C25.5228 48.6689 28.8628 49.366 31.7357 50.2334L33.8144 58.8613Z" fill="#FFBF94"/>
<g style="mix-blend-mode:multiply" opacity="0.31">
<path d="M29.0797 56.0036C27.4603 55.2291 26.6973 53.5949 26.3626 51.9065C26.3543 51.8685 26.3331 51.8344 26.3027 51.81C26.2722 51.7855 26.2343 51.7722 26.1952 51.7722C26.156 51.7722 26.1181 51.7855 26.0876 51.81C26.0572 51.8344 26.0361 51.8685 26.0278 51.9065C25.6696 53.7498 26.8063 55.4614 28.2934 56.4528C27.8632 56.909 27.4701 57.3984 27.1178 57.9165C26.6728 58.4495 26.3798 59.0914 26.2691 59.7753C26.2545 59.8769 26.2735 59.9804 26.3232 60.0703C26.373 60.1601 26.4508 60.2315 26.5449 60.2734C26.6389 60.3154 26.7442 60.3258 26.8448 60.303C26.9453 60.2802 27.0357 60.2255 27.1022 60.1471C27.4631 59.6203 27.756 59.0504 27.9742 58.451C28.3155 57.7926 28.7336 57.1765 29.2199 56.6154C29.2574 56.5682 29.2838 56.5132 29.2972 56.4545C29.3105 56.3958 29.3105 56.3348 29.2971 56.2761C29.2836 56.2174 29.2571 56.1624 29.2195 56.1153C29.1819 56.0681 29.1341 56.0299 29.0797 56.0036Z" fill="#DD664A"/>
</g>
<g style="mix-blend-mode:multiply" opacity="0.12">
<path d="M32.6155 60.0696C31.4243 61.1848 30.0696 62.1065 28.4813 62.122C27.2793 62.1046 26.1009 61.7878 25.0536 61.2007C24.0064 60.6135 23.1238 59.7746 22.4864 58.7607C21.9543 57.6806 21.7694 56.4637 21.957 55.2755C22.034 54.7185 22.1591 54.1692 22.3307 53.6335C22.5799 54.9424 24.137 60.1083 32.6155 60.0696Z" fill="#DD664A"/>
</g>
<path d="M61.3825 79.0756C61.7718 81.6701 59.4673 83.312 57.116 83.9316C55.16 84.4073 53.0967 84.1539 51.3158 83.2191C49.4862 82.22 47.7266 79.8423 50.1401 78.3785C51.005 77.9228 51.9646 77.6735 52.943 77.6505C55.3272 77.4565 57.7261 77.5423 60.0901 77.9061C60.4673 77.9189 60.827 78.0675 61.1022 78.3243C61.2603 78.5459 61.357 78.805 61.3825 79.0756Z" fill="#FF6551"/>
<path d="M60.5416 72.624V77.8828C60.5416 77.8828 60.2224 81.1357 56.2595 82.0883C52.2967 83.0409 50.5138 80.3147 50.5138 80.3147L50.397 79.6951L49.8286 77.4491L49.0501 74.6454C46.6521 64.0039 58.0658 73.4837 58.0658 73.4837L58.8444 73.0964L59.0234 73.6308L60.5416 72.624Z" fill="#EA9573"/>
<g style="mix-blend-mode:multiply" opacity="0.31">
<path d="M60.5345 75.2884V77.6816C59.3755 78.8959 57.8974 79.7626 56.268 80.1832C54.2979 80.4984 52.2802 80.331 50.3899 79.6953L49.8293 77.4492L58.0821 73.4838L59.0708 73.631L60.5345 75.2884Z" fill="#DD664A"/>
</g>
<path d="M77.2269 58.451L77.1724 58.7763C76.8829 60.5449 76.3015 62.2537 75.4518 63.8337C74.2528 65.9016 72.3843 67.5048 70.5547 69.0615C67.4279 71.8631 64.0912 74.4237 60.5736 76.7213C58.6895 77.883 56.6185 78.9208 54.3996 78.9905C52.5941 78.9498 50.8151 78.5495 49.1677 77.8133C44.0937 75.8468 39.2927 73.2441 34.8812 70.0684C33.3866 69.1114 32.0978 67.8689 31.0896 66.4128C30.2158 64.791 29.6684 63.0152 29.478 61.1849C29.4001 60.7202 29.33 60.2633 29.26 59.8063C27.8852 50.8839 27.4469 41.8434 27.952 32.8308L28.0532 32.0563C27.2513 28.0676 30.4823 24.3733 33.8846 22.0731C37.7835 19.4649 42.1633 17.6512 46.7709 16.7366C51.3786 15.822 56.1227 15.8247 60.7293 16.7446C64.7466 17.5655 68.7095 19.161 71.6914 21.9646C75.0314 25.1091 76.8844 29.5547 77.6863 34.0467C78.4882 38.5388 78.3091 43.1548 78.1301 47.7243C78.0828 51.3165 77.781 54.901 77.2269 58.451Z" fill="#FFBF94"/>
<g style="mix-blend-mode:multiply" opacity="0.09">
<path d="M77.1712 58.7762C76.8817 60.5448 76.3003 62.2536 75.4506 63.8336C74.2516 65.9015 72.3831 67.5047 70.5535 69.0615C67.4267 71.863 64.09 74.4237 60.5724 76.7212C58.6883 77.8829 56.6173 78.9208 54.3984 78.9905C52.5929 78.9497 50.8139 78.5494 49.1665 77.8132C44.0925 75.8468 39.2915 73.2441 34.88 70.0683C33.3854 69.1114 32.0966 67.8688 31.0884 66.4127C30.2146 64.7909 29.6672 63.0152 29.4768 61.1849C29.3989 60.7202 29.3289 60.2632 29.2588 59.8063C29.5001 59.9457 30.3721 59.5739 30.6913 60.0774C34.4051 65.948 45.6163 73.7394 54.632 73.933C63.6477 74.1267 75.9723 58.4432 75.9723 58.4432L77.1712 58.7762Z" fill="#DD664A"/>
</g>
<g style="mix-blend-mode:multiply" opacity="0.31">
<path d="M29.8747 46.4695L30.0615 48.7078C30.0615 48.7078 35.0832 40.6918 34.2579 34.3023C34.2579 34.3023 39.0539 38.8253 47.9839 39.4991C56.914 40.1729 61.5075 36.7884 61.5075 36.7884C61.5075 36.7884 58.728 35.1 57.7548 33.3032C57.7548 33.3032 65.5949 35.3091 69.7757 31.9788C69.7757 31.9788 68.9972 36.7264 73.217 41.7761C77.4368 46.8258 77.9428 48.793 77.9428 48.793L77.5769 33.3032L69.9626 21.5231L55.388 22.2976L35.6593 27.0375L30.8479 27.2699C30.8479 27.2699 29.1817 32.1259 29.1506 33.1173C29.1195 34.1086 29.8747 46.4695 29.8747 46.4695Z" fill="#DD664A"/>
</g>
<path d="M28.3868 52.1542C27.629 50.4297 26.8919 48.6948 26.1757 46.9496L25.9421 46.3765C24.0035 41.5359 22.3451 36.401 22.968 31.2507C23.2652 28.8697 24.1359 26.5954 25.5061 24.621C25.9248 24.0085 26.3991 23.4356 26.9231 22.9094C28.4816 21.2428 30.5619 20.1508 32.8245 19.8114L32.8713 20.0283C31.4698 23.436 31.5243 27.0994 31.7813 30.8092C32.0953 33.7519 32.2357 36.7104 32.2017 39.6694C31.9975 44.0825 30.686 48.3746 28.3868 52.1542Z" fill="#661E08"/>
<path d="M82.0453 58.6291C80.0641 59.2613 77.9278 59.2205 75.9725 58.5129C75.4877 58.3448 75.0144 58.1456 74.5555 57.9166L76.5331 50.7603C77.6075 48.4368 80.2546 46.7252 82.7615 47.2596C84.0144 47.5574 85.1026 48.3263 85.7979 49.4049C86.5224 50.4778 86.8549 51.7654 86.74 53.0528C86.5494 54.3221 86.0101 55.5145 85.1818 56.4984C84.3534 57.4823 83.268 58.2197 82.0453 58.6291Z" fill="#FFBF94"/>
<path d="M81.4229 43.0078C80.6234 45.4203 79.4971 47.7133 78.0751 49.8233C77.826 46.5627 75.8095 43.759 74.377 40.8159C73.9412 39.9387 73.559 39.036 73.2325 38.113C72.1036 34.9483 71.5756 31.6025 71.6754 28.2459L77.7637 22.6696L78.2853 22.1971L78.6668 22.3443C80.6521 23.2117 81.6565 25.543 82.1625 27.6806C83.33 32.7607 83.0742 38.0622 81.4229 43.0078Z" fill="#661E08"/>
<g style="mix-blend-mode:multiply" opacity="0.32">
<path d="M81.4229 43.0076C81.9134 37.927 82.2015 29.8413 78.4566 31.1347C74.7117 32.4281 73.6218 35.9985 73.2325 38.1051C72.1036 34.9404 71.5756 31.5946 71.6754 28.2381L77.7637 22.6617L78.6668 22.3364C80.6521 23.2039 81.6565 25.5351 82.1625 27.6727C83.3314 32.7553 83.0756 38.0596 81.4229 43.0076Z" fill="#661E08"/>
</g>
<g style="mix-blend-mode:multiply" opacity="0.31">
<path d="M80.1924 53.2463C81.7495 52.3014 83.0886 50.582 82.8473 48.7232C82.8473 48.6226 82.676 48.5838 82.637 48.7232C81.9519 50.4659 81.1967 52.0148 79.3982 52.8513C79.3372 52.877 79.2838 52.9179 79.2431 52.9699C79.2024 53.0219 79.1757 53.0834 79.1656 53.1485C79.1555 53.2137 79.1622 53.2803 79.1852 53.3422C79.2082 53.404 79.2467 53.459 79.297 53.5019C79.8293 53.9512 80.2435 54.5227 80.5038 55.167C80.618 55.7013 80.8291 56.2105 81.1266 56.6695C81.1442 56.6906 81.1662 56.7076 81.1911 56.7193C81.216 56.731 81.2432 56.737 81.2707 56.737C81.2982 56.737 81.3254 56.731 81.3503 56.7193C81.3752 56.7076 81.3972 56.6906 81.4147 56.6695C82.0998 55.5775 81.0644 54.106 80.1924 53.2463Z" fill="#DD664A"/>
</g>
<path d="M81.3132 24.9464C78.4637 27.1615 75.2093 29.028 71.6279 29.5159C68.0465 30.0038 64.0915 28.8731 61.8804 26.0307C62.3618 28.4739 63.7947 30.6287 65.8666 32.0253C63.6772 32.8139 61.2977 32.9175 59.0474 32.3222C56.7971 31.727 54.7837 30.4612 53.2773 28.6949C53.5612 30.3211 54.1952 31.8669 55.1359 33.2264C56.0766 34.586 57.3017 35.7271 58.7272 36.5715C55.749 37.6946 52.5587 38.1513 49.3831 37.909C46.2074 37.6667 43.1244 36.7315 40.3532 35.1697C37.3324 33.4348 34.4362 30.8713 30.9483 30.9642L29.5157 28.3619L26.8297 23.4981C26.7513 22.529 26.7513 21.5551 26.8297 20.586C27.8418 9.50302 39.2088 5.31302 46.9866 5.09616C61.2809 4.7244 65.7342 8.34128 70.3433 7.26474C71.7393 6.95218 73.1045 6.51675 74.4229 5.96359C77.546 4.7111 80.2766 2.65245 82.3331 0C82.6293 3.5348 81.8242 7.0746 80.0273 10.1383C78.2304 13.2021 75.5288 15.6411 72.2897 17.124C75.9172 18.031 79.7427 17.7401 83.1895 16.2953C85.4734 15.3679 87.5251 13.9535 89.2 12.1518C89.0988 17.3254 85.4162 21.771 81.3132 24.9464Z" fill="#661E08"/>
<path d="M28.3876 52.1543C27.6298 50.4297 26.8928 48.6949 26.1765 46.9497L25.943 46.3765C32.5918 40.7305 25.507 24.6211 25.507 24.6211C25.9256 24.0086 26.3999 23.4356 26.9239 22.9094C28.9836 25.2599 30.6264 27.9418 31.7821 30.8402C32.0962 33.7829 32.2366 36.7414 32.2026 39.7004C31.9932 44.1029 30.6819 48.3838 28.3876 52.1543Z" fill="#551107"/>
<path d="M81.3138 24.9464C78.4643 27.1614 75.2099 29.0279 71.6286 29.5159C68.0472 30.0038 64.0921 28.873 61.881 26.0306C62.3625 28.4738 63.7954 30.6286 65.8672 32.0252C63.6779 32.8138 61.2984 32.9175 59.0481 32.3222C56.7978 31.7269 54.7844 30.4612 53.278 28.6949C53.5619 30.321 54.1959 31.8668 55.1366 33.2264C56.0772 34.5859 57.3023 35.727 58.7279 36.5715C55.7497 37.6946 52.5594 38.1512 49.3837 37.9089C46.2081 37.6667 43.1251 36.7314 40.3539 35.1697C37.5822 33.6207 34.904 31.2972 31.7898 30.9951C31.7898 30.9409 31.7898 30.8945 31.7898 30.8402C31.237 29.4572 30.5731 28.1208 29.8044 26.8439C34.6969 28.3278 39.426 30.2999 43.9197 32.73C50.3584 36.3856 51.8766 30.879 47.2597 25.2639C42.6429 19.6488 53.8541 26.4489 57.381 26.8903C60.9078 27.3318 59.0393 21.283 56.6024 19.3932C54.1655 17.5035 67.3932 27.9901 76.1598 23.5213C79.3074 22.0492 81.8012 19.4774 83.1668 16.2953C85.4507 15.3678 87.5024 13.9534 89.1773 12.1517C89.0994 17.3253 85.4168 21.7709 81.3138 24.9464Z" fill="#551107"/>
<g style="mix-blend-mode:screen" opacity="0.28">
<path d="M74.4229 5.96353C74.3684 6.11069 74.3139 6.25784 74.2516 6.39725C73.4451 8.27889 72.171 9.92569 70.549 11.1829C68.927 12.4402 67.0103 13.2666 64.979 13.5845C61.7869 14.057 58.5248 13.2283 55.3327 13.5845C54.5519 13.6215 53.8005 13.8913 53.1761 14.359C52.2885 15.1335 52.1406 16.5663 51.2219 17.3331C50.7541 17.6481 50.2133 17.839 49.6506 17.8878C49.0878 17.9366 48.5219 17.8417 48.0064 17.6119C46.9398 17.2324 45.99 16.5973 44.8922 16.2488C44.3689 16.0341 43.7966 15.9653 43.2369 16.0499C42.6772 16.1345 42.1513 16.3693 41.7157 16.729C40.4544 18.0069 41.3031 20.2297 40.6335 21.8948C40.0574 23.3277 38.4458 24.0867 36.9042 24.3268C33.1983 24.9309 29.4534 23.2502 26.783 20.524C27.7951 9.441 39.162 5.251 46.9398 5.03414C61.2341 4.66239 65.6875 8.27927 70.2966 7.20272C71.7064 6.91291 73.0874 6.49819 74.4229 5.96353Z" fill="#661E08"/>
</g>
<g style="mix-blend-mode:multiply" opacity="0.12">
<path d="M82.0455 58.6291C80.0643 59.2613 77.9281 59.2205 75.9728 58.5129C84.825 57.7384 85.8137 49.4049 85.8137 49.4049C86.5382 50.4778 86.8707 51.7654 86.7558 53.0528C86.5639 54.3239 86.0223 55.5175 85.1911 56.5016C84.3598 57.4858 83.2712 58.222 82.0455 58.6291Z" fill="#DD664A"/>
</g>
<path d="M38.454 42.0859C38.392 41.9521 38.2952 41.8372 38.1737 41.7529C38.0226 41.6731 37.8543 41.6306 37.6832 41.629C36.6166 41.5825 35.5188 42.2951 34.6235 42.7985C33.4928 43.387 32.5229 44.2402 31.7973 45.2846C31.3847 45.9429 30.8708 47.1356 31.8596 47.5616C32.9729 48.0186 34.2576 47.0427 35.114 46.4696C36.2896 45.6176 38.9211 44.1461 38.5474 42.4035C38.5263 42.295 38.495 42.1887 38.454 42.0859Z" fill="#661E08"/>
<path d="M68.6852 43.6427C68.148 42.4577 66.404 41.7839 65.244 41.4818C63.4852 40.9381 61.5845 41.0793 59.9264 41.8768C59.6999 41.9781 59.5098 42.1456 59.3814 42.357C59.3175 42.5164 59.3005 42.6905 59.3322 42.8591C59.3639 43.0278 59.443 43.184 59.5605 43.3096C59.8006 43.5549 60.0897 43.7475 60.4091 43.875C61.4477 44.3304 62.5169 44.7134 63.609 45.0213C64.6116 45.3748 65.6608 45.5809 66.7232 45.6331C67.8288 45.6409 69.2925 44.9206 68.6852 43.6427Z" fill="#661E08"/>
<path d="M57.2395 68.2715C56.7723 69.0744 56.1268 69.7604 55.3522 70.2772C54.5777 70.794 53.6947 71.1279 52.7706 71.2533C51.8088 71.4237 50.8209 71.3794 49.8784 71.1236C48.9359 70.8677 48.0623 70.4068 47.3207 69.774C46.203 68.809 45.2898 67.6321 44.6347 66.312C44.4114 65.9076 44.2163 65.4884 44.0508 65.0573C44.2532 65.0573 53.0898 66.4359 58.5631 62.6099C58.589 63.288 58.5551 63.9669 58.4619 64.6391C58.2985 65.9181 57.8831 67.1524 57.2395 68.2715Z" fill="#AA2626"/>
<path d="M58.4619 64.6081C56.6254 66.0484 54.4237 66.9545 52.1011 67.2259C49.5697 67.4865 47.0119 67.1741 44.6191 66.312C44.4011 65.9072 44.2112 65.488 44.0508 65.0573C44.2532 65.0573 53.0898 66.4359 58.5631 62.6099C58.5872 63.2776 58.5533 63.9462 58.4619 64.6081Z" fill="white"/>
<path d="M57.2402 68.2716C56.773 69.0745 56.1275 69.7606 55.3529 70.2774C54.5784 70.7941 53.6954 71.128 52.7713 71.2534C51.8095 71.4238 50.8216 71.3795 49.8791 71.1237C48.9365 70.8679 48.0629 70.4069 47.3214 69.7741C48.0455 69.3653 48.8468 69.1102 49.675 69.0249C50.5031 68.9396 51.34 69.0259 52.1329 69.2784C52.1329 69.2784 52.8492 67.7837 57.2402 68.2716Z" fill="#FF6551"/>
<path d="M49.5255 73.0734C50.0219 73.5448 50.6239 73.8919 51.2819 74.0858C51.9399 74.2798 52.6349 74.315 53.3093 74.1887C54.0256 74.0415 55.715 73.298 55.5126 72.3531C55.5087 72.3257 55.4945 72.3009 55.4728 72.2836C55.4511 72.2663 55.4235 72.2579 55.3958 72.2602C55.0299 72.3454 54.9365 72.5777 54.6173 72.8256C54.1684 73.1923 53.6321 73.4377 53.0602 73.5381C51.8763 73.7044 50.6725 73.4285 49.6812 72.7636C49.4788 72.6319 49.2997 72.9572 49.4632 73.1044L49.5255 73.0734Z" fill="#DD664A"/>
<g style="mix-blend-mode:multiply" opacity="0.12">
<path d="M54.0877 56.7858C53.8615 56.4286 53.5623 56.1226 53.2096 55.8878C52.8568 55.6529 52.4584 55.4945 52.0401 55.4227C51.2022 55.2804 50.3422 55.3415 49.5332 55.6008C48.4198 55.9261 47.3298 56.4993 46.9873 57.6842C46.9001 57.9351 46.9001 58.2078 46.9873 58.4587C47.0414 58.63 47.1598 58.7739 47.3179 58.8604C47.476 58.947 47.6615 58.9696 47.8359 58.9234C48.0058 58.8438 48.161 58.7365 48.2953 58.6059C49.0857 58.0611 50.0508 57.8266 51.0046 57.9476C51.951 58.0696 52.9111 58.0356 53.8464 57.8469C53.9302 57.8251 54.0093 57.7883 54.0799 57.7384C54.3447 57.5061 54.259 57.0801 54.0877 56.7858Z" fill="#DD664A"/>
</g>
<path d="M53.8772 59.1018C53.449 58.1182 51.4014 58.4357 50.5528 58.5829C49.9558 58.629 49.3752 58.7989 48.8482 59.0817C48.3212 59.3645 47.8596 59.7539 47.493 60.2248C47.493 60.2248 47.493 60.3255 47.5631 60.3177C48.6609 60.1319 49.6574 59.613 50.7863 59.489C51.4063 59.4257 52.0319 59.4439 52.6471 59.5432C53.1064 59.6284 53.3634 59.7679 53.7526 59.4581C53.811 59.4215 53.8551 59.3664 53.8777 59.3016C53.9003 59.2369 53.9002 59.1664 53.8772 59.1018Z" fill="#DD664A"/>
<path d="M39.7263 60.0672C42.438 59.4687 44.1486 56.7966 43.5469 54.099C42.9452 51.4014 40.2592 49.6998 37.5474 50.2983C34.8356 50.8969 33.1251 53.5689 33.7268 56.2665C34.3284 58.9641 37.0145 60.6657 39.7263 60.0672Z" fill="white"/>
<path d="M39.0384 59.9629C41.1163 59.5042 42.427 57.4568 41.966 55.3897C41.5049 53.3227 39.4467 52.0188 37.3688 52.4774C35.2909 52.9361 33.9802 54.9835 34.4412 57.0506C34.9023 59.1176 36.9605 60.4215 39.0384 59.9629Z" fill="#191818"/>
<path d="M36.9434 56.4683C37.5239 56.4683 37.9944 56.0002 37.9944 55.4228C37.9944 54.8453 37.5239 54.3772 36.9434 54.3772C36.3629 54.3772 35.8923 54.8453 35.8923 55.4228C35.8923 56.0002 36.3629 56.4683 36.9434 56.4683Z" fill="white"/>
<path d="M63.6007 57.462C66.3166 56.8625 68.0298 54.1863 67.4272 51.4846C66.8246 48.7828 64.1344 47.0785 61.4184 47.678C58.7025 48.2775 56.9892 50.9536 57.5919 53.6554C58.1945 56.3572 60.8847 58.0615 63.6007 57.462Z" fill="white"/>
<path d="M65.76 53.4673C65.7896 51.3031 64.05 49.5248 61.8745 49.4954C59.699 49.4659 57.9114 51.1964 57.8818 53.3606C57.8521 55.5248 59.5917 57.3031 61.7673 57.3325C63.9428 57.362 65.7304 55.6315 65.76 53.4673Z" fill="#191818"/>
<path d="M63.842 52.1776C63.8906 52.396 63.873 52.6238 63.7914 52.8322C63.7099 53.0407 63.568 53.2204 63.3838 53.3486C63.1995 53.4768 62.9812 53.5478 62.7564 53.5526C62.5316 53.5574 62.3104 53.4957 62.1208 53.3754C61.9313 53.2551 61.7818 53.0816 61.6914 52.8767C61.601 52.6719 61.5737 52.4451 61.6129 52.2248C61.6521 52.0046 61.7561 51.8008 61.9118 51.6394C62.0674 51.478 62.2677 51.3661 62.4873 51.3179C62.7815 51.2533 63.0895 51.3076 63.3435 51.4688C63.5975 51.63 63.7768 51.8849 63.842 52.1776Z" fill="white"/>
<path d="M48.3506 138.456C48.3506 138.456 39.1013 141.554 35.4188 142.158C31.7362 142.762 26.4731 145.31 28.9957 147.928C31.5182 150.546 34.5779 151.475 39.187 150.166C43.7961 148.857 51.9398 142.127 51.9398 142.127L48.3506 138.456Z" fill="#FF6551"/>
<path d="M48.3494 138.456C48.3494 138.456 43.5068 140.09 39.4349 141.213C39.0923 141.306 38.5396 143.583 38.3994 143.955C38.1864 144.699 37.8057 145.385 37.2861 145.961C36.6697 146.597 35.9144 147.084 35.0788 147.383C34.2431 147.683 33.3494 147.787 32.4668 147.688C31.6764 147.553 30.9445 147.186 30.3647 146.635C30.1467 146.41 29.0645 144.923 29.4382 144.606C28.2859 145.581 27.8422 146.735 28.9711 147.897C31.4858 150.492 34.5533 151.444 39.1624 150.135C43.7715 148.827 51.9152 142.096 51.9152 142.096L48.3494 138.456Z" fill="#E1574C"/>
<path d="M45.3755 138.409C45.3755 138.409 66.3109 123.253 77.6701 119.194C89.0292 115.136 91.4428 123.253 88.4609 129.185C85.479 135.118 74.1276 139.014 70.0713 139.935C66.0151 140.857 52.3903 144.946 52.3903 144.946C52.3903 144.946 47.3141 144.52 45.3755 138.409Z" fill="#243976"/>
<path d="M87.8845 119.806C91.0922 137.55 61.9819 135.381 47.1115 141.786C48.3785 143.478 50.2579 144.611 52.3511 144.946C52.3511 144.946 65.937 140.865 70.0322 139.935C74.1274 139.006 85.4866 135.126 88.4607 129.185C90.0956 125.925 90.1034 122.006 87.8845 119.806Z" fill="#12296B"/>
<path d="M46.9557 138.456C47.5162 138.828 54.3987 139.757 60.7283 141.608C67.058 143.459 67.9845 145.481 66.6843 147.533C65.9639 148.75 64.9273 149.752 63.6834 150.434C62.4396 151.115 61.0343 151.451 59.615 151.406C56.2594 151.22 47.0491 146.588 44.5811 143.816L46.9557 138.456Z" fill="#FF6551"/>
<path d="M62.8538 142.305C64.0372 144.52 64.3253 146.852 61.5147 147.789C55.1928 149.671 49.8986 145.945 45.2117 142.367L44.5811 143.8C47.0491 146.573 56.2594 151.204 59.615 151.39C61.0343 151.435 62.4396 151.099 63.6834 150.418C64.9273 149.737 65.9639 148.735 66.6843 147.518C67.821 145.752 67.2527 143.963 62.8538 142.305Z" fill="#E1574C"/>
<path d="M15.502 118.095C15.502 118.095 9.7329 119.566 8.61178 122.633C7.49065 125.7 9.39033 129.96 14.7546 134.398C20.1189 138.835 41.2256 145.721 46.0215 146.627C47.3939 145.581 48.4504 144.179 49.0752 142.575C49.7 140.971 49.8691 139.227 49.5639 137.534C49.5639 137.534 36.7177 129.387 30.7617 125.142C24.8058 120.898 19.6907 117.552 15.502 118.095Z" fill="#243976"/>
<path d="M25.6923 131.524C30.2625 130.873 34.2565 130.238 38.6709 130.502C35.7513 128.573 32.8317 126.629 30.753 125.127C24.797 120.867 19.6819 117.552 15.4932 118.094C15.4932 118.094 9.72411 119.566 8.60299 122.633C7.48186 125.7 9.38155 129.96 14.7458 134.397C20.1101 138.835 41.2168 145.72 46.0127 146.627C47.1232 145.779 48.0279 144.693 48.6599 143.45C49.292 142.208 49.6351 140.84 49.6641 139.447C41.4503 141.848 28.5107 139.207 25.6923 131.524Z" fill="#12296B"/>
<path d="M67.6646 118.676H20.9511L12.7684 126.328L57.4187 128.217L67.6646 118.676Z" fill="#49A4F7"/>
<path d="M50.3348 117.041C49.7576 117.354 49.2324 117.754 48.7776 118.226C48.6848 118.308 48.6264 118.421 48.6141 118.544C48.6141 118.854 49.0579 118.923 49.3927 118.877L51.8451 118.497C51.2772 118.586 50.7346 118.794 50.2529 119.106C49.7712 119.419 49.3613 119.829 49.0501 120.31C49.6482 120.489 50.2802 120.526 50.8953 120.418C50.5314 120.705 50.1462 120.964 49.743 121.193C53.1453 123.47 60.0278 120.96 63.0252 118.869C63.8353 118.395 64.4587 117.66 64.7926 116.786C65.9293 112.789 57.5598 114.462 55.8392 114.942C53.9323 115.438 52.0863 116.142 50.3348 117.041Z" fill="#FFBF94"/>
<path d="M63.9517 82.801C63.9517 82.801 61.1722 85.899 63.9517 92.4977C66.7311 99.0963 69.0123 100.305 69.0123 104.89C69.0123 109.475 60.5338 113.618 60.5338 113.618C60.5338 113.618 63.8738 116.972 61.9352 119.597C61.9352 119.597 73.6136 118.281 77.4441 110.21C83.0264 98.5929 71.4959 83.0566 71.4959 83.0566C71.4959 83.0566 67.7355 78.3322 63.9517 82.801Z" fill="#FF6551"/>
<path d="M63.9515 82.801C63.7976 82.9947 63.6621 83.2021 63.5466 83.4206C65.1037 83.1263 67.4394 83.3664 69.7751 86.1004C73.8547 90.8867 77.6385 101.544 74.5788 107.562C72.0952 112.449 64.9636 115.655 62.3866 116.677C62.5575 117.169 62.6078 117.694 62.5333 118.208C62.4589 118.723 62.2617 119.212 61.9584 119.636C61.9584 119.636 73.6367 118.319 77.4672 110.249C83.0495 98.6317 71.5191 83.0953 71.5191 83.0953C71.5191 83.0953 67.7353 78.3322 63.9515 82.801Z" fill="#E1574C"/>
<path d="M0.000967004 96.2771L10.1767 129.425C10.3739 130.219 10.8333 130.924 11.4814 131.427C12.1294 131.929 12.9285 132.201 13.7503 132.198L55.8936 131.888L67.8523 123.779L67.6421 118.675L56.9135 126.327L50.2724 93.5664C50.1014 92.7318 49.6415 91.9833 48.9729 91.4512C48.3043 90.9191 47.4693 90.6371 46.6132 90.6543L4.5711 91.5759C2.20429 91.6302 -0.053532 94.6429 0.000967004 96.2771Z" fill="#3E8CE1"/>
<path d="M0.110423 97.5087L7.42887 130.037C7.62068 130.832 8.07764 131.539 8.72521 132.043C9.37278 132.546 10.1728 132.817 10.9947 132.81L53.6363 132.523C53.9332 132.521 54.2259 132.453 54.493 132.323C54.7601 132.194 54.995 132.008 55.1806 131.777C55.3662 131.547 55.4979 131.278 55.5661 130.99C55.6343 130.703 55.6373 130.404 55.5749 130.115L48.3421 95.038C48.171 94.2034 47.7111 93.4549 47.0425 92.9228C46.3739 92.3908 45.5389 92.1087 44.6829 92.1259L3.56722 93.0243C3.02224 93.0366 2.48697 93.1704 2.00087 93.4159C1.51476 93.6613 1.09021 94.0121 0.758493 94.4424C0.426775 94.8727 0.196346 95.3716 0.0841849 95.9023C-0.0279758 96.4329 -0.0190095 96.9819 0.110423 97.5087Z" fill="#49A4F7"/>
<path d="M44.6829 92.1026L3.56722 93.0242C3.02224 93.0365 2.48697 93.1703 2.00087 93.4157C1.51476 93.6612 1.09021 94.0119 0.758493 94.4423C0.426775 94.8726 0.196346 95.3715 0.0841849 95.9021C-0.0279759 96.4328 -0.0190095 96.9818 0.110423 97.5085L2.99887 110.373L47.1353 92.9855C46.4535 92.4034 45.5812 92.0894 44.6829 92.1026Z" fill="#49B3F7"/>
<path d="M50.3977 105.014L6.0199 123.741L7.43687 130.03C7.62869 130.825 8.08564 131.532 8.73322 132.035C9.38079 132.539 10.1808 132.809 11.0027 132.802H14.2181L52.2117 113.789L50.3977 105.014Z" fill="#49B3F7"/>
<path d="M26.7671 118.056C30.4478 118.056 33.4316 115.088 33.4316 111.426C33.4316 107.765 30.4478 104.797 26.7671 104.797C23.0864 104.797 20.1027 107.765 20.1027 111.426C20.1027 115.088 23.0864 118.056 26.7671 118.056Z" fill="#6CBFF3"/>
</svg>
