<svg width="168" height="253" viewBox="0 0 168 253" fill="none" xmlns="http://www.w3.org/2000/svg">
<path d="M86.8594 253C131.672 253 168 246.079 168 237.541C168 229.003 131.672 222.081 86.8594 222.081C42.0469 222.081 5.71924 229.003 5.71924 237.541C5.71924 246.079 42.0469 253 86.8594 253Z" fill="#DEE1F3"/>
<path d="M139.719 194.102C124.723 191.917 109.499 191.682 94.4401 193.402C70.0023 196.29 96.704 225.988 96.704 225.988L139.719 194.102Z" fill="#12296B"/>
<path d="M83.1733 133.142C77.1224 133.168 71.1529 134.515 65.6956 137.086C57.1314 141.298 36.0313 160.727 33.7285 178.413C31.4258 196.099 61.4523 199 61.4523 199L67.0152 193.529C67.0152 193.529 50.8699 188.783 51.8531 176.39C52.8363 163.997 76.2521 153.958 76.2521 153.958L83.1733 133.142Z" fill="#FF6551"/>
<path d="M87.9726 129.363C79.8974 129.938 72.2982 133.337 66.5491 138.944C57.3122 148.232 57.6485 181.276 59.2915 199.445C59.2915 199.445 78.6969 217.259 110.289 208.518C110.289 208.518 115.994 162.89 118.633 155.396C121.272 147.901 118.478 139.033 118.478 139.033C118.478 139.033 114.015 126.385 87.9726 129.363Z" fill="#FFC652"/>
<path d="M111.517 132.239C108.076 135.763 107.08 139.669 105.761 144.161C104.103 148.946 103.396 154 103.678 159.048C104.221 167.356 103.535 175.321 96.1485 180.678C89.5636 185.437 77.4417 181.314 72.1117 176.25C68.981 173.286 67.2474 169.201 65.7856 165.18C64.3144 161.257 63.4425 157.141 63.1982 152.966C63.03 149.81 63.3146 143.143 65.2681 140.496C57.286 151.375 57.6612 182.205 59.2266 199.535C59.2266 199.535 78.6319 217.348 110.224 208.607C110.224 208.607 115.929 162.979 118.568 155.485C121.207 147.991 118.413 139.122 118.413 139.122C118.413 139.122 117.106 135.19 111.517 132.239Z" fill="#F7A845"/>
<path d="M42.4845 196.545C42.4845 196.545 32.2514 209.052 39.1727 218.175C46.0939 227.298 68.7982 235.67 80.3637 233.596C91.9293 231.522 112.706 209.892 112.706 209.892L111.063 194.967L42.4845 196.545Z" fill="#12296B"/>
<path d="M56.1875 96.7007C55.5536 97.3623 54.8938 97.9731 54.1952 98.6729C52.2159 100.505 49.9649 102.019 47.3257 102.045C45.3284 102.016 43.3703 101.496 41.6301 100.531C39.89 99.5665 38.4234 98.1883 37.3643 96.5226C36.4801 94.7482 36.1729 92.749 36.4846 90.7969C36.6126 89.8819 36.8204 88.9794 37.1056 88.0994C37.4933 86.8155 38.1015 85.6062 38.9038 84.524C42.4097 79.9562 47.9596 81.1013 52.7334 82.5264L56.1875 96.7007Z" fill="#FFBF94"/>
<g style="mix-blend-mode:multiply" opacity="0.31">
<path d="M48.3204 92.0058C45.6295 90.7334 44.3617 88.0487 43.8054 85.2749C43.7916 85.2124 43.7565 85.1565 43.7059 85.1163C43.6553 85.0762 43.5923 85.0543 43.5273 85.0543C43.4623 85.0543 43.3992 85.0762 43.3486 85.1163C43.298 85.1565 43.2629 85.2124 43.2491 85.2749C42.654 88.3032 44.5428 91.1151 47.0138 92.7438C46.2989 93.4933 45.6457 94.2974 45.0603 95.1486C44.321 96.0241 43.834 97.0787 43.6502 98.2023C43.6258 98.3691 43.6574 98.5392 43.7401 98.6868C43.8227 98.8345 43.952 98.9516 44.1083 99.0206C44.2647 99.0896 44.4396 99.1067 44.6067 99.0692C44.7738 99.0318 44.9239 98.9418 45.0344 98.813C45.6341 97.9475 46.1209 97.0114 46.4833 96.0265C47.0505 94.9449 47.7453 93.9327 48.5532 93.011C48.6156 92.9334 48.6595 92.8431 48.6817 92.7466C48.7039 92.6501 48.7039 92.55 48.6815 92.4536C48.6592 92.3571 48.6151 92.2668 48.5526 92.1893C48.4901 92.1119 48.4108 92.0491 48.3204 92.0058Z" fill="#DD664A"/>
</g>
<g style="mix-blend-mode:multiply" opacity="0.12">
<path d="M54.1952 98.6858C52.2159 100.518 49.9649 102.032 47.3257 102.058C45.3284 102.029 43.3703 101.509 41.6301 100.544C39.89 99.5794 38.4234 98.2012 37.3643 96.5355C36.4801 94.7611 36.1729 92.7619 36.4846 90.8098C36.6126 89.8948 36.8204 88.9923 37.1056 88.1123C37.5196 90.2626 40.107 98.7494 54.1952 98.6858Z" fill="#DD664A"/>
</g>
<path d="M101.996 129.91C102.643 134.172 98.8137 136.87 94.9068 137.888C91.6566 138.669 88.228 138.253 85.2688 136.717C82.2286 135.076 79.3049 131.169 83.3153 128.765C84.7524 128.016 86.3468 127.607 87.9726 127.569C91.9343 127.25 95.9204 127.391 99.8487 127.989C100.475 128.01 101.073 128.254 101.53 128.676C101.793 129.04 101.954 129.465 101.996 129.91Z" fill="#FF6551"/>
<path d="M100.599 119.311V127.95C100.599 127.95 100.069 133.294 93.4838 134.859C86.899 136.424 83.9364 131.946 83.9364 131.946L83.7424 130.928L82.798 127.238L81.5043 122.632C77.5197 105.149 96.4852 120.723 96.4852 120.723L97.7789 120.087L98.0764 120.965L100.599 119.311Z" fill="#EA9573"/>
<g style="mix-blend-mode:multiply" opacity="0.31">
<path d="M100.587 123.688V127.62C98.6612 129.615 96.205 131.039 93.4976 131.729C90.224 132.247 86.8714 131.972 83.7303 130.928L82.7988 127.238L96.5119 120.723L98.1549 120.965L100.587 123.688Z" fill="#DD664A"/>
</g>
<path d="M128.324 96.0267L128.234 96.5611C127.753 99.4666 126.787 102.274 125.375 104.87C123.382 108.267 120.278 110.901 117.237 113.458C112.042 118.061 106.497 122.268 100.652 126.042C97.5215 127.951 94.0803 129.656 90.3933 129.77C87.3931 129.703 84.4371 129.046 81.6997 127.836C73.2684 124.606 65.2909 120.33 57.9605 115.112C55.477 113.54 53.3355 111.499 51.6602 109.107C50.2083 106.442 49.2986 103.525 48.9823 100.518C48.8529 99.7548 48.7365 99.0041 48.62 98.2533C46.3357 83.595 45.6073 68.7428 46.4466 53.9363L46.6148 52.6639C45.2823 46.1112 50.6511 40.0419 56.3046 36.263C62.7832 31.9782 70.0609 28.9985 77.7171 27.4959C85.3734 25.9934 93.2565 25.9978 100.911 27.509C107.586 28.8577 114.171 31.4788 119.126 36.0848C124.676 41.2507 127.755 48.5542 129.088 55.934C130.42 63.3138 130.122 70.8972 129.825 78.4042C129.746 84.3057 129.245 90.1945 128.324 96.0267Z" fill="#FFBF94"/>
<g style="mix-blend-mode:multiply" opacity="0.09">
<path d="M128.231 96.5609C127.75 99.4665 126.784 102.274 125.372 104.87C123.38 108.267 120.275 110.901 117.235 113.458C112.039 118.061 106.495 122.267 100.65 126.042C97.5191 127.951 94.0779 129.656 90.3909 129.77C87.3908 129.703 84.4347 129.045 81.6973 127.836C73.2661 124.605 65.2886 120.33 57.9581 115.112C55.4747 113.54 53.3332 111.499 51.6578 109.107C50.2059 106.442 49.2963 103.525 48.9799 100.518C48.8505 99.7546 48.7341 99.0039 48.6177 98.2532C49.0187 98.4822 50.4676 97.8715 50.9981 98.6985C57.169 108.343 75.7981 121.143 90.779 121.461C105.76 121.779 126.239 96.0138 126.239 96.0138L128.231 96.5609Z" fill="#DD664A"/>
</g>
<g style="mix-blend-mode:multiply" opacity="0.31">
<path d="M49.6412 76.3429L49.9517 80.0201C49.9517 80.0201 58.296 66.8509 56.9247 56.3538C56.9247 56.3538 64.8938 63.7845 79.7324 64.8915C94.5711 65.9984 102.204 60.4381 102.204 60.4381C102.204 60.4381 97.5854 57.6643 95.9682 54.7124C95.9682 54.7124 108.996 58.0079 115.943 52.5366C115.943 52.5366 114.649 60.3363 121.661 68.6322C128.673 76.9282 129.514 80.16 129.514 80.16L128.906 54.7124L116.253 35.3595L92.0354 36.6319L59.2533 44.4188L51.2583 44.8006C51.2583 44.8006 48.4898 52.7784 48.4381 54.407C48.3863 56.0357 49.6412 76.3429 49.6412 76.3429Z" fill="#DD664A"/>
</g>
<path d="M47.1687 85.682C45.9095 82.8488 44.6848 79.9987 43.4946 77.1316L43.1065 76.19C39.8852 68.2376 37.1297 59.8018 38.1646 51.3404C38.6584 47.4289 40.1052 43.6925 42.382 40.4488C43.0777 39.4426 43.8659 38.5013 44.7366 37.6369C47.3264 34.8989 50.783 33.1049 54.5427 32.5474L54.6204 32.9036C52.2917 38.5021 52.3823 44.5205 52.8092 50.6152C53.3311 55.4496 53.5643 60.3099 53.5078 65.1712C53.1685 72.4213 50.9892 79.4726 47.1687 85.682Z" fill="#661E08"/>
<path d="M136.331 96.3192C133.038 97.3578 129.489 97.2907 126.24 96.1283C125.434 95.8521 124.648 95.5248 123.885 95.1486L127.171 83.3918C128.957 79.5747 133.355 76.7627 137.521 77.6406C139.603 78.1299 141.411 79.3931 142.566 81.1651C143.77 82.9277 144.322 85.0431 144.131 87.158C143.815 89.2434 142.919 91.2023 141.542 92.8187C140.166 94.4352 138.362 95.6465 136.331 96.3192Z" fill="#FFBF94"/>
<path d="M135.296 70.6557C133.968 74.6192 132.096 78.3862 129.734 81.8526C129.32 76.4959 125.969 71.8899 123.588 67.0548C122.864 65.6136 122.229 64.1307 121.687 62.6142C119.811 57.4151 118.934 51.9184 119.099 46.4041L129.216 37.2429L130.083 36.4668L130.717 36.7085C134.016 38.1336 135.684 41.9635 136.525 45.4753C138.465 53.8213 138.04 62.5308 135.296 70.6557Z" fill="#661E08"/>
<g style="mix-blend-mode:multiply" opacity="0.32">
<path d="M135.296 70.6554C136.111 62.3086 136.59 49.0249 130.367 51.1498C124.145 53.2747 122.334 59.1404 121.687 62.6012C119.811 57.4021 118.934 51.9055 119.099 46.3911L129.216 37.23L130.717 36.6956C134.016 38.1206 135.684 41.9505 136.525 45.4623C138.468 53.8123 138.043 62.5266 135.296 70.6554Z" fill="#661E08"/>
</g>
<g style="mix-blend-mode:multiply" opacity="0.31">
<path d="M133.251 87.476C135.839 85.9237 138.064 83.0991 137.663 80.0453C137.663 79.8799 137.378 79.8163 137.314 80.0453C136.175 82.9082 134.92 85.453 131.932 86.8271C131.83 86.8694 131.742 86.9365 131.674 87.022C131.606 87.1074 131.562 87.2085 131.545 87.3155C131.528 87.4225 131.54 87.532 131.578 87.6336C131.616 87.7352 131.68 87.8255 131.764 87.8959C132.648 88.6341 133.336 89.573 133.769 90.6316C133.959 91.5093 134.309 92.3458 134.804 93.1C134.833 93.1346 134.869 93.1626 134.911 93.1817C134.952 93.2009 134.997 93.2108 135.043 93.2108C135.089 93.2108 135.134 93.2009 135.175 93.1817C135.217 93.1626 135.253 93.1346 135.282 93.1C136.421 91.3059 134.7 88.8884 133.251 87.476Z" fill="#DD664A"/>
</g>
<path d="M135.114 40.9834C130.379 44.6224 124.971 47.6888 119.02 48.4904C113.069 49.292 106.497 47.4343 102.823 42.7647C103.623 46.7785 106.004 50.3185 109.447 52.6129C105.809 53.9085 101.855 54.0788 98.116 53.1008C94.3768 52.1228 91.0312 50.0435 88.5281 47.1417C88.9998 49.8132 90.0533 52.3528 91.6164 54.5863C93.1795 56.8198 95.2152 58.6945 97.5839 60.0818C92.6353 61.9269 87.3341 62.6771 82.0573 62.2791C76.7804 61.881 71.6576 60.3445 67.0529 57.7788C62.0333 54.9287 57.2208 50.7171 51.4251 50.8698L49.0447 46.5946L44.5815 38.604C44.4512 37.0119 44.4512 35.412 44.5815 33.8199C46.2633 15.6121 65.1511 8.72853 78.0751 8.37226C101.827 7.76152 109.227 13.7035 116.886 11.9349C119.205 11.4214 121.474 10.7061 123.665 9.79733C128.854 7.73967 133.391 4.3576 136.809 0C137.301 5.80718 135.963 11.6226 132.977 16.6558C129.991 21.6891 125.502 25.6961 120.12 28.1323C126.148 29.6223 132.504 29.1445 138.232 26.7709C142.027 25.2472 145.436 22.9236 148.219 19.9636C148.051 28.4632 141.932 35.7666 135.114 40.9834Z" fill="#661E08"/>
<path d="M47.17 85.682C45.9108 82.8489 44.6861 79.9988 43.4959 77.1317L43.1078 76.1901C54.1559 66.9144 42.3833 40.4489 42.3833 40.4489C43.079 39.4427 43.8671 38.5014 44.7378 37.637C48.1602 41.4985 50.89 45.9044 52.8104 50.6661C53.3323 55.5006 53.5656 60.3609 53.509 65.2222C53.1612 72.4549 50.9823 79.4877 47.17 85.682Z" fill="#551107"/>
<path d="M135.115 40.9832C130.38 44.6222 124.972 47.6887 119.021 48.4903C113.07 49.2919 106.499 47.4342 102.824 42.7646C103.624 46.7784 106.005 50.3183 109.448 52.6128C105.81 53.9084 101.856 54.0786 98.1171 53.1007C94.3779 52.1227 91.0323 50.0433 88.5292 47.1415C89.0009 49.813 90.0544 52.3526 91.6175 54.5861C93.1806 56.8197 95.2163 58.6944 97.585 60.0817C92.6363 61.9268 87.3351 62.677 82.0583 62.2789C76.7815 61.8809 71.6586 60.3444 67.0539 57.7786C62.4484 55.2339 57.9981 51.4167 52.8233 50.9205C52.8233 50.8315 52.8233 50.7551 52.8233 50.666C51.9048 48.3939 50.8016 46.1983 49.5244 44.1006C57.6539 46.5384 65.5121 49.7783 72.979 53.7706C83.6778 59.7763 86.2005 50.7297 78.5289 41.5049C70.8574 32.2801 89.4865 43.4516 95.3469 44.1769C101.207 44.9022 98.1025 34.9649 94.0532 31.8603C90.004 28.7557 111.984 45.9837 126.551 38.642C131.781 36.2236 135.925 31.9986 138.194 26.7707C141.989 25.2471 145.398 22.9234 148.181 19.9635C148.052 28.463 141.933 35.7665 135.115 40.9832Z" fill="#551107"/>
<g style="mix-blend-mode:screen" opacity="0.28">
<path d="M123.665 9.79719C123.574 10.0389 123.484 10.2807 123.38 10.5097C122.04 13.601 119.923 16.3064 117.228 18.3719C114.532 20.4374 111.348 21.7951 107.972 22.3174C102.668 23.0936 97.2476 21.7321 91.9435 22.3174C90.6462 22.3781 89.3975 22.8215 88.36 23.5898C86.8852 24.8622 86.6394 27.2161 85.1128 28.4757C84.3356 28.9932 83.4369 29.3069 82.5018 29.3871C81.5668 29.4673 80.6264 29.3112 79.7699 28.9338C77.9975 28.3103 76.4192 27.267 74.5951 26.6944C73.7255 26.3416 72.7746 26.2287 71.8446 26.3677C70.9146 26.5067 70.0407 26.8924 69.3169 27.4833C67.2211 29.5827 68.6312 33.2344 67.5186 35.9701C66.5613 38.324 63.8834 39.5709 61.3219 39.9653C55.1639 40.9578 48.9413 38.1967 44.5039 33.7179C46.1857 15.5102 65.0736 8.6266 77.9975 8.27033C101.75 7.65959 109.15 13.6016 116.808 11.833C119.151 11.3569 121.446 10.6756 123.665 9.79719Z" fill="#661E08"/>
</g>
<g style="mix-blend-mode:multiply" opacity="0.12">
<path d="M136.331 96.3192C133.039 97.3579 129.489 97.2907 126.24 96.1284C140.949 94.856 142.592 81.1652 142.592 81.1652C143.796 82.9277 144.349 85.0431 144.158 87.1581C143.839 89.2464 142.939 91.2073 141.558 92.8241C140.177 94.4408 138.368 95.6504 136.331 96.3192Z" fill="#DD664A"/>
</g>
<path d="M63.8971 69.1412C63.7941 68.9214 63.6333 68.7325 63.4314 68.5941C63.1803 68.4629 62.9007 68.3931 62.6164 68.3905C60.844 68.3142 59.0199 69.4848 57.5322 70.3118C55.6533 71.2787 54.0417 72.6804 52.8361 74.3962C52.1504 75.4777 51.2966 77.4371 52.9396 78.137C54.7896 78.8877 56.9242 77.2845 58.3472 76.3429C60.3007 74.9433 64.6734 72.5258 64.0524 69.6629C64.0173 69.4846 63.9653 69.31 63.8971 69.1412Z" fill="#661E08"/>
<path d="M114.131 71.6986C113.238 69.7519 110.34 68.6449 108.413 68.1487C105.49 67.2555 102.332 67.4874 99.5767 68.7976C99.2004 68.964 98.8845 69.2391 98.6711 69.5865C98.565 69.8483 98.5366 70.1343 98.5893 70.4114C98.6419 70.6884 98.7735 70.9451 98.9686 71.1515C99.3677 71.5544 99.848 71.8708 100.379 72.0803C102.105 72.8285 103.881 73.4577 105.696 73.9634C107.362 74.5442 109.105 74.8828 110.871 74.9686C112.708 74.9813 115.14 73.798 114.131 71.6986Z" fill="#661E08"/>
<path d="M95.1119 112.16C94.3355 113.479 93.2628 114.606 91.9758 115.455C90.6888 116.304 89.2216 116.853 87.6861 117.059C86.0879 117.339 84.4463 117.266 82.8802 116.846C81.3141 116.426 79.8624 115.668 78.6303 114.629C76.773 113.043 75.2556 111.11 74.167 108.941C73.796 108.277 73.4718 107.588 73.1968 106.88C73.5331 106.88 88.2165 109.145 97.3111 102.859C97.3542 103.973 97.2979 105.089 97.143 106.193C96.8714 108.294 96.1812 110.322 95.1119 112.16Z" fill="#AA2626"/>
<path d="M97.143 106.142C94.0913 108.508 90.4329 109.997 86.5735 110.443C82.3673 110.871 78.1171 110.357 74.1412 108.941C73.7789 108.276 73.4634 107.587 73.1968 106.88C73.5331 106.88 88.2165 109.145 97.3112 102.859C97.3512 103.956 97.2949 105.054 97.143 106.142Z" fill="white"/>
<path d="M95.1129 112.16C94.3366 113.48 93.2639 114.607 91.9769 115.456C90.6899 116.305 89.2226 116.853 87.6872 117.059C86.0889 117.339 84.4474 117.266 82.8813 116.846C81.3151 116.426 79.8635 115.668 78.6313 114.629C79.8345 113.957 81.1661 113.538 82.5421 113.398C83.9182 113.258 85.3088 113.4 86.6263 113.815C86.6263 113.815 87.8165 111.359 95.1129 112.16Z" fill="#FF6551"/>
<path d="M82.294 120.049C83.1187 120.824 84.1192 121.394 85.2126 121.712C86.3059 122.031 87.4607 122.089 88.5813 121.881C89.7715 121.64 92.5788 120.418 92.2425 118.866C92.236 118.821 92.2123 118.78 92.1763 118.752C92.1402 118.723 92.0945 118.709 92.0484 118.713C91.4404 118.853 91.2851 119.235 90.7547 119.642C90.0089 120.244 89.1178 120.648 88.1673 120.813C86.2002 121.086 84.1999 120.632 82.5527 119.54C82.2164 119.324 81.9188 119.858 82.1905 120.1L82.294 120.049Z" fill="#DD664A"/>
<g style="mix-blend-mode:multiply" opacity="0.12">
<path d="M89.8749 93.291C89.499 92.7041 89.0018 92.2014 88.4157 91.8156C87.8295 91.4298 87.1675 91.1695 86.4725 91.0516C85.0802 90.8178 83.6512 90.9182 82.3068 91.3442C80.4568 91.8786 78.6457 92.8202 78.0765 94.7669C77.9315 95.1791 77.9315 95.6272 78.0765 96.0393C78.1663 96.3207 78.3631 96.5571 78.6258 96.6993C78.8885 96.8415 79.1968 96.8786 79.4866 96.8028C79.7688 96.672 80.0268 96.4957 80.2498 96.2811C81.5632 95.3861 83.1669 95.0008 84.7519 95.1996C86.3244 95.4001 87.9198 95.3442 89.4739 95.0341C89.6131 94.9983 89.7446 94.938 89.862 94.856C90.3018 94.4743 90.1595 93.7745 89.8749 93.291Z" fill="#DD664A"/>
</g>
<path d="M89.5248 97.0957C88.8132 95.4797 85.4108 96.0014 84.0007 96.2432C83.0088 96.3189 82.044 96.5981 81.1683 97.0627C80.2927 97.5272 79.5256 98.1669 78.9165 98.9406C78.9165 98.9406 78.9165 99.106 79.0329 99.0933C80.857 98.7879 82.513 97.9354 84.3888 97.7319C85.419 97.6278 86.4585 97.6578 87.4807 97.8209C88.244 97.9609 88.6709 98.1899 89.3178 97.681C89.4147 97.621 89.488 97.5304 89.5256 97.424C89.5632 97.3176 89.5629 97.2019 89.5248 97.0957Z" fill="#DD664A"/>
<path d="M66.0113 98.6819C70.5173 97.6986 73.3596 93.3088 72.3598 88.877C71.3601 84.4452 66.8967 81.6497 62.3907 82.633C57.8848 83.6163 55.0424 88.0061 56.0422 92.4379C57.042 96.8697 61.5053 99.6652 66.0113 98.6819Z" fill="white"/>
<path d="M64.8683 98.5104C68.321 97.7569 70.4989 94.3932 69.7329 90.9974C68.9668 87.6015 65.5467 85.4594 62.094 86.2129C58.6413 86.9663 56.4633 90.33 57.2294 93.7259C57.9955 97.1218 61.4155 99.2638 64.8683 98.5104Z" fill="#191818"/>
<path d="M61.3871 92.7694C62.3517 92.7694 63.1336 92.0004 63.1336 91.0517C63.1336 90.103 62.3517 89.334 61.3871 89.334C60.4226 89.334 59.6406 90.103 59.6406 91.0517C59.6406 92.0004 60.4226 92.7694 61.3871 92.7694Z" fill="white"/>
<path d="M105.682 94.4018C110.195 93.417 113.042 89.0204 112.04 84.5818C111.039 80.1431 106.569 77.3433 102.056 78.3281C97.5428 79.313 94.696 83.7095 95.6973 88.1482C96.6987 92.5868 101.169 95.3867 105.682 94.4018Z" fill="white"/>
<path d="M109.27 87.8392C109.319 84.2838 106.428 81.3623 102.814 81.3139C99.1986 81.2655 96.2282 84.1085 96.179 87.6639C96.1297 91.2193 99.0203 94.1408 102.635 94.1892C106.25 94.2376 109.221 91.3946 109.27 87.8392Z" fill="#191818"/>
<path d="M106.083 85.7203C106.164 86.079 106.135 86.4533 105.999 86.7958C105.864 87.1382 105.628 87.4335 105.322 87.6441C105.015 87.8548 104.653 87.9714 104.279 87.9792C103.906 87.987 103.538 87.8857 103.223 87.6881C102.908 87.4905 102.66 87.2054 102.51 86.8689C102.359 86.5325 102.314 86.1597 102.379 85.7979C102.444 85.436 102.617 85.1013 102.876 84.8361C103.134 84.5709 103.467 84.3871 103.832 84.3079C104.321 84.2018 104.833 84.291 105.255 84.5558C105.677 84.8207 105.975 85.2395 106.083 85.7203Z" fill="white"/>
<path d="M80.3415 227.463C80.3415 227.463 64.9724 232.553 58.8533 233.545C52.7341 234.538 43.9888 238.724 48.1803 243.025C52.3719 247.325 57.4561 248.852 65.1147 246.702C72.7734 244.551 86.3054 233.494 86.3054 233.494L80.3415 227.463Z" fill="#FF6551"/>
<path d="M80.3398 227.463C80.3398 227.463 72.2931 230.148 65.5271 231.993C64.9579 232.146 64.0394 235.887 63.8065 236.497C63.4526 237.72 62.8199 238.847 61.9565 239.793C60.9323 240.838 59.6773 241.637 58.2888 242.129C56.9002 242.621 55.4152 242.793 53.9486 242.63C52.6352 242.408 51.4191 241.805 50.4556 240.9C50.0934 240.531 48.2952 238.088 48.9161 237.566C47.0015 239.169 46.2641 241.065 48.1399 242.974C52.3185 247.236 57.4157 248.801 65.0743 246.651C72.733 244.501 86.2649 233.444 86.2649 233.444L80.3398 227.463Z" fill="#E1574C"/>
<path d="M75.3979 227.387C75.3979 227.387 110.185 202.486 129.06 195.819C147.935 189.152 151.946 202.486 146.991 212.233C142.036 221.979 123.174 228.379 116.434 229.893C109.694 231.408 87.0541 238.126 87.0541 238.126C87.0541 238.126 78.6192 237.426 75.3979 227.387Z" fill="#243976"/>
<path d="M146.033 196.825C151.363 225.975 102.992 222.412 78.2827 232.935C80.388 235.713 83.5111 237.575 86.9892 238.126C86.9892 238.126 109.564 231.421 116.369 229.894C123.174 228.367 142.049 221.992 146.991 212.233C149.707 206.877 149.72 200.438 146.033 196.825Z" fill="#12296B"/>
<path d="M78.0239 227.463C78.9553 228.074 90.3916 229.601 100.909 232.642C111.427 235.683 112.966 239.004 110.806 242.376C109.609 244.375 107.886 246.021 105.82 247.141C103.753 248.26 101.418 248.812 99.0593 248.738C93.4835 248.432 78.1791 240.823 74.0781 236.268L78.0239 227.463Z" fill="#FF6551"/>
<path d="M104.441 233.787C106.407 237.426 106.886 241.256 102.216 242.796C91.7111 245.888 82.914 239.767 75.126 233.889L74.0781 236.243C78.1791 240.798 93.4835 248.407 99.0593 248.712C101.418 248.786 103.753 248.235 105.82 247.115C107.886 245.996 109.609 244.35 110.806 242.35C112.695 239.449 111.75 236.51 104.441 233.787Z" fill="#E1574C"/>
<path d="M25.759 194.012C25.759 194.012 16.1727 196.43 14.3098 201.469C12.4469 206.507 15.6035 213.505 24.517 220.796C33.4306 228.087 68.5025 239.398 76.4716 240.887C78.7521 239.168 80.5076 236.865 81.5458 234.23C82.5841 231.596 82.865 228.731 82.3579 225.949C82.3579 225.949 61.012 212.564 51.1153 205.591C41.2186 198.619 32.719 193.122 25.759 194.012Z" fill="#243976"/>
<path d="M42.6917 216.075C50.2856 215.006 56.9222 213.963 64.2575 214.396C59.4061 211.227 54.5548 208.034 51.1006 205.565C41.2039 198.567 32.7044 193.121 25.7443 194.012C25.7443 194.012 16.1581 196.43 14.2952 201.468C12.4323 206.507 15.5889 213.505 24.5024 220.796C33.4159 228.086 68.4878 239.398 76.457 240.887C78.3022 239.493 79.8055 237.71 80.8557 235.668C81.9059 233.627 82.4762 231.379 82.5244 229.092C68.8759 233.036 47.3748 228.697 42.6917 216.075Z" fill="#12296B"/>
<path d="M112.435 194.967H34.8135L21.2168 207.538L95.4099 210.643L112.435 194.967Z" fill="#49A4F7"/>
<path d="M83.6384 192.282C82.6794 192.797 81.8067 193.453 81.051 194.229C80.8967 194.363 80.7997 194.549 80.7793 194.751C80.7793 195.26 81.5167 195.374 82.073 195.298L86.1481 194.674C85.2044 194.821 84.3027 195.162 83.5023 195.675C82.7019 196.188 82.0209 196.861 81.5038 197.652C82.4976 197.946 83.5477 198.007 84.5698 197.83C83.9651 198.301 83.3251 198.726 82.6551 199.102C88.3086 202.843 99.7448 198.72 104.725 195.285C106.072 194.506 107.107 193.298 107.662 191.862C109.551 185.297 95.6438 188.045 92.7847 188.834C89.6162 189.649 86.5488 190.805 83.6384 192.282Z" fill="#FFBF94"/>
<path d="M106.265 136.03C106.265 136.03 101.647 141.12 106.265 151.961C110.884 162.801 114.674 164.786 114.674 172.319C114.674 179.851 100.586 186.658 100.586 186.658C100.586 186.658 106.136 192.168 102.915 196.481C102.915 196.481 122.32 194.318 128.685 181.06C137.961 161.974 118.801 136.45 118.801 136.45C118.801 136.45 112.553 128.689 106.265 136.03Z" fill="#FF6551"/>
<path d="M106.265 136.03C106.009 136.348 105.784 136.689 105.592 137.048C108.18 136.565 112.061 136.959 115.942 141.451C122.721 149.314 129.008 166.822 123.924 176.708C119.797 184.737 107.947 190.005 103.665 191.684C103.949 192.491 104.032 193.354 103.909 194.199C103.785 195.045 103.457 195.849 102.953 196.545C102.953 196.545 122.358 194.382 128.723 181.123C137.999 162.038 118.84 136.514 118.84 136.514C118.84 136.514 112.552 128.689 106.265 136.03Z" fill="#E1574C"/>
<path d="M0.00160682 158.17L16.9101 212.628C17.2377 213.931 18.0012 215.089 19.078 215.915C20.1548 216.741 21.4826 217.188 22.8482 217.183L92.8756 216.674L112.747 203.352L112.397 194.967L94.5703 207.538L83.5351 153.716C83.2509 152.345 82.4867 151.116 81.3757 150.241C80.2648 149.367 78.8773 148.904 77.4548 148.932L7.59556 150.446C3.66275 150.535 -0.0889514 155.485 0.00160682 158.17Z" fill="#3E8CE1"/>
<path d="M0.183394 160.193L12.3441 213.633C12.6628 214.939 13.4221 216.1 14.4981 216.928C15.5742 217.755 16.9035 218.199 18.2692 218.188L89.1245 217.717C89.618 217.713 90.1043 217.601 90.5481 217.389C90.992 217.176 91.3823 216.87 91.6907 216.491C91.9991 216.112 92.2179 215.67 92.3312 215.198C92.4445 214.726 92.4495 214.234 92.3458 213.76L80.3275 156.134C80.0432 154.763 79.2791 153.533 78.1681 152.659C77.0571 151.785 75.6696 151.322 74.2471 151.35L5.92737 152.826C5.0218 152.846 4.13238 153.066 3.32465 153.469C2.51691 153.872 1.81146 154.448 1.26026 155.155C0.709059 155.862 0.326167 156.682 0.139795 157.554C-0.0465769 158.426 -0.031678 159.327 0.183394 160.193Z" fill="#49A4F7"/>
<path d="M74.2471 151.311L5.92737 152.825C5.0218 152.846 4.13238 153.065 3.32465 153.469C2.51691 153.872 1.81146 154.448 1.26026 155.155C0.709059 155.862 0.326167 156.682 0.139795 157.553C-0.0465769 158.425 -0.031678 159.327 0.183394 160.193L4.98298 181.327L78.3222 152.762C77.1893 151.806 75.7399 151.29 74.2471 151.311Z" fill="#49B3F7"/>
<path d="M83.7432 172.522L10.0029 203.288L12.3574 213.62C12.6762 214.926 13.4355 216.088 14.5115 216.915C15.5876 217.742 16.9168 218.186 18.2825 218.175H23.6255L86.7575 186.938L83.7432 172.522Z" fill="#49B3F7"/>
<path d="M44.4773 193.949C50.5933 193.949 55.5513 189.073 55.5513 183.058C55.5513 177.042 50.5933 172.166 44.4773 172.166C38.3613 172.166 33.4033 177.042 33.4033 183.058C33.4033 189.073 38.3613 193.949 44.4773 193.949Z" fill="#6CBFF3"/>
</svg>
