<svg width="150" height="150" viewBox="0 0 150 150" fill="none" xmlns="http://www.w3.org/2000/svg">
<g clip-path="url(#clip0_320_75413)">
<path d="M136.195 36.3928C135.713 32.1445 135.06 27.8484 134.258 23.8002C133.852 21.7576 133.527 19.778 132.936 17.8998C132.366 16.086 131.866 14.2063 131.182 12.6577C131.147 12.6296 131.115 12.568 131.087 12.5285C129.811 10.7144 128.385 7.50319 125.099 7.68541C122.723 7.81666 120.984 10.5492 119.903 12.6164C119.209 13.9429 118.69 15.3231 118.238 16.7279C118.331 16.7601 118.442 16.7742 118.581 16.7557C120.538 19.5047 121.614 23.7975 122.457 28.0274C124.043 36.0005 124.547 44.371 125.099 53.2116C125.897 66.0627 127.173 80.5081 125.54 93.2759C124.115 104.408 123.626 109.806 112.247 116.396C121.553 117.594 131.699 113.164 134.168 103.492C135.165 99.5918 135.908 95.3346 136.371 91.1616C137.345 82.357 137.868 73.3716 137.868 63.6876C137.866 54.2159 137.179 45.0764 136.195 36.3928Z" fill="#4D3D87"/>
<path d="M125.099 7.68516C128.385 7.50293 129.811 10.7142 131.086 12.5282C131.115 12.5681 131.147 12.6293 131.182 12.6574C131.209 12.6812 131.237 12.6806 131.262 12.6158C129.775 9.14853 128.735 6.71367 126.683 4.42617C125.163 2.73252 123.099 1.33008 120.759 0.583007C120.272 0.42744 118.893 1.30283 118.384 1.20732C117.735 1.08574 117.95 0.0128894 117.275 0.00146358C115.89 -0.0222669 114.462 0.200389 113.034 0.727733C109.208 2.14072 105.695 5.80518 103.963 9.97441C103.089 12.0814 102.376 14.4044 101.762 16.9312C101.128 19.5398 100.439 22.3245 100.705 25.0324C100.989 27.9308 102.627 29.8213 104.403 31.4613C105.556 32.5248 106.92 33.83 108.895 33.8394C112.501 33.8558 113.942 30.4102 114.883 27.675C115.737 25.1956 116.512 22.6274 117.261 20.0136C117.577 18.9114 117.888 17.8128 118.238 16.7276C118.69 15.3229 119.209 13.9424 119.904 12.6161C120.984 10.5489 122.722 7.81641 125.099 7.68516Z" fill="#8F7ECE"/>
<path d="M111.184 13.8492C112.307 10.8993 113.754 8.11899 115.674 5.57075C117.047 3.75024 118.846 2.37534 120.517 0.815576C120.582 0.755518 120.663 0.675537 120.75 0.580908C119.634 0.22583 118.455 0.020752 117.246 0.00317383C115.873 0.858057 114.703 1.94146 113.65 3.01724C108.663 8.10991 106.201 14.1421 104.491 22.2149C103.937 24.8285 103.487 26.966 103.699 30.0524C103.715 30.3035 103.745 30.5838 103.787 30.8742C103.99 31.0734 104.195 31.2694 104.402 31.4613C104.881 31.9025 105.397 32.3847 105.976 32.7993C106.119 32.4164 106.222 31.9371 106.341 31.4613C107.85 25.3769 109.203 19.0502 111.184 13.8492Z" fill="#EFAD1B"/>
<path fill-rule="evenodd" clip-rule="evenodd" d="M125.444 12.1618C126.036 11.6324 126.937 12.412 127.382 12.954C127.913 13.6029 128.462 14.7765 128.79 15.772C129.179 16.9565 129.537 18.2637 129.406 19.2947C129.325 19.9439 128.886 20.4141 128.526 20.439C127.452 20.5143 126.615 17.5082 126.324 16.7406C125.753 15.2271 125.094 13.733 125.444 12.1618Z" fill="white"/>
<path fill-rule="evenodd" clip-rule="evenodd" d="M129.669 24.4024C131.15 23.723 131.913 28.6118 130.55 28.5409C129.793 28.502 128.675 24.8586 129.669 24.4024Z" fill="white"/>
<path d="M20.5035 36.3931C20.986 32.1447 21.6379 27.8486 22.4418 23.8004C22.8455 21.7578 23.1721 19.7782 23.7619 17.9C24.332 16.0862 24.8333 14.2066 25.5174 12.6579C25.5502 12.6298 25.5842 12.5683 25.6126 12.5287C26.8861 10.7147 28.3143 7.50343 31.6003 7.68566C33.9765 7.81691 35.7133 10.5494 36.7952 12.6166C37.4895 13.9432 38.009 15.3234 38.4613 16.7281C38.3661 16.7604 38.2553 16.7744 38.1168 16.756C36.1597 19.5049 35.084 23.7978 34.2411 28.0276C32.6535 36.0008 32.1493 44.3712 31.6003 53.2118C30.8002 66.0629 29.5263 80.5083 31.1596 93.2762C32.5823 104.409 33.0724 109.807 44.4499 116.396C35.1449 117.595 25.0006 113.164 22.5291 103.492C21.5333 99.592 20.7894 95.3349 20.3286 91.1618C19.3548 82.3572 18.8309 73.3719 18.8309 63.6878C18.8306 54.2161 19.5177 45.0767 20.5035 36.3931Z" fill="#4D3D87"/>
<path d="M31.6001 7.68525C28.3142 7.50302 26.886 10.7142 25.6124 12.5283C25.584 12.5682 25.5503 12.6294 25.5172 12.6575C25.4879 12.6812 25.4601 12.6807 25.4363 12.6159C26.9229 9.14862 27.9626 6.71376 30.014 4.42626C31.5289 2.73847 33.5841 1.33983 35.9132 0.591006C36.4543 0.416983 38.0094 0.933486 38.5766 0.83417C39.1731 0.72958 38.7831 0.0135646 39.4013 0.00184582C40.7923 -0.0245214 42.2278 0.197549 43.6637 0.727822C47.4907 2.14081 51.0037 5.80526 52.7343 9.9745C53.6094 12.0815 54.3219 14.4045 54.9368 16.9313C55.5691 19.5399 56.2584 22.3246 55.9918 25.0325C55.7085 27.9309 54.0708 29.8214 52.2937 31.4614C51.1429 32.5249 49.7785 33.8301 47.8036 33.8394C44.1969 33.8559 42.7561 30.4102 41.8145 27.6751C40.9619 25.1957 40.1873 22.6275 39.4379 20.0137C39.1209 18.9115 38.8092 17.8129 38.4609 16.7277C38.0085 15.3229 37.4891 13.9425 36.7947 12.6162C35.7134 10.549 33.9767 7.81649 31.6001 7.68525Z" fill="#8F7ECE"/>
<path d="M45.5143 13.8494C44.3913 10.8995 42.9423 8.11924 41.0228 5.571C39.6496 3.75049 37.8508 2.37588 36.1785 0.81582C36.1155 0.755762 36.0356 0.675781 35.9485 0.581152C37.0627 0.226074 38.241 0.0209961 39.451 0.00341797C40.8227 0.858301 41.9954 1.9417 43.0472 3.01748C48.0332 8.11016 50.4974 14.1424 52.2054 22.2151C52.7597 24.8287 53.2094 26.9662 52.9996 30.0526C52.9818 30.3037 52.9516 30.5841 52.9091 30.8744C52.7067 31.0736 52.503 31.2696 52.2939 31.4615C51.8152 31.9027 51.3013 32.385 50.7206 32.7995C50.5797 32.4166 50.4748 31.9373 50.3565 31.4615C48.8462 25.3772 47.4939 19.0505 45.5143 13.8494Z" fill="#EFAD1B"/>
<path fill-rule="evenodd" clip-rule="evenodd" d="M31.252 12.1618C30.6593 11.6324 29.7588 12.412 29.3137 12.954C28.7832 13.6029 28.2333 14.7765 27.9051 15.772C27.5155 16.9565 27.1575 18.2637 27.2893 19.2947C27.3716 19.9439 27.8108 20.4141 28.1703 20.439C29.2446 20.5143 30.0807 17.5082 30.3708 16.7406C30.9432 15.2271 31.6018 13.733 31.252 12.1618Z" fill="white"/>
<path fill-rule="evenodd" clip-rule="evenodd" d="M27.0258 24.4024C25.5446 23.723 24.7835 28.6118 26.1449 28.5409C26.9013 28.502 28.0199 24.8586 27.0258 24.4024Z" fill="white"/>
<path fill-rule="evenodd" clip-rule="evenodd" d="M97.5117 25.2272C97.3889 25.5029 93.5402 23.9592 92.414 23.9546C92.4266 22.2791 92.5069 17.3965 92.4005 15.8505C92.3062 14.4671 92.1817 12.9278 91.4633 12.3085C90.6205 11.5819 87.7883 11.4805 85.8374 11.3704C81.3978 11.1193 77.7363 11.0584 73.0245 11.0584C70.7912 11.0584 68.4243 11.0962 67.2937 11.7873C65.4814 12.8965 64.8963 20.434 64.0593 22.5972C62.2552 22.5972 60.5006 22.5457 58.8509 22.3889C58.7841 18.5929 59.9314 11.9027 61.2515 9.70368C62.9103 6.9445 65.8201 5.90007 70.183 5.58366C70.4305 5.56579 70.6831 7.01481 70.94 7.00134C72.8408 6.90173 75.5252 7.03151 78.128 7.20964C82.0435 7.47682 86.4999 5.76764 90.1775 6.37731C92.5971 6.77839 94.6792 7.54919 96.0483 9.07848C98.1665 11.4466 98.0862 20.9841 97.5117 25.2272Z" fill="#4D3D87"/>
<path fill-rule="evenodd" clip-rule="evenodd" d="M71.148 8.66272C71.8754 9.21789 73.7853 9.25774 75.4198 9.18332C78.7778 9.03039 81.6442 9.07873 84.9002 9.07873C86.5731 9.07873 88.5421 9.19094 89.2749 8.66242C89.8426 8.25227 90.0744 7.28576 90.1086 6.3676C86.4445 5.77141 82.0189 6.01047 78.1274 5.74504C75.5247 5.56721 72.8402 5.43713 70.9394 5.53674C70.6749 5.55051 70.415 5.5678 70.1601 5.58655C70.0781 6.61633 70.4384 8.11955 71.148 8.66272Z" fill="#8F7ECE"/>
<path fill-rule="evenodd" clip-rule="evenodd" d="M78.236 15.022C86.0802 14.6485 93.4097 15.7474 99.3831 17.5248C100.875 17.9684 102.298 18.5467 103.679 19.1514C105.045 19.7493 106.392 20.376 107.642 21.0703C110.183 22.4801 112.252 24.4149 113.941 26.5764C114.819 27.7014 115.632 28.8361 116.318 30.1216C118.344 33.9258 119.722 38.514 120.531 43.5941C121.597 50.2831 121.846 58.4315 121.533 65.862C121.377 69.5496 120.98 73.1742 120.657 76.7906C120.337 80.3622 119.958 83.9614 119.654 87.5942C119.041 94.9708 118.907 102.631 117.527 109.076C117.174 110.727 116.713 112.206 116.069 113.538C115.418 114.882 114.715 116.1 113.732 117.084C112.716 118.102 111.516 118.789 110.061 119.337C109.34 119.609 108.64 119.901 107.85 120.088C107.068 120.273 106.247 120.392 105.348 120.505C100.233 121.148 94.4196 121.423 88.5382 121.423C86.6225 121.423 84.7173 121.589 82.8242 121.589C80.907 121.589 78.9426 121.631 76.9428 121.547C75.0377 121.467 73.0792 121.423 71.1441 121.423C67.279 121.423 63.4302 121.223 59.8417 120.922C57.9582 120.764 56.1684 120.611 54.5014 120.337C52.8353 120.064 51.2987 119.566 49.9979 118.962C47.2589 117.689 45.7214 115.382 44.5745 112.579C43.4222 109.764 42.9772 106.345 42.5732 102.777C42.3725 101.016 42.1446 99.2136 42.0306 97.3966C41.9123 95.5342 41.8455 93.6671 41.7377 91.8068C41.5308 88.2293 41.092 84.5221 40.7788 80.9619C40.1269 73.5434 39.3611 66.6821 39.3599 58.8551C39.3599 55.0313 39.6028 51.2394 39.9863 47.6822C40.3713 44.1199 40.9551 40.7344 41.8226 37.7124C42.7021 34.6433 43.7129 31.7593 45.2 29.2869C47.4169 25.602 50.3372 22.5785 54.2509 20.6107C55.5315 19.9667 56.8546 19.2935 58.2555 18.7339C61.0657 17.6115 64.1427 16.7953 67.4744 16.1476C70.7867 15.5036 74.3131 15.0214 78.1534 15.0214C78.1797 15.022 78.2076 15.0229 78.236 15.022Z" fill="#FF5000"/>
<path fill-rule="evenodd" clip-rule="evenodd" d="M78.236 15.022C86.0802 14.6485 93.4097 15.7474 99.3831 17.5248C100.875 17.9684 102.298 18.5467 103.679 19.1514C105.045 19.7493 106.392 20.376 107.642 21.0703C110.183 22.4801 112.252 24.4149 113.941 26.5764C114.819 27.7014 115.632 28.8361 116.318 30.1216C118.344 33.9258 119.722 38.514 120.531 43.5941C121.597 50.2831 121.846 58.4315 121.533 65.862C121.377 69.5496 120.98 73.1742 120.657 76.7906C120.337 80.3622 119.958 83.9614 119.654 87.5942C119.041 94.9708 118.907 102.631 117.527 109.076C117.174 110.727 116.713 112.206 116.069 113.538C115.418 114.882 114.715 116.1 113.732 117.084C112.716 118.102 111.516 118.789 110.061 119.337C109.34 119.609 108.64 119.901 107.85 120.088C107.068 120.273 106.247 120.392 105.348 120.505C100.233 121.148 94.4196 121.423 88.5382 121.423C86.6225 121.423 84.7173 121.589 82.8242 121.589C80.907 121.589 78.9426 121.631 76.9428 121.547C75.0377 121.467 73.0792 121.423 71.1441 121.423C67.279 121.423 63.4302 121.223 59.8417 120.922C57.9582 120.764 56.1684 120.611 54.5014 120.337C52.8353 120.064 51.2987 119.566 49.9979 118.962C47.2589 117.689 45.7214 115.382 44.5745 112.579C43.4222 109.764 42.9772 106.345 42.5732 102.777C42.3725 101.016 42.1446 99.2136 42.0306 97.3966C41.9123 95.5342 41.8455 93.6671 41.7377 91.8068C41.5308 88.2293 41.092 84.5221 40.7788 80.9619C40.1269 73.5434 39.3611 66.6821 39.3599 58.8551C39.3599 55.0313 39.6028 51.2394 39.9863 47.6822C40.3713 44.1199 40.9551 40.7344 41.8226 37.7124C42.7021 34.6433 43.7129 31.7593 45.2 29.2869C47.4169 25.602 50.3372 22.5785 54.2509 20.6107C55.5315 19.9667 56.8546 19.2935 58.2555 18.7339C61.0657 17.6115 64.1427 16.7953 67.4744 16.1476C70.7867 15.5036 74.3131 15.0214 78.1534 15.0214C78.1797 15.022 78.2076 15.0229 78.236 15.022Z" fill="#FF5000"/>
<path d="M112.266 104.263C111.994 107.489 111.626 110.606 111.011 113.482C110.657 115.135 110.198 116.612 109.552 117.945C109.215 118.641 108.862 119.304 108.466 119.917C109.014 119.745 109.533 119.535 110.062 119.337C111.517 118.789 112.716 118.102 113.732 117.084C114.715 116.1 115.418 114.882 116.069 113.538C116.713 112.206 117.175 110.727 117.527 109.076C117.94 107.151 118.238 105.117 118.475 103.015C116.476 103.015 113.644 103.599 112.266 104.263Z" fill="#EFAD1B"/>
<path opacity="0.21" d="M113.732 117.085C114.715 116.1 115.419 114.883 116.069 113.538C116.713 112.206 117.175 110.727 117.528 109.076C118.907 102.631 119.041 94.971 119.655 87.5943C119.958 83.9615 120.337 80.3621 120.657 76.7908C120.981 73.1744 121.377 69.5498 121.534 65.8622C121.847 58.4316 121.597 50.2833 120.531 43.5942C119.723 38.5142 118.345 33.9257 116.318 30.1218C115.633 28.8362 114.82 27.7015 113.942 26.5765C112.252 24.415 110.183 22.4803 107.643 21.0705C106.392 20.3762 105.046 19.7492 103.679 19.1516C102.298 18.5469 100.876 17.9685 99.3836 17.525C93.4102 15.7475 86.0807 14.6489 78.2365 15.0222C78.2081 15.023 78.1803 15.0222 78.1542 15.0222C74.3137 15.0222 70.7872 15.5044 67.4752 16.1483C64.1435 16.7961 61.0665 17.6123 58.2563 18.7347C56.8554 19.2942 55.5323 19.9675 54.2517 20.6114C52.2642 21.6113 50.5334 22.8849 49.0202 24.3778C49.8991 23.9436 50.8012 23.5165 51.7398 23.1415C54.5494 22.0191 57.6265 21.2029 60.9581 20.5552C64.2689 19.9112 67.796 19.4287 71.6356 19.4287C71.664 19.4287 71.6919 19.4302 71.7203 19.4287C79.5645 19.0552 86.894 20.1547 92.868 21.9315C94.3612 22.3754 95.7815 22.9537 97.1632 23.5584C98.529 24.1566 99.8755 24.7827 101.126 25.477C103.666 26.8868 105.736 28.8216 107.424 30.9828C108.304 32.1078 109.117 33.2428 109.802 34.528C111.829 38.3325 113.207 42.921 114.015 48.0011C115.081 54.6878 115.329 62.8367 115.016 70.2696C114.86 73.9572 114.464 77.5804 114.14 81.1968C113.82 84.7683 113.441 88.3689 113.139 92.0003C112.525 99.3784 112.39 107.037 111.012 113.482C110.658 115.135 110.199 116.612 109.553 117.944C109.216 118.641 108.863 119.304 108.467 119.916C109.015 119.745 109.534 119.535 110.063 119.337C111.517 118.789 112.716 118.102 113.732 117.085Z" fill="black"/>
<path fill-rule="evenodd" clip-rule="evenodd" d="M71.72 19.4285C79.5642 19.0549 86.8937 20.1544 92.8676 21.9313C94.3609 22.3751 95.7812 22.9535 97.1629 23.5582C98.5287 24.1564 99.8752 24.7825 101.126 25.4768C103.665 26.8866 105.736 28.8213 107.424 30.9826C108.304 32.1076 109.117 33.2425 109.802 34.5278C111.829 38.3323 113.206 42.9208 114.015 48.0008C115.08 54.6875 115.328 62.8365 115.015 70.2694C114.86 73.957 114.464 77.5801 114.14 81.1965C113.82 84.7681 113.441 88.3687 113.138 92.0001C112.799 96.0861 112.606 100.258 112.267 104.262C111.45 107.178 110.919 110.081 110.303 112.957C109.95 114.609 109.112 115.814 108.466 117.147C107.814 118.491 107.427 119.487 106.444 120.47C105.428 121.488 104.648 122.134 103.196 122.683C102.474 122.956 102.179 123.242 101.39 123.428C100.608 123.615 99.7134 124.166 98.8152 124.278C97.302 124.468 95.7449 125.259 94.1256 125.387C90.2714 125.692 86.163 125.828 82.0213 125.829C80.1065 125.829 78.1996 125.994 76.3064 125.996C74.3898 125.996 72.4263 126.039 70.4265 125.954C68.5205 125.873 66.5623 125.829 64.6278 125.829C60.9628 125.829 57.3124 125.65 53.8832 125.375C53.696 125.36 52.7186 124.483 52.5326 124.467C50.6505 124.309 49.7968 124.087 48.1313 123.813C46.462 123.541 45.6809 123.298 44.3804 122.693C41.6421 121.42 40.5071 119.389 39.3601 116.587C38.207 113.77 37.15 110.876 36.7454 107.309C36.6361 106.347 35.8287 105.245 35.7258 104.262C35.6409 103.447 35.5659 102.626 35.5143 101.802C35.396 99.9413 35.3292 98.0727 35.2213 96.2138C35.0145 92.6349 34.5756 88.9294 34.2625 85.3675C33.6091 77.949 32.8448 71.0891 32.8433 63.2616C32.8433 59.4348 33.0853 55.6444 33.4697 52.0863C33.8526 48.5261 34.4377 45.1412 35.3037 42.1186C36.1846 39.0492 37.1963 36.1661 38.6825 33.6934C40.9003 30.0087 43.8206 26.985 47.7343 25.0171C49.0146 24.3741 50.3371 23.6999 51.7389 23.1404C54.5485 22.018 57.6255 21.2018 60.9572 20.554C64.268 19.9101 67.7951 19.4276 71.6347 19.4276C71.6637 19.4285 71.6913 19.4299 71.72 19.4285Z" fill="#FF5000"/>
<path d="M43.813 106.797C41.8073 105.544 39.0511 104.289 35.7267 104.263C35.8287 105.247 35.9456 106.223 36.0549 107.184C36.4595 110.751 36.9045 114.17 38.0576 116.987C39.2046 119.788 40.7421 122.095 43.4805 123.368C44.7809 123.973 46.317 124.473 47.986 124.744C49.6515 125.018 51.4413 125.171 53.3233 125.329C53.5076 125.344 53.6971 125.357 53.8829 125.372C53.3324 120.184 52.0003 116.266 49.5698 112.677C47.9816 110.331 46.2771 108.334 43.813 106.797Z" fill="#EFAD1B"/>
<path d="M101.333 124.494C102.122 124.308 102.822 124.017 103.544 123.744C104.997 123.195 106.198 122.508 107.214 121.491C108.197 120.508 108.899 119.289 109.551 117.945C110.196 116.612 110.656 115.135 111.009 113.482C111.625 110.606 111.992 107.489 112.265 104.264C108.948 104.293 106.197 105.547 104.194 106.797C101.73 108.334 100.028 110.331 98.4387 112.677C96.0062 116.269 94.6738 120.19 94.1239 125.386C95.7423 125.258 97.317 125.102 98.8304 124.911C99.7287 124.799 100.55 124.681 101.333 124.494Z" fill="#EFAD1B"/>
<path fill-rule="evenodd" clip-rule="evenodd" d="M52.0627 28.1293C50.493 27.1517 54.5606 24.6205 54.7396 26.4325C54.8339 27.3776 52.9581 28.0619 52.0627 28.1293Z" fill="white"/>
<path fill-rule="evenodd" clip-rule="evenodd" d="M48.8384 28.0522C49.2243 27.9863 50.0507 28.0598 50.1225 28.8438C50.2212 29.868 48.5446 31.075 47.9724 31.6791C47.2749 32.4148 46.2934 34.1134 45.1845 33.8398C43.6031 33.4498 45.464 31.1629 46.1367 30.4033C46.4956 29.9998 46.8843 29.6386 47.2034 29.3117C47.7521 28.753 48.0952 28.1793 48.8384 28.0522Z" fill="white"/>
<path fill-rule="evenodd" clip-rule="evenodd" d="M106.345 44.7098C105.496 44.0099 104.89 42.258 104.399 40.5011C104.187 39.7472 103.868 38.5244 104.52 38.261C105.302 37.9426 105.885 39.275 106.092 39.7496C106.75 41.2616 107.236 43.2177 107.192 44.3342C107.072 44.5654 106.645 44.738 106.345 44.7098Z" fill="white"/>
<path fill-rule="evenodd" clip-rule="evenodd" d="M102.439 38.992C100.952 39.9588 99.4147 36.399 100.822 35.9692C101.434 35.7834 102.82 37.2275 102.893 38.1831C102.917 38.5268 102.696 38.8233 102.439 38.992Z" fill="white"/>
<path fill-rule="evenodd" clip-rule="evenodd" d="M100.412 31.7108C99.9222 32.1069 99.1177 31.6745 98.5295 30.9781C98.0551 30.4179 97.4048 29.1321 98.187 28.8183C98.5324 28.6786 99.2223 28.9399 99.7265 29.5053C100.318 30.1686 101.039 31.1993 100.412 31.7108Z" fill="white"/>
<path d="M116.479 50.8233C115.841 51.1942 114.636 51.8648 114.266 51.5261C114.056 51.3328 114.305 50.8473 114.542 50.4442C114.826 49.9655 115.262 49.4821 115.724 48.9706C116.539 48.0641 117.385 47.1272 117.602 45.9785C117.713 45.3917 117.517 45.0419 117.336 44.852C116.774 44.2675 115.653 44.434 114.464 44.6097C113.777 44.7117 112.495 44.9015 112.307 44.6232C112.286 44.5913 112.105 44.2573 112.897 42.8959C112.965 42.779 113.093 42.5926 113.24 42.3785C114.114 41.1047 114.945 39.7787 114.659 38.7987C114.547 38.4181 114.282 38.131 113.89 37.964C113.379 37.7461 112.664 37.9072 111.833 38.0929C111.165 38.2426 110.25 38.4477 109.963 38.2459C109.942 38.23 109.889 38.194 109.872 38.044C109.832 37.7241 110.185 37.1027 110.42 36.6911C110.51 36.5323 110.593 36.3849 110.656 36.2595C110.724 36.1221 110.797 35.983 110.866 35.8441C111.227 35.1395 111.599 34.4097 111.814 33.617C112.137 32.4181 111.957 31.6007 111.283 31.1903C110.517 30.7248 109.508 31.1581 108.77 31.4748C108.615 31.5416 108.471 31.6037 108.348 31.6476C108.271 31.6758 108.178 31.7133 108.074 31.7549C107.45 32.0077 107.079 32.1014 106.967 32.0323C106.88 31.7926 107.257 30.8689 107.381 30.5654C107.448 30.4025 107.505 30.2616 107.541 30.1591C107.586 30.0208 107.659 29.8506 107.737 29.6628C108.031 28.962 108.396 28.0883 108.216 27.4271C108.105 27.0252 107.875 26.8257 107.7 26.7281C107.225 26.4615 106.643 26.6297 106.178 26.7647L106.017 26.8104C105.791 26.8737 105.534 26.9745 105.265 27.0808C104.738 27.2891 104.018 27.5733 103.65 27.464C103.344 27.3735 103.244 26.9232 103.337 26.0469C103.352 25.9005 103.42 25.6101 103.49 25.3025C103.777 24.0715 104.172 22.3854 103.477 21.5669C103.442 21.525 103.395 21.4825 103.346 21.4403C103.344 21.4321 103.346 21.4265 103.346 21.4174C103.331 21.4081 103.316 21.4051 103.3 21.3972C103.24 21.365 103.179 21.3348 103.123 21.3164C102.105 20.9757 100.686 21.9668 99.6478 22.6898C99.3894 22.8709 99.1451 23.0411 99.0132 23.1102C98.2348 23.5213 97.7807 23.5954 97.5815 23.3437C97.3448 23.0428 97.3419 22.2694 97.3389 21.7046C97.3375 21.4131 97.3375 21.1385 97.3111 20.9036L97.2932 20.7375C97.2461 20.2547 97.1883 19.6538 96.7627 19.3107C96.6068 19.1844 96.3373 19.0447 95.9227 19.0913C95.2416 19.1686 94.566 19.8319 94.0234 20.3654C93.8787 20.5081 93.7468 20.6373 93.6361 20.7322C93.5538 20.8037 93.4442 20.9086 93.3185 21.0304C93.0818 21.2587 92.3634 21.9524 92.1094 21.9603C92.0046 21.8818 91.9527 21.5012 91.9559 20.8286C91.9559 20.7173 91.9574 20.6176 91.9545 20.535C91.9501 20.4032 91.953 20.2473 91.9591 20.0777C91.9785 19.2756 92.0063 18.1775 91.2909 17.6399C90.6587 17.1656 89.8337 17.3018 88.8402 18.0474C88.1825 18.5405 87.6446 19.1569 87.1231 19.7531C87.0212 19.8712 86.9171 19.9881 86.8152 20.1032C86.7223 20.2084 86.616 20.3396 86.502 20.4832C86.2067 20.8535 85.762 21.4122 85.4503 21.4936C85.3035 21.5335 85.2502 21.4986 85.2285 21.484C84.934 21.2921 84.7849 20.3666 84.6756 19.6907C84.5409 18.8507 84.424 18.1259 84.0329 17.7319C83.7323 17.4304 83.3675 17.2919 82.9729 17.3288C81.9578 17.4278 81.034 18.6893 80.1745 19.9743C80.03 20.1908 79.9055 20.3777 79.8217 20.4838C78.8523 21.7251 78.4756 21.6811 78.4363 21.6732C78.1082 21.6017 77.8099 20.3425 77.6488 19.6658C77.3708 18.4974 77.1094 17.3941 76.358 17.0888C76.1145 16.9904 75.7167 16.9394 75.2133 17.2599C74.2272 17.8875 73.6714 19.0195 73.1321 20.1149C72.8286 20.7334 72.5409 21.3175 72.2007 21.7585C71.9139 22.1291 71.5565 22.5404 71.2978 22.4165C70.8124 22.1827 71.052 20.6179 71.154 19.9494C71.1871 19.7355 71.2146 19.5486 71.2281 19.4059C71.2545 19.1317 71.0535 18.8885 70.7787 18.8616C70.5021 18.8338 70.261 19.0365 70.2361 19.3107C70.2226 19.4387 70.198 19.6066 70.1678 19.7991C69.988 20.9783 69.7152 22.7607 70.8645 23.3147C71.8796 23.804 72.685 22.7607 72.9891 22.3675C73.3899 21.8472 73.7136 21.1901 74.0268 20.5549C74.5041 19.5832 74.9986 18.5777 75.7477 18.101C75.8878 18.0126 75.9636 18.0047 75.983 18.0126C76.2572 18.1245 76.5209 19.2334 76.6782 19.8961C76.989 21.205 77.2835 22.4414 78.223 22.647C78.9168 22.7991 79.6509 22.3213 80.6069 21.0984C80.7118 20.9631 80.8407 20.7715 81.0033 20.5283C81.4319 19.8858 82.4374 18.3826 83.0681 18.3211C83.1379 18.3143 83.2143 18.324 83.3251 18.4353C83.4915 18.6017 83.606 19.3224 83.6922 19.8492C83.8518 20.8506 84.0188 21.8859 84.6841 22.3192C84.8863 22.451 85.2279 22.5826 85.7022 22.4587C86.333 22.294 86.8597 21.6345 87.2822 21.1049C87.3841 20.9771 87.4755 20.8599 87.5602 20.7665C87.6636 20.6484 87.77 20.5295 87.8734 20.4093C88.3612 19.8521 88.8639 19.275 89.4384 18.8449C90.034 18.3975 90.4559 18.2601 90.6918 18.4374C90.9967 18.6662 90.9756 19.5008 90.9607 20.0531C90.9563 20.2441 90.9516 20.4211 90.9563 20.5693C90.9592 20.6414 90.9592 20.7278 90.9578 20.8242C90.9548 21.5217 90.9487 22.8199 91.9893 22.9497C92.6315 23.0285 93.2816 22.4522 94.0099 21.7479C94.1192 21.6427 94.2138 21.5507 94.285 21.4901C94.4092 21.3826 94.5584 21.2376 94.7224 21.077C95.0857 20.7196 95.6948 20.1214 96.0349 20.0824C96.1046 20.0745 96.1322 20.0841 96.1351 20.0865C96.2356 20.1673 96.2798 20.6191 96.3006 20.8362L96.32 21.014C96.3393 21.1957 96.3411 21.4447 96.3411 21.7087C96.3434 22.4976 96.3464 23.3918 96.7987 23.9631C97.6041 24.9811 99.0141 24.2379 99.4785 23.9932C99.6642 23.8954 99.9086 23.7246 100.217 23.5084C100.724 23.155 102.089 21.9665 102.769 22.2832C103.238 22.9845 102.659 24.476 102.519 25.0772C102.433 25.4446 102.367 25.7358 102.344 25.9435C102.29 26.4647 102.123 28.0511 103.365 28.4209C104.065 28.6283 104.895 28.2996 105.63 28.0092C105.875 27.9126 106.106 27.8209 106.284 27.7722L106.455 27.723C106.665 27.6621 107.099 27.5352 107.212 27.5988C107.215 27.6008 107.235 27.624 107.253 27.6908C107.343 28.0213 107.014 28.8088 106.817 29.2793C106.728 29.4905 106.649 29.6827 106.596 29.8377C106.565 29.9273 106.515 30.0486 106.458 30.1889C106.075 31.127 105.781 31.9447 106.091 32.5116C106.598 33.4298 107.802 32.9425 108.449 32.6798C108.538 32.6437 108.618 32.6109 108.686 32.5866C108.824 32.5368 108.989 32.4671 109.163 32.3915C109.671 32.1738 110.437 31.8445 110.763 32.0431C111.016 32.1964 111.044 32.6387 110.851 33.358C110.663 34.0503 110.316 34.732 109.979 35.3912C109.906 35.5333 109.834 35.6739 109.763 35.8145C109.707 35.927 109.633 36.0568 109.552 36.1989C109.218 36.7878 108.799 37.5205 108.881 38.1694C108.943 38.6554 109.192 38.9232 109.39 39.0621C110.037 39.5179 111.061 39.2891 112.052 39.0674C112.572 38.9505 113.284 38.7908 113.5 38.8825C113.645 38.9434 113.68 39.0117 113.7 39.0779C113.878 39.687 112.854 41.1782 112.418 41.8154C112.252 42.0562 112.123 42.2461 112.035 42.3946C111.255 43.7361 111.083 44.5951 111.482 45.1831C112.022 45.98 113.278 45.7936 114.61 45.597C115.284 45.4974 116.41 45.3296 116.617 45.5437C116.632 45.5592 116.652 45.6325 116.622 45.7942C116.456 46.6678 115.707 47.4999 114.982 48.3026C114.508 48.8294 114.017 49.3725 113.683 49.9388C113.431 50.3666 112.761 51.5004 113.591 52.2621C114.317 52.9259 115.408 52.5334 116.341 52.0426C116.3 51.6316 116.344 51.2097 116.479 50.8233Z" fill="white"/>
<path fill-rule="evenodd" clip-rule="evenodd" d="M116.366 50.576C117.175 50.4823 117.79 50.8031 117.884 52.2536C117.936 53.0619 117.526 53.6458 117.553 54.0585C117.6 54.7869 118.103 55.5553 118.243 56.2596C118.361 56.8494 118.352 57.6495 117.944 57.9761C117.34 58.4595 116.362 58.2662 116.072 57.7514C115.683 57.0585 115.798 56.2359 115.863 55.6259C115.897 55.3113 116.11 54.5083 115.764 53.8385C115.567 53.4585 115.3 53.0991 115.178 52.2875C114.975 50.9686 115.742 50.6478 116.366 50.576Z" fill="#EFAD1B"/>
<path fill-rule="evenodd" clip-rule="evenodd" d="M70.7105 59.9155C75.4993 59.687 80.268 59.8803 84.5998 60.374C86.7253 60.6168 88.823 60.9089 90.7319 61.4175C92.679 61.9329 94.4585 62.4461 96.0297 63.2515C98.4804 64.508 100.352 66.0731 101.744 68.2988C103.134 70.5239 103.923 73.1011 104.288 76.4741C104.523 78.6394 104.519 80.9559 104.621 83.273C105.046 92.9204 104.692 102.181 99.908 106.965C97.5915 109.282 93.9083 110.551 90.1053 111.47C87.1311 112.19 84.0892 112.565 80.6796 112.805C77.3263 113.04 73.721 112.931 70.2523 112.931C67.9598 112.931 65.7127 112.682 63.577 112.43C59.2539 111.916 55.4166 110.978 52.1899 109.51C50.4698 108.727 49.0401 107.843 47.8946 106.63C46.7761 105.448 45.8995 103.897 45.2251 102.168C43.9044 98.7775 43.5432 94.4943 43.4307 89.655C43.3776 87.352 43.472 85.1943 43.5567 82.9384C43.6442 80.6032 43.6188 78.3165 43.8892 76.0982C44.1552 73.9314 44.6811 72.0324 45.3493 70.3838C46.6987 67.0566 49.1658 64.6578 52.3979 63.1249C55.5985 61.61 59.6321 60.8225 63.9109 60.3321C66.0534 60.0854 68.2703 60.0309 70.7105 59.9155Z" fill="#4D3D87"/>
<path opacity="0.21" fill-rule="evenodd" clip-rule="evenodd" d="M74.0484 73.7638C76.2952 73.656 78.9615 73.7624 81.3058 73.7638C84.9357 73.7638 88.3722 73.8461 92.1087 73.8461C94.8254 73.8461 96.6046 73.9519 99.2006 74.0131C99.982 74.0325 100.358 74.055 100.869 74.1391C101.404 74.2276 101.978 74.3931 102.037 74.7646C102.198 75.7797 100.386 76.1005 99.3662 76.1823C98.0036 76.293 96.5551 76.2661 95.3624 76.2661C92.5798 76.2661 89.8631 76.2248 87.3536 76.2248C84.6166 76.2248 81.984 76.1243 79.5108 76.349C77.037 76.5746 74.6633 76.9311 72.5879 77.5589C70.6294 78.1516 68.6425 79.0917 66.3726 79.5189C61.4712 80.4441 56.4149 79.5247 51.8994 78.6423C50.8663 78.4416 49.6344 78.2834 48.4784 77.9764C47.6138 77.7456 45.9131 77.3067 45.8923 76.5154C45.8586 75.2357 48.7347 75.0702 50.1052 74.9316C53.0548 74.6313 56.0411 74.4461 59.0739 74.2633C62.6326 74.0474 66.4365 73.8461 70.2102 73.8461C71.4553 73.8461 72.7605 73.8245 74.0484 73.7638Z" fill="black"/>
<path fill-rule="evenodd" clip-rule="evenodd" d="M101.384 74.1143C102.194 74.1787 102.735 74.6132 102.546 76.0546C102.441 76.8585 101.925 77.3522 101.872 77.762C101.776 78.4856 102.12 79.3376 102.122 80.0568C102.123 80.6571 101.959 81.4423 101.497 81.6834C100.809 82.0408 99.8851 81.6608 99.7022 81.0989C99.455 80.3454 99.7286 79.5594 99.9105 78.972C100.005 78.6708 100.371 77.9231 100.16 77.1986C100.041 76.7873 99.8484 76.3827 99.8836 75.5624C99.9416 74.2306 100.758 74.0633 101.384 74.1143Z" fill="white"/>
<path d="M84.1649 63.1115C83.5828 62.4948 82.6807 62.2411 82.3854 61.4484C82.0866 60.6535 82.2372 59.2271 82.2776 58.0701C82.3277 56.6879 82.2911 55.3775 82.6236 54.2888C83.1 52.7305 84.6298 52.0988 85.3971 50.9144C87.9873 46.9095 85.947 41.431 81.9949 40.8392C78.6527 40.3388 75.9392 43.4472 75.7292 47.2813C75.5944 49.7823 76.8199 51.4944 78.1708 52.7762C78.7769 53.3516 79.4683 53.6721 79.7897 54.5826C80.1501 55.6036 80.0452 56.9665 80.0361 58.2717C80.0241 59.6082 79.705 61.0376 79.8307 62.3645C79.9163 63.2867 80.4922 63.8428 80.5919 64.7012C80.7184 65.8189 80.5462 67.0681 80.332 68.3609C81.13 66.8152 81.975 65.2795 82.88 64.2193C83.1984 63.8489 83.7407 63.5003 84.1649 63.1115ZM80.7102 51.3767C78.5674 51.1534 77.8063 48.9365 78.0041 46.8931C78.2244 44.6199 79.9476 42.314 82.2729 43.1897C85.7762 44.5115 84.5004 51.7716 80.7102 51.3767Z" fill="#8F7ECE"/>
<path d="M84.7044 66.6643C83.8413 68.0099 83.0682 69.9901 82.4875 71.164C81.79 72.5741 80.8911 74.3893 79.9305 76.3179C80.783 76.2529 81.6537 76.2207 82.5408 76.2086C82.869 74.7201 83.1971 73.247 83.5296 71.8191C83.9034 70.2163 84.4715 68.3348 84.7044 66.6643Z" fill="#8F7ECE"/>
<path d="M96.7184 46.9532C96.3364 45.927 95.316 44.6933 93.9012 44.2732C91.3061 43.5021 89.3101 45.3718 88.1857 46.8697C85.8976 49.9154 84.4105 55.287 84.5956 59.7059C84.6323 60.5766 84.9416 61.6289 84.7328 62.3221C84.6472 62.6104 84.4287 62.8691 84.1641 63.1116C83.7399 63.5004 83.1976 63.849 82.88 64.2197C81.975 65.2796 81.1298 66.8157 80.3321 68.3614C80.2032 68.6101 80.0757 68.8597 79.95 69.107C79.0711 70.8361 78.2253 72.6469 77.3294 74.4308C76.9533 75.1828 76.566 75.9621 76.1816 76.7584C77.1434 76.6049 78.1386 76.4822 79.152 76.3846C79.2718 76.3726 79.3902 76.3606 79.5094 76.3494C79.6486 76.3374 79.7895 76.3283 79.9295 76.3181C80.8902 74.3898 81.789 72.5742 82.4866 71.1642C83.0672 69.9903 83.8404 68.0101 84.7035 66.6645C85.0392 66.1415 85.3875 65.7129 85.7441 65.4674C86.1742 65.1721 86.9857 65.1903 87.3024 64.7684C87.7878 63.4738 86.5793 61.5744 87.772 60.8133C88.0972 60.6065 88.4485 60.8148 88.8299 60.7984C91.1757 60.6996 92.6892 58.9562 94.2355 56.6156C96.0208 53.9145 97.8879 50.0927 96.7184 46.9532ZM83.5196 67.4285C83.4349 67.9389 82.9518 68.2834 82.4423 68.1988C81.9323 68.1135 81.586 67.6301 81.6721 67.1183C81.7559 66.6082 82.2408 66.2643 82.7494 66.3481C83.2612 66.436 83.6066 66.9191 83.5196 67.4285ZM95.1437 50.0485C94.8633 52.2003 93.6753 54.4559 92.3669 56.3036C91.1376 58.0412 89.0549 60.0519 87.1659 58.6975C85.0697 57.1907 88.0793 49.367 90.3501 47.1352C90.9721 46.5243 91.9931 45.8411 92.8577 45.9217C94.8138 46.1086 95.403 48.0489 95.1437 50.0485Z" fill="#8F7ECE"/>
<path opacity="0.62" d="M96.7184 46.9532C96.3364 45.927 95.316 44.6933 93.9012 44.2732C91.3061 43.5021 89.3101 45.3718 88.1857 46.8697C85.8976 49.9154 84.4105 55.287 84.5956 59.7059C84.6323 60.5766 84.9416 61.6289 84.7328 62.3221C84.6472 62.6104 84.4287 62.8691 84.1641 63.1116C83.7399 63.5004 83.1976 63.849 82.88 64.2197C81.975 65.2796 81.1298 66.8157 80.3321 68.3614C80.2032 68.6101 80.0757 68.8597 79.95 69.107C79.0711 70.8361 78.2253 72.6469 77.3294 74.4308C76.9533 75.1828 76.566 75.9621 76.1816 76.7584C77.1434 76.6049 78.1386 76.4822 79.152 76.3846C79.2718 76.3726 79.3902 76.3606 79.5094 76.3494C79.6486 76.3374 79.7895 76.3283 79.9295 76.3181C80.8902 74.3898 81.789 72.5742 82.4866 71.1642C83.0672 69.9903 83.8404 68.0101 84.7035 66.6645C85.0392 66.1415 85.3875 65.7129 85.7441 65.4674C86.1742 65.1721 86.9857 65.1903 87.3024 64.7684C87.7878 63.4738 86.5793 61.5744 87.772 60.8133C88.0972 60.6065 88.4485 60.8148 88.8299 60.7984C91.1757 60.6996 92.6892 58.9562 94.2355 56.6156C96.0208 53.9145 97.8879 50.0927 96.7184 46.9532ZM83.5196 67.4285C83.4349 67.9389 82.9518 68.2834 82.4423 68.1988C81.9323 68.1135 81.586 67.6301 81.6721 67.1183C81.7559 66.6082 82.2408 66.2643 82.7494 66.3481C83.2612 66.436 83.6066 66.9191 83.5196 67.4285ZM95.1437 50.0485C94.8633 52.2003 93.6753 54.4559 92.3669 56.3036C91.1376 58.0412 89.0549 60.0519 87.1659 58.6975C85.0697 57.1907 88.0793 49.367 90.3501 47.1352C90.9721 46.5243 91.9931 45.8411 92.8577 45.9217C94.8138 46.1086 95.403 48.0489 95.1437 50.0485Z" fill="white"/>
<path d="M82.4427 68.1987C82.9521 68.2834 83.4355 67.9388 83.5199 67.4285C83.6069 66.919 83.2615 66.4359 82.7497 66.348C82.2411 66.2642 81.7562 66.6079 81.6724 67.1182C81.5863 67.6301 81.9326 68.1135 82.4427 68.1987Z" fill="#4D3D87"/>
<path d="M92.5085 76.2543L93.7011 71.6901L91.5238 71.2129L90.2113 76.2385C90.9651 76.2423 91.7309 76.2484 92.5085 76.2543Z" fill="#B1BC00"/>
<path d="M90.7387 71.0411L89.5683 70.7856C89.0655 72.5936 88.5944 74.4094 88.1374 76.2264C88.5508 76.2278 88.9606 76.2293 89.3834 76.2322L90.7387 71.0411Z" fill="#B1BC00"/>
<path d="M95.7493 72.163C95.7507 72.1548 95.7464 72.1472 95.7493 72.1384L94.4845 71.8604L93.3337 76.259C93.7846 76.2619 94.2431 76.2634 94.7002 76.2634C94.9588 75.2746 95.2067 74.2932 95.4209 73.3431C95.5126 72.93 95.7291 72.5105 95.7493 72.163Z" fill="#B1BC00"/>
<path d="M95.6842 71.6577C95.6736 71.4831 95.6795 71.3114 95.6827 71.1491C95.724 69.4273 95.7164 67.9095 95.5268 66.1827L92.9241 65.3592C93.0228 65.2385 93.1233 65.1128 93.2311 64.9854C92.1448 66.2674 91.4915 67.2913 90.7784 68.4488C90.4069 69.04 89.9549 69.6131 89.7017 70.187C89.63 70.3496 89.63 70.5608 89.5723 70.7738C89.5693 70.7768 89.5693 70.7812 89.5693 70.7858L90.7397 71.0413L89.3845 76.2324C89.6563 76.2339 89.9358 76.2354 90.2124 76.2386L91.5249 71.213L93.7022 71.6902L92.5096 76.2544C92.7861 76.2559 93.058 76.2573 93.3351 76.2588L94.4859 71.8602L95.7507 72.1382C95.7501 71.9905 95.6924 71.8174 95.6842 71.6577Z" fill="#EFAD1B"/>
<path d="M95.526 66.1825C95.5198 66.1292 95.5154 66.0791 95.5101 66.0243C95.448 65.4835 95.3461 64.2726 94.7976 63.9978C94.3939 63.7971 93.769 64.3514 93.2303 64.9851C93.1224 65.1126 93.0219 65.2382 92.9232 65.3589L95.526 66.1825Z" fill="white"/>
<path d="M68.9774 46.67C68.9909 45.9361 68.4035 45.3259 67.6649 45.3147C66.9275 45.3001 66.3202 45.886 66.3067 46.6234L66.2803 48.0458L68.949 48.0839L68.9774 46.67Z" fill="#EFAD1B"/>
<path d="M64.3886 64.7209L64.0831 79.8197C64.8486 79.7576 65.613 79.6629 66.3726 79.5191C67.5225 79.3017 68.6001 78.9548 69.6378 78.5863L69.9187 64.8024L64.3886 64.7209Z" fill="#B1BC00"/>
<path d="M64.3876 64.7194L69.9188 64.8011L69.9376 63.1924L64.4131 63.113L64.3876 64.7194Z" fill="white"/>
<path d="M68.9348 48.891L66.2638 48.8515L64.62 48.8274L64.632 48.0259H64.6305L64.4146 63.1126L69.938 63.1935L70.1477 48.9083L68.9348 48.891ZM68.1998 57.177C67.3232 57.1366 67.2377 55.2314 67.9323 54.8966C68.9363 54.405 69.3544 57.2274 68.1998 57.177ZM68.5842 53.5727C67.3929 53.7502 67.6326 51.5348 68.0448 50.9017C68.0717 50.8621 68.1084 50.8469 68.1482 50.8193C69.2937 50.0509 69.6008 53.4221 68.5842 53.5727Z" fill="#B1BC00"/>
<path d="M68.9498 48.0841V48.0864L66.2811 48.048L64.6326 48.0249L64.6208 48.8265L66.2644 48.8505L68.9354 48.8903L70.1483 48.9076L70.908 48.9193L70.6923 64.0415L71.8417 64.0603L72.0605 48.936L72.0702 48.1307L68.9498 48.0841Z" fill="white"/>
<path d="M68.1471 50.8186C68.1075 50.8461 68.0706 50.8614 68.0437 50.9009C67.6314 51.534 67.3918 53.7494 68.583 53.5719C69.5996 53.4213 69.2926 50.0501 68.1471 50.8186Z" fill="white"/>
<path d="M67.9325 54.8959C67.2379 55.2308 67.3234 57.1359 68.2 57.1764C69.3546 57.2268 68.9365 54.4043 67.9325 54.8959Z" fill="white"/>
<path d="M64.298 77.5936L62.186 77.9616C62.034 77.9879 61.893 77.8889 61.867 77.7398C61.84 77.5907 61.942 77.4468 62.0882 77.4193L64.2025 77.0528C64.315 77.0317 64.4228 77.0835 64.4805 77.1702L64.0071 74.441C63.9927 74.5555 63.9081 74.6551 63.7859 74.6753L61.6715 75.0477C61.5239 75.0732 61.3824 74.9727 61.354 74.8236C61.3285 74.6739 61.4281 74.5306 61.5801 74.5036L63.6907 74.1327C63.8134 74.114 63.9274 74.177 63.9807 74.2833L63.4991 71.4963C63.4947 71.6229 63.4068 71.7368 63.2744 71.7609L61.1638 72.1303C61.0141 72.1587 60.8709 72.0577 60.8448 71.9085C60.8193 71.7579 60.9183 71.6156 61.0672 71.5895L63.1806 71.2186C63.3125 71.196 63.434 71.2748 63.4798 71.3947L62.9876 68.5508C62.9996 68.6894 62.9082 68.8198 62.7658 68.8414L60.6523 69.2144C60.5017 69.2405 60.3608 69.1417 60.3347 68.9911C60.3092 68.8414 60.4074 68.7011 60.558 68.6736L62.6685 68.3021C62.8118 68.2772 62.9433 68.3689 62.9802 68.5066L62.4813 65.6123C62.503 65.76 62.4057 65.9015 62.2581 65.9285L60.1437 66.2994C59.9946 66.3263 59.8531 66.2238 59.8247 66.0717C59.7983 65.9255 59.9003 65.7826 60.0464 65.7556L62.1614 65.3876C62.3105 65.3592 62.4514 65.4588 62.4798 65.6079L57.8454 38.8347L46.8731 40.7329L53.4872 78.9474C57.1282 79.6285 61.0528 80.1919 64.9232 79.7349L64.5172 77.3847C64.4914 77.4887 64.409 77.5713 64.298 77.5936ZM49.3326 41.6926C49.8142 41.697 49.8233 42.256 49.9566 42.8463C50.0952 43.4671 50.2502 43.8058 49.8459 44.0709C48.6945 44.8224 47.883 41.6727 49.3326 41.6926ZM51.2881 49.2916C50.5241 49.7405 50.1336 48.9492 49.9001 47.9364C49.7023 47.0824 49.4527 44.9627 50.5654 45.3591C50.8036 45.4461 51.2366 46.4135 51.427 46.9332C51.7982 47.9484 51.8439 48.9673 51.2881 49.2916ZM53.0509 44.4873C53.0143 44.7161 52.8875 44.8649 52.7131 44.9712C51.6163 45.6169 51.3684 43.1598 52.2028 42.9676C52.695 42.8531 53.1356 43.935 53.0509 44.4873ZM55.7369 42.7552C55.709 42.6076 55.8095 42.4643 55.9587 42.4382L58.0692 42.067C58.2221 42.0401 58.3636 42.142 58.39 42.2912C58.414 42.4406 58.315 42.5833 58.1668 42.6076L56.0524 42.9785C55.9068 43.0037 55.7624 42.9049 55.7369 42.7552ZM56.2469 45.6703C56.2229 45.5211 56.319 45.3808 56.4716 45.3527L58.5822 44.9824C58.7328 44.9551 58.8766 45.058 58.903 45.2065C58.927 45.3559 58.8274 45.4983 58.6783 45.5223L56.5663 45.8938C56.4142 45.9193 56.2742 45.8217 56.2469 45.6703ZM56.7582 48.5868C56.7318 48.4376 56.8323 48.2953 56.9799 48.2692L59.0943 47.8968C59.2434 47.8728 59.3849 47.9739 59.4119 48.1224C59.4365 48.2707 59.3407 48.413 59.1886 48.4391L57.0781 48.8085C56.9272 48.8378 56.7834 48.7365 56.7582 48.5868ZM57.2682 51.5018C57.2436 51.3521 57.3409 51.2074 57.4944 51.1819L59.6035 50.811C59.7549 50.7864 59.8979 50.8836 59.9225 51.0374C59.9509 51.1851 59.8507 51.3275 59.6993 51.3544L57.5858 51.7259C57.4381 51.7508 57.2961 51.6495 57.2682 51.5018ZM57.78 54.4157C57.7546 54.2665 57.8565 54.1236 58.0033 54.0949L60.1168 53.7292C60.2644 53.7023 60.4068 53.801 60.4343 53.9472C60.4619 54.0993 60.3602 54.2416 60.2111 54.2695L58.0991 54.6372C57.9494 54.6644 57.8061 54.5654 57.78 54.4157ZM58.291 57.3287C58.2661 57.181 58.3651 57.0357 58.5172 57.0111L60.6268 56.6425C60.7745 56.617 60.9204 56.7146 60.9476 56.8658C60.9693 57.0172 60.8735 57.1573 60.7244 57.1813L58.6071 57.5537C58.4594 57.5794 58.3179 57.4775 58.291 57.3287ZM58.8057 60.2422C58.7764 60.0946 58.8784 59.9545 59.026 59.9247L61.1395 59.5567C61.2886 59.5297 61.4296 59.6293 61.4571 59.7785C61.4826 59.9261 61.3836 60.07 61.2353 60.0975L59.1204 60.4669C58.9698 60.4939 58.8274 60.3919 58.8057 60.2422ZM59.3143 63.1587C59.2888 63.0111 59.3879 62.8687 59.539 62.8412L61.6496 62.4711C61.7987 62.4448 61.9417 62.5467 61.9686 62.6929C61.9918 62.8458 61.896 62.9859 61.7468 63.0128L59.6319 63.3852C59.4822 63.4098 59.3404 63.3078 59.3143 63.1587Z" fill="#EFAD1B"/>
<path d="M58.3893 42.2912C58.363 42.1421 58.2214 42.0401 58.0685 42.0671L55.958 42.4383C55.8089 42.464 55.7084 42.6076 55.7362 42.7552C55.7617 42.9047 55.9061 43.0037 56.0517 42.9785L58.1661 42.6076C58.3146 42.5833 58.4133 42.4406 58.3893 42.2912Z" fill="white"/>
<path d="M58.902 45.206C58.8757 45.0578 58.7318 44.9547 58.5812 44.9819L56.4707 45.3522C56.3178 45.3803 56.222 45.5207 56.246 45.6698C56.2729 45.8216 56.413 45.9188 56.565 45.893L58.677 45.5216C58.8265 45.4978 58.9261 45.3554 58.902 45.206Z" fill="white"/>
<path d="M59.411 48.1224C59.3841 47.9739 59.2426 47.8728 59.0934 47.8968L56.9791 48.2692C56.8314 48.2953 56.731 48.4377 56.7573 48.5868C56.7828 48.7365 56.9267 48.8379 57.0772 48.8086L59.1878 48.4391C59.3398 48.413 59.4359 48.2707 59.411 48.1224Z" fill="white"/>
<path d="M59.922 51.0374C59.8974 50.8839 59.7541 50.7863 59.603 50.8109L57.4939 51.1818C57.3404 51.2073 57.2428 51.352 57.2677 51.5017C57.2956 51.6494 57.4376 51.7505 57.5853 51.7259L59.6988 51.3544C59.8502 51.3274 59.9507 51.185 59.922 51.0374Z" fill="white"/>
<path d="M60.4348 53.9473C60.4072 53.8011 60.2645 53.7023 60.1172 53.7293L58.0037 54.0949C57.8569 54.1233 57.755 54.2666 57.7805 54.4157C57.8068 54.5654 57.9498 54.6644 58.0998 54.6375L60.2118 54.2698C60.3606 54.2417 60.4626 54.0996 60.4348 53.9473Z" fill="white"/>
<path d="M60.9478 56.8655C60.9209 56.7143 60.7747 56.6167 60.627 56.6422L58.5174 57.0108C58.3653 57.0354 58.2663 57.181 58.2912 57.3284C58.3181 57.4775 58.4596 57.5791 58.6073 57.5531L60.7246 57.1807C60.8737 57.157 60.9695 57.0169 60.9478 56.8655Z" fill="white"/>
<path d="M61.4564 59.7784C61.4286 59.6293 61.288 59.5297 61.1389 59.5566L59.0254 59.9246C58.8777 59.9545 58.7758 60.0945 58.8051 60.2422C58.8268 60.3919 58.9691 60.4939 59.1197 60.4669L61.2347 60.0975C61.3829 60.0699 61.4819 59.9261 61.4564 59.7784Z" fill="white"/>
<path d="M61.9672 62.6927C61.9402 62.5465 61.797 62.4448 61.6481 62.4709L59.5376 62.8409C59.3864 62.8684 59.2874 63.0111 59.3129 63.1585C59.3393 63.3076 59.4808 63.4093 59.6305 63.3846L61.7454 63.0123C61.8945 62.9859 61.9906 62.8456 61.9672 62.6927Z" fill="white"/>
<path d="M62.1605 65.3877L60.0456 65.7556C59.8994 65.7826 59.7974 65.9258 59.8238 66.0717C59.8522 66.2238 59.994 66.3266 60.1428 66.2994L62.2572 65.9285C62.4048 65.9015 62.5021 65.76 62.4804 65.6124L62.479 65.608C62.4505 65.4588 62.3096 65.3592 62.1605 65.3877Z" fill="white"/>
<path d="M62.6663 68.3022L60.5558 68.6737C60.4052 68.7015 60.307 68.8415 60.3325 68.9912C60.3586 69.1418 60.4995 69.2408 60.6501 69.2145L62.7636 68.8415C62.906 68.8198 62.9974 68.6895 62.9854 68.5509L62.9777 68.5067C62.9414 68.369 62.8096 68.2773 62.6663 68.3022Z" fill="white"/>
<path d="M63.181 71.2186L61.0676 71.5895C60.9184 71.6159 60.8197 71.7583 60.8452 71.9086C60.8713 72.0577 61.0145 72.1588 61.1642 72.1303L63.2748 71.7609C63.4072 71.7369 63.4951 71.6232 63.4995 71.4964L63.4802 71.3944C63.4342 71.2749 63.3129 71.1964 63.181 71.2186Z" fill="white"/>
<path d="M63.6907 74.1332L61.5802 74.5041C61.4281 74.531 61.3285 74.674 61.354 74.824C61.3824 74.9731 61.5239 75.0736 61.6716 75.0481L63.7859 74.6758C63.9081 74.6555 63.9928 74.5559 64.0071 74.4414L63.9808 74.284C63.9275 74.1774 63.8138 74.1144 63.6907 74.1332Z" fill="white"/>
<path d="M64.2026 77.0527L62.0883 77.4192C61.9421 77.447 61.8401 77.5909 61.8671 77.7397C61.8934 77.8888 62.0341 77.9878 62.1861 77.9615L64.2981 77.5935C64.4091 77.571 64.4915 77.4886 64.517 77.3843L64.4803 77.1702C64.4229 77.0835 64.3148 77.0319 64.2026 77.0527Z" fill="white"/>
<path d="M50.5649 45.3592C49.4522 44.9628 49.7018 47.0824 49.8996 47.9364C50.1334 48.9492 50.5236 49.7405 51.2877 49.2917C51.8437 48.9674 51.798 47.9484 51.4263 46.9333C51.2361 46.4139 50.8031 45.4462 50.5649 45.3592Z" fill="white"/>
<path d="M52.2021 42.9674C51.3674 43.1596 51.6155 45.617 52.7124 44.971C52.887 44.8646 53.0136 44.7158 53.0502 44.487C53.1349 43.935 52.6942 42.8531 52.2021 42.9674Z" fill="white"/>
<path d="M49.9564 42.8464C49.8231 42.2561 49.814 41.6971 49.3324 41.6927C47.8828 41.6728 48.694 44.8225 49.8457 44.071C50.25 43.8059 50.0947 43.4672 49.9564 42.8464Z" fill="white"/>
<path d="M67.7953 131.221L74.3464 133.197L78.59 134.219L74.4896 132.724L67.9385 130.746L67.7953 131.221Z" fill="#8F7ECE"/>
<path d="M70.5242 130.105L64.8137 128.383L63.8923 131.438L69.5794 133.154C69.7598 133.949 70.2207 134.716 70.8966 135.355L72.8325 129.03C71.9222 129.181 71.1169 129.553 70.5242 130.105Z" fill="#FF5000"/>
<path d="M64.8382 126.976C65.0928 127.053 65.236 127.32 65.159 127.573L63.7413 132.27C63.6663 132.523 63.3968 132.666 63.1442 132.589C62.8917 132.513 62.7478 132.245 62.8234 131.992L64.2408 127.297C64.3184 127.042 64.5856 126.899 64.8382 126.976Z" fill="#FF5000"/>
<path fill-rule="evenodd" clip-rule="evenodd" d="M12.1793 126.192C12.1037 126.152 12.1312 126.105 12.1673 126.054C13.512 125.578 14.8406 124.937 16.1859 124.468C16.9561 125.579 18.2118 125.535 19.0345 124.572C19.9799 124.826 23.702 125.758 24.6536 126.081C23.8676 127.309 22.4563 127.843 21.4245 128.848C19.2659 128.164 14.3475 127.003 12.1793 126.192Z" fill="#8F7ECE"/>
<path opacity="0.62" fill-rule="evenodd" clip-rule="evenodd" d="M12.1793 126.192C12.1037 126.152 12.1312 126.105 12.1673 126.054C13.512 125.578 14.8406 124.937 16.1859 124.468C16.9561 125.579 18.2118 125.535 19.0345 124.572C19.9799 124.826 23.702 125.758 24.6536 126.081C23.8676 127.309 22.4563 127.843 21.4245 128.848C19.2659 128.164 14.3475 127.003 12.1793 126.192Z" fill="white"/>
<path fill-rule="evenodd" clip-rule="evenodd" d="M18.2392 126.783C19.0507 125.074 21.5011 123.895 22.8895 123.82C24.4926 123.733 26.515 124.605 28.3803 125.223C30.3447 125.875 32.1285 126.384 33.8345 126.92C37.4673 128.056 40.7858 129.024 44.7452 130.311C48.6359 131.578 52.3841 132.909 55.6753 133.937C57.3948 134.475 59.198 135.165 61.1518 135.866C62.8393 136.47 64.5994 137.056 66.0798 138.12C66.2913 138.272 66.3379 139.145 66.5371 139.318C69.0441 141.496 69.8368 144.024 70.0903 146.679C70.1787 147.594 70.2007 148.495 69.6874 149.097C68.9779 149.925 68.0228 149.344 66.9769 149.097C65.8352 148.827 64.6882 149.142 63.6523 148.782C62.4271 148.357 61.2227 147.887 59.9131 147.411C58.3841 146.855 56.9881 146.535 55.7026 145.259C54.8559 144.418 54.6192 143.373 53.7186 142.51C52.4726 141.309 50.7652 140.847 49.2666 140.259C47.7203 139.654 46.3478 139.199 44.8741 138.707C38.8123 136.677 33.4106 135.012 27.3959 132.894C26.0257 132.412 24.6898 132.007 23.0026 131.34C21.8099 130.867 19.5171 130.138 18.613 129.144C18.1539 128.639 17.8654 127.567 18.2392 126.783Z" fill="#FF5000"/>
<path d="M70.2447 149.454C70.758 148.853 70.7383 147.59 70.6499 146.675C70.3967 144.02 69.2041 140.785 66.6971 138.607C66.5375 138.467 66.3705 138.341 66.202 138.215C65.0685 139.004 65.1157 140.405 64.8362 141.449C64.1799 143.901 63.5085 146.608 63.6541 148.78C64.6903 149.141 65.7397 149.469 66.8817 149.739C67.9273 149.986 69.5351 150.283 70.2447 149.454Z" fill="#EFAD1B"/>
<path fill-rule="evenodd" clip-rule="evenodd" d="M20.0566 127.562C19.9675 126.943 21.5273 126.004 22.2465 125.859C23.4117 125.624 25.7955 126.538 27.2416 126.953C32.2297 128.381 37.3678 129.992 42.3389 131.508C47.7175 133.149 52.0769 134.425 57.4637 136.413C59.0686 137.004 61.4463 137.838 62.4902 139.254C63.1127 140.101 63.476 142.496 62.5599 143.509C61.439 144.746 58.7598 143.856 57.4338 142.952C56.7026 142.452 56.1166 141.717 55.4118 141.14C53.9859 139.971 52.4308 139.38 50.8977 138.837C46.6482 137.332 41.8684 135.794 37.6127 134.302C34.6151 133.253 31.6417 132.195 28.7033 131.091C27.2542 130.545 25.7513 130.063 24.256 129.601C22.819 129.154 21.0884 128.866 20.0566 127.562Z" fill="#8F7ECE"/>
<path opacity="0.62" fill-rule="evenodd" clip-rule="evenodd" d="M20.0566 127.562C19.9675 126.943 21.5273 126.004 22.2465 125.859C23.4117 125.624 25.7955 126.538 27.2416 126.953C32.2297 128.381 37.3678 129.992 42.3389 131.508C47.7175 133.149 52.0769 134.425 57.4637 136.413C59.0686 137.004 61.4463 137.838 62.4902 139.254C63.1127 140.101 63.476 142.496 62.5599 143.509C61.439 144.746 58.7598 143.856 57.4338 142.952C56.7026 142.452 56.1166 141.717 55.4118 141.14C53.9859 139.971 52.4308 139.38 50.8977 138.837C46.6482 137.332 41.8684 135.794 37.6127 134.302C34.6151 133.253 31.6417 132.195 28.7033 131.091C27.2542 130.545 25.7513 130.063 24.256 129.601C22.819 129.154 21.0884 128.866 20.0566 127.562Z" fill="white"/>
<path d="M25.8845 126.534C25.7099 126.479 25.5338 126.425 25.3557 126.37C24.2348 127.153 23.1215 128.035 22.0073 128.904C22.1893 128.976 22.3721 129.039 22.5587 129.1C23.1332 128.681 23.7071 128.231 24.2772 127.789C24.8137 127.372 25.3606 126.961 25.8845 126.534Z" fill="#8F7ECE"/>
<path d="M30.3785 127.868C30.1978 128.008 30.0331 128.187 29.8682 128.307C28.9579 128.968 27.9217 129.732 27.0264 130.495C27.2303 130.563 27.4339 130.631 27.6369 130.703C28.6723 129.902 29.6868 128.872 30.714 127.967C30.6018 127.933 30.4907 127.901 30.3785 127.868Z" fill="#8F7ECE"/>
<path d="M36.3369 129.667C35.0716 130.529 33.6996 131.472 32.4829 132.48C32.6326 132.535 32.7817 132.589 32.9326 132.642C34.2114 131.759 35.4829 130.801 36.7491 129.795C36.6117 129.753 36.474 129.71 36.3369 129.667Z" fill="#8F7ECE"/>
<path d="M41.1256 131.139C39.8849 132.056 38.6216 133.154 37.5115 134.267C37.5461 134.279 37.5795 134.292 37.6117 134.303C37.7046 134.336 37.8027 134.369 37.8988 134.402C39.1006 133.429 40.3674 132.347 41.5085 131.255C41.3811 131.216 41.2536 131.177 41.1256 131.139Z" fill="#8F7ECE"/>
<path d="M46.1598 132.672C44.8988 133.57 43.6546 134.661 42.4265 135.949C42.568 135.996 42.7083 136.044 42.8507 136.091C44.0732 135.04 45.3456 133.851 46.5195 132.783C46.3997 132.746 46.2799 132.71 46.1598 132.672Z" fill="#8F7ECE"/>
<path d="M51.1222 134.224C49.916 135.16 48.392 136.358 47.1949 137.557C47.3514 137.61 47.5067 137.664 47.6625 137.715C48.9226 136.629 50.1724 135.405 51.4342 134.325C51.3305 134.292 51.2256 134.257 51.1222 134.224Z" fill="#8F7ECE"/>
<path d="M55.825 135.817C55.6767 135.766 55.5291 135.712 55.3829 135.662C54.1114 136.716 52.8258 137.9 51.5933 139.09C51.7911 139.163 51.9888 139.239 52.1851 139.317C52.2516 139.251 52.317 139.184 52.3823 139.12C53.4838 138.024 54.6853 136.858 55.825 135.817Z" fill="#8F7ECE"/>
<path d="M59.9104 137.391C59.795 137.338 59.6781 137.285 59.5612 137.233C59.2345 137.588 58.905 137.95 58.5566 138.305C57.603 139.273 56.5287 140.331 55.745 141.431C55.8663 141.543 55.9879 141.659 56.1068 141.774C57.3842 140.433 58.6419 138.85 59.9104 137.391Z" fill="#8F7ECE"/>
<path d="M60.2282 144.056C60.3639 144.078 60.4986 144.093 60.6319 144.103C61.4516 143.183 62.2749 142.145 63.0879 141.183C63.0788 141.072 63.0662 140.964 63.0498 140.856C62.1079 141.905 61.1716 143.026 60.2282 144.056Z" fill="#8F7ECE"/>
<path fill-rule="evenodd" clip-rule="evenodd" d="M61.1679 146.04C61.9232 145.775 63.2416 146.059 64.5213 146.415C65.0682 146.569 65.9507 146.829 65.8689 147.336C65.7717 147.942 64.7234 147.803 64.3481 147.753C63.1613 147.592 61.7589 147.157 61.0815 146.708C60.9842 146.545 61.039 146.216 61.1679 146.04Z" fill="white"/>
<path fill-rule="evenodd" clip-rule="evenodd" d="M64.7909 145.158C64.7496 143.868 67.5442 144.253 67.2811 145.292C67.1671 145.741 65.7474 146.059 65.1234 145.744C64.9004 145.63 64.7985 145.38 64.7909 145.158Z" fill="white"/>
<path d="M21.5209 145.568C22.0213 147.058 23.6406 147.86 25.1277 147.359L31.953 145.067C32.1627 144.999 32.2767 144.769 32.2046 144.56C32.1349 144.348 31.9072 144.235 31.696 144.307L24.8701 146.6C23.8031 146.958 22.6427 146.381 22.2853 145.314C21.9255 144.247 22.5027 143.084 23.5694 142.727L31.4546 140.077C32.2017 139.827 33.0114 140.229 33.2625 140.977C33.5113 141.722 33.1105 142.534 32.3634 142.782L25.8469 144.973C25.408 145.122 24.9293 144.883 24.7817 144.444C24.6334 144.003 24.8731 143.526 25.3105 143.376L30.1339 141.758C30.3437 141.688 30.4576 141.46 30.385 141.249C30.3153 141.038 30.0891 140.925 29.8779 140.996L25.0553 142.615C24.1966 142.906 23.7308 143.839 24.0205 144.701C24.3082 145.559 25.2448 146.024 26.1032 145.737L32.6197 143.548C33.7855 143.156 34.4156 141.887 34.0237 140.722C33.6317 139.555 32.3649 138.923 31.2006 139.315L23.3136 141.965C21.8253 142.464 21.0229 144.079 21.5209 145.568Z" fill="#B1BC00"/>
<path d="M115.197 137.411C115.065 137.451 114.927 137.448 114.801 137.408C114.606 137.343 114.441 137.188 114.374 136.977L111.481 127.595C111.414 127.382 111.465 127.161 111.59 126.998C111.672 126.895 111.784 126.812 111.915 126.772L132.064 121.25C132.415 121.141 132.781 121.339 132.889 121.688L135.392 129.804C135.499 130.151 135.306 130.522 134.957 130.628L115.953 137.151L115.197 137.411Z" fill="#4D3D87"/>
<path d="M102.624 137.122L94.4821 139.634L92.8517 137.973L91.9421 137.045L101.676 134.044L102.624 137.122Z" fill="#B1BC00"/>
<path d="M108.097 141.116L103.826 142.434C103.39 142.568 102.923 142.324 102.788 141.884L101.796 138.675C101.664 138.237 101.195 137.987 100.757 138.125L97.9775 138.98C97.5401 139.117 97.074 138.873 96.9378 138.432L96.2537 136.211C96.1195 135.774 96.3659 135.308 96.8021 135.171L99.5839 134.314C100.02 134.179 100.269 133.717 100.134 133.275L99.1418 130.066C99.0085 129.629 99.2558 129.16 99.6917 129.026L103.962 127.708C104.404 127.573 104.867 127.822 105.002 128.258L108.647 140.075C108.784 140.518 108.537 140.98 108.097 141.116Z" fill="#4D3D87"/>
<path d="M107.95 141.322C107.781 141.375 107.6 141.368 107.441 141.319C107.189 141.235 106.976 141.035 106.891 140.76L103.166 128.681C103.082 128.408 103.145 128.122 103.307 127.909C103.412 127.78 103.555 127.673 103.726 127.62L129.674 120.509C130.121 120.369 130.596 120.623 130.733 121.072L133.956 131.522C134.096 131.973 133.845 132.45 133.398 132.588L108.925 140.986L107.95 141.322Z" fill="#B1BC00"/>
<path fill-rule="evenodd" clip-rule="evenodd" d="M124.894 123.243C125.572 123.56 126.828 123.418 128.054 123.204C128.577 123.113 129.423 122.951 129.393 122.47C129.359 121.9 128.369 121.929 128.016 121.943C126.895 121.983 125.549 122.259 124.876 122.614C124.768 122.756 124.789 123.069 124.894 123.243Z" fill="white"/>
<path fill-rule="evenodd" clip-rule="evenodd" d="M128.188 124.403C128.03 125.598 130.669 125.5 130.52 124.508C130.454 124.078 129.159 123.649 128.551 123.885C128.332 123.971 128.215 124.193 128.188 124.403Z" fill="white"/>
<path fill-rule="evenodd" clip-rule="evenodd" d="M107.047 133.85C107.763 134.292 108.403 135.556 108.959 136.837C109.195 137.386 109.564 138.277 109.097 138.546C108.539 138.867 107.958 137.92 107.751 137.581C107.098 136.505 106.527 135.073 106.446 134.221C106.512 134.035 106.818 133.862 107.047 133.85Z" fill="white"/>
<path fill-rule="evenodd" clip-rule="evenodd" d="M110.163 136.226C111.189 135.339 112.721 137.875 111.7 138.347C111.257 138.551 110.058 137.602 109.902 136.885C109.848 136.627 109.986 136.381 110.163 136.226Z" fill="white"/>
<path d="M92.715 146.019L91.7201 146.291L85.8358 147.253C85.387 147.393 84.9136 147.136 84.7735 146.688L81.5512 136.239C81.4126 135.79 81.6604 135.312 82.1116 135.173L88.4895 132.319C88.6618 132.267 88.8408 132.273 89.0005 132.323C89.2536 132.406 89.4666 132.606 89.5489 132.881L93.2755 144.959C93.3593 145.233 93.2971 145.52 93.1345 145.731C93.0311 145.863 92.8864 145.966 92.715 146.019Z" fill="#4D3D87"/>
<path fill-rule="evenodd" clip-rule="evenodd" d="M85.5049 143.354C84.7751 142.949 83.7653 139.71 84.8891 139.434C85.8055 139.211 86.6302 142.09 86.2092 142.981C86.0999 143.212 85.962 143.318 85.5049 143.354Z" fill="white"/>
<path fill-rule="evenodd" clip-rule="evenodd" d="M87.1321 138.992C86.1776 139.581 85.7369 137.94 86.3141 137.6C87.0907 137.14 87.9749 138.473 87.1321 138.992Z" fill="white"/>
<path fill-rule="evenodd" clip-rule="evenodd" d="M84.3095 138.072C83.3123 138.442 82.6622 135.94 83.6134 135.723C84.0142 135.631 84.1859 135.876 84.4352 136.339C84.8041 137.022 85.0062 137.813 84.3095 138.072Z" fill="white"/>
<path fill-rule="evenodd" clip-rule="evenodd" d="M97.4911 104.529C97.5585 103.335 98.7046 101.679 99.9289 100.119C100.452 99.4513 101.319 98.3852 101.968 98.7862C102.75 99.2676 101.958 100.636 101.674 101.122C100.772 102.669 99.3711 104.351 98.3621 105.029C98.085 105.073 97.659 104.809 97.4911 104.529Z" fill="white"/>
<path fill-rule="evenodd" clip-rule="evenodd" d="M99.9917 97.4332C98.1885 96.7521 100.32 93.1184 101.601 94.0752C102.156 94.4921 101.781 96.6328 100.991 97.3114C100.706 97.5531 100.305 97.5501 99.9917 97.4332Z" fill="white"/>
<path fill-rule="evenodd" clip-rule="evenodd" d="M100.141 87.6938C99.4793 87.5186 99.3419 86.5369 99.573 85.5736C99.7588 84.8002 100.469 83.403 101.245 83.8873C101.59 84.1014 101.805 84.8725 101.633 85.6773C101.433 86.6227 100.992 87.9159 100.141 87.6938Z" fill="white"/>
<path fill-rule="evenodd" clip-rule="evenodd" d="M48.5426 90.4336C46.5123 91.3659 46.6705 85.582 48.6155 86.6071C49.6306 87.1395 49.0714 89.4865 48.5426 90.4336Z" fill="white"/>
<path fill-rule="evenodd" clip-rule="evenodd" d="M46.3187 93.6315C46.5073 93.1984 47.1325 92.415 47.9719 92.8624C49.0679 93.4457 49.1684 95.9383 49.3954 96.9186C49.6735 98.1118 50.7311 100.231 49.7171 101.167C48.271 102.5 47.2064 99.1012 46.8873 97.9182C46.72 97.2886 46.6152 96.6558 46.4988 96.117C46.3002 95.1939 45.9522 94.4638 46.3187 93.6315Z" fill="white"/>
</g>
<defs>
<clipPath id="clip0_320_75413">
<rect width="150" height="150" fill="white"/>
</clipPath>
</defs>
</svg>
