<svg width="150" height="150" viewBox="0 0 150 150" fill="none" xmlns="http://www.w3.org/2000/svg">
<g clip-path="url(#clip0_320_74977)">
<path fill-rule="evenodd" clip-rule="evenodd" d="M43.0467 12.1607C47.98 11.6817 53.7981 13.3862 57.9339 14.4204C67.2963 16.7588 76.1513 18.9086 85.1853 21.4654C89.5327 22.6953 94.0473 24.0716 98.4779 25.3197C107.557 27.8808 115.697 29.8431 125.197 32.897C129.274 34.2072 133.851 35.4242 138.222 37.0188C141.884 38.3515 146.584 40.177 148.591 43.6651C149.048 44.4581 149.768 46.0431 149.921 47.2545C150.323 50.4297 149.111 53.9571 148.325 56.8252C145.946 65.5241 142.683 73.6648 140.084 82.0821C137.267 91.2078 135.333 99.1358 133.172 108.667C131.764 114.877 131.112 122.233 122.936 121.294C121.716 121.156 120.671 120.781 119.48 120.498C116.98 119.902 114.255 119.886 112.036 119.434C107.247 118.459 102.433 117.159 98.2116 116.111C88.6576 113.739 80.063 111.468 71.0952 109.066C57.587 105.448 45.5961 100.783 31.7472 96.9693C27.152 95.7028 20.6056 95.0351 18.4546 92.0515C17.9856 91.3994 17.2151 89.844 16.8585 88.7284C16.2401 86.7901 16.867 84.6037 17.2587 82.216C18.9943 71.5789 21.9272 60.6248 24.5686 51.1088C27.1016 41.9846 30.14 35.0946 32.811 26.3832C33.6407 23.6755 34.2902 20.747 35.4691 18.1408C36.8991 14.9823 39.9266 12.4636 43.0467 12.1607Z" fill="#FF5000"/>
<path fill-rule="evenodd" clip-rule="evenodd" d="M94.2568 31.5205C95.9798 30.4386 97.6406 29.2749 100.368 28.996C105.071 28.5129 110.323 29.5582 114.194 30.4582C118.084 31.3626 121.796 32.8518 125.694 34.0462C129.306 35.1551 133.108 36.2862 137.336 37.5047C140.682 38.4668 146.69 39.9023 147.523 42.2886C148.024 43.7241 147.39 45.837 146.796 47.3402C145.094 51.6366 143.478 56.4152 142.138 60.8991C140.358 66.8637 138.011 72.738 136.025 78.9771C134.144 84.888 132.285 91.0456 130.058 97.1889C129.049 99.9782 127.874 102.798 126.712 105.962C125.579 109.039 124.889 112.823 121.765 113.541C119.942 113.955 118.537 113.161 116.668 112.21C115.065 111.392 113.297 110.683 112.159 110.083C109.172 108.513 106.266 106.753 103.57 105.564C97.1361 102.727 87.8036 101.726 81.1558 103.968C77.1269 105.33 74.811 107.11 71.1132 109.684C65.136 101.743 58.7546 96.6876 48.6993 93.0671C45.4438 91.8949 41.9261 90.9021 37.9298 90.675C33.0993 90.4002 25.0655 92.2274 22.7947 89.0789C22.2972 88.3931 21.9143 86.5954 22.0664 84.8259C22.3412 81.6337 23.4202 78.4049 24.1034 75.2566C24.781 72.1362 25.5064 68.9906 26.2884 65.9493C27.755 60.23 29.9651 54.919 31.819 48.4037C34.3011 39.6724 36.7509 30.7963 39.3852 21.4184C40.0163 19.1786 41.3927 13.5762 44.0437 13.5762C46.0963 13.5762 48.4799 14.3004 50.5957 14.906C56.6771 16.6444 62.0695 18.4459 68.6399 19.9576C74.8227 21.3776 81.0958 22.8413 86.2503 25.408C89.5617 27.0521 92.5016 28.4707 94.2568 31.5205Z" fill="#C0B7E4"/>
<path fill-rule="evenodd" clip-rule="evenodd" d="M95.4195 25.5871C96.9945 24.5025 98.5115 23.3388 101.004 23.0614C105.299 22.5783 110.095 23.6233 113.631 24.5207C117.181 25.4265 120.574 26.9168 124.133 28.1116C127.431 29.2187 130.906 30.3499 134.766 31.5686C137.823 32.5322 143.308 33.9677 144.072 36.3525C144.53 37.7895 143.951 39.9024 143.407 41.4042C141.852 45.7008 140.377 50.4792 139.153 54.9645C137.527 60.9276 135.383 66.8019 133.57 73.0424C131.852 78.9534 130.154 85.111 128.12 91.2542C127.197 94.0421 126.125 96.8637 125.063 100.026C124.03 103.103 123.401 106.887 120.544 107.604C118.882 108.022 117.597 107.223 115.89 106.274C114.424 105.455 112.813 104.747 111.769 104.147C109.045 102.577 106.391 100.816 103.928 99.629C98.051 96.7919 89.5256 95.7917 83.4567 98.033C79.7759 99.3923 77.6612 101.174 74.2848 103.748C68.8232 95.8073 62.9955 90.753 53.8133 87.1339C50.8408 85.9603 47.6264 84.9674 43.9763 84.7404C39.5656 84.4656 32.2262 86.2914 30.1525 83.1443C29.6975 82.457 29.3469 80.6593 29.4878 78.8913C29.7386 75.6976 30.7232 72.4688 31.3487 69.3206C31.9672 66.2001 32.6293 63.0545 33.3435 60.0147C34.6833 54.2939 36.6992 48.9832 38.3937 42.4679C40.6631 33.7369 42.9002 24.859 45.3063 15.484C45.8811 13.2428 47.1392 7.64185 49.5579 7.64038C51.4329 7.64038 53.6123 8.36577 55.5406 8.97017C61.0965 10.7083 66.0227 12.5089 72.0254 14.0218C77.67 15.4445 83.3993 16.907 88.1085 19.4722C91.1328 21.1172 93.8193 22.5358 95.4195 25.5871Z" fill="#E2DFF2"/>
<path fill-rule="evenodd" clip-rule="evenodd" d="M126.921 86.728C126.579 87.1886 126.053 86.7928 125.738 86.6803C124.659 86.2971 123.588 85.6165 122.492 85.1448C120.978 84.4927 119.377 83.9586 117.763 83.3697C114.671 82.2427 111.442 81.0298 108.127 80.0425C102.184 78.2689 95.697 77.0984 89.5845 75.4443C88.8336 75.2401 87.9336 75.1036 87.387 74.4948C87.5012 73.9244 88.0842 73.9921 88.5506 73.9862C89.4213 73.9736 90.4242 74.261 91.4358 74.4526C94.0998 74.9542 96.8381 75.7051 99.2472 76.3165C102.792 77.2168 106.24 78.1238 109.594 78.9298C114.939 80.2115 120.076 81.4048 123.897 83.8657C124.493 84.2504 125.09 84.7235 125.662 85.1644C126.156 85.5488 126.996 85.9757 126.921 86.728Z" fill="white"/>
<path fill-rule="evenodd" clip-rule="evenodd" d="M121.005 100.198C120.659 100.659 120.137 100.263 119.82 100.15C118.741 99.7655 117.67 99.0867 116.574 98.6133C115.061 97.9623 113.461 97.4285 111.847 96.8396C108.753 95.7126 105.526 94.4997 102.21 93.5109C96.2666 91.7388 89.7794 90.5681 83.6669 88.9143C82.9175 88.7101 82.016 88.5735 81.4693 87.9662C81.5848 87.3943 82.1681 87.4617 82.6342 87.4547C83.5034 87.4433 84.5062 87.7309 85.5193 87.9211C88.1833 88.4226 90.9202 89.1747 93.3278 89.7876C96.8736 90.6864 100.322 91.5935 103.678 92.3994C109.021 93.6814 114.158 94.8759 117.98 97.3368C118.576 97.72 119.172 98.1932 119.744 98.6344C120.24 99.0176 121.078 99.4459 121.005 100.198Z" fill="white"/>
<path fill-rule="evenodd" clip-rule="evenodd" d="M122.569 96.8877C122.227 97.3497 121.701 96.9539 121.386 96.8396C120.307 96.4579 119.236 95.7773 118.139 95.3042C116.626 94.652 115.027 94.1194 113.411 93.5306C110.319 92.402 107.092 91.1906 103.776 90.2018C97.8325 88.4297 91.3453 87.259 85.2328 85.6051C84.4819 85.4009 83.5805 85.2641 83.0352 84.6556C83.1492 84.0852 83.7325 84.1526 84.2004 84.1456C85.0696 84.1344 86.071 84.4216 87.0855 84.6132C89.748 85.1133 92.4867 85.8668 94.8955 86.4782C98.4398 87.377 101.888 88.2841 105.244 89.0897C110.587 90.3718 115.725 91.565 119.545 94.026C120.141 94.4106 120.739 94.8838 121.31 95.3262C121.804 95.7085 122.644 96.1354 122.569 96.8877Z" fill="white"/>
<path fill-rule="evenodd" clip-rule="evenodd" d="M124.236 89.6116C123.388 89.8384 122.495 89.406 121.75 89.1086C116.505 87.0183 110.815 84.8699 104.945 83.1118C99.9839 81.6256 94.5886 80.3875 89.4607 78.8406C88.6888 78.6068 87.7803 78.3209 87.0109 78.0235C86.3377 77.7643 85.3923 77.5108 85.4189 76.5854C86.343 76.1289 87.8702 76.5783 89.2773 76.8388C95.594 78.0095 101.774 79.7646 107.175 81.5257C112.039 83.1103 116.416 84.9417 120.706 87.0153C121.354 87.3279 122.064 87.7097 122.732 88.1043C123.288 88.4324 124.255 88.7479 124.236 89.6116Z" fill="white"/>
<path fill-rule="evenodd" clip-rule="evenodd" d="M124.236 93.5253C123.388 93.752 122.495 93.3196 121.75 93.0223C116.505 90.9316 110.815 88.7836 104.945 87.0255C99.9839 85.5378 94.5886 84.3009 89.4607 82.7543C88.6888 82.522 87.7803 82.2357 87.0109 81.9372C86.3377 81.6779 85.3923 81.4245 85.4189 80.4987C86.343 80.0423 87.8702 80.4902 89.2773 80.7524C95.594 81.9231 101.774 83.6783 107.175 85.4391C112.039 87.024 116.416 88.8554 120.706 90.9287C121.354 91.2416 122.064 91.6219 122.732 92.0177C123.288 92.3461 124.255 92.6616 124.236 93.5253Z" fill="white"/>
<path fill-rule="evenodd" clip-rule="evenodd" d="M106.835 27.4679C106.48 29.5319 106.005 31.4968 105.503 33.4365C103.393 32.9183 101.339 32.3461 98.9755 32.0772C99.291 31.2375 99.5784 30.298 99.9912 29.3836C100.322 28.6553 100.877 27.5382 101.558 27.2113C102.18 26.9113 103.123 26.8802 103.802 26.9139C104.831 26.9663 105.839 27.4157 106.835 27.4679Z" fill="#8F7ECE"/>
<path fill-rule="evenodd" clip-rule="evenodd" d="M108.275 27.7483C110.295 28.2103 112.032 28.9542 113.917 29.553C113.259 31.3843 112.569 33.1931 112.042 35.1358C110.26 34.8159 108.758 34.2188 107.023 33.8497C107.486 31.8548 107.899 29.8164 108.275 27.7483Z" fill="#8F7ECE"/>
<path fill-rule="evenodd" clip-rule="evenodd" d="M115.216 30.0417C116.743 30.5404 118.202 31.1108 119.721 31.6223C119.397 33.5155 118.725 35.1189 118.284 36.9163C116.674 36.4712 115.116 35.9782 113.489 35.5513C114.041 33.6959 114.644 31.8831 115.216 30.0417Z" fill="#8F7ECE"/>
<path fill-rule="evenodd" clip-rule="evenodd" d="M126.597 34.1211C126.16 35.8341 125.711 37.5357 125.307 39.2742C123.467 38.6317 121.579 38.0373 119.737 37.3992C120.211 35.6751 120.709 33.9703 121.099 32.1755C122.988 32.7688 124.755 33.4816 126.597 34.1211Z" fill="#8F7ECE"/>
<path fill-rule="evenodd" clip-rule="evenodd" d="M105.183 34.8102C104.823 36.1273 104.44 37.4261 104.146 38.7954C101.757 38.5757 99.7717 37.9572 97.1148 38.0009C97.5938 36.4329 98.0629 34.8579 98.5756 33.3184C100.896 33.6972 103.026 34.2676 105.183 34.8102Z" fill="#8F7ECE"/>
<path fill-rule="evenodd" clip-rule="evenodd" d="M111.574 36.5146C111.177 37.8233 110.754 39.1109 110.305 40.3745C108.78 39.9195 107.214 39.4997 105.589 39.1432C105.959 37.857 106.306 36.5498 106.628 35.2241C108.368 35.5666 109.884 36.1259 111.574 36.5146Z" fill="#8F7ECE"/>
<path fill-rule="evenodd" clip-rule="evenodd" d="M131.94 36.0076C131.438 37.7291 130.818 39.3533 130.347 41.1029C129.061 40.7648 128.026 40.18 126.758 39.8253C127.196 38.1152 127.478 36.2739 127.969 34.6086C129.302 35.0666 130.591 35.5667 131.94 36.0076Z" fill="#8F7ECE"/>
<path fill-rule="evenodd" clip-rule="evenodd" d="M113.02 36.9302C114.75 37.2794 116.264 37.8401 117.89 38.291C117.524 39.6463 117.074 40.9324 116.781 42.3469C115.064 41.9156 113.571 41.262 111.828 40.8536C112.106 39.4477 112.718 38.3177 113.02 36.9302Z" fill="#8F7ECE"/>
<path fill-rule="evenodd" clip-rule="evenodd" d="M133.24 36.4963C134.526 36.9273 137.033 37.7163 137.701 38.8263C138.614 40.3421 137.34 42.2397 137.233 43.8751C135.342 43.2129 133.619 42.3859 131.728 41.7252C132.238 39.9874 132.837 38.325 133.24 36.4963Z" fill="#8F7ECE"/>
<path fill-rule="evenodd" clip-rule="evenodd" d="M103.675 40.1747C103.424 41.8651 102.865 43.3021 102.518 44.9123C100.188 44.5868 97.7877 44.3319 95.3382 44.1248C95.7525 42.4373 96.1849 40.7665 96.7893 39.2366C99.2769 39.3605 101.372 39.8691 103.675 40.1747Z" fill="#8F7ECE"/>
<path fill-rule="evenodd" clip-rule="evenodd" d="M119.341 38.7742C121.242 39.38 123.1 40.0266 124.988 40.6462C124.606 42.0551 124.223 43.4622 123.885 44.9063C121.926 44.3119 120.164 43.5229 118.234 42.8989C118.499 41.4381 118.975 40.152 119.341 38.7742Z" fill="#8F7ECE"/>
<path fill-rule="evenodd" clip-rule="evenodd" d="M109.911 41.7496C109.422 43.1992 109.017 44.7206 108.515 46.1588C107.078 45.7797 105.564 45.477 104.035 45.1896C104.429 43.6176 104.825 42.0467 105.27 40.5156C106.869 40.8763 108.447 41.258 109.911 41.7496Z" fill="#8F7ECE"/>
<path fill-rule="evenodd" clip-rule="evenodd" d="M126.363 41.2014C127.614 41.5506 128.668 42.0917 129.877 42.482C129.474 43.9161 129.01 45.2995 128.548 46.684C127.447 46.3278 126.417 45.905 125.339 45.5262C125.569 43.9908 126.123 42.7257 126.363 41.2014Z" fill="#8F7ECE"/>
<path fill-rule="evenodd" clip-rule="evenodd" d="M116.312 43.7274C115.978 45.1952 115.513 46.5561 115.137 47.9901C113.41 47.5196 111.756 46.9773 110.033 46.5039C110.465 45.0502 110.936 43.6272 111.357 42.165C113.059 42.6355 114.668 43.1992 116.312 43.7274Z" fill="#8F7ECE"/>
<path fill-rule="evenodd" clip-rule="evenodd" d="M131.259 43.1045C133.223 43.7174 134.915 44.5992 136.839 45.2514C136.414 46.6655 135.949 48.0478 135.587 49.517C133.775 48.7069 131.92 47.9405 130.001 47.2348C130.39 45.8347 130.929 44.557 131.259 43.1045Z" fill="#8F7ECE"/>
<path fill-rule="evenodd" clip-rule="evenodd" d="M123.418 46.3543C123.117 47.7618 122.673 49.0535 122.308 50.4099C120.494 49.6716 118.585 49.028 116.586 48.4731C116.978 47.0742 117.396 45.6978 117.765 44.2781C119.732 44.8895 121.611 45.5853 123.418 46.3543Z" fill="#8F7ECE"/>
<path fill-rule="evenodd" clip-rule="evenodd" d="M102.048 46.2911C101.618 48.1831 101.07 49.9775 100.548 51.7907C98.3008 51.4075 96.0623 51.0158 93.5873 50.8582C93.969 49.079 94.4466 47.3801 94.8734 45.639C94.8664 45.5221 94.9226 45.4614 95.0158 45.4292C97.5034 45.5754 99.7461 45.963 102.048 46.2911Z" fill="#8F7ECE"/>
<path fill-rule="evenodd" clip-rule="evenodd" d="M108.116 47.4659C107.584 49.2958 107.009 51.0891 106.54 52.9699C105.053 52.6629 103.562 52.3641 102.063 52.0685C102.573 50.2427 103.126 48.4538 103.565 46.5688C105.197 46.7561 106.578 47.1885 108.116 47.4659Z" fill="#8F7ECE"/>
<path fill-rule="evenodd" clip-rule="evenodd" d="M124.872 46.9055C126.01 47.1985 126.932 47.7056 128.075 47.9945C127.779 49.5188 127.193 50.8008 126.824 52.2616C125.809 51.8447 124.845 51.3783 123.763 51.0305C124.065 49.5988 124.544 48.3141 124.872 46.9055Z" fill="#8F7ECE"/>
<path fill-rule="evenodd" clip-rule="evenodd" d="M114.741 49.3664C114.236 51.1315 113.74 52.9022 113.231 54.663C111.441 54.2531 109.818 53.6812 107.984 53.3177C108.525 51.5174 109.053 49.7086 109.563 47.8813C111.382 48.2859 113.007 48.8804 114.741 49.3664Z" fill="#8F7ECE"/>
<path fill-rule="evenodd" clip-rule="evenodd" d="M135.193 50.8933C134.841 52.5881 134.316 54.1388 133.97 55.8392C132.039 54.8856 130.132 53.9094 128.279 52.8796C128.591 51.3708 129.165 50.0791 129.53 48.614C131.539 49.255 133.341 50.1002 135.193 50.8933Z" fill="#8F7ECE"/>
<path fill-rule="evenodd" clip-rule="evenodd" d="M121.914 51.7864C121.395 53.6052 120.8 55.3574 120.257 57.1565C118.381 56.527 116.669 55.7351 114.684 55.2139C115.162 53.4051 115.692 51.6399 116.19 49.8496C118.235 50.3611 120.096 51.054 121.914 51.7864Z" fill="#8F7ECE"/>
<path fill-rule="evenodd" clip-rule="evenodd" d="M100.154 53.1687C99.7104 54.8731 99.1526 56.4848 98.7075 58.1907C96.4042 57.816 94.3602 57.1864 92.0316 56.8369C92.4781 55.2859 92.8347 53.6617 93.263 52.0952C95.6322 52.3812 97.9285 52.7403 100.154 53.1687Z" fill="#8F7ECE"/>
<path fill-rule="evenodd" clip-rule="evenodd" d="M123.294 52.4092C124.455 52.7051 125.373 53.2389 126.429 53.6376C125.879 55.4294 125.288 57.1875 124.85 59.0725C123.729 58.6907 122.684 58.2328 121.709 57.709C122.172 55.8888 122.85 54.2446 123.294 52.4092Z" fill="#8F7ECE"/>
<path fill-rule="evenodd" clip-rule="evenodd" d="M106.069 54.2813C105.703 56.0957 105.147 57.7524 104.785 59.5682C103.133 59.3511 101.735 58.8906 100.154 58.6061C100.67 56.8931 101.183 55.1787 101.67 53.4446C103.191 53.6699 104.561 54.0446 106.069 54.2813Z" fill="#8F7ECE"/>
<path fill-rule="evenodd" clip-rule="evenodd" d="M112.763 56.0409C112.326 57.7975 111.718 59.4106 111.244 61.1347C109.534 60.7656 107.865 60.3572 106.228 59.9163C106.705 58.1962 107.113 56.4156 107.59 54.6941C109.431 55.0292 111.061 55.5689 112.763 56.0409Z" fill="#8F7ECE"/>
<path fill-rule="evenodd" clip-rule="evenodd" d="M127.814 54.3279C129.758 55.29 131.73 56.2269 133.507 57.3537C133.152 59.1329 132.707 60.8388 132.373 62.6335C130.292 61.7107 128.24 60.76 126.234 59.7624C126.687 57.8904 127.265 56.1211 127.814 54.3279Z" fill="#8F7ECE"/>
<path fill-rule="evenodd" clip-rule="evenodd" d="M119.788 58.5357C119.385 60.188 118.786 61.6798 118.409 63.3506C116.437 62.8406 114.693 62.1041 112.694 61.618C113.209 59.9065 113.706 58.1794 114.287 56.5227C116.159 57.1538 118.008 57.8129 119.788 58.5357Z" fill="#8F7ECE"/>
<path fill-rule="evenodd" clip-rule="evenodd" d="M98.2384 59.5696C97.7272 61.3713 97.2016 63.1617 96.6564 64.9368C94.5997 64.4844 92.5668 64.0083 90.2875 63.7746C90.8257 61.9277 91.1723 59.9232 91.7849 58.1384C94.0264 58.5257 96.0379 59.1401 98.2384 59.5696Z" fill="#8F7ECE"/>
<path fill-rule="evenodd" clip-rule="evenodd" d="M104.389 60.9446C104.032 62.8307 103.55 64.6143 103.19 66.5004C101.559 66.0551 99.901 65.6327 98.1754 65.2805C98.6937 63.4843 99.1996 61.677 99.7575 59.9133C101.255 60.3021 102.799 60.6446 104.389 60.9446Z" fill="#8F7ECE"/>
<path fill-rule="evenodd" clip-rule="evenodd" d="M121.243 59.1555C122.332 59.5909 123.462 59.9908 124.387 60.5881C124.035 62.1728 123.603 63.693 123.226 65.2581C122.054 64.8327 120.988 64.303 119.785 63.9057C120.283 62.3322 120.73 60.7179 121.243 59.1555Z" fill="#8F7ECE"/>
<path fill-rule="evenodd" clip-rule="evenodd" d="M110.775 62.5141C110.311 64.4213 109.714 66.2175 109.201 68.0855C107.714 67.6867 106.279 67.2332 104.713 66.9118C105.016 64.9806 105.501 63.1984 105.912 61.3574C107.597 61.68 109.176 62.1068 110.775 62.5141Z" fill="#8F7ECE"/>
<path fill-rule="evenodd" clip-rule="evenodd" d="M125.842 61.2065C127.937 62.1391 129.957 63.1448 132.054 64.0747C131.73 65.7045 131.336 67.2766 130.977 68.8782C128.85 67.9047 126.716 66.9399 124.681 65.8762C125.021 64.2818 125.436 62.7479 125.842 61.2065Z" fill="#8F7ECE"/>
<path fill-rule="evenodd" clip-rule="evenodd" d="M112.296 62.9265C114.185 63.5183 116.073 64.1139 117.939 64.7309C117.479 66.6411 116.94 68.4865 116.521 70.4306C114.609 69.7896 112.696 69.1486 110.725 68.5656C111.144 66.5977 111.76 64.7959 112.296 62.9265Z" fill="#8F7ECE"/>
<path fill-rule="evenodd" clip-rule="evenodd" d="M96.2612 66.3133C95.7822 68.0107 95.2285 69.6464 94.7413 71.3383C93.1186 70.8522 90.6266 70.4295 89.9023 68.9576C89.3911 67.9193 89.8121 66.4686 89.9741 65.2838C89.9712 65.2161 89.9686 65.1473 89.9656 65.0811C92.3111 65.2498 94.2087 65.8568 96.2612 66.3133Z" fill="#8F7ECE"/>
<path fill-rule="evenodd" clip-rule="evenodd" d="M119.391 65.282C120.594 65.7018 121.742 66.1752 122.835 66.702C122.494 68.6025 121.964 70.3436 121.715 72.3214C120.391 71.9511 119.298 71.3538 117.974 70.9831C118.402 69.046 118.892 67.1614 119.391 65.282Z" fill="#8F7ECE"/>
<path fill-rule="evenodd" clip-rule="evenodd" d="M102.873 67.8728C102.587 69.7097 102.113 71.3917 101.816 73.2189C99.8791 72.8131 98.0521 72.299 96.1897 71.8214C96.708 70.09 97.2365 68.3673 97.7814 66.6584C99.575 66.9669 101.212 67.4319 102.873 67.8728Z" fill="#8F7ECE"/>
<path fill-rule="evenodd" clip-rule="evenodd" d="M124.294 67.3894C126.444 68.3149 128.587 69.2459 130.512 70.3926C130.17 72.1619 129.581 73.7243 129.375 75.6063C127.241 74.7851 125.299 73.7708 123.098 73.0115C123.457 71.1057 123.849 69.2251 124.294 67.3894Z" fill="#8F7ECE"/>
<path fill-rule="evenodd" clip-rule="evenodd" d="M108.881 69.4573C108.4 71.1984 108.031 73.0313 107.599 74.8134C106.148 74.4261 104.685 74.0499 103.262 73.6342C103.654 71.8635 104 70.0547 104.395 68.2852C105.96 68.608 107.392 69.0601 108.881 69.4573Z" fill="#8F7ECE"/>
<path fill-rule="evenodd" clip-rule="evenodd" d="M116.205 71.8719C115.929 73.6511 115.452 75.2642 115.219 77.08C113.123 76.5474 111.175 75.8701 109.125 75.2938C109.401 73.4033 109.918 71.7158 110.332 69.9407C112.354 70.5237 114.34 71.1377 116.205 71.8719Z" fill="#8F7ECE"/>
<path fill-rule="evenodd" clip-rule="evenodd" d="M117.657 72.4229C119.049 72.727 120.104 73.3624 121.399 73.7626C121.165 75.4911 120.768 77.0816 120.557 78.8283C119.375 78.5986 118.014 77.9354 116.67 77.631C116.908 75.8207 117.38 74.2021 117.657 72.4229Z" fill="#8F7ECE"/>
<path fill-rule="evenodd" clip-rule="evenodd" d="M122.858 74.4497C124.994 75.2472 127.065 76.1105 128.987 77.1163C128.68 78.594 128.475 80.3521 126.953 80.6677C126.024 80.8622 125.06 80.4957 124.228 80.2379C123.409 79.9842 122.617 79.7448 122.01 79.3786C122.248 77.6996 122.596 76.1091 122.858 74.4497Z" fill="#8F7ECE"/>
<g opacity="0.94">
<g opacity="0.94">
<path opacity="0.94" fill-rule="evenodd" clip-rule="evenodd" d="M91.55 29.7373C91.1838 30.2289 90.626 29.8079 90.2893 29.6881C89.1427 29.2797 88.0045 28.5569 86.8367 28.0539C85.228 27.3596 83.5247 26.7932 81.8076 26.1663C78.5182 24.9675 75.084 23.6769 71.5578 22.6261C65.2355 20.7411 58.3344 19.496 51.8331 17.7364C51.0345 17.5193 50.075 17.3743 49.4946 16.7263C49.6174 16.1178 50.2385 16.191 50.7342 16.184C51.6582 16.1714 52.7261 16.4769 53.8024 16.68C56.6366 17.214 59.5473 18.0139 62.111 18.6648C65.8807 19.6214 69.5489 20.5861 73.1173 21.4428C78.8029 22.8065 84.2671 24.0771 88.3314 26.6945C88.9669 27.1029 89.6006 27.6074 90.2094 28.0765C90.7358 28.4834 91.6276 28.9384 91.55 29.7373Z" fill="#8F7ECE"/>
<path opacity="0.94" fill-rule="evenodd" clip-rule="evenodd" d="M88.692 32.8067C87.7905 33.0476 86.841 32.587 86.0494 32.2715C80.4681 30.0484 74.4162 27.7621 68.1716 25.8915C62.8946 24.3109 57.1542 22.9938 51.7009 21.3484C50.8797 21.1006 49.9147 20.7962 49.0949 20.4792C48.3792 20.2032 47.3735 19.9354 47.4016 18.9493C48.3848 18.4633 50.0078 18.9408 51.5067 19.2197C58.2247 20.4651 64.8007 22.3316 70.5455 24.2052C75.7182 25.8915 80.3755 27.8383 84.9367 30.0443C85.6269 30.3783 86.3834 30.7826 87.0921 31.201C87.6833 31.5517 88.7116 31.8868 88.692 32.8067Z" fill="#8F7ECE"/>
</g>
<g opacity="0.94">
<g opacity="0.94">
<path opacity="0.94" fill-rule="evenodd" clip-rule="evenodd" d="M75.8866 71.1589C74.7189 70.866 73.53 70.58 72.3312 70.2926C68.7628 69.4374 65.0945 68.4712 61.3249 67.5147C58.7623 66.8637 55.8493 66.0636 53.0149 65.5313C51.94 65.3271 50.8721 65.0227 49.9466 65.0353C49.4521 65.0409 48.831 64.9691 48.7082 65.5776C49.2886 66.2256 50.2481 66.3692 51.0467 66.5863C57.548 68.3458 64.4477 69.591 70.7699 71.4774C72.2506 71.9168 73.7128 72.4014 75.1554 72.9015C75.3725 72.3238 75.6148 71.7434 75.8866 71.1589Z" fill="#8F7ECE"/>
<path opacity="0.94" fill-rule="evenodd" clip-rule="evenodd" d="M74.5541 74.7482C72.9988 74.1564 71.4056 73.5916 69.7588 73.0548C64.0128 71.1813 57.4383 69.3148 50.7202 68.0694C49.2214 67.7919 47.5984 67.3144 46.6152 67.799C46.587 68.7851 47.5928 69.054 48.3071 69.3303C49.1283 69.6473 50.0933 69.9514 50.913 70.1981C56.3675 71.8434 62.1094 73.1606 67.3852 74.7412C69.6405 75.4173 71.8664 76.1512 74.057 76.9132C74.1906 76.1767 74.3555 75.4584 74.5541 74.7482Z" fill="#8F7ECE"/>
</g>
<g opacity="0.94">
<path opacity="0.94" fill-rule="evenodd" clip-rule="evenodd" d="M74.5537 78.9926C73.3845 78.6997 72.1971 78.4167 70.9983 78.1278C67.4299 77.2715 63.7602 76.3064 59.9905 75.3484C57.4294 74.6989 54.5161 73.8988 51.6819 73.365C50.6059 73.1623 49.538 72.8564 48.6137 72.869C48.1177 72.8746 47.4966 72.8028 47.3753 73.4113C47.9557 74.0594 48.9152 74.2044 49.7138 74.42C56.2136 76.1796 63.1148 77.4261 69.437 79.3111C70.9177 79.752 72.3799 80.2366 73.8225 80.7382C74.0396 80.1578 74.2818 79.5774 74.5537 78.9926Z" fill="#8F7ECE"/>
<path opacity="0.94" fill-rule="evenodd" clip-rule="evenodd" d="M73.2215 82.582C71.665 81.9917 70.073 81.4268 68.4247 80.8901C62.6799 79.0166 56.1057 77.1486 49.3859 75.9032C47.8885 75.6258 46.2643 75.1497 45.2823 75.6343C45.2541 76.6189 46.2599 76.8893 46.9742 77.1641C47.7953 77.4826 48.7589 77.7852 49.5804 78.0334C55.0349 79.6787 60.7753 80.9959 66.0523 82.5765C68.3076 83.2526 70.5321 83.9865 72.7241 84.7474C72.8582 84.0105 73.0214 83.2919 73.2215 82.582Z" fill="#8F7ECE"/>
</g>
</g>
<g opacity="0.94">
<path opacity="0.94" fill-rule="evenodd" clip-rule="evenodd" d="M62.9712 29.9527C63.2908 28.6215 65.1351 28.8963 66.4959 29.0062C69.4232 29.2429 71.7447 29.692 74.1479 30.6403C74.8903 30.9333 77.0132 31.6801 76.8131 32.532C76.5963 33.4479 73.7477 32.6249 73.2872 32.532C70.722 32.0065 68.8174 31.4686 66.2381 30.984C65.0519 30.7602 63.7672 30.6855 62.9712 29.9527Z" fill="white"/>
<path opacity="0.94" fill-rule="evenodd" clip-rule="evenodd" d="M63.4006 32.5319C65.8363 32.1332 68.2 32.8673 70.6216 33.5631C71.6092 33.8464 75.293 34.607 75.0929 35.713C74.9098 36.7258 72.9575 36.1679 71.9122 35.9693C69.4301 35.4988 67.5818 35.0394 65.1194 34.5086C64.1599 34.3014 62.3274 34.1394 62.2823 33.3056C62.2468 32.6125 62.7991 32.6292 63.4006 32.5319Z" fill="white"/>
<path opacity="0.94" fill-rule="evenodd" clip-rule="evenodd" d="M60.5332 37.6332C60.8543 36.302 62.6971 36.578 64.0579 36.6881C66.9853 36.9234 69.3067 37.3728 71.71 38.3208C72.4524 38.6153 74.5752 39.3606 74.3754 40.2128C74.1586 41.1298 71.3115 40.3072 70.8507 40.2128C68.2855 39.6887 66.3794 39.1505 63.8001 38.6645C62.6139 38.4418 61.3307 38.3657 60.5332 37.6332Z" fill="white"/>
<path opacity="0.94" fill-rule="evenodd" clip-rule="evenodd" d="M60.9628 40.2126C63.3985 39.8138 65.7607 40.5477 68.1838 41.245C69.1711 41.528 72.8523 42.2889 72.6537 43.3933C72.472 44.4076 70.5194 43.8498 69.4729 43.6512C66.9909 43.1806 65.144 42.7216 62.6816 42.1904C61.721 41.9833 59.8881 41.8213 59.8445 40.986C59.8076 40.2929 60.3613 40.311 60.9628 40.2126Z" fill="white"/>
<path opacity="0.94" fill-rule="evenodd" clip-rule="evenodd" d="M59.6788 44.2525C62.9894 43.9411 67.3113 45.0019 70.2556 46.0572C71.3882 46.4659 72.7054 47.0489 72.6618 47.6913C72.58 48.9001 70.0403 48.0746 69.137 47.8633C66.2223 47.1871 64.5755 46.7067 61.4865 46.1448C60.7863 46.0179 57.9887 45.8659 58.0464 44.9404C58.0871 44.2976 58.928 44.3231 59.6788 44.2525Z" fill="white"/>
</g>
<g opacity="0.94">
<path opacity="0.94" fill-rule="evenodd" clip-rule="evenodd" d="M48.9909 25.2686C49.0967 25.2446 49.7854 25.1558 50.2811 25.1828C52.7268 25.3137 55.706 26.0295 58.1898 26.7294C59.2266 27.0223 60.1351 27.3153 60.0815 27.9338C60.0056 28.8071 58.0952 28.5115 56.9866 28.3635C54.7129 28.0606 52.8253 27.7225 50.6248 27.1606C49.8839 26.9705 48.0636 26.5732 48.0455 25.9562C48.0299 25.4631 48.5992 25.3618 48.9909 25.2686Z" fill="white"/>
<path opacity="0.94" fill-rule="evenodd" clip-rule="evenodd" d="M45.5318 30.1667C45.8517 28.834 47.6957 29.1103 49.0565 29.2201C51.9838 29.4569 54.3039 29.9048 56.7071 30.8543C57.4495 31.1473 59.5723 31.8941 59.3725 32.7448C59.1569 33.6618 56.3087 32.8407 55.8478 32.7448C53.2826 32.2207 51.378 31.684 48.7987 31.198C47.6128 30.9753 46.3278 30.8994 45.5318 30.1667Z" fill="white"/>
<path opacity="0.94" fill-rule="evenodd" clip-rule="evenodd" d="M45.9599 32.7449C48.3957 32.3462 50.7594 33.0815 53.181 33.7773C54.1686 34.0603 57.851 34.8212 57.6509 35.9271C57.4692 36.9399 55.5166 36.3821 54.4713 36.185C51.9892 35.713 50.1409 35.2539 47.6785 34.7227C46.719 34.5156 44.885 34.3536 44.8414 33.5198C44.8048 32.8252 45.357 32.8434 45.9599 32.7449Z" fill="white"/>
<path opacity="0.94" fill-rule="evenodd" clip-rule="evenodd" d="M43.0921 37.8472C43.4132 36.5159 45.256 36.7919 46.6168 36.9018C49.5442 37.1385 51.8656 37.5864 54.2689 38.5345C55.0113 38.8275 57.1356 39.5742 56.9343 40.4265C56.7175 41.3435 53.8704 40.5208 53.4096 40.4265C50.8429 39.9026 48.9398 39.3645 46.359 38.8784C45.1728 38.6558 43.8881 38.5811 43.0921 37.8472Z" fill="white"/>
<path opacity="0.94" fill-rule="evenodd" clip-rule="evenodd" d="M43.5219 40.4263C45.9577 40.0276 48.3228 40.7629 50.7445 41.4576C51.7321 41.742 55.4144 42.5014 55.2143 43.6088C55.0327 44.6202 53.08 44.0638 52.0336 43.8652C49.5515 43.3947 47.7046 42.9356 45.2422 42.4044C44.2828 42.1958 42.4488 42.0353 42.4051 41.2001C42.3682 40.5066 42.9216 40.5248 43.5219 40.4263Z" fill="white"/>
</g>
<path opacity="0.94" fill-rule="evenodd" clip-rule="evenodd" d="M41.626 45.2783C42.3769 45.053 44.1731 45.36 45.0646 45.5361C47.1101 45.9418 49.109 46.1208 51.0827 46.8251C51.6813 47.0408 52.9012 47.6803 53.1464 48.3732C53.452 49.241 53.1238 50.8385 52.8871 51.8979C52.3911 54.1265 51.8884 55.6042 51.2544 58.0019C51.0077 58.9318 50.6781 60.2771 49.9642 60.5826C49.0076 60.9896 47.4482 60.5065 46.6114 60.3234C45.5409 60.0896 44.5504 59.8303 43.5165 59.6361C41.8401 59.3205 38.517 59.0853 37.9281 57.4863C37.5775 56.5353 38.0817 55.2184 38.3591 54.1335C38.9198 51.9316 39.5679 50.1412 40.0777 47.9437C40.3443 46.7952 40.5795 45.5923 41.626 45.2783Z" fill="#8F7ECE"/>
<path opacity="0.94" fill-rule="evenodd" clip-rule="evenodd" d="M59.0385 49.4747C59.7909 49.2494 61.5856 49.555 62.4771 49.734C64.5226 50.1383 66.523 50.3173 68.4964 51.0216C69.0952 51.2372 70.3137 51.8753 70.5589 52.5699C70.8645 53.4363 70.5378 55.0353 70.3011 56.0944C69.8051 58.3215 69.3024 59.8007 68.6684 62.1984C68.422 63.1282 68.0921 64.4736 67.3779 64.7777C66.4199 65.1846 64.8618 64.703 64.0237 64.5198C62.9532 64.2861 61.9626 64.0253 60.9302 63.8325C59.2524 63.517 55.9292 63.2818 55.3418 61.6827C54.9911 60.7318 55.4953 59.4149 55.7716 58.33C56.3324 56.1269 56.9819 54.3377 57.4902 52.1402C57.7579 50.9905 57.9917 49.7888 59.0385 49.4747Z" fill="#8F7ECE"/>
</g>
<path d="M67.0383 90.0579C68.5963 89.9451 70.8841 84.2624 71.3364 83.3173C71.1674 86.2572 70.573 91.5723 71.8761 91.9795C74.1809 92.6993 77.2474 78.9321 78.4732 74.1312C82.9571 56.607 87.1635 38.6571 91.815 21.6541C90.6838 20.8666 89.4287 20.1919 88.1072 19.4721C86.8957 18.8129 85.6152 18.2255 84.2868 17.6929C79.0913 38.0472 73.0116 58.0285 68.2981 78.3351C67.5129 81.7183 65.5647 90.1651 67.0383 90.0579Z" fill="#889922"/>
<path opacity="0.37" fill-rule="evenodd" clip-rule="evenodd" d="M86.8471 55.8886C85.0749 54.4771 92.3127 32.2985 93.9568 32.2323C95.3373 32.1757 88.4361 57.1563 86.8471 55.8886Z" fill="#8F7ECE"/>
<path opacity="0.37" fill-rule="evenodd" clip-rule="evenodd" d="M85.1848 59.3512C87.1992 58.7948 84.8778 69.0347 83.855 71.9775C83.4097 73.2552 78.409 93.8014 77.2002 93.6956C74.8392 93.4855 83.7914 59.7344 85.1848 59.3512Z" fill="#8F7ECE"/>
<path fill-rule="evenodd" clip-rule="evenodd" d="M51.5142 11.6521C53.9074 11.462 52.3143 15.4332 51.7184 16.6853C51.1562 17.8671 50.4041 19.6408 49.1502 19.2535C48.0302 18.9054 48.7726 16.5614 49.1502 15.35C49.6673 13.6962 49.9181 11.7775 51.5142 11.6521Z" fill="white"/>
<path fill-rule="evenodd" clip-rule="evenodd" d="M56.7505 12.3709C57.707 12.2343 58.9565 12.4511 58.8056 13.7062C58.6266 15.191 55.2894 14.8939 55.5177 13.1935C55.5856 12.6919 55.7784 12.5103 56.7505 12.3709Z" fill="white"/>
<path fill-rule="evenodd" clip-rule="evenodd" d="M139.66 36.8989C139.645 39.0909 139.109 41.2237 138.464 43.014C137.875 44.6412 137.232 46.8106 135.406 47.2682C134.4 46.2736 135.303 43.8393 135.805 41.684C136.375 39.2292 137.033 34.9958 139.66 36.8989Z" fill="white"/>
<path fill-rule="evenodd" clip-rule="evenodd" d="M130.752 49.6592C130.44 47.7124 132.803 44.9656 133.543 47.0023C134.005 48.2688 132.065 51.5975 130.752 49.6592Z" fill="white"/>
<path fill-rule="evenodd" clip-rule="evenodd" d="M40.3877 65.3309C40.2638 67.9286 39.858 69.8036 39.1903 72.2435C38.7579 73.824 38.0914 77.364 36.2645 77.2966C33.5768 77.1952 35.8546 70.9081 36.3998 69.3205C36.7634 68.2541 37.248 67.4851 37.4636 66.927C37.9297 65.717 37.9045 64.5252 39.1906 64.6673C39.9002 64.745 40.0019 64.9591 40.3877 65.3309Z" fill="white"/>
<path fill-rule="evenodd" clip-rule="evenodd" d="M43.7113 72.6437C44.9708 73.8681 43.4324 76.7275 42.2491 76.7644C39.9598 76.8347 41.5673 74.0567 42.5154 72.9086C42.6604 72.7311 43.2141 72.5409 43.7113 72.6437Z" fill="white"/>
<path fill-rule="evenodd" clip-rule="evenodd" d="M36.1334 78.625C37.6633 78.3406 43.5927 79.1082 42.7797 81.6833C42.3529 83.0372 39.63 82.1568 38.2607 81.9467C36.7929 81.7255 34.3079 81.7144 34.4052 79.9548C34.4656 78.8673 35.5416 78.7349 36.1334 78.625Z" fill="white"/>
<path fill-rule="evenodd" clip-rule="evenodd" d="M50.8685 48.4081C50.5796 48.7222 49.8513 48.3404 49.3231 48.2361C47.6663 47.9065 45.7547 47.4993 44.129 47.1712C43.2812 50.0563 42.3047 53.4905 41.5231 56.6801C41.4076 57.1476 41.4062 57.7576 40.9764 58.0649C40.6116 57.8016 40.6735 57.2282 40.6623 56.814C40.6272 55.4517 40.7215 53.874 40.6102 52.5217C40.2199 52.6104 40.241 53.3783 39.6862 53.1923C39.7283 52.64 40.2665 52.147 40.6398 51.8385C41.2301 52.2893 41.0751 53.2034 41.0877 53.9502C41.0991 54.7433 41.1525 55.5759 41.1314 56.3071C42.0879 53.2529 42.7781 49.7581 43.8024 46.8138C44.9616 46.7446 46.5325 47.3024 47.8568 47.4618C48.5962 47.552 49.5457 47.8195 50.3306 48.0688C50.5008 48.1236 50.9347 48.0896 50.8685 48.4081Z" fill="white"/>
<path fill-rule="evenodd" clip-rule="evenodd" d="M46.6462 49.5814C46.4531 50.0589 46.0503 50.1843 45.7389 50.4647C45.7869 50.9182 46.3603 51.2788 46.1192 51.7312C45.5698 51.6198 45.6305 51.1394 45.4486 50.8071C44.964 50.9551 44.8471 51.7074 44.216 51.6102C44.2342 51.0509 44.8951 50.7904 45.2022 50.4014C45.1811 49.9338 44.7372 49.7223 44.8866 49.1504C45.4064 49.2603 45.3741 49.7067 45.4925 50.0592C45.9205 50.0182 46.1446 49.1984 46.6462 49.5814Z" fill="white"/>
<path fill-rule="evenodd" clip-rule="evenodd" d="M50.6191 53.9372C50.3839 54.0511 50.2108 53.7737 50.1445 53.6146C49.5809 53.8414 49.4288 55.3036 49.619 55.7644C49.926 55.8192 50.0288 55.6531 50.2034 55.908C50.1202 56.3164 49.7274 56.2194 49.3257 56.1066C49.0383 55.6628 48.9832 54.3163 49.4611 53.585C49.7965 53.0735 50.6813 53.0173 50.6191 53.9372Z" fill="white"/>
<path fill-rule="evenodd" clip-rule="evenodd" d="M48.5507 53.6387C48.1859 53.781 47.4125 53.6923 47.0052 53.4667C47.1558 53.0158 48.5337 53.1582 48.5507 53.6387Z" fill="white"/>
<path fill-rule="evenodd" clip-rule="evenodd" d="M46.3225 53.437C46.0647 53.8158 45.3027 53.4637 44.6953 53.3146C44.1205 53.1751 43.3034 53.13 43.1795 52.7357C43.3825 52.4272 43.936 52.7146 44.3347 52.8116C45.087 52.9961 46.0055 53.0468 46.3225 53.437Z" fill="white"/>
<path fill-rule="evenodd" clip-rule="evenodd" d="M48.4897 54.4515C48.2008 54.7234 47.36 54.5218 46.9923 54.3613C46.9527 53.9048 48.429 54.0528 48.4897 54.4515Z" fill="white"/>
<path fill-rule="evenodd" clip-rule="evenodd" d="M43.8357 54.002C44.3273 54.1669 44.088 54.7725 44.3288 55.088C44.6809 54.9356 44.6935 54.2272 45.2528 54.4174C45.2302 54.9119 44.7035 55.25 44.4612 55.6739C44.4864 56.157 44.8092 56.4614 44.6795 57.0389C44.2259 57.1206 44.2341 56.5657 44.1879 56.2273C43.8301 56.2766 43.892 57.0189 43.3608 56.7837C43.3142 56.3217 43.8032 56.0047 43.9892 55.627C43.9711 55.0979 43.5202 54.5527 43.8357 54.002Z" fill="white"/>
<path fill-rule="evenodd" clip-rule="evenodd" d="M60.5993 52.6317C60.4528 53.1304 60.04 53.0149 59.7134 53.2909C58.4032 54.3995 57.7988 57.0365 58.371 58.6426C58.4949 58.9906 58.7712 59.3117 58.6725 59.6794C58.0244 59.6668 57.7977 58.8005 57.6752 58.2269C57.2243 56.1166 58.4147 53.1937 60.2419 52.4609C60.4232 52.4809 60.529 52.5471 60.5993 52.6317Z" fill="white"/>
<path fill-rule="evenodd" clip-rule="evenodd" d="M66.9509 54.1445L67.1003 54.1826C67.7891 54.7305 68.4146 56.2732 68.2866 57.4422C68.1231 58.9325 67.4103 59.9878 66.682 60.6455C66.4763 60.833 66.2074 61.3176 65.9452 61.0231C65.6522 60.6303 66.227 60.4187 66.3805 60.2497C66.9257 59.6567 67.5752 58.9466 67.7583 57.6309C67.9315 56.3954 67.3526 55.3176 66.8947 54.3695L66.9509 54.1445Z" fill="white"/>
<path fill-rule="evenodd" clip-rule="evenodd" d="M66.307 56.0647C66.2168 56.5549 66.0718 56.9565 65.7422 57.0453C66.3507 57.4806 66.4676 58.192 65.966 58.7047C65.7603 58.9174 65.4152 58.8793 65.0982 58.9666C64.8615 59.0343 64.6307 59.271 64.4206 59.1172C64.5375 58.0197 65.0487 56.3548 65.2714 55.4053C65.7955 55.2828 66.1561 55.7574 66.307 56.0647ZM65.5151 56.6691C65.6434 56.5256 65.7885 56.4084 65.8181 56.1043C65.7223 56.0762 65.7378 55.9804 65.6109 55.9719C65.6054 56.1872 65.3645 56.5449 65.5151 56.6691ZM64.9869 58.4595C65.3757 58.4679 65.7152 58.3932 65.7785 57.8565C65.722 57.6339 65.4108 57.5636 65.2518 57.4042L64.9869 58.4595Z" fill="white"/>
<path fill-rule="evenodd" clip-rule="evenodd" d="M60.9579 54.4039C61.3833 54.8729 60.8887 55.8957 61.1621 56.4576C60.7903 56.8874 61.0959 57.7959 60.5577 57.9087C60.0676 57.7566 60.5492 57.0184 60.4845 56.6085L59.8815 56.4576C59.4617 56.5042 59.556 57.4112 59.0885 57.379C58.7193 56.9987 59.2856 56.2789 59.5619 55.8154C59.9196 55.2125 60.2562 54.6573 60.7311 54.3477L60.9579 54.4039ZM60.072 56.0237L60.5228 56.1377C60.606 55.7885 60.6553 55.4601 60.599 55.1952C60.4015 55.4349 60.2 55.6716 60.072 56.0237Z" fill="white"/>
<path fill-rule="evenodd" clip-rule="evenodd" d="M63.1801 55.4407L63.4054 55.4984C63.4675 55.7392 63.4701 56.0155 63.3491 56.3647C63.5267 56.6014 64.2099 56.5323 63.9887 57.0072C63.8112 57.1367 63.3773 56.8381 63.1983 56.9676C63.0181 57.3157 63.2856 58.034 62.7828 57.9863C62.4319 57.8328 62.7011 57.3072 62.7263 56.9313C62.7011 56.7312 62.1655 56.8396 62.3501 56.5156C62.3727 56.2337 62.6305 56.3424 62.8587 56.4028C62.97 56.0899 62.98 55.6083 63.1801 55.4407Z" fill="white"/>
<path d="M100.445 13.1601C99.1038 13.0298 94.6179 13.6822 94.4863 15.0225C94.3533 16.3602 98.626 17.8778 99.9654 18.0132C101.305 18.145 102.498 17.1674 102.632 15.827C102.764 14.4855 101.783 13.294 100.445 13.1601Z" fill="#EFAD1B"/>
<path d="M92.381 14.8064L92.3796 14.822C92.3389 15.2509 92.6479 15.6276 93.0768 15.6751L94.9252 15.8553L95.0787 14.2894L93.2318 14.1077C92.8044 14.0646 92.4226 14.3781 92.381 14.8064Z" fill="#FF5000"/>
<path d="M138.367 19.0168C138.307 19.6669 138.781 20.2396 139.432 20.3014L141.74 20.5176C142.387 20.5789 142.961 20.1054 143.021 19.4568C143.084 18.8082 142.608 18.2339 141.962 18.1727L139.65 17.9545C139.003 17.8938 138.427 18.3672 138.367 19.0168Z" fill="#FF5000"/>
<path d="M140.824 16.994L140.344 21.8477L127.095 20.539L127.573 15.688L140.824 16.994Z" fill="#4D3D87"/>
<path d="M126.161 15.5465L125.683 20.3996L99.9692 18.0139L100.447 13.1609L126.161 15.5465Z" fill="#4D3D87"/>
<path d="M127.573 15.688L127.095 20.539L125.684 20.401L126.163 15.5459L127.573 15.688Z" fill="#EFAD1B"/>
<path d="M140.991 15.3168L140.347 21.8468L139.642 21.7762L140.284 15.2456L140.991 15.3168Z" fill="#EFAD1B"/>
<path d="M140.991 15.3169L140.891 16.3268L126.905 14.9434L127.002 13.9355L140.991 15.3169Z" fill="#EFAD1B"/>
<path fill-rule="evenodd" clip-rule="evenodd" d="M138.243 18.4872C139.032 17.5603 136.106 16.9544 135.873 17.8316C135.599 18.8573 137.565 18.8684 138.161 18.569C138.198 18.5505 138.215 18.5195 138.243 18.4872Z" fill="white"/>
<path fill-rule="evenodd" clip-rule="evenodd" d="M134.648 18.2711C135.178 17.44 132.744 16.7934 132.673 17.8097C132.621 18.5817 134.283 18.8465 134.648 18.2711Z" fill="white"/>
<path fill-rule="evenodd" clip-rule="evenodd" d="M100.004 17.6317C100.68 17.7873 101.77 17.8816 101.904 17.3935C102.078 16.7616 101.345 16.7238 100.789 16.6447C100.234 16.5644 99.5422 16.4862 99.4385 16.9974C99.3249 17.5591 99.7391 17.569 100.004 17.6317Z" fill="white"/>
<path fill-rule="evenodd" clip-rule="evenodd" d="M103.48 16.8362C103.973 16.9912 104.508 16.9109 104.572 16.4685C104.682 15.7106 102.983 15.4543 102.913 16.2043C102.888 16.4896 103.071 16.7082 103.48 16.8362Z" fill="white"/>
<path fill-rule="evenodd" clip-rule="evenodd" d="M90.7644 90.9935C90.6645 92.3262 91.8941 93.0797 92.7127 93.6812C95.3201 95.5969 97.9966 97.4001 100.648 99.3091C104.081 101.78 107.718 104.201 111.226 106.812C114.541 109.276 118.413 112.123 121.004 116.011C122.293 117.947 123.476 120.906 124.234 123.671C124.55 124.822 124.764 126.258 125.075 127.603C125.368 128.87 125.843 130.602 126.805 130.863C127.41 131.028 128.436 130.591 128.787 130.295C130.586 128.776 128.864 124.852 127.607 122.256C125.943 118.817 123.95 115.094 121.793 112.698C120.319 111.058 118.572 109.699 116.932 108.369C113.574 105.644 110.319 103.092 106.831 100.625C103.427 98.2178 99.8441 96.075 96.2872 93.8153C95.4449 93.2815 94.525 92.6941 93.6472 92.1501C92.8155 91.6345 91.9463 90.5481 90.7644 90.9935Z" fill="#4D3D87"/>
<path fill-rule="evenodd" clip-rule="evenodd" d="M130.031 116.549C128.854 117.181 127.666 116.363 126.784 115.856C123.98 114.249 121.244 112.53 118.427 110.88C114.776 108.742 111.09 106.396 107.283 104.244C103.688 102.212 99.5175 99.8248 94.9123 99.0303C92.6216 98.6359 89.4352 98.7514 86.601 99.1782C85.4218 99.3558 84.0218 99.7416 82.6665 100.001C81.3874 100.246 79.6123 100.512 78.9842 99.7404C78.5884 99.2529 78.5714 98.1373 78.7011 97.6964C79.3603 95.4355 83.647 95.4241 86.5307 95.5214C90.3484 95.6497 94.559 95.9652 97.6243 96.9666C99.7205 97.6524 101.67 98.698 103.549 99.6587C107.401 101.627 111.053 103.571 114.72 105.76C118.3 107.897 121.709 110.306 125.217 112.643C126.045 113.196 126.956 113.802 127.809 114.383C128.614 114.933 129.96 115.289 130.031 116.549Z" fill="#4D3D87"/>
<path d="M133.852 113.599C133.485 112.868 132.476 112.102 131.674 111.513C129.398 109.841 126.789 108.308 124.524 106.905C121.78 105.206 119.813 104.061 116.748 103.502C115.787 103.327 114.799 103.361 113.778 103.207C112.954 103.082 112.042 102.618 111.225 102.286C110.591 101.673 109.798 101.028 109.35 100.326C108.797 99.4545 108.428 98.5372 107.877 97.7286C106.126 95.1534 104.283 93.818 101.618 91.9978C99.4158 90.4946 96.9592 88.7268 94.5094 87.3238C93.6458 86.8307 92.5386 86.2193 91.7189 86.1786C90.5807 86.1194 89.9453 87.0097 89.7551 87.5339C89.5044 88.2256 89.7466 88.9905 89.4959 89.8301C89.3113 90.4515 88.7098 91.1488 88.2929 91.8405C87.1152 93.8002 85.4924 95.9696 85.1459 98.4095C84.7471 101.232 87.0238 102.775 88.5478 103.996C90.4424 105.512 92.3807 106.555 94.7883 107.524C96.3267 108.142 97.7763 108.777 99.4849 108.458C101.109 108.153 102.569 106.874 103.779 105.863C104.713 105.082 106.213 103.486 107.293 103.326C108.526 103.143 109.135 103.736 109.973 104.212C110.748 104.785 111.536 105.101 111.868 106.302C112.159 107.356 111.305 109.373 110.97 110.544C110.536 112.058 109.957 113.911 110.336 115.519C110.736 117.211 111.905 118.281 113.093 119.436C114.954 121.244 116.691 122.595 118.845 123.714C120.578 124.614 122.912 126.07 125.331 124.562C127.42 123.259 128.748 120.897 130.062 119.027C130.527 118.364 130.92 117.532 131.413 117.11C132.079 116.541 132.877 116.456 133.408 115.945C133.812 115.559 134.368 114.617 133.852 113.599ZM104.402 101.759C103.438 102.878 102.313 103.995 100.935 104.933C99.9686 105.592 99.0997 106.247 97.6091 106.175C96.6569 106.129 95.5621 105.515 94.6776 105.038C92.8999 104.085 91.2417 102.969 89.7979 101.627C88.7977 100.694 87.8708 100.019 87.9089 98.2061C87.9285 97.2695 88.3483 96.3311 88.6512 95.7311C89.3315 94.3773 90.2629 93.0686 91.2121 91.8387C91.5912 91.3501 92.2755 90.2567 92.9321 90.0751C92.9631 90.0666 92.9872 89.9822 93.0701 89.9933C94.5759 90.192 95.8594 90.9751 97.0342 91.6231C99.9121 93.2107 102.586 95.2293 104.758 97.8877C105.145 98.3637 105.677 99.1061 105.678 99.743C105.679 100.508 104.868 101.218 104.402 101.759ZM126.361 120.273C125.934 120.792 125.246 121.557 124.398 121.955C122.756 122.724 121.763 122.15 120.506 121.612C118.693 120.835 117.001 119.771 115.409 118.532C114.616 117.915 113.61 117.163 113.184 116.312C112.514 114.978 112.761 113.917 112.972 112.766C113.274 111.128 113.839 109.647 114.47 108.312C114.776 107.667 115.097 106.639 115.798 106.33C116.381 106.072 117.273 106.257 117.866 106.42C121.178 107.329 124.104 108.956 126.721 110.946C127.789 111.757 129.026 112.613 129.818 113.91C129.86 113.982 129.794 114.037 129.798 114.068C129.898 114.743 129.177 115.811 128.883 116.356C128.144 117.724 127.323 119.103 126.361 120.273Z" fill="#4D3D87"/>
<path opacity="0.62" d="M104.758 97.8878C102.586 95.2297 99.9122 93.2108 97.0343 91.6232C95.8595 90.9752 94.576 90.1921 93.0702 89.9934C92.987 89.9823 92.9632 90.0667 92.9322 90.0752C92.2756 90.2568 91.591 91.3502 91.2122 91.8389C90.2627 93.0687 89.3316 94.3774 88.6513 95.7312C88.3484 96.3312 87.9286 97.2696 87.9089 98.2062C87.8709 100.019 88.7978 100.694 89.798 101.627C91.242 102.969 92.9 104.085 94.6777 105.039C95.5625 105.515 96.657 106.129 97.6091 106.175C99.0995 106.247 99.9687 105.592 100.935 104.933C102.313 103.995 103.438 102.878 104.402 101.759C104.868 101.218 105.68 100.508 105.678 99.7431C105.677 99.1062 105.145 98.3638 104.758 97.8878Z" fill="white"/>
<path opacity="0.62" d="M129.797 114.068C129.793 114.037 129.859 113.982 129.817 113.91C129.025 112.613 127.788 111.757 126.721 110.947C124.103 108.956 121.177 107.329 117.865 106.42C117.272 106.257 116.38 106.072 115.797 106.33C115.096 106.639 114.774 107.667 114.469 108.312C113.838 109.648 113.273 111.128 112.971 112.766C112.76 113.917 112.514 114.978 113.183 116.312C113.61 117.163 114.615 117.915 115.408 118.532C117 119.771 118.692 120.836 120.505 121.612C121.762 122.15 122.755 122.725 124.398 121.955C125.246 121.557 125.933 120.792 126.36 120.273C127.322 119.103 128.143 117.724 128.881 116.356C129.176 115.811 129.897 114.743 129.797 114.068Z" fill="white"/>
<path fill-rule="evenodd" clip-rule="evenodd" d="M100.914 116.284C100.79 116.38 100.677 116.159 100.577 116.116C100.045 115.894 99.4644 116.477 98.87 116.974C95.4299 119.848 92.449 122.861 89.3965 125.922C88.0187 127.303 86.8383 128.491 85.3846 129.982C85.1072 130.268 84.8072 130.646 84.4858 131.04C84.1658 131.436 83.7955 131.83 83.8491 132.18C83.9013 132.507 84.2575 132.855 84.5423 133.117C85.1282 133.659 85.5466 134.025 86.2087 134.566C86.4495 134.762 86.8568 135.075 87.1231 135.029C87.5189 134.959 87.9557 134.433 88.2668 134.099C89.2049 133.094 90.1544 132.033 91.0658 131.073C93.5959 128.403 96.1571 125.777 99.0038 123.217C99.6829 122.607 100.429 122.043 101.211 121.352C101.516 121.081 101.879 120.719 102.262 120.384C102.822 119.894 103.42 119.564 103.03 118.73C104.048 117.355 105.687 115.701 106.794 114.163C106.979 113.904 107.26 113.616 107.204 113.307C107.001 112.205 105.787 112.997 105.174 113.38C103.668 114.324 102.162 115.373 100.914 116.284Z" fill="#889922"/>
<path fill-rule="evenodd" clip-rule="evenodd" d="M98.2067 121.56C97.997 120.569 96.3657 121.523 95.6301 121.975C94.3185 122.782 93.2324 123.766 92.2984 124.724C91.2757 125.773 90.5784 126.677 89.981 127.895C89.7824 128.298 89.512 128.839 89.7458 129.175C89.8486 129.32 90.0232 129.411 90.4545 129.226C91.1913 128.912 91.7392 128.196 92.1871 127.786C93.7803 126.33 95.2398 125.355 96.7246 123.89C97.3006 123.322 98.1657 122.454 98.246 121.658C98.2489 121.631 98.2123 121.589 98.2067 121.56Z" fill="#4D3D87"/>
<path d="M98.8699 116.974C98.6838 117.131 98.5007 117.288 98.3176 117.446C98.8233 118.037 99.3445 118.613 99.8645 119.197C100.417 119.816 100.925 120.478 101.478 121.106C101.72 120.881 101.986 120.626 102.262 120.383C102.282 120.366 102.3 120.35 102.32 120.334C101.22 119.159 100.108 118.015 98.9982 116.865C98.956 116.901 98.9138 116.938 98.8699 116.974Z" fill="#4D3D87"/>
<path d="M85.946 129.407C85.7629 129.594 85.5769 129.785 85.3841 129.982C85.356 130.012 85.3264 130.046 85.2968 130.075C86.4476 131.226 87.5324 132.532 88.7072 133.621C88.9129 133.4 89.1186 133.177 89.3242 132.953C88.2227 131.712 87.0956 130.532 85.946 129.407Z" fill="#4D3D87"/>
<path fill-rule="evenodd" clip-rule="evenodd" d="M80.9104 120.168C80.7598 120.205 80.8638 120.43 80.8345 120.534C80.6795 121.091 79.8639 121.185 79.1045 121.344C74.7164 122.268 70.5059 122.746 66.2122 123.249C64.2753 123.477 62.6116 123.669 60.5406 123.887C60.1448 123.929 59.6617 123.932 59.1531 123.938C58.6445 123.945 58.1051 123.993 57.864 123.732C57.6414 123.491 57.5866 122.995 57.557 122.611C57.4937 121.813 57.4641 121.258 57.4501 120.403C57.446 120.092 57.453 119.579 57.6543 119.399C57.9516 119.131 58.636 119.115 59.0898 119.076C60.4606 118.962 61.8806 118.873 63.199 118.751C66.8631 118.414 70.5103 118.028 74.284 117.378C75.1829 117.223 76.0872 116.983 77.1156 116.799C77.5172 116.725 78.0255 116.665 78.5256 116.572C79.2569 116.435 79.8879 116.169 80.2993 116.992C82.0108 117.042 84.3241 116.779 86.2172 116.862C86.5357 116.876 86.9356 116.834 87.1442 117.071C87.8836 117.912 86.509 118.375 85.8285 118.619C84.1547 119.216 82.4007 119.751 80.9104 120.168Z" fill="#EFAD1B"/>
<path fill-rule="evenodd" clip-rule="evenodd" d="M75.0913 119.028C75.7408 119.806 73.9812 120.499 73.1697 120.795C71.726 121.325 70.2805 121.573 68.9507 121.711C67.4926 121.865 66.3503 121.853 65.0246 121.57C64.5866 121.475 63.9933 121.353 63.8753 120.961C63.8231 120.791 63.8612 120.599 64.2725 120.374C64.9754 119.991 65.8771 120.002 66.4771 119.903C68.6058 119.554 70.2763 119.011 72.3459 118.751C73.146 118.65 74.3647 118.507 75.0394 118.936C75.0617 118.951 75.0743 119.007 75.0913 119.028Z" fill="#4D3D87"/>
<path d="M79.105 121.344C78.8668 121.395 78.6304 121.44 78.3908 121.488C78.2413 120.725 78.1104 119.96 77.9739 119.189C77.83 118.372 77.6229 117.562 77.4723 116.741C77.799 116.69 78.164 116.639 78.5261 116.572C78.5528 116.566 78.5768 116.562 78.6008 116.556C78.8416 118.147 79.0532 119.729 79.27 121.312C79.2149 121.322 79.1598 121.334 79.105 121.344Z" fill="#4D3D87"/>
<path d="M61.3399 123.802C61.0795 123.83 60.8132 123.859 60.5398 123.887C60.4991 123.891 60.454 123.894 60.4115 123.898C60.2214 122.282 59.8663 120.622 59.7383 119.024C60.0397 119.001 60.3412 118.979 60.6441 118.955C60.9371 120.588 61.1668 122.204 61.3399 123.802Z" fill="#4D3D87"/>
<path fill-rule="evenodd" clip-rule="evenodd" d="M1.27209 61.4626C2.70617 60.0681 5.43049 58.9129 7.1719 58.0308C11.2699 55.9531 14.5084 53.8821 18.8092 52.2889C20.5743 51.6368 22.9509 51.1437 24.2482 52.1029C25.0653 52.7073 25.8343 54.0371 26.4276 55.15C27.7758 57.6731 29.5858 61.8766 30.6311 64.1503C32.5793 68.3834 34.4388 72.0066 36.3744 76.2341C38.1044 80.0178 39.8104 84.0371 41.7402 88.2661C42.5924 90.134 43.5533 92.2765 44.2632 94.291C44.9309 96.1841 45.8904 98.7127 45.1099 100.014C44.5676 100.917 43.2489 101.616 42.2587 102.158C41.0698 102.809 40.1429 103.096 39.2652 103.518C36.9818 104.612 35.4349 105.466 33.2584 106.362C31.5469 107.064 29.4929 107.841 27.3405 108.581C25.4048 109.247 23.103 110.02 21.4746 109.089C20.001 108.248 18.5813 105.514 17.6499 103.708C14.7396 98.0688 12.6363 92.4057 9.88654 86.561C7.85803 82.2532 6.18869 78.6581 4.50237 75.0997C3.6841 73.3783 2.75276 71.4611 1.87092 69.3804C0.626975 66.4419 -1.21697 63.6863 1.12854 61.5705C1.17365 61.53 1.2299 61.5034 1.27209 61.4626Z" fill="#8F7ECE"/>
<path fill-rule="evenodd" clip-rule="evenodd" d="M2.52023 62.0853C2.53986 62.0642 2.5384 61.9599 2.609 61.9063C5.78713 59.5172 8.51584 58.645 12.1264 56.7574C15.2805 55.1077 19.7026 51.8862 22.4664 53.4442C23.9553 54.2839 25.2599 56.7899 26.2375 58.7522C29.21 64.7379 31.6103 69.5809 34.4108 75.7019C36.848 81.0269 39.7202 87.0181 42.2644 92.6698C43.2745 94.9125 43.9437 96.469 42.6461 98.0736C42.0883 98.7612 41.0796 99.0993 40.2048 99.5739C36.066 101.824 32.1652 103.42 27.7463 105.709C25.9715 106.629 24.1261 107.582 22.7723 107.109C21.2524 106.574 19.7436 104.128 18.7545 102.208C16.6697 98.1709 15.6341 95.3393 13.5112 91.0881C9.71203 83.4712 5.77892 76.1727 2.65412 68.7896C1.57922 66.2426 0.573455 64.021 2.37814 62.1925C2.42004 62.1501 2.47922 62.1275 2.52023 62.0853Z" fill="white"/>
<path opacity="0.26" d="M22.7724 107.109C24.1262 107.582 25.9716 106.628 27.7464 105.709C32.1655 103.419 36.0661 101.823 40.2049 99.5737C41.0797 99.0991 42.0884 98.761 42.6462 98.0734C43.8746 96.5561 43.3394 95.0798 42.4224 93.0217C36.3902 95.8237 26.8631 100.057 19.4422 103.46C20.3776 105.069 21.5706 106.686 22.7724 107.109Z" fill="#8F7ECE"/>
<path opacity="0.26" d="M22.4663 53.4439C19.7024 51.8859 15.2803 55.1077 12.1262 56.7571C8.51567 58.6447 5.78696 59.5169 2.60883 61.9061C2.53852 61.9597 2.53969 62.0637 2.52006 62.0851C2.47905 62.1272 2.42016 62.1498 2.37768 62.1923C1.24653 63.3375 1.21987 64.6392 1.6227 66.0773C9.15082 62.3147 16.6212 58.9816 24.1649 55.1247C23.6355 54.392 23.0677 53.7806 22.4663 53.4439Z" fill="#8F7ECE"/>
<path fill-rule="evenodd" clip-rule="evenodd" d="M15.0524 57.6799C15.068 58.6209 10.4628 60.9524 9.52733 60.7186C9.06532 60.6046 9.06093 60.0325 9.27655 59.7931C10.1669 58.8055 15.0369 56.6431 15.0524 57.6799Z" fill="white"/>
<path fill-rule="evenodd" clip-rule="evenodd" d="M18.2427 97.0407C25.0976 92.9637 31.6367 90.3958 38.2296 87.5754C38.4453 87.9109 38.5437 88.2235 38.6902 88.5446C32.0369 91.665 25.4202 94.6061 18.6921 98.0772C18.509 97.7716 18.3863 97.4772 18.2146 97.1743C18.144 97.128 18.1809 96.9463 18.2427 97.0407Z" fill="#889922"/>
<path fill-rule="evenodd" clip-rule="evenodd" d="M19.1287 98.8313C25.8442 95.2547 32.4398 92.2427 39.0198 89.3127C39.1142 89.5635 39.2141 89.8172 39.3509 90.0791C32.7834 93.1685 26.1626 96.5183 19.5629 99.7612C19.3599 99.4383 19.2093 99.1272 19.1287 98.8313Z" fill="#889922"/>
<path fill-rule="evenodd" clip-rule="evenodd" d="M20.0532 100.595C26.6248 97.2479 33.2611 93.7105 39.7738 90.9004C39.8711 91.1893 40.0498 91.4934 40.116 91.7752C33.4923 95.4168 27.139 97.7623 20.4616 101.657C20.2715 101.35 20.1783 101.064 20.0529 100.768C20.0066 100.7 20.0151 100.646 20.0532 100.595Z" fill="#889922"/>
<path fill-rule="evenodd" clip-rule="evenodd" d="M3.82598 67.8256C5.07139 66.879 7.2168 66.0449 9.04815 65.1253C12.5685 63.3572 15.6168 61.6302 19.3486 59.8328C20.5079 59.2735 23.4367 57.7325 24.306 58.1143C24.9581 58.3987 25.5019 59.933 25.8599 60.6259C26.8981 62.6418 27.6517 64.1787 28.6489 66.1155C29.1124 67.0143 29.6731 67.9117 29.5448 68.788C28.1673 69.9742 26.2387 70.491 24.4114 71.311C20.5431 73.048 17.4792 74.73 13.9855 76.5865C12.7331 77.2515 9.9086 79.2434 8.85215 78.6616C8.19707 78.3024 7.66182 76.9345 7.24346 76.0779C6.3335 74.2129 5.50528 72.5872 4.74004 70.8221C4.3542 69.9303 3.98916 68.8753 3.77383 68.1991C3.73428 68.0679 3.7542 67.9425 3.82598 67.8256Z" fill="#FF5000"/>
<path d="M9.94228 74.2774C10.3832 73.7743 11.1792 73.4351 11.1285 72.8869C11.0594 72.1106 10.2057 71.7373 9.75097 71.2346C8.76484 70.1456 8.73525 68.3424 9.90742 67.6607C11.1314 66.945 12.6769 68.0002 12.9769 69.4835C13.1333 70.2455 12.8796 71.1458 13.3911 71.7288C13.694 72.0699 14.2193 71.9556 14.7505 71.8712C15.204 71.7965 15.5717 71.7854 15.8931 71.8812C16.1494 70.8965 16.0776 69.8231 15.6098 68.8314C14.5504 66.5872 11.8738 65.6266 9.62851 66.6845C7.3873 67.7424 6.42519 70.4219 7.48427 72.6646C7.94365 73.6393 8.70976 74.372 9.61298 74.8015C9.68183 74.624 9.7914 74.4508 9.94228 74.2774Z" fill="white"/>
<path d="M13.4639 74.8114C14.7164 74.2211 15.5671 73.1236 15.8926 71.8814C15.5715 71.7856 15.2039 71.7971 14.7501 71.8715C14.2189 71.9558 13.6936 72.0701 13.3907 71.7291C12.8795 71.1458 13.1329 70.2458 12.9764 69.4838C12.6764 68.0005 11.131 66.9452 9.90699 67.6609C8.73482 68.3427 8.76441 70.1459 9.75055 71.2348C10.2055 71.7379 11.0592 72.1111 11.1281 72.8872C11.1788 73.435 10.3828 73.7746 9.94186 74.2776C9.79127 74.4511 9.68141 74.6242 9.61227 74.8017C10.7888 75.3607 12.196 75.4099 13.4639 74.8114Z" fill="#8F7ECE"/>
<path fill-rule="evenodd" clip-rule="evenodd" d="M26.6406 65.2224C26.2885 64.6024 25.6249 63.2993 25.5642 63.1895C23.771 64.032 17.2738 67.4184 17.2738 67.4184C17.1569 67.2465 17.7839 68.7582 18.1275 69.3186C18.1278 69.3189 19.9999 68.4371 26.6406 65.2224Z" fill="white"/>
<path fill-rule="evenodd" clip-rule="evenodd" d="M24.2348 59.9861C17.6829 63.3628 22.1597 60.8834 15.6233 64.3276C15.6233 64.3276 16.2388 65.6166 16.5995 66.1786C16.5995 66.1786 18.6254 65.0615 25.177 61.8722C24.8548 61.2485 24.5433 60.6171 24.2348 59.9861Z" fill="white"/>
<g opacity="0.58">
<g opacity="0.58">
<path opacity="0.58" d="M33.289 83.7863L33.1045 83.8721C32.955 83.9424 32.8045 84.0145 32.6536 84.0863C31.228 81.6986 29.9178 79.2388 28.7612 76.7694C28.7175 76.6765 28.6754 76.5822 28.6329 76.489L28.5582 76.3255L28.6314 76.1494C28.6666 76.0651 28.6569 75.9778 28.6033 75.9116C28.5412 75.8327 28.4357 75.7847 28.3203 75.8073C28.0569 75.224 27.8017 74.648 27.5653 74.0957C27.5202 73.9929 27.4229 73.9337 27.306 73.9407C27.2131 73.9478 27.1244 73.9985 27.0737 74.0732C27.0271 74.145 27.0201 74.2282 27.0541 74.3084C27.3274 74.948 27.6218 75.613 27.9555 76.3399L22.7518 88.7591L21.8714 89.1745C21.7502 89.2322 21.6924 89.3562 21.7276 89.4804C21.7742 89.6395 21.9459 89.7256 22.1079 89.648L22.1811 89.614C22.2684 89.5718 22.3572 89.5293 22.446 89.4871L22.1811 90.1197C22.146 90.2043 22.1542 90.2916 22.2092 90.359C22.267 90.4322 22.3683 90.4759 22.47 90.4689C22.5743 90.4604 22.6616 90.3983 22.7026 90.3028L23.1901 89.1376L31.2649 85.327C31.6522 85.1424 32.0383 84.9593 32.4256 84.7762C32.6791 85.1931 32.9342 85.6088 33.1932 86.0228C33.2509 86.1115 33.3523 86.1608 33.4636 86.1523C33.565 86.1452 33.6608 86.089 33.7045 86.0114C33.744 85.941 33.7396 85.8593 33.6919 85.7846C33.4311 85.3718 33.1792 84.9564 32.9255 84.5407C33.1256 84.4463 33.3256 84.352 33.5228 84.2588C33.6453 84.2011 33.7033 84.0786 33.6678 83.9544C33.6215 83.7933 33.4484 83.7089 33.289 83.7863ZM30.3043 84.1736C30.2776 84.2412 30.2776 84.3174 30.3084 84.3822C30.3169 84.4006 30.3283 84.4161 30.3394 84.4273C30.3423 84.4428 30.3464 84.4598 30.3549 84.4765L30.6268 85.0428L23.496 88.4081L27.3192 79.2854C27.5644 78.695 27.8123 78.1035 28.0587 77.5147L28.2684 77.016C29.3108 79.2376 30.4534 81.4167 31.6663 83.4974L31.6844 83.5311L30.4505 84.0326C30.3831 84.0581 30.3324 84.1088 30.3043 84.1736ZM32.1552 84.3215L31.1281 84.8046L30.9339 84.4047C31.276 84.2667 31.6185 84.1273 31.9566 83.9893C32.0228 84.1003 32.089 84.2102 32.1552 84.3215Z" fill="#8F7ECE"/>
<path opacity="0.58" d="M34.5239 78.4824C34.3042 78.2882 34.0815 78.0766 33.8225 77.8162C33.8451 77.733 33.824 77.643 33.7648 77.5839C33.7016 77.5147 33.6014 77.4825 33.51 77.4992C33.2451 77.2174 32.9943 76.9314 32.7632 76.6455C32.6518 76.509 32.4321 76.5257 32.3237 76.6666C32.2827 76.7243 32.2645 76.7905 32.2757 76.8556C32.2645 76.8866 32.2587 76.9174 32.2616 76.9499C32.2812 77.3867 32.3363 77.8332 32.4236 78.277C32.3644 78.3207 32.3293 78.3869 32.3223 78.4616C32.3167 78.5322 32.3404 78.601 32.3899 78.6503C32.4236 78.6869 32.4717 78.7124 32.5209 78.7264C32.6308 79.1718 32.7731 79.6112 32.9433 80.0337C32.987 80.138 33.0857 80.1986 33.1997 80.1916C33.2926 80.1845 33.3813 80.1324 33.432 80.0592C33.4801 79.9885 33.4883 79.9042 33.456 79.8239C33.2814 79.3915 33.1391 78.9421 33.0333 78.4842L33.4235 78.1868C33.6687 78.432 33.894 78.6447 34.1111 78.8363C34.221 78.935 34.3845 78.9491 34.4958 78.8603C34.555 78.8137 34.5945 78.7364 34.5957 78.6588C34.5986 78.5882 34.5734 78.5249 34.5239 78.4824ZM32.8786 77.6176C32.9349 77.6782 32.9911 77.74 33.0476 77.8007C33.0055 77.8346 32.9633 77.8669 32.9193 77.8994C32.9041 77.8062 32.89 77.7119 32.8786 77.6176Z" fill="#8F7ECE"/>
<path opacity="0.58" d="M29.9746 88.232C29.9565 88.0378 29.8759 87.8517 29.745 87.7108C29.4971 87.4445 29.0743 87.3531 28.6982 87.4925C28.4995 87.5658 28.329 87.7011 28.2318 87.8658C28.1726 87.9642 28.177 88.0799 28.2417 88.1629C28.2432 88.215 28.2614 88.2686 28.2939 88.3164L29.4575 89.9872C29.5082 90.0548 29.597 90.0929 29.6972 90.0844C29.7268 90.083 29.7564 90.0759 29.7845 90.0648C29.8352 90.1014 29.897 90.1184 29.9632 90.114C30.0183 90.1099 30.0731 90.0915 30.1223 90.0604C30.545 89.7941 30.7815 89.4223 30.7703 89.0377C30.761 88.6363 30.458 88.232 29.9746 88.232ZM29.0395 87.8588L29.0676 87.949C29.0831 87.949 29.0972 87.9505 29.1353 87.9546C29.1353 87.9546 29.1438 87.9546 29.1508 87.956C29.176 87.9645 29.2 87.9715 29.2156 87.9756C29.2185 87.9786 29.2352 87.9882 29.2396 87.9912L29.2607 88.0023C29.2677 88.0079 29.2762 88.0137 29.2832 88.0208C29.2832 88.0208 29.2888 88.0237 29.2932 88.0263C29.3102 88.0445 29.3284 88.063 29.3538 88.0955C29.3553 88.0969 29.3553 88.0984 29.3568 88.0996C29.3582 88.101 29.3582 88.1025 29.3597 88.1037L29.3738 88.1289C29.3823 88.1459 29.3908 88.1629 29.4034 88.1936C29.4034 88.1965 29.4048 88.2006 29.4075 88.2036C29.4089 88.2091 29.4104 88.2162 29.413 88.2247C29.4171 88.2487 29.4201 88.2724 29.4215 88.2964C29.4215 88.3035 29.4215 88.3105 29.423 88.319C29.423 88.3205 29.423 88.3219 29.423 88.3219L29.4159 88.3782C29.413 88.3893 29.413 88.4007 29.4118 88.4078C29.4034 88.4333 29.3922 88.4555 29.3767 88.491C29.3626 88.508 29.35 88.5247 29.3386 88.5431C29.2583 88.6671 29.2879 88.822 29.4077 88.9008C29.5276 88.9826 29.7262 88.9474 29.8009 88.8317C29.8065 88.8232 29.812 88.8147 29.8191 88.8065C29.8261 88.8009 29.8361 88.791 29.8487 88.7825L29.8879 88.764C29.8935 88.7626 29.8993 88.7626 29.9049 88.7611C29.9175 88.7582 29.9316 88.7555 29.95 88.7526C29.9641 88.7541 29.9752 88.7555 29.9896 88.7541C29.9992 88.757 30.0107 88.7582 30.0192 88.7582C30.0347 88.7637 30.0502 88.7693 30.0699 88.7766L30.0939 88.7907C30.0994 88.7963 30.105 88.7977 30.1109 88.8018C30.1153 88.8059 30.1194 88.8118 30.1235 88.8173L30.1405 88.8343C30.1475 88.8399 30.1531 88.8484 30.1586 88.8569C30.1657 88.868 30.1701 88.8795 30.1783 88.8935C30.1867 88.912 30.1938 88.9272 30.1967 88.9386L30.2052 88.9682C30.2093 88.9893 30.2122 89.0089 30.2122 89.0089C30.2122 89.0089 30.2163 89.0526 30.2163 89.0555C30.2163 89.0737 30.2149 89.0936 30.2134 89.1103C30.2064 89.1765 30.1838 89.2398 30.1501 89.3004C30.0895 89.4047 29.9966 89.5005 29.8572 89.5978C29.498 89.0822 29.1373 88.5666 28.7782 88.0509C28.7908 88.0398 28.8063 88.0284 28.8203 88.0184C28.8233 88.017 28.8274 88.0143 28.8315 88.0114C28.8426 88.0044 28.8555 87.9988 28.8655 87.9929C28.8907 87.983 28.9147 87.9733 28.9402 87.9648C28.9513 87.9633 28.9627 87.9592 28.9909 87.9534L28.9894 87.9464C29.0064 87.9519 29.0216 87.9505 29.0456 87.9478L29.0395 87.8588Z" fill="#8F7ECE"/>
</g>
<g opacity="0.58">
<path opacity="0.58" d="M16.1582 87.463C15.2228 85.5259 14.1748 83.1877 12.9549 80.3195C13.4761 80.0688 14.0354 79.8025 14.6002 79.5335C15.3807 79.1632 16.1723 78.787 16.898 78.4349C17.0078 78.3827 17.1361 78.3347 17.2727 78.2843C17.6529 78.1448 18.0461 78.001 18.0713 77.6984C18.0728 77.6828 18.0684 77.6658 18.0616 77.6518C18.0066 77.5489 17.9137 77.4968 17.8009 77.5053C17.6981 77.5123 17.5982 77.5674 17.5079 77.6152C17.4698 77.6348 17.4361 77.6547 17.4051 77.6658C16.5373 77.9784 15.8696 78.2688 15.4217 78.5266C15.0499 78.7422 14.6116 78.9435 14.1892 79.138C13.5174 79.445 12.8242 79.7635 12.3649 80.1508C12.3353 80.1748 12.3253 80.2129 12.3367 80.2466C12.8157 81.5538 13.4623 82.9358 14.0863 84.2729C14.4962 85.1518 14.9175 86.0535 15.2922 86.9339C15.1668 86.7915 15.0388 86.648 14.9119 86.5071C14.7485 86.3266 14.585 86.1435 14.4274 85.9604C14.3556 85.8772 14.2838 85.7884 14.2117 85.697C13.8833 85.2871 13.5101 84.8222 12.9452 84.8348C12.9045 84.8363 12.8635 84.8644 12.855 84.9051C12.7592 85.3164 12.6634 85.9053 12.9408 86.2926C12.9649 86.3278 13.01 86.3392 13.0533 86.3266C13.397 86.2082 13.3589 85.9364 13.3308 85.7392C13.3208 85.6645 13.3097 85.5927 13.3167 85.5306C13.7617 85.9911 14.2041 86.5293 14.6339 87.0505C14.9157 87.3956 15.2087 87.7522 15.4917 88.0718C15.5242 88.1084 15.5579 88.1465 15.5916 88.1872C15.7987 88.4351 16.0607 88.7436 16.4339 88.7266H16.4368C16.4764 88.7237 16.5115 88.6985 16.5227 88.6604C16.6325 88.3112 16.4468 87.9842 16.2833 87.6956C16.2385 87.618 16.196 87.5392 16.1582 87.463Z" fill="#8F7ECE"/>
<path opacity="0.58" d="M15.8651 80.5013C15.8525 80.462 15.8145 80.4365 15.7723 80.4365L15.7342 80.4394C15.3636 80.4661 15.327 80.7649 15.3018 80.9847C15.2892 81.0945 15.2763 81.1988 15.2326 81.2747C15.206 81.2551 15.1775 81.234 15.1509 81.2126C14.9959 81.0972 14.8213 80.9662 14.5846 80.9844C14.5028 80.9899 14.4185 81.0125 14.3311 81.0547C14.286 81.0758 14.2649 81.1279 14.2875 81.1701C14.4185 81.4534 14.6355 81.5392 14.8271 81.6154C14.9426 81.6632 15.0539 81.7068 15.1441 81.7915C15.1386 81.9043 15.109 82.0282 15.0765 82.1577C15.0047 82.4507 14.9256 82.7817 15.1356 83.0536C15.1556 83.0803 15.1878 83.0931 15.2203 83.0902C15.2329 83.0887 15.247 83.0861 15.2599 83.0791C15.5839 82.9056 15.5924 82.6212 15.5979 82.3704C15.6023 82.2365 15.6064 82.1097 15.6545 82.0057C15.7022 82.0323 15.7503 82.0634 15.7995 82.0959C15.946 82.1902 16.1109 82.2986 16.3292 82.2831C16.415 82.2761 16.5012 82.2506 16.5896 82.2084C16.6277 82.1902 16.6474 82.1521 16.6403 82.1126C16.5867 81.8196 16.3189 81.7294 16.0811 81.6506C15.9501 81.6069 15.8262 81.5647 15.7345 81.4956C15.7515 81.4153 15.7781 81.3391 15.8048 81.2603C15.8795 81.0336 15.9568 80.7986 15.8651 80.5013Z" fill="#8F7ECE"/>
<path opacity="0.58" d="M21.4864 82.6129C21.2863 82.5537 21.1876 82.6284 21.1032 82.7043C21.0721 82.7353 21.0399 82.7649 20.9933 82.7945C20.7581 82.6354 20.4088 82.162 20.2946 81.7662C20.2536 81.6282 20.2454 81.5113 20.2691 81.4211C20.3394 81.4477 20.4337 81.4732 20.5295 81.4662C20.6464 81.4577 20.7381 81.3985 20.7874 81.3027C20.8029 81.2731 20.8 81.2394 20.7815 81.2125C20.5744 80.928 20.3561 80.8785 20.2111 80.8899C20.0702 80.8999 19.9377 80.9702 19.8334 81.0844C19.701 81.2309 19.6334 81.434 19.6503 81.6297C19.718 82.3609 20.4926 83.2032 20.945 83.3441C20.9576 83.3482 20.9705 83.3497 20.9831 83.3482C20.993 83.3467 21.0042 83.3453 21.0127 83.3412C21.2409 83.2509 21.4987 83.1469 21.5734 82.9565C21.61 82.8651 21.6001 82.7634 21.5423 82.6565C21.5315 82.6354 21.5119 82.6184 21.4864 82.6129Z" fill="#8F7ECE"/>
<path opacity="0.58" d="M17.9555 82.8016C17.9695 82.8382 18.0102 82.8622 18.0527 82.8593C18.0556 82.8578 18.0583 82.8578 18.0583 82.8578C18.4822 82.7902 19.0696 82.4409 19.2486 82.1506C19.2682 82.1181 19.2656 82.0774 19.2416 82.0492C19.1909 81.9915 19.0922 81.9282 18.9105 81.9408C18.6091 81.9634 18.2048 82.1972 18.0272 82.4524C17.9414 82.5763 17.9174 82.6973 17.9555 82.8016Z" fill="#8F7ECE"/>
<path opacity="0.58" d="M15.3476 84.3556C15.5829 84.3386 15.8688 84.1965 16.1451 84.0597C16.2549 84.0049 16.3633 83.9513 16.4662 83.9062C16.5675 83.8625 16.6774 83.8218 16.7887 83.7793C17.2352 83.6103 17.696 83.4371 17.6706 83.0835C17.6676 83.0454 17.638 83.0117 17.5973 83.0032C17.2789 82.9356 16.8268 83.1482 16.3589 83.3809C16.2013 83.4611 16.0405 83.5399 15.8829 83.6091C15.8152 83.6387 15.7349 83.6683 15.6546 83.6964C15.3432 83.8062 14.9896 83.9316 15.0166 84.2275C15.0195 84.2542 15.0335 84.2782 15.0587 84.2937C15.1364 84.3427 15.2322 84.3638 15.3476 84.3556Z" fill="#8F7ECE"/>
<path opacity="0.58" d="M19.3629 82.5117C19.0473 82.5343 18.5091 82.8413 18.3922 83.1246C18.3486 83.2274 18.3641 83.3232 18.4359 83.3935C18.457 83.4146 18.4837 83.4231 18.5121 83.4217C18.5176 83.4217 18.5247 83.4202 18.5291 83.4187C18.8531 83.337 19.584 83.0341 19.6447 82.6579C19.6503 82.6283 19.6391 82.5987 19.6166 82.5776C19.5556 82.5269 19.4713 82.5032 19.3629 82.5117Z" fill="#8F7ECE"/>
<path opacity="0.58" d="M17.9109 85.5981C17.7966 85.529 17.6897 85.4657 17.5954 85.3713C17.5798 85.2489 17.5869 85.1165 17.5968 84.977C17.6124 84.6996 17.6294 84.4107 17.4533 84.1825C17.4281 84.15 17.3841 84.1318 17.3449 84.1514C16.9801 84.2739 17.0153 84.5572 17.0405 84.7629C17.0519 84.8461 17.0616 84.9263 17.0519 84.994C16.9813 84.9545 16.9125 84.8912 16.8421 84.825C16.7053 84.6969 16.5518 84.5502 16.3224 84.5672C16.2773 84.5701 16.2293 84.5797 16.1815 84.5967C16.1378 84.6108 16.1124 84.6518 16.1197 84.6955C16.1748 85.0561 16.4677 85.2392 16.7267 85.4012C16.8577 85.4844 16.9831 85.5632 17.0774 85.6605C17.0956 85.7604 17.0929 85.8717 17.09 85.9901C17.0859 86.2365 17.08 86.5157 17.2845 86.714C17.3042 86.7336 17.3311 86.7436 17.3592 86.7407C17.3648 86.7407 17.3704 86.7392 17.3762 86.7392C17.7398 86.649 17.6932 86.3871 17.6636 86.2151C17.651 86.1474 17.6425 86.0941 17.644 86.0504C17.7934 86.1928 17.9751 86.3604 18.1793 86.3449C18.2751 86.3378 18.3597 86.2942 18.4356 86.2125C18.4611 86.1858 18.4667 86.1462 18.4511 86.114C18.3067 85.8348 18.1069 85.7135 17.9109 85.5981Z" fill="#8F7ECE"/>
</g>
</g>
<path fill-rule="evenodd" clip-rule="evenodd" d="M30.4015 109.561C29.6788 109.946 30.0875 110.673 30.2199 111.108C30.4001 111.704 30.7059 112.345 30.8861 112.842C31.2875 113.944 31.4343 115.104 31.4483 116.219C31.475 118.314 31.1061 120.559 30.3353 122.71C28.8535 126.853 25.3247 131.036 26.4418 135.452C27.0995 138.052 29.1438 140.095 31.347 141.17C33.3714 142.157 35.4731 142.483 37.789 142.319C40.0417 142.16 42.4013 141.726 44.624 140.509C47.1075 139.151 49.1756 136.966 50.4702 134.88C52.8749 131.003 53.3876 126.415 52.5608 121.925C52.1284 119.588 51.4338 117.267 49.9771 114.999C46.9188 110.24 42.142 106.313 38.2666 103.821C34.1334 101.162 30.1033 99.4834 25.8166 97.4323C23.0331 96.0996 19.579 94.1809 18.311 90.4957C18.0336 89.6856 17.7473 88.5574 17.9545 87.9697C18.2348 87.1781 19.2673 86.1849 20.3422 85.4622C21.9101 84.4057 23.723 84.1168 25.3868 84.0506C30.2328 83.8605 35.1069 84.996 39.819 85.0523C45.9019 85.1226 52.0493 84.672 58.69 79.4288C59.0196 79.1695 59.5988 78.9216 59.5578 78.3539C59.1717 77.9806 58.6534 78.2917 58.3238 78.4707C57.8659 78.7215 57.3913 79.0751 56.9996 79.3625C50.907 83.7972 45.2691 84.0776 39.5583 83.9311C34.8617 83.8113 30.0438 82.7367 25.1656 82.9801C22.8567 83.0941 20.3111 83.9226 18.3022 86.1372C19.1249 82.8802 23.3524 81.0884 26.0304 80.4249C29.0562 79.6725 32.0864 79.398 34.8772 79.2867C37.9115 79.1642 40.6191 79.2697 43.6223 79.0078C44.9902 78.8894 46.5453 78.6711 48.081 78.1385C49.8503 77.5256 52.4155 76.2946 53.4764 74.504C53.6384 74.2292 53.9258 73.8193 53.6835 73.4827C51.1434 76.3959 48.1317 77.2608 45.3804 77.7779C42.6011 78.2976 39.8176 78.0357 37.1987 78.0779C34.5617 78.1186 31.7653 78.1623 28.9859 78.6372C26.1558 79.1188 23.1708 79.6078 20.3662 81.5446C18.28 82.9857 17.2051 84.8481 16.8078 86.6159C16.3994 88.4203 16.688 90.3474 17.6334 92.2013C19.8535 96.5642 23.9993 98.0997 27.3394 99.6603C34.0027 102.769 41.5209 106.164 47.5853 113.846C50.0507 116.969 51.0479 120.04 51.4634 123.103C51.8762 126.15 51.5691 129.115 50.576 131.755C49.5011 134.616 47.2247 137.593 43.9719 139.387C41.0489 140.998 37.8286 141.44 35.0152 141.076C32.5077 140.757 28.6141 138.97 27.6843 135.249C26.9304 132.228 28.6138 129.463 29.948 126.758C31.8596 122.879 33.3936 118.253 32.4189 113.893C32.1737 112.793 31.8555 111.667 31.209 110.484C31.03 110.16 30.8931 109.617 30.4015 109.561Z" fill="#4D3D87"/>
<path fill-rule="evenodd" clip-rule="evenodd" d="M29.0145 110.615C29.3807 111.307 30.2359 111.572 30.929 111.207C31.6193 110.842 31.8841 109.986 31.5194 109.294L30.7008 107.743C30.3361 107.053 29.4794 106.788 28.7877 107.153C28.0946 107.517 27.8326 108.374 28.1959 109.066L29.0145 110.615Z" fill="#4D3D87"/>
<path fill-rule="evenodd" clip-rule="evenodd" d="M57.137 71.9559C55.9071 73.0124 54.6802 74.0703 53.4166 75.1185C53.0685 74.8001 52.7178 74.5001 52.3798 74.145C53.7221 72.773 56.1623 69.9541 58.7205 68.8625C59.7544 68.4201 61.3138 68.3387 61.6704 69.822C61.9959 71.1857 60.0292 73.2099 58.4205 72.7944C57.909 72.6632 57.5961 72.314 57.137 71.9559Z" fill="#4D3D87"/>
<path fill-rule="evenodd" clip-rule="evenodd" d="M57.9492 71.3165C58.0561 70.9502 59.1269 69.9331 59.482 70.374C59.7187 70.6669 59.2271 71.0376 58.9579 71.2687C58.7522 71.4448 58.372 71.9463 58.0409 71.7252C57.8604 71.6068 57.9184 71.4178 57.9492 71.3165Z" fill="white"/>
<path fill-rule="evenodd" clip-rule="evenodd" d="M61.0498 70.5641C61.1075 70.9684 60.5327 71.2925 60.2807 71.0346C59.9693 70.715 60.944 69.8613 61.0498 70.5641Z" fill="white"/>
<path fill-rule="evenodd" clip-rule="evenodd" d="M61.5008 76.0778C60.1514 76.9737 58.8002 77.8696 57.4493 78.8009C57.6635 79.2237 57.8565 79.6421 58.1059 80.0631C59.7907 79.1431 63.166 77.5585 64.9086 75.3917C65.6129 74.5139 66.1144 73.0362 64.7832 72.2926C63.5603 71.6094 61.0783 72.9518 61.0432 74.6141C61.0303 75.1426 61.2799 75.5384 61.5008 76.0778Z" fill="#4D3D87"/>
<path fill-rule="evenodd" clip-rule="evenodd" d="M62.335 75.4707C62.7182 75.4666 63.9874 74.7099 63.6607 74.2494C63.4424 73.9423 62.952 74.3156 62.6564 74.5116C62.4311 74.6622 61.8449 74.8918 61.9688 75.2709C62.0335 75.4763 62.2322 75.4707 62.335 75.4707Z" fill="white"/>
<path fill-rule="evenodd" clip-rule="evenodd" d="M63.8991 72.6886C63.5273 72.5237 63.0594 72.9901 63.2384 73.3015C63.4611 73.6885 64.5498 72.9801 63.8991 72.6886Z" fill="white"/>
</g>
<defs>
<clipPath id="clip0_320_74977">
<rect width="150" height="150" fill="white"/>
</clipPath>
</defs>
</svg>
