<svg width="150" height="150" viewBox="0 0 150 150" fill="none" xmlns="http://www.w3.org/2000/svg">
<g clip-path="url(#clip0_320_75869)">
<path fill-rule="evenodd" clip-rule="evenodd" d="M122.815 98.4811C122.546 100.711 123.324 103.799 122.292 105.186C121.431 106.345 118.76 106.213 116.109 106.32C111.354 106.509 106.823 106.948 102.088 106.928C95.0543 106.9 87.8616 106.407 80.7515 106.407C76.0576 106.407 71.3833 106.668 66.4699 106.668C56.898 106.666 47.308 106.668 37.4698 106.668C32.9859 106.668 27.8906 106.485 23.0136 106.668C20.9651 106.745 18.2639 106.64 15.8727 106.494C13.4525 106.344 11.2843 105.837 10.4727 104.665C9.58241 103.38 9.81708 100.311 10.0365 98.4811C19.147 98.6935 28.311 98.3071 37.7306 98.3071C40.7508 98.3071 43.8542 98.2731 46.8759 98.1325C52.5322 97.8688 59.9625 98.0464 66.208 98.0452C72.6053 98.0452 79.0022 98.1867 85.1929 98.2207C97.9576 98.2892 110.494 98.9953 122.815 98.4811Z" fill="#8F7ECE"/>
<path fill-rule="evenodd" clip-rule="evenodd" d="M43.5643 64.6919C48.6424 64.4499 54.7218 64.7604 60.0236 64.8659C65.3679 64.9714 70.8596 64.8088 76.3962 64.7786C84.4417 64.7358 92.6691 64.4883 100.781 64.9526C101.954 65.0197 103.354 65.0868 104.787 65.1281C106.408 65.1721 107.916 65.0522 108.793 65.3889C111.294 66.3483 112.398 69.8771 113.583 72.4424C116.723 79.2445 119.678 85.9052 122.117 93.5188C122.597 95.0127 123.178 97.2662 122.64 98.6555C121.483 101.638 115.057 101.181 110.361 101.181C100.399 101.181 90.7452 100.97 81.0998 101.356C76.1401 101.554 71.4037 101.031 66.7302 100.92C64.3361 100.864 61.9771 101.141 59.6767 101.269C57.2551 101.403 54.8304 101.394 52.3604 101.356C47.7567 101.287 42.8398 101.095 37.8175 101.094C33.1994 101.094 28.1908 101.181 23.0999 101.181C18.8319 101.181 11.1886 101.736 10.1243 98.6555C9.63474 97.2395 10.2851 95.0186 10.7328 93.6041C12.9863 86.4835 16.1052 79.1889 19.2678 72.4424C20.3178 70.2035 21.8345 65.9411 24.4059 65.2148C25.5851 64.8797 27.4751 65.1182 29.1084 65.0394C33.8849 64.8147 38.7664 64.9201 43.5643 64.6919Z" fill="#4D3D87"/>
<path fill-rule="evenodd" clip-rule="evenodd" d="M57.4119 69.0463C57.1453 70.5504 56.8099 71.9851 56.5412 73.4874C55.0345 73.6644 53.2213 73.5343 51.5775 73.5747C51.8892 71.9994 52.3738 70.5955 52.7971 69.1327C54.3867 69.1562 55.7781 68.9792 57.4119 69.0463Z" fill="#8F7ECE"/>
<path fill-rule="evenodd" clip-rule="evenodd" d="M62.6371 69.2204C62.3122 70.6363 61.9677 72.0335 61.6803 73.4875C60.3743 73.4875 59.0673 73.4875 57.7613 73.4875C58.0103 71.9365 58.4199 70.5461 58.7187 69.0464C59.9134 69.2163 61.4638 69.0306 62.6371 69.2204Z" fill="#8F7ECE"/>
<path fill-rule="evenodd" clip-rule="evenodd" d="M51.4903 69.1331C51.0455 70.5765 50.7183 72.136 50.2706 73.5751C48.5204 73.5692 46.3334 73.5824 44.8706 73.5751C45.4578 72.2148 45.9602 70.7728 46.4389 69.3071C48.1299 69.2558 49.8107 69.1946 51.4903 69.1331Z" fill="#8F7ECE"/>
<path fill-rule="evenodd" clip-rule="evenodd" d="M68.0374 69.307C68.0966 70.6992 68.244 72.0038 68.2973 73.3995C66.4129 73.3438 64.7181 73.4783 62.8993 73.4877C63.1794 71.9968 63.5688 70.6163 63.9435 69.2206C65.3535 69.2045 66.5782 69.3726 68.0374 69.307Z" fill="#8F7ECE"/>
<path fill-rule="evenodd" clip-rule="evenodd" d="M44.9604 69.3071C45.2715 69.4478 44.9047 69.9953 44.7858 70.3513C44.4313 71.4127 44.0232 72.6906 43.5662 73.6618C41.6498 73.6618 39.7344 73.6618 37.819 73.6618C38.2971 72.1665 38.9337 70.83 39.474 69.3938C41.2845 69.347 43.2896 69.4949 44.9604 69.3071Z" fill="#8F7ECE"/>
<path fill-rule="evenodd" clip-rule="evenodd" d="M73.175 69.3938C73.3309 70.6321 73.3309 72.0249 73.4349 73.3128C71.8528 73.253 70.9628 73.4212 69.5164 73.3995C69.3157 72.1799 69.3556 70.7171 69.2557 69.3938C70.2544 69.3598 71.8971 69.4198 73.175 69.3938Z" fill="#8F7ECE"/>
<path fill-rule="evenodd" clip-rule="evenodd" d="M38.0798 69.3937C37.612 70.8712 37.0401 72.2458 36.5116 73.6617C35.1455 73.606 33.5549 73.7757 32.3327 73.575C32.0649 73.4798 32.5096 73.0174 32.6807 72.7028C33.1717 71.8016 33.7703 70.5893 34.0735 69.481C35.4208 69.4637 36.6619 69.3395 38.0798 69.3937Z" fill="#8F7ECE"/>
<path fill-rule="evenodd" clip-rule="evenodd" d="M74.3937 69.481C75.6134 69.481 76.8327 69.481 78.0515 69.481C78.3339 70.7372 78.5533 72.0564 78.8354 73.3127C77.414 73.3127 75.9907 73.3127 74.5675 73.3127C74.5036 72.0421 74.5326 70.6789 74.3937 69.481Z" fill="#8F7ECE"/>
<path fill-rule="evenodd" clip-rule="evenodd" d="M32.5917 69.5691C32.6503 69.5691 32.7086 69.5691 32.7657 69.5691C32.2313 71.0082 31.5332 72.284 30.8494 73.5749C29.5433 73.5749 28.237 73.5749 26.9309 73.5749C27.1202 72.9409 27.4067 72.3321 27.7143 71.7459C27.988 71.2238 28.2827 70.5075 28.7599 70.1785C29.6998 69.5292 31.1318 69.9069 32.5917 69.5691Z" fill="#8F7ECE"/>
<path fill-rule="evenodd" clip-rule="evenodd" d="M79.3594 69.5693C80.7296 69.6206 82.3125 69.4609 83.5383 69.6546C83.6807 71.0236 84.0958 72.1173 84.3231 73.3996C82.9881 73.2827 81.5071 73.3129 80.0552 73.3129C79.7648 72.1231 79.5598 70.8487 79.3594 69.5693Z" fill="#8F7ECE"/>
<path fill-rule="evenodd" clip-rule="evenodd" d="M84.757 69.6546C86.419 69.591 87.8133 69.7932 89.4604 69.7434C89.7325 71.0963 90.2127 72.2415 90.4178 73.6618C88.885 73.4819 87.1702 73.4849 85.5419 73.3996C85.2536 72.1773 84.9973 70.9237 84.757 69.6546Z" fill="#8F7ECE"/>
<path fill-rule="evenodd" clip-rule="evenodd" d="M95.6425 69.7432C96.1883 71.0551 96.6085 72.4933 97.0374 73.9238C95.2221 73.8509 93.3536 73.8313 91.6374 73.6616C91.4223 72.3099 91.0256 71.1374 90.7667 69.8299C92.4257 69.8354 94.0971 69.8513 95.6425 69.7432Z" fill="#8F7ECE"/>
<path fill-rule="evenodd" clip-rule="evenodd" d="M97.0376 69.7433C99.5387 69.9224 101.937 69.3499 103.395 70.3513C104.506 71.118 104.794 72.8523 105.397 74.2712C103.138 74.0922 100.755 74.0365 98.3437 74.009C97.865 72.632 97.4577 71.1786 97.0376 69.7433Z" fill="#8F7ECE"/>
<path fill-rule="evenodd" clip-rule="evenodd" d="M73.1752 74.6207C73.3044 76.0574 73.511 77.4177 73.7846 78.7132C72.0734 78.7689 70.6249 78.5623 68.9072 78.6259C68.7772 77.246 68.5586 75.9552 68.297 74.706C69.7522 74.5065 71.5768 74.6761 73.1752 74.6207Z" fill="#8F7ECE"/>
<path fill-rule="evenodd" clip-rule="evenodd" d="M74.3066 74.6206C75.583 74.6206 76.8604 74.6206 78.1383 74.6206C78.5658 75.9636 78.8959 77.4026 79.2703 78.7995C77.7909 78.7981 76.2762 78.8326 74.916 78.7128C74.8407 77.2213 74.466 76.0277 74.3066 74.6206Z" fill="#8F7ECE"/>
<path fill-rule="evenodd" clip-rule="evenodd" d="M79.3594 74.7056C80.9558 74.5035 82.9289 74.6775 84.6706 74.6204C85.2006 76.0058 85.5738 77.5489 86.1507 78.886C84.3891 79.1388 82.5015 78.7624 80.5781 78.886C80.1896 77.4748 79.8293 76.0363 79.3594 74.7056Z" fill="#8F7ECE"/>
<path fill-rule="evenodd" clip-rule="evenodd" d="M30.2402 74.7938C29.874 76.1974 29.2769 77.3722 28.7601 78.6255C27.4822 78.6255 26.2048 78.6255 24.9284 78.6255C25.4071 77.3042 25.9544 76.0515 26.4085 74.7056C27.745 74.6775 28.8668 74.8609 30.2402 74.7938Z" fill="#8F7ECE"/>
<path fill-rule="evenodd" clip-rule="evenodd" d="M67.1658 74.7056C67.3368 75.9864 67.5305 77.2441 67.6869 78.5388C65.9461 78.5388 64.2038 78.5388 62.4624 78.5388C62.451 77.1612 62.5837 75.9308 62.7246 74.7056C64.2038 74.7056 65.6842 74.7056 67.1658 74.7056Z" fill="#8F7ECE"/>
<path fill-rule="evenodd" clip-rule="evenodd" d="M85.9771 74.7056C87.9087 74.7214 89.6999 74.8737 91.5506 74.9678C91.9396 76.4083 92.4113 77.7656 92.7702 79.2357C90.9637 79.2126 89.259 79.0893 87.4584 79.0603C86.9967 77.5772 86.4081 76.2196 85.9771 74.7056Z" fill="#8F7ECE"/>
<path fill-rule="evenodd" clip-rule="evenodd" d="M49.9227 74.7937C49.5864 76.1697 49.1536 77.4491 48.7033 78.7127C46.9256 78.6767 45.2522 78.7438 43.5653 78.7994C43.8571 77.3776 44.3601 76.1683 44.7849 74.881C46.5934 74.9481 48.1335 74.7453 49.9227 74.7937Z" fill="#8F7ECE"/>
<path fill-rule="evenodd" clip-rule="evenodd" d="M56.4546 74.7937C56.3796 76.1115 56.1616 77.2883 56.0183 78.5387C53.9506 78.4731 52.1142 78.6398 50.0977 78.6254C50.3547 77.375 50.8211 76.3309 51.0543 75.055C51.1026 74.9293 51.1908 74.8426 51.315 74.7937C53.0295 74.7937 54.7413 74.7937 56.4546 74.7937Z" fill="#8F7ECE"/>
<path fill-rule="evenodd" clip-rule="evenodd" d="M61.5063 74.7937C61.4934 76.117 61.1958 77.1539 61.2441 78.5387C59.9091 78.5387 58.5734 78.5387 57.2384 78.5387C57.4297 77.3352 57.4795 75.9937 57.6746 74.7937C58.9511 74.7937 60.2284 74.7937 61.5063 74.7937Z" fill="#8F7ECE"/>
<path fill-rule="evenodd" clip-rule="evenodd" d="M36.4234 74.8811C35.9974 76.1974 35.3998 77.3412 35.0301 78.7129C33.4337 78.6557 31.8423 78.5901 30.1536 78.6255C30.5564 77.3453 31.1175 76.2226 31.4596 74.8811C33.1143 74.8811 34.7684 74.8811 36.4234 74.8811Z" fill="#8F7ECE"/>
<path fill-rule="evenodd" clip-rule="evenodd" d="M43.4783 74.8811C43.1229 76.2666 42.6061 77.4932 42.1714 78.7996C40.2319 78.7656 38.1419 78.8813 36.3375 78.7129C36.7201 77.3837 37.26 76.2097 37.6435 74.8811C39.9694 74.991 40.5049 74.8899 43.4783 74.8811Z" fill="#8F7ECE"/>
<path fill-rule="evenodd" clip-rule="evenodd" d="M92.7692 75.1419C94.2832 74.9354 96.0343 75.2444 97.6465 75.2301C98.1721 76.5889 98.5556 78.0936 99.0393 79.4966C97.3946 79.4295 95.778 79.3343 94.0752 79.3226C93.6991 77.8683 93.266 76.4732 92.7692 75.1419Z" fill="#8F7ECE"/>
<path fill-rule="evenodd" clip-rule="evenodd" d="M99.0402 75.23C101.27 75.4099 103.751 75.3369 105.921 75.578C106.401 76.8683 106.674 78.365 107.053 79.7587C105.182 79.7716 102.724 79.6163 100.695 79.4965C100.23 79.0148 99.9862 78.2566 99.7372 77.5802C99.4779 76.8785 99.3212 76.1464 99.0405 75.4907C99.0402 75.4037 99.0402 75.3164 99.0402 75.23Z" fill="#8F7ECE"/>
<path fill-rule="evenodd" clip-rule="evenodd" d="M77.9656 80.1055C78.2249 80.3516 78.4162 80.8991 78.575 81.3251C79.0197 82.5172 79.3815 83.9944 79.7064 85.4191C69.5173 85.2904 59.3272 85.3903 49.2262 85.7665C49.6039 83.7925 49.9982 81.8366 50.4459 79.9318C59.6477 79.6198 68.302 79.8196 77.9656 80.1055Z" fill="#8F7ECE"/>
<path fill-rule="evenodd" clip-rule="evenodd" d="M29.0213 79.8438C28.3202 82.1348 27.4618 84.2641 26.6711 86.4634C25.2256 86.3125 23.6559 86.285 23.1001 85.2437C23.1262 82.9759 23.9052 81.4618 24.5802 79.8438C26.0617 79.8438 27.5412 79.8438 29.0213 79.8438Z" fill="#8F7ECE"/>
<path fill-rule="evenodd" clip-rule="evenodd" d="M30.5026 79.8435C31.7277 79.9835 33.156 79.9194 34.5074 79.9317C34.0944 82.2183 33.4454 84.2697 32.8525 86.3764C31.3592 86.5071 29.6799 86.4543 28.0639 86.4631C28.3208 85.4175 28.8227 84.3693 29.1959 83.2408C29.592 82.0443 29.769 80.7113 30.5026 79.8435Z" fill="#8F7ECE"/>
<path fill-rule="evenodd" clip-rule="evenodd" d="M49.225 79.9316C48.7739 81.918 48.352 83.9345 47.8314 85.8537C45.6951 85.866 43.6639 85.9814 41.648 86.1159C42.1454 83.9403 42.9605 82.0861 43.5643 80.0192C45.5369 80.0761 47.3187 79.9419 49.225 79.9316Z" fill="#8F7ECE"/>
<path fill-rule="evenodd" clip-rule="evenodd" d="M42.2599 80.019C41.6771 82.1642 40.9104 84.1288 40.1704 86.1157C38.3141 86.3208 36.21 86.2769 34.2477 86.3765C34.6623 84.2935 35.3048 82.4393 35.642 80.2798C35.6376 80.1318 35.7061 80.0545 35.816 80.019C37.9638 80.019 40.1118 80.019 42.2599 80.019Z" fill="#8F7ECE"/>
<path fill-rule="evenodd" clip-rule="evenodd" d="M79.3594 80.1055C81.9146 80.0759 84.2352 80.2795 86.7615 80.2795C87.3586 82.0326 87.856 83.8874 88.3289 85.7662C85.8899 85.7091 83.6083 85.494 81.1008 85.5055C80.5895 83.6355 80.03 81.8152 79.3594 80.1055Z" fill="#8F7ECE"/>
<path fill-rule="evenodd" clip-rule="evenodd" d="M88.0687 80.3678C90.1728 80.352 92.0487 80.5655 94.1642 80.5418C94.6711 82.4733 95.2423 84.339 95.8192 86.2026C93.7505 86.093 91.7065 85.9609 89.6358 85.8539C89.2139 83.9244 88.5741 82.2126 88.0687 80.3678Z" fill="#8F7ECE"/>
<path fill-rule="evenodd" clip-rule="evenodd" d="M95.3818 80.7158C96.8692 80.5348 98.6496 80.8154 100.259 80.8025C101.178 82.5246 101.539 84.8068 102.262 86.7252C100.695 86.8392 98.9575 86.3707 97.2117 86.3766C96.5971 84.4948 95.9833 82.611 95.3818 80.7158Z" fill="#8F7ECE"/>
<path fill-rule="evenodd" clip-rule="evenodd" d="M101.653 80.8025C103.477 80.9815 105.524 80.9361 107.314 81.1511C107.488 81.9251 107.819 82.8249 108.01 83.7641C108.197 84.6767 108.456 85.9828 108.097 86.6369C107.418 87.8818 104.994 87.0002 103.569 86.9856C103.076 84.7778 102.268 82.8875 101.653 80.8025Z" fill="#8F7ECE"/>
<path opacity="0.75" fill-rule="evenodd" clip-rule="evenodd" d="M54.1891 88.2919C55.7854 88.0089 58.5458 88.2052 60.7211 88.2052C65.0872 88.2052 69.09 88.3792 73.3472 88.3792C75.0481 88.3792 78.0692 87.9172 79.2698 88.64C80.4481 89.3489 80.8697 91.8348 81.0985 93.7792C81.1434 94.156 81.3268 95.3563 81.0118 95.7814C80.5533 96.3972 78.5772 96.0896 77.4408 96.0421C69.5939 95.7266 62.8322 95.8687 54.3619 95.8687C53.4449 95.8687 51.3751 96.1502 50.9661 95.346C50.5357 94.5014 51.3807 92.9668 51.7495 91.7765C52.3108 89.9642 52.3665 88.6154 54.1891 88.2919Z" fill="white"/>
<path fill-rule="evenodd" clip-rule="evenodd" d="M29.0689 93.9043C29.1729 92.9129 29.344 90.8407 30.4479 91.2761C31.0948 91.5295 31.0203 93.0055 30.9374 93.9916C30.8349 95.2189 30.7268 96.3389 30.3699 97.3288C30.2038 97.7859 29.8798 98.1808 29.5549 98.1635C28.9297 98.1281 28.5447 97.2503 28.2717 96.783C27.578 95.6053 27.1657 94.9441 26.4992 93.6348C26.2531 93.1511 25.8125 92.2804 26.2356 91.775C26.3279 91.6651 26.6176 91.557 26.7872 91.5699C27.411 91.6139 27.8226 92.2148 28.1577 92.6211C28.5532 93.1027 28.8181 93.4739 29.0689 93.9043Z" fill="#FF5000"/>
<path fill-rule="evenodd" clip-rule="evenodd" d="M20.9046 92.0141C20.0058 91.2248 18.7141 89.9671 17.587 89.5728C17.2897 89.4687 16.7301 89.3431 16.3633 89.6738C16.136 89.8818 16.133 90.3664 16.2197 90.6992C16.4421 91.5482 17.0363 92.3202 17.5815 92.9844C18.0971 93.611 18.6754 94.1351 19.2297 94.6083C19.6765 94.9903 20.3603 95.5628 21.0115 95.9272C21.5559 96.2334 22.6563 96.7229 23.3002 96.2905C24.0382 95.7945 23.8504 94.359 23.7537 93.3772C23.6181 91.9997 23.2844 89.9519 22.2549 88.4943C21.9842 88.1117 21.5638 87.7253 21.1683 87.8691C20.5076 88.1088 20.6072 89.2669 20.6116 89.7723C20.6163 90.5554 20.662 91.216 20.9046 92.0141Z" fill="#FF5000"/>
<path fill-rule="evenodd" clip-rule="evenodd" d="M12.4676 99.944C13.4229 99.6674 15.0416 100.115 16.604 100.648C17.2734 100.875 18.3512 101.263 18.2133 101.884C18.051 102.631 16.7578 102.386 16.2964 102.296C14.8321 102.013 13.1223 101.374 12.3123 100.767C12.2012 100.559 12.2935 100.151 12.4676 99.944Z" fill="white"/>
<path fill-rule="evenodd" clip-rule="evenodd" d="M20.0094 99.1034C20.0493 97.5 23.4916 98.175 23.0932 99.4456C22.9198 99.9964 21.1321 100.291 20.3812 99.8557C20.112 99.6993 20.0024 99.3814 20.0094 99.1034Z" fill="white"/>
<path fill-rule="evenodd" clip-rule="evenodd" d="M23.5526 101.449C23.5078 100.881 24.2414 100.503 25.0632 100.42C25.7229 100.353 27.0176 100.527 26.8494 101.272C26.7785 101.603 26.2283 101.982 25.5475 102.07C24.7497 102.172 23.6118 102.18 23.5526 101.449Z" fill="white"/>
<path fill-rule="evenodd" clip-rule="evenodd" d="M31.6359 6.55172C38.2555 6.23561 45.1095 6.68033 51.6656 6.55172C58.1423 6.42399 64.7502 6.37272 71.3467 6.63785C77.2969 6.87838 84.0354 7.0732 90.8543 7.0732C94.9799 7.0732 100.81 6.65455 105.485 6.72457C108.189 6.76734 109.888 6.99674 110.71 8.64147C111.374 9.96627 111.226 12.3194 111.146 15.1729C111.082 17.4604 111.104 20.1686 111.059 22.3137C110.959 27.0156 110.798 31.4769 110.798 36.5095C110.796 41.2843 110.825 45.9124 110.71 50.7045C110.585 55.9058 111.515 63.4729 108.359 65.3347C107.402 65.8987 105.299 65.9441 103.395 65.9441C101.486 65.9441 99.539 65.8228 97.9945 65.7701C87.0639 65.3933 75.977 65.4214 65.076 65.4214C58.0101 65.4229 50.9757 65.0743 43.2173 65.0743C37.9602 65.0743 32.1545 65.2893 27.106 64.464C25.4223 64.1898 23.5204 63.5954 22.9262 62.5486C22.1428 61.1652 21.9023 58.849 21.7069 56.5383C20.7328 45.0648 21.3583 33.5312 21.3583 21.1808C21.3583 18.949 21.5179 16.3477 21.6205 14.214C21.7362 11.7923 21.6688 9.18727 22.6646 8.11881C23.4302 7.2985 25.0749 7.08492 26.6718 6.90006C28.4235 6.69527 30.152 6.62174 31.6359 6.55172Z" fill="#8F7ECE"/>
<path fill-rule="evenodd" clip-rule="evenodd" d="M29.1979 9.42463C32.1467 9.07453 35.9892 9.509 39.2131 9.59865C42.5034 9.68976 45.7627 9.83683 48.9663 9.94728C55.4998 10.1726 62.1639 10.0528 68.8211 9.77267C75.4949 9.49172 81.676 9.33791 88.6767 9.33791C91.8001 9.33791 95.1338 9.42463 98.6919 9.42463C100.327 9.42463 102.089 9.28517 103.569 9.42463C105.109 9.57053 106.498 10.07 107.054 10.992C107.763 12.1724 107.575 15.0713 107.575 16.8259C107.575 19.1579 107.488 21.1235 107.488 23.0102C107.488 27.3986 107.75 31.3504 107.75 35.377C107.75 39.7785 107.786 43.4096 107.924 47.8305C107.986 49.8449 107.861 51.9693 107.924 53.9257C107.985 55.8493 108.066 58.806 107.314 59.936C106.7 60.8559 105.183 61.4486 103.482 61.4154C98.6263 61.3217 92.9916 61.8133 88.0688 61.5895C81.0587 61.2719 74.0948 61.6762 67.689 61.6777C60.4428 61.6777 54.0188 61.84 46.7881 61.5895C42.0053 61.4242 36.3215 61.7477 31.3744 61.4154C29.5981 61.2962 27.7606 61.2892 26.9333 60.632C25.9671 59.863 25.7008 57.3373 25.5405 55.3194C25.0302 48.9279 25.3009 42.2954 25.6272 35.8999C25.8452 31.629 25.8452 27.6212 26.0632 23.0105C26.1543 21.0857 26.1499 18.9757 26.1499 16.653C26.1499 13.2868 25.718 9.53303 29.0227 9.42492C29.0796 9.42316 29.1411 9.43195 29.1979 9.42463Z" fill="#4D3D87"/>
<path opacity="0.75" fill-rule="evenodd" clip-rule="evenodd" d="M37.7659 35.958C38.0469 37.4223 38.3463 39.2981 38.5607 41.0258C38.7233 42.3052 39.1666 43.584 38.7031 44.5227C37.9312 44.496 37.4404 43.7422 36.9617 43.291C35.4772 41.888 33.8404 40.5075 32.3249 39.0374C33.415 37.499 35.1436 36.4139 37.7659 35.958Z" fill="white"/>
<path fill-rule="evenodd" clip-rule="evenodd" d="M37.1284 44.7155C34.7732 45.1509 32.0562 45.3061 29.7406 45.3747C29.368 43.3219 30.2431 41.5998 31.2403 40.2952C31.2901 40.2864 31.3385 40.2779 31.3883 40.27C32.3211 41.0145 33.3198 41.7595 34.3024 42.525C35.2672 43.2753 36.4326 43.8284 37.1284 44.7155Z" fill="#8F7ECE"/>
<path fill-rule="evenodd" clip-rule="evenodd" d="M39.8261 36.6043C43.5981 36.5891 46.8234 38.5602 48.4839 41.2253C49.0456 42.1242 49.4783 43.2383 49.5641 44.6926C49.8457 49.4103 45.1643 54.1338 40.1411 54.8162C36.2299 55.3461 32.8212 53.4292 31.1959 50.6487C30.6328 49.6883 30.0219 48.4804 30.1057 47.1143C30.8197 46.7894 31.6957 46.7396 32.5432 46.6558C34.1786 46.492 35.8552 46.2767 37.5128 45.931C38.1996 45.788 39.4675 45.7265 39.8068 45.4204C40.0754 45.1784 40.0415 44.039 40.0312 43.4493C39.9972 41.2983 39.6181 38.6645 39.6477 36.8355C39.6723 36.7329 39.7324 36.6556 39.8261 36.6043Z" fill="#EFAD1B"/>
<path fill-rule="evenodd" clip-rule="evenodd" d="M51.2508 42.8737C50.9968 42.2013 51.0167 41.1971 51.0358 40.1957C51.051 39.3279 50.8647 38.0974 51.3361 37.7271C52.0154 37.314 53.3997 37.5575 54.4406 37.5956C57.2335 37.699 59.9063 37.6375 62.9748 37.5833C64.723 37.5516 66.7207 37.6173 68.6687 37.5971C69.52 37.5891 70.6152 37.5906 71.5184 37.639C72.4102 37.6873 73.558 37.774 73.8873 38.2296C74.3414 38.8606 74.2049 40.1588 74.1278 41.1127C74.0663 41.8296 74.0268 43.2707 73.6225 43.6073C73.1754 43.9791 71.5345 43.871 70.7394 43.8493C66.0375 43.7142 61.3597 43.5092 56.5963 43.4189C55.6547 43.4022 54.6656 43.4037 53.7457 43.3776C52.8586 43.3536 51.9114 43.4708 51.2508 42.8737Z" fill="#B1BC00"/>
<path fill-rule="evenodd" clip-rule="evenodd" d="M64.3685 45.4257C64.403 45.4105 64.4153 45.3492 64.4956 45.339C66.102 45.121 67.1634 45.5165 69.1064 45.5657C70.0313 45.5865 72.9835 45.443 73.4197 46.1766C73.7186 46.679 73.4956 47.8075 73.4435 48.4638C73.3784 49.2803 73.307 49.9072 73.2528 50.7109C73.1719 51.9237 73.2923 54.3217 72.3993 54.7773C71.7797 55.0948 70.7901 54.8359 70.0433 54.8098C69.1943 54.7802 68.4569 54.7729 67.6802 54.7743C66.2203 54.7787 64.0078 54.9923 63.4764 53.9397C63.2186 53.4299 63.324 52.5109 63.3841 51.6615C63.4339 50.9584 63.4764 50.1873 63.5156 49.4942C63.5596 48.692 63.5364 48.1723 63.569 47.2647C63.5965 46.5196 63.7532 45.6821 64.3685 45.4257Z" fill="#8F7ECE"/>
<path opacity="0.75" fill-rule="evenodd" clip-rule="evenodd" d="M62.042 46.2506C61.9907 46.6001 61.9453 46.9531 61.9804 47.3689C58.3054 47.3905 54.8455 47.1298 51.1913 47.1242C51.1321 46.8195 51.1189 46.0555 51.2859 45.7241C54.8513 45.9251 58.5486 45.9559 62.042 46.2506Z" fill="white"/>
<path opacity="0.75" fill-rule="evenodd" clip-rule="evenodd" d="M61.7508 48.7876C61.8499 49.0287 61.7681 49.6041 61.6881 49.9062C58.026 49.9929 54.6144 49.7494 50.9878 49.7878C51.0607 49.4146 50.9784 48.9235 51.1076 48.5928C54.6671 48.6426 58.0709 48.8945 61.7508 48.7876Z" fill="white"/>
<path opacity="0.75" fill-rule="evenodd" clip-rule="evenodd" d="M61.5904 51.7936C61.542 52.1865 61.5406 52.6154 61.4705 52.9886C58.0525 52.7791 54.5738 52.6523 50.953 52.7062C50.919 52.1891 50.9219 51.7025 50.9703 51.2463C54.5122 51.4262 57.9643 51.7221 61.5904 51.7936Z" fill="white"/>
<path fill-rule="evenodd" clip-rule="evenodd" d="M79.8392 43.2079C79.5858 42.5359 79.6074 41.5316 79.6256 40.5308C79.6414 39.6627 79.4551 38.4325 79.9268 38.0622C80.6047 37.65 81.9896 37.8926 83.0308 37.9307C85.8237 38.0332 88.4979 37.9717 91.5659 37.9178C93.314 37.8867 95.3123 37.9524 97.2577 37.9336C98.1096 37.9234 99.2065 37.9248 100.108 37.9732C101.001 38.0215 102.148 38.1088 102.477 38.5644C102.933 39.1954 102.796 40.493 102.718 41.4475C102.659 42.1638 102.617 43.6055 102.212 43.9421C101.766 44.3133 100.124 44.2064 99.3307 44.1841C94.6274 44.0499 89.9495 43.8448 85.1856 43.7537C84.244 43.7364 83.257 43.7379 82.3356 43.7127C81.4479 43.6884 80.5004 43.8053 79.8392 43.2079Z" fill="#B1BC00"/>
<path fill-rule="evenodd" clip-rule="evenodd" d="M92.9564 45.761C92.991 45.7452 93.0056 45.6851 93.0835 45.6743C94.6914 45.4563 95.7528 45.8533 97.6943 45.9002C98.6186 45.9233 101.571 45.7798 102.008 46.5134C102.306 47.0143 102.083 48.1423 102.032 48.8006C101.967 49.615 101.895 50.2417 101.841 51.0453C101.76 52.2605 101.881 54.6561 100.988 55.1126C100.368 55.4301 99.3797 55.1703 98.633 55.1451C97.7825 55.117 97.0445 55.1082 96.2684 55.1096C94.8085 55.114 92.596 55.3276 92.0655 54.275C91.8071 53.7661 91.9126 52.8462 91.9723 51.9968C92.0236 51.2928 92.0669 50.5223 92.1039 49.8286C92.1478 49.027 92.1247 48.5073 92.1595 47.5997C92.1844 46.8564 92.3412 46.0188 92.9564 45.761Z" fill="#8F7ECE"/>
<path opacity="0.75" fill-rule="evenodd" clip-rule="evenodd" d="M90.6296 46.5874C90.5784 46.9346 90.533 47.2899 90.5684 47.7042C86.8934 47.725 83.4334 47.4646 79.7798 47.4593C79.7212 47.154 79.7069 46.3908 79.8736 46.0586C83.4405 46.2596 87.1371 46.2912 90.6296 46.5874Z" fill="white"/>
<path opacity="0.75" fill-rule="evenodd" clip-rule="evenodd" d="M90.3388 49.1231C90.4384 49.3636 90.3561 49.939 90.2782 50.2422C86.6137 50.3281 83.2038 50.084 79.5763 50.123C79.6498 49.7512 79.5675 49.2582 79.6953 48.928C83.2557 48.9781 86.6579 49.2312 90.3388 49.1231Z" fill="white"/>
<path opacity="0.75" fill-rule="evenodd" clip-rule="evenodd" d="M90.1791 52.128C90.1299 52.5214 90.1299 52.9503 90.0593 53.3236C86.6403 53.1156 83.1619 52.9887 79.5423 53.0412C79.5068 52.5241 79.5112 52.0369 79.5581 51.5828C83.1007 51.7612 86.5518 52.0588 90.1791 52.128Z" fill="white"/>
<path fill-rule="evenodd" clip-rule="evenodd" d="M44.5543 17.9649C44.2323 17.0262 44.1016 15.6753 44.503 15.0117C45.1631 14.5714 46.6042 14.7656 47.6307 14.6982C50.464 14.509 53.2985 14.4448 56.1347 14.3063C65.5054 13.8448 74.5956 13.9078 83.6222 14.2623C85.1372 14.3221 88.0426 14.0818 88.6762 14.8565C89.3498 15.6809 89.1816 18.0399 88.7715 18.4072C88.2878 18.8391 87.035 18.7436 85.9499 18.738C83.3592 18.7222 79.8104 18.738 77.5912 18.7207C73.6698 18.6897 70.2128 18.45 66.6635 18.3765C61.0994 18.2596 55.5456 18.2341 49.8734 18.3548C48.9529 18.375 48.004 18.3961 47.0682 18.3779C46.2394 18.3618 45.2638 18.523 44.5543 17.9649Z" fill="#EFAD1B"/>
<path opacity="0.75" fill-rule="evenodd" clip-rule="evenodd" d="M83.8661 21.5842C77.6127 21.5582 71.3461 21.564 65.0979 21.4999C53.4545 21.3762 41.2828 21.4319 28.8668 22.0413L29.1231 23.9271C34.8055 23.7293 40.396 23.4159 45.8792 23.2902C58.9104 22.9928 71.267 23.3233 83.6481 23.4308C89.8886 23.4835 96.1637 23.4156 102.427 23.589C102.574 22.9401 102.787 22.3219 102.741 21.5795C96.3225 21.9156 90.1171 21.6109 83.8661 21.5842Z" fill="white"/>
<path opacity="0.75" fill-rule="evenodd" clip-rule="evenodd" d="M29.5686 25.3005C42.2415 25.2378 90.2655 26.5483 102.792 26.6904C102.809 27.2874 102.733 27.8203 102.7 28.3814C96.7199 27.9979 54.4938 27.3633 48.2773 27.1907C42.0982 27.0197 35.8193 27.1307 29.553 26.9798C29.5275 26.3971 29.4373 25.7734 29.5686 25.3005Z" fill="white"/>
<path opacity="0.75" fill-rule="evenodd" clip-rule="evenodd" d="M102.762 30.8001C102.706 31.5208 102.702 32.2758 102.774 33.0847C92.8244 32.6081 40.0432 31.5909 29.8042 31.5085C29.7717 30.7917 29.7658 30.0947 29.6548 29.3245C39.9521 29.3502 92.6996 30.4471 102.762 30.8001Z" fill="white"/>
<path fill-rule="evenodd" clip-rule="evenodd" d="M107.405 12.0455C108.198 12.2081 107.965 13.9928 107.778 15.107C107.641 15.9317 107.331 16.8247 106.737 16.58C106.417 16.4508 106.303 15.8755 106.238 15.448C106.086 14.4522 106.199 12.7246 106.616 12.3352C106.809 12.1539 107.133 11.9922 107.405 12.0455Z" fill="white"/>
<path fill-rule="evenodd" clip-rule="evenodd" d="M107.256 19.1582C107.679 19.7966 107.604 21.4334 106.601 21.1012C105.655 20.788 106.47 17.9691 107.256 19.1582Z" fill="white"/>
<path fill-rule="evenodd" clip-rule="evenodd" d="M25.4371 48.305C26.2486 48.9873 26.7115 53.2741 25.2443 53.3417C24.0478 53.393 23.7258 49.6017 24.4694 48.5959C24.6616 48.3366 24.8608 48.2356 25.4371 48.305Z" fill="white"/>
<path fill-rule="evenodd" clip-rule="evenodd" d="M25.6316 55.1791C26.9643 54.9638 27.1595 58.2418 25.922 58.2787C25.399 58.2945 25.247 57.9474 25.0489 57.3105C24.7592 56.3706 24.6985 55.33 25.6316 55.1791Z" fill="white"/>
<path fill-rule="evenodd" clip-rule="evenodd" d="M146.904 84.6892L145.906 82.6648L91.7357 122.656L57.6087 109.282L55.5538 110.878C55.5538 110.878 55.7343 113.228 55.5538 113.228C55.371 113.228 82.6918 125.181 82.6918 125.181L90.9482 127.675L94.032 126.995L147.541 88.6548C146.374 87.7478 146.162 85.9282 146.904 84.6892Z" fill="#8F7ECE"/>
<path fill-rule="evenodd" clip-rule="evenodd" d="M56.7263 110.336C56.4102 111.124 56.2974 112.114 56.0296 112.949C59.1114 113.732 62.0425 114.833 64.9127 115.997C71.8781 118.822 78.7374 121.782 85.7264 124.88C87.8036 125.801 89.6976 127.324 92.431 126.535C93.5876 126.202 94.9423 125.125 96.176 124.272C104.251 118.688 112.711 112.889 120.561 107.201C129.108 101.009 137.445 94.5039 146.513 88.7407C147.079 88.3797 147.755 87.7946 148.516 87.9558C148.506 88.7732 147.778 89.2856 147.297 89.7845C143.933 93.2755 139.623 96.1469 135.627 99.103C126.419 105.913 117.366 112.51 107.673 119.221C104.217 121.612 100.551 123.998 96.7863 126.361C95.5582 127.132 94.1581 127.995 92.8672 128.363C90.7848 128.959 88.4745 128.025 86.5098 127.405C81.4362 125.807 77.0332 123.937 72.3155 121.833C69.6685 120.652 66.1631 119.045 63.3442 117.652C61.9825 116.978 60.5739 116.23 58.9045 115.476C57.6468 114.906 55.2459 114.042 54.8973 112.948C54.0937 110.431 56.4902 109.198 58.1191 108.16C61.7856 105.825 65.4694 102.786 68.9185 100.409C76.541 95.1526 83.7685 90.6177 91.1258 85.5165C97.1264 81.357 103.324 77.3433 109.153 72.6283C109.668 72.2125 110.302 71.6881 110.895 71.2349C111.552 70.7324 112.455 69.9171 113.159 69.9288C113.522 69.9347 113.904 69.9962 114.295 70.0923C114.551 70.1553 114.341 70.7486 114.603 70.835C114.843 70.9144 115.555 70.4858 115.797 70.5754C116.501 70.837 117.204 71.1236 117.862 71.3222C119.069 71.6864 120.257 72.0505 121.43 72.4164C121.712 72.5043 121.41 72.8351 121.69 72.923C121.83 72.9669 122.553 72.7683 122.692 72.8122C124.425 73.3595 126.131 73.912 127.823 74.4769C128.08 74.5627 128.079 74.9137 128.335 75.0001C128.618 75.0953 129.159 74.926 129.442 75.0221C133.143 76.2807 136.806 77.6075 140.59 79.0724C141.508 79.4272 142.513 79.808 143.551 80.2138C143.808 80.3146 143.749 80.6196 144.01 80.7236C144.141 80.7757 144.592 80.6254 144.723 80.6782C145.524 80.9998 146.332 81.3356 147.123 81.6848C147.857 82.0097 148.752 82.5151 148.777 82.9908C148.833 83.9907 146.068 85.2986 145.381 85.7787C141.848 88.2444 137.987 90.9622 134.582 93.3543C129.465 96.9508 125.136 100.292 120.562 103.805C115.908 107.38 111.416 110.835 106.715 114.517C103.849 116.763 99.7833 119.906 96.0902 122.269C94.7739 123.11 93.1558 124.357 91.4751 124.272C90.1473 124.204 88.4751 123.07 87.2071 122.441C83.1603 120.441 78.7573 118.58 74.4055 116.956C71.3469 115.815 68.363 114.774 65.4357 113.734C62.4615 112.678 59.4231 111.834 56.7263 110.336Z" fill="#FF5000"/>
<path d="M66.0722 108.972C66.8453 108.487 67.6035 107.98 68.3084 107.52C68.665 107.169 68.7215 106.808 68.4968 106.522C68.2302 106.187 67.8795 106.157 67.5452 106.361C66.7416 106.851 65.9509 107.364 65.1646 107.881C64.924 108.038 64.8174 108.291 64.9038 108.576C65.0981 109.214 65.8232 109.127 66.0722 108.972Z" fill="white"/>
<path d="M69.9257 103.173C70.2571 103.015 71.7538 101.69 71.9703 101.496C72.7502 100.794 71.9185 99.7878 71.1228 100.403C70.4484 100.924 69.8074 101.49 69.1517 102.037C68.5092 102.696 69.0694 103.58 69.9257 103.173Z" fill="white"/>
<path d="M79.5121 106.812C80.2284 106.456 80.8255 105.925 81.3821 105.479C81.7598 105.04 81.7923 104.676 81.5301 104.387C81.26 104.096 80.8932 104.068 80.5006 104.384C79.9504 104.828 79.3864 105.25 78.7923 105.633C78.0007 106.143 78.647 107.244 79.5121 106.812Z" fill="white"/>
<path d="M76.6325 102.596C77.2723 102.179 77.8685 101.694 78.3856 101.311C78.7381 100.926 78.8447 100.602 78.5848 100.261C78.3235 99.9151 77.9538 99.9137 77.6347 100.131C77.0254 100.549 76.4427 101.002 75.8599 101.453C75.4439 101.777 75.3516 102.099 75.5406 102.434C75.7366 102.781 76.1848 102.888 76.6325 102.596Z" fill="white"/>
<path d="M72.7025 109.102C73.3098 108.694 73.8779 108.228 74.4035 107.831C74.7457 107.459 74.787 107.105 74.5544 106.827C74.2807 106.502 73.9277 106.471 73.6084 106.695C73.0104 107.117 72.4365 107.576 71.8661 108.035C71.1413 108.62 71.862 109.664 72.7025 109.102Z" fill="white"/>
<path d="M83.6883 100.744C83.2442 101.03 83.1173 101.346 83.2963 101.69C83.7671 102.592 84.8552 101.743 85.6486 101.127C85.9462 100.81 86.0473 100.507 85.8334 100.188C85.3808 99.5161 84.7612 100.055 83.6883 100.744Z" fill="white"/>
<path d="M77.2344 95.7908C78.0084 95.3077 78.7657 94.7994 79.4712 94.3395C79.8272 93.9894 79.8843 93.627 79.659 93.341C79.6344 93.3108 79.6092 93.2854 79.584 93.2607C78.4382 94.016 77.2886 94.7771 76.1349 95.543C76.3894 96.0102 77.0061 95.9323 77.2344 95.7908Z" fill="white"/>
<path d="M90.6705 93.6315C91.3868 93.2755 91.9839 92.7441 92.5405 92.2985C92.9182 91.8596 92.9507 91.4948 92.6879 91.2089C92.4201 90.915 92.0524 90.8869 91.659 91.203C91.1094 91.6472 90.5448 92.0688 89.9513 92.452C89.1594 92.962 89.8057 94.0633 90.6705 93.6315Z" fill="white"/>
<path d="M86.7005 89.253C86.8953 89.6019 87.3433 89.7071 87.7915 89.4156C88.4314 88.9984 89.0276 88.5138 89.5452 88.1318C89.8968 87.7462 90.0037 87.4228 89.7445 87.0806C89.6015 86.8928 89.4269 86.8084 89.2455 86.8049C88.4434 87.3531 87.6418 87.8974 86.8411 88.4353C86.5836 88.7043 86.5426 88.975 86.7005 89.253Z" fill="white"/>
<path d="M83.8629 95.9211C84.4694 95.5138 85.0383 95.0474 85.5639 94.6516C85.904 94.2784 85.9465 93.9239 85.7142 93.6473C85.4414 93.321 85.0875 93.2899 84.767 93.5152C84.1705 93.9368 83.5966 94.3953 83.0268 94.8553C82.302 95.4394 83.0224 96.485 83.8629 95.9211Z" fill="white"/>
<path d="M96.809 87.947C97.1066 87.6292 97.2083 87.3274 96.9944 87.0098C96.5409 86.3363 95.923 86.8756 94.8487 87.5635C94.4046 87.8501 94.2777 88.1665 94.4573 88.5095C94.9275 89.4113 96.0156 88.5623 96.809 87.947Z" fill="white"/>
<path d="M85.7345 116.029C84.9314 116.518 84.1401 117.031 83.3547 117.549C83.1136 117.707 83.0081 117.96 83.0934 118.243C83.2876 118.881 84.0124 118.795 84.2617 118.64C85.0357 118.156 85.7931 117.648 86.4985 117.188C86.8545 116.837 86.9113 116.476 86.6863 116.189C86.4197 115.856 86.0708 115.824 85.7345 116.029Z" fill="white"/>
<path d="M89.0225 111.869C89.3538 111.711 90.8506 110.386 91.0671 110.192C91.847 109.491 91.0152 108.484 90.2201 109.1C89.5451 109.621 88.9038 110.186 88.2484 110.733C87.6059 111.392 88.1661 112.278 89.0225 111.869Z" fill="white"/>
<path d="M97.7 116.48C98.4163 116.124 99.0148 115.592 99.57 115.146C99.9476 114.708 99.9801 114.343 99.7188 114.057C99.4496 113.764 99.0819 113.735 98.6884 114.051C98.1388 114.496 97.5743 114.917 96.9807 115.3C96.1888 115.811 96.8348 116.912 97.7 116.48Z" fill="white"/>
<path d="M94.8199 112.265C95.4597 111.846 96.0559 111.362 96.5736 110.98C96.9266 110.595 97.0321 110.269 96.7728 109.929C96.5106 109.583 96.1418 109.581 95.8227 109.801C95.2148 110.216 94.63 110.67 94.0479 111.123C93.6336 111.445 93.539 111.768 93.7289 112.103C93.9237 112.45 94.3728 112.556 94.8199 112.265Z" fill="white"/>
<path d="M91.7944 116.363C91.1979 116.786 90.624 117.243 90.0545 117.704C89.3294 118.287 90.0501 119.333 90.8906 118.769C91.497 118.363 92.066 117.896 92.5916 117.499C92.9332 117.127 92.9757 116.773 92.7419 116.496C92.4688 116.169 92.1164 116.138 91.7944 116.363Z" fill="white"/>
<path d="M79.6216 112.162C78.9537 112.673 79.6295 113.726 80.3661 113.288C80.9971 112.913 81.5927 112.473 82.1098 112.122C82.8537 111.273 82.0044 110.541 81.3639 110.95C80.7669 111.329 80.1827 111.732 79.6216 112.162Z" fill="white"/>
<path d="M101.878 110.412C101.434 110.698 101.307 111.014 101.487 111.358C101.957 112.259 103.046 111.411 103.84 110.795C104.137 110.479 104.239 110.175 104.024 109.856C103.571 109.184 102.953 109.724 101.878 110.412Z" fill="white"/>
<path d="M103.901 115.289C103.457 115.574 103.33 115.89 103.509 116.234C103.637 116.476 103.808 116.59 104.005 116.616C104.761 116.038 105.481 115.48 106.148 114.96C106.13 114.884 106.098 114.809 106.047 114.733C105.594 114.06 104.975 114.6 103.901 115.289Z" fill="white"/>
<path d="M97.3874 120.699C96.9427 120.984 96.8161 121.3 96.996 121.643C97.0004 121.652 97.0054 121.658 97.0112 121.666C97.809 121.138 98.6176 120.581 99.4227 120.01C98.9803 119.558 98.3773 120.064 97.3874 120.699Z" fill="white"/>
<path d="M123.543 100.961C123.09 100.287 122.472 100.827 121.398 101.516C120.953 101.801 120.827 102.117 121.006 102.46C121.201 102.834 121.503 102.905 121.845 102.818C122.444 102.358 123.041 101.899 123.639 101.444C123.678 101.284 123.654 101.123 123.543 100.961Z" fill="white"/>
<path d="M86.0848 106.395C86.7937 105.896 87.8581 105.116 87.3021 104.46C87.0384 104.148 86.6315 104.145 86.1981 104.489C85.8522 104.762 85.5044 105.045 85.2053 105.367C84.6018 106.018 85.4188 106.865 86.0848 106.395Z" fill="white"/>
<path d="M95.4227 105.459C96.1958 104.976 96.9534 104.469 97.6589 104.008C98.0149 103.657 98.0732 103.295 97.8467 103.011C97.5804 102.676 97.2315 102.645 96.8957 102.849C96.0921 103.338 95.3014 103.851 94.515 104.368C94.2739 104.526 94.1685 104.78 94.2543 105.063C94.448 105.701 95.1728 105.614 95.4227 105.459Z" fill="white"/>
<path d="M101.381 95.9195C100.706 96.4407 100.065 97.0061 99.4084 97.5534C98.7671 98.2111 99.3267 99.097 100.183 98.6884C100.514 98.5302 102.012 97.2053 102.229 97.0117C103.008 96.3109 102.176 95.3052 101.381 95.9195Z" fill="white"/>
<path d="M109.162 104.408C109.878 104.052 110.474 103.52 111.032 103.073C111.41 102.636 111.442 102.271 111.179 101.983C110.911 101.691 110.543 101.661 110.151 101.979C109.6 102.422 109.036 102.844 108.441 103.228C107.65 103.738 108.297 104.839 109.162 104.408Z" fill="white"/>
<path d="M107.934 96.7483C107.672 96.4038 107.303 96.4012 106.984 96.6197C106.374 97.0363 105.792 97.4904 105.209 97.9416C104.794 98.2636 104.7 98.587 104.889 98.9221C105.084 99.2693 105.533 99.3762 105.98 99.0839C106.62 98.6652 107.218 98.1812 107.734 97.7995C108.088 97.4148 108.193 97.0899 107.934 96.7483Z" fill="white"/>
<path d="M102.957 103.184C102.359 103.605 101.784 104.063 101.215 104.523C100.49 105.109 101.211 106.153 102.051 105.588C102.658 105.183 103.226 104.716 103.752 104.32C104.094 103.946 104.136 103.593 103.903 103.315C103.63 102.989 103.278 102.958 102.957 103.184Z" fill="white"/>
<path d="M90.7821 98.9816C90.1141 99.4934 90.7909 100.546 91.526 100.109C92.1585 99.7325 92.7535 99.2922 93.2703 98.9418C94.0138 98.0928 93.1648 97.3606 92.5244 97.7699C91.9273 98.1499 91.3431 98.5536 90.7821 98.9816Z" fill="white"/>
<path d="M92.6868 122.345C92.2333 121.672 91.6154 122.212 90.5411 122.901C90.0969 123.186 89.9707 123.504 90.1497 123.845C90.1743 123.894 90.2024 123.934 90.2291 123.972C90.4889 124.07 90.7438 124.152 90.9902 124.203C91.4733 124.082 92.0384 123.643 92.5013 123.284C92.7996 122.966 92.9006 122.663 92.6868 122.345Z" fill="white"/>
<path d="M97.245 93.2142C97.954 92.7173 99.0184 91.9354 98.4647 91.28C98.1989 90.968 97.7917 90.9668 97.3584 91.309C97.0124 91.5826 96.6652 91.8642 96.3664 92.1862C95.7617 92.8386 96.58 93.6841 97.245 93.2142Z" fill="white"/>
<path d="M68.2052 112.604C67.943 112.257 67.5742 112.254 67.2551 112.474C66.6601 112.88 66.0912 113.323 65.5231 113.765C66.0501 113.951 66.5816 114.14 67.1145 114.328C67.4306 114.091 67.7312 113.857 68.0063 113.654C68.359 113.269 68.4645 112.944 68.2052 112.604Z" fill="white"/>
<path d="M72.9163 114.031C73.3871 114.934 74.4766 114.086 75.27 113.47C75.5659 113.152 75.667 112.849 75.4534 112.531C75.0007 111.857 74.382 112.397 73.3083 113.087C72.8644 113.372 72.7373 113.688 72.9163 114.031Z" fill="white"/>
<path d="M59.7854 109.925C60.4929 109.426 61.5573 108.644 61.0033 107.99C60.739 107.678 60.3303 107.675 59.897 108.017C59.5513 108.292 59.2039 108.573 58.905 108.896C58.3009 109.547 59.1189 110.393 59.7854 109.925Z" fill="white"/>
<path d="M76.9243 116.803C76.6592 116.491 76.2522 116.488 75.8189 116.831C75.6341 116.976 75.4486 117.128 75.2708 117.285C75.7677 117.473 76.2642 117.665 76.7617 117.859C77.0652 117.511 77.2102 117.14 76.9243 116.803Z" fill="white"/>
<path d="M109.606 108.981C108.931 109.503 108.289 110.067 107.635 110.614C106.992 111.272 107.552 112.158 108.408 111.75C108.74 111.591 110.238 110.266 110.453 110.074C111.233 109.371 110.402 108.366 109.606 108.981Z" fill="white"/>
<path d="M114.834 104.496C114.487 104.769 114.14 105.052 113.84 105.374C113.237 106.026 114.054 106.872 114.721 106.402C115.429 105.904 116.493 105.122 115.938 104.468C115.674 104.156 115.266 104.153 114.834 104.496Z" fill="white"/>
<path d="M127.821 75.0472C128.156 75.6906 128.807 75.4415 129.441 75.0226C128.902 74.8407 128.361 74.6608 127.821 74.4797C127.719 74.6596 127.717 74.8486 127.821 75.0472Z" fill="white"/>
<path d="M100.063 82.3901C100.779 82.0327 101.377 81.5012 101.934 81.055C102.31 80.6176 102.344 80.2529 102.08 79.9655C101.811 79.6716 101.445 79.6435 101.052 79.9596C100.502 80.4035 99.9384 80.8253 99.3428 81.2085C98.5509 81.7201 99.1978 82.8213 100.063 82.3901Z" fill="white"/>
<path d="M106.954 76.8575C107.251 76.5411 107.354 76.2379 107.139 75.9203C106.686 75.2468 106.067 75.7867 104.994 76.4755C104.549 76.7605 104.422 77.0784 104.602 77.42C105.074 78.3215 106.162 77.4725 106.954 76.8575Z" fill="white"/>
<path d="M105.566 94.3708C106.34 93.8871 107.097 93.3794 107.804 92.9195C108.159 92.5691 108.217 92.2061 107.99 91.9207C107.725 91.5859 107.375 91.556 107.04 91.7596C106.235 92.2483 105.446 92.7624 104.659 93.2781C104.418 93.4363 104.313 93.6897 104.399 93.9747C104.592 94.6134 105.317 94.5258 105.566 94.3708Z" fill="white"/>
<path d="M110.326 87.599C110.657 87.4423 112.155 86.1166 112.37 85.9238C113.15 85.2219 112.32 84.2161 111.523 84.8313C110.848 85.3525 110.207 85.918 109.552 86.4638C108.909 87.1218 109.469 88.0083 110.326 87.599Z" fill="white"/>
<path d="M119.005 92.2121C119.721 91.8541 120.318 91.3241 120.873 90.8785C121.251 90.4397 121.285 90.0749 121.022 89.7875C120.753 89.4951 120.387 89.4655 119.993 89.7831C119.444 90.2273 118.878 90.6474 118.284 91.032C117.492 91.5421 118.138 92.6431 119.005 92.2121Z" fill="white"/>
<path d="M118.077 85.6589C117.815 85.3144 117.446 85.3115 117.127 85.5327C116.518 85.9469 115.936 86.4013 115.352 86.8548C114.938 87.1759 114.845 87.4982 115.033 87.833C115.23 88.1802 115.677 88.2871 116.124 87.9953C116.764 87.5782 117.362 87.0921 117.88 86.7101C118.231 86.326 118.337 86.0011 118.077 85.6589Z" fill="white"/>
<path d="M112.196 94.5006C112.803 94.0934 113.37 93.627 113.897 93.23C114.238 92.8582 114.281 92.5037 114.048 92.2257C113.775 91.9008 113.422 91.8683 113.101 92.0951C112.503 92.5166 111.929 92.9751 111.359 93.4336C110.635 94.019 111.355 95.0631 112.196 94.5006Z" fill="white"/>
<path d="M101.67 89.0193C102.302 88.6437 102.896 88.2049 103.414 87.8548C104.159 87.0058 103.308 86.2722 102.668 86.6808C102.071 87.0614 101.486 87.4642 100.925 87.8946C100.257 88.4041 100.933 89.4582 101.67 89.0193Z" fill="white"/>
<path d="M123.181 86.1431C122.737 86.4296 122.61 86.746 122.79 87.0876C123.261 87.9908 124.349 87.1418 125.143 86.5251C125.439 86.209 125.542 85.907 125.327 85.5879C124.875 84.9144 124.256 85.4537 123.181 86.1431Z" fill="white"/>
<path d="M107.39 82.1269C108.099 81.628 109.164 80.846 108.608 80.1913C108.345 79.8801 107.936 79.8778 107.503 80.2194C107.157 80.493 106.809 80.7754 106.511 81.098C105.907 81.7504 106.724 82.5954 107.39 82.1269Z" fill="white"/>
<path d="M116.726 81.1911C117.499 80.7065 118.256 80.1991 118.963 79.7391C119.318 79.389 119.376 79.0257 119.15 78.7407C118.883 78.4064 118.534 78.3762 118.198 78.5798C117.395 79.07 116.606 79.5827 115.818 80.0998C115.577 80.2565 115.472 80.5099 115.558 80.7953C115.752 81.4328 116.478 81.3461 116.726 81.1911Z" fill="white"/>
<path d="M120.336 75.1014C120.668 74.9432 122.166 73.6184 122.381 73.4248C122.596 73.2305 122.686 73.014 122.69 72.8145C122.271 72.6824 121.851 72.5497 121.428 72.4187C120.793 72.9156 120.183 73.447 119.562 73.9653C118.921 74.6242 119.481 75.5086 120.336 75.1014Z" fill="white"/>
<path d="M129.413 79.7744C130.128 79.4169 130.726 78.887 131.282 78.4414C131.659 78.0025 131.693 77.6377 131.43 77.3518C131.16 77.0579 130.793 77.0284 130.402 77.3459C129.851 77.7901 129.287 78.2117 128.692 78.5937C127.9 79.1049 128.546 80.2062 129.413 79.7744Z" fill="white"/>
<path d="M123.354 81.3202C123.963 80.913 124.53 80.4471 125.056 80.0493C125.397 79.6775 125.44 79.323 125.206 79.045C124.934 78.7207 124.581 78.689 124.261 78.9143C123.662 79.3359 123.088 79.7944 122.518 80.2529C121.793 80.8385 122.514 81.8824 123.354 81.3202Z" fill="white"/>
<path d="M113.496 75.8394C114.129 75.4647 114.723 75.0244 115.24 74.674C115.985 73.825 115.136 73.0929 114.493 73.5016C113.896 73.8807 113.312 74.2835 112.751 74.7139C112.083 75.2248 112.76 76.2777 113.496 75.8394Z" fill="white"/>
<path d="M113.99 98.0761C113.538 97.4031 112.919 97.9433 111.845 98.6327C111.401 98.918 111.273 99.2342 111.453 99.5772C111.923 100.479 113.013 99.63 113.805 99.0147C114.103 98.6986 114.204 98.3954 113.99 98.0761Z" fill="white"/>
<path d="M114.5 71.8147C114.967 71.4859 115.587 71.0327 115.796 70.5757C115.315 70.3958 114.834 70.2306 114.365 70.1113C114.105 70.3223 113.848 70.5417 113.62 70.7863C113.016 71.4385 113.833 72.2834 114.5 71.8147Z" fill="white"/>
<path d="M141.806 81.559C141.081 82.1432 141.802 83.1885 142.643 82.6248C143.249 82.219 143.818 81.752 144.343 81.3557C144.575 81.1022 144.665 80.8588 144.63 80.6408C144.267 80.497 143.91 80.3555 143.554 80.2163C143.551 80.2178 143.55 80.2192 143.547 80.2207C142.95 80.642 142.376 81.0993 141.806 81.559Z" fill="white"/>
<path d="M136.222 81.7021C136.854 81.3259 137.448 80.8871 137.965 80.5367C138.71 79.6876 137.859 78.954 137.219 79.3627C136.622 79.7433 136.037 80.1461 135.476 80.5765C134.809 81.0883 135.485 82.1404 136.222 81.7021Z" fill="white"/>
<path d="M119.341 97.274C118.665 97.797 118.025 98.3607 117.369 98.9079C116.727 99.5656 117.287 100.452 118.142 100.043C118.475 99.885 119.973 98.5599 120.188 98.3665C120.967 97.6663 120.137 96.6606 119.341 97.274Z" fill="white"/>
<path d="M124.863 95.4862C124.516 95.7598 124.17 96.0413 123.87 96.3633C123.266 97.016 124.082 97.8607 124.749 97.3922C125.457 96.8933 126.523 96.1128 125.967 95.458C125.703 95.1463 125.296 95.1434 124.863 95.4862Z" fill="white"/>
<path d="M131.825 87.6561C132.604 86.9559 131.774 85.9501 130.978 86.5651C130.303 87.0863 130.217 87.3371 129.562 87.8843C128.921 88.542 129.48 89.428 130.337 89.0207C130.667 88.8611 131.61 87.8503 131.825 87.6561Z" fill="white"/>
<path d="M136.191 88.4626C136.831 88.0452 137.43 87.5609 137.945 87.1774C138.298 86.7933 138.404 86.4684 138.144 86.1277C137.882 85.7817 137.515 85.7802 137.194 85.9985C136.585 86.4145 136.002 86.8686 135.419 87.3207C135.005 87.6441 134.911 87.9655 135.1 88.3018C135.297 88.6487 135.744 88.7541 136.191 88.4626Z" fill="white"/>
<path d="M132.262 94.9681C132.869 94.5623 133.437 94.095 133.963 93.6986C134.305 93.3254 134.346 92.9709 134.114 92.6929C133.84 92.368 133.489 92.3369 133.168 92.5622C132.57 92.9838 131.996 93.4423 131.426 93.9008C130.701 94.4879 131.422 95.5306 132.262 94.9681Z" fill="white"/>
<path d="M125.243 92.5049C125.876 92.1287 126.47 91.6899 126.987 91.3398C127.732 90.4907 126.883 89.7571 126.241 90.167C125.644 90.5461 125.059 90.9498 124.5 91.3793C123.832 91.8914 124.507 92.9441 125.243 92.5049Z" fill="white"/>
<path d="M143.25 86.612C142.808 86.8944 142.682 87.2061 142.853 87.5462C143.658 86.9823 144.455 86.4242 145.237 85.8784C144.799 85.5051 144.205 85.9982 143.25 86.612Z" fill="white"/>
<path d="M130.181 82.8162C129.575 83.4684 130.393 84.313 131.061 83.8446C131.768 83.3456 132.833 82.5652 132.278 81.9104C132.014 81.5984 131.607 81.5955 131.174 81.9385C130.826 82.2119 130.48 82.4928 130.181 82.8162Z" fill="white"/>
<path fill-rule="evenodd" clip-rule="evenodd" d="M110.287 77.1455C111.203 76.9498 112.786 77.4487 113.858 77.8416C119.213 79.8136 123.305 81.7378 128.402 84.0259C129.269 84.4158 130.446 84.8758 131.276 85.3319C132.114 85.7919 133.273 86.6734 133.279 87.4228C133.289 88.646 130.54 90.1433 129.708 90.7319C126.182 93.2227 123.166 95.3585 119.345 97.612C118.58 98.0617 117.77 98.6257 116.993 98.6576C116.06 98.6931 115.032 98.0931 114.032 97.612C111.246 96.2696 108.968 94.9867 106.108 93.6915C103.588 92.5521 100.682 91.2431 98.0949 89.773C97.3742 89.3643 96.0611 88.6574 96.0054 87.9443C95.9143 86.7733 98.4031 85.3761 99.1405 84.8107C101.392 83.0802 103.824 81.0859 106.195 79.4974C107.413 78.6821 108.659 77.7393 110.114 77.2325C110.156 77.2176 110.199 77.1648 110.287 77.1455Z" fill="#4D3D87"/>
<path fill-rule="evenodd" clip-rule="evenodd" d="M138.351 107.029C134.829 107.924 131.441 108.814 128.432 110.186C124.324 112.058 120.79 114.574 117.514 117.063C110.604 122.312 104.586 128.247 97.6972 133.315C94.2692 135.838 90.6692 138.223 86.2386 139.548C81.8488 140.86 76.728 141.588 70.7851 141.094C64.9749 140.611 59.7115 139.296 55.5164 137.203C51.4152 135.157 47.9684 132.494 46.9503 127.629C53.7273 127.295 60.3525 125.964 64.8123 122.485C66.4348 121.22 68.7727 118.507 67.7877 115.875C66.6824 112.923 62.0447 112.578 58.6246 113.046C56.0889 113.397 53.9907 114.263 52.2361 115.172C48.3156 117.203 45.2535 119.845 44.3898 125.31C35.9089 125.274 27.8236 124.17 21.3797 121.93C14.8099 119.647 9.59272 116.142 5.86557 111.516C3.94135 109.133 2.48442 106.414 2.38041 102.767C2.26059 98.5463 3.91909 95.5064 5.91479 93.2178C7.54369 91.3483 9.46 89.9043 11.6593 88.7931C11.6593 88.7931 13.0427 85.7497 13.0456 85.728C12.4342 85.8203 11.3763 86.1859 10.6905 86.5425C7.72065 88.0812 5.23481 90.0666 3.27953 92.6096C1.19448 95.3251 -0.228766 99.1331 0.0305112 103.157C0.283929 107.068 1.65151 109.984 3.67827 112.593C7.53813 117.564 12.9419 121.364 20.0095 123.901C26.9936 126.406 35.3324 127.742 44.5512 127.717C45.8731 135.048 52.3029 139.199 59.7715 141.466C65.9368 143.337 73.1499 143.946 79.2554 143.337C81.2778 143.136 83.1903 142.644 85.1608 142.442C87.1152 142.24 89.1888 141.997 91.3319 141.941C95.7428 141.825 100.498 142.287 104.693 142.077C106.806 141.97 108.853 141.692 110.802 141.423C117.413 140.504 124.113 138.741 129.573 136.135C130.52 135.683 131.532 135.246 131.517 134.439C131.481 132.419 128.161 134.329 127.623 134.543C123.244 136.294 118.681 137.624 114.049 138.497C107.52 139.726 100.195 140.014 92.4364 139.575C100.946 134.772 107.737 128.135 115.291 121.948C120.751 117.473 126.406 112.938 134.068 110.683C135.211 110.347 136.405 109.994 137.823 109.596C138.747 109.338 141.057 109.206 141.114 107.87C141.185 106.235 139.329 106.778 138.351 107.029ZM52.3029 117.794C55.0055 116.192 58.4652 115.037 61.9454 115.209C63.4934 115.287 65.3748 115.843 65.6075 116.878C65.9845 118.555 63.663 120.386 62.7742 121.036C58.7098 124.006 53.0037 124.805 46.9386 125.237C47.323 121.567 49.6539 119.363 52.3029 117.794Z" fill="#8F7ECE"/>
<path opacity="0.75" fill-rule="evenodd" clip-rule="evenodd" d="M138.351 107.029C134.829 107.924 131.441 108.814 128.432 110.186C124.324 112.058 120.79 114.574 117.514 117.063C110.604 122.312 104.586 128.247 97.6972 133.315C94.2692 135.838 90.6692 138.223 86.2386 139.548C81.8488 140.86 76.728 141.588 70.7851 141.094C64.9749 140.611 59.7115 139.296 55.5164 137.203C51.4152 135.157 47.9684 132.494 46.9503 127.629C53.7273 127.295 60.3525 125.964 64.8123 122.485C66.4348 121.22 68.7727 118.507 67.7877 115.875C66.6824 112.923 62.0447 112.578 58.6246 113.046C56.0889 113.397 53.9907 114.263 52.2361 115.172C48.3156 117.203 45.2535 119.845 44.3898 125.31C35.9089 125.274 27.8236 124.17 21.3797 121.93C14.8099 119.647 9.59272 116.142 5.86557 111.516C3.94135 109.133 2.48442 106.414 2.38041 102.767C2.26059 98.5463 3.91909 95.5064 5.91479 93.2178C7.54369 91.3483 9.46 89.9043 11.6593 88.7931C11.6593 88.7931 13.0427 85.7497 13.0456 85.728C12.5215 85.7866 11.3763 86.1859 10.6905 86.5425C7.72065 88.0812 5.23481 90.0666 3.27953 92.6096C1.19448 95.3251 -0.228766 99.1331 0.0305112 103.157C0.283929 107.068 1.65151 109.984 3.67827 112.593C7.53813 117.564 12.9419 121.364 20.0095 123.901C26.9936 126.406 35.3324 127.742 44.5512 127.717C45.8731 135.048 52.3029 139.199 59.7715 141.466C65.9368 143.337 73.1499 143.946 79.2554 143.337C81.2778 143.136 83.1903 142.644 85.1608 142.442C87.1152 142.24 89.1888 141.997 91.3319 141.941C95.7428 141.825 100.498 142.287 104.693 142.077C106.806 141.97 108.853 141.692 110.802 141.423C117.413 140.504 124.113 138.741 129.573 136.135C130.52 135.683 131.532 135.246 131.517 134.439C131.481 132.419 128.161 134.329 127.623 134.543C123.244 136.294 118.681 137.624 114.049 138.497C107.52 139.726 100.195 140.014 92.4364 139.575C100.946 134.772 107.737 128.135 115.291 121.948C120.751 117.473 126.406 112.938 134.068 110.683C135.211 110.347 136.405 109.994 137.823 109.596C138.747 109.338 141.057 109.206 141.114 107.87C141.185 106.235 139.329 106.778 138.351 107.029ZM52.3029 117.794C55.0055 116.192 58.4652 115.037 61.9454 115.209C63.4934 115.287 65.3748 115.843 65.6075 116.878C65.9845 118.555 63.663 120.386 62.7742 121.036C58.7098 124.006 53.0037 124.805 46.9386 125.237C47.323 121.567 49.6539 119.363 52.3029 117.794Z" fill="white"/>
<path fill-rule="evenodd" clip-rule="evenodd" d="M136.016 130.088C133.419 131.411 130.821 132.733 128.217 134.12C128.51 134.915 128.77 135.704 129.13 136.51C132.327 135.212 138.681 133.073 142.242 129.56C143.682 128.141 144.881 125.603 142.655 123.998C140.609 122.528 135.901 124.417 135.496 127.378C135.365 128.32 135.732 129.079 136.016 130.088Z" fill="#8F7ECE"/>
<path fill-rule="evenodd" clip-rule="evenodd" d="M137.63 129.173C138.314 129.243 140.738 128.154 140.246 127.264C139.919 126.672 138.969 127.237 138.4 127.524C137.964 127.746 136.872 128.038 137.015 128.74C137.088 129.122 137.441 129.153 137.63 129.173Z" fill="white"/>
<path fill-rule="evenodd" clip-rule="evenodd" d="M140.997 124.527C140.363 124.153 139.435 124.89 139.689 125.483C140.01 126.222 142.095 125.181 140.997 124.527Z" fill="white"/>
<path fill-rule="evenodd" clip-rule="evenodd" d="M140.902 109.133C138.081 109.863 135.26 110.593 132.393 111.281C132.082 110.49 131.756 109.728 131.491 108.888C134.746 107.74 140.922 105.129 145.916 105.398C147.934 105.51 150.516 106.614 149.911 109.289C149.354 111.746 144.576 113.453 142.31 111.506C141.591 110.886 141.36 110.078 140.902 109.133Z" fill="#8F7ECE"/>
<path fill-rule="evenodd" clip-rule="evenodd" d="M142.717 108.747C143.181 108.241 145.72 107.45 145.943 108.443C146.092 109.103 145.003 109.311 144.386 109.471C143.914 109.59 142.903 110.098 142.543 109.478C142.348 109.143 142.591 108.888 142.717 108.747Z" fill="white"/>
<path fill-rule="evenodd" clip-rule="evenodd" d="M148.319 109.997C148.095 110.693 146.907 110.758 146.708 110.144C146.455 109.381 148.71 108.778 148.319 109.997Z" fill="white"/>
<path fill-rule="evenodd" clip-rule="evenodd" d="M15.4213 109.006C15.2025 109.758 15.09 110.523 14.7607 111.264C13.8633 111.029 13.0755 110.734 12.0258 110.317C11.4958 110.106 9.40052 109.454 9.96888 108.776C10.3562 108.308 14.5339 108.736 15.4213 109.006Z" fill="#8F7ECE"/>
<path d="M44.7172 119.979C47.3085 120.523 49.8776 121.102 52.526 121.564C52.7167 121.597 52.9247 121.636 53.1427 121.674C54.2258 120.345 53.9551 118.859 53.5775 117.359C50.8842 116.556 48.1016 115.995 45.3723 115.299C43.3288 114.78 41.2739 114.297 39.2264 113.814C38.9867 115.382 38.7433 116.949 38.1565 118.476C40.3394 119.015 42.5278 119.522 44.7172 119.979Z" fill="#B1BC00"/>
<path d="M13.3895 110.852C14.612 111.697 16.8638 112.41 18.7224 112.999C20.4907 113.564 22.2937 114.13 23.8807 114.589C28.0827 115.807 32.3557 117.012 36.6562 118.105C36.6207 118.081 36.5812 118.065 36.5428 118.042C36.9752 116.512 37.2424 114.962 37.5623 113.421C36.6864 113.211 35.8107 113 34.94 112.781C29.7298 111.476 24.4411 110.364 19.2916 109.296C17.5602 108.937 15.7444 108.476 13.9824 108.722C13.6675 109.418 13.461 110.129 13.3895 110.852Z" fill="#B1BC00"/>
<path d="M53.831 119.734C53.9394 119.176 54.6015 118.828 55.3067 118.956L58.046 119.455C58.7529 119.583 59.2366 120.141 59.1255 120.7C59.0171 121.257 58.3565 121.607 57.6496 121.479L54.9109 120.98C54.2043 120.851 53.7211 120.293 53.831 119.734Z" fill="#4D3D87"/>
<path fill-rule="evenodd" clip-rule="evenodd" d="M36.5567 111.757C37.2296 111.495 38.016 111.727 38.6968 111.829C42.0882 112.324 45.5013 113.016 49.1104 113.94C49.7444 114.101 50.3444 114.264 51.2013 114.542C52.4778 114.956 53.6872 115.488 53.4323 116.641C53.3751 116.905 53.1601 117.466 52.6287 117.402C51.9832 117.325 52.1116 116.278 51.7471 115.953C51.4424 115.677 50.5638 115.564 49.8806 115.376C48.0452 114.865 46.2402 114.343 44.3716 113.927C41.6136 113.309 38.9939 112.922 37.0243 112.215C36.8291 112.147 36.5256 112.14 36.5567 111.757Z" fill="#4D3D87"/>
<path d="M36.6551 118.105C37.1555 118.229 37.6559 118.352 38.1554 118.476C38.7425 116.949 38.9856 115.382 39.2253 113.814C38.6692 113.683 38.117 113.554 37.5609 113.421C37.241 114.962 36.9738 116.512 36.5414 118.042C36.5801 118.065 36.6199 118.082 36.6551 118.105Z" fill="#4D3D87"/>
<path d="M53.1423 121.674C53.9372 121.815 54.8304 121.939 55.2239 121.699C55.4 121.592 55.6267 121.132 55.7509 120.863C56.1734 119.958 56.2065 118.911 55.782 118.084C55.0557 117.816 54.3192 117.58 53.5771 117.359C53.9547 118.859 54.2255 120.345 53.1423 121.674Z" fill="#4D3D87"/>
<path fill-rule="evenodd" clip-rule="evenodd" d="M50.2465 118.753C50.6904 119.567 48.0413 119.248 48.058 118.602C48.0783 117.848 49.759 118.328 50.1944 118.675C50.2234 118.699 50.2304 118.722 50.2465 118.753Z" fill="white"/>
<path fill-rule="evenodd" clip-rule="evenodd" d="M47.1199 118.005C47.366 118.693 45.1272 118.522 45.3199 117.825C45.4649 117.296 46.95 117.53 47.1199 118.005Z" fill="white"/>
<path fill-rule="evenodd" clip-rule="evenodd" d="M17.3632 109.851C17.977 109.914 18.9329 110.12 18.9271 110.482C18.9206 110.945 18.2837 110.79 17.7892 110.704C17.2952 110.621 16.6838 110.502 16.7234 110.135C16.7652 109.732 17.1227 109.825 17.3632 109.851Z" fill="white"/>
<path fill-rule="evenodd" clip-rule="evenodd" d="M20.1366 111.243C20.5966 111.262 21.0319 111.446 20.9772 111.763C20.8825 112.294 19.3685 112.044 19.4956 111.527C19.5437 111.33 19.7546 111.227 20.1366 111.243Z" fill="white"/>
</g>
<defs>
<clipPath id="clip0_320_75869">
<rect width="150" height="150" fill="white"/>
</clipPath>
</defs>
</svg>
